<?xml version="1.0" encoding="UTF-8" standalone="no"?>
<svg xmlns:ffdec="https://www.free-decompiler.com/flash" xmlns:xlink="http://www.w3.org/1999/xlink" ffdec:objectType="shape" height="94.65px" width="221.6px" xmlns="http://www.w3.org/2000/svg">
  <g transform="matrix(1.0, 0.0, 0.0, 1.0, -0.05, 0.05)">
    <path d="M217.25 85.45 Q207.0 88.95 155.7 92.45 100.55 96.2 74.9 93.45 51.75 90.95 26.6 58.4 19.1 48.7 11.15 35.8 L4.25 24.8 Q3.2 24.0 1.95 19.8 0.6 15.45 0.2 10.95 -0.95 -1.2 5.6 0.1 12.1 3.25 19.2 8.0 33.35 17.5 36.25 25.45 40.05 35.75 52.65 50.75 66.05 66.7 73.6 68.1 79.55 69.2 87.25 65.7 94.8 62.25 96.9 62.8 98.6 63.2 98.7 65.1 L98.4 69.1 Q98.05 75.15 104.9 77.45 112.9 80.1 128.9 76.55 139.3 74.2 156.9 68.1 168.3 64.15 188.35 67.95 205.15 71.15 210.25 74.8 212.6 76.45 219.85 79.85 224.5 82.95 217.25 85.45" fill="url(#gradient0)" fill-rule="evenodd" stroke="none"/>
  </g>
  <defs>
    <linearGradient gradientTransform="matrix(0.1353, 0.0, 0.0, -0.1353, 110.9, 47.25)" gradientUnits="userSpaceOnUse" id="gradient0" spreadMethod="pad" x1="-819.2" x2="819.2">
      <stop offset="0.0" stop-color="#24a0ce"/>
      <stop offset="0.3764705882352941" stop-color="#239bcb"/>
      <stop offset="0.8156862745098039" stop-color="#228dc3"/>
      <stop offset="1.0" stop-color="#2185be"/>
    </linearGradient>
  </defs>
</svg>
