<?xml version="1.0" encoding="UTF-8" standalone="no"?>
<svg xmlns:ffdec="https://www.free-decompiler.com/flash" xmlns:xlink="http://www.w3.org/1999/xlink" ffdec:objectType="shape" height="92.25px" width="246.65px" xmlns="http://www.w3.org/2000/svg">
  <g transform="matrix(1.0, 0.0, 0.0, 1.0, 0.0, 0.0)">
    <path d="M215.6 91.8 L148.6 92.2 Q94.1 92.35 79.2 92.15 65.9 91.9 45.35 71.35 37.85 63.85 31.5 55.65 25.8 48.35 24.6 45.25 21.65 37.85 9.7 17.15 L0.0 0.0 Q6.95 2.25 14.85 5.8 30.6 12.8 35.25 19.1 37.45 22.05 46.65 37.3 53.85 49.25 58.5 53.35 63.85 58.0 75.6 62.05 84.8 65.25 90.5 65.95 L98.9 66.3 Q103.2 66.85 102.15 70.5 100.8 75.4 106.7 76.7 113.1 78.15 121.9 72.75 139.7 61.8 175.85 65.95 187.25 67.25 203.8 71.5 218.25 75.2 225.0 75.35 235.8 75.6 242.75 77.7 250.0 79.95 243.75 81.8 236.3 83.75 235.2 84.3 233.8 85.05 238.55 86.3 243.95 87.8 236.2 89.65 228.35 91.6 215.6 91.8" fill="url(#gradient0)" fill-rule="evenodd" stroke="none"/>
  </g>
  <defs>
    <linearGradient gradientTransform="matrix(0.1504, 0.0, 0.0, -0.1504, 123.25, 46.15)" gradientUnits="userSpaceOnUse" id="gradient0" spreadMethod="pad" x1="-819.2" x2="819.2">
      <stop offset="0.0" stop-color="#24a0ce"/>
      <stop offset="0.3764705882352941" stop-color="#239bcb"/>
      <stop offset="0.8156862745098039" stop-color="#228dc3"/>
      <stop offset="1.0" stop-color="#2185be"/>
    </linearGradient>
  </defs>
</svg>
