<?xml version="1.0" encoding="UTF-8" standalone="no"?>
<svg xmlns:ffdec="https://www.free-decompiler.com/flash" xmlns:xlink="http://www.w3.org/1999/xlink" ffdec:objectType="shape" height="82.0px" width="82.0px" xmlns="http://www.w3.org/2000/svg">
  <g transform="matrix(1.0, 0.0, 0.0, 1.0, 0.5, 0.5)">
    <path d="M12.0 0.0 L69.0 0.0 Q81.0 0.0 81.0 12.0 L81.0 69.0 Q81.0 81.0 69.0 81.0 L12.0 81.0 Q0.0 81.0 0.0 69.0 L0.0 12.0 Q0.0 0.0 12.0 0.0" fill="#f8f1e0" fill-rule="evenodd" stroke="none"/>
    <path d="M12.0 0.0 L69.0 0.0 Q81.0 0.0 81.0 12.0 L81.0 69.0 Q81.0 81.0 69.0 81.0 L12.0 81.0 Q0.0 81.0 0.0 69.0 L0.0 12.0 Q0.0 0.0 12.0 0.0 Z" fill="none" stroke="#3e3205" stroke-linecap="round" stroke-linejoin="round" stroke-opacity="0.10980392" stroke-width="1.0"/>
  </g>
</svg>
