<?xml version="1.0" encoding="UTF-8" standalone="no"?>
<svg xmlns:ffdec="https://www.free-decompiler.com/flash" xmlns:xlink="http://www.w3.org/1999/xlink" ffdec:objectType="shape" height="52.05px" width="156.5px" xmlns="http://www.w3.org/2000/svg">
  <g transform="matrix(1.0, 0.0, 0.0, 1.0, 0.0, 0.0)">
    <path d="M156.5 28.0 L150.45 42.55 146.5 52.0 146.3 52.0 10.0 52.0 8.85 52.05 7.7 51.85 6.65 51.7 5.65 51.4 4.8 51.1 3.95 50.65 3.25 50.1 Q1.4 48.65 0.65 46.4 0.05 44.6 0.0 42.6 L0.0 42.0 0.0 10.2 0.0 10.0 0.05 8.85 0.2 7.7 0.7 5.65 1.0 4.8 1.45 3.95 2.6 2.6 3.95 1.45 Q5.65 0.4 7.7 0.2 L8.95 0.1 10.0 0.0 146.3 0.0 146.5 0.0 150.15 10.2 156.5 28.0" fill="url(#gradient0)" fill-rule="evenodd" stroke="none"/>
  </g>
  <defs>
    <linearGradient gradientTransform="matrix(0.0, 0.0314, -0.0318, 0.0, 78.3, 26.05)" gradientUnits="userSpaceOnUse" id="gradient0" spreadMethod="pad" x1="-819.2" x2="819.2">
      <stop offset="0.0" stop-color="#ffa200"/>
      <stop offset="1.0" stop-color="#f06000"/>
    </linearGradient>
  </defs>
</svg>
