<?xml version="1.0" encoding="UTF-8" standalone="no"?>
<svg xmlns:ffdec="https://www.free-decompiler.com/flash" xmlns:xlink="http://www.w3.org/1999/xlink" ffdec:objectType="shape" height="213.0px" width="526.0px" xmlns="http://www.w3.org/2000/svg">
  <g transform="matrix(1.0, 0.0, 0.0, 1.0, 0.5, 0.5)">
    <path d="M12.0 0.0 L513.0 0.0 Q525.0 0.0 525.0 12.0 L525.0 200.0 Q525.0 212.0 513.0 212.0 L12.0 212.0 Q0.0 212.0 0.0 200.0 L0.0 12.0 Q0.0 0.0 12.0 0.0" fill="#fbebb2" fill-rule="evenodd" stroke="none"/>
    <path d="M12.0 0.0 L513.0 0.0 Q525.0 0.0 525.0 12.0 L525.0 200.0 Q525.0 212.0 513.0 212.0 L12.0 212.0 Q0.0 212.0 0.0 200.0 L0.0 12.0 Q0.0 0.0 12.0 0.0 Z" fill="none" stroke="#666600" stroke-linecap="round" stroke-linejoin="round" stroke-opacity="0.0" stroke-width="1.0"/>
  </g>
</svg>
