<?xml version="1.0" encoding="UTF-8" standalone="no"?>
<svg xmlns:ffdec="https://www.free-decompiler.com/flash" xmlns:xlink="http://www.w3.org/1999/xlink" ffdec:objectType="shape" height="14.25px" width="15.8px" xmlns="http://www.w3.org/2000/svg">
  <g transform="matrix(1.0, 0.0, 0.0, 1.0, -1.2, 0.15)">
    <path d="M17.0 8.0 Q17.0 9.0 16.0 9.0 L7.5 9.0 9.55 11.05 Q9.9 11.4 9.75 11.8 L9.4 12.3 8.0 13.7 Q7.3 14.4 6.75 13.85 L1.7 8.8 1.45 8.6 Q1.2 8.3 1.2 7.8 L1.2 6.3 1.4 5.65 1.6 5.3 6.8 0.1 Q7.4 -0.5 8.15 0.25 L9.55 1.65 Q10.25 2.35 9.65 2.95 L7.6 5.0 16.0 5.0 Q17.0 5.0 17.0 6.0 L17.0 8.0" fill="#ffffff" fill-rule="evenodd" stroke="none"/>
  </g>
</svg>
