<?xml version="1.0" encoding="UTF-8" standalone="no"?>
<svg xmlns:ffdec="https://www.free-decompiler.com/flash" xmlns:xlink="http://www.w3.org/1999/xlink" ffdec:objectType="shape" height="29.0px" width="41.0px" xmlns="http://www.w3.org/2000/svg">
  <g transform="matrix(1.0, 0.0, 0.0, 1.0, 0.5, 0.5)">
    <path d="M12.0 0.0 L28.0 0.0 Q32.95 0.0 36.45 3.5 40.0 7.05 40.0 12.0 L40.0 16.0 Q40.0 20.95 36.45 24.45 32.95 28.0 28.0 28.0 L12.0 28.0 Q7.05 28.0 3.5 24.45 0.0 20.95 0.0 16.0 L0.0 12.0 Q0.0 7.05 3.5 3.5 7.05 0.0 12.0 0.0" fill="url(#gradient0)" fill-rule="evenodd" stroke="none"/>
    <path d="M12.0 0.0 L28.0 0.0 Q32.95 0.0 36.45 3.5 40.0 7.05 40.0 12.0 L40.0 16.0 Q40.0 20.95 36.45 24.45 32.95 28.0 28.0 28.0 L12.0 28.0 Q7.05 28.0 3.5 24.45 0.0 20.95 0.0 16.0 L0.0 12.0 Q0.0 7.05 3.5 3.5 7.05 0.0 12.0 0.0 Z" fill="none" stroke="#666600" stroke-linecap="round" stroke-linejoin="round" stroke-opacity="0.0" stroke-width="1.0"/>
  </g>
  <defs>
    <linearGradient gradientTransform="matrix(0.0, 0.0171, -0.0171, 0.0, 20.0, 14.0)" gradientUnits="userSpaceOnUse" id="gradient0" spreadMethod="pad" x1="-819.2" x2="819.2">
      <stop offset="0.0" stop-color="#cccccc"/>
      <stop offset="1.0" stop-color="#333333"/>
    </linearGradient>
  </defs>
</svg>
