<?xml version="1.0" encoding="UTF-8" standalone="no"?>
<svg xmlns:ffdec="https://www.free-decompiler.com/flash" xmlns:xlink="http://www.w3.org/1999/xlink" ffdec:objectType="shape" height="34.0px" width="111.0px" xmlns="http://www.w3.org/2000/svg">
  <g transform="matrix(1.0, 0.0, 0.0, 1.0, 0.5, 0.5)">
    <path d="M12.0 0.0 L98.0 0.0 Q102.95 0.0 106.45 3.5 110.0 7.05 110.0 12.0 L110.0 21.0 Q110.0 25.95 106.45 29.45 102.95 33.0 98.0 33.0 L12.0 33.0 Q7.05 33.0 3.5 29.45 0.0 25.95 0.0 21.0 L0.0 12.0 Q0.0 7.05 3.5 3.5 7.05 0.0 12.0 0.0" fill="#663366" fill-opacity="0.14901961" fill-rule="evenodd" stroke="none"/>
    <path d="M12.0 0.0 L98.0 0.0 Q102.95 0.0 106.45 3.5 110.0 7.05 110.0 12.0 L110.0 21.0 Q110.0 25.95 106.45 29.45 102.95 33.0 98.0 33.0 L12.0 33.0 Q7.05 33.0 3.5 29.45 0.0 25.95 0.0 21.0 L0.0 12.0 Q0.0 7.05 3.5 3.5 7.05 0.0 12.0 0.0 Z" fill="none" stroke="#3e3205" stroke-linecap="round" stroke-linejoin="round" stroke-opacity="0.0" stroke-width="1.0"/>
  </g>
</svg>
