<?xml version="1.0" encoding="UTF-8" standalone="no"?>
<svg xmlns:ffdec="https://www.free-decompiler.com/flash" xmlns:xlink="http://www.w3.org/1999/xlink" ffdec:objectType="shape" height="49.5px" width="111.0px" xmlns="http://www.w3.org/2000/svg">
  <g transform="matrix(1.0, 0.0, 0.0, 1.0, 0.0, 0.0)">
    <path d="M10.5 0.5 L100.5 0.5 Q110.5 0.5 110.5 10.5 L110.5 39.0 Q110.5 49.0 100.5 49.0 L10.5 49.0 Q0.5 49.0 0.5 39.0 L0.5 10.5 Q0.5 0.5 10.5 0.5" fill="url(#gradient0)" fill-rule="evenodd" stroke="none"/>
    <path d="M10.5 0.5 L100.5 0.5 Q110.5 0.5 110.5 10.5 L110.5 39.0 Q110.5 49.0 100.5 49.0 L10.5 49.0 Q0.5 49.0 0.5 39.0 L0.5 10.5 Q0.5 0.5 10.5 0.5 Z" fill="none" stroke="#ae2003" stroke-linecap="round" stroke-linejoin="round" stroke-width="1.0"/>
  </g>
  <defs>
    <linearGradient gradientTransform="matrix(0.0, -0.0293, 0.0293, 0.0, 55.5, 24.5)" gradientUnits="userSpaceOnUse" id="gradient0" spreadMethod="pad" x1="-819.2" x2="819.2">
      <stop offset="0.0" stop-color="#ff1e00"/>
      <stop offset="1.0" stop-color="#ff6c00"/>
    </linearGradient>
  </defs>
</svg>
