<?xml version="1.0" encoding="UTF-8" standalone="no"?>
<svg xmlns:ffdec="https://www.free-decompiler.com/flash" xmlns:xlink="http://www.w3.org/1999/xlink" ffdec:objectType="shape" height="64.4px" width="140.35px" xmlns="http://www.w3.org/2000/svg">
  <g transform="matrix(1.0, 0.0, 0.0, 1.0, -0.1, 0.0)">
    <path d="M129.25 18.3 Q140.4 23.6 140.45 36.7 140.5 48.8 132.25 56.3 125.05 62.9 114.55 64.15 101.65 65.7 91.75 56.8 88.7 54.15 89.3 49.2 89.85 44.7 86.45 42.7 81.95 40.05 82.1 38.25 82.15 37.0 84.8 35.45 87.05 34.1 80.85 30.0 74.2 25.65 64.1 22.7 58.65 21.15 40.55 18.85 23.25 16.65 10.05 12.45 -4.85 7.75 2.6 6.6 L19.7 5.7 Q22.8 5.4 22.25 4.8 21.95 4.4 19.35 3.55 13.6 1.6 16.1 0.95 19.4 0.1 25.3 0.0 L30.55 0.1 Q35.85 1.15 42.4 3.7 49.55 6.45 46.1 6.8 43.25 7.1 52.75 9.55 L72.25 14.85 Q81.65 17.85 87.3 18.75 93.35 19.7 100.1 19.05 106.05 18.5 104.2 16.6 103.2 15.55 98.7 13.5 97.3 12.85 99.7 12.5 102.25 12.1 106.65 12.45 118.85 13.4 129.25 18.3" fill="url(#gradient0)" fill-rule="evenodd" stroke="none"/>
  </g>
  <defs>
    <linearGradient gradientTransform="matrix(0.0857, 0.0, 0.0, -0.0857, 70.2, 32.2)" gradientUnits="userSpaceOnUse" id="gradient0" spreadMethod="pad" x1="-819.2" x2="819.2">
      <stop offset="0.0" stop-color="#24a0ce"/>
      <stop offset="0.3764705882352941" stop-color="#239bcb"/>
      <stop offset="0.8156862745098039" stop-color="#228dc3"/>
      <stop offset="1.0" stop-color="#2185be"/>
    </linearGradient>
  </defs>
</svg>
