<?xml version="1.0" encoding="UTF-8" standalone="no"?>
<svg xmlns:ffdec="https://www.free-decompiler.com/flash" xmlns:xlink="http://www.w3.org/1999/xlink" ffdec:objectType="frame" height="54.65px" width="80.75px" xmlns="http://www.w3.org/2000/svg">
  <g transform="matrix(1.0, 0.0, 0.0, 1.0, 0.0, 0.0)">
    <use ffdec:characterId="1498" height="26.3" transform="matrix(1.0, 0.0, 0.0, 1.0, 5.2, 28.35)" width="31.4" xlink:href="#shape0"/>
    <use ffdec:characterId="1500" height="17.75" style="mix-blend-mode: multiply" transform="matrix(1.0, 0.0, 0.0, 1.0, 5.3, 28.35)" width="31.3" xlink:href="#sprite0"/>
    <use ffdec:characterId="1501" height="43.85" transform="matrix(1.0, 0.0, 0.0, 1.0, 0.0, 6.75)" width="80.75" xlink:href="#shape2"/>
    <use ffdec:characterId="1503" height="14.3" style="mix-blend-mode: multiply" transform="matrix(1.0, 0.0, 0.0, 1.0, 37.5, 6.75)" width="24.0" xlink:href="#sprite1"/>
    <use ffdec:characterId="1504" height="18.2" transform="matrix(1.0, 0.0, 0.0, 1.0, 36.85, 1.9)" width="26.1" xlink:href="#shape4"/>
    <use ffdec:characterId="1506" height="21.8" style="mix-blend-mode: multiply" transform="matrix(1.0, 0.0, 0.0, 1.0, 8.6, 14.9)" width="43.15" xlink:href="#sprite2"/>
    <use ffdec:characterId="1507" height="36.7" transform="matrix(1.0, 0.0, 0.0, 1.0, 13.1, 0.0)" width="38.95" xlink:href="#shape6"/>
    <use ffdec:characterId="1509" height="3.25" style="mix-blend-mode: multiply" transform="matrix(1.0, 0.0, 0.0, 1.0, 13.1, 23.1)" width="3.35" xlink:href="#sprite3"/>
    <use ffdec:characterId="1511" height="2.85" style="mix-blend-mode: multiply" transform="matrix(1.0, 0.0, 0.0, 1.0, 34.4, 33.85)" width="4.4" xlink:href="#sprite4"/>
    <use ffdec:characterId="1513" height="2.9" style="mix-blend-mode: multiply" transform="matrix(1.0, 0.0, 0.0, 1.0, 49.0, 25.15)" width="3.05" xlink:href="#sprite5"/>
    <use ffdec:characterId="1514" height="51.4" transform="matrix(1.0, 0.0, 0.0, 1.0, 5.1, 2.1)" width="53.9" xlink:href="#shape10"/>
  </g>
  <defs>
    <g id="shape0" transform="matrix(1.0, 0.0, 0.0, 1.0, -5.2, -28.35)">
      <path d="M5.55 47.2 Q4.75 46.65 5.75 46.05 L6.85 45.55 Q7.95 44.9 17.65 48.05 L27.75 51.45 Q29.8 51.7 30.6 51.15 L31.25 51.1 29.65 52.7 Q27.35 54.5 24.3 54.65 26.55 54.1 28.15 52.8 L26.4 53.55 21.2 54.25 Q18.3 54.25 12.15 51.05 L5.55 47.2" fill="#ffffff" fill-rule="evenodd" stroke="none"/>
      <path d="M5.35 28.35 Q6.4 28.2 9.7 29.55 13.1 30.9 13.2 31.75 13.35 32.8 11.95 33.3 10.35 33.8 8.15 32.85 6.15 32.0 5.55 30.1 L5.35 28.35" fill="url(#gradient0)" fill-rule="evenodd" stroke="none"/>
      <path d="M15.85 36.9 Q13.85 36.05 13.25 34.15 L13.05 32.45 Q14.15 32.3 17.45 33.65 20.85 35.0 20.95 35.85 21.05 36.9 19.65 37.35 18.05 37.85 15.85 36.9" fill="url(#gradient1)" fill-rule="evenodd" stroke="none"/>
      <path d="M20.75 36.7 Q21.8 36.55 25.1 37.9 28.5 39.25 28.6 40.1 28.75 41.15 27.35 41.6 25.75 42.1 23.55 41.15 21.55 40.3 20.95 38.4 L20.75 36.7" fill="url(#gradient2)" fill-rule="evenodd" stroke="none"/>
      <path d="M28.75 41.05 Q29.8 40.9 33.1 42.25 36.5 43.6 36.6 44.45 36.75 45.5 35.35 45.95 33.75 46.45 31.55 45.5 29.55 44.65 28.95 42.75 L28.75 41.05" fill="url(#gradient3)" fill-rule="evenodd" stroke="none"/>
    </g>
    <radialGradient cx="0" cy="0" gradientTransform="matrix(0.007, 0.0, 0.0, -0.007, 9.85, 28.55)" gradientUnits="userSpaceOnUse" id="gradient0" r="819.2" spreadMethod="pad">
      <stop offset="0.0" stop-color="#888f95"/>
      <stop offset="1.0" stop-color="#000000"/>
    </radialGradient>
    <radialGradient cx="0" cy="0" gradientTransform="matrix(0.007, 0.0, 0.0, -0.007, 17.6, 32.65)" gradientUnits="userSpaceOnUse" id="gradient1" r="819.2" spreadMethod="pad">
      <stop offset="0.0" stop-color="#888f95"/>
      <stop offset="1.0" stop-color="#000000"/>
    </radialGradient>
    <radialGradient cx="0" cy="0" gradientTransform="matrix(0.007, 0.0, 0.0, -0.007, 25.25, 36.9)" gradientUnits="userSpaceOnUse" id="gradient2" r="819.2" spreadMethod="pad">
      <stop offset="0.0" stop-color="#888f95"/>
      <stop offset="1.0" stop-color="#000000"/>
    </radialGradient>
    <radialGradient cx="0" cy="0" gradientTransform="matrix(0.007, 0.0, 0.0, -0.007, 33.25, 41.25)" gradientUnits="userSpaceOnUse" id="gradient3" r="819.2" spreadMethod="pad">
      <stop offset="0.0" stop-color="#888f95"/>
      <stop offset="1.0" stop-color="#000000"/>
    </radialGradient>
    <g id="sprite0" transform="matrix(1.0, 0.0, 0.0, 1.0, 0.0, 0.0)">
      <use ffdec:characterId="1499" height="17.75" transform="matrix(1.0, 0.0, 0.0, 1.0, 0.0, 0.0)" width="31.3" xlink:href="#shape1"/>
    </g>
    <g id="shape1" transform="matrix(1.0, 0.0, 0.0, 1.0, 0.0, 0.0)">
      <path d="M15.65 7.5 Q15.75 8.3 14.7 8.85 L7.9 5.55 7.75 4.15 Q7.45 4.65 6.55 4.95 L0.5 2.35 Q-0.1 1.15 0.05 0.0 1.1 -0.15 4.4 1.2 7.8 2.55 7.9 3.4 L7.8 4.1 Q8.85 3.95 12.15 5.3 15.55 6.65 15.65 7.5 M23.3 11.75 Q23.4 12.75 22.1 13.2 L15.45 9.25 15.45 8.35 Q16.5 8.2 19.8 9.55 23.2 10.9 23.3 11.75 M23.45 12.7 Q24.5 12.55 27.8 13.9 31.2 15.25 31.3 16.1 31.4 16.75 30.7 17.25 29.95 17.8 28.8 17.75 L23.55 14.15 23.45 13.15 23.45 12.7" fill="url(#gradient4)" fill-rule="evenodd" stroke="none"/>
    </g>
    <radialGradient cx="0" cy="0" gradientTransform="matrix(0.0256, 0.0, 0.0, -0.0256, 18.05, 0.75)" gradientUnits="userSpaceOnUse" id="gradient4" r="819.2" spreadMethod="pad">
      <stop offset="0.0" stop-color="#888f95"/>
      <stop offset="1.0" stop-color="#000000"/>
    </radialGradient>
    <g id="shape2" transform="matrix(1.0, 0.0, 0.0, 1.0, 0.0, -6.75)">
      <path d="M2.9 29.5 L2.35 29.9 Q2.0 30.45 3.05 31.1 3.9 31.65 8.25 33.55 L14.75 36.55 23.55 41.3 Q15.55 37.95 12.9 36.3 11.1 35.2 7.4 33.75 L3.05 32.25 Q2.4 32.2 4.1 33.25 L5.95 34.35 3.75 33.8 Q1.3 33.0 0.35 31.7 -0.6 30.4 1.05 29.8 L2.9 29.5" fill="#ffffff" fill-rule="evenodd" stroke="none"/>
      <path d="M19.6 41.45 L23.05 42.75 Q27.0 44.4 29.7 46.05 33.15 48.25 34.5 48.7 L37.6 48.6 40.25 47.0 Q45.45 43.4 47.7 42.1 49.3 41.15 45.85 43.65 L40.25 47.9 38.05 50.0 Q36.9 50.75 35.05 50.6 33.25 50.45 31.6 49.45 29.65 48.25 31.0 48.75 36.3 50.25 30.85 47.55 L25.55 44.9 19.6 41.45" fill="#ffffff" fill-rule="evenodd" stroke="none"/>
      <path d="M46.85 44.0 L49.8 41.55 Q53.1 39.0 55.0 38.2 57.45 37.15 61.2 34.85 65.1 32.45 64.0 32.5 63.05 32.55 59.5 34.55 L56.15 36.55 59.35 34.25 Q63.15 31.8 66.0 31.0 68.2 30.35 71.7 28.0 74.75 25.9 76.3 25.75 78.4 25.6 77.6 24.9 77.0 24.3 75.6 23.9 74.5 23.6 77.45 23.7 80.25 23.75 80.7 24.25 81.15 24.7 78.0 26.3 L71.1 29.35 Q68.45 30.5 64.35 33.8 L58.9 37.7 51.7 41.4 46.85 44.0" fill="#ffffff" fill-rule="evenodd" stroke="none"/>
      <path d="M36.5 46.25 L36.3 42.7 Q40.9 38.95 58.15 28.95 L74.45 19.7 73.6 23.1 Q62.85 28.65 48.6 38.0 L36.5 46.25" fill="url(#gradient5)" fill-rule="evenodd" stroke="none"/>
      <path d="M58.85 29.0 L58.05 29.0 59.55 28.15 59.25 28.75 58.95 31.4 58.6 31.65 58.85 29.0 M66.2 24.3 L65.65 27.45 65.1 27.75 65.35 25.1 65.15 24.9 66.2 24.3 M70.75 21.9 L70.65 21.8 71.1 21.55 70.95 24.5 70.5 24.75 70.75 21.9 M40.75 39.5 L40.65 43.35 40.2 43.6 40.15 40.35 40.1 39.95 40.75 39.5 M47.15 36.1 L47.0 35.55 47.75 35.1 47.45 38.75 47.1 39.0 47.15 36.1 M52.65 32.75 L51.95 32.6 53.0 31.95 52.95 32.55 52.95 35.2 52.5 35.45 52.65 32.75" fill="#42210b" fill-rule="evenodd" stroke="none"/>
      <path d="M15.25 31.7 L3.25 25.6 Q16.15 18.2 30.25 12.4 37.35 9.5 41.8 8.1 48.8 9.8 62.35 14.95 L74.45 19.7 Q59.45 28.5 36.3 42.7 28.75 38.65 15.25 31.7" fill="url(#gradient6)" fill-rule="evenodd" stroke="none"/>
      <path d="M15.2 34.05 L3.95 28.75 3.25 25.6 Q16.3 32.0 36.3 42.7 L36.5 46.25 Q28.1 40.5 15.2 34.05" fill="url(#gradient7)" fill-rule="evenodd" stroke="none"/>
      <path d="M37.25 9.7 L37.95 9.45 Q50.75 13.75 71.2 21.65 L70.75 21.9 Q62.45 18.75 37.25 9.7 M19.95 16.95 L21.1 16.4 Q27.9 19.55 52.95 32.55 L52.65 32.75 Q40.2 26.3 19.95 16.95 M27.25 13.7 L28.3 13.25 Q34.8 16.3 59.25 28.75 L58.85 29.0 Q48.45 23.5 27.25 13.7 M33.35 11.2 L33.7 11.05 Q44.25 15.15 66.15 24.65 L65.35 25.1 33.35 11.2 M12.75 20.45 L13.7 20.0 47.65 35.8 47.15 36.1 Q34.65 29.95 12.75 20.45 M6.9 23.55 L7.75 23.1 40.75 39.95 40.15 40.35 6.9 23.55" fill="#42210b" fill-rule="evenodd" stroke="none"/>
      <path d="M37.5 6.75 L45.55 8.2 52.95 17.1 53.55 23.15 Q51.0 21.8 44.7 19.05 L38.95 16.6 38.2 10.3 37.5 6.75" fill="#916938" fill-rule="evenodd" stroke="none"/>
      <path d="M53.55 23.15 L52.95 17.1 61.35 12.8 61.6 18.2 53.55 23.15" fill="url(#gradient8)" fill-rule="evenodd" stroke="none"/>
      <path d="M47.05 20.1 L38.95 16.6 38.2 10.3 37.5 6.75 45.55 8.2 46.25 9.0 47.05 20.1" fill="#462e12" fill-rule="evenodd" stroke="none"/>
      <path d="M40.4 17.25 L39.2 7.05 44.55 8.0 45.55 19.45 40.4 17.25" fill="#000000" fill-rule="evenodd" stroke="none"/>
      <path d="M44.55 8.0 L45.05 13.35 39.75 11.4 39.2 7.05 44.55 8.0" fill="#916938" fill-rule="evenodd" stroke="none"/>
      <path d="M51.8 17.35 L52.15 22.45 48.7 20.85 48.5 15.8 51.8 17.35" fill="#42100d" fill-rule="evenodd" stroke="none"/>
    </g>
    <linearGradient gradientTransform="matrix(0.0233, 0.0, 0.0, -0.0233, 55.4, 32.95)" gradientUnits="userSpaceOnUse" id="gradient5" spreadMethod="pad" x1="-819.2" x2="819.2">
      <stop offset="0.00392156862745098" stop-color="#754c24"/>
      <stop offset="1.0" stop-color="#402113"/>
    </linearGradient>
    <linearGradient gradientTransform="matrix(0.0, -0.0104, -0.0104, 0.0, 38.85, 28.7)" gradientUnits="userSpaceOnUse" id="gradient6" spreadMethod="pad" x1="-819.2" x2="819.2">
      <stop offset="0.0" stop-color="#8a6239"/>
      <stop offset="1.0" stop-color="#754c24"/>
    </linearGradient>
    <linearGradient gradientTransform="matrix(0.0203, 0.0, 0.0, -0.0203, 19.85, 35.9)" gradientUnits="userSpaceOnUse" id="gradient7" spreadMethod="pad" x1="-819.2" x2="819.2">
      <stop offset="0.00392156862745098" stop-color="#754c24"/>
      <stop offset="1.0" stop-color="#402113"/>
    </linearGradient>
    <linearGradient gradientTransform="matrix(0.0052, 0.0, 0.0, -0.0052, 57.25, 17.95)" gradientUnits="userSpaceOnUse" id="gradient8" spreadMethod="pad" x1="-819.2" x2="819.2">
      <stop offset="0.00392156862745098" stop-color="#754c24"/>
      <stop offset="1.0" stop-color="#402113"/>
    </linearGradient>
    <g id="sprite1" transform="matrix(1.0, 0.0, 0.0, 1.0, 0.0, 0.0)">
      <use ffdec:characterId="1502" height="14.3" transform="matrix(1.0, 0.0, 0.0, 1.0, 0.0, 0.0)" width="24.0" xlink:href="#shape3"/>
    </g>
    <g id="shape3" transform="matrix(1.0, 0.0, 0.0, 1.0, 0.0, 0.0)">
      <path d="M23.85 6.05 L24.0 9.6 15.85 14.3 8.05 4.6 0.35 1.75 0.0 0.0 8.05 1.45 15.45 10.35 23.85 6.05" fill="url(#gradient9)" fill-rule="evenodd" stroke="none"/>
    </g>
    <linearGradient gradientTransform="matrix(0.0146, 0.0, 0.0, -0.0146, 12.0, 7.15)" gradientUnits="userSpaceOnUse" id="gradient9" spreadMethod="pad" x1="-819.2" x2="819.2">
      <stop offset="0.00392156862745098" stop-color="#754c24"/>
      <stop offset="1.0" stop-color="#402113"/>
    </linearGradient>
    <g id="shape4" transform="matrix(1.0, 0.0, 0.0, 1.0, -36.85, -1.9)">
      <path d="M36.85 6.3 L46.5 1.9 56.45 5.25 62.95 14.05 53.75 19.85 46.5 10.0 36.85 6.3" fill="#becfda" fill-rule="evenodd" stroke="none"/>
      <path d="M53.75 19.85 L46.5 10.0 56.45 5.25 62.95 14.05 53.75 19.85" fill="#87a7a8" fill-rule="evenodd" stroke="none"/>
      <path d="M36.85 6.3 L46.5 10.0 53.75 19.85 53.25 20.1 45.95 10.5 36.95 7.0 36.85 6.3" fill="#3b3c34" fill-rule="evenodd" stroke="none"/>
      <path d="M41.65 4.1 L42.1 3.9 51.15 7.7 58.1 17.1 57.8 17.25 50.9 8.0 41.65 4.1 M39.9 4.9 L40.35 4.7 49.65 8.35 56.8 17.9 56.5 18.1 49.4 8.65 39.9 4.9 M38.1 5.7 L38.55 5.5 48.05 9.25 55.3 18.85 55.0 19.05 47.8 9.55 38.1 5.7 M43.95 3.05 L44.4 2.85 53.7 6.45 60.65 15.5 60.3 15.7 53.45 6.75 43.95 3.05 M45.35 2.45 L45.8 2.2 55.25 5.65 62.05 14.6 61.75 14.8 55.05 5.95 45.35 2.45 M42.85 3.55 L43.3 3.35 52.55 7.0 59.5 16.2 59.2 16.4 52.35 7.3 42.85 3.55" fill="#434642" fill-rule="evenodd" stroke="none"/>
      <path d="M55.55 5.55 L55.55 1.95 55.85 2.0 55.85 5.6 55.55 5.55" fill="url(#gradient10)" fill-rule="evenodd" stroke="none"/>
    </g>
    <linearGradient gradientTransform="matrix(2.0E-4, 0.0, 0.0, -2.0E-4, 55.7, 3.8)" gradientUnits="userSpaceOnUse" id="gradient10" spreadMethod="pad" x1="-819.2" x2="819.2">
      <stop offset="0.00392156862745098" stop-color="#754c24"/>
      <stop offset="1.0" stop-color="#402113"/>
    </linearGradient>
    <g id="sprite2" transform="matrix(1.0, 0.0, 0.0, 1.0, 0.0, -0.05)">
      <use ffdec:characterId="1505" height="21.8" transform="matrix(1.0, 0.0, 0.0, 1.0, 0.0, 0.05)" width="43.15" xlink:href="#shape5"/>
    </g>
    <g id="shape5" transform="matrix(1.0, 0.0, 0.0, 1.0, 0.0, -0.05)">
      <path d="M43.15 12.35 L28.0 21.85 24.95 21.5 0.0 9.1 Q12.7 2.35 17.95 0.3 21.25 -1.0 31.85 3.9 37.2 6.4 41.85 9.1 L43.15 12.35" fill="url(#gradient11)" fill-rule="evenodd" stroke="none"/>
    </g>
    <linearGradient gradientTransform="matrix(0.0263, 0.0, 0.0, -0.0263, 21.55, 10.9)" gradientUnits="userSpaceOnUse" id="gradient11" spreadMethod="pad" x1="-819.2" x2="819.2">
      <stop offset="0.00392156862745098" stop-color="#754c24"/>
      <stop offset="1.0" stop-color="#402113"/>
    </linearGradient>
    <g id="shape6" transform="matrix(1.0, 0.0, 0.0, 1.0, -13.1, 0.0)">
      <path d="M27.55 16.75 L52.05 26.05 36.55 35.65 Q32.6 33.5 22.45 28.55 L13.1 24.05 27.55 16.75" fill="url(#gradient12)" fill-rule="evenodd" stroke="none"/>
      <path d="M13.3 25.05 L13.1 24.05 Q21.85 27.5 36.55 35.65 L36.6 36.7 13.3 25.05" fill="url(#gradient13)" fill-rule="evenodd" stroke="none"/>
      <path d="M36.6 36.7 L36.55 35.65 Q39.2 33.85 45.9 29.8 L52.05 26.05 51.75 27.2 36.6 36.7" fill="url(#gradient14)" fill-rule="evenodd" stroke="none"/>
      <path d="M28.3 19.4 L47.0 26.5 47.15 26.7 47.05 26.9 Q42.35 29.65 37.6 32.35 L37.45 32.4 37.35 32.35 Q26.3 27.1 19.45 24.25 L19.35 24.1 19.45 23.9 28.05 19.4 28.3 19.4 M46.4 26.75 L28.2 19.8 20.05 24.05 Q27.4 27.15 37.45 31.95 L46.4 26.75" fill="url(#gradient15)" fill-rule="evenodd" stroke="none"/>
      <path d="M40.85 7.4 L41.5 7.15 Q42.35 7.05 43.15 7.75 44.05 8.65 43.75 9.9 43.45 11.1 42.4 11.1 41.45 11.15 40.95 9.5 40.4 7.9 40.85 7.4" fill="#7f500f" fill-rule="evenodd" stroke="none"/>
      <path d="M36.2 7.8 L37.25 7.3 37.75 9.55 Q38.65 11.95 40.55 12.65 L40.05 13.2 Q38.75 13.0 37.6 12.2 35.35 10.6 36.2 7.8" fill="#7f500f" fill-rule="evenodd" stroke="none"/>
      <path d="M24.75 24.0 Q23.3 17.9 21.4 12.75 L19.85 8.85 23.95 7.45 41.4 14.6 41.8 28.3 38.75 30.2 30.25 26.35 24.75 24.0" fill="url(#gradient16)" fill-rule="evenodd" stroke="none"/>
      <path d="M22.75 11.85 L35.45 17.5 Q35.6 20.1 36.6 27.95 L30.0 25.05 25.6 23.2 Q25.15 20.35 23.9 15.8 L22.75 11.85" fill="#000000" fill-rule="evenodd" stroke="none"/>
      <path d="M38.65 30.15 Q38.25 26.8 37.8 21.25 L37.45 16.35 19.85 8.85 23.95 7.45 41.4 14.6 41.8 28.3 38.75 30.2 38.65 30.15" fill="url(#gradient17)" fill-rule="evenodd" stroke="none"/>
      <path d="M38.65 30.15 Q38.25 26.8 37.8 21.25 L37.45 16.35 41.4 14.6 41.8 28.3 38.75 30.2 38.65 30.15" fill="url(#gradient18)" fill-rule="evenodd" stroke="none"/>
      <path d="M36.45 22.75 Q36.9 25.45 35.4 26.55 L31.35 26.45 Q28.85 25.25 26.75 22.5 24.65 19.75 24.25 17.1 23.85 14.4 25.3 13.3 L29.3 13.4 Q31.85 14.55 33.95 17.25 36.05 20.0 36.45 22.75" fill="#beb1a2" fill-rule="evenodd" stroke="none"/>
      <path d="M35.95 23.05 Q36.35 25.8 34.85 26.85 L30.8 26.75 Q28.3 25.55 26.2 22.85 24.15 20.1 23.7 17.4 23.3 14.7 24.75 13.6 L28.75 13.7 Q31.3 14.85 33.4 17.6 35.5 20.35 35.95 23.05" fill="#68564d" fill-rule="evenodd" stroke="none"/>
      <path d="M34.3 21.65 Q34.65 23.9 33.4 24.8 L30.05 24.7 Q27.95 23.75 26.2 21.45 24.5 19.15 24.1 16.9 23.75 14.7 25.0 13.8 26.25 12.9 28.35 13.85 30.45 14.8 32.2 17.1 33.95 19.35 34.3 21.65" fill="#8f786a" fill-rule="evenodd" stroke="none"/>
      <path d="M23.75 2.4 L23.6 3.05 25.1 5.45 25.65 4.0 26.35 3.7 26.95 6.1 Q27.3 8.8 26.25 10.3 L21.15 6.6 22.2 6.15 Q23.85 6.15 23.85 5.6 23.9 5.25 22.95 3.95 L22.0 2.7 21.0 1.8 Q20.15 0.8 20.8 0.25 L21.35 0.0 Q22.1 -0.1 22.9 0.75 23.7 1.6 23.75 2.4" fill="#7f500f" fill-rule="evenodd" stroke="none"/>
      <path d="M27.15 4.95 L27.95 4.35 30.55 4.3 Q32.25 4.8 33.3 6.45 34.2 7.8 34.35 9.45 34.5 10.9 33.55 11.9 32.6 12.9 31.35 12.6 29.8 12.2 28.25 9.85 26.55 7.25 27.15 4.95" fill="#7f500f" fill-rule="evenodd" stroke="none"/>
      <path d="M33.0 9.9 Q33.1 11.45 32.25 12.15 L30.05 12.25 Q28.75 11.65 27.75 10.1 26.7 8.55 26.6 7.0 26.5 5.4 27.35 4.7 L29.5 4.6 Q30.8 5.2 31.85 6.75 32.85 8.3 33.0 9.9" fill="#e2c439" fill-rule="evenodd" stroke="none"/>
      <path d="M30.1 8.2 Q28.05 6.55 28.2 5.55 L28.9 5.5 29.5 6.2 29.85 5.6 Q30.3 5.2 30.75 6.25 31.2 7.25 30.7 7.85 L30.1 8.2" fill="#2e370e" fill-rule="evenodd" stroke="none"/>
      <path d="M30.45 9.1 L31.0 8.7 Q31.65 8.35 32.05 8.45 32.7 8.65 32.15 9.2 33.5 10.65 32.5 10.75 L31.1 9.95 30.45 9.1" fill="#2e370e" fill-rule="evenodd" stroke="none"/>
      <path d="M29.8 9.45 Q31.9 11.5 31.0 11.75 30.45 11.9 30.2 11.45 L30.05 11.0 Q29.4 11.7 29.15 11.1 29.05 10.7 29.4 10.05 L29.8 9.45" fill="#2e370e" fill-rule="evenodd" stroke="none"/>
      <path d="M29.4 8.3 L29.75 8.45 Q28.05 10.25 27.55 9.5 27.25 9.05 27.55 8.6 L27.95 8.25 27.3 7.75 Q26.8 7.15 27.35 6.95 27.9 6.75 28.7 7.5 L29.4 8.3" fill="#2e370e" fill-rule="evenodd" stroke="none"/>
      <path d="M25.45 4.55 L25.65 4.0 Q26.75 6.65 26.6 8.75 L26.25 10.3 Q24.4 9.3 22.6 7.85 L21.15 6.6 23.7 6.2 22.35 3.9 21.8 3.8 20.75 2.8 Q20.3 2.1 20.25 1.4 20.2 0.7 20.55 0.35 L21.55 0.3 Q22.15 0.55 22.6 1.3 23.05 2.0 23.1 2.7 L23.1 3.05 24.55 5.7 25.45 4.55" fill="#e2c439" fill-rule="evenodd" stroke="none"/>
      <path d="M41.5 7.5 L42.6 8.5 Q43.05 9.2 43.1 9.95 43.2 10.65 42.8 11.0 L41.75 11.05 40.9 10.35 37.45 11.45 Q38.6 12.9 40.05 13.2 37.15 13.65 34.7 13.25 L32.8 12.7 Q33.55 11.1 34.95 9.3 L36.2 7.8 Q36.25 9.35 36.85 10.5 L40.2 9.05 40.15 8.6 Q40.1 7.85 40.45 7.55 L41.5 7.5" fill="#e2c439" fill-rule="evenodd" stroke="none"/>
      <path d="M41.25 9.45 Q41.65 9.5 38.75 10.65 35.6 11.95 35.5 12.15 35.3 12.55 37.6 13.0 L34.2 12.85 33.05 12.65 41.25 9.45" fill="#7f500f" fill-rule="evenodd" stroke="none"/>
      <path d="M22.85 3.35 L26.15 9.9 Q23.9 8.45 23.35 7.9 L24.0 8.05 24.9 8.2 23.8 5.7 Q22.75 3.55 22.85 3.35" fill="#7f500f" fill-rule="evenodd" stroke="none"/>
    </g>
    <linearGradient gradientTransform="matrix(0.0237, -0.001, -0.001, -0.0237, 32.6, 26.15)" gradientUnits="userSpaceOnUse" id="gradient12" spreadMethod="pad" x1="-819.2" x2="819.2">
      <stop offset="0.0" stop-color="#8a6239"/>
      <stop offset="1.0" stop-color="#754c24"/>
    </linearGradient>
    <linearGradient gradientTransform="matrix(0.014, -6.0E-4, -6.0E-4, -0.014, 24.85, 30.4)" gradientUnits="userSpaceOnUse" id="gradient13" spreadMethod="pad" x1="-819.2" x2="819.2">
      <stop offset="0.00392156862745098" stop-color="#754c24"/>
      <stop offset="1.0" stop-color="#402113"/>
    </linearGradient>
    <linearGradient gradientTransform="matrix(0.0096, -4.0E-4, -4.0E-4, -0.0096, 44.3, 31.35)" gradientUnits="userSpaceOnUse" id="gradient14" spreadMethod="pad" x1="-819.2" x2="819.2">
      <stop offset="0.00392156862745098" stop-color="#754c24"/>
      <stop offset="1.0" stop-color="#402113"/>
    </linearGradient>
    <linearGradient gradientTransform="matrix(0.0168, -7.0E-4, -7.0E-4, -0.0168, 33.25, 25.85)" gradientUnits="userSpaceOnUse" id="gradient15" spreadMethod="pad" x1="-819.2" x2="819.2">
      <stop offset="0.00392156862745098" stop-color="#f8ad3b"/>
      <stop offset="0.48627450980392156" stop-color="#ffff00"/>
      <stop offset="1.0" stop-color="#f8ad3b"/>
    </linearGradient>
    <linearGradient gradientTransform="matrix(0.013, -5.0E-4, -5.0E-4, -0.013, 30.9, 18.85)" gradientUnits="userSpaceOnUse" id="gradient16" spreadMethod="pad" x1="-819.2" x2="819.2">
      <stop offset="0.00392156862745098" stop-color="#754c24"/>
      <stop offset="1.0" stop-color="#402113"/>
    </linearGradient>
    <linearGradient gradientTransform="matrix(0.0019, -0.007, -0.007, -0.0019, 35.05, 3.25)" gradientUnits="userSpaceOnUse" id="gradient17" spreadMethod="pad" x1="-819.2" x2="819.2">
      <stop offset="0.0" stop-color="#8a6239"/>
      <stop offset="1.0" stop-color="#754c24"/>
    </linearGradient>
    <linearGradient gradientTransform="matrix(0.0024, -1.0E-4, -1.0E-4, -0.0024, 39.7, 22.4)" gradientUnits="userSpaceOnUse" id="gradient18" spreadMethod="pad" x1="-819.2" x2="819.2">
      <stop offset="0.00392156862745098" stop-color="#754c24"/>
      <stop offset="1.0" stop-color="#402113"/>
    </linearGradient>
    <g id="sprite3" transform="matrix(1.0, 0.0, 0.0, 1.0, 0.0, 0.0)">
      <use ffdec:characterId="1508" height="3.25" transform="matrix(1.0, 0.0, 0.0, 1.0, 0.0, 0.0)" width="3.35" xlink:href="#shape7"/>
    </g>
    <g id="shape7" transform="matrix(1.0, 0.0, 0.0, 1.0, 0.0, 0.0)">
      <path d="M2.7 2.05 L2.8 3.25 0.2 1.95 0.0 0.95 1.95 0.0 2.9 0.45 1.9 1.0 3.35 1.65 2.7 2.05" fill="url(#gradient19)" fill-rule="evenodd" stroke="none"/>
    </g>
    <linearGradient gradientTransform="matrix(0.002, -1.0E-4, -1.0E-4, -0.002, 1.7, 1.65)" gradientUnits="userSpaceOnUse" id="gradient19" spreadMethod="pad" x1="-819.2" x2="819.2">
      <stop offset="0.00392156862745098" stop-color="#754c24"/>
      <stop offset="1.0" stop-color="#402113"/>
    </linearGradient>
    <g id="sprite4" transform="matrix(1.0, 0.0, 0.0, 1.0, 0.0, 0.0)">
      <use ffdec:characterId="1510" height="2.85" transform="matrix(1.0, 0.0, 0.0, 1.0, 0.0, 0.0)" width="4.4" xlink:href="#shape8"/>
    </g>
    <g id="shape8" transform="matrix(1.0, 0.0, 0.0, 1.0, 0.0, 0.0)">
      <path d="M2.35 0.8 L3.6 0.0 4.35 0.4 4.4 1.45 2.2 2.85 0.05 1.75 0.0 0.6 1.15 0.1 2.35 0.8" fill="url(#gradient20)" fill-rule="evenodd" stroke="none"/>
    </g>
    <linearGradient gradientTransform="matrix(0.0026, -1.0E-4, -1.0E-4, -0.0026, 2.25, 1.45)" gradientUnits="userSpaceOnUse" id="gradient20" spreadMethod="pad" x1="-819.2" x2="819.2">
      <stop offset="0.00392156862745098" stop-color="#754c24"/>
      <stop offset="1.0" stop-color="#402113"/>
    </linearGradient>
    <g id="sprite5" transform="matrix(1.0, 0.0, 0.0, 1.0, 0.0, 0.0)">
      <use ffdec:characterId="1512" height="2.9" transform="matrix(1.0, 0.0, 0.0, 1.0, 0.0, 0.0)" width="3.05" xlink:href="#shape9"/>
    </g>
    <g id="shape9" transform="matrix(1.0, 0.0, 0.0, 1.0, 0.0, 0.0)">
      <path d="M2.75 2.05 L1.4 2.9 1.35 1.9 0.25 1.55 1.35 0.9 0.0 0.35 0.75 0.0 3.05 0.9 2.75 2.05" fill="url(#gradient21)" fill-rule="evenodd" stroke="none"/>
    </g>
    <linearGradient gradientTransform="matrix(0.0018, -1.0E-4, -1.0E-4, -0.0018, 1.55, 1.45)" gradientUnits="userSpaceOnUse" id="gradient21" spreadMethod="pad" x1="-819.2" x2="819.2">
      <stop offset="0.00392156862745098" stop-color="#754c24"/>
      <stop offset="1.0" stop-color="#402113"/>
    </linearGradient>
    <g id="shape10" transform="matrix(1.0, 0.0, 0.0, 1.0, -5.1, -2.1)">
      <path d="M55.5 2.1 Q56.65 2.1 57.3 2.8 57.85 3.3 59.0 3.5 58.15 4.35 57.4 4.1 L56.7 3.85 56.3 3.85 Q55.65 4.05 55.5 3.85 L55.5 2.1" fill="#9a110f" fill-rule="evenodd" stroke="none"/>
      <path d="M56.5 3.8 L55.85 3.95 55.85 2.15 56.5 2.3 56.5 3.8 M57.5 4.1 L57.5 2.95 Q58.1 3.35 59.0 3.5 58.25 4.25 57.5 4.1" fill="#630000" fill-rule="evenodd" stroke="none"/>
      <path d="M13.05 37.95 L6.65 42.65 6.2 38.95 10.75 36.4 13.05 37.95" fill="#afb4b4" fill-rule="evenodd" stroke="none"/>
      <path d="M9.1 40.85 L6.65 42.65 6.2 38.95 9.1 40.85" fill="#68646c" fill-rule="evenodd" stroke="none"/>
      <path d="M6.4 46.5 L5.1 42.1 33.4 48.7 Q32.2 50.3 27.55 52.1 22.2 54.2 18.9 53.2 15.8 52.25 10.8 49.25 L6.4 46.5" fill="#c62607" fill-rule="evenodd" stroke="none"/>
      <path d="M12.0 46.2 L5.1 42.1 14.95 35.8 29.8 43.7 33.4 48.7 Q25.75 50.5 21.8 50.4 19.35 50.3 12.0 46.2" fill="#f0eadb" fill-rule="evenodd" stroke="none"/>
      <path d="M6.95 41.9 L15.1 36.85 29.3 44.35 31.95 48.25 19.4 48.75 12.4 45.0 6.95 41.9" fill="#7c7f82" fill-rule="evenodd" stroke="none"/>
      <path d="M15.25 38.2 L8.2 42.6 6.95 41.9 15.1 36.85 29.3 44.35 31.95 48.25 31.25 48.35 29.5 45.7 15.25 38.2" fill="#4c5053" fill-rule="evenodd" stroke="none"/>
      <path d="M14.0 45.8 L12.95 42.15 21.6 36.2 25.25 38.5 26.25 40.95 26.95 43.2 19.85 48.9 Q19.5 49.05 14.0 45.8" fill="#90a5a6" fill-rule="evenodd" stroke="none"/>
      <path d="M25.4 38.75 L17.5 44.5 12.95 42.15 21.6 36.2 25.25 38.5 25.4 38.75" fill="#fef8ea" fill-rule="evenodd" stroke="none"/>
      <path d="M18.45 48.3 L17.5 44.5 25.25 38.5 26.25 40.95 26.95 43.2 19.85 48.9 18.45 48.3" fill="#c0c8c6" fill-rule="evenodd" stroke="none"/>
      <path d="M18.45 44.8 L25.2 39.65 26.15 42.95 19.4 48.45 18.45 44.8" fill="#398396" fill-rule="evenodd" stroke="none"/>
      <path d="M14.75 46.25 L14.1 43.45 17.0 44.75 17.75 47.95 14.75 46.25" fill="#354648" fill-rule="evenodd" stroke="none"/>
      <path d="M6.4 46.5 L5.1 42.1 10.6 46.7 Q16.9 51.35 21.2 51.65 26.75 52.1 32.95 48.6 L33.4 48.7 Q32.2 50.3 27.55 52.1 22.2 54.2 18.9 53.2 15.8 52.25 10.8 49.25 L6.4 46.5" fill="#8c1200" fill-rule="evenodd" stroke="none"/>
    </g>
  </defs>
</svg>
