<?xml version="1.0" encoding="UTF-8" standalone="no"?>
<svg xmlns:ffdec="https://www.free-decompiler.com/flash" xmlns:xlink="http://www.w3.org/1999/xlink" ffdec:objectType="frame" height="494.35px" width="766.7px" xmlns="http://www.w3.org/2000/svg">
  <g transform="matrix(1.0, 0.0, 0.0, 1.0, -36.75, -36.8)">
    <use ffdec:characterId="25" height="494.35" transform="matrix(1.0, 0.0, 0.0, 1.0, 36.75, 36.8)" width="766.7" xlink:href="#shape0"/>
  </g>
  <defs>
    <g id="shape0" transform="matrix(1.0, 0.0, 0.0, 1.0, -36.75, -36.8)">
      <path d="M266.9 55.75 L267.15 55.8 267.2 55.8 267.25 55.85 267.7 55.95 268.8 56.5 269.5 57.0 269.6 57.15 270.15 57.65 270.3 57.9 270.7 58.4 270.85 58.65 271.3 59.55 Q271.95 61.05 272.05 64.3 L272.95 63.6 Q273.9 63.05 275.1 63.05 L275.2 63.0 Q276.05 63.0 276.85 63.45 L278.0 64.6 Q278.6 65.6 278.7 67.4 278.65 70.3 277.4 73.5 L277.35 73.6 276.9 74.7 Q275.85 76.8 272.55 77.7 L271.3 77.9 279.0 80.55 Q283.6 82.05 285.3 82.7 L285.4 82.7 287.3 83.5 287.45 83.55 288.1 83.85 288.25 83.95 288.95 84.3 289.0 84.35 289.15 84.45 289.2 84.5 289.55 84.7 289.75 84.85 289.7 84.85 290.1 85.15 290.15 85.25 290.25 85.3 290.7 85.9 290.8 86.1 290.85 86.15 290.95 86.35 291.0 86.7 291.05 86.85 291.1 87.1 291.1 87.25 291.0 87.85 290.65 88.65 290.5 88.9 290.15 89.35 289.55 89.95 288.7 90.6 288.65 90.6 287.6 91.25 285.9 92.05 285.65 92.2 280.55 94.1 277.75 94.95 277.65 94.95 276.3 95.35 276.05 95.4 274.7 95.8 274.6 95.8 Q267.45 97.7 258.35 99.5 L255.55 100.05 255.25 100.15 254.5 100.3 254.25 100.4 253.3 100.65 252.7 100.85 252.65 100.85 Q256.1 103.35 262.65 105.95 L272.65 109.8 273.25 110.05 273.6 110.25 274.1 110.45 275.65 111.3 275.85 111.45 276.5 111.85 277.6 112.9 278.2 113.75 278.45 114.45 278.6 115.25 278.6 115.5 278.5 116.35 278.2 117.1 277.75 117.8 Q276.7 119.2 274.45 120.5 L269.15 123.05 Q262.75 125.7 253.95 128.1 235.55 133.3 218.45 135.5 210.6 136.5 206.75 138.75 203.8 140.45 203.8 142.2 203.8 143.5 205.3 144.8 207.2 146.35 210.35 147.2 L211.25 147.45 211.45 147.55 212.45 147.85 213.8 148.5 213.95 148.55 214.5 148.85 214.55 148.9 215.1 149.3 215.15 149.35 215.2 149.35 215.35 149.45 215.8 149.9 215.9 149.95 216.25 150.45 216.35 150.6 216.45 150.7 216.75 151.3 216.85 151.6 216.95 152.2 217.0 152.3 217.0 152.95 216.95 153.25 216.7 154.1 216.7 154.15 216.4 154.7 216.35 154.75 216.25 154.95 216.0 155.25 215.9 155.4 215.8 155.5 215.6 155.75 215.5 155.9 215.35 156.0 215.25 156.15 214.3 156.95 214.05 157.1 213.8 157.3 213.75 157.35 213.65 157.4 213.0 157.85 211.75 158.55 211.6 158.65 210.15 159.35 209.9 159.5 209.1 159.85 209.0 159.85 209.0 159.9 208.95 159.9 208.0 160.3 207.95 160.3 207.8 160.4 207.45 160.55 207.35 160.55 206.85 160.75 206.8 160.75 205.65 161.2 205.55 161.2 202.65 162.2 202.3 162.25 201.9 162.4 201.65 162.45 200.3 162.85 200.2 162.9 198.6 163.3 195.5 164.05 184.5 165.65 177.7 166.15 176.75 166.2 174.25 166.25 173.2 166.3 141.85 166.0 137.1 166.5 Q135.45 166.8 134.9 167.25 L134.7 167.4 134.7 167.5 134.8 167.6 134.9 167.75 135.1 167.95 135.15 168.05 135.4 168.3 135.6 168.45 135.7 168.55 136.3 169.0 136.5 169.1 137.7 169.85 138.55 170.25 138.8 170.4 139.2 170.55 140.7 171.2 140.95 171.35 141.4 171.55 142.0 171.95 142.2 172.15 142.55 172.4 143.2 173.1 143.6 173.7 143.95 174.6 144.05 175.35 144.05 175.65 144.0 176.05 143.8 176.95 143.6 177.4 143.5 177.55 141.8 179.5 141.75 179.55 141.15 179.95 141.05 180.0 140.4 180.45 140.35 180.45 139.65 180.85 139.6 180.85 Q137.2 182.15 133.3 183.1 L133.25 183.15 128.7 184.05 128.65 184.1 128.55 184.1 119.1 185.15 118.05 185.2 109.7 185.5 91.35 184.5 81.75 182.95 74.7 181.2 74.35 181.05 71.35 180.1 71.15 180.0 68.45 178.9 68.3 178.85 65.9 177.6 65.85 177.6 64.8 176.95 64.8 176.9 63.85 176.25 63.8 176.25 62.95 175.5 Q60.35 173.15 60.35 170.65 L60.45 169.65 Q61.05 167.05 64.55 165.0 66.95 163.55 71.6 162.0 L79.55 159.5 Q84.15 158.05 86.25 157.05 L87.75 156.25 88.2 155.9 88.3 155.8 88.6 155.55 88.65 155.5 89.0 155.05 89.05 154.95 89.05 154.7 88.9 154.55 88.65 154.35 88.0 154.0 87.35 153.75 87.25 153.7 86.45 153.45 86.35 153.4 85.35 153.15 85.2 153.1 79.75 152.15 79.45 152.15 71.85 151.3 55.7 149.5 55.65 149.5 54.0 149.2 53.95 149.2 52.35 148.9 52.3 148.9 47.95 147.75 47.9 147.75 46.7 147.3 44.4 146.15 Q42.6 144.9 42.05 143.45 L41.75 142.35 41.7 141.2 41.85 140.1 42.2 139.2 42.5 138.65 Q44.2 135.95 49.55 133.2 53.35 131.3 60.3 128.65 L59.8 127.5 59.75 127.25 59.3 125.95 58.9 124.4 58.9 124.35 58.7 122.9 58.65 121.25 58.7 121.25 58.8 119.95 59.2 118.55 59.3 118.4 Q59.55 117.75 59.95 117.2 L60.0 117.2 61.3 116.05 61.4 115.95 62.15 115.65 63.5 115.45 63.9 115.45 64.7 115.65 65.05 115.8 65.0 115.8 65.4 116.0 66.0 116.45 66.45 116.95 66.95 114.8 67.3 113.8 68.3 112.25 69.0 111.6 69.05 111.5 Q70.35 110.45 71.9 110.15 L72.3 110.05 72.45 110.05 73.0 110.0 73.5 110.0 74.2 110.1 74.25 110.1 74.7 110.2 74.8 110.25 74.85 110.25 76.05 110.75 77.05 111.45 77.7 112.1 78.25 112.85 78.85 113.95 Q79.5 115.5 79.6 118.7 L80.45 118.05 81.2 117.7 81.3 117.7 81.35 117.65 81.6 117.6 82.6 117.45 82.95 117.45 83.6 117.55 84.0 117.7 Q84.95 118.05 85.55 119.0 88.15 118.0 94.65 115.2 L95.9 114.65 95.95 114.65 97.65 113.9 97.8 113.8 99.2 113.15 99.45 113.0 100.8 112.35 100.85 112.3 102.25 111.6 Q105.85 109.7 108.4 107.7 L109.7 106.5 109.7 106.45 109.85 106.3 110.65 105.15 110.7 105.1 110.8 104.9 110.9 104.6 110.9 104.4 110.95 104.25 110.9 104.15 110.9 103.95 110.85 103.9 110.8 103.75 110.7 103.55 110.6 103.45 110.4 103.2 110.3 103.1 110.1 102.95 109.95 102.8 109.15 102.25 108.9 102.15 108.65 102.0 107.8 101.6 107.45 101.5 106.2 101.0 101.7 99.85 101.65 99.85 100.85 99.7 100.8 99.65 98.5 99.25 98.25 99.25 97.5 99.1 95.3 98.75 94.7 98.6 94.35 98.55 93.2 98.2 91.75 97.45 91.25 97.05 90.7 96.35 90.45 95.8 90.35 95.4 90.35 94.65 90.45 94.2 90.45 94.1 90.6 93.7 90.65 93.65 90.85 93.25 90.9 93.2 91.1 92.9 91.15 92.85 Q92.45 91.25 95.3 89.8 L95.35 89.75 Q98.85 87.9 108.35 84.3 L121.95 79.05 122.25 78.9 122.1 78.9 121.95 78.85 121.15 78.65 120.45 78.45 Q117.3 77.65 115.75 76.65 L115.7 76.65 115.65 76.6 Q114.05 75.55 113.95 74.05 113.95 73.0 114.85 72.2 115.5 71.65 116.6 71.15 118.85 70.3 122.85 69.65 128.5 68.75 139.85 64.7 L139.95 64.6 139.95 64.55 140.4 63.9 140.45 63.85 140.7 63.55 140.75 63.4 141.1 63.0 141.1 62.95 141.6 62.4 141.95 61.95 142.1 61.85 142.5 61.4 142.55 61.3 144.25 59.7 144.4 59.6 144.5 59.5 Q146.4 57.85 148.15 57.85 L148.85 57.9 Q150.75 58.05 152.15 58.85 L153.5 59.6 161.7 56.65 161.25 55.55 160.85 54.25 160.75 54.05 160.45 52.75 160.45 52.65 160.2 49.55 160.35 48.25 160.4 48.15 160.75 46.85 160.8 46.7 Q161.6 45.0 162.9 44.3 L162.95 44.3 163.7 43.95 165.0 43.75 165.7 43.8 166.2 43.95 166.3 44.0 166.35 44.0 166.6 44.1 166.95 44.3 167.55 44.75 168.0 45.25 168.45 43.1 169.35 41.25 169.85 40.6 169.9 40.5 Q171.55 38.7 173.7 38.4 L173.9 38.35 174.7 38.3 176.0 38.45 176.8 38.7 177.6 39.05 178.7 39.85 179.4 40.6 179.8 41.15 180.4 42.25 Q181.0 43.85 181.1 47.05 L182.0 46.35 Q182.9 45.85 184.1 45.75 L184.25 45.75 185.45 45.95 Q186.8 46.45 187.35 47.8 187.75 48.75 187.75 49.9 L193.65 49.4 197.95 43.95 198.1 43.85 198.5 43.4 198.6 43.35 199.1 42.95 199.25 42.85 199.65 42.65 199.8 42.6 200.35 42.35 200.6 42.3 201.6 42.15 201.75 42.15 202.35 42.25 Q204.3 42.7 206.2 44.6 L212.95 50.45 Q225.05 52.45 235.9 57.95 L235.9 58.0 240.6 60.55 251.15 67.95 251.1 66.9 251.15 66.8 Q251.15 66.2 251.3 65.5 L251.3 65.4 251.65 64.1 251.75 63.95 252.4 62.85 252.45 62.7 Q253.2 61.8 254.35 61.35 L254.6 61.25 255.95 61.0 257.15 61.2 257.5 61.35 257.85 61.55 258.1 61.75 258.45 62.05 258.7 62.25 258.9 62.55 259.4 60.4 259.75 59.4 260.15 58.75 260.15 58.7 260.25 58.55 260.8 57.85 261.5 57.15 Q262.7 56.0 264.35 55.7 L264.8 55.65 265.95 55.6 266.7 55.7 266.8 55.7 266.9 55.75 266.9 55.7 266.95 55.75 266.9 55.75 M617.3 335.6 L615.9 336.1 616.0 340.5 617.05 340.55 618.25 339.35 618.2 338.85 618.4 337.8 618.65 337.25 619.1 336.6 619.35 336.35 619.5 336.25 619.75 336.0 619.85 335.95 620.2 335.7 620.25 335.7 620.65 335.45 621.5 335.1 621.5 334.2 Q620.35 334.15 619.5 333.75 618.75 334.65 617.3 335.6 M608.6 341.1 L608.5 335.0 606.7 335.85 605.5 336.05 Q603.35 336.0 601.15 334.45 L600.25 334.6 600.5 335.6 600.55 335.7 600.55 336.1 600.6 336.15 600.6 336.2 602.35 336.5 Q605.6 337.4 606.3 339.75 L606.45 340.85 606.4 341.4 608.6 341.1 M566.3 334.0 L561.3 334.45 556.5 334.15 Q553.85 335.3 549.65 339.4 546.25 342.75 542.9 347.0 552.75 349.55 562.15 349.55 L569.3 349.1 575.5 348.0 Q575.5 346.2 576.55 344.75 575.5 343.7 575.5 342.25 L575.7 341.1 576.0 340.45 576.35 339.85 577.0 339.2 578.0 338.5 578.3 338.35 578.45 338.25 Q578.9 338.1 579.3 337.9 L579.35 337.85 579.8 337.7 579.75 336.9 Q579.75 335.05 580.55 333.9 L581.15 333.3 581.25 333.2 581.8 332.85 582.0 332.75 Q583.65 332.05 585.95 332.05 586.55 331.1 587.45 330.6 588.75 329.9 590.6 329.8 L591.1 329.85 Q592.7 330.0 593.8 331.35 L594.4 331.15 594.25 330.0 Q594.25 328.65 594.85 327.6 593.9 326.85 593.55 325.7 593.2 325.85 592.95 326.1 587.7 329.75 580.4 331.4 L566.3 334.0 M384.25 322.25 L384.2 322.25 383.3 322.7 382.65 322.8 382.85 323.0 383.2 323.5 Q384.2 322.9 385.4 322.7 L384.25 322.25 M403.75 321.0 L403.55 321.05 Q403.15 321.15 402.45 320.7 402.1 321.0 401.65 321.1 L400.95 321.15 399.4 320.7 398.45 320.9 398.35 320.9 398.05 322.15 Q397.5 323.65 395.9 324.0 L395.25 324.05 393.75 323.7 Q393.2 324.35 392.3 324.35 L391.7 324.25 390.85 323.9 390.3 324.15 391.9 325.4 394.55 328.0 Q395.2 328.75 394.8 329.65 394.4 330.55 393.4 330.55 L392.9 330.55 390.15 330.65 Q390.95 332.75 390.95 335.85 L390.95 336.8 391.2 337.2 392.2 340.6 392.95 344.65 393.05 344.65 Q393.6 344.9 394.15 345.3 L394.35 345.45 Q394.75 345.05 395.4 344.75 L396.35 344.45 397.15 344.4 397.55 344.4 Q398.75 344.55 399.7 345.3 L399.9 345.45 401.0 344.75 401.95 344.45 402.75 344.4 403.2 344.4 404.2 344.65 Q404.75 344.85 405.3 345.25 L405.5 345.45 406.6 344.75 407.45 344.5 407.55 344.45 408.8 344.4 409.0 344.45 409.0 343.85 Q409.0 341.7 410.05 337.4 L409.85 334.25 Q409.85 331.2 410.65 329.05 L407.9 329.0 407.4 329.0 Q406.4 329.0 406.0 328.1 405.6 327.15 406.25 326.4 L408.55 324.15 406.9 322.5 406.55 322.5 405.55 322.35 Q404.5 322.0 403.75 321.0 M470.8 267.95 L466.35 267.9 463.3 267.35 462.45 266.85 Q458.6 264.2 457.0 261.2 L456.95 261.1 456.25 261.2 456.1 261.2 455.55 261.75 454.6 262.0 453.5 261.75 453.7 262.15 454.05 262.55 454.4 262.55 Q455.35 262.65 455.75 263.45 L455.85 264.4 456.4 265.3 457.5 266.75 457.55 266.85 460.55 270.9 460.65 271.1 461.25 271.95 461.35 272.15 462.8 274.4 463.25 275.25 463.4 275.45 463.85 276.35 463.95 276.45 464.45 277.45 464.5 277.6 464.9 278.35 465.25 279.25 466.4 280.05 466.5 280.15 Q473.3 285.0 477.05 290.45 L483.55 299.55 Q487.7 305.55 490.15 310.55 L491.6 313.8 Q493.2 317.75 497.85 323.05 501.75 327.45 506.6 331.45 510.35 326.55 516.1 321.65 L519.9 318.6 Q513.85 313.25 507.75 304.5 505.0 300.6 501.15 294.05 L500.8 293.5 500.7 293.4 499.7 291.95 499.65 291.85 498.3 290.0 498.25 289.95 Q492.75 282.7 488.25 278.55 486.15 276.6 485.15 276.35 481.9 275.4 479.85 273.1 L479.0 272.65 478.85 272.6 478.6 272.55 478.45 272.55 478.3 272.5 476.45 272.2 476.05 272.1 475.9 272.1 Q474.25 271.6 473.4 270.85 L470.8 267.95 M616.8 174.6 L616.75 175.75 Q617.55 175.3 618.35 175.3 L617.1 174.75 616.95 174.65 616.8 174.6 M614.35 165.4 L614.4 165.45 614.55 165.4 614.35 165.35 614.35 165.4 M616.1 166.2 L616.2 166.4 616.45 166.3 616.1 166.2 M635.85 166.25 L637.3 166.1 639.2 166.9 639.95 167.55 640.3 168.5 640.35 168.9 640.35 170.85 Q640.45 171.3 639.65 172.2 L639.0 172.6 637.9 172.85 635.25 172.85 Q634.4 172.85 633.95 172.15 L633.65 171.6 633.4 170.8 633.4 169.55 633.45 169.25 633.5 168.5 Q633.6 167.8 634.15 167.4 L635.85 166.25 M600.8 174.0 L600.55 173.75 600.45 174.25 600.75 174.4 600.8 174.0 M574.9 144.3 L575.25 143.6 575.3 143.45 575.35 143.4 576.25 141.55 Q576.75 140.55 577.8 140.7 L581.25 141.1 581.4 141.1 581.7 141.15 581.85 141.15 582.15 141.2 582.25 141.2 582.55 141.25 583.45 141.25 Q584.0 141.25 584.35 141.5 L584.55 141.6 584.95 142.05 585.05 142.15 585.1 142.15 585.55 143.0 585.65 143.15 586.05 143.95 587.1 146.95 587.15 147.5 587.0 149.15 586.7 149.85 586.15 150.4 586.1 150.4 585.8 150.65 585.75 150.7 584.95 151.15 584.9 151.2 584.6 151.4 584.45 151.45 584.0 151.7 583.95 151.7 583.65 151.9 583.55 151.9 583.1 152.05 581.4 152.35 581.15 152.35 Q580.5 152.35 580.05 151.9 L579.65 151.5 579.6 151.5 578.25 151.4 577.5 151.15 575.75 150.0 Q575.2 149.75 575.05 149.0 L574.45 145.9 574.55 144.95 574.9 144.3 M536.15 111.0 L536.25 111.2 536.5 111.1 536.15 111.0 M577.85 82.75 L579.85 85.05 580.25 85.85 581.0 90.25 581.0 90.7 580.75 92.4 580.45 93.15 580.4 93.25 580.0 93.8 576.95 97.15 576.85 97.25 576.75 97.3 576.35 97.6 575.65 97.9 575.2 97.95 575.1 97.95 572.6 98.1 571.35 98.75 570.65 98.95 570.4 98.9 570.2 98.9 570.1 98.85 567.25 98.35 565.15 97.25 563.55 97.3 563.45 97.25 563.25 97.25 563.15 97.2 562.8 97.1 562.0 96.9 561.75 96.8 561.55 96.75 561.0 96.5 560.65 96.25 559.9 95.05 559.25 92.65 559.2 92.25 559.25 91.9 559.2 91.3 559.8 85.75 559.95 85.3 561.4 81.85 Q561.8 81.0 562.7 80.9 565.5 80.65 566.75 80.05 567.0 79.85 567.5 79.85 L571.1 79.95 572.45 80.15 573.0 80.45 574.75 81.1 574.8 81.1 576.25 81.3 576.6 81.4 576.95 81.65 577.55 82.3 577.6 82.35 577.85 82.75 M600.95 59.65 L602.95 60.2 607.8 62.2 Q608.65 62.55 608.7 63.35 L609.0 69.0 608.8 69.85 608.3 70.6 607.0 71.9 603.6 73.75 603.45 74.6 602.9 75.45 602.25 76.2 601.05 76.85 598.95 77.05 595.7 77.15 591.95 76.8 591.8 76.8 587.2 75.2 587.15 75.15 585.65 74.75 584.35 74.3 583.25 73.7 581.95 72.8 581.4 72.0 580.3 68.35 Q580.15 67.9 580.3 67.4 L581.1 66.0 Q582.15 64.6 583.8 63.75 585.9 62.65 588.35 61.6 589.6 60.65 591.15 60.6 L592.35 60.8 592.65 60.85 593.9 60.75 600.05 59.65 600.1 59.65 600.25 59.6 600.95 59.65 M714.05 447.65 L713.9 447.3 713.75 447.05 713.7 447.0 Q713.25 446.4 712.35 446.15 L712.2 446.15 711.75 446.1 711.25 446.15 Q710.35 446.3 709.8 447.0 L709.75 447.1 709.6 447.25 709.45 447.65 709.45 447.8 709.4 448.05 709.4 448.3 709.75 448.8 709.8 448.9 710.0 449.05 710.1 449.15 710.3 449.25 710.45 449.35 710.65 449.45 711.75 449.7 712.9 449.45 713.1 449.35 713.25 449.25 713.4 449.1 713.5 449.05 713.75 448.8 714.1 448.3 714.1 448.05 714.05 447.8 714.05 447.65 M741.85 185.35 L742.95 185.05 Q744.35 185.1 745.6 185.75 L746.25 186.25 747.35 187.65 747.55 187.95 747.8 188.2 748.0 188.25 747.95 188.25 749.25 188.75 Q750.05 188.8 750.65 189.3 L751.1 189.95 751.2 190.85 750.65 194.05 750.3 194.8 749.95 195.2 749.1 195.95 748.9 196.1 748.8 196.1 748.8 196.15 745.05 197.7 744.45 197.85 744.1 197.8 742.85 197.5 740.4 196.6 737.0 195.95 Q736.3 195.85 735.55 195.25 L734.15 193.4 Q733.8 192.8 733.95 192.3 L734.3 190.4 734.25 190.2 Q734.25 189.7 734.55 189.3 734.85 188.75 735.45 188.6 L735.5 188.6 739.35 186.05 Q739.65 185.8 740.0 185.75 L741.85 185.35 M777.1 146.9 L777.65 146.8 782.25 146.25 Q783.15 146.15 783.7 146.9 L786.8 151.4 786.85 151.4 792.05 155.1 792.55 155.4 792.65 155.5 793.55 156.1 793.75 156.2 794.0 156.4 794.2 156.5 794.6 156.8 794.8 156.9 794.95 156.95 795.05 157.0 795.1 157.05 795.4 157.15 797.0 157.8 Q798.05 158.3 798.7 159.1 L799.15 159.95 799.25 160.7 799.15 162.7 799.45 171.9 799.25 172.7 796.15 178.5 795.6 179.05 794.75 179.6 793.1 180.45 791.8 180.8 791.4 180.8 791.15 180.85 787.1 181.85 787.05 181.85 786.8 181.9 786.65 181.95 784.05 183.2 783.7 183.45 780.15 185.05 778.2 185.75 773.0 185.9 772.95 185.95 772.9 185.95 772.55 186.15 772.5 186.2 771.45 186.7 771.45 186.75 770.8 187.05 770.3 187.25 770.25 187.3 769.75 187.5 769.7 187.5 768.95 187.65 761.1 186.75 Q760.5 186.75 760.0 186.15 L759.8 185.75 758.5 184.45 754.55 183.6 Q754.4 183.6 754.0 183.4 L753.9 183.3 751.5 181.25 Q750.85 180.4 750.8 179.55 L750.8 179.45 749.45 170.65 749.3 169.85 749.3 169.7 749.4 169.3 749.65 168.75 749.95 168.35 750.2 168.1 750.25 168.0 750.5 167.75 750.6 167.7 750.85 167.45 750.9 167.35 752.75 165.85 753.7 165.15 754.0 164.95 753.5 162.6 753.4 158.65 Q753.4 158.0 753.85 157.55 L754.75 156.6 Q758.2 153.25 760.0 152.6 L777.1 146.9 M685.6 186.5 L685.65 186.45 685.65 186.4 685.7 186.35 687.4 183.4 Q687.85 182.7 688.6 182.7 L692.25 182.35 696.85 181.4 697.45 181.3 701.15 181.35 706.05 181.65 706.65 181.9 706.95 182.0 707.15 182.1 707.3 182.1 708.25 182.4 708.3 182.4 710.6 182.9 711.0 182.9 712.7 183.0 713.65 183.25 Q714.25 183.45 714.75 184.05 L714.8 184.05 715.15 184.4 715.2 184.5 715.4 184.65 715.5 184.75 715.65 184.85 718.95 187.6 719.0 187.6 719.25 187.8 719.8 188.65 721.15 194.45 721.15 195.1 720.75 197.4 720.3 198.25 720.2 198.3 719.8 198.7 Q716.2 202.0 713.9 203.4 L713.75 203.5 713.0 203.9 712.2 204.1 711.75 204.15 711.6 204.2 711.1 204.2 710.5 204.25 710.3 204.25 709.95 204.3 706.45 204.4 704.55 205.1 704.45 205.15 703.75 205.4 703.25 205.5 703.05 205.45 698.05 204.9 693.6 203.35 693.55 203.3 693.4 203.25 690.4 203.35 690.2 203.3 690.1 203.3 689.95 203.25 689.7 203.25 689.5 203.2 689.4 203.2 689.2 203.15 689.15 203.15 687.6 202.85 687.55 202.8 687.3 202.75 687.2 202.75 686.65 202.55 686.55 202.55 686.35 202.5 686.35 202.45 686.3 202.45 685.7 202.2 684.55 200.85 683.95 199.45 683.35 197.7 683.3 197.15 683.35 196.7 683.3 195.9 684.45 188.6 684.65 188.0 685.6 186.5 M663.25 186.55 L661.9 193.25 669.05 199.45 672.75 198.3 Q673.65 197.95 674.3 198.7 L678.25 202.85 Q678.8 203.4 678.65 204.3 L675.9 216.3 Q680.6 218.25 682.45 219.8 689.7 226.1 692.0 229.85 692.75 231.0 692.75 232.55 692.75 235.6 689.95 238.2 L689.15 239.35 689.05 239.45 688.2 240.55 688.05 240.65 685.65 243.05 682.75 245.65 670.45 259.0 669.6 259.7 668.6 260.95 667.5 262.4 667.7 262.95 668.0 263.7 668.1 264.2 668.1 264.3 667.9 265.4 667.65 265.9 Q667.15 267.55 665.8 268.65 L664.55 269.65 655.1 277.75 Q653.7 279.15 652.6 280.8 L651.25 286.55 Q651.8 289.15 653.2 291.55 655.25 295.05 658.65 297.15 663.2 299.3 667.0 299.95 L668.9 300.05 Q672.9 300.05 678.6 298.6 684.65 297.1 688.3 290.25 L688.9 288.95 688.95 288.95 689.45 287.7 689.55 287.5 690.6 284.55 Q691.0 283.2 691.0 281.9 691.0 279.35 689.15 277.4 L686.25 275.2 684.55 274.3 683.85 273.8 683.75 273.7 683.35 273.1 683.2 272.75 683.05 272.25 682.95 271.35 Q682.95 269.7 684.3 267.9 684.9 265.9 685.05 265.9 685.45 264.85 686.55 264.95 687.15 265.05 687.4 265.3 L688.9 264.65 690.45 262.6 Q691.05 261.85 691.85 262.0 L692.35 262.15 692.7 261.5 Q692.95 261.0 693.45 260.8 L694.5 260.75 Q695.65 261.1 695.55 262.35 L695.6 263.2 695.75 262.9 696.2 261.55 Q696.55 260.5 697.65 260.4 698.8 260.4 699.15 261.5 L699.9 263.95 700.1 263.75 Q700.7 262.9 701.65 263.15 702.65 263.4 702.8 264.35 L703.0 265.2 704.2 265.0 705.05 265.55 Q705.4 266.0 705.35 266.55 L705.35 268.5 705.95 268.5 Q706.9 268.65 707.15 269.7 L707.45 271.35 707.7 271.4 708.5 272.1 Q708.8 272.6 708.7 273.15 L708.6 273.7 Q710.65 275.85 712.35 276.85 L712.45 276.9 Q712.95 276.5 713.8 276.25 L714.9 276.1 Q717.2 276.15 719.75 277.35 L720.15 277.55 722.05 279.3 725.25 282.8 Q726.4 284.45 726.5 285.55 L726.55 285.75 726.55 286.05 726.6 286.1 726.6 286.35 726.95 288.55 735.35 294.2 Q739.9 297.1 741.7 298.7 744.3 301.2 744.6 303.5 L744.65 303.65 744.7 304.2 744.7 304.4 744.65 304.95 744.6 305.2 744.55 305.7 744.35 306.45 743.5 308.35 741.6 311.2 Q738.9 314.75 734.2 316.5 731.3 317.6 724.35 318.9 L718.25 320.0 711.7 321.4 Q704.4 323.15 702.35 325.35 699.1 328.55 692.1 331.05 685.25 333.55 678.55 334.05 L677.1 334.05 Q672.0 334.05 662.15 331.75 651.5 329.25 649.55 329.1 640.25 328.35 632.25 326.7 L632.35 327.5 631.9 329.35 632.75 330.05 633.65 329.9 Q634.75 329.9 635.9 330.55 L636.5 330.95 Q637.95 332.0 638.15 333.85 L639.3 334.1 Q641.95 334.85 642.6 336.8 L642.7 337.75 642.6 338.7 Q644.0 338.15 646.2 338.15 646.7 337.25 647.7 336.65 649.15 335.9 650.8 335.9 L651.3 335.9 Q652.9 336.05 654.0 337.4 L655.35 337.15 Q656.6 337.15 658.0 337.95 L658.75 338.45 Q660.7 339.95 660.8 342.2 L660.8 342.3 662.55 342.6 Q665.75 343.35 666.5 345.8 L666.65 346.95 Q666.65 348.1 666.1 348.9 676.95 350.75 682.4 354.6 L682.45 354.65 684.3 356.2 685.35 357.3 Q687.55 360.05 687.55 362.45 687.55 364.4 686.15 366.25 L683.6 369.0 678.6 372.45 692.55 393.45 Q694.2 393.85 695.25 394.95 696.4 396.15 696.45 397.8 L696.45 397.9 696.2 400.5 696.7 401.1 697.05 401.35 697.5 401.95 699.7 404.45 700.45 404.4 Q702.55 404.4 704.15 405.6 705.9 406.9 705.9 408.9 L705.9 409.05 705.7 411.35 707.15 413.0 707.5 413.3 708.2 414.1 708.45 414.45 710.2 416.5 Q712.15 416.5 713.7 417.65 715.5 419.0 715.45 421.0 L715.45 421.15 715.35 422.35 716.95 424.2 Q717.55 424.9 717.25 425.65 L716.65 427.65 716.1 428.4 715.35 429.0 715.3 429.9 Q717.8 433.35 717.9 435.55 717.9 436.95 716.95 437.85 L714.95 439.35 715.05 439.4 Q717.9 440.3 719.85 442.7 L720.05 442.95 720.3 443.3 720.6 443.8 721.15 445.05 721.5 446.4 721.65 447.4 721.65 448.3 Q721.65 451.35 719.75 453.9 L719.65 454.05 719.5 454.2 718.9 454.9 718.85 454.9 718.75 455.0 717.9 455.75 717.7 455.9 715.7 457.0 715.65 457.05 Q713.85 457.8 711.75 457.8 709.9 457.8 708.3 457.2 L708.1 457.15 708.05 457.1 Q707.1 456.75 706.1 456.1 L705.85 455.95 705.15 455.4 704.2 454.45 Q701.85 451.8 701.85 448.3 L701.85 447.5 701.9 447.3 701.9 446.95 Q696.05 449.75 692.95 449.8 L692.65 449.8 Q690.5 449.65 688.65 448.05 687.25 446.9 685.6 444.5 L682.9 440.15 680.0 435.6 Q679.0 434.85 678.65 433.8 L677.5 432.4 Q675.1 429.8 673.7 428.8 672.45 427.95 671.2 427.95 669.7 427.95 664.2 430.1 L662.3 430.85 Q664.65 431.05 667.15 432.5 672.65 435.6 677.8 443.3 L677.85 443.35 679.35 445.6 682.6 449.6 682.65 449.65 682.65 449.7 682.8 449.85 683.3 450.55 683.45 450.7 684.55 452.4 684.65 452.65 685.1 453.45 685.15 453.65 685.5 454.5 685.55 454.6 685.85 455.7 685.95 456.7 685.9 457.9 685.85 458.05 685.6 459.15 685.05 460.4 Q684.0 462.65 682.2 464.4 L681.9 465.2 680.6 466.45 679.7 467.1 679.9 468.65 Q680.05 469.75 679.05 470.25 L678.95 470.3 678.15 470.85 677.5 471.2 676.45 471.4 674.85 471.05 674.1 470.65 Q673.7 470.4 673.55 469.95 L671.95 470.45 666.65 471.35 664.1 471.05 664.0 471.0 Q660.75 470.2 656.75 466.8 L654.6 464.6 654.35 464.3 654.15 464.1 653.2 462.75 653.15 462.7 651.95 460.85 651.75 460.45 651.35 459.8 649.95 456.9 649.95 456.8 649.85 456.7 649.85 456.65 648.65 453.35 647.95 450.6 647.65 448.9 647.35 445.1 Q647.35 442.7 647.95 440.35 648.8 437.5 650.7 435.4 642.8 438.5 637.65 440.8 L637.6 441.25 638.55 443.4 638.75 443.7 639.5 445.45 639.6 445.8 641.9 451.0 Q643.3 451.5 644.2 452.5 645.15 453.65 645.2 455.1 L645.15 455.25 644.95 457.85 646.3 460.95 Q646.55 461.5 646.3 462.15 L645.35 464.5 645.1 464.9 645.0 466.75 Q646.1 469.9 646.1 471.5 646.1 472.85 645.35 473.7 644.15 474.8 640.5 476.2 L639.0 476.75 641.0 477.15 641.1 477.15 641.3 477.25 Q644.25 478.15 646.1 480.55 L646.15 480.6 646.85 481.65 647.2 482.45 647.4 482.9 647.7 483.8 647.8 484.25 647.85 485.0 647.9 485.25 647.9 486.2 Q647.9 489.3 646.0 491.75 L645.9 491.9 645.75 492.05 645.15 492.75 645.0 492.85 644.15 493.6 643.2 494.25 642.05 494.85 641.9 494.9 641.8 494.95 Q640.0 495.65 638.0 495.65 636.15 495.65 634.55 495.05 L634.35 494.95 634.3 494.95 Q633.35 494.6 632.35 493.95 L631.4 493.25 631.25 493.05 630.45 492.3 Q628.15 489.7 628.15 486.2 L628.15 485.15 628.25 484.3 628.6 482.95 629.15 481.7 629.4 481.3 629.5 481.1 629.6 481.0 Q630.35 479.85 631.45 479.0 622.5 481.3 618.65 481.3 L617.6 481.25 Q616.1 480.9 615.0 479.15 614.15 477.8 613.35 475.55 612.0 471.95 610.5 465.5 608.4 456.15 607.5 449.65 607.35 448.8 606.6 448.2 605.55 447.35 603.5 447.3 601.9 447.3 599.75 447.95 L593.2 449.25 594.25 449.75 Q596.05 450.7 597.65 452.15 600.85 455.1 602.5 457.85 604.3 460.8 605.2 464.95 L605.2 465.05 605.25 465.05 606.15 470.3 606.15 470.4 Q606.5 472.9 606.5 475.7 L606.4 478.55 606.25 479.6 606.25 479.7 605.8 482.4 605.15 484.45 604.75 485.4 604.1 486.55 603.0 487.9 602.75 488.1 601.95 488.7 Q599.1 490.45 594.45 491.15 594.6 492.15 593.9 492.7 593.1 493.25 592.5 493.4 L591.45 493.55 Q590.0 493.55 589.4 492.95 588.7 492.5 588.7 491.8 L587.95 491.8 Q582.8 491.8 579.45 489.5 L579.35 489.45 578.6 488.85 578.55 488.85 577.95 488.3 577.15 487.3 576.4 486.3 575.8 485.2 574.95 483.05 574.85 482.85 574.55 481.75 574.5 481.65 Q573.35 477.45 573.35 470.9 L573.4 467.4 Q573.55 463.35 575.6 459.2 L575.85 458.7 575.9 458.65 575.9 458.6 Q577.45 455.8 580.0 452.85 L582.2 450.6 570.15 451.95 564.5 452.8 564.4 453.3 564.2 456.5 Q564.2 461.55 565.25 472.4 L566.5 484.7 566.5 485.0 Q566.55 486.25 565.8 487.4 565.05 488.45 563.9 488.85 L558.9 489.5 555.7 489.4 557.6 491.25 557.75 491.45 558.85 493.55 559.2 494.9 559.3 495.65 559.3 496.8 Q559.35 499.85 557.4 502.4 L557.2 502.7 556.45 503.5 554.6 504.9 554.35 505.05 553.25 505.55 Q551.45 506.3 549.45 506.3 L545.9 505.7 545.8 505.65 543.75 504.6 542.85 503.9 541.8 502.85 Q539.55 500.3 539.55 496.8 L539.55 495.75 539.65 494.9 540.0 493.6 540.55 492.35 540.8 491.95 540.9 491.75 541.0 491.65 Q541.95 490.3 543.4 489.2 536.9 489.1 534.25 488.0 532.35 487.2 531.8 485.55 L531.5 483.45 531.3 471.3 Q531.3 457.45 531.1 454.0 L530.95 452.4 530.85 452.35 529.5 451.95 524.05 451.4 516.4 451.0 507.75 450.1 498.1 448.3 490.8 447.35 Q489.0 447.35 488.35 447.8 487.85 448.15 487.8 448.95 L487.75 450.45 Q487.75 457.15 488.8 489.6 L489.85 522.75 489.85 524.5 Q489.95 527.6 488.15 529.1 486.05 530.9 480.75 531.1 L476.9 531.15 460.9 530.6 446.4 529.3 Q442.95 528.75 441.35 527.6 440.5 527.0 440.0 526.0 439.55 525.1 439.6 524.2 439.65 522.95 440.25 521.4 L441.05 519.3 441.1 519.1 441.9 509.65 443.1 489.1 Q444.55 461.1 444.55 448.65 L444.45 443.3 Q444.45 436.3 446.75 425.7 L444.15 430.95 443.4 431.95 441.2 434.25 439.8 435.35 Q438.95 435.85 438.0 435.95 L437.75 436.0 437.1 436.25 435.4 437.15 433.45 438.35 433.35 438.45 433.35 438.5 432.45 439.65 432.2 439.9 430.5 442.1 429.65 443.0 429.25 443.3 Q428.15 444.0 425.25 444.35 L421.25 444.7 420.4 444.75 419.65 444.85 415.45 444.45 413.8 445.25 413.7 445.25 413.2 445.5 412.5 445.7 412.35 445.8 411.05 446.05 411.0 446.05 408.95 446.15 406.9 446.05 404.95 445.35 403.85 443.95 402.5 441.55 402.2 441.1 402.15 441.0 401.6 440.3 Q400.35 438.95 399.35 436.9 398.15 434.45 398.05 432.25 L397.9 430.2 396.75 423.0 396.75 422.95 Q395.25 419.55 395.2 416.55 L395.35 414.35 Q395.35 411.3 394.4 404.45 394.0 402.85 394.0 401.45 394.0 399.95 394.5 398.6 395.35 396.3 395.35 394.15 L395.05 391.05 394.75 387.7 394.95 385.45 Q395.3 383.75 396.6 381.3 L396.3 381.3 Q395.3 381.3 394.9 380.4 394.5 379.5 395.1 378.75 L395.2 378.65 397.25 376.6 Q399.35 374.75 401.1 373.9 L405.7 367.2 405.5 367.1 405.1 367.4 402.75 367.95 400.35 367.4 399.95 367.1 399.5 367.4 397.15 367.95 394.8 367.4 394.35 367.1 393.9 367.4 391.55 367.95 Q390.15 367.85 389.2 367.4 L388.75 367.1 388.15 367.45 388.05 367.6 388.05 367.65 388.0 367.9 388.0 367.95 387.95 368.25 Q387.45 371.75 385.7 373.7 384.15 375.45 381.7 375.75 L381.4 375.75 381.35 375.8 381.15 375.85 380.8 376.15 377.1 380.45 377.05 380.5 377.0 380.6 376.95 380.75 376.65 381.4 376.2 382.6 376.15 382.85 375.7 384.1 375.7 384.15 374.5 387.65 373.55 389.3 372.3 391.1 372.05 391.4 372.05 391.45 372.0 391.5 371.85 391.75 371.55 392.7 371.55 392.8 371.5 393.0 Q370.65 395.9 370.55 397.3 370.4 398.5 369.55 399.3 L368.05 400.4 367.85 400.5 366.15 401.25 363.25 406.35 Q362.35 408.0 360.25 408.95 L359.85 416.35 Q359.95 418.15 360.15 418.75 L361.3 420.5 364.65 423.3 Q367.05 425.2 367.55 427.15 L368.0 428.45 Q369.2 432.55 369.2 433.85 L369.05 434.8 Q368.7 435.85 368.4 438.75 L368.35 439.1 368.35 439.2 368.3 439.5 368.3 439.45 368.2 440.2 368.2 440.4 368.15 440.5 368.05 440.95 367.05 443.0 366.0 444.7 Q365.3 445.6 364.4 446.1 L356.55 449.2 Q355.4 450.05 353.5 450.7 L351.95 451.05 351.85 451.05 351.1 451.15 351.05 451.15 347.85 451.3 346.1 451.2 344.65 450.95 342.3 449.35 341.2 448.45 340.35 448.35 340.25 448.35 340.25 448.3 340.15 448.3 338.5 447.9 Q337.5 447.6 336.85 447.1 L333.45 446.25 331.1 445.5 331.1 445.55 331.2 445.7 331.55 446.5 331.65 447.65 331.35 449.75 334.35 450.8 336.25 451.65 336.3 451.7 337.3 452.25 339.1 453.45 Q340.05 454.2 340.55 455.15 L340.55 455.25 340.75 455.8 340.8 455.85 340.9 456.4 340.9 456.45 339.4 456.65 340.9 456.5 340.95 457.85 340.9 458.45 340.85 458.6 340.75 459.2 340.75 459.4 340.3 461.2 340.15 461.55 339.85 462.0 339.25 462.75 339.05 462.95 Q337.95 463.95 336.25 464.35 L333.25 464.85 Q329.25 465.35 327.65 466.2 322.5 469.05 319.35 469.05 316.45 469.05 314.65 467.05 313.8 466.05 310.7 465.1 L307.45 464.1 307.45 465.0 Q308.2 466.35 308.25 467.85 308.25 469.0 307.65 469.95 306.75 471.45 305.0 471.75 304.4 472.95 303.35 473.55 L301.95 474.15 301.7 476.95 307.25 478.3 308.55 478.65 Q310.6 479.2 312.2 480.5 313.7 481.75 314.3 483.3 L314.55 483.55 314.85 483.75 314.9 483.85 316.35 484.8 317.05 485.2 323.95 489.45 324.05 489.5 324.9 490.3 326.4 491.75 328.3 493.8 328.35 493.85 328.85 494.45 329.45 495.35 329.7 495.9 329.85 496.15 330.15 497.0 330.3 498.0 330.3 498.55 330.25 498.9 329.95 499.9 329.4 500.75 Q327.2 503.5 323.65 506.2 322.95 506.65 321.05 507.1 L317.6 507.75 Q312.4 508.7 310.55 509.5 298.2 514.7 292.95 514.75 L291.85 514.65 286.35 514.15 279.4 513.9 274.75 514.2 267.35 515.5 Q261.8 516.5 258.75 517.4 253.1 519.05 249.0 519.05 L243.7 518.65 230.75 516.55 Q221.75 514.65 217.3 512.5 L216.5 512.05 Q212.1 509.65 209.3 505.8 206.7 502.25 206.45 499.55 L205.5 496.55 201.8 488.45 201.4 487.65 201.35 487.5 201.1 487.0 201.05 486.8 200.8 486.25 Q200.35 485.0 200.3 483.05 L200.2 479.55 Q200.1 475.45 199.05 474.4 197.8 472.9 194.75 471.6 192.0 470.4 190.3 470.35 L190.25 470.35 Q187.45 470.35 183.75 466.35 L181.6 463.9 179.9 461.6 179.7 461.25 179.55 461.1 179.15 460.55 179.15 460.5 177.45 458.25 176.85 458.9 Q174.95 460.7 171.6 460.7 168.55 460.7 164.1 459.1 160.05 457.6 155.65 454.3 L148.45 448.25 Q144.65 444.8 142.3 443.2 139.25 441.2 137.3 441.25 L136.2 441.4 136.05 441.45 135.75 441.55 135.65 441.6 Q135.35 441.7 135.2 441.95 L135.05 442.2 Q134.7 442.8 134.5 445.7 134.3 449.3 133.3 451.3 L133.3 451.35 132.9 452.05 132.85 452.1 131.75 453.55 131.15 454.15 130.35 454.75 130.2 454.9 128.4 455.95 128.15 456.1 127.35 456.45 127.0 456.55 126.2 456.85 125.85 457.0 124.55 457.35 Q118.35 459.0 111.4 459.0 102.05 459.0 95.2 456.05 87.4 452.8 85.65 446.4 L85.35 444.9 85.25 443.7 85.3 442.15 85.45 441.25 85.5 441.1 85.5 440.95 85.75 440.05 86.3 438.8 86.35 438.8 86.4 438.65 86.5 438.45 86.95 437.75 88.05 436.4 88.95 435.6 89.6 435.05 89.8 434.95 90.35 434.55 90.65 434.35 91.15 434.1 91.45 433.9 94.0 432.75 94.3 432.6 95.25 432.25 95.85 432.1 96.2 431.95 100.55 430.95 102.5 430.65 102.6 430.65 109.45 430.15 110.25 430.15 114.65 430.35 114.75 430.35 116.05 430.55 116.1 430.55 Q118.9 430.95 122.1 431.9 L127.3 433.5 127.35 433.5 131.75 434.45 134.9 434.7 Q137.85 434.75 139.75 433.55 141.2 432.6 141.2 431.45 141.2 430.2 139.4 428.7 136.95 426.7 132.1 425.3 116.65 420.75 109.3 417.6 97.75 412.7 91.7 406.25 87.85 402.1 85.8 397.0 83.65 391.75 83.65 386.15 83.65 376.95 89.25 368.35 91.6 364.75 94.65 361.0 L99.15 355.6 101.75 351.75 Q102.8 349.85 103.1 347.85 L101.45 347.85 83.45 348.25 83.05 349.4 Q82.2 352.65 78.9 353.55 L76.65 353.85 71.75 353.5 65.15 353.0 62.8 352.95 55.3 353.3 49.15 353.75 48.6 353.75 Q45.8 353.75 44.0 352.9 41.9 351.85 41.8 350.15 L41.1 333.4 Q40.25 333.05 39.9 332.4 L39.6 331.7 Q38.65 331.45 38.45 330.7 L38.25 329.75 Q38.3 328.75 39.05 326.15 L38.4 325.65 Q37.9 325.1 37.9 324.2 37.95 323.2 38.5 322.2 L38.2 322.0 Q37.35 321.4 37.45 320.4 37.5 319.45 38.0 318.7 L37.7 318.5 Q36.95 317.9 36.85 316.95 L36.85 316.7 Q36.85 315.8 37.5 314.95 L38.0 314.35 37.45 313.75 Q36.85 313.05 36.85 312.15 36.9 311.3 37.35 310.7 L36.8 309.75 36.75 309.35 Q36.8 308.7 37.0 308.35 L37.35 307.8 37.8 307.35 Q37.55 307.05 37.5 306.35 37.5 305.8 37.85 305.35 38.2 304.85 38.55 304.75 L39.5 304.45 Q39.7 303.65 40.3 303.4 L41.05 303.2 41.2 303.2 43.85 302.6 49.35 301.55 50.75 298.3 Q51.15 297.4 52.15 297.4 L71.6 297.4 Q72.5 297.4 72.9 298.2 L74.6 301.4 Q77.3 301.75 79.75 302.45 82.4 303.25 83.25 303.95 L83.6 304.25 85.2 304.75 85.9 305.35 86.25 306.35 85.95 307.35 86.4 307.8 86.75 308.35 87.0 309.35 87.0 309.6 86.45 310.7 86.9 312.15 86.45 313.6 86.55 313.8 86.85 314.05 Q87.3 314.5 87.3 315.15 L87.3 319.75 87.2 320.35 87.3 320.95 87.3 321.65 91.6 321.65 91.6 320.95 91.7 320.35 91.6 319.75 91.6 315.15 Q91.6 314.55 92.0 314.05 L92.35 313.8 92.6 313.4 Q93.05 312.95 93.7 312.95 L97.5 312.95 Q98.2 312.95 98.55 313.4 L98.85 313.8 99.15 314.05 Q99.6 314.5 99.6 315.15 L99.6 319.75 99.5 320.35 99.6 320.95 99.6 321.65 99.65 321.65 100.0 319.5 Q101.0 314.15 101.0 310.8 100.9 306.3 99.5 303.65 97.9 300.7 94.0 299.0 91.6 298.0 90.35 295.85 89.1 293.8 89.2 291.25 89.25 285.95 93.2 279.9 97.05 273.9 102.9 269.85 L102.95 269.8 103.05 269.75 103.25 269.6 103.35 269.5 104.0 269.1 104.6 268.65 111.4 264.6 112.4 264.1 112.5 264.1 Q115.05 262.85 117.45 262.25 L117.85 256.3 117.9 256.05 118.2 255.25 Q118.75 254.35 119.7 254.3 120.55 254.35 121.1 255.1 L121.45 255.8 121.85 257.35 122.5 261.2 122.5 261.4 122.55 261.6 126.3 261.45 126.8 261.45 125.15 256.8 123.45 253.6 123.35 253.45 122.55 252.0 122.2 251.45 121.7 250.55 121.35 250.0 121.05 249.4 120.85 249.15 120.55 248.45 120.5 248.2 Q119.6 246.5 119.6 244.4 119.6 243.75 119.75 243.2 L120.25 241.65 120.85 240.6 122.2 238.9 122.75 238.4 122.95 238.15 123.1 238.05 123.0 237.55 123.0 237.4 123.1 236.75 123.2 236.4 123.4 236.1 123.5 235.9 123.65 235.75 123.6 235.45 123.85 234.3 124.4 233.55 124.5 233.5 124.5 233.45 125.35 232.95 125.5 232.55 Q125.95 231.7 126.9 231.55 127.0 230.6 127.7 230.05 128.3 229.55 128.75 229.35 129.05 228.4 129.85 227.85 L130.35 227.6 131.1 227.5 132.15 227.75 Q132.6 227.45 133.3 227.45 L133.6 227.45 Q134.15 227.55 134.65 227.95 138.35 224.15 142.45 222.0 142.9 221.5 143.55 221.4 143.65 220.5 144.35 219.85 L145.4 219.2 145.55 218.65 Q146.0 217.65 146.95 217.45 L147.75 217.35 148.8 217.55 Q149.4 217.25 149.9 217.25 L150.25 217.3 Q151.25 217.4 151.7 218.3 L151.9 218.7 152.15 218.8 152.7 219.2 153.05 219.55 153.85 219.6 154.15 219.65 155.65 219.8 155.8 219.8 157.35 220.05 157.5 220.05 162.0 221.05 162.45 220.95 Q162.55 220.05 163.25 219.4 163.6 219.05 164.3 218.75 164.5 217.8 165.35 217.25 L165.4 217.25 165.45 217.15 165.85 217.0 166.6 216.9 167.65 217.1 Q168.25 216.8 168.8 216.8 L169.1 216.85 Q170.15 216.95 170.6 217.85 L170.8 218.25 171.05 218.35 171.6 218.75 171.7 218.85 172.25 219.6 172.5 220.55 173.15 220.55 Q174.2 220.65 174.65 221.55 L174.85 222.0 175.65 222.45 175.75 222.55 176.3 223.35 176.55 224.45 176.55 224.8 187.7 226.35 187.8 226.35 189.25 226.6 189.25 226.55 190.5 226.8 190.65 226.8 191.85 227.0 192.0 227.05 193.0 227.25 193.15 227.25 195.1 227.7 Q197.85 228.5 206.2 232.05 L206.2 232.1 210.5 233.85 210.9 234.05 212.6 234.65 213.25 234.8 Q217.3 235.9 220.55 240.1 224.3 244.95 224.35 251.25 224.4 258.25 225.3 262.15 226.5 267.1 229.85 271.1 L230.7 272.05 234.15 274.55 239.2 276.9 239.4 277.0 239.45 277.0 241.8 277.85 248.25 279.55 250.65 280.0 251.3 280.15 254.1 280.55 263.55 280.9 264.0 280.85 264.0 280.75 264.6 280.0 264.65 279.9 265.5 279.4 265.65 279.0 Q266.1 278.15 267.05 278.0 267.2 277.05 267.85 276.5 L268.95 275.8 Q269.15 274.9 270.0 274.3 L270.5 274.05 271.25 273.95 272.3 274.2 Q272.75 273.9 273.45 273.9 L273.75 273.9 Q274.75 274.0 275.25 274.9 L275.45 275.3 276.25 275.8 276.25 275.85 276.35 275.9 276.65 276.25 277.25 275.85 277.35 275.75 278.35 275.15 278.45 275.05 281.5 272.85 281.6 272.75 282.55 272.0 286.95 267.95 289.25 265.45 292.2 261.6 292.4 261.2 292.9 260.45 293.6 259.2 293.7 258.95 294.0 258.25 Q295.4 255.0 295.65 249.9 L295.6 249.8 295.55 249.5 295.55 249.3 295.45 249.0 295.45 248.8 294.8 246.25 294.75 246.2 294.75 246.1 Q294.55 245.7 294.45 244.5 L294.7 241.4 294.65 241.25 294.6 241.2 294.45 240.85 294.4 240.8 294.15 240.35 294.1 240.3 293.8 239.75 293.5 239.25 293.5 239.2 293.2 238.75 293.15 238.7 292.5 237.75 291.9 236.65 291.5 235.5 290.95 233.1 290.9 233.05 290.75 232.4 290.75 232.35 290.65 232.2 290.6 232.2 290.4 231.95 290.35 231.9 Q288.75 230.05 287.15 229.35 L286.9 229.25 286.0 228.8 285.45 228.45 285.35 228.4 283.85 227.3 283.85 227.25 283.8 227.25 280.3 224.15 280.0 224.15 278.0 223.95 277.9 223.95 277.4 223.85 276.35 223.45 273.7 221.8 273.3 221.6 273.0 221.35 272.35 221.0 269.5 221.05 269.4 221.0 268.4 221.0 268.05 220.95 267.9 220.95 267.55 220.9 267.4 220.85 267.1 220.8 266.4 220.6 265.9 220.35 263.95 218.7 262.8 217.9 258.7 217.95 257.9 218.0 Q255.15 218.15 253.8 218.65 L253.5 218.75 253.3 218.85 252.75 219.2 252.55 219.25 252.15 219.45 251.45 219.65 251.4 219.7 250.85 219.85 250.75 219.85 246.4 220.3 244.95 220.25 244.15 220.3 240.9 220.75 238.7 221.3 237.05 222.0 235.55 222.35 235.45 222.35 233.1 222.6 230.8 222.25 230.2 222.05 230.15 222.05 229.65 221.9 224.35 221.2 224.25 221.2 223.8 221.15 223.7 221.15 222.0 221.0 221.85 221.0 220.3 221.3 220.05 221.35 219.95 221.35 217.8 221.6 217.0 221.55 216.9 221.55 216.65 221.5 Q214.45 221.15 210.65 219.55 L210.55 219.5 210.35 219.45 210.3 219.45 207.5 219.3 205.6 219.3 204.7 219.2 204.6 219.2 Q203.3 218.9 201.25 218.05 L198.55 216.9 198.6 216.9 198.45 216.85 198.3 216.75 198.25 216.75 198.15 216.7 198.1 216.7 197.65 216.55 197.5 216.55 193.95 215.65 193.8 215.6 189.95 215.1 188.05 214.45 183.7 212.05 183.65 212.0 179.95 210.05 179.75 210.0 179.7 210.0 178.95 209.8 178.9 209.8 178.55 209.7 178.45 209.65 178.05 209.5 178.0 209.5 176.5 208.65 Q175.65 208.0 175.35 206.9 L173.3 200.8 173.15 199.5 Q173.15 198.15 174.1 197.05 178.35 192.05 186.95 188.55 L186.1 188.1 Q185.55 187.65 185.55 186.95 L185.65 186.4 Q185.8 185.85 186.45 185.3 L187.9 184.1 187.8 183.5 188.1 182.5 188.5 182.0 189.65 180.7 189.55 180.55 Q189.25 180.05 189.3 179.55 189.35 179.0 189.65 178.7 L189.65 178.65 189.85 178.45 190.65 177.95 190.85 177.75 191.3 177.2 192.3 175.4 193.5 172.65 193.55 172.5 194.1 171.65 Q194.75 171.0 195.5 171.0 196.35 171.0 196.9 171.7 L197.3 172.4 197.9 174.0 197.9 174.05 198.45 175.05 200.6 178.75 Q201.0 179.3 200.75 180.1 L202.55 182.5 214.95 175.85 214.55 175.0 Q214.1 174.9 213.75 174.6 L213.7 174.6 Q213.2 174.1 213.15 173.4 L213.25 172.85 Q213.4 172.2 214.05 171.8 L215.5 170.6 215.4 169.95 215.7 169.0 216.1 168.5 217.3 167.2 217.15 167.05 217.15 167.0 Q216.9 166.7 216.9 166.05 217.0 165.5 217.25 165.15 L217.6 164.8 217.65 164.8 218.45 164.25 218.9 163.7 219.9 161.9 221.15 159.0 Q221.45 158.4 221.7 158.15 222.35 157.5 223.1 157.5 224.0 157.5 224.5 158.15 L224.9 158.9 225.35 160.15 228.25 165.25 Q228.65 165.9 228.4 166.6 L229.95 168.7 230.8 167.65 229.6 164.3 229.55 164.25 229.05 162.95 228.95 162.75 228.8 162.3 Q228.45 161.05 228.35 159.2 228.05 158.6 228.05 157.85 228.0 156.85 228.75 155.8 L229.15 155.25 Q231.0 153.25 235.35 150.85 L239.1 148.95 Q242.1 145.55 244.85 143.9 247.25 142.5 250.8 142.35 L251.1 142.4 Q254.8 140.0 260.05 138.6 L263.25 137.9 264.75 137.7 269.6 137.65 269.6 137.7 271.4 136.8 271.45 136.8 271.5 136.75 273.3 135.95 273.55 135.8 274.25 135.5 274.6 135.4 275.35 135.1 275.55 135.0 276.5 134.65 276.75 134.6 277.45 134.35 279.45 134.0 281.25 133.45 280.65 132.45 280.4 132.45 Q279.0 132.45 278.2 131.35 277.55 130.4 277.55 129.25 L277.0 128.85 Q276.15 128.0 276.05 126.4 L276.0 126.1 Q276.05 124.05 277.75 122.55 L278.1 122.2 277.9 120.55 277.95 120.0 Q277.95 119.45 278.2 118.95 L278.45 118.5 278.45 118.45 278.65 118.15 279.25 117.55 279.75 117.2 279.7 116.7 Q279.7 115.7 280.3 114.95 L280.5 114.7 280.55 114.65 281.9 113.65 281.8 112.75 281.8 112.6 281.85 111.95 281.9 111.75 282.25 111.1 282.25 111.05 282.8 110.5 284.0 109.95 284.25 109.05 Q284.6 108.35 285.4 108.0 L285.9 107.8 Q286.05 107.15 286.6 106.75 287.1 106.3 287.85 106.3 L287.9 106.2 Q288.95 105.05 290.35 105.05 291.65 105.05 292.6 106.1 L293.05 106.05 294.6 106.5 Q295.6 107.2 296.05 108.75 296.85 108.85 297.55 109.4 298.55 110.4 298.65 111.65 L299.4 112.0 299.75 111.35 299.75 111.3 299.95 111.0 300.4 110.5 300.55 110.4 301.05 110.0 301.0 109.55 Q301.0 108.6 301.6 107.75 302.3 106.85 303.2 106.45 L303.1 105.6 303.15 104.75 303.45 104.0 303.5 104.0 303.55 103.9 304.05 103.35 304.15 103.3 304.6 103.0 304.65 103.0 305.3 102.75 305.55 101.85 Q305.85 101.3 306.7 100.8 L307.2 100.6 Q307.35 99.95 307.9 99.55 308.5 99.1 309.15 99.1 L309.2 99.05 Q310.25 97.9 311.65 97.85 312.95 97.85 313.9 98.9 L314.35 98.9 Q315.25 98.9 315.9 99.35 316.85 100.0 317.35 101.55 318.2 101.75 318.85 102.25 L319.0 102.4 Q319.5 101.4 320.3 100.7 L320.65 100.4 320.45 98.75 320.5 98.15 320.75 97.15 321.25 96.3 321.8 95.75 322.3 95.35 322.25 94.9 Q322.25 93.95 322.85 93.1 323.55 92.2 324.45 91.8 L324.35 90.9 324.35 90.8 324.4 90.1 324.45 89.95 324.7 89.4 324.7 89.35 324.8 89.25 325.35 88.65 325.4 88.65 Q325.9 88.3 326.55 88.1 L326.8 87.2 Q327.1 86.65 327.95 86.15 L328.45 85.95 329.15 84.9 Q329.75 84.45 330.4 84.45 L330.45 84.4 Q331.55 83.2 332.9 83.2 334.3 83.2 335.15 84.25 L335.6 84.25 Q336.35 84.2 337.15 84.65 338.1 85.35 338.6 86.9 339.45 87.1 340.1 87.6 341.1 88.55 341.2 89.8 L342.0 90.2 342.05 90.25 342.15 90.3 Q345.1 88.8 347.05 88.0 L347.25 87.7 347.65 87.25 348.35 86.75 348.3 86.3 Q348.25 85.45 348.85 84.5 L349.0 84.3 349.05 84.25 349.1 84.25 350.45 83.2 350.35 82.3 350.35 82.2 350.4 81.5 350.5 81.35 350.75 80.75 350.75 80.7 351.4 80.05 Q351.9 79.7 352.55 79.5 L352.8 78.6 Q353.1 78.05 353.95 77.55 L354.5 77.35 Q354.7 76.65 355.15 76.3 355.75 75.85 356.4 75.85 L356.45 75.8 Q357.55 74.6 358.9 74.6 360.25 74.6 361.2 75.65 L361.6 75.65 Q362.5 75.65 363.15 76.05 364.25 76.85 364.6 78.3 365.45 78.5 366.1 79.0 367.1 79.95 367.2 81.2 367.95 81.55 368.6 82.05 369.6 82.95 369.9 84.7 L369.95 84.85 371.2 84.9 371.8 84.7 Q372.4 84.7 372.75 85.0 L372.8 84.95 373.05 84.55 373.6 84.0 374.15 83.6 374.1 83.15 Q374.1 82.2 374.65 81.35 375.35 80.45 376.25 80.05 L376.15 79.15 376.15 79.05 376.25 78.35 376.3 78.2 376.55 77.6 376.6 77.55 376.6 77.5 377.2 76.9 377.75 76.6 378.35 76.35 378.6 75.45 Q378.9 74.9 379.75 74.4 L380.3 74.2 Q380.5 73.5 380.95 73.15 381.55 72.7 382.2 72.7 L382.25 72.65 Q383.3 71.5 384.7 71.45 386.05 71.45 387.0 72.5 L387.4 72.5 388.95 72.9 Q390.05 73.65 390.4 75.15 391.25 75.3 391.9 75.85 392.9 76.8 393.0 78.05 L393.8 78.45 394.4 78.9 Q395.35 79.75 395.7 81.55 L395.75 81.85 396.25 82.05 396.65 82.3 397.15 81.75 397.2 81.75 397.35 81.6 397.85 81.25 397.8 80.75 Q397.8 79.8 398.4 78.95 399.0 78.2 399.95 77.65 L399.85 76.8 399.85 76.65 399.95 76.0 400.0 75.8 400.3 75.15 400.9 74.55 400.9 74.5 401.45 74.2 402.1 74.0 Q402.1 73.5 402.35 73.1 402.7 72.45 403.45 72.05 L404.0 71.85 Q404.15 71.25 404.65 70.75 405.2 70.35 405.9 70.35 L406.0 70.25 Q407.05 69.1 408.45 69.1 409.75 69.1 410.7 70.15 L411.15 70.1 Q412.05 70.1 412.7 70.55 413.7 71.25 414.15 72.8 414.95 72.9 415.65 73.45 416.55 74.35 416.75 75.7 L417.55 76.1 418.1 76.5 Q418.95 77.25 419.45 79.15 L419.5 79.45 419.95 79.7 Q421.85 80.65 422.2 82.5 L422.3 83.5 422.1 84.8 Q423.2 86.25 423.25 87.7 L423.15 88.5 Q422.8 89.9 421.7 90.6 L421.85 91.6 421.7 92.65 421.75 92.8 421.85 93.4 421.95 93.75 421.95 94.0 422.0 94.25 422.05 94.4 423.25 94.45 423.45 93.55 423.95 92.7 424.4 92.25 424.55 92.15 425.05 91.75 425.0 91.3 Q425.0 90.35 425.6 89.5 426.25 88.65 427.15 88.2 L427.05 87.35 427.05 87.2 427.15 86.5 427.2 86.3 427.5 85.7 427.55 85.65 428.1 85.05 428.15 85.05 428.6 84.75 429.3 84.5 429.55 83.6 Q429.8 83.1 430.65 82.55 L431.2 82.35 Q431.35 81.7 431.85 81.3 432.5 80.85 433.1 80.85 L433.2 80.8 Q434.3 79.6 435.65 79.6 436.95 79.6 437.9 80.65 L438.35 80.65 Q439.1 80.55 439.9 81.05 440.85 81.75 441.35 83.3 442.2 83.5 442.85 84.0 443.75 84.85 443.95 86.2 L444.75 86.6 445.3 87.05 Q446.2 87.85 446.65 89.7 L446.7 90.0 447.15 90.2 Q449.05 91.15 449.4 93.05 L449.5 94.05 449.3 95.3 Q450.4 96.75 450.4 98.2 L450.35 99.05 Q450.0 100.35 448.9 101.1 L449.0 102.1 Q456.6 102.7 460.05 103.75 461.3 104.1 462.65 105.0 L463.3 105.35 463.35 105.4 463.9 105.8 464.0 105.85 464.6 106.3 464.65 106.35 465.3 106.85 465.35 106.9 465.95 107.4 465.95 107.45 466.8 108.2 470.8 101.9 Q471.2 101.2 472.05 101.2 L473.05 101.15 502.95 102.2 Q503.55 102.2 504.05 102.7 L504.4 103.9 503.75 109.85 505.5 109.65 505.6 109.65 506.4 109.55 506.6 109.55 508.6 109.4 508.85 109.35 508.7 108.75 Q508.6 107.85 509.2 107.35 509.8 106.85 510.6 107.0 L511.5 107.35 511.65 107.45 Q511.75 106.85 512.2 106.45 513.25 105.65 514.3 105.25 513.5 104.5 513.9 103.5 514.3 102.45 515.45 102.55 L515.6 102.6 515.65 102.6 516.9 102.85 517.25 103.0 Q517.55 102.2 518.3 102.05 519.05 101.85 519.65 102.35 L519.8 102.45 520.35 103.05 521.05 104.15 521.15 104.15 522.8 104.35 Q523.65 104.6 523.9 105.4 524.9 103.75 527.1 103.75 L527.35 103.75 527.45 103.2 Q527.75 102.2 528.7 101.5 L529.5 100.95 531.0 101.0 Q531.65 101.35 531.75 102.25 L531.75 103.15 531.85 103.15 Q533.65 103.2 535.9 104.0 536.85 104.25 536.95 105.3 537.05 106.25 536.2 106.75 L536.15 106.8 536.05 106.85 536.4 107.2 536.55 107.25 537.85 108.45 Q538.25 108.85 538.3 109.45 538.35 110.05 538.0 110.5 L537.85 110.65 538.1 110.6 538.15 110.55 538.3 110.55 Q539.4 110.4 539.9 111.35 540.45 112.3 539.65 113.15 L539.5 113.3 Q540.7 113.6 542.0 114.45 542.8 114.95 542.65 115.95 546.45 117.65 550.2 120.3 555.05 123.7 562.85 125.05 565.65 125.55 567.15 127.05 568.45 128.35 568.65 130.25 L568.65 130.3 568.7 130.95 568.45 132.9 568.45 132.95 568.35 133.25 567.8 140.35 567.65 144.45 567.6 144.6 567.5 145.4 567.45 145.5 567.25 146.15 566.9 146.85 566.85 147.0 566.45 147.45 566.4 147.55 565.95 148.0 565.55 148.3 565.45 148.4 565.15 148.6 565.1 148.65 564.5 149.05 563.45 150.45 563.05 151.3 563.1 151.65 563.1 151.85 563.05 152.1 562.75 153.0 562.7 153.1 569.7 154.5 573.8 155.3 Q575.85 155.8 577.0 156.6 L583.2 160.45 Q586.85 162.7 588.7 164.25 L588.65 163.95 Q588.5 163.2 589.1 162.6 589.75 162.0 590.55 162.25 L591.45 162.55 591.6 162.65 Q591.7 162.05 592.15 161.65 592.9 161.0 594.2 160.45 593.35 159.75 593.8 158.7 L594.45 158.0 595.35 157.8 595.55 157.8 597.2 158.2 Q597.45 157.5 598.25 157.25 599.0 157.1 599.6 157.6 L599.7 157.65 599.75 157.7 599.8 157.8 600.3 158.3 600.95 159.4 601.1 159.4 602.75 159.6 Q603.55 159.85 603.85 160.6 604.85 158.9 607.05 159.0 L607.25 159.0 607.35 158.45 Q607.6 157.6 608.65 156.7 L609.45 156.15 610.9 156.2 Q611.65 156.6 611.65 157.45 L611.65 158.4 611.75 158.35 612.0 158.4 612.25 155.7 612.35 155.3 613.35 152.45 Q613.7 151.55 614.65 151.45 L617.1 150.85 Q617.5 150.55 617.95 150.55 L621.2 150.75 621.5 150.85 Q621.75 150.9 622.0 151.15 L623.0 151.6 624.1 151.8 624.4 151.95 624.75 152.15 625.25 152.85 626.8 155.0 627.1 155.75 627.6 159.35 627.6 159.7 627.45 161.1 627.2 161.8 627.15 161.85 627.1 161.95 624.8 165.05 624.65 165.25 624.45 165.4 624.3 165.55 623.6 165.85 623.1 165.9 623.0 165.95 622.65 165.95 622.5 166.0 621.6 166.05 621.15 166.3 621.15 166.35 620.9 166.5 619.9 166.7 Q620.3 167.55 619.6 168.35 L619.45 168.5 Q620.85 168.95 621.95 169.65 622.8 170.25 622.55 171.3 622.3 172.35 621.25 172.5 L620.15 172.55 620.6 173.2 Q621.2 174.2 620.45 175.0 L619.65 175.55 620.15 175.75 621.35 175.7 Q625.2 175.7 627.6 177.6 629.75 179.3 633.15 182.8 L638.4 188.05 643.25 187.05 Q652.35 185.05 658.85 183.1 659.6 182.85 660.25 183.35 L662.65 185.35 Q663.25 185.85 663.25 186.55 M750.3 53.9 L750.95 55.35 751.05 55.65 751.15 55.8 751.65 56.9 751.75 57.05 754.75 62.65 757.55 67.35 757.6 67.4 760.4 71.8 760.45 71.9 760.5 71.8 761.5 70.05 762.7 67.3 762.75 67.15 763.3 66.3 Q763.85 65.65 764.7 65.65 765.6 65.65 766.1 66.3 L766.5 67.05 766.95 68.3 769.85 73.4 Q770.25 74.05 770.0 74.75 L772.5 78.1 773.3 76.15 773.35 76.0 Q773.65 75.4 773.9 75.15 774.55 74.5 775.3 74.5 776.2 74.5 776.7 75.15 L777.15 75.9 778.25 78.55 780.45 82.25 Q780.85 82.9 780.6 83.6 L782.0 85.45 788.35 87.05 Q791.45 87.95 792.55 88.7 L793.65 89.6 Q795.0 89.85 796.35 90.8 L798.45 92.75 800.3 94.85 801.65 96.35 801.95 96.55 802.8 97.05 803.0 97.35 803.3 97.9 803.4 98.25 803.45 98.75 803.45 99.25 803.35 102.75 803.25 105.6 803.1 106.25 799.6 113.45 797.0 119.1 796.05 120.25 Q795.5 120.7 793.85 121.35 L793.8 121.35 792.2 121.95 789.55 134.1 Q789.5 134.6 789.05 134.95 L783.95 139.4 783.9 139.4 783.7 139.75 783.0 140.7 782.95 140.8 782.75 141.1 781.5 142.65 781.25 142.9 780.75 143.3 780.6 143.5 780.3 143.75 780.1 143.85 779.75 144.1 779.2 144.4 779.15 144.45 777.85 144.85 771.25 145.45 769.55 146.9 769.5 146.9 768.6 147.5 766.55 148.35 766.0 148.6 764.0 149.0 754.45 149.2 752.65 151.5 752.05 152.0 751.9 152.05 Q751.1 152.55 750.35 152.55 L750.25 152.6 749.8 152.65 740.1 155.6 739.05 157.75 737.85 159.75 Q737.05 160.8 736.05 161.35 734.65 162.0 730.85 165.1 L730.65 165.25 729.25 166.5 729.05 166.65 728.45 167.2 728.45 167.25 726.2 169.6 724.1 171.4 723.95 171.55 723.05 171.9 713.85 172.4 705.65 175.3 705.6 175.35 704.95 175.6 704.75 175.7 704.65 175.7 698.55 177.15 698.5 177.15 697.15 177.3 695.95 177.3 695.9 177.25 695.4 177.15 687.95 174.55 684.9 172.8 683.1 172.05 682.4 171.45 681.85 170.6 681.75 170.4 681.45 170.0 681.4 169.85 681.05 169.4 681.0 169.3 680.6 168.8 680.55 168.7 679.9 167.95 679.85 167.95 677.45 167.35 672.05 166.3 667.05 165.4 666.95 165.4 666.35 165.3 666.25 165.3 665.4 165.2 662.05 165.25 653.7 165.5 651.9 165.45 650.5 165.25 650.3 165.2 Q648.25 164.45 641.7 162.6 L641.55 162.55 640.85 162.15 635.0 155.9 633.7 154.2 633.55 153.9 633.4 153.7 630.85 146.7 622.85 147.6 622.75 147.6 615.45 147.9 614.7 147.9 614.4 147.85 613.8 147.7 609.95 146.8 Q608.8 146.4 608.3 146.0 L607.65 145.6 607.6 145.6 599.75 141.65 598.0 140.85 589.95 139.25 589.55 139.1 583.55 136.0 582.95 135.5 581.5 133.25 581.3 132.8 578.75 123.5 577.45 120.5 577.3 120.25 574.05 113.65 573.9 113.15 573.9 113.1 Q573.6 112.5 573.85 111.8 L575.8 107.95 576.75 106.6 578.25 105.65 Q580.2 104.8 582.1 103.9 585.7 97.5 587.75 95.05 589.65 92.8 593.75 92.7 L597.15 90.3 Q598.95 88.8 602.15 87.6 L602.85 86.8 602.75 86.65 602.7 86.65 Q602.4 86.15 602.5 85.6 L602.5 85.5 Q602.55 85.05 602.85 84.75 L603.8 84.05 604.0 83.85 604.45 83.3 605.5 81.5 606.7 78.6 607.25 77.75 Q607.9 77.1 608.65 77.1 609.5 77.1 610.05 77.8 L610.5 78.5 611.1 80.1 611.1 80.15 613.0 83.6 615.4 81.7 Q615.55 81.0 616.25 80.45 L617.7 79.25 Q617.5 78.9 617.6 78.65 617.65 78.05 617.85 77.65 L618.25 77.15 619.45 75.85 619.35 75.7 Q619.05 75.2 619.1 74.65 L619.4 73.85 619.45 73.8 618.3 73.5 617.95 73.35 616.4 72.4 Q615.55 71.8 615.7 70.85 L615.8 70.2 615.8 69.35 615.75 69.05 Q615.8 68.3 616.3 67.5 L616.75 66.9 Q617.05 66.5 617.7 66.3 L619.2 65.85 619.45 65.7 620.55 65.45 621.4 65.7 621.85 66.05 621.9 66.1 622.95 66.65 623.5 67.2 623.55 67.3 623.9 66.8 Q624.4 66.15 625.25 66.15 626.1 66.15 626.65 66.85 L627.1 67.55 627.7 69.15 628.9 71.35 632.3 66.35 633.6 64.25 633.7 64.0 634.55 62.6 Q638.25 56.4 641.2 50.45 L641.35 50.15 641.45 50.0 641.65 49.55 641.7 49.55 641.9 49.15 641.95 49.1 642.25 48.75 642.3 48.7 642.85 48.3 642.9 48.25 643.6 48.1 643.85 48.15 644.0 48.15 644.65 48.45 646.65 50.05 647.8 50.95 648.3 50.3 Q648.95 49.5 649.9 49.5 L650.95 49.8 651.45 50.25 651.55 50.35 655.25 55.65 661.1 63.85 661.5 63.45 661.4 63.3 661.4 63.25 Q661.1 62.75 661.15 62.25 L661.15 62.15 661.5 61.35 662.45 60.65 662.65 60.5 663.1 59.9 664.15 58.15 665.3 55.4 665.35 55.25 665.9 54.4 Q666.45 53.75 667.3 53.7 668.2 53.75 668.7 54.4 L669.15 55.15 670.25 57.8 670.3 57.85 672.45 61.5 Q672.85 62.15 672.6 62.85 L673.9 64.6 Q677.1 60.85 679.25 57.45 L683.25 50.65 683.35 50.4 685.05 47.0 Q687.65 41.65 688.55 38.25 L688.55 38.2 688.6 38.1 Q688.85 37.3 689.6 37.05 L689.95 36.95 691.15 36.8 Q692.85 36.8 693.8 38.0 L693.85 38.0 693.85 38.05 694.4 38.1 695.1 38.05 695.35 38.0 695.9 37.95 699.2 38.25 Q699.7 38.35 699.85 38.5 L704.0 41.15 704.5 41.65 706.6 45.05 712.15 53.55 714.6 57.0 714.75 57.3 720.1 64.5 720.15 64.55 723.0 68.1 723.05 68.2 724.35 69.8 724.6 70.05 724.95 70.5 727.0 67.55 728.55 65.05 736.35 51.0 736.9 50.4 737.7 49.95 Q738.6 49.5 739.65 49.45 740.35 49.35 741.1 49.85 741.95 50.35 742.25 51.15 L742.6 51.35 744.05 51.5 746.0 51.35 Q747.75 51.35 749.05 52.4 L749.8 53.2 750.3 53.9 M327.8 444.1 L328.15 444.1 327.75 443.85 327.8 444.1 M550.0 494.65 L549.85 494.65 549.45 494.6 548.95 494.65 Q547.95 494.8 547.5 495.5 L547.4 495.55 547.3 495.75 547.1 496.3 547.1 496.75 547.25 497.1 547.4 497.3 547.5 497.35 547.65 497.55 547.8 497.6 547.95 497.75 548.15 497.85 548.3 497.95 549.45 498.2 550.6 497.95 550.8 497.8 550.9 497.75 551.1 497.6 551.2 497.55 551.35 497.35 551.45 497.3 551.6 497.1 551.75 496.8 551.8 496.55 551.75 496.3 551.7 496.15 551.65 495.9 551.6 495.8 551.35 495.45 Q550.85 494.85 550.0 494.65 M509.85 451.75 Q513.25 451.75 516.4 453.9 L516.5 454.0 Q518.3 455.25 519.85 457.2 521.8 459.85 522.75 461.6 L522.8 461.7 Q525.1 466.05 525.25 472.9 L525.25 476.55 Q525.1 480.65 524.15 484.55 L523.8 485.9 522.9 488.35 521.6 490.9 521.4 491.2 520.05 492.7 520.0 492.8 518.95 493.55 518.05 494.0 Q515.25 495.15 510.3 495.15 L510.25 495.15 Q510.35 496.1 509.45 496.6 L508.05 497.05 507.6 497.05 506.2 496.8 506.0 496.7 505.0 496.1 Q504.4 495.6 504.5 494.8 498.95 494.1 495.75 491.0 L495.65 490.95 495.05 490.25 495.0 490.15 494.5 489.55 493.3 487.35 492.55 484.9 492.2 482.55 492.15 482.4 492.1 481.2 492.05 481.1 492.05 479.65 Q492.05 475.85 492.8 471.6 L492.8 471.45 493.05 470.1 493.1 470.0 493.45 468.2 Q494.3 464.05 496.9 460.55 L496.95 460.45 497.25 460.05 497.3 460.0 497.35 459.9 Q499.25 457.4 502.3 455.0 L502.3 454.95 503.95 453.7 Q506.6 451.75 509.85 451.75 M636.0 484.95 L635.8 485.25 635.75 485.5 635.7 485.65 635.65 485.9 635.7 486.15 635.85 486.45 636.0 486.65 636.1 486.7 636.25 486.9 636.35 487.0 636.55 487.1 636.7 487.2 636.9 487.3 638.0 487.55 639.15 487.3 639.35 487.2 639.7 486.95 639.8 486.9 639.95 486.7 640.05 486.65 640.15 486.45 640.35 486.15 640.35 485.9 640.3 485.6 640.3 485.5 640.2 485.2 640.2 485.15 640.0 484.9 639.95 484.8 Q639.45 484.2 638.6 484.0 L638.45 484.0 638.0 483.95 637.55 484.0 Q636.65 484.15 636.1 484.85 L636.0 484.95 M232.6 367.6 L231.75 368.05 Q231.05 368.35 229.65 370.55 228.55 372.2 226.95 375.4 224.15 381.3 223.4 384.1 222.55 387.25 222.25 388.95 221.75 391.85 221.75 395.3 L221.85 396.1 221.85 396.35 221.9 396.4 222.05 397.1 222.05 397.2 222.3 397.75 222.35 397.95 222.7 398.6 Q223.6 400.05 225.2 401.25 L226.75 402.4 227.5 403.1 227.55 403.2 227.85 403.55 227.9 403.55 231.1 407.95 232.05 409.7 232.1 409.85 233.2 411.5 Q234.05 413.1 234.05 414.85 234.05 415.95 233.65 417.65 232.45 421.9 231.2 424.15 232.85 424.8 233.45 426.0 233.9 427.25 233.9 429.05 L233.9 429.75 Q234.7 431.35 234.75 432.8 234.75 434.0 234.15 434.95 233.2 436.55 231.3 436.85 230.85 438.05 229.55 438.8 228.75 439.25 228.05 439.4 L227.7 443.25 227.45 444.8 227.1 445.35 226.6 445.75 226.55 446.1 226.4 446.7 226.2 447.2 225.85 447.5 224.95 447.8 Q224.2 447.8 223.7 447.15 L223.5 446.65 223.45 446.4 223.45 446.2 223.0 441.95 222.35 444.0 222.3 444.25 222.15 444.7 221.7 445.2 220.2 446.4 220.2 446.6 220.25 446.8 220.25 446.85 220.55 447.7 220.55 447.75 221.4 448.95 221.5 449.05 224.0 451.3 224.65 451.85 225.9 453.25 226.05 453.5 226.4 453.95 226.8 454.6 227.0 454.85 227.8 456.4 227.85 456.6 229.65 459.8 229.8 460.0 230.05 460.45 231.75 462.65 232.1 462.95 232.25 463.15 232.6 463.45 233.2 463.85 Q233.2 463.95 233.45 463.95 L233.55 464.0 233.9 464.05 234.1 464.1 234.7 464.15 234.8 464.15 235.55 464.1 235.8 464.05 237.7 463.75 240.55 462.95 242.35 462.2 242.65 462.1 243.9 461.5 243.95 461.45 245.45 460.45 245.5 460.35 245.6 460.2 Q246.0 459.4 246.4 456.75 L247.15 452.15 247.3 451.55 247.3 451.45 247.45 450.9 247.5 450.8 247.7 450.2 247.7 450.05 Q247.8 449.85 247.3 449.1 L246.0 447.55 244.4 445.9 Q243.45 444.85 243.05 443.9 242.55 442.65 242.55 440.1 242.65 434.45 244.35 431.5 L245.05 430.5 Q246.15 429.15 248.4 427.3 L251.2 424.8 251.5 424.4 251.75 424.15 Q253.0 422.7 254.8 421.65 256.6 420.6 258.3 420.25 L258.4 420.25 259.2 420.15 259.45 420.15 260.4 420.35 Q262.65 421.3 263.75 422.1 266.0 423.8 266.6 426.3 L267.6 430.25 268.15 431.55 268.55 432.05 272.75 435.15 Q276.2 437.55 277.5 437.75 L278.3 438.0 278.55 438.05 279.25 438.3 279.45 438.4 Q283.15 439.85 284.95 441.85 L285.5 442.6 285.55 442.75 285.9 443.65 286.05 444.7 286.1 444.7 286.35 444.85 286.4 444.9 286.85 445.2 287.45 445.75 287.9 446.35 288.05 446.6 288.15 446.6 289.15 446.7 289.35 446.75 289.75 446.9 Q290.15 447.05 290.55 447.45 L291.1 448.4 291.75 448.55 293.3 449.05 Q294.25 449.55 294.75 450.55 295.2 451.75 295.2 453.45 L295.2 454.1 295.75 455.35 295.85 455.35 296.05 455.3 296.5 455.25 297.4 455.3 298.35 455.6 298.65 455.8 299.1 456.1 299.35 456.35 299.7 456.65 300.15 457.25 300.3 457.5 300.8 457.5 301.1 457.55 301.25 457.55 301.05 456.65 300.95 454.6 Q301.05 452.2 302.7 450.4 L304.1 449.05 304.1 449.0 Q306.0 447.3 308.2 445.8 L308.45 445.55 309.1 445.1 309.95 444.8 310.65 444.65 311.2 444.6 312.1 444.55 313.65 444.65 313.8 444.65 314.5 444.7 315.05 444.8 315.8 444.5 Q316.1 443.05 316.9 442.15 317.6 441.3 318.9 441.3 L321.0 441.8 321.25 441.6 Q322.3 440.85 323.15 440.6 321.4 439.55 320.8 439.45 319.35 439.2 317.7 437.35 L315.15 433.85 Q312.7 429.8 311.5 426.55 L311.05 424.9 310.65 420.3 310.3 418.6 306.95 413.45 Q304.0 409.1 302.9 406.8 L302.55 406.1 301.95 404.0 301.95 403.95 301.6 401.75 301.55 401.7 301.55 401.65 301.5 400.95 301.5 400.85 301.35 397.9 301.4 396.05 301.5 395.0 301.5 394.75 301.65 393.75 301.85 393.0 Q302.05 392.4 302.05 389.8 L301.8 383.85 301.7 382.75 301.65 382.5 301.15 379.2 300.5 379.35 Q299.7 379.35 299.3 378.8 L299.05 378.3 298.95 377.95 298.95 377.8 298.8 375.85 297.1 374.15 296.85 374.95 296.85 375.1 296.8 375.25 296.6 375.7 296.4 375.95 296.35 376.0 293.25 378.5 293.05 378.95 292.75 379.35 292.95 379.5 293.05 379.65 293.3 379.95 293.35 380.05 293.6 380.4 293.7 380.6 293.8 380.75 294.1 381.55 296.65 387.55 Q298.9 392.95 298.95 395.95 L298.95 396.4 298.55 398.55 298.0 399.65 297.25 401.25 296.8 402.45 296.8 402.55 296.4 403.75 296.4 403.85 295.55 406.85 295.55 407.0 294.75 410.3 292.75 419.5 Q291.65 424.4 291.0 426.05 290.45 427.5 289.05 428.3 287.8 429.05 286.4 429.0 283.9 429.0 281.45 427.4 278.85 425.6 278.25 423.4 278.05 422.2 274.75 419.5 L271.85 417.05 Q270.25 415.55 269.4 414.15 L269.3 414.05 268.8 413.0 Q268.4 412.1 267.55 411.55 L265.15 410.45 Q260.95 408.65 259.6 404.85 L258.55 402.05 256.0 395.25 256.0 395.1 Q255.75 394.25 255.65 393.25 L255.65 392.65 Q255.55 390.75 256.9 389.55 257.9 388.75 259.3 386.95 L261.7 383.8 264.7 379.5 264.9 379.3 262.65 378.3 261.7 377.75 261.55 377.6 261.55 378.5 261.15 379.25 Q260.75 379.75 260.05 379.75 259.4 379.7 258.95 379.25 L258.75 379.0 258.55 378.6 258.5 378.3 258.25 377.55 Q257.8 377.5 257.45 377.15 L257.2 376.85 256.9 376.15 255.45 369.9 Q254.35 369.8 253.3 369.35 251.7 368.7 250.9 367.2 L250.65 367.2 Q248.65 367.3 247.15 365.5 L246.25 363.75 244.35 364.1 244.25 364.15 241.9 364.7 241.8 364.7 240.75 365.0 240.6 365.0 239.5 365.35 239.4 365.35 236.2 366.3 236.0 366.4 235.2 366.65 235.1 366.7 233.45 367.3 233.35 367.35 232.7 367.6 232.6 367.6 M96.85 256.7 L96.9 256.7 96.9 256.75 97.1 257.1 97.5 258.0 97.8 259.15 97.8 259.35 97.85 259.7 97.85 260.1 97.8 260.6 97.75 260.75 97.75 260.9 97.7 261.1 97.5 261.55 97.45 261.7 97.35 261.9 97.0 262.45 96.9 262.55 96.3 263.1 95.8 263.5 95.85 263.6 Q96.55 264.7 96.55 265.7 96.55 267.55 94.5 269.75 92.35 271.95 88.3 273.1 84.65 274.15 79.95 274.2 71.7 274.2 66.7 270.9 L65.3 269.85 65.0 269.55 64.8 269.4 64.55 269.15 64.2 268.7 64.0 268.5 63.6 267.8 63.4 267.25 63.3 266.75 63.3 266.2 63.35 265.85 63.35 265.7 63.45 265.35 63.65 264.9 63.7 264.85 63.9 264.5 63.95 264.45 64.15 264.2 64.15 264.15 65.6 262.8 67.0 261.65 67.45 261.2 68.1 260.25 68.7 258.3 68.85 258.05 69.25 257.25 69.3 257.2 69.8 256.45 71.15 254.95 71.65 254.55 71.8 254.4 72.25 254.05 72.35 253.95 72.85 253.6 72.9 253.55 73.95 252.9 74.1 252.85 74.4 252.7 74.55 252.6 75.45 252.2 75.55 252.15 Q79.9 250.6 84.1 250.6 88.3 250.6 91.7 252.2 94.65 253.6 96.4 255.95 L96.4 256.0 96.85 256.7 M303.75 127.35 L303.75 127.6 304.2 127.6 303.75 127.35" fill="#ffffff" fill-rule="evenodd" stroke="none"/>
    </g>
  </defs>
</svg>
