<?xml version="1.0" encoding="UTF-8" standalone="no"?>
<svg xmlns:ffdec="https://www.free-decompiler.com/flash" xmlns:xlink="http://www.w3.org/1999/xlink" ffdec:objectType="frame" height="140.55px" width="242.85px" xmlns="http://www.w3.org/2000/svg">
  <g transform="matrix(1.0, 0.0, 0.0, 1.0, 0.0, 0.0)">
    <use ffdec:characterId="217" height="129.9" transform="matrix(1.0, 0.0, 0.0, 1.0, 0.05, 10.65)" width="242.8" xlink:href="#shape0"/>
    <use ffdec:characterId="219" height="108.1" transform="matrix(1.0, 0.0, 0.0, 1.0, 0.0, 32.45)" width="242.85" xlink:href="#sprite0"/>
    <use ffdec:characterId="221" height="5.75" style="mix-blend-mode: multiply" transform="matrix(1.0, 0.0, 0.0, 1.0, 56.65, 126.0)" width="17.35" xlink:href="#sprite1"/>
    <use ffdec:characterId="222" height="11.65" transform="matrix(1.0, 0.0, 0.0, 1.0, 69.55, 110.4)" width="7.6" xlink:href="#shape3"/>
    <use ffdec:characterId="224" height="10.55" style="mix-blend-mode: multiply" transform="matrix(1.0, 0.0, 0.0, 1.0, 70.1, 110.55)" width="5.9" xlink:href="#sprite2"/>
    <use ffdec:characterId="226" height="9.55" style="mix-blend-mode: multiply" transform="matrix(1.0, 0.0, 0.0, 1.0, 69.6, 110.5)" width="4.85" xlink:href="#sprite3"/>
    <use ffdec:characterId="228" height="11.65" style="mix-blend-mode: multiply" transform="matrix(1.0, 0.0, 0.0, 1.0, 69.7, 110.4)" width="7.45" xlink:href="#sprite4"/>
    <use ffdec:characterId="229" height="27.15" transform="matrix(1.0, 0.0, 0.0, 1.0, 60.25, 103.1)" width="15.95" xlink:href="#shape7"/>
    <use ffdec:characterId="231" height="26.6" style="mix-blend-mode: multiply" transform="matrix(1.0, 0.0, 0.0, 1.0, 66.65, 103.55)" width="1.8" xlink:href="#sprite5"/>
    <use ffdec:characterId="233" height="27.15" style="mix-blend-mode: multiply" transform="matrix(1.0, 0.0, 0.0, 1.0, 61.95, 103.1)" width="4.1" xlink:href="#sprite6"/>
    <use ffdec:characterId="235" height="26.9" style="mix-blend-mode: multiply" transform="matrix(1.0, 0.0, 0.0, 1.0, 60.25, 103.2)" width="10.4" xlink:href="#sprite7"/>
    <use ffdec:characterId="236" height="27.15" transform="matrix(1.0, 0.0, 0.0, 1.0, 53.0, 103.1)" width="15.75" xlink:href="#shape11"/>
    <use ffdec:characterId="238" height="10.55" style="mix-blend-mode: multiply" transform="matrix(1.0, 0.0, 0.0, 1.0, 56.95, 109.05)" width="3.9" xlink:href="#sprite8"/>
    <use ffdec:characterId="240" height="12.15" style="mix-blend-mode: multiply" transform="matrix(1.0, 0.0, 0.0, 1.0, 55.0, 108.55)" width="6.15" xlink:href="#sprite9"/>
    <use ffdec:characterId="242" height="13.55" style="mix-blend-mode: multiply" transform="matrix(1.0, 0.0, 0.0, 1.0, 53.0, 108.45)" width="8.1" xlink:href="#sprite10"/>
    <use ffdec:characterId="243" height="13.5" transform="matrix(1.0, 0.0, 0.0, 1.0, 53.4, 108.55)" width="7.75" xlink:href="#shape15"/>
    <use ffdec:characterId="245" height="5.75" style="mix-blend-mode: multiply" transform="matrix(1.0, 0.0, 0.0, 1.0, 20.4, 92.8)" width="17.35" xlink:href="#sprite11"/>
    <use ffdec:characterId="246" height="11.65" transform="matrix(1.0, 0.0, 0.0, 1.0, 33.3, 77.2)" width="7.6" xlink:href="#shape17"/>
    <use ffdec:characterId="248" height="10.55" style="mix-blend-mode: multiply" transform="matrix(1.0, 0.0, 0.0, 1.0, 33.75, 77.35)" width="5.95" xlink:href="#sprite12"/>
    <use ffdec:characterId="250" height="9.6" style="mix-blend-mode: multiply" transform="matrix(1.0, 0.0, 0.0, 1.0, 33.35, 77.3)" width="4.85" xlink:href="#sprite13"/>
    <use ffdec:characterId="251" height="11.65" style="mix-blend-mode: multiply" transform="matrix(1.0, 0.0, 0.0, 1.0, 33.4, 77.2)" width="7.5" xlink:href="#sprite14"/>
    <use ffdec:characterId="252" height="27.1" transform="matrix(1.0, 0.0, 0.0, 1.0, 24.0, 69.95)" width="15.95" xlink:href="#shape20"/>
    <use ffdec:characterId="253" height="26.65" style="mix-blend-mode: multiply" transform="matrix(1.0, 0.0, 0.0, 1.0, 30.4, 70.35)" width="1.8" xlink:href="#sprite15"/>
    <use ffdec:characterId="254" height="27.1" style="mix-blend-mode: multiply" transform="matrix(1.0, 0.0, 0.0, 1.0, 25.7, 69.95)" width="4.05" xlink:href="#sprite16"/>
    <use ffdec:characterId="255" height="26.85" style="mix-blend-mode: multiply" transform="matrix(1.0, 0.0, 0.0, 1.0, 24.0, 70.05)" width="10.4" xlink:href="#sprite17"/>
    <use ffdec:characterId="256" height="27.1" transform="matrix(1.0, 0.0, 0.0, 1.0, 16.75, 69.95)" width="15.75" xlink:href="#shape21"/>
    <use ffdec:characterId="257" height="10.5" style="mix-blend-mode: multiply" transform="matrix(1.0, 0.0, 0.0, 1.0, 20.7, 75.9)" width="3.9" xlink:href="#sprite18"/>
    <use ffdec:characterId="259" height="12.1" style="mix-blend-mode: multiply" transform="matrix(1.0, 0.0, 0.0, 1.0, 18.75, 75.4)" width="6.15" xlink:href="#sprite19"/>
    <use ffdec:characterId="260" height="13.6" style="mix-blend-mode: multiply" transform="matrix(1.0, 0.0, 0.0, 1.0, 16.75, 75.25)" width="8.1" xlink:href="#sprite20"/>
    <use ffdec:characterId="261" height="13.5" transform="matrix(1.0, 0.0, 0.0, 1.0, 17.15, 75.35)" width="7.75" xlink:href="#shape23"/>
    <use ffdec:characterId="263" height="5.75" style="mix-blend-mode: multiply" transform="matrix(1.0, 0.0, 0.0, 1.0, 120.45, 22.85)" width="17.4" xlink:href="#sprite21"/>
    <use ffdec:characterId="246" height="11.65" transform="matrix(1.0, 0.0, 0.0, 1.0, 133.4, 7.25)" width="7.6" xlink:href="#shape17"/>
    <use ffdec:characterId="264" height="10.55" style="mix-blend-mode: multiply" transform="matrix(1.0, 0.0, 0.0, 1.0, 133.85, 7.4)" width="5.95" xlink:href="#sprite22"/>
    <use ffdec:characterId="265" height="9.55" style="mix-blend-mode: multiply" transform="matrix(1.0, 0.0, 0.0, 1.0, 133.4, 7.35)" width="4.9" xlink:href="#sprite23"/>
    <use ffdec:characterId="266" height="11.65" style="mix-blend-mode: multiply" transform="matrix(1.0, 0.0, 0.0, 1.0, 133.5, 7.25)" width="7.5" xlink:href="#sprite24"/>
    <use ffdec:characterId="267" height="27.1" transform="matrix(1.0, 0.0, 0.0, 1.0, 124.05, 0.0)" width="16.0" xlink:href="#shape25"/>
    <use ffdec:characterId="269" height="26.65" style="mix-blend-mode: multiply" transform="matrix(1.0, 0.0, 0.0, 1.0, 130.45, 0.4)" width="1.8" xlink:href="#sprite25"/>
    <use ffdec:characterId="271" height="27.1" style="mix-blend-mode: multiply" transform="matrix(1.0, 0.0, 0.0, 1.0, 125.8, 0.0)" width="4.05" xlink:href="#sprite26"/>
    <use ffdec:characterId="273" height="26.85" style="mix-blend-mode: multiply" transform="matrix(1.0, 0.0, 0.0, 1.0, 124.05, 0.1)" width="10.45" xlink:href="#sprite27"/>
    <use ffdec:characterId="274" height="27.1" transform="matrix(1.0, 0.0, 0.0, 1.0, 116.85, 0.0)" width="15.7" xlink:href="#shape29"/>
    <use ffdec:characterId="275" height="10.5" style="mix-blend-mode: multiply" transform="matrix(1.0, 0.0, 0.0, 1.0, 120.75, 5.95)" width="3.9" xlink:href="#sprite28"/>
    <use ffdec:characterId="276" height="12.15" style="mix-blend-mode: multiply" transform="matrix(1.0, 0.0, 0.0, 1.0, 118.85, 5.4)" width="6.1" xlink:href="#sprite29"/>
    <use ffdec:characterId="277" height="13.6" style="mix-blend-mode: multiply" transform="matrix(1.0, 0.0, 0.0, 1.0, 116.8, 5.3)" width="8.1" xlink:href="#sprite30"/>
    <use ffdec:characterId="278" height="13.5" transform="matrix(1.0, 0.0, 0.0, 1.0, 117.25, 5.4)" width="7.75" xlink:href="#shape30"/>
    <use ffdec:characterId="279" height="5.75" style="mix-blend-mode: multiply" transform="matrix(1.0, 0.0, 0.0, 1.0, 210.05, 39.7)" width="17.4" xlink:href="#sprite31"/>
    <use ffdec:characterId="246" height="11.65" transform="matrix(1.0, 0.0, 0.0, 1.0, 223.0, 24.1)" width="7.6" xlink:href="#shape17"/>
    <use ffdec:characterId="280" height="10.55" style="mix-blend-mode: multiply" transform="matrix(1.0, 0.0, 0.0, 1.0, 223.45, 24.25)" width="5.95" xlink:href="#sprite32"/>
    <use ffdec:characterId="281" height="9.55" style="mix-blend-mode: multiply" transform="matrix(1.0, 0.0, 0.0, 1.0, 223.0, 24.2)" width="4.9" xlink:href="#sprite33"/>
    <use ffdec:characterId="282" height="11.65" style="mix-blend-mode: multiply" transform="matrix(1.0, 0.0, 0.0, 1.0, 223.1, 24.1)" width="7.5" xlink:href="#sprite34"/>
    <use ffdec:characterId="283" height="27.1" transform="matrix(1.0, 0.0, 0.0, 1.0, 213.7, 16.85)" width="15.95" xlink:href="#shape31"/>
    <use ffdec:characterId="284" height="26.65" style="mix-blend-mode: multiply" transform="matrix(1.0, 0.0, 0.0, 1.0, 220.1, 17.25)" width="1.75" xlink:href="#sprite35"/>
    <use ffdec:characterId="286" height="27.1" style="mix-blend-mode: multiply" transform="matrix(1.0, 0.0, 0.0, 1.0, 215.4, 16.85)" width="4.05" xlink:href="#sprite36"/>
    <use ffdec:characterId="287" height="26.85" style="mix-blend-mode: multiply" transform="matrix(1.0, 0.0, 0.0, 1.0, 213.7, 16.95)" width="10.4" xlink:href="#sprite37"/>
    <use ffdec:characterId="288" height="27.1" transform="matrix(1.0, 0.0, 0.0, 1.0, 206.45, 16.85)" width="15.75" xlink:href="#shape33"/>
    <use ffdec:characterId="289" height="10.5" style="mix-blend-mode: multiply" transform="matrix(1.0, 0.0, 0.0, 1.0, 210.35, 22.8)" width="3.95" xlink:href="#sprite38"/>
    <use ffdec:characterId="290" height="12.15" style="mix-blend-mode: multiply" transform="matrix(1.0, 0.0, 0.0, 1.0, 208.45, 22.25)" width="6.15" xlink:href="#sprite39"/>
    <use ffdec:characterId="291" height="13.6" style="mix-blend-mode: multiply" transform="matrix(1.0, 0.0, 0.0, 1.0, 206.45, 22.15)" width="8.1" xlink:href="#sprite40"/>
    <use ffdec:characterId="292" height="13.5" transform="matrix(1.0, 0.0, 0.0, 1.0, 206.85, 22.25)" width="7.75" xlink:href="#shape34"/>
    <use ffdec:characterId="294" height="5.7" style="mix-blend-mode: multiply" transform="matrix(1.0, 0.0, 0.0, 1.0, 183.75, 74.2)" width="17.4" xlink:href="#sprite41"/>
    <use ffdec:characterId="295" height="11.65" transform="matrix(1.0, 0.0, 0.0, 1.0, 196.7, 58.55)" width="7.6" xlink:href="#shape36"/>
    <use ffdec:characterId="296" height="10.55" style="mix-blend-mode: multiply" transform="matrix(1.0, 0.0, 0.0, 1.0, 197.15, 58.7)" width="5.95" xlink:href="#sprite42"/>
    <use ffdec:characterId="297" height="9.6" style="mix-blend-mode: multiply" transform="matrix(1.0, 0.0, 0.0, 1.0, 196.75, 58.65)" width="4.85" xlink:href="#sprite43"/>
    <use ffdec:characterId="298" height="11.65" style="mix-blend-mode: multiply" transform="matrix(1.0, 0.0, 0.0, 1.0, 196.8, 58.55)" width="7.5" xlink:href="#sprite44"/>
    <use ffdec:characterId="299" height="27.15" transform="matrix(1.0, 0.0, 0.0, 1.0, 187.4, 51.3)" width="15.95" xlink:href="#shape37"/>
    <use ffdec:characterId="300" height="26.65" style="mix-blend-mode: multiply" transform="matrix(1.0, 0.0, 0.0, 1.0, 193.8, 51.7)" width="1.75" xlink:href="#sprite45"/>
    <use ffdec:characterId="302" height="27.15" style="mix-blend-mode: multiply" transform="matrix(1.0, 0.0, 0.0, 1.0, 189.1, 51.3)" width="4.05" xlink:href="#sprite46"/>
    <use ffdec:characterId="303" height="26.85" style="mix-blend-mode: multiply" transform="matrix(1.0, 0.0, 0.0, 1.0, 187.4, 51.4)" width="10.4" xlink:href="#sprite47"/>
    <use ffdec:characterId="304" height="27.1" transform="matrix(1.0, 0.0, 0.0, 1.0, 180.15, 51.3)" width="15.75" xlink:href="#shape39"/>
    <use ffdec:characterId="305" height="10.5" style="mix-blend-mode: multiply" transform="matrix(1.0, 0.0, 0.0, 1.0, 184.05, 57.25)" width="3.95" xlink:href="#sprite48"/>
    <use ffdec:characterId="306" height="12.1" style="mix-blend-mode: multiply" transform="matrix(1.0, 0.0, 0.0, 1.0, 182.15, 56.75)" width="6.15" xlink:href="#sprite49"/>
    <use ffdec:characterId="307" height="13.6" style="mix-blend-mode: multiply" transform="matrix(1.0, 0.0, 0.0, 1.0, 180.15, 56.6)" width="8.1" xlink:href="#sprite50"/>
    <use ffdec:characterId="308" height="13.5" transform="matrix(1.0, 0.0, 0.0, 1.0, 180.55, 56.7)" width="7.75" xlink:href="#shape40"/>
    <use ffdec:characterId="310" height="81.55" style="mix-blend-mode: multiply" transform="matrix(1.0, 0.0, 0.0, 1.0, 43.75, 32.35)" width="158.6" xlink:href="#sprite51"/>
    <use ffdec:characterId="311" height="63.05" transform="matrix(1.0, 0.0, 0.0, 1.0, 121.1, 3.7)" width="77.5" xlink:href="#shape42"/>
    <use ffdec:characterId="313" height="36.65" style="mix-blend-mode: multiply" transform="matrix(1.0, 0.0, 0.0, 1.0, 117.5, 30.0)" width="41.05" xlink:href="#sprite52"/>
    <use ffdec:characterId="314" height="92.9" transform="matrix(1.0, 0.0, 0.0, 1.0, 48.45, 19.0)" width="120.2" xlink:href="#shape44"/>
  </g>
  <defs>
    <g id="shape0" transform="matrix(1.0, 0.0, 0.0, 1.0, -0.05, -10.65)">
      <path d="M239.15 43.6 Q243.15 45.2 242.8 46.45 242.15 49.0 230.95 52.25 223.0 54.55 211.8 56.7 205.1 58.0 204.05 59.0 203.7 59.3 204.0 59.55 L204.35 59.75 Q208.4 63.05 222.35 68.3 227.4 70.2 229.1 71.5 231.4 73.2 230.0 75.15 227.1 79.15 207.35 84.65 188.95 89.75 172.55 91.8 158.45 93.6 156.9 98.9 156.3 101.1 158.35 103.1 160.4 105.1 164.35 106.15 172.25 108.3 168.9 112.0 165.55 115.75 152.85 119.0 142.2 121.75 125.15 121.9 106.45 121.55 99.0 121.55 88.8 121.55 88.65 124.35 88.55 126.75 94.9 129.25 97.7 130.35 97.9 132.1 98.15 133.9 95.4 135.65 88.45 140.0 69.0 140.5 48.0 141.1 32.4 136.7 17.3 132.45 18.5 126.95 19.25 123.3 33.55 119.0 40.5 116.85 42.95 115.75 47.05 113.85 46.7 111.8 46.35 109.75 39.45 108.55 L24.25 106.85 Q1.9 104.75 0.3 100.55 -0.8 97.75 2.6 95.05 5.5 92.75 13.0 89.75 35.8 81.55 51.3 74.9 71.55 66.2 67.65 61.1 65.2 57.95 52.85 56.2 46.3 55.25 48.5 52.5 L52.05 50.0 Q55.4 48.25 71.6 42.15 84.1 37.5 81.55 37.2 75.55 36.55 72.35 34.65 68.3 32.2 78.75 30.55 85.1 29.55 109.4 20.6 132.3 12.2 144.9 11.05 161.5 9.55 176.35 13.85 190.6 18.05 202.55 27.45 211.2 34.25 228.95 40.1 L239.15 43.6" fill="url(#gradient0)" fill-rule="evenodd" stroke="none"/>
      <path d="M90.25 136.75 Q93.7 135.2 90.55 134.7 83.2 133.55 72.15 126.7 62.75 120.9 58.9 116.65 55.8 113.3 61.05 113.45 66.45 113.6 79.3 117.35 88.55 120.05 97.25 121.6 88.4 121.85 88.7 124.55 88.9 126.9 94.9 129.25 97.3 130.2 97.8 131.65 98.35 133.15 96.7 134.7 92.65 138.45 79.25 139.85 86.85 138.3 90.25 136.75 M222.35 68.3 Q227.4 70.2 229.1 71.5 231.4 73.2 230.0 75.15 227.1 79.15 207.35 84.65 188.95 89.75 172.55 91.8 158.45 93.6 156.9 98.9 156.3 101.1 158.35 103.1 160.4 105.1 164.35 106.15 170.65 107.85 169.7 110.7 168.8 113.45 161.3 116.35 164.1 115.1 165.0 114.15 165.9 113.1 164.4 112.6 162.4 111.9 156.65 111.35 L146.5 110.4 Q134.25 108.9 136.5 104.4 139.0 99.45 146.15 96.7 148.5 95.8 163.75 91.8 171.5 89.75 172.2 86.9 172.55 85.35 172.95 84.95 173.9 84.0 177.0 83.3 180.3 82.6 194.55 83.15 207.65 83.65 216.15 80.9 226.2 77.7 223.15 75.75 222.35 75.25 206.6 70.35 195.65 66.95 189.8 60.15 187.6 57.6 187.5 56.0 187.45 54.4 189.6 55.05 193.3 56.15 199.3 56.7 205.55 57.25 210.65 56.9 204.8 58.1 204.0 59.05 203.75 59.35 204.0 59.55 L204.35 59.75 Q208.4 63.05 222.35 68.3 M235.15 42.15 Q243.25 44.85 242.8 46.45 242.05 49.45 226.15 53.55 233.2 51.5 235.3 50.2 237.95 48.6 231.8 48.6 220.6 48.6 212.65 45.75 204.05 42.65 205.25 38.05 206.1 34.85 210.3 34.65 213.05 34.5 216.95 35.65 221.4 37.6 235.15 42.15" fill="url(#gradient1)" fill-rule="evenodd" stroke="none"/>
      <path d="M106.55 26.1 Q111.0 25.0 112.15 23.8 L113.7 21.0 Q114.55 19.5 119.15 18.75 L123.55 18.3 Q117.95 20.4 119.8 22.5 121.25 24.2 126.95 25.45 130.8 26.25 124.15 28.4 110.6 32.75 108.6 33.6 105.15 35.05 106.3 37.6 L109.95 42.2 Q112.35 45.0 111.55 46.45 110.45 48.45 103.15 49.25 88.95 50.85 92.85 59.75 95.6 66.0 106.55 74.8 110.25 77.75 108.8 79.2 107.7 80.35 102.55 80.8 L91.8 81.45 Q84.7 81.9 80.65 82.95 70.85 85.45 68.95 93.35 68.15 96.8 69.6 99.8 71.2 103.05 74.9 104.75 78.55 106.45 77.9 107.2 L73.6 107.45 Q64.15 106.35 54.1 101.7 43.65 96.85 41.5 92.55 39.3 88.25 45.95 85.7 58.7 81.7 65.45 79.1 77.8 74.35 75.25 70.7 71.85 65.9 74.05 60.5 76.5 54.45 85.1 51.3 93.3 48.35 95.75 43.25 97.35 39.9 96.65 33.95 96.25 30.1 101.35 27.7 L106.55 26.1" fill="url(#gradient2)" fill-rule="evenodd" stroke="none"/>
      <path d="M189.4 54.05 L187.8 54.3 Q186.35 54.9 187.15 56.85 188.1 59.2 192.65 63.4 L197.0 67.15 Q193.8 66.3 189.4 62.95 L184.3 59.4 Q182.05 58.45 177.85 58.85 L161.15 61.55 154.95 62.65 Q153.55 62.9 157.05 62.2 164.15 60.8 173.35 58.1 180.9 55.95 183.8 54.75 186.6 53.65 189.4 54.05" fill="#fff5a8" fill-rule="evenodd" stroke="none"/>
      <path d="M202.1 76.0 Q197.15 75.8 191.05 74.5 187.25 73.7 186.9 74.45 186.45 75.4 187.7 77.25 L189.0 78.85 Q188.0 78.65 186.0 75.7 184.1 72.9 181.25 72.65 178.35 72.4 167.55 74.0 L162.65 74.7 164.9 74.2 178.2 71.8 186.75 72.2 Q190.1 74.05 202.1 76.0" fill="#fff5a8" fill-rule="evenodd" stroke="none"/>
      <path d="M211.1 34.6 L207.75 35.25 Q204.4 36.3 204.5 38.4 204.6 40.55 208.0 43.2 L211.4 45.45 Q206.6 43.9 203.5 41.1 201.1 38.95 200.05 38.75 L193.5 39.4 180.6 41.1 Q173.3 41.85 179.7 40.7 L192.65 37.8 202.8 35.05 Q205.95 34.2 208.85 34.3 L211.1 34.6" fill="#fff5a8" fill-rule="evenodd" stroke="none"/>
      <path d="M195.35 54.35 L201.0 54.45 211.55 53.5 214.1 53.3 Q214.3 53.6 212.2 54.1 205.95 55.5 195.35 54.35" fill="#fff5a8" fill-rule="evenodd" stroke="none"/>
      <path d="M177.35 82.65 L180.55 82.9 Q175.9 82.75 174.0 83.8 172.75 84.5 172.1 86.45 171.65 87.8 169.85 88.95 167.15 90.65 169.55 88.7 171.0 87.6 170.8 86.3 170.6 85.1 169.3 84.6 L163.4 85.0 155.5 86.15 146.9 86.85 Q142.1 87.15 146.35 86.6 L170.15 82.9 177.35 82.65" fill="#fff5a8" fill-rule="evenodd" stroke="none"/>
      <path d="M112.6 24.1 Q112.75 23.35 112.55 22.8 112.05 21.6 109.85 22.65 106.35 24.35 94.8 27.15 104.65 24.2 107.9 22.5 111.15 20.8 115.75 19.4 117.45 19.25 117.05 19.4 L115.05 20.1 Q114.0 20.55 113.2 22.4 L112.6 24.1" fill="#fff5a8" fill-rule="evenodd" stroke="none"/>
      <path d="M91.25 31.65 Q86.2 33.1 80.55 33.35 88.9 31.55 92.95 29.85 97.05 28.15 100.7 28.0 97.4 29.15 96.55 30.8 95.8 32.35 96.75 35.2 97.55 37.5 96.6 40.7 96.15 42.35 95.5 43.5 L96.6 39.1 Q96.8 37.3 96.05 35.9 95.6 33.5 95.15 32.5 94.4 30.8 91.25 31.65" fill="#fff5a8" fill-rule="evenodd" stroke="none"/>
      <path d="M93.8 46.05 L91.35 48.7 Q88.0 51.55 83.55 52.8 79.05 54.0 75.9 57.75 74.35 59.65 73.65 61.25 74.3 57.2 77.65 54.15 L79.1 52.75 Q79.4 52.25 78.3 51.95 76.6 51.5 67.45 52.9 L56.35 54.2 Q54.25 53.95 63.95 52.55 L79.85 50.25 Q84.6 49.45 89.7 47.7 L93.8 46.05" fill="#fff5a8" fill-rule="evenodd" stroke="none"/>
      <path d="M59.85 104.2 L54.55 102.65 Q48.55 100.6 45.1 98.15 L39.55 93.8 Q37.45 92.55 33.25 93.35 L19.15 95.6 Q10.25 96.85 15.1 95.75 20.4 94.55 28.75 91.75 37.3 88.85 40.0 87.3 42.3 86.0 47.4 84.75 L52.0 83.75 47.3 85.05 Q42.95 86.8 42.15 90.65 41.35 94.55 50.5 99.75 55.1 102.35 59.85 104.2" fill="#fff5a8" fill-rule="evenodd" stroke="none"/>
      <path d="M60.3 113.35 Q58.45 114.15 58.15 114.55 57.65 115.25 58.9 116.65 60.7 118.7 72.4 126.7 L69.45 125.15 Q60.55 119.25 56.5 118.15 53.95 117.45 50.6 118.6 L41.7 122.05 Q33.7 124.9 25.95 126.55 27.75 125.75 36.9 122.65 41.95 120.95 46.25 118.05 50.45 115.25 52.55 114.6 57.6 113.05 60.3 113.35" fill="#fff5a8" fill-rule="evenodd" stroke="none"/>
      <path d="M128.8 110.5 Q124.5 110.95 119.65 112.55 115.75 113.8 107.3 115.25 98.3 116.75 105.6 115.1 113.8 113.25 122.45 110.4 132.85 106.95 133.3 105.2 133.75 103.6 136.2 102.1 L138.55 100.95 Q135.1 103.8 136.8 106.25 138.3 108.45 143.1 109.35 L162.6 112.3 141.85 110.7 Q134.45 109.85 128.8 110.5" fill="#fff5a8" fill-rule="evenodd" stroke="none"/>
      <path d="M184.5 16.8 Q194.0 20.75 202.55 27.45 205.9 30.05 209.8 32.2 L207.65 31.4 196.6 28.55 Q184.5 25.1 179.4 22.05 173.3 18.35 172.7 16.7 172.1 15.05 176.85 15.55 L184.5 16.8" fill="url(#gradient3)" fill-rule="evenodd" stroke="none"/>
      <path d="M150.15 19.4 Q156.65 18.4 169.7 15.4 171.9 14.9 176.85 15.55 L174.0 15.7 Q171.35 16.05 172.05 16.9 173.25 18.3 180.05 22.55 177.75 21.3 175.0 20.0 169.4 17.5 166.95 17.6 L150.15 19.4" fill="#fff5a8" fill-rule="evenodd" stroke="none"/>
      <path d="M84.0 139.25 L69.0 140.5 Q48.4 141.1 32.9 136.85 17.95 132.75 18.45 127.3 20.0 129.0 22.95 130.65 25.9 132.3 29.45 133.5 37.2 136.2 52.4 138.1 70.2 140.3 84.0 139.25 M129.95 121.8 Q122.75 122.05 107.1 121.65 L133.45 120.9 Q150.8 120.35 163.9 115.25 159.75 117.2 152.85 119.0 143.6 121.35 129.95 121.8 M64.65 111.55 Q57.2 111.05 54.8 111.55 54.2 111.7 50.7 113.0 L43.0 115.75 Q47.05 113.85 46.7 111.8 46.2 108.9 27.25 107.15 6.2 105.15 2.05 102.45 L13.25 101.35 28.75 98.3 35.4 98.1 48.05 104.95 Q59.45 110.95 64.65 111.55 M65.2 67.35 Q71.15 62.55 65.6 59.5 62.0 57.5 53.05 56.2 L62.45 56.05 71.8 55.25 Q74.25 55.05 73.85 56.6 72.45 62.0 65.2 67.35 M82.7 34.95 Q88.4 34.85 85.95 36.6 83.8 38.1 78.2 39.6 83.6 37.4 81.55 37.2 L76.85 36.3 Q73.75 35.5 72.3 34.6 L82.7 34.95" fill="url(#gradient4)" fill-rule="evenodd" stroke="none"/>
    </g>
    <radialGradient cx="0" cy="0" gradientTransform="matrix(0.1188, 0.0, 0.0, -0.1188, 121.45, 75.6)" gradientUnits="userSpaceOnUse" id="gradient0" r="819.2" spreadMethod="pad">
      <stop offset="0.0" stop-color="#ffe893"/>
      <stop offset="1.0" stop-color="#ffd16b"/>
    </radialGradient>
    <radialGradient cx="0" cy="0" gradientTransform="matrix(0.2188, 0.0, 0.0, -0.2188, 78.3, 44.5)" gradientUnits="userSpaceOnUse" id="gradient1" r="819.2" spreadMethod="pad">
      <stop offset="0.0" stop-color="#cf7c30"/>
      <stop offset="1.0" stop-color="#ffd16b"/>
    </radialGradient>
    <radialGradient cx="0" cy="0" gradientTransform="matrix(0.1512, 0.0, 0.0, -0.1512, 36.4, 13.5)" gradientUnits="userSpaceOnUse" id="gradient2" r="819.2" spreadMethod="pad">
      <stop offset="0.0" stop-color="#cf7c30"/>
      <stop offset="1.0" stop-color="#ffd16b"/>
    </radialGradient>
    <radialGradient cx="0" cy="0" gradientTransform="matrix(0.0418, 0.0, 0.0, -0.0418, 176.75, 17.0)" gradientUnits="userSpaceOnUse" id="gradient3" r="819.2" spreadMethod="pad">
      <stop offset="0.0" stop-color="#cf7c30"/>
      <stop offset="1.0" stop-color="#ffd16b"/>
    </radialGradient>
    <radialGradient cx="0" cy="0" gradientTransform="matrix(0.272, 0.0, 0.0, -0.272, 108.75, 156.0)" gradientUnits="userSpaceOnUse" id="gradient4" r="819.2" spreadMethod="pad">
      <stop offset="0.0" stop-color="#cf7c30"/>
      <stop offset="1.0" stop-color="#ffd16b"/>
    </radialGradient>
    <g id="sprite0" transform="matrix(1.0, 0.0, 0.0, 1.0, 0.0, 0.0)">
      <use ffdec:characterId="218" height="108.1" transform="matrix(1.0, 0.0, 0.0, 1.0, 0.0, 0.0)" width="242.85" xlink:href="#shape1"/>
    </g>
    <g id="shape1" transform="matrix(1.0, 0.0, 0.0, 1.0, 0.0, 0.0)">
      <path d="M39.45 76.1 L24.25 74.4 Q1.9 72.3 0.3 68.1 -0.45 66.35 0.65 64.7 0.4 66.55 1.5 68.0 3.1 70.1 7.3 70.95 L27.0 73.65 43.25 75.55 54.65 77.55 51.4 77.55 Q48.15 77.65 48.15 78.25 48.15 79.8 45.85 81.45 46.85 80.45 46.7 79.35 46.35 77.3 39.45 76.1 M52.85 23.75 Q46.4 22.8 48.45 20.15 48.7 21.35 50.4 22.1 52.7 23.15 58.9 24.25 64.95 25.3 67.4 26.5 69.35 27.5 69.3 29.1 69.3 30.6 67.6 32.35 71.4 26.35 52.85 23.75 M99.0 89.1 Q88.75 89.1 88.65 91.9 88.55 94.3 94.9 96.8 97.7 97.9 97.9 99.65 98.15 101.45 95.4 103.2 88.45 107.55 69.0 108.05 48.0 108.65 32.4 104.25 17.3 100.0 18.5 94.5 18.65 93.75 19.05 93.25 18.75 95.0 19.8 96.65 20.8 98.3 22.8 99.35 27.9 102.15 39.2 104.45 52.25 107.15 66.55 107.55 80.25 107.9 88.2 105.7 93.75 104.2 96.15 101.55 97.8 99.8 96.55 98.7 95.9 98.1 90.55 95.45 86.7 93.55 85.45 91.1 L84.95 89.0 90.4 88.75 Q96.75 88.6 101.45 88.8 111.25 89.25 124.65 89.0 143.5 88.6 151.65 86.6 158.85 84.85 162.9 83.25 159.05 84.95 152.85 86.55 142.2 89.3 125.15 89.45 106.45 89.1 99.0 89.1 M83.75 4.2 L82.5 5.25 Q80.7 6.45 78.2 7.15 83.6 4.95 81.55 4.75 77.7 4.3 74.2 3.05 69.85 1.4 71.95 0.0 71.85 1.4 74.2 2.5 77.8 4.2 83.75 4.2 M225.4 37.05 Q228.7 38.45 229.8 39.65 231.15 41.1 230.0 42.7 227.1 46.7 207.35 52.2 188.95 57.3 172.55 59.35 158.45 61.15 156.9 66.45 156.3 68.65 158.35 70.65 160.4 72.65 164.35 73.7 169.0 74.95 169.7 76.9 170.4 78.75 167.25 80.9 169.3 79.35 168.65 77.55 168.0 75.75 163.4 74.35 157.85 72.6 156.6 71.6 153.45 69.15 155.1 66.2 157.15 62.35 166.95 59.85 168.9 59.35 192.95 55.0 210.5 51.85 220.4 47.6 231.1 43.05 230.4 40.65 230.2 39.85 228.5 38.9 L225.85 37.4 225.4 37.05 M240.65 11.8 Q243.1 12.95 242.8 14.0 242.15 16.55 230.95 19.8 223.0 22.1 211.8 24.25 205.95 25.35 204.45 26.25 205.95 24.45 214.8 22.6 L232.0 18.65 Q239.65 16.5 241.35 14.45 242.5 13.05 240.65 11.8" fill="#33170d" fill-rule="evenodd" stroke="none"/>
    </g>
    <g id="sprite1" transform="matrix(1.0, 0.0, 0.0, 1.0, 0.0, 0.0)">
      <use ffdec:characterId="220" height="5.75" transform="matrix(1.0, 0.0, 0.0, 1.0, 0.0, 0.0)" width="17.35" xlink:href="#shape2"/>
    </g>
    <g id="shape2" transform="matrix(1.0, 0.0, 0.0, 1.0, 0.0, 0.0)">
      <path d="M7.0 0.05 L13.25 1.15 Q19.0 2.55 16.7 4.15 13.85 6.1 6.9 5.65 -0.1 5.15 0.0 2.75 0.05 0.7 3.55 0.15 L7.0 0.05" fill="url(#gradient5)" fill-rule="evenodd" stroke="none"/>
    </g>
    <linearGradient gradientTransform="matrix(0.0106, 0.0, 0.0, -0.0106, 8.65, 2.85)" gradientUnits="userSpaceOnUse" id="gradient5" spreadMethod="pad" x1="-819.2" x2="819.2">
      <stop offset="0.0" stop-color="#8d4b1d"/>
      <stop offset="1.0" stop-color="#e4d3c6"/>
    </linearGradient>
    <g id="shape3" transform="matrix(1.0, 0.0, 0.0, 1.0, -69.55, -110.4)">
      <path d="M69.7 118.95 Q71.15 118.65 71.5 116.95 71.7 114.45 72.15 113.05 72.95 110.45 75.2 110.4 77.5 110.35 77.1 114.1 76.85 117.0 75.55 119.65 74.8 121.15 72.3 121.75 L69.9 122.05 Q69.35 120.3 69.7 118.95" fill="url(#gradient6)" fill-rule="evenodd" stroke="none"/>
    </g>
    <radialGradient cx="0" cy="0" gradientTransform="matrix(0.006, 0.0, 0.0, -0.006, 73.4, 116.2)" gradientUnits="userSpaceOnUse" id="gradient6" r="819.2" spreadMethod="pad">
      <stop offset="0.0" stop-color="#a8c03e"/>
      <stop offset="1.0" stop-color="#779801"/>
    </radialGradient>
    <g id="sprite2" transform="matrix(1.0, 0.0, 0.0, 1.0, -0.1, 0.0)">
      <use ffdec:characterId="223" height="10.55" transform="matrix(1.0, 0.0, 0.0, 1.0, 0.1, 0.0)" width="5.9" xlink:href="#shape4"/>
    </g>
    <g id="shape4" transform="matrix(1.0, 0.0, 0.0, 1.0, -0.1, 0.0)">
      <path d="M0.1 10.55 L1.65 10.1 Q3.4 9.4 4.15 7.95 4.95 6.35 5.35 4.2 L5.6 1.2 Q5.5 0.25 5.65 0.05 5.8 -0.2 5.9 0.7 6.3 3.9 5.05 7.35 4.0 10.2 0.1 10.55" fill="#99c254" fill-rule="evenodd" stroke="none"/>
    </g>
    <g id="sprite3" transform="matrix(1.0, 0.0, 0.0, 1.0, 0.0, 0.0)">
      <use ffdec:characterId="225" height="9.6" transform="matrix(1.0, 0.0, 0.0, 0.9948, 0.0, 0.0)" width="4.85" xlink:href="#shape5"/>
    </g>
    <g id="shape5" transform="matrix(1.0, 0.0, 0.0, 1.0, -0.05, 0.0)">
      <path d="M4.9 0.0 L4.35 1.05 Q4.05 1.8 4.05 4.05 4.05 6.45 3.75 7.35 3.25 9.05 0.1 9.6 L0.05 9.6 0.05 9.3 Q2.1 8.6 2.85 7.8 3.45 7.15 3.45 4.95 3.5 2.35 3.75 1.65 4.1 0.7 4.65 0.1 L4.9 0.0" fill="#99c254" fill-rule="evenodd" stroke="none"/>
    </g>
    <g id="sprite4" transform="matrix(1.0, 0.0, 0.0, 1.0, 0.0, 0.0)">
      <use ffdec:characterId="227" height="11.65" transform="matrix(0.9933, 0.0, 0.0, 1.0, 0.0, 0.0)" width="7.5" xlink:href="#shape6"/>
    </g>
    <g id="shape6" transform="matrix(1.0, 0.0, 0.0, 1.0, 0.0, 0.0)">
      <path d="M2.15 4.1 Q2.45 2.3 3.1 1.3 2.55 2.9 2.7 4.9 L2.65 7.15 Q2.15 8.2 0.0 8.6 1.5 8.25 1.85 6.55 L2.15 4.1 M5.65 0.0 Q7.85 0.05 7.45 3.8 7.15 6.7 5.9 9.25 5.15 10.75 2.65 11.35 L0.25 11.65 0.15 11.2 Q3.2 10.65 3.95 9.95 4.75 9.2 5.4 6.9 6.1 4.6 6.2 2.45 6.25 0.8 5.65 0.0" fill="#99c254" fill-rule="evenodd" stroke="none"/>
    </g>
    <g id="shape7" transform="matrix(1.0, 0.0, 0.0, 1.0, -60.25, -103.1)">
      <path d="M74.25 110.55 Q73.6 111.4 73.4 112.3 L73.1 115.55 Q73.0 117.5 72.45 118.3 71.9 119.1 69.6 119.9 L69.6 119.75 Q71.85 118.9 72.5 117.7 72.85 117.05 72.85 114.8 72.85 112.55 73.4 111.35 L73.75 110.75 74.25 110.55 M75.7 110.45 L75.9 110.5 Q76.55 112.4 75.85 115.45 75.25 118.15 74.35 119.4 73.65 120.4 72.65 120.65 L69.7 121.2 69.65 121.0 Q72.5 120.7 73.75 119.45 75.6 117.5 75.85 113.25 L75.7 110.45" fill="#c5e077" fill-rule="evenodd" stroke="none"/>
      <path d="M65.45 103.1 Q68.7 102.9 70.05 106.05 71.2 108.7 70.2 118.85 L69.0 128.45 68.45 129.4 Q67.5 130.3 65.2 130.25 L63.5 130.05 Q61.65 129.7 61.15 128.8 60.45 127.5 60.3 118.95 60.1 109.85 61.1 106.75 62.2 103.35 65.45 103.1" fill="url(#gradient7)" fill-rule="evenodd" stroke="none"/>
    </g>
    <radialGradient cx="0" cy="0" gradientTransform="matrix(0.0125, 0.0, 0.0, -0.0125, 65.45, 116.7)" gradientUnits="userSpaceOnUse" id="gradient7" r="819.2" spreadMethod="pad">
      <stop offset="0.0" stop-color="#a8c03e"/>
      <stop offset="1.0" stop-color="#779801"/>
    </radialGradient>
    <g id="sprite5" transform="matrix(1.0, 0.0, 0.0, 1.0, 0.0, 0.0)">
      <use ffdec:characterId="230" height="26.65" transform="matrix(1.0286, 0.0, 0.0, 0.9981, 0.0, 0.0)" width="1.75" xlink:href="#shape8"/>
    </g>
    <g id="shape8" transform="matrix(1.0, 0.0, 0.0, 1.0, 0.0, 0.0)">
      <path d="M0.15 0.0 Q0.5 0.15 0.85 1.0 1.55 2.65 1.7 6.05 2.0 11.45 0.6 26.35 L0.55 26.5 0.0 26.65 Q1.15 11.45 1.0 7.75 0.85 3.3 0.15 0.0" fill="#99c254" fill-rule="evenodd" stroke="none"/>
    </g>
    <g id="sprite6" transform="matrix(1.0, 0.0, 0.0, 1.0, 0.0, 0.0)">
      <use ffdec:characterId="232" height="27.1" transform="matrix(1.0123, 0.0, 0.0, 1.0018, 0.0, 0.0)" width="4.05" xlink:href="#shape9"/>
    </g>
    <g id="shape9" transform="matrix(1.0, 0.0, 0.0, 1.0, 0.0, 0.0)">
      <path d="M0.05 9.95 Q0.35 5.45 0.55 4.5 1.1 1.85 3.15 0.1 1.2 2.05 0.85 7.5 0.6 11.75 0.95 26.8 L0.45 26.65 Q-0.15 13.95 0.05 9.95 M4.05 0.0 Q3.4 7.5 3.45 10.7 L3.55 27.1 2.9 27.1 Q2.2 12.4 2.6 7.85 2.9 4.1 3.15 2.5 3.5 0.45 4.05 0.0" fill="#99c254" fill-rule="evenodd" stroke="none"/>
    </g>
    <g id="sprite7" transform="matrix(1.0, 0.0, 0.0, 1.0, 0.0, 0.0)">
      <use ffdec:characterId="234" height="26.85" transform="matrix(1.0, 0.0, 0.0, 1.0019, 0.0, 0.0)" width="10.4" xlink:href="#shape10"/>
    </g>
    <g id="shape10" transform="matrix(1.0, 0.0, 0.0, 1.0, 0.0, 0.0)">
      <path d="M8.75 4.9 Q8.75 1.25 6.45 0.0 8.8 0.5 9.75 2.85 10.9 5.5 9.95 15.6 L8.75 25.2 8.45 25.85 Q7.95 26.55 6.8 26.85 7.8 23.4 8.35 15.5 8.75 9.6 8.75 4.9 M0.8 3.55 Q1.3 2.05 2.45 1.05 L1.85 2.5 Q0.9 5.4 0.8 11.6 0.65 17.4 1.25 23.5 L1.65 26.3 0.9 25.55 Q0.25 24.25 0.05 15.7 -0.2 6.65 0.8 3.55" fill="#99c254" fill-rule="evenodd" stroke="none"/>
    </g>
    <g id="shape11" transform="matrix(1.0, 0.0, 0.0, 1.0, -53.0, -103.1)">
      <path d="M66.95 103.3 Q68.6 105.8 68.75 109.35 68.85 113.05 68.35 120.75 L67.7 129.9 67.05 130.1 Q68.6 111.2 67.9 107.2 67.45 104.85 66.6 103.2 L66.95 103.3 M64.85 103.2 L65.2 103.15 Q62.6 105.5 62.3 110.1 62.05 113.65 62.6 129.85 L62.2 129.65 Q61.55 116.25 62.1 108.75 62.45 104.75 64.85 103.2 M64.25 110.7 Q64.45 105.25 65.7 103.1 L66.05 103.1 Q65.45 104.5 65.05 107.8 64.55 111.85 64.8 130.25 L64.25 130.2 Q64.1 115.85 64.25 110.7" fill="#c5e077" fill-rule="evenodd" stroke="none"/>
      <path d="M60.8 121.8 L58.4 121.95 Q55.75 121.65 54.55 119.25 52.9 116.05 53.0 112.85 53.1 109.3 55.4 108.55 57.6 107.9 58.6 110.4 59.45 112.4 59.25 115.0 59.15 117.1 59.35 117.85 59.55 118.7 60.4 118.9 L60.95 119.85 Q61.4 120.95 60.8 121.8" fill="url(#gradient8)" fill-rule="evenodd" stroke="none"/>
    </g>
    <radialGradient cx="0" cy="0" gradientTransform="matrix(0.0068, 0.0, 0.0, -0.0068, 57.1, 115.25)" gradientUnits="userSpaceOnUse" id="gradient8" r="819.2" spreadMethod="pad">
      <stop offset="0.0" stop-color="#a8c03e"/>
      <stop offset="1.0" stop-color="#779801"/>
    </radialGradient>
    <g id="sprite8" transform="matrix(1.0, 0.0, 0.0, 1.0, 0.0, 0.0)">
      <use ffdec:characterId="237" height="10.5" transform="matrix(0.9873, 0.0, 0.0, 1.0048, 0.0, 0.0)" width="3.95" xlink:href="#shape12"/>
    </g>
    <g id="shape12" transform="matrix(1.0, 0.0, 0.0, 1.0, 0.0, 0.0)">
      <path d="M3.5 9.8 L3.95 10.5 Q1.4 9.85 0.5 7.8 -0.15 6.4 0.05 4.45 L0.35 0.0 0.5 2.6 Q0.5 5.3 0.8 6.65 1.1 8.2 2.65 9.25 L3.5 9.8" fill="#99c254" fill-rule="evenodd" stroke="none"/>
    </g>
    <g id="sprite9" transform="matrix(1.0, 0.0, 0.0, 1.0, 0.05, 0.0)">
      <use ffdec:characterId="239" height="12.1" transform="matrix(1.0, 0.0, 0.0, 1.0041, -0.05, 2.0E-4)" width="6.15" xlink:href="#shape13"/>
    </g>
    <g id="shape13" transform="matrix(1.0, 0.0, 0.0, 1.0, 0.05, -0.05)">
      <path d="M0.35 0.05 Q0.85 -0.2 0.85 2.45 0.85 6.05 1.25 7.65 2.0 10.65 6.05 11.85 L6.1 12.15 Q3.7 11.55 2.3 10.25 1.15 9.2 0.4 7.3 -0.45 4.95 0.35 0.05" fill="#99c254" fill-rule="evenodd" stroke="none"/>
    </g>
    <g id="sprite10" transform="matrix(1.0, 0.0, 0.0, 1.0, 0.0, 0.0)">
      <use ffdec:characterId="241" height="13.6" transform="matrix(1.0, 0.0, 0.0, 0.9963, 0.0, 0.0)" width="8.1" xlink:href="#shape14"/>
    </g>
    <g id="shape14" transform="matrix(1.0, 0.0, 0.0, 1.0, 0.0, 0.0)">
      <path d="M0.05 5.55 Q-0.2 2.65 0.95 1.15 0.3 5.55 2.15 9.5 3.15 11.6 5.2 12.4 L8.1 12.75 7.8 13.4 5.4 13.55 Q2.75 13.25 1.55 10.8 0.25 8.35 0.05 5.55 M4.8 3.5 Q4.6 0.9 3.5 0.0 5.1 0.15 5.8 2.5 6.4 4.4 6.25 6.6 6.15 8.65 6.35 9.45 6.55 10.25 7.4 10.45 L7.7 10.9 Q6.8 10.65 6.35 10.2 5.35 9.25 5.15 8.0 L4.8 3.5" fill="#99c254" fill-rule="evenodd" stroke="none"/>
    </g>
    <g id="shape15" transform="matrix(1.0, 0.0, 0.0, 1.0, -53.4, -108.55)">
      <path d="M54.45 109.05 L54.9 108.8 Q53.65 110.75 53.75 114.1 53.9 117.4 55.65 119.6 57.7 122.2 60.95 121.55 L60.8 121.8 59.1 122.05 Q57.1 121.75 55.35 119.7 53.55 117.55 53.4 114.15 53.25 111.0 54.45 109.05 M57.0 108.55 L57.25 108.7 57.65 110.15 57.55 113.15 Q57.55 115.8 58.4 117.05 L59.6 118.4 60.25 118.85 60.45 118.95 60.7 119.3 Q58.65 118.4 57.75 116.75 57.05 115.45 57.2 112.85 L57.25 109.5 57.0 108.55 M55.4 108.55 L55.55 108.55 Q55.3 109.7 55.3 111.95 55.25 115.35 56.2 116.85 58.2 120.1 61.1 120.45 L61.15 120.75 Q58.1 120.25 56.1 117.6 54.95 116.1 54.85 113.25 54.75 111.0 55.25 108.6 L55.4 108.55" fill="#c5e077" fill-rule="evenodd" stroke="none"/>
    </g>
    <g id="sprite11" transform="matrix(1.0, 0.0, 0.0, 1.0, 0.0, 0.05)">
      <use ffdec:characterId="244" height="5.75" transform="matrix(1.0, 0.0, 0.0, 1.0, 0.0, -0.05)" width="17.35" xlink:href="#shape16"/>
    </g>
    <g id="shape16" transform="matrix(1.0, 0.0, 0.0, 1.0, 0.0, 0.05)">
      <path d="M7.0 0.0 L13.25 1.1 Q19.0 2.5 16.7 4.1 13.85 6.05 6.9 5.6 -0.1 5.1 0.0 2.7 0.05 0.65 3.55 0.1 L7.0 0.0" fill="url(#gradient9)" fill-rule="evenodd" stroke="none"/>
    </g>
    <linearGradient gradientTransform="matrix(0.0106, 0.0, 0.0, -0.0106, 8.65, 2.85)" gradientUnits="userSpaceOnUse" id="gradient9" spreadMethod="pad" x1="-819.2" x2="819.2">
      <stop offset="0.0" stop-color="#8d4b1d"/>
      <stop offset="1.0" stop-color="#e4d3c6"/>
    </linearGradient>
    <g id="shape17" transform="matrix(1.0, 0.0, 0.0, 1.0, -223.0, -24.1)">
      <path d="M223.1 32.65 Q224.6 32.35 224.9 30.65 225.15 28.15 225.55 26.75 226.4 24.15 228.6 24.1 230.95 24.05 230.55 27.8 230.3 30.7 229.0 33.35 228.25 34.85 225.75 35.45 L223.35 35.75 Q222.8 34.0 223.1 32.65" fill="url(#gradient10)" fill-rule="evenodd" stroke="none"/>
    </g>
    <radialGradient cx="0" cy="0" gradientTransform="matrix(0.006, 0.0, 0.0, -0.006, 226.8, 29.9)" gradientUnits="userSpaceOnUse" id="gradient10" r="819.2" spreadMethod="pad">
      <stop offset="0.0" stop-color="#a8c03e"/>
      <stop offset="1.0" stop-color="#779801"/>
    </radialGradient>
    <g id="sprite12" transform="matrix(1.0, 0.0, 0.0, 1.0, 0.0, 0.0)">
      <use ffdec:characterId="247" height="10.55" transform="matrix(1.0, 0.0, 0.0, 1.0, 0.0, 0.0)" width="5.95" xlink:href="#shape18"/>
    </g>
    <g id="shape18" transform="matrix(1.0, 0.0, 0.0, 1.0, 0.0, 0.0)">
      <path d="M0.0 10.55 L1.6 10.1 Q3.4 9.4 4.1 7.95 4.9 6.4 5.35 4.25 L5.6 1.25 Q5.5 0.25 5.65 0.05 5.8 -0.2 5.9 0.7 6.2 4.2 5.05 7.4 4.4 9.2 2.25 10.05 L0.0 10.55" fill="#99c254" fill-rule="evenodd" stroke="none"/>
    </g>
    <g id="sprite13" transform="matrix(1.0, 0.0, 0.0, 1.0, 0.0, 0.0)">
      <use ffdec:characterId="249" height="9.55" transform="matrix(0.9898, 0.0, 0.0, 1.0052, 0.0, 0.0)" width="4.9" xlink:href="#shape19"/>
    </g>
    <g id="shape19" transform="matrix(1.0, 0.0, 0.0, 1.0, 0.0, 0.0)">
      <path d="M4.9 0.0 L4.35 1.05 Q4.0 1.8 4.05 4.05 4.05 6.4 3.75 7.35 3.45 8.4 1.95 9.05 0.95 9.5 0.05 9.55 L0.0 9.55 0.05 9.3 Q2.25 8.45 2.85 7.8 3.45 7.15 3.45 4.95 3.5 2.35 3.75 1.65 4.05 0.75 4.6 0.05 L4.9 0.0" fill="#99c254" fill-rule="evenodd" stroke="none"/>
    </g>
    <g id="sprite14" transform="matrix(1.0, 0.0, 0.0, 1.0, 0.0, 0.0)">
      <use ffdec:characterId="227" height="11.65" transform="matrix(1.0, 0.0, 0.0, 1.0, 0.0, 0.0)" width="7.5" xlink:href="#shape6"/>
    </g>
    <g id="shape20" transform="matrix(1.0, 0.0, 0.0, 1.0, -24.0, -69.95)">
      <path d="M33.45 88.0 L33.4 87.8 Q36.1 87.65 37.5 86.25 39.2 84.5 39.6 80.1 L39.45 77.25 39.65 77.3 Q40.3 79.25 39.6 82.25 39.0 84.95 38.1 86.2 37.45 87.2 36.4 87.5 L33.45 88.0 M33.35 86.7 L33.35 86.55 Q35.6 85.7 36.2 84.5 36.55 83.8 36.6 81.6 36.6 79.35 37.15 78.15 L37.5 77.55 38.0 77.35 Q37.35 78.2 37.15 79.15 L36.85 82.35 Q36.75 84.3 36.2 85.1 35.65 85.9 33.35 86.7" fill="#c5e077" fill-rule="evenodd" stroke="none"/>
      <path d="M33.95 85.65 L32.75 95.25 32.2 96.2 Q31.2 97.1 28.95 97.05 25.7 97.05 24.9 95.6 24.2 94.3 24.05 85.75 23.85 76.7 24.85 73.55 25.95 70.15 29.2 69.95 32.4 69.7 33.8 72.9 34.95 75.55 33.95 85.65" fill="url(#gradient11)" fill-rule="evenodd" stroke="none"/>
    </g>
    <radialGradient cx="0" cy="0" gradientTransform="matrix(0.0125, 0.0, 0.0, -0.0125, 29.2, 83.5)" gradientUnits="userSpaceOnUse" id="gradient11" r="819.2" spreadMethod="pad">
      <stop offset="0.0" stop-color="#a8c03e"/>
      <stop offset="1.0" stop-color="#779801"/>
    </radialGradient>
    <g id="sprite15" transform="matrix(1.0, 0.0, 0.0, 1.0, 0.0, 0.0)">
      <use ffdec:characterId="230" height="26.65" transform="matrix(1.0286, 0.0, 0.0, 1.0, 0.0, 0.0)" width="1.75" xlink:href="#shape8"/>
    </g>
    <g id="sprite16" transform="matrix(1.0, 0.0, 0.0, 1.0, 0.0, 0.0)">
      <use ffdec:characterId="232" height="27.1" transform="matrix(1.0, 0.0, 0.0, 1.0, 0.0, 0.0)" width="4.05" xlink:href="#shape9"/>
    </g>
    <g id="sprite17" transform="matrix(1.0, 0.0, 0.0, 1.0, 0.0, 0.0)">
      <use ffdec:characterId="234" height="26.85" transform="matrix(1.0, 0.0, 0.0, 1.0, 0.0, 0.0)" width="10.4" xlink:href="#shape10"/>
    </g>
    <g id="shape21" transform="matrix(1.0, 0.0, 0.0, 1.0, -16.75, -69.95)">
      <path d="M28.95 69.95 Q26.35 72.3 26.05 76.95 25.8 80.5 26.35 96.65 L25.95 96.5 Q25.65 90.65 25.65 84.5 25.6 78.6 25.85 75.55 26.2 71.55 28.6 70.0 L28.95 69.95 M30.35 70.0 L30.7 70.1 Q32.35 72.6 32.5 76.15 32.6 79.85 32.1 87.55 L31.45 96.7 30.8 96.9 Q32.35 78.0 31.65 74.0 31.25 71.75 30.35 70.0 M29.45 69.95 L29.75 69.95 Q29.2 71.35 28.8 74.6 28.5 77.05 28.5 97.05 L28.0 97.0 Q27.8 85.65 28.0 77.55 28.2 72.0 29.45 69.95" fill="#c5e077" fill-rule="evenodd" stroke="none"/>
      <path d="M22.35 77.2 Q23.2 79.2 23.0 81.85 22.9 83.9 23.1 84.7 23.3 85.5 24.15 85.7 L24.7 86.65 Q25.15 87.8 24.55 88.65 L22.15 88.8 Q19.5 88.5 18.3 86.05 16.65 82.9 16.75 79.65 16.85 76.1 19.15 75.4 21.35 74.7 22.35 77.2" fill="url(#gradient12)" fill-rule="evenodd" stroke="none"/>
    </g>
    <radialGradient cx="0" cy="0" gradientTransform="matrix(0.0068, 0.0, 0.0, -0.0068, 20.8, 82.05)" gradientUnits="userSpaceOnUse" id="gradient12" r="819.2" spreadMethod="pad">
      <stop offset="0.0" stop-color="#a8c03e"/>
      <stop offset="1.0" stop-color="#779801"/>
    </radialGradient>
    <g id="sprite18" transform="matrix(1.0, 0.0, 0.0, 1.0, -0.05, 0.0)">
      <use ffdec:characterId="237" height="10.5" transform="matrix(0.9873, 0.0, 0.0, 1.0, 0.05, 0.0)" width="3.95" xlink:href="#shape12"/>
    </g>
    <g id="sprite19" transform="matrix(1.0, 0.0, 0.0, 1.0, 0.05, -0.05)">
      <use ffdec:characterId="258" height="12.1" transform="matrix(1.0, 0.0, 0.0, 1.0, -0.05, 0.05)" width="6.15" xlink:href="#shape22"/>
    </g>
    <g id="shape22" transform="matrix(1.0, 0.0, 0.0, 1.0, 0.05, -0.05)">
      <path d="M0.35 0.05 Q0.9 -0.2 0.9 2.45 0.9 6.15 1.25 7.65 1.7 9.4 3.55 10.65 4.7 11.45 6.05 11.85 L6.1 12.15 Q3.7 11.55 2.3 10.25 1.15 9.15 0.45 7.3 -0.45 4.95 0.35 0.05" fill="#99c254" fill-rule="evenodd" stroke="none"/>
    </g>
    <g id="sprite20" transform="matrix(1.0, 0.0, 0.0, 1.0, 0.0, 0.0)">
      <use ffdec:characterId="241" height="13.6" transform="matrix(1.0, 0.0, 0.0, 1.0, 0.0, 0.0)" width="8.1" xlink:href="#shape14"/>
    </g>
    <g id="shape23" transform="matrix(1.0, 0.0, 0.0, 1.0, -17.15, -75.35)">
      <path d="M19.0 75.45 L19.3 75.35 19.0 78.75 Q18.95 82.15 19.95 83.65 21.95 86.85 24.85 87.3 L24.9 87.55 Q22.0 87.25 19.85 84.4 18.7 82.95 18.6 80.1 18.5 77.85 19.0 75.45 M21.0 76.3 L20.75 75.4 21.0 75.5 21.4 76.95 21.3 79.95 Q21.3 82.6 22.15 83.85 L23.35 85.2 24.0 85.65 24.2 85.75 24.45 86.1 Q22.4 85.2 21.5 83.55 20.8 82.25 20.95 79.65 L21.0 76.3 M18.2 75.9 L18.6 75.6 Q17.35 77.75 17.5 80.9 17.65 84.2 19.4 86.45 21.45 89.05 24.7 88.35 L24.55 88.65 22.85 88.85 Q20.85 88.55 19.05 86.5 17.3 84.35 17.15 80.95 17.0 77.8 18.2 75.9" fill="#c5e077" fill-rule="evenodd" stroke="none"/>
    </g>
    <g id="sprite21" transform="matrix(1.0, 0.0, 0.0, 1.0, 0.0, 0.0)">
      <use ffdec:characterId="262" height="5.75" transform="matrix(1.0, 0.0, 0.0, 1.0, 0.0, 0.0)" width="17.4" xlink:href="#shape24"/>
    </g>
    <g id="shape24" transform="matrix(1.0, 0.0, 0.0, 1.0, 0.0, 0.0)">
      <path d="M7.05 0.05 L13.3 1.15 Q19.05 2.55 16.75 4.15 13.9 6.1 6.95 5.65 -0.05 5.15 0.0 2.75 0.1 0.7 3.6 0.15 L7.05 0.05" fill="url(#gradient13)" fill-rule="evenodd" stroke="none"/>
    </g>
    <linearGradient gradientTransform="matrix(0.0106, 0.0, 0.0, -0.0106, 8.7, 2.85)" gradientUnits="userSpaceOnUse" id="gradient13" spreadMethod="pad" x1="-819.2" x2="819.2">
      <stop offset="0.0" stop-color="#8d4b1d"/>
      <stop offset="1.0" stop-color="#e4d3c6"/>
    </linearGradient>
    <g id="sprite22" transform="matrix(1.0, 0.0, 0.0, 1.0, 0.0, 0.0)">
      <use ffdec:characterId="247" height="10.55" transform="matrix(1.0, 0.0, 0.0, 1.0, 0.0, 0.0)" width="5.95" xlink:href="#shape18"/>
    </g>
    <g id="sprite23" transform="matrix(1.0, 0.0, 0.0, 1.0, 0.0, 0.0)">
      <use ffdec:characterId="249" height="9.55" transform="matrix(1.0, 0.0, 0.0, 1.0, 0.0, 0.0)" width="4.9" xlink:href="#shape19"/>
    </g>
    <g id="sprite24" transform="matrix(1.0, 0.0, 0.0, 1.0, 0.0, 0.0)">
      <use ffdec:characterId="227" height="11.65" transform="matrix(1.0, 0.0, 0.0, 1.0, 0.0, 0.0)" width="7.5" xlink:href="#shape6"/>
    </g>
    <g id="shape25" transform="matrix(1.0, 0.0, 0.0, 1.0, -124.05, 0.0)">
      <path d="M137.25 8.2 L137.55 7.6 138.1 7.4 Q137.4 8.2 137.2 9.2 L136.9 12.4 Q136.8 14.35 136.25 15.15 135.65 16.0 133.4 16.75 L133.4 16.6 Q135.7 15.75 136.3 14.55 136.65 13.9 136.65 11.65 136.65 9.4 137.25 8.2 M139.55 7.3 L139.7 7.35 Q140.45 9.15 139.7 12.3 138.65 16.9 136.5 17.55 L133.55 18.05 133.5 17.85 Q136.2 17.7 137.55 16.3 139.3 14.55 139.7 10.15 L139.55 7.3" fill="#c5e077" fill-rule="evenodd" stroke="none"/>
      <path d="M124.9 3.6 Q126.0 0.2 129.25 0.0 132.5 -0.25 133.85 2.95 135.0 5.6 134.05 15.7 L132.85 25.3 132.3 26.25 Q131.3 27.15 129.05 27.1 L127.3 26.9 Q125.45 26.55 125.0 25.65 124.3 24.4 124.1 15.8 123.9 6.75 124.9 3.6" fill="url(#gradient14)" fill-rule="evenodd" stroke="none"/>
    </g>
    <radialGradient cx="0" cy="0" gradientTransform="matrix(0.0125, 0.0, 0.0, -0.0125, 129.25, 13.55)" gradientUnits="userSpaceOnUse" id="gradient14" r="819.2" spreadMethod="pad">
      <stop offset="0.0" stop-color="#a8c03e"/>
      <stop offset="1.0" stop-color="#779801"/>
    </radialGradient>
    <g id="sprite25" transform="matrix(1.0, 0.0, 0.0, 1.0, 0.0, 0.0)">
      <use ffdec:characterId="268" height="26.65" transform="matrix(1.0, 0.0, 0.0, 1.0, 0.0, 0.0)" width="1.8" xlink:href="#shape26"/>
    </g>
    <g id="shape26" transform="matrix(1.0, 0.0, 0.0, 1.0, 0.0, 0.0)">
      <path d="M0.15 0.0 Q0.5 0.15 0.85 1.0 1.6 2.65 1.75 6.0 2.0 11.45 0.65 26.35 L0.6 26.5 0.0 26.65 Q1.25 12.45 1.05 7.75 0.85 3.25 0.15 0.0" fill="#99c254" fill-rule="evenodd" stroke="none"/>
    </g>
    <g id="sprite26" transform="matrix(1.0, 0.0, 0.0, 1.0, 0.0, 0.0)">
      <use ffdec:characterId="270" height="27.1" transform="matrix(1.0, 0.0, 0.0, 1.0, 0.0, 0.0)" width="4.05" xlink:href="#shape27"/>
    </g>
    <g id="shape27" transform="matrix(1.0, 0.0, 0.0, 1.0, 0.0, 0.0)">
      <path d="M0.05 9.95 Q0.25 5.6 0.5 4.5 1.1 1.85 3.1 0.1 1.2 2.0 0.85 7.5 0.5 13.55 0.95 26.8 L0.45 26.65 Q-0.15 13.95 0.05 9.95 M4.05 0.0 Q3.35 7.45 3.45 10.7 L3.55 27.1 2.85 27.1 2.55 18.2 Q2.35 10.4 2.55 7.85 3.1 0.75 4.05 0.0" fill="#99c254" fill-rule="evenodd" stroke="none"/>
    </g>
    <g id="sprite27" transform="matrix(1.0, 0.0, 0.0, 1.0, 0.05, 0.0)">
      <use ffdec:characterId="272" height="26.85" transform="matrix(1.0048, 0.0, 0.0, 1.0, -0.05, 0.0)" width="10.4" xlink:href="#shape28"/>
    </g>
    <g id="shape28" transform="matrix(1.0, 0.0, 0.0, 1.0, 0.0, 0.0)">
      <path d="M0.8 3.5 Q1.3 2.0 2.45 1.0 L1.85 2.5 Q0.9 5.4 0.8 11.6 0.65 17.4 1.25 23.5 L1.65 26.25 0.9 25.55 Q0.25 24.25 0.05 15.7 -0.2 6.65 0.8 3.5 M8.75 4.9 Q8.75 1.25 6.45 0.0 8.85 0.5 9.75 2.85 10.9 5.5 9.95 15.6 L8.75 25.2 Q8.6 26.4 6.8 26.85 7.8 23.4 8.35 15.5 8.75 9.6 8.75 4.9" fill="#99c254" fill-rule="evenodd" stroke="none"/>
    </g>
    <g id="shape29" transform="matrix(1.0, 0.0, 0.0, 1.0, -116.85, 0.0)">
      <path d="M130.45 0.05 L130.75 0.15 Q132.5 2.6 132.55 6.2 132.7 12.85 131.5 26.75 L130.85 26.95 Q132.5 8.6 131.7 4.05 131.4 2.15 130.45 0.05 M129.5 0.0 L129.85 0.0 Q129.25 1.55 128.85 4.65 128.6 6.95 128.6 27.1 L128.1 27.05 Q127.9 15.7 128.1 7.6 128.25 2.25 129.5 0.0 M128.65 0.05 L129.0 0.0 Q126.45 2.3 126.1 6.95 125.9 9.65 126.1 17.3 L126.45 26.7 126.0 26.55 Q125.7 20.8 125.7 14.55 125.7 8.75 125.95 5.6 126.2 1.6 128.65 0.05" fill="#c5e077" fill-rule="evenodd" stroke="none"/>
      <path d="M119.25 5.4 Q121.4 4.75 122.45 7.25 123.25 9.25 123.1 11.9 123.0 13.95 123.2 14.75 123.4 15.55 124.2 15.75 L124.8 16.7 Q125.25 17.85 124.65 18.7 L122.25 18.85 Q119.6 18.5 118.35 16.1 116.75 12.9 116.85 9.7 116.95 6.15 119.25 5.4" fill="url(#gradient15)" fill-rule="evenodd" stroke="none"/>
    </g>
    <radialGradient cx="0" cy="0" gradientTransform="matrix(0.0068, 0.0, 0.0, -0.0068, 120.9, 12.1)" gradientUnits="userSpaceOnUse" id="gradient15" r="819.2" spreadMethod="pad">
      <stop offset="0.0" stop-color="#a8c03e"/>
      <stop offset="1.0" stop-color="#779801"/>
    </radialGradient>
    <g id="sprite28" transform="matrix(1.0, 0.0, 0.0, 1.0, 0.0, 0.0)">
      <use ffdec:characterId="237" height="10.5" transform="matrix(0.9873, 0.0, 0.0, 1.0, 0.0, 0.0)" width="3.95" xlink:href="#shape12"/>
    </g>
    <g id="sprite29" transform="matrix(1.0, 0.0, 0.0, 1.0, 0.05, 0.0)">
      <use ffdec:characterId="239" height="12.1" transform="matrix(0.9919, 0.0, 0.0, 1.0041, -0.0496, 2.0E-4)" width="6.15" xlink:href="#shape13"/>
    </g>
    <g id="sprite30" transform="matrix(1.0, 0.0, 0.0, 1.0, 0.0, 0.0)">
      <use ffdec:characterId="241" height="13.6" transform="matrix(1.0, 0.0, 0.0, 1.0, 0.0, 0.0)" width="8.1" xlink:href="#shape14"/>
    </g>
    <g id="shape30" transform="matrix(1.0, 0.0, 0.0, 1.0, -117.25, -5.4)">
      <path d="M118.3 5.95 L118.7 5.65 Q117.45 7.8 117.55 10.95 117.75 14.25 119.45 16.5 121.55 19.1 124.8 18.4 L124.65 18.7 122.95 18.9 Q120.9 18.6 119.15 16.55 117.4 14.4 117.25 11.0 117.1 7.85 118.3 5.95 M119.35 5.4 L119.1 8.8 Q119.05 12.2 120.0 13.7 122.1 16.9 124.95 17.35 L125.0 17.6 Q122.0 17.15 119.9 14.45 118.8 13.0 118.7 10.15 118.6 7.85 119.1 5.5 L119.25 5.4 119.35 5.4 M121.05 9.7 L121.1 6.35 120.85 5.4 121.1 5.55 121.45 7.0 121.35 10.0 Q121.35 12.65 122.2 13.9 L123.45 15.25 124.1 15.7 124.25 15.8 124.5 16.15 Q122.55 15.3 121.6 13.6 120.9 12.3 121.05 9.7" fill="#c5e077" fill-rule="evenodd" stroke="none"/>
    </g>
    <g id="sprite31" transform="matrix(1.0, 0.0, 0.0, 1.0, 0.0, 0.0)">
      <use ffdec:characterId="262" height="5.75" transform="matrix(1.0, 0.0, 0.0, 1.0, 0.0, 0.0)" width="17.4" xlink:href="#shape24"/>
    </g>
    <g id="sprite32" transform="matrix(1.0, 0.0, 0.0, 1.0, 0.0, 0.0)">
      <use ffdec:characterId="247" height="10.55" transform="matrix(1.0, 0.0, 0.0, 1.0, 0.0, 0.0)" width="5.95" xlink:href="#shape18"/>
    </g>
    <g id="sprite33" transform="matrix(1.0, 0.0, 0.0, 1.0, 0.0, 0.0)">
      <use ffdec:characterId="249" height="9.55" transform="matrix(1.0, 0.0, 0.0, 1.0, 0.0, 0.0)" width="4.9" xlink:href="#shape19"/>
    </g>
    <g id="sprite34" transform="matrix(1.0, 0.0, 0.0, 1.0, 0.0, 0.0)">
      <use ffdec:characterId="227" height="11.65" transform="matrix(1.0, 0.0, 0.0, 1.0, 0.0, 0.0)" width="7.5" xlink:href="#shape6"/>
    </g>
    <g id="shape31" transform="matrix(1.0, 0.0, 0.0, 1.0, -213.7, -16.85)">
      <path d="M229.3 27.0 L229.15 24.15 229.35 24.2 Q230.0 26.15 229.3 29.15 228.25 33.75 226.1 34.4 L223.15 34.9 223.1 34.7 Q225.8 34.55 227.2 33.15 228.9 31.4 229.3 27.0 M226.85 25.05 L227.2 24.45 227.7 24.25 Q227.05 25.05 226.8 26.05 L226.5 29.25 Q226.4 31.2 225.85 32.0 225.35 32.8 223.0 33.6 L223.05 33.45 Q225.35 32.55 225.9 31.4 226.25 30.7 226.3 28.5 226.3 26.25 226.85 25.05" fill="#c5e077" fill-rule="evenodd" stroke="none"/>
      <path d="M223.65 32.55 L222.45 42.15 221.9 43.1 Q220.9 44.0 218.65 43.95 215.4 43.95 214.6 42.5 213.95 41.2 213.75 32.65 213.5 23.6 214.5 20.45 215.6 17.05 218.85 16.85 222.1 16.6 223.45 19.8 224.6 22.45 223.65 32.55" fill="url(#gradient16)" fill-rule="evenodd" stroke="none"/>
    </g>
    <radialGradient cx="0" cy="0" gradientTransform="matrix(0.0125, 0.0, 0.0, -0.0125, 218.9, 30.4)" gradientUnits="userSpaceOnUse" id="gradient16" r="819.2" spreadMethod="pad">
      <stop offset="0.0" stop-color="#a8c03e"/>
      <stop offset="1.0" stop-color="#779801"/>
    </radialGradient>
    <g id="sprite35" transform="matrix(1.0, 0.0, 0.0, 1.0, 0.0, 0.0)">
      <use ffdec:characterId="230" height="26.65" transform="matrix(1.0, 0.0, 0.0, 1.0, 0.0, 0.0)" width="1.75" xlink:href="#shape8"/>
    </g>
    <g id="sprite36" transform="matrix(1.0, 0.0, 0.0, 1.0, 0.0, 0.0)">
      <use ffdec:characterId="285" height="27.1" transform="matrix(1.0, 0.0, 0.0, 1.0, 0.0, 0.0)" width="4.05" xlink:href="#shape32"/>
    </g>
    <g id="shape32" transform="matrix(1.0, 0.0, 0.0, 1.0, 0.0, 0.0)">
      <path d="M0.05 9.95 Q0.25 5.65 0.5 4.5 1.1 1.85 3.15 0.1 1.2 2.05 0.85 7.5 0.5 13.55 0.95 26.8 L0.45 26.65 Q-0.15 13.95 0.05 9.95 M2.6 7.85 Q2.9 4.1 3.15 2.5 3.5 0.45 4.05 0.0 3.35 7.45 3.45 10.7 L3.55 27.1 2.85 27.1 2.6 18.2 Q2.4 10.35 2.6 7.85" fill="#99c254" fill-rule="evenodd" stroke="none"/>
    </g>
    <g id="sprite37" transform="matrix(1.0, 0.0, 0.0, 1.0, 0.0, 0.0)">
      <use ffdec:characterId="272" height="26.85" transform="matrix(1.0, 0.0, 0.0, 1.0, 0.0, 0.0)" width="10.4" xlink:href="#shape28"/>
    </g>
    <g id="shape33" transform="matrix(1.0, 0.0, 0.0, 1.0, -206.45, -16.85)">
      <path d="M221.3 20.9 Q221.0 19.0 220.05 16.9 L220.35 17.0 Q222.05 19.45 222.2 23.05 222.35 29.25 221.1 43.6 L220.5 43.8 Q222.05 25.1 221.3 20.9 M218.3 16.9 L218.6 16.85 Q216.05 19.2 215.7 23.8 215.5 26.5 215.7 34.15 L216.05 43.55 215.65 43.4 Q215.35 37.7 215.3 31.4 215.3 25.6 215.55 22.45 215.9 18.45 218.3 16.9 M217.7 24.45 Q217.85 19.0 219.15 16.85 L219.45 16.85 Q218.75 18.5 218.5 21.5 218.2 23.95 218.2 43.95 L217.7 43.9 Q217.5 32.55 217.7 24.45" fill="#c5e077" fill-rule="evenodd" stroke="none"/>
      <path d="M212.05 24.1 Q212.9 26.1 212.7 28.75 212.6 30.8 212.8 31.6 213.0 32.4 213.85 32.6 L214.4 33.55 Q214.85 34.7 214.25 35.55 L211.85 35.7 Q209.2 35.35 208.0 32.95 206.35 29.75 206.45 26.55 206.55 23.0 208.85 22.25 211.05 21.6 212.05 24.1" fill="url(#gradient17)" fill-rule="evenodd" stroke="none"/>
    </g>
    <radialGradient cx="0" cy="0" gradientTransform="matrix(0.0068, 0.0, 0.0, -0.0068, 210.5, 28.95)" gradientUnits="userSpaceOnUse" id="gradient17" r="819.2" spreadMethod="pad">
      <stop offset="0.0" stop-color="#a8c03e"/>
      <stop offset="1.0" stop-color="#779801"/>
    </radialGradient>
    <g id="sprite38" transform="matrix(1.0, 0.0, 0.0, 1.0, 0.0, 0.0)">
      <use ffdec:characterId="237" height="10.5" transform="matrix(1.0, 0.0, 0.0, 1.0, 0.0, 0.0)" width="3.95" xlink:href="#shape12"/>
    </g>
    <g id="sprite39" transform="matrix(1.0, 0.0, 0.0, 1.0, 0.05, 0.0)">
      <use ffdec:characterId="239" height="12.1" transform="matrix(1.0, 0.0, 0.0, 1.0041, -0.05, 2.0E-4)" width="6.15" xlink:href="#shape13"/>
    </g>
    <g id="sprite40" transform="matrix(1.0, 0.0, 0.0, 1.0, 0.0, 0.0)">
      <use ffdec:characterId="241" height="13.6" transform="matrix(1.0, 0.0, 0.0, 1.0, 0.0, 0.0)" width="8.1" xlink:href="#shape14"/>
    </g>
    <g id="shape34" transform="matrix(1.0, 0.0, 0.0, 1.0, -206.85, -22.25)">
      <path d="M207.9 22.8 L208.3 22.5 Q207.05 24.65 207.2 27.8 207.35 31.1 209.1 33.35 211.15 35.95 214.4 35.25 L214.25 35.55 212.55 35.75 Q210.5 35.45 208.75 33.4 207.0 31.25 206.85 27.85 206.7 24.7 207.9 22.8 M208.7 22.35 L208.85 22.25 209.0 22.25 208.7 25.65 Q208.65 29.05 209.6 30.55 211.7 33.75 214.55 34.2 L214.6 34.45 Q211.55 33.95 209.55 31.3 208.4 29.85 208.3 27.0 208.2 24.75 208.7 22.35 M210.45 22.3 L210.7 22.4 211.05 23.85 211.0 26.85 Q211.0 29.5 211.85 30.75 212.3 31.5 213.05 32.1 L213.7 32.55 213.85 32.65 214.1 33.0 Q212.15 32.15 211.2 30.45 210.5 29.15 210.65 26.55 L210.7 23.2 210.45 22.3" fill="#c5e077" fill-rule="evenodd" stroke="none"/>
    </g>
    <g id="sprite41" transform="matrix(1.0, 0.0, 0.0, 1.0, 0.0, 0.0)">
      <use ffdec:characterId="293" height="5.7" transform="matrix(1.0, 0.0, 0.0, 1.0, 0.0, 0.0)" width="17.4" xlink:href="#shape35"/>
    </g>
    <g id="shape35" transform="matrix(1.0, 0.0, 0.0, 1.0, 0.0, 0.0)">
      <path d="M7.05 0.05 L13.3 1.1 Q19.05 2.5 16.75 4.1 13.9 6.1 6.95 5.6 -0.05 5.15 0.0 2.7 0.1 0.65 3.6 0.15 L7.05 0.05" fill="url(#gradient18)" fill-rule="evenodd" stroke="none"/>
    </g>
    <linearGradient gradientTransform="matrix(0.0106, 0.0, 0.0, -0.0106, 8.7, 2.85)" gradientUnits="userSpaceOnUse" id="gradient18" spreadMethod="pad" x1="-819.2" x2="819.2">
      <stop offset="0.0" stop-color="#8d4b1d"/>
      <stop offset="1.0" stop-color="#e4d3c6"/>
    </linearGradient>
    <g id="shape36" transform="matrix(1.0, 0.0, 0.0, 1.0, -196.7, -58.55)">
      <path d="M196.8 67.15 Q198.3 66.8 198.65 65.1 198.85 62.65 199.3 61.2 200.1 58.6 202.35 58.55 204.65 58.5 204.25 62.25 204.0 65.15 202.7 67.8 201.95 69.3 199.45 69.9 L197.05 70.2 Q196.5 68.5 196.8 67.15" fill="url(#gradient19)" fill-rule="evenodd" stroke="none"/>
    </g>
    <radialGradient cx="0" cy="0" gradientTransform="matrix(0.006, 0.0, 0.0, -0.006, 200.5, 64.4)" gradientUnits="userSpaceOnUse" id="gradient19" r="819.2" spreadMethod="pad">
      <stop offset="0.0" stop-color="#a8c03e"/>
      <stop offset="1.0" stop-color="#779801"/>
    </radialGradient>
    <g id="sprite42" transform="matrix(1.0, 0.0, 0.0, 1.0, 0.0, 0.0)">
      <use ffdec:characterId="247" height="10.55" transform="matrix(1.0, 0.0, 0.0, 1.0, 0.0, 0.0)" width="5.95" xlink:href="#shape18"/>
    </g>
    <g id="sprite43" transform="matrix(1.0, 0.0, 0.0, 1.0, -0.05, 0.0)">
      <use ffdec:characterId="225" height="9.6" transform="matrix(1.0, 0.0, 0.0, 1.0, 0.05, 0.0)" width="4.85" xlink:href="#shape5"/>
    </g>
    <g id="sprite44" transform="matrix(1.0, 0.0, 0.0, 1.0, 0.0, 0.0)">
      <use ffdec:characterId="227" height="11.65" transform="matrix(1.0, 0.0, 0.0, 1.0, 0.0, 0.0)" width="7.5" xlink:href="#shape6"/>
    </g>
    <g id="shape37" transform="matrix(1.0, 0.0, 0.0, 1.0, -187.4, -51.3)">
      <path d="M203.0 61.45 L202.85 58.6 203.05 58.7 Q203.7 60.6 203.0 63.6 201.95 68.3 199.8 68.85 L196.85 69.35 196.8 69.2 Q199.65 68.9 200.9 67.65 202.6 65.85 203.0 61.45 M200.5 60.5 L200.2 63.7 Q200.1 65.65 199.55 66.45 199.05 67.25 196.75 68.05 L196.75 67.9 Q199.0 67.05 199.6 65.85 199.95 65.2 200.0 63.0 200.0 60.7 200.55 59.5 L200.9 58.95 201.4 58.7 200.5 60.5" fill="#c5e077" fill-rule="evenodd" stroke="none"/>
      <path d="M192.55 51.3 Q195.8 51.05 197.15 54.25 198.3 56.9 197.35 67.0 L196.15 76.6 195.6 77.55 Q194.6 78.5 192.35 78.45 L190.65 78.25 Q188.8 77.9 188.3 76.95 187.65 75.65 187.45 67.1 187.2 58.05 188.2 54.95 189.3 51.5 192.55 51.3" fill="url(#gradient20)" fill-rule="evenodd" stroke="none"/>
    </g>
    <radialGradient cx="0" cy="0" gradientTransform="matrix(0.0125, 0.0, 0.0, -0.0125, 192.6, 64.85)" gradientUnits="userSpaceOnUse" id="gradient20" r="819.2" spreadMethod="pad">
      <stop offset="0.0" stop-color="#a8c03e"/>
      <stop offset="1.0" stop-color="#779801"/>
    </radialGradient>
    <g id="sprite45" transform="matrix(1.0, 0.0, 0.0, 1.0, 0.0, 0.0)">
      <use ffdec:characterId="230" height="26.65" transform="matrix(1.0, 0.0, 0.0, 1.0, 0.0, 0.0)" width="1.75" xlink:href="#shape8"/>
    </g>
    <g id="sprite46" transform="matrix(1.0, 0.0, 0.0, 1.0, 0.0, 0.0)">
      <use ffdec:characterId="301" height="27.15" transform="matrix(1.0, 0.0, 0.0, 1.0, 0.0, 0.0)" width="4.05" xlink:href="#shape38"/>
    </g>
    <g id="shape38" transform="matrix(1.0, 0.0, 0.0, 1.0, 0.0, 0.0)">
      <path d="M0.05 9.95 Q0.35 5.45 0.55 4.55 1.1 1.85 3.15 0.15 1.2 2.1 0.85 7.55 0.6 11.8 0.95 26.8 L0.45 26.65 Q-0.15 14.0 0.05 9.95 M4.05 0.0 Q3.35 7.5 3.45 10.7 L3.55 27.15 3.25 27.15 2.9 27.1 Q2.2 12.4 2.6 7.85 2.9 4.1 3.15 2.55 3.5 0.5 4.05 0.0" fill="#99c254" fill-rule="evenodd" stroke="none"/>
    </g>
    <g id="sprite47" transform="matrix(1.0, 0.0, 0.0, 1.0, 0.0, 0.0)">
      <use ffdec:characterId="234" height="26.85" transform="matrix(1.0, 0.0, 0.0, 1.0, 0.0, 0.0)" width="10.4" xlink:href="#shape10"/>
    </g>
    <g id="shape39" transform="matrix(1.0, 0.0, 0.0, 1.0, -180.15, -51.3)">
      <path d="M193.75 51.35 L194.1 51.45 Q195.75 54.05 195.9 57.5 196.05 63.7 194.8 78.05 L194.2 78.25 Q195.75 59.35 195.0 55.35 194.7 53.45 193.75 51.35 M193.15 51.3 Q192.5 53.0 192.2 55.95 191.9 58.4 191.9 78.4 L191.4 78.35 Q191.2 67.0 191.4 58.9 191.55 53.45 192.85 51.3 L193.15 51.3 M192.0 51.4 L192.3 51.35 Q189.75 53.75 189.45 58.3 189.15 61.55 189.75 78.0 L189.35 77.85 Q189.05 72.15 189.0 65.85 189.0 60.05 189.25 56.9 189.6 52.8 192.0 51.4" fill="#c5e077" fill-rule="evenodd" stroke="none"/>
      <path d="M182.55 56.75 Q184.75 56.05 185.75 58.6 186.6 60.6 186.4 63.2 186.3 65.25 186.5 66.05 186.7 66.85 187.55 67.05 L188.1 68.0 Q188.55 69.15 187.95 70.0 L185.55 70.15 Q182.9 69.85 181.7 67.4 180.05 64.25 180.15 61.0 180.25 57.45 182.55 56.75" fill="url(#gradient21)" fill-rule="evenodd" stroke="none"/>
    </g>
    <radialGradient cx="0" cy="0" gradientTransform="matrix(0.0068, 0.0, 0.0, -0.0068, 184.2, 63.4)" gradientUnits="userSpaceOnUse" id="gradient21" r="819.2" spreadMethod="pad">
      <stop offset="0.0" stop-color="#a8c03e"/>
      <stop offset="1.0" stop-color="#779801"/>
    </radialGradient>
    <g id="sprite48" transform="matrix(1.0, 0.0, 0.0, 1.0, 0.0, 0.0)">
      <use ffdec:characterId="237" height="10.5" transform="matrix(1.0, 0.0, 0.0, 1.0, 0.0, 0.0)" width="3.95" xlink:href="#shape12"/>
    </g>
    <g id="sprite49" transform="matrix(1.0, 0.0, 0.0, 1.0, 0.05, -0.05)">
      <use ffdec:characterId="239" height="12.1" transform="matrix(1.0, 0.0, 0.0, 1.0, -0.05, 0.05)" width="6.15" xlink:href="#shape13"/>
    </g>
    <g id="sprite50" transform="matrix(1.0, 0.0, 0.0, 1.0, 0.0, 0.0)">
      <use ffdec:characterId="241" height="13.6" transform="matrix(1.0, 0.0, 0.0, 1.0, 0.0, 0.0)" width="8.1" xlink:href="#shape14"/>
    </g>
    <g id="shape40" transform="matrix(1.0, 0.0, 0.0, 1.0, -180.55, -56.7)">
      <path d="M182.4 56.8 L182.7 56.7 182.4 60.15 Q182.35 63.5 183.35 65.0 185.4 68.3 188.25 68.65 L188.3 68.95 Q185.3 68.5 183.25 65.8 182.1 64.3 182.0 61.45 181.9 59.2 182.4 56.8 M184.4 57.65 L184.15 56.75 184.4 56.85 184.75 58.35 184.7 61.3 Q184.7 64.0 185.55 65.25 L186.75 66.6 187.4 67.0 187.55 67.1 187.85 67.5 Q185.7 66.45 184.9 64.9 184.2 63.6 184.35 61.0 L184.4 57.65 M181.6 57.25 L182.0 56.95 Q180.75 59.25 180.9 62.25 181.05 65.55 182.8 67.8 184.85 70.4 188.1 69.75 L187.95 70.0 186.25 70.2 Q184.2 69.9 182.45 67.85 180.7 65.7 180.55 62.35 180.4 59.2 181.6 57.25" fill="#c5e077" fill-rule="evenodd" stroke="none"/>
    </g>
    <g id="sprite51" transform="matrix(1.0, 0.0, 0.0, 1.0, -0.05, 0.0)">
      <use ffdec:characterId="309" height="81.55" transform="matrix(1.0, 0.0, 0.0, 1.0, 0.05, 0.0)" width="158.6" xlink:href="#shape41"/>
    </g>
    <g id="shape41" transform="matrix(1.0, 0.0, 0.0, 1.0, -0.05, 0.0)">
      <path d="M127.95 0.05 L145.65 3.6 Q159.75 6.85 158.55 9.4 157.45 11.75 149.75 16.3 137.85 23.3 133.8 26.2 128.9 29.7 117.7 35.95 110.8 39.75 112.7 40.25 117.8 41.5 123.2 43.4 130.8 46.1 128.8 47.0 128.0 47.35 121.7 52.45 115.5 57.5 110.45 59.6 104.1 62.3 94.5 68.25 85.1 74.1 81.0 77.8 77.4 81.05 71.8 81.45 67.55 81.8 63.35 80.55 L12.25 65.35 Q4.2 63.05 2.35 62.2 -1.35 60.4 0.85 58.25 2.9 56.2 12.9 49.3 L22.5 42.8 Q27.15 39.65 53.0 31.25 80.85 22.25 83.45 21.0 87.45 19.1 107.0 8.65 125.2 -0.7 127.95 0.05" fill="url(#gradient22)" fill-rule="evenodd" stroke="none"/>
    </g>
    <linearGradient gradientTransform="matrix(0.0282, 0.0409, 0.0409, -0.0282, 85.95, 44.1)" gradientUnits="userSpaceOnUse" id="gradient22" spreadMethod="pad" x1="-819.2" x2="819.2">
      <stop offset="0.0" stop-color="#8d4b1d"/>
      <stop offset="1.0" stop-color="#e4d3c6"/>
    </linearGradient>
    <g id="shape42" transform="matrix(1.0, 0.0, 0.0, 1.0, -121.1, -3.7)">
      <path d="M156.55 3.75 Q158.1 4.05 159.7 5.75 196.1 36.6 197.95 39.6 199.1 41.5 198.2 42.8 L197.1 43.75 163.95 64.7 Q160.85 66.8 158.55 66.7 157.05 66.7 155.7 65.7 L139.3 57.1 122.3 48.0 Q120.95 47.15 121.1 45.95 L121.55 44.9 153.25 5.5 Q154.25 4.15 155.5 3.8 L156.55 3.75" fill="url(#gradient23)" fill-rule="evenodd" stroke="none"/>
      <path d="M191.3 33.15 L192.15 33.95 158.0 54.3 157.95 53.15 191.3 33.15 M182.4 25.3 L183.4 26.15 157.3 41.75 157.2 40.0 182.4 25.3 M163.95 9.4 L164.65 10.0 155.8 14.4 155.7 13.25 163.95 9.4 M172.85 17.0 L173.65 17.7 156.5 27.65 156.45 26.35 172.85 17.0" fill="#d07c37" fill-rule="evenodd" stroke="none"/>
      <path d="M153.25 5.5 Q154.6 3.6 156.2 3.75 L159.3 66.7 Q157.35 66.9 155.7 65.7 L139.3 57.1 122.3 48.0 Q120.95 47.15 121.1 45.95 L121.55 44.9 153.25 5.5" fill="url(#gradient24)" fill-rule="evenodd" stroke="none"/>
      <path d="M133.2 30.5 L134.2 29.25 157.95 39.35 158.05 41.0 133.2 30.5 M127.05 38.05 L127.5 37.55 158.6 52.55 158.65 53.85 127.05 38.05 M141.5 20.2 L142.55 18.85 157.3 25.75 157.35 27.0 156.95 26.75 141.5 20.2 M156.65 12.65 L156.7 13.85 148.8 11.1 149.45 10.3 156.65 12.65" fill="#8d4b1d" fill-rule="evenodd" stroke="none"/>
      <path d="M122.3 48.0 Q120.5 46.9 121.35 45.2 121.8 46.35 122.3 46.9 L158.55 65.85 158.65 66.7 Q157.15 66.7 155.7 65.7 L139.3 57.1 122.3 48.0" fill="#8d4b1d" fill-rule="evenodd" stroke="none"/>
      <path d="M139.1 56.95 L142.8 45.25 143.55 45.6 139.95 57.45 139.1 56.95 M157.5 52.5 L158.65 53.1 159.3 66.7 157.95 66.65 157.5 52.5 M131.15 39.8 L131.95 40.1 125.5 49.8 124.7 49.4 131.15 39.8 M157.3 26.45 L158.0 40.3 157.15 39.9 156.75 26.1 157.3 26.45 M151.7 37.45 L152.5 37.75 151.0 49.25 150.2 48.8 151.7 37.45 M141.35 33.25 L142.1 33.65 137.75 42.75 136.95 42.4 141.35 33.25 M144.1 20.6 L144.7 20.85 137.7 31.4 137.05 31.05 144.1 20.6 M149.95 22.7 L150.45 22.95 146.6 35.5 145.95 35.3 149.95 22.7 M154.2 24.9 L153.45 24.45 154.95 12.9 155.7 13.25 154.2 24.9 M151.85 11.6 L152.55 11.9 147.6 22.15 146.9 21.8 151.85 11.6 M153.85 11.75 L153.8 11.9 153.7 11.85 153.85 11.75" fill="#8d4b1d" fill-rule="evenodd" stroke="none"/>
      <path d="M163.95 10.1 L164.35 9.75 Q196.2 36.8 197.95 39.6 199.1 41.5 198.2 42.8 L197.1 43.75 163.95 64.7 Q159.7 67.6 156.75 66.35 L157.8 66.25 Q159.65 66.45 162.15 65.15 L164.3 63.8 197.1 43.15 197.9 42.05 Q198.45 40.65 197.15 39.35 195.1 37.25 163.95 10.1" fill="#d07c37" fill-rule="evenodd" stroke="none"/>
      <path d="M170.85 46.15 L171.75 45.65 175.5 57.35 174.45 58.0 170.85 46.15 M184.05 38.05 L185.05 37.5 192.35 46.7 191.25 47.4 184.05 38.05 M172.35 32.25 L172.95 31.85 178.1 41.65 177.35 42.05 172.35 32.25 M162.5 38.45 L163.3 37.9 165.15 49.3 164.25 50.05 162.5 38.45 M163.65 22.75 L164.2 22.4 168.15 34.5 167.4 34.9 163.65 22.75 M169.75 19.3 L170.3 19.0 178.1 28.8 177.3 29.15 169.75 19.3 M158.65 12.35 L159.1 12.1 161.05 24.25 160.45 24.6 158.65 12.35 M161.6 11.05 Q161.85 10.95 162.05 10.8 L167.35 21.0 166.8 21.35 161.6 11.05" fill="#d07c37" fill-rule="evenodd" stroke="none"/>
      <path d="M153.9 4.85 Q154.9 3.65 156.2 3.75 L156.7 12.8 155.75 12.45 155.35 5.1 Q155.2 4.25 154.55 4.45 L153.9 4.85" fill="#f8cc84" fill-rule="evenodd" stroke="none"/>
      <path d="M148.8 11.1 L151.55 12.15 147.25 21.05 146.9 20.15 150.6 12.6 148.25 11.9 148.8 11.1" fill="#f8cc84" fill-rule="evenodd" stroke="none"/>
      <path d="M152.3 12.4 L154.85 13.3 153.5 24.0 152.8 22.75 154.2 13.6 152.05 13.0 152.3 12.4" fill="#f8cc84" fill-rule="evenodd" stroke="none"/>
      <path d="M155.7 13.5 L156.7 13.85 157.3 25.75 156.6 25.0 156.35 14.35 155.6 13.9 155.7 13.5" fill="#f8cc84" fill-rule="evenodd" stroke="none"/>
      <path d="M141.5 20.2 L143.75 21.1 137.4 30.6 137.35 29.65 142.75 21.4 141.1 20.8 141.5 20.2" fill="#f8cc84" fill-rule="evenodd" stroke="none"/>
      <path d="M144.35 21.35 L149.7 23.65 146.25 34.35 145.85 33.45 148.9 23.85 144.0 22.0 144.35 21.35" fill="#f8cc84" fill-rule="evenodd" stroke="none"/>
      <path d="M150.2 23.95 L156.7 26.65 157.15 39.0 156.35 37.9 156.0 27.1 150.0 24.6 150.2 23.95" fill="#f8cc84" fill-rule="evenodd" stroke="none"/>
      <path d="M133.2 30.5 L141.05 33.85 137.0 42.1 136.85 41.4 140.0 34.15 132.85 31.15 133.2 30.5" fill="#f8cc84" fill-rule="evenodd" stroke="none"/>
      <path d="M141.8 34.1 L151.6 38.3 150.2 48.45 149.85 47.65 150.8 38.75 141.55 34.65 141.8 34.1" fill="#f8cc84" fill-rule="evenodd" stroke="none"/>
      <path d="M152.35 38.65 L158.05 41.0 158.6 52.7 157.8 52.15 157.35 41.65 152.35 39.3 152.35 38.65" fill="#f8cc84" fill-rule="evenodd" stroke="none"/>
      <path d="M127.05 38.05 L131.0 40.0 125.35 48.45 125.2 47.6 130.05 40.25 126.7 38.55 127.05 38.05" fill="#f8cc84" fill-rule="evenodd" stroke="none"/>
      <path d="M141.65 46.2 L131.35 41.1 131.8 40.45 142.65 45.9 139.35 55.85 139.2 55.2 141.65 46.2" fill="#f8cc84" fill-rule="evenodd" stroke="none"/>
      <path d="M143.35 46.15 L157.5 53.25 157.95 65.35 157.25 64.6 156.8 53.9 143.15 47.0 143.35 46.15" fill="#f8cc84" fill-rule="evenodd" stroke="none"/>
      <path d="M158.2 4.55 Q157.3 4.5 157.0 4.85 156.8 5.05 156.75 5.55 L156.75 5.95 157.35 12.45 156.7 12.8 156.2 3.85 156.9 3.95 Q157.65 4.1 158.2 4.55" fill="#fadcaa" fill-rule="evenodd" stroke="none"/>
      <path d="M158.8 12.95 L158.85 13.75 157.25 14.45 157.85 25.1 157.3 25.75 156.7 13.85 158.8 12.95" fill="#fadcaa" fill-rule="evenodd" stroke="none"/>
      <path d="M161.85 11.45 L162.2 12.2 159.75 13.35 161.35 22.6 161.0 23.75 159.15 12.75 161.85 11.45" fill="#fadcaa" fill-rule="evenodd" stroke="none"/>
      <path d="M164.15 10.25 L164.6 10.75 162.95 11.7 167.1 19.7 167.0 20.4 162.2 11.25 164.15 10.25" fill="#fadcaa" fill-rule="evenodd" stroke="none"/>
      <path d="M163.8 23.45 L164.05 24.25 158.2 27.85 158.55 38.4 157.95 39.5 157.4 27.15 163.8 23.45" fill="#fadcaa" fill-rule="evenodd" stroke="none"/>
      <path d="M170.15 19.8 L170.65 20.55 165.3 23.6 168.2 32.8 167.85 33.75 164.35 23.1 170.15 19.8" fill="#fadcaa" fill-rule="evenodd" stroke="none"/>
      <path d="M173.05 18.1 L173.6 18.55 171.75 19.75 177.5 27.25 177.55 28.15 170.65 19.45 173.05 18.1" fill="#fadcaa" fill-rule="evenodd" stroke="none"/>
      <path d="M162.5 38.65 L162.65 39.45 158.85 41.85 159.25 52.2 158.65 52.8 158.05 41.0 162.5 38.65" fill="#fadcaa" fill-rule="evenodd" stroke="none"/>
      <path d="M172.6 32.65 L173.0 33.45 164.2 38.85 165.6 47.6 165.1 48.85 163.35 38.25 172.6 32.65" fill="#fadcaa" fill-rule="evenodd" stroke="none"/>
      <path d="M182.75 26.55 L183.45 27.15 174.25 32.65 178.1 40.05 177.85 41.25 173.2 32.3 182.75 26.55" fill="#fadcaa" fill-rule="evenodd" stroke="none"/>
      <path d="M170.9 46.6 L171.3 47.55 159.5 54.45 160.1 65.25 159.35 66.15 158.65 53.85 170.9 46.6" fill="#fadcaa" fill-rule="evenodd" stroke="none"/>
      <path d="M184.9 39.1 L172.85 46.45 175.7 55.8 175.4 56.9 171.85 46.1 Q178.15 42.35 184.4 38.55 L184.9 39.1" fill="#fadcaa" fill-rule="evenodd" stroke="none"/>
      <path d="M191.55 34.25 L192.15 34.85 186.45 38.25 192.1 45.3 192.05 46.35 185.35 38.0 191.55 34.25" fill="#fadcaa" fill-rule="evenodd" stroke="none"/>
    </g>
    <linearGradient gradientTransform="matrix(0.0472, 0.0, 0.0, -0.0472, 159.85, 35.25)" gradientUnits="userSpaceOnUse" id="gradient23" spreadMethod="pad" x1="-819.2" x2="819.2">
      <stop offset="0.0" stop-color="#f8cc84"/>
      <stop offset="1.0" stop-color="#f4af46"/>
    </linearGradient>
    <linearGradient gradientTransform="matrix(0.0233, 0.0, 0.0, -0.0233, 140.2, 35.2)" gradientUnits="userSpaceOnUse" id="gradient24" spreadMethod="pad" x1="-819.2" x2="819.2">
      <stop offset="0.0" stop-color="#f4af46"/>
      <stop offset="1.0" stop-color="#d07c37"/>
    </linearGradient>
    <g id="sprite52" transform="matrix(1.0, 0.0, 0.0, 1.0, 0.0, 0.0)">
      <use ffdec:characterId="312" height="36.65" transform="matrix(1.0, 0.0, 0.0, 1.0, 0.0, 0.0)" width="41.05" xlink:href="#shape43"/>
    </g>
    <g id="shape43" transform="matrix(1.0, 0.0, 0.0, 1.0, 0.0, 0.0)">
      <path d="M39.4 7.0 L41.05 35.85 Q40.95 36.8 39.75 36.65 L0.0 20.7 16.1 0.0 39.4 7.0" fill="url(#gradient25)" fill-rule="evenodd" stroke="none"/>
    </g>
    <linearGradient gradientTransform="matrix(0.0069, -0.0112, -0.0112, -0.0069, 26.55, 18.45)" gradientUnits="userSpaceOnUse" id="gradient25" spreadMethod="pad" x1="-819.2" x2="819.2">
      <stop offset="0.0" stop-color="#8d4b1d"/>
      <stop offset="1.0" stop-color="#ffffff"/>
    </linearGradient>
    <g id="shape44" transform="matrix(1.0, 0.0, 0.0, 1.0, -48.45, -19.0)">
      <path d="M96.45 25.15 Q97.3 23.85 98.55 22.5 101.0 19.7 103.0 19.2 105.0 18.7 108.2 20.7 L112.5 23.95 140.55 50.7 167.15 76.25 168.25 77.7 Q169.1 79.25 168.15 80.0 L152.15 89.9 147.15 89.9 136.05 96.25 137.0 99.2 116.85 111.5 Q113.9 112.1 110.5 111.5 106.95 110.85 82.45 103.9 56.35 96.45 52.3 94.45 48.2 92.5 48.45 91.6 50.15 89.55 51.9 86.75 55.45 81.2 96.45 25.15" fill="url(#gradient26)" fill-rule="evenodd" stroke="none"/>
      <path d="M152.15 89.9 L150.4 89.9 167.35 80.0 Q168.1 78.7 167.8 78.15 L160.75 71.3 161.6 70.9 167.15 76.25 168.25 77.7 Q169.1 79.25 168.15 80.0 L152.15 89.9 M116.85 111.5 L116.5 111.55 117.55 110.1 136.7 98.15 137.0 99.2 116.85 111.5" fill="#d07c37" fill-rule="evenodd" stroke="none"/>
      <path d="M113.9 97.8 L113.75 96.95 113.35 97.05 113.15 95.5 160.95 70.25 161.95 71.2 113.9 97.8 M109.8 65.1 L109.5 65.7 109.25 63.65 109.6 63.5 137.15 47.4 138.05 48.25 109.8 65.1 M111.75 80.65 L111.55 82.4 111.15 79.05 111.5 78.9 148.2 58.0 149.15 58.95 111.75 80.65 M117.8 28.95 L105.95 34.95 106.2 39.2 105.45 33.25 116.65 27.8 117.8 28.95 M126.95 37.65 L127.8 38.45 107.9 50.15 107.6 50.6 107.4 48.75 126.95 37.65" fill="#d07c37" fill-rule="evenodd" stroke="none"/>
      <path d="M103.0 19.2 L103.95 19.1 Q115.4 108.3 115.25 110.9 L115.15 111.7 110.5 111.5 Q106.95 110.85 82.45 103.9 56.35 96.45 52.3 94.45 48.2 92.5 48.45 91.6 50.15 89.55 51.9 86.75 55.45 81.2 96.45 25.15 98.4 22.2 100.7 20.4 101.95 19.5 103.0 19.2" fill="url(#gradient27)" fill-rule="evenodd" stroke="none"/>
      <path d="M132.1 88.1 L131.9 86.35 138.2 83.05 Q144.55 79.85 144.75 80.2 L152.15 89.9 147.15 89.9 136.05 96.25 132.1 88.1" fill="#8d4b1d" fill-rule="evenodd" stroke="none"/>
      <path d="M113.5 111.1 L115.2 111.3 115.15 111.7 110.5 111.5 Q106.95 110.85 82.45 103.9 56.35 96.45 52.3 94.45 49.55 93.15 48.9 92.55 48.2 91.95 48.65 91.1 54.2 94.55 84.4 103.2 L113.5 111.1 M56.9 79.6 L57.75 78.4 Q66.4 81.65 86.5 87.5 L113.55 95.15 113.75 96.95 Q98.1 93.35 56.9 79.6 M111.5 78.9 L111.75 80.65 Q105.15 80.25 88.3 75.1 77.8 71.85 65.6 67.5 L66.55 66.2 Q95.55 76.85 111.5 78.9 M109.6 63.5 L109.8 65.1 74.0 55.95 75.1 54.45 109.6 63.5 M107.65 48.2 L107.9 50.15 82.45 44.3 83.45 43.0 107.65 48.2 M91.3 32.2 L92.25 30.95 105.75 33.4 105.95 34.95 91.3 32.2" fill="#8d4b1d" fill-rule="evenodd" stroke="none"/>
      <path d="M89.75 89.3 L91.0 89.75 88.15 105.5 86.75 105.1 89.75 89.3 M78.1 85.85 L76.7 85.35 82.1 71.8 83.4 72.3 78.1 85.85 M65.6 81.25 L66.75 81.6 58.2 96.6 56.95 96.2 65.6 81.25 M93.7 45.75 L88.8 58.45 87.55 58.2 92.55 45.6 93.7 45.75 M79.95 56.5 L81.05 56.75 73.65 69.6 72.55 69.25 79.95 56.5 M102.65 48.1 L103.5 48.25 103.3 62.5 102.3 62.1 102.65 48.1 M101.95 77.75 L103.1 77.95 102.9 92.7 101.6 92.35 101.95 77.75 M95.2 60.6 L96.2 60.8 93.5 75.65 92.4 75.35 95.2 60.6 M100.4 33.25 L101.15 33.4 98.75 46.65 97.9 46.45 100.4 33.25 M93.85 32.6 L94.1 32.1 95.05 32.3 88.0 44.55 87.05 44.25 93.85 32.6" fill="#8d4b1d" fill-rule="evenodd" stroke="none"/>
      <path d="M105.2 34.2 L105.95 34.05 116.85 111.5 113.9 111.9 105.2 34.2" fill="#8d4b1d" fill-rule="evenodd" stroke="none"/>
      <path d="M91.3 32.2 L93.85 32.6 87.35 43.9 86.75 42.75 92.15 33.35 90.75 32.95 91.3 32.2" fill="#f8cc84" fill-rule="evenodd" stroke="none"/>
      <path d="M100.15 33.9 L97.9 46.15 97.15 45.15 99.1 34.6 94.4 33.55 94.65 32.8 100.15 33.9" fill="#f8cc84" fill-rule="evenodd" stroke="none"/>
      <path d="M105.3 34.75 L106.7 48.1 105.8 47.1 104.6 35.45 100.95 34.95 101.05 33.95 105.3 34.75" fill="#f8cc84" fill-rule="evenodd" stroke="none"/>
      <path d="M82.45 44.3 L83.3 44.25 75.95 55.05 75.1 54.45 82.45 44.3" fill="#8d4b1d" fill-rule="evenodd" stroke="none"/>
      <path d="M82.5 45.4 L83.15 44.55 92.1 46.75 87.7 58.0 87.15 56.8 90.7 47.85 82.5 45.4" fill="#f8cc84" fill-rule="evenodd" stroke="none"/>
      <path d="M101.2 50.05 L92.7 48.05 93.4 46.95 102.5 49.15 102.3 61.55 101.1 59.65 101.2 50.05" fill="#f8cc84" fill-rule="evenodd" stroke="none"/>
      <path d="M103.55 49.25 L107.05 50.0 108.35 63.25 107.45 61.6 106.4 50.85 103.5 50.05 103.55 49.25" fill="#f8cc84" fill-rule="evenodd" stroke="none"/>
      <path d="M72.95 68.55 L72.4 67.1 77.95 57.9 73.5 56.6 74.0 55.95 79.3 57.45 72.95 68.55" fill="#f8cc84" fill-rule="evenodd" stroke="none"/>
      <path d="M92.3 74.7 L91.25 73.3 93.7 62.3 79.85 58.6 80.45 57.7 94.95 61.45 92.3 74.7" fill="#f8cc84" fill-rule="evenodd" stroke="none"/>
      <path d="M96.1 61.6 L108.65 64.8 110.1 78.65 108.95 77.45 107.5 65.95 95.9 62.6 96.1 61.6" fill="#f8cc84" fill-rule="evenodd" stroke="none"/>
      <path d="M64.9 68.5 L65.6 67.5 81.85 73.0 77.0 84.5 76.4 83.55 80.05 74.0 64.9 68.5" fill="#f8cc84" fill-rule="evenodd" stroke="none"/>
      <path d="M82.45 74.75 L83.05 73.3 102.05 78.75 101.65 91.85 100.35 90.75 100.6 79.9 82.45 74.75" fill="#f8cc84" fill-rule="evenodd" stroke="none"/>
      <path d="M103.1 79.45 L106.7 79.75 110.55 80.5 111.9 94.8 110.85 93.9 109.7 82.1 103.2 80.8 103.1 79.45" fill="#f8cc84" fill-rule="evenodd" stroke="none"/>
      <path d="M56.9 79.6 L65.15 82.35 57.7 94.95 57.1 93.8 62.75 83.1 56.1 80.65 56.9 79.6" fill="#f8cc84" fill-rule="evenodd" stroke="none"/>
      <path d="M66.3 82.55 L89.8 89.9 86.8 103.85 86.2 102.65 88.05 91.2 65.55 83.85 66.3 82.55" fill="#f8cc84" fill-rule="evenodd" stroke="none"/>
      <path d="M90.55 92.3 L90.85 90.6 112.15 96.45 113.9 111.3 112.3 109.9 111.0 97.95 90.55 92.3" fill="#f8cc84" fill-rule="evenodd" stroke="none"/>
      <path d="M66.5 67.7 L58.4 79.45 57.75 78.4 65.7 67.1 66.35 66.4 Q66.95 66.05 66.5 67.7" fill="#8d4b1d" fill-rule="evenodd" stroke="none"/>
      <path d="M99.85 21.3 Q101.5 19.5 102.9 19.1 103.6 18.95 103.95 19.1 L105.8 33.65 104.75 33.25 103.95 27.75 102.95 21.45 Q102.75 20.8 101.3 21.0 L99.85 21.3" fill="#f8cc84" fill-rule="evenodd" stroke="none"/>
      <path d="M143.6 61.65 L154.7 74.9 153.6 75.55 142.7 62.2 143.6 61.65 M122.75 91.8 L124.0 91.1 127.45 105.0 126.05 105.85 122.75 91.8 M131.95 87.0 L126.25 71.65 127.35 71.15 133.1 86.1 131.95 87.0 M115.4 60.7 L116.2 60.25 120.0 75.3 118.95 75.85 115.4 60.7 M121.15 57.85 L116.15 44.35 116.95 44.05 122.05 57.3 121.15 57.85 M127.5 53.95 L128.7 53.4 136.15 65.85 134.7 66.5 127.5 53.95 M108.85 33.0 L109.25 32.5 112.7 46.25 112.05 46.6 108.85 33.0 M113.8 30.05 Q114.15 29.9 114.45 29.7 L121.7 41.75 120.7 42.1 113.8 30.05 M124.55 39.9 L125.15 39.6 134.1 50.3 133.35 50.75 124.55 39.9" fill="#d07c37" fill-rule="evenodd" stroke="none"/>
      <path d="M132.1 88.1 L131.9 86.35 135.55 84.4 142.05 81.15 147.15 89.9 136.05 96.25 132.1 88.1" fill="#000000" fill-rule="evenodd" stroke="none"/>
      <path d="M117.8 28.95 L118.7 29.75 Q117.4 30.4 116.05 31.0 L121.4 39.65 121.2 41.05 114.85 30.5 117.8 28.95" fill="#fadcaa" fill-rule="evenodd" stroke="none"/>
      <path d="M114.15 30.8 L114.8 31.8 Q112.7 32.95 110.55 34.05 L113.05 44.5 112.7 45.8 109.35 33.25 114.15 30.8" fill="#fadcaa" fill-rule="evenodd" stroke="none"/>
      <path d="M108.9 33.55 L109.25 34.7 106.7 35.95 108.35 47.05 108.0 48.6 106.1 34.75 108.9 33.55" fill="#fadcaa" fill-rule="evenodd" stroke="none"/>
      <path d="M127.8 38.45 L128.6 39.15 126.7 40.1 133.5 48.2 133.55 49.65 125.4 40.0 127.8 38.45" fill="#fadcaa" fill-rule="evenodd" stroke="none"/>
      <path d="M125.25 40.85 L118.4 45.05 122.2 55.05 121.7 56.45 117.2 44.75 124.75 40.25 125.25 40.85" fill="#fadcaa" fill-rule="evenodd" stroke="none"/>
      <path d="M116.4 45.2 L116.75 46.0 109.1 50.35 110.8 61.7 110.1 63.3 108.15 50.0 116.4 45.2" fill="#fadcaa" fill-rule="evenodd" stroke="none"/>
      <path d="M115.6 61.7 L115.9 62.7 111.4 65.55 112.8 77.35 112.25 78.6 110.25 64.85 115.6 61.7" fill="#fadcaa" fill-rule="evenodd" stroke="none"/>
      <path d="M127.75 54.45 L128.2 55.25 117.55 61.7 120.45 72.55 119.8 74.25 116.3 61.25 127.75 54.45" fill="#fadcaa" fill-rule="evenodd" stroke="none"/>
      <path d="M138.05 48.25 L138.6 48.85 130.45 54.1 136.1 63.4 135.7 65.1 128.85 53.85 138.05 48.25" fill="#fadcaa" fill-rule="evenodd" stroke="none"/>
      <path d="M126.4 72.15 L126.85 73.15 113.9 81.15 115.3 93.7 114.55 94.95 112.45 80.25 126.4 72.15" fill="#fadcaa" fill-rule="evenodd" stroke="none"/>
      <path d="M128.95 72.15 L133.25 84.05 132.75 85.25 127.5 71.5 142.95 62.6 143.8 63.6 128.95 72.15" fill="#fadcaa" fill-rule="evenodd" stroke="none"/>
      <path d="M149.15 58.95 L149.85 59.65 145.55 62.1 154.1 72.65 153.95 74.0 143.9 62.1 149.15 58.95" fill="#fadcaa" fill-rule="evenodd" stroke="none"/>
      <path d="M123.05 92.75 L123.2 94.05 116.1 98.1 117.5 110.25 116.85 111.5 114.9 97.25 123.0 92.75 123.05 92.75" fill="#fadcaa" fill-rule="evenodd" stroke="none"/>
      <path d="M132.05 87.8 L132.5 89.0 125.65 92.75 128.2 103.05 127.45 105.0 124.25 92.0 132.05 87.8" fill="#fadcaa" fill-rule="evenodd" stroke="none"/>
      <path d="M161.95 71.2 L162.6 71.9 147.0 80.75 152.55 88.6 152.15 89.9 144.95 80.6 161.95 71.2" fill="#fadcaa" fill-rule="evenodd" stroke="none"/>
      <path d="M137.05 48.4 L138.05 48.25 148.2 58.0 147.85 58.8 137.05 48.4" fill="#d07c37" fill-rule="evenodd" stroke="none"/>
      <path d="M117.05 29.0 L117.15 28.8 Q117.3 28.65 117.6 28.8 L122.5 33.35 126.95 37.65 126.65 38.2 117.05 29.0" fill="#d07c37" fill-rule="evenodd" stroke="none"/>
      <path d="M107.45 20.35 L106.7 20.4 Q105.9 20.5 105.6 21.0 105.1 21.85 105.7 24.9 L106.65 33.0 105.8 33.65 103.95 19.1 105.05 19.2 Q106.35 19.5 107.45 20.35" fill="#fadcaa" fill-rule="evenodd" stroke="none"/>
    </g>
    <linearGradient gradientTransform="matrix(0.0734, 0.0, 0.0, -0.0734, 108.55, 65.45)" gradientUnits="userSpaceOnUse" id="gradient26" spreadMethod="pad" x1="-819.2" x2="819.2">
      <stop offset="0.0" stop-color="#f8cc84"/>
      <stop offset="1.0" stop-color="#f4af46"/>
    </linearGradient>
    <linearGradient gradientTransform="matrix(0.0408, 0.0, 0.0, -0.0408, 81.85, 65.45)" gradientUnits="userSpaceOnUse" id="gradient27" spreadMethod="pad" x1="-819.2" x2="819.2">
      <stop offset="0.0" stop-color="#f4af46"/>
      <stop offset="1.0" stop-color="#d07c37"/>
    </linearGradient>
  </defs>
</svg>
