<?xml version="1.0" encoding="UTF-8" standalone="no"?>
<svg xmlns:ffdec="https://www.free-decompiler.com/flash" xmlns:xlink="http://www.w3.org/1999/xlink" ffdec:objectType="frame" height="85.8px" width="88.8px" xmlns="http://www.w3.org/2000/svg">
  <g transform="matrix(1.0, 0.0, 0.0, 1.0, 44.4, 43.05)">
    <use ffdec:characterId="1494" height="85.8" id="location" transform="matrix(1.0, 0.0, 0.0, 1.0, -44.4, -43.05)" width="88.8" xlink:href="#sprite0"/>
    <use ffdec:characterId="1496" height="21.2" transform="matrix(1.0, 0.0, 0.0, 1.0, -13.7, -3.15)" width="49.1" xlink:href="#sprite39"/>
  </g>
  <defs>
    <g id="sprite0" transform="matrix(1.0, 0.0, 0.0, 1.0, 0.0, 0.35)">
      <use ffdec:characterId="1391" height="67.9" style="mix-blend-mode: overlay" transform="matrix(1.0, 0.0, 0.0, 1.0, 0.0, 17.55)" width="88.5" xlink:href="#sprite1"/>
      <use ffdec:characterId="1398" height="61.9" transform="matrix(0.1391, 0.0, 0.0, 0.1391, 74.9, -0.35)" width="87.55" xlink:href="#sprite2"/>
      <use ffdec:characterId="1399" height="16.45" transform="matrix(1.0, 0.0, 0.0, 1.0, 68.5, 8.4)" width="17.45" xlink:href="#shape2"/>
      <use ffdec:characterId="1401" height="13.5" style="mix-blend-mode: multiply" transform="matrix(1.0, 0.0, 0.0, 1.0, 68.45, 8.55)" width="5.7" xlink:href="#sprite3"/>
      <use ffdec:characterId="1403" height="11.25" style="mix-blend-mode: multiply" transform="matrix(1.0, 0.0, 0.0, 1.0, 68.45, 10.75)" width="5.6" xlink:href="#sprite4"/>
      <use ffdec:characterId="1405" height="15.4" style="mix-blend-mode: multiply" transform="matrix(1.0, 0.0, 0.0, 1.0, 70.55, 9.45)" width="14.7" xlink:href="#sprite5"/>
      <use ffdec:characterId="1407" height="11.95" style="mix-blend-mode: multiply" transform="matrix(1.0, 0.0, 0.0, 1.0, 72.85, 12.9)" width="12.4" xlink:href="#sprite6"/>
      <use ffdec:characterId="1409" height="11.75" style="mix-blend-mode: multiply" transform="matrix(1.0, 0.0, 0.0, 1.0, 73.3, 13.1)" width="11.95" xlink:href="#sprite7"/>
      <use ffdec:characterId="1411" height="12.15" style="mix-blend-mode: multiply" transform="matrix(1.0, 0.0, 0.0, 1.0, 71.15, 11.95)" width="12.45" xlink:href="#sprite8"/>
      <use ffdec:characterId="1413" height="14.55" style="mix-blend-mode: multiply" transform="matrix(1.0, 0.0, 0.0, 1.0, 70.55, 9.45)" width="14.7" xlink:href="#sprite9"/>
      <use ffdec:characterId="1414" height="8.5" transform="matrix(1.0, 0.0, 0.0, 1.0, 63.5, 2.35)" width="6.55" xlink:href="#shape10"/>
      <use ffdec:characterId="1416" height="8.45" style="mix-blend-mode: multiply" transform="matrix(1.0, 0.0, 0.0, 1.0, 63.45, 2.4)" width="5.9" xlink:href="#sprite10"/>
      <use ffdec:characterId="1418" height="8.0" style="mix-blend-mode: multiply" transform="matrix(1.0, 0.0, 0.0, 1.0, 63.5, 2.85)" width="5.4" xlink:href="#sprite11"/>
      <use ffdec:characterId="1419" height="24.95" transform="matrix(1.0, 0.0, 0.0, 1.0, 72.8, 0.0)" width="16.0" xlink:href="#shape13"/>
      <use ffdec:characterId="1421" height="13.0" style="mix-blend-mode: multiply" transform="matrix(1.0, 0.0, 0.0, 1.0, 73.5, 0.5)" width="2.55" xlink:href="#sprite12"/>
      <use ffdec:characterId="1422" height="0.0" style="mix-blend-mode: multiply" transform="matrix(1.0, 0.0, 0.0, 1.0, 74.25, 0.9)" width="0.0" xlink:href="#sprite13"/>
      <use ffdec:characterId="1424" height="12.35" style="mix-blend-mode: multiply" transform="matrix(1.0, 0.0, 0.0, 1.0, 68.45, 12.25)" width="13.7" xlink:href="#sprite14"/>
      <use ffdec:characterId="1425" height="5.95" transform="matrix(1.0, 0.0, 0.0, 1.0, 71.25, 17.65)" width="6.65" xlink:href="#shape16"/>
      <use ffdec:characterId="1427" height="5.8" style="mix-blend-mode: multiply" transform="matrix(1.0, 0.0, 0.0, 1.0, 71.75, 17.8)" width="6.15" xlink:href="#sprite15"/>
      <use ffdec:characterId="1428" height="4.8" transform="matrix(1.0, 0.0, 0.0, 1.0, 78.65, 21.5)" width="5.45" xlink:href="#shape18"/>
      <use ffdec:characterId="1430" height="4.7" style="mix-blend-mode: multiply" transform="matrix(1.0, 0.0, 0.0, 1.0, 79.05, 21.6)" width="5.05" xlink:href="#sprite16"/>
      <use ffdec:characterId="1431" height="24.85" transform="matrix(1.0, 0.0, 0.0, 1.0, 64.7, 1.0)" width="18.65" xlink:href="#shape20"/>
      <use ffdec:characterId="1433" height="4.5" style="mix-blend-mode: multiply" transform="matrix(1.0, 0.0, 0.0, 1.0, 83.75, 19.45)" width="3.8" xlink:href="#sprite17"/>
      <use ffdec:characterId="1435" height="5.85" style="mix-blend-mode: multiply" transform="matrix(1.0, 0.0, 0.0, 1.0, 66.9, 6.5)" width="3.25" xlink:href="#sprite18"/>
      <use ffdec:characterId="1436" height="53.7" transform="matrix(1.0, 0.0, 0.0, 1.0, 4.0, 25.6)" width="74.95" xlink:href="#shape23"/>
      <use ffdec:characterId="1438" height="53.7" style="mix-blend-mode: multiply" transform="matrix(1.0, 0.0, 0.0, 1.0, 4.0, 25.6)" width="74.95" xlink:href="#sprite19"/>
      <use ffdec:characterId="1440" height="53.7" style="mix-blend-mode: multiply" transform="matrix(1.0, 0.0, 0.0, 1.0, 4.0, 25.6)" width="74.95" xlink:href="#sprite20"/>
      <use ffdec:characterId="1442" height="36.15" style="mix-blend-mode: multiply" transform="matrix(1.0, 0.0, 0.0, 1.0, 4.0, 43.15)" width="74.95" xlink:href="#sprite21"/>
      <use ffdec:characterId="1443" height="57.85" transform="matrix(1.0, 0.0, 0.0, 1.0, 10.8, 17.5)" width="65.65" xlink:href="#shape27"/>
      <use ffdec:characterId="1445" height="9.15" style="mix-blend-mode: multiply" transform="matrix(1.0, 0.0, 0.0, 1.0, 23.6, 34.85)" width="13.3" xlink:href="#sprite22"/>
      <use ffdec:characterId="1446" height="28.25" transform="matrix(1.0, 0.0, 0.0, 1.0, 13.4, 21.4)" width="27.25" xlink:href="#shape29"/>
      <use ffdec:characterId="1448" height="7.55" style="mix-blend-mode: multiply" transform="matrix(1.0, 0.0, 0.0, 1.0, 21.2, 56.6)" width="10.35" xlink:href="#sprite23"/>
      <use ffdec:characterId="1449" height="15.85" transform="matrix(1.0, 0.0, 0.0, 1.0, 18.05, 46.45)" width="15.05" xlink:href="#shape31"/>
      <use ffdec:characterId="1451" height="6.5" style="mix-blend-mode: multiply" transform="matrix(1.0, 0.0, 0.0, 1.0, 67.2, 38.6)" width="9.9" xlink:href="#sprite24"/>
      <use ffdec:characterId="1452" height="33.35" transform="matrix(1.0, 0.0, 0.0, 1.0, 57.7, 23.75)" width="24.7" xlink:href="#shape33"/>
      <use ffdec:characterId="1454" height="1.45" style="mix-blend-mode: multiply" transform="matrix(1.0, 0.0, 0.0, 1.0, 58.05, 55.75)" width="2.25" xlink:href="#sprite25"/>
      <use ffdec:characterId="1455" height="1.75" transform="matrix(1.0, 0.0, 0.0, 1.0, 57.9, 54.8)" width="2.6" xlink:href="#shape35"/>
      <use ffdec:characterId="1457" height="1.65" style="mix-blend-mode: multiply" transform="matrix(1.0, 0.0, 0.0, 1.0, 57.9, 54.8)" width="2.6" xlink:href="#sprite26"/>
      <use ffdec:characterId="1458" height="1.6" transform="matrix(1.0, 0.0, 0.0, 1.0, 57.9, 54.0)" width="2.6" xlink:href="#shape37"/>
      <use ffdec:characterId="1460" height="1.45" style="mix-blend-mode: multiply" transform="matrix(1.0, 0.0, 0.0, 1.0, 68.75, 55.75)" width="2.3" xlink:href="#sprite27"/>
      <use ffdec:characterId="1461" height="1.75" transform="matrix(1.0, 0.0, 0.0, 1.0, 68.6, 54.8)" width="2.65" xlink:href="#shape39"/>
      <use ffdec:characterId="1463" height="1.65" style="mix-blend-mode: multiply" transform="matrix(1.0, 0.0, 0.0, 1.0, 68.6, 54.8)" width="2.65" xlink:href="#sprite28"/>
      <use ffdec:characterId="1464" height="1.6" transform="matrix(1.0, 0.0, 0.0, 1.0, 68.6, 54.0)" width="2.65" xlink:href="#shape41"/>
      <use ffdec:characterId="1466" height="1.4" style="mix-blend-mode: multiply" transform="matrix(1.0, 0.0, 0.0, 1.0, 58.45, 48.3)" width="2.3" xlink:href="#sprite29"/>
      <use ffdec:characterId="1467" height="1.7" transform="matrix(1.0, 0.0, 0.0, 1.0, 58.3, 47.35)" width="2.65" xlink:href="#shape43"/>
      <use ffdec:characterId="1469" height="1.65" style="mix-blend-mode: multiply" transform="matrix(1.0, 0.0, 0.0, 1.0, 58.3, 47.35)" width="2.65" xlink:href="#sprite30"/>
      <use ffdec:characterId="1470" height="1.55" transform="matrix(1.0, 0.0, 0.0, 1.0, 58.3, 46.55)" width="2.65" xlink:href="#shape45"/>
      <use ffdec:characterId="1472" height="1.4" style="mix-blend-mode: multiply" transform="matrix(1.0, 0.0, 0.0, 1.0, 68.3, 48.3)" width="2.25" xlink:href="#sprite31"/>
      <use ffdec:characterId="1473" height="1.7" transform="matrix(1.0, 0.0, 0.0, 1.0, 68.15, 47.35)" width="2.6" xlink:href="#shape47"/>
      <use ffdec:characterId="1475" height="1.65" style="mix-blend-mode: multiply" transform="matrix(1.0, 0.0, 0.0, 1.0, 68.15, 47.35)" width="2.6" xlink:href="#sprite32"/>
      <use ffdec:characterId="1476" height="1.55" transform="matrix(1.0, 0.0, 0.0, 1.0, 68.15, 46.55)" width="2.6" xlink:href="#shape49"/>
      <use ffdec:characterId="1478" height="1.45" style="mix-blend-mode: multiply" transform="matrix(1.0, 0.0, 0.0, 1.0, 58.7, 41.0)" width="2.25" xlink:href="#sprite33"/>
      <use ffdec:characterId="1479" height="1.75" transform="matrix(1.0, 0.0, 0.0, 1.0, 58.55, 40.05)" width="2.6" xlink:href="#shape51"/>
      <use ffdec:characterId="1481" height="1.65" style="mix-blend-mode: multiply" transform="matrix(1.0, 0.0, 0.0, 1.0, 58.55, 40.05)" width="2.6" xlink:href="#sprite34"/>
      <use ffdec:characterId="1482" height="1.6" transform="matrix(1.0, 0.0, 0.0, 1.0, 58.55, 39.25)" width="2.6" xlink:href="#shape53"/>
      <use ffdec:characterId="1483" height="1.45" style="mix-blend-mode: multiply" transform="matrix(1.0, 0.0, 0.0, 1.0, 68.0, 41.0)" width="2.25" xlink:href="#sprite35"/>
      <use ffdec:characterId="1484" height="1.75" transform="matrix(1.0, 0.0, 0.0, 1.0, 67.85, 40.05)" width="2.6" xlink:href="#shape54"/>
      <use ffdec:characterId="1486" height="1.65" style="mix-blend-mode: multiply" transform="matrix(1.0, 0.0, 0.0, 1.0, 67.85, 40.05)" width="2.6" xlink:href="#sprite36"/>
      <use ffdec:characterId="1487" height="1.6" transform="matrix(1.0, 0.0, 0.0, 1.0, 67.85, 39.25)" width="2.6" xlink:href="#shape56"/>
      <use ffdec:characterId="1489" height="6.5" style="mix-blend-mode: multiply" transform="matrix(1.0, 0.0, 0.0, 1.0, 40.55, 58.8)" width="10.45" xlink:href="#sprite37"/>
      <use ffdec:characterId="1490" height="19.1" transform="matrix(1.0, 0.0, 0.0, 1.0, 40.15, 42.8)" width="18.75" xlink:href="#shape58"/>
      <use ffdec:characterId="1492" height="5.6" style="mix-blend-mode: multiply" transform="matrix(1.0, 0.0, 0.0, 1.0, 42.6, 36.7)" width="8.95" xlink:href="#sprite38"/>
      <use ffdec:characterId="1493" height="35.5" transform="matrix(1.0, 0.0, 0.0, 1.0, 42.25, 23.05)" width="26.8" xlink:href="#shape60"/>
    </g>
    <g id="sprite1" transform="matrix(1.0, 0.0, 0.0, 1.0, 0.0, 0.0)">
      <use ffdec:characterId="1390" height="67.9" transform="matrix(1.0, 0.0, 0.0, 1.0, 0.0, 0.0)" width="88.5" xlink:href="#shape0"/>
    </g>
    <g id="shape0" transform="matrix(1.0, 0.0, 0.0, 1.0, 0.0, 0.0)">
      <path d="M71.65 5.9 L72.9 6.15 Q73.2 6.35 72.9 6.55 L71.8 6.6 70.65 6.3 Q70.4 6.1 71.0 6.0 L71.65 5.9" fill="#ffffff" fill-rule="evenodd" stroke="none"/>
      <path d="M81.55 3.45 L85.65 4.2 Q88.65 4.75 88.5 5.1 88.3 5.65 86.75 6.8 84.95 8.15 83.75 8.2 82.6 8.25 78.45 6.95 L73.1 5.1 Q71.65 4.55 69.8 3.45 67.75 2.3 67.45 1.65 67.15 1.1 68.0 0.5 68.45 0.2 68.9 0.0 L81.55 3.45" fill="#ffffff" fill-rule="evenodd" stroke="none"/>
      <path d="M28.6 64.1 Q24.1 65.25 25.6 66.3 26.35 66.8 28.0 67.1 24.4 67.9 21.8 66.7 17.65 64.8 14.0 64.5 11.5 64.3 8.7 61.55 5.4 58.25 5.65 54.15 L9.25 59.1 Q14.05 64.05 20.0 63.9 L31.65 62.75 Q37.2 62.0 40.75 62.9 42.85 63.45 42.45 63.5 L39.65 63.45 Q32.5 63.1 28.6 64.1" fill="#ffffff" fill-rule="evenodd" stroke="none"/>
      <path d="M8.15 21.8 Q3.8 26.55 3.65 29.4 L3.2 34.2 1.85 38.2 Q1.0 40.4 1.95 43.8 L3.05 46.75 Q2.15 45.6 1.35 44.0 -0.3 40.75 0.05 38.4 0.3 36.7 1.45 34.1 2.35 32.0 2.25 30.4 2.05 27.65 3.55 25.5 5.65 22.35 12.45 17.65 L8.15 21.8" fill="#ffffff" fill-rule="evenodd" stroke="none"/>
      <path d="M74.45 37.2 L77.05 38.45 Q79.6 40.25 79.6 42.95 79.6 45.75 78.45 47.75 L76.25 50.55 Q75.55 51.45 76.0 54.85 75.75 58.5 71.45 61.5 66.95 64.65 61.9 64.7 L57.7 64.1 62.2 63.75 Q67.25 62.95 70.25 60.7 73.45 58.3 74.55 55.8 75.25 54.05 75.05 51.75 74.95 50.55 75.8 49.35 77.05 47.5 77.85 45.15 78.8 42.15 76.75 39.4 L74.45 37.2" fill="#ffffff" fill-rule="evenodd" stroke="none"/>
      <path d="M77.9 20.1 Q76.15 17.65 73.25 17.0 71.7 16.7 70.35 14.3 68.55 11.05 66.65 9.45 64.15 7.35 59.6 6.3 L55.5 5.7 58.15 5.8 63.65 6.3 Q66.35 6.7 69.45 9.6 72.4 12.35 72.95 14.55 73.2 15.55 76.75 17.4 80.15 19.25 80.6 22.05 81.1 25.15 80.3 27.4 L79.4 29.0 Q80.2 23.4 77.9 20.1" fill="#ffffff" fill-rule="evenodd" stroke="none"/>
      <path d="M57.5 4.5 L52.8 4.25 Q47.7 4.25 45.75 5.5 43.75 6.7 39.05 7.0 L34.75 7.05 38.1 6.7 Q41.9 6.05 44.15 4.7 46.35 3.35 52.15 3.8 L57.5 4.5" fill="#ffffff" fill-rule="evenodd" stroke="none"/>
      <path d="M62.05 67.1 L59.85 67.7 55.1 67.5 49.9 66.15 42.75 65.7 Q36.75 65.9 41.55 65.3 L48.7 65.5 54.5 66.4 58.5 66.5 Q61.3 66.5 62.05 67.1" fill="#ffffff" fill-rule="evenodd" stroke="none"/>
      <path d="M2.95 58.2 Q0.15 54.3 0.65 48.35 L1.6 52.9 Q3.1 58.05 5.85 60.9 4.35 60.15 2.95 58.2" fill="#ffffff" fill-rule="evenodd" stroke="none"/>
      <path d="M81.5 37.65 Q83.9 40.05 83.4 43.75 82.9 47.5 81.3 49.7 L79.8 51.15 81.0 48.6 Q82.2 45.55 82.2 43.15 82.2 40.8 80.6 38.15 L79.0 36.0 81.5 37.65" fill="#ffffff" fill-rule="evenodd" stroke="none"/>
    </g>
    <g id="sprite2" transform="matrix(1.0, 0.0, 0.0, 1.0, 0.0, 0.0)">
      <use ffdec:characterId="1392" height="58.45" transform="matrix(1.0, 0.0, 0.0, 1.0, 0.0, 2.6)" width="87.55" xlink:href="#shape1"/>
    </g>
    <g id="shape1" transform="matrix(1.0, 0.0, 0.0, 1.0, 0.0, -2.6)">
      <path d="M83.3 33.45 Q76.35 34.95 74.65 36.5 72.75 38.25 73.8 39.75 L75.7 42.35 Q74.55 42.65 73.2 43.3 70.6 44.55 69.95 46.1 69.3 47.65 70.6 50.55 71.25 52.0 72.05 53.15 L77.8 55.25 Q65.25 57.3 60.0 57.3 L38.5 56.9 Q37.55 56.9 40.3 59.0 L43.25 61.05 23.85 57.3 Q17.05 56.1 0.0 49.95 L5.05 2.6 14.65 4.75 Q25.25 7.45 30.15 10.3 35.95 13.65 43.25 15.5 50.35 17.25 56.35 16.95 L71.05 17.8 79.9 19.0 71.5 21.5 71.35 23.5 Q71.5 25.8 73.1 27.35 74.7 28.9 79.95 30.25 L87.25 31.95 Q88.65 32.3 83.3 33.45" fill="#000000" fill-rule="evenodd" stroke="none"/>
      <path d="M37.2 35.1 L37.0 36.15 Q36.9 37.3 37.2 37.75 37.55 38.3 38.45 38.4 39.35 38.45 39.55 37.95 39.85 37.2 37.2 35.1 M35.6 34.4 L34.65 35.4 Q33.75 36.55 34.05 37.15 34.6 38.35 35.55 37.95 36.55 37.5 35.6 34.4 M32.65 32.4 Q36.0 30.55 34.45 27.4 32.9 24.2 29.2 24.9 L27.95 25.65 Q26.75 26.6 26.85 27.7 27.05 30.1 28.1 31.65 29.7 34.05 32.65 32.4 M40.6 33.65 Q43.15 34.0 44.85 32.1 46.6 30.15 44.55 27.7 42.55 25.3 40.65 26.8 39.75 27.35 38.95 28.2 37.3 29.85 37.65 31.4 38.15 33.3 40.6 33.65 M41.6 19.1 Q50.05 22.65 49.35 28.75 49.05 31.05 47.5 33.0 46.0 34.8 44.25 35.3 L44.25 36.7 Q44.35 38.4 44.7 39.6 45.35 41.6 32.65 39.8 30.35 39.5 29.8 38.9 28.85 37.95 29.5 34.95 27.5 34.0 25.6 32.45 21.75 29.35 22.15 26.25 22.75 21.45 27.35 18.8 33.1 15.5 41.6 19.1" fill="url(#gradient0)" fill-rule="evenodd" stroke="none"/>
      <path d="M23.85 41.8 L21.6 41.9 Q20.45 41.55 20.1 40.35 19.8 39.25 21.0 38.7 L22.25 38.4 22.05 37.15 Q22.05 35.9 23.1 35.6 24.15 35.35 25.15 37.0 L25.95 38.7 49.35 50.05 50.8 49.85 Q52.3 49.9 52.55 51.0 52.75 52.1 51.95 52.8 L51.1 53.3 Q51.75 54.4 51.15 55.0 50.6 55.55 49.65 55.35 48.95 55.2 48.5 54.2 L48.15 53.2 23.85 41.8" fill="url(#gradient1)" fill-rule="evenodd" stroke="none"/>
      <path d="M48.75 45.3 L24.5 49.9 Q24.1 51.7 22.95 51.6 22.0 51.55 21.45 50.85 20.85 50.05 21.5 49.2 L20.65 48.45 Q19.85 47.55 20.1 46.5 20.3 45.45 21.8 45.85 22.55 46.0 23.25 46.4 L46.65 41.6 47.45 40.1 Q48.5 38.75 49.55 39.3 50.6 39.85 50.55 41.15 L50.35 42.3 51.65 43.0 Q52.85 43.85 52.5 44.9 51.85 47.0 48.75 45.3" fill="url(#gradient2)" fill-rule="evenodd" stroke="none"/>
    </g>
    <linearGradient gradientTransform="matrix(0.0166, 0.0023, 0.0, -0.0166, 35.75, 28.8)" gradientUnits="userSpaceOnUse" id="gradient0" spreadMethod="pad" x1="-819.2" x2="819.2">
      <stop offset="0.0" stop-color="#ffffff"/>
      <stop offset="1.0" stop-color="#c7cacd"/>
    </linearGradient>
    <linearGradient gradientTransform="matrix(0.0198, 0.0028, 0.0, -0.0198, 36.3, 45.45)" gradientUnits="userSpaceOnUse" id="gradient1" spreadMethod="pad" x1="-819.2" x2="819.2">
      <stop offset="0.0" stop-color="#ffffff"/>
      <stop offset="1.0" stop-color="#c7cacd"/>
    </linearGradient>
    <linearGradient gradientTransform="matrix(0.0198, 0.0028, 0.0, -0.0198, 36.3, 45.45)" gradientUnits="userSpaceOnUse" id="gradient2" spreadMethod="pad" x1="-819.2" x2="819.2">
      <stop offset="0.0" stop-color="#ffffff"/>
      <stop offset="1.0" stop-color="#c7cacd"/>
    </linearGradient>
    <g id="shape2" transform="matrix(1.0, 0.0, 0.0, 1.0, -68.5, -8.4)">
      <path d="M77.4 11.4 Q85.05 16.2 85.95 22.9 L83.15 24.85 77.65 23.4 Q71.6 21.4 68.55 18.45 68.45 16.35 68.5 14.1 68.55 9.55 69.15 8.65 L72.0 8.85 Q74.6 9.65 77.4 11.4" fill="url(#gradient3)" fill-rule="evenodd" stroke="none"/>
    </g>
    <linearGradient gradientTransform="matrix(0.0106, 0.0, 0.0, -0.0106, 77.2, 16.65)" gradientUnits="userSpaceOnUse" id="gradient3" spreadMethod="pad" x1="-819.2" x2="819.2">
      <stop offset="0.0" stop-color="#c6b385"/>
      <stop offset="1.0" stop-color="#968a49"/>
    </linearGradient>
    <g id="sprite3" transform="matrix(1.0, 0.0, 0.0, 1.0, 0.0, 0.0)">
      <use ffdec:characterId="1400" height="13.5" transform="matrix(1.0, 0.0, 0.0, 1.0, 0.0, 0.0)" width="5.7" xlink:href="#shape3"/>
    </g>
    <g id="shape3" transform="matrix(1.0, 0.0, 0.0, 1.0, 0.0, 0.0)">
      <path d="M0.75 0.0 Q1.7 8.45 5.7 13.5 2.1 11.85 0.1 9.9 -0.3 1.5 0.7 0.1 L0.75 0.0" fill="#898644" fill-rule="evenodd" stroke="none"/>
    </g>
    <g id="sprite4" transform="matrix(1.0, 0.0, 0.0, 1.0, 0.0, 0.0)">
      <use ffdec:characterId="1402" height="11.25" transform="matrix(1.0, 0.0, 0.0, 1.0, 0.0, 0.0)" width="5.6" xlink:href="#shape4"/>
    </g>
    <g id="shape4" transform="matrix(1.0, 0.0, 0.0, 1.0, 0.0, 0.0)">
      <path d="M1.55 7.8 Q2.35 8.95 5.6 11.25 2.0 9.55 0.1 7.7 -0.15 2.95 0.15 0.0 0.6 6.35 1.55 7.8" fill="#898644" fill-rule="evenodd" stroke="none"/>
    </g>
    <g id="sprite5" transform="matrix(1.0, 0.0, 0.0, 1.0, 0.0, 0.0)">
      <use ffdec:characterId="1404" height="15.4" transform="matrix(1.0, 0.0, 0.0, 1.0, 0.0, 0.0)" width="14.7" xlink:href="#shape5"/>
    </g>
    <g id="shape5" transform="matrix(1.0, 0.0, 0.0, 1.0, 0.0, 0.0)">
      <path d="M14.7 13.95 L12.6 15.4 Q8.9 14.75 4.95 13.15 3.6 11.1 2.5 8.6 0.4 4.05 0.0 0.0 3.0 0.75 6.3 2.85 13.0 7.1 14.7 13.95" fill="#898644" fill-rule="evenodd" stroke="none"/>
    </g>
    <g id="sprite6" transform="matrix(1.0, 0.0, 0.0, 1.0, 0.0, 0.0)">
      <use ffdec:characterId="1406" height="11.95" transform="matrix(1.0, 0.0, 0.0, 1.0, 0.0, 0.0)" width="12.4" xlink:href="#shape6"/>
    </g>
    <g id="shape6" transform="matrix(1.0, 0.0, 0.0, 1.0, 0.0, 0.0)">
      <path d="M4.9 0.0 Q10.8 4.1 12.4 10.5 L10.3 11.95 Q6.6 11.3 2.65 9.7 1.2 7.45 0.0 4.75 L4.9 0.0" fill="#898644" fill-rule="evenodd" stroke="none"/>
    </g>
    <g id="sprite7" transform="matrix(1.0, 0.0, 0.0, 1.0, 0.0, 0.0)">
      <use ffdec:characterId="1408" height="11.75" transform="matrix(1.0, 0.0, 0.0, 1.0, 0.0, 0.0)" width="11.95" xlink:href="#shape7"/>
    </g>
    <g id="shape7" transform="matrix(1.0, 0.0, 0.0, 1.0, 0.0, 0.0)">
      <path d="M2.25 1.95 L2.6 1.6 10.2 11.5 9.85 11.75 9.75 11.75 2.25 1.95 M0.0 4.1 L0.35 3.75 6.15 10.9 5.3 10.6 0.0 4.1 M11.75 9.7 L11.95 10.3 11.7 10.45 3.9 0.35 4.25 0.0 11.75 9.7" fill="#898644" fill-rule="evenodd" stroke="none"/>
    </g>
    <g id="sprite8" transform="matrix(1.0, 0.0, 0.0, 1.0, 0.0, 0.0)">
      <use ffdec:characterId="1410" height="12.15" transform="matrix(1.0, 0.0, 0.0, 1.0, 0.0, 0.0)" width="12.45" xlink:href="#shape8"/>
    </g>
    <g id="shape8" transform="matrix(1.0, 0.0, 0.0, 1.0, 0.0, 0.0)">
      <path d="M12.35 8.0 Q12.65 8.8 11.9 9.45 11.3 10.0 10.75 10.0 L10.15 9.85 9.55 9.7 8.85 9.6 Q8.35 9.55 8.25 9.8 L8.05 10.25 8.05 10.8 8.8 11.55 Q9.3 11.9 8.75 12.15 L4.35 10.65 Q1.3 5.95 0.0 0.85 L0.05 0.85 0.55 1.25 1.1 1.5 1.3 1.95 1.45 1.45 Q1.6 0.45 1.85 0.25 2.2 -0.05 2.55 0.05 L3.0 0.4 Q3.2 0.85 4.0 0.9 L5.25 1.65 5.7 1.6 Q5.9 1.6 6.3 1.95 7.25 2.7 7.25 3.0 L7.3 3.95 7.15 4.7 Q5.95 5.0 5.7 5.35 5.45 5.65 7.6 6.8 L7.55 7.0 8.4 6.9 9.45 6.35 10.15 6.3 10.9 6.6 11.2 6.95 Q11.25 7.05 11.7 7.15 L12.35 8.0" fill="#86c54b" fill-rule="evenodd" stroke="none"/>
    </g>
    <g id="sprite9" transform="matrix(1.0, 0.0, 0.0, 1.0, 0.0, 0.0)">
      <use ffdec:characterId="1412" height="14.55" transform="matrix(1.0, 0.0, 0.0, 1.0, 0.0, 0.0)" width="14.7" xlink:href="#shape9"/>
    </g>
    <g id="shape9" transform="matrix(1.0, 0.0, 0.0, 1.0, 0.0, 0.0)">
      <path d="M0.0 0.0 Q3.0 0.75 6.3 2.85 13.0 7.1 14.7 13.95 L13.85 14.55 Q11.65 8.75 8.85 6.2 5.1 2.75 0.1 0.95 L0.0 0.0" fill="#898644" fill-rule="evenodd" stroke="none"/>
    </g>
    <g id="shape10" transform="matrix(1.0, 0.0, 0.0, 1.0, -63.5, -2.35)">
      <path d="M70.05 8.45 Q69.65 8.5 69.45 9.1 L69.3 9.7 68.65 10.85 63.65 3.4 63.5 3.05 Q63.45 2.65 63.65 2.5 L64.45 2.45 70.05 8.45" fill="url(#gradient4)" fill-rule="evenodd" stroke="none"/>
    </g>
    <linearGradient gradientTransform="matrix(0.004, 0.0, 0.0, -0.004, 66.75, 6.6)" gradientUnits="userSpaceOnUse" id="gradient4" spreadMethod="pad" x1="-819.2" x2="819.2">
      <stop offset="0.0" stop-color="#c6b385"/>
      <stop offset="1.0" stop-color="#968a49"/>
    </linearGradient>
    <g id="sprite10" transform="matrix(1.0, 0.0, 0.0, 1.0, 0.05, 0.0)">
      <use ffdec:characterId="1415" height="8.45" transform="matrix(1.0, 0.0, 0.0, 1.0, -0.05, 0.0)" width="5.9" xlink:href="#shape11"/>
    </g>
    <g id="shape11" transform="matrix(1.0, 0.0, 0.0, 1.0, 0.05, 0.0)">
      <path d="M0.35 0.0 L5.85 6.95 5.8 7.3 5.15 8.45 0.15 1.0 Q-0.2 0.35 0.15 0.1 L0.35 0.0" fill="#898644" fill-rule="evenodd" stroke="none"/>
    </g>
    <g id="sprite11" transform="matrix(1.0, 0.0, 0.0, 1.0, 0.0, 0.0)">
      <use ffdec:characterId="1417" height="8.0" transform="matrix(1.0, 0.0, 0.0, 1.0, 0.0, 0.0)" width="5.4" xlink:href="#shape12"/>
    </g>
    <g id="shape12" transform="matrix(1.0, 0.0, 0.0, 1.0, 0.0, 0.0)">
      <path d="M5.4 7.5 L5.15 8.0 0.15 0.55 0.0 0.0 5.4 7.5" fill="#898644" fill-rule="evenodd" stroke="none"/>
    </g>
    <g id="shape13" transform="matrix(1.0, 0.0, 0.0, 1.0, -72.8, 0.0)">
      <path d="M87.35 22.6 L83.55 24.95 78.9 23.9 85.85 17.8 88.8 19.75 87.35 22.6" fill="#615435" fill-rule="evenodd" stroke="none"/>
      <path d="M85.85 17.8 L88.8 19.75 82.75 24.8 78.9 23.9 85.85 17.8" fill="url(#gradient5)" fill-rule="evenodd" stroke="none"/>
      <path d="M75.25 1.3 L75.25 0.7 75.4 0.0 75.85 0.1 76.05 0.95 74.5 13.0 Q74.0 13.65 73.4 13.5 L72.9 13.1 72.8 12.85 75.25 1.3" fill="url(#gradient6)" fill-rule="evenodd" stroke="none"/>
    </g>
    <linearGradient gradientTransform="matrix(0.006, 0.0, 0.0, -0.006, 83.85, 21.3)" gradientUnits="userSpaceOnUse" id="gradient5" spreadMethod="pad" x1="-819.2" x2="819.2">
      <stop offset="0.0" stop-color="#c6b385"/>
      <stop offset="1.0" stop-color="#968a49"/>
    </linearGradient>
    <linearGradient gradientTransform="matrix(0.002, 0.0, 0.0, -0.002, 74.45, 6.75)" gradientUnits="userSpaceOnUse" id="gradient6" spreadMethod="pad" x1="-819.2" x2="819.2">
      <stop offset="0.0" stop-color="#c6b385"/>
      <stop offset="1.0" stop-color="#968a49"/>
    </linearGradient>
    <g id="sprite12" transform="matrix(1.0, 0.0, 0.0, 1.0, 0.0, 0.0)">
      <use ffdec:characterId="1420" height="13.0" transform="matrix(1.0, 0.0, 0.0, 1.0, 0.0, 0.0)" width="2.55" xlink:href="#shape14"/>
    </g>
    <g id="shape14" transform="matrix(1.0, 0.0, 0.0, 1.0, 0.0, 0.0)">
      <path d="M2.45 0.0 L2.55 0.45 1.0 12.5 Q0.55 13.05 0.0 13.0 L2.45 0.0" fill="#898644" fill-rule="evenodd" stroke="none"/>
    </g>
    <g id="sprite14" transform="matrix(1.0, 0.0, 0.0, 1.0, 0.0, 0.0)">
      <use ffdec:characterId="1423" height="12.35" transform="matrix(1.0, 0.0, 0.0, 1.0, 0.0, 0.0)" width="13.7" xlink:href="#shape15"/>
    </g>
    <g id="shape15" transform="matrix(1.0, 0.0, 0.0, 1.0, 0.0, 0.0)">
      <path d="M13.5 11.2 L13.65 11.15 13.6 11.6 13.35 12.35 Q4.25 10.25 0.1 6.2 L0.05 0.0 0.25 0.2 0.35 1.0 0.35 1.9 Q0.35 2.75 0.7 3.0 L0.9 3.05 1.2 3.05 1.65 3.15 1.8 3.55 2.0 4.4 2.0 5.05 1.7 5.4 1.5 5.65 1.35 6.3 Q1.3 6.75 1.85 6.9 L3.15 7.15 3.35 6.8 Q3.6 6.5 3.95 7.05 L4.35 7.8 4.85 8.1 5.15 8.45 5.85 8.6 7.0 8.55 7.65 8.1 Q7.85 7.95 7.65 7.25 L8.35 7.3 9.75 8.3 Q10.1 8.65 9.65 8.85 L8.95 9.05 Q8.6 9.2 8.7 9.6 L9.5 10.75 10.7 11.35 11.1 11.1 Q11.35 10.8 11.55 10.8 L12.0 10.7 12.55 10.8 13.5 11.2" fill="#86c54b" fill-rule="evenodd" stroke="none"/>
    </g>
    <g id="shape16" transform="matrix(1.0, 0.0, 0.0, 1.0, -71.25, -17.65)">
      <path d="M76.4 17.7 Q77.55 17.5 77.8 18.25 L77.85 19.05 72.8 23.3 71.75 23.55 71.25 23.3 76.4 17.7" fill="url(#gradient7)" fill-rule="evenodd" stroke="none"/>
    </g>
    <linearGradient gradientTransform="matrix(0.004, 0.0, 0.0, -0.004, 74.6, 20.6)" gradientUnits="userSpaceOnUse" id="gradient7" spreadMethod="pad" x1="-819.2" x2="819.2">
      <stop offset="0.0" stop-color="#c6b385"/>
      <stop offset="1.0" stop-color="#968a49"/>
    </linearGradient>
    <g id="sprite15" transform="matrix(1.0, 0.0, 0.0, 1.0, 0.0, 0.0)">
      <use ffdec:characterId="1426" height="5.8" transform="matrix(1.0, 0.0, 0.0, 1.0, 0.0, 0.0)" width="6.15" xlink:href="#shape17"/>
    </g>
    <g id="shape17" transform="matrix(1.0, 0.0, 0.0, 1.0, 0.0, 0.0)">
      <path d="M1.05 5.5 Q0.75 5.8 0.25 5.8 L5.35 0.65 0.0 5.75 5.65 0.0 Q6.3 0.35 6.1 1.25 L1.05 5.5" fill="#898644" fill-rule="evenodd" stroke="none"/>
    </g>
    <g id="shape18" transform="matrix(1.0, 0.0, 0.0, 1.0, -78.65, -21.5)">
      <path d="M82.85 21.5 Q83.8 21.4 84.0 22.0 L84.05 22.65 79.9 26.1 79.05 26.3 78.65 26.1 82.85 21.5" fill="url(#gradient8)" fill-rule="evenodd" stroke="none"/>
    </g>
    <linearGradient gradientTransform="matrix(0.0033, 0.0, 0.0, -0.0033, 81.35, 23.9)" gradientUnits="userSpaceOnUse" id="gradient8" spreadMethod="pad" x1="-819.2" x2="819.2">
      <stop offset="0.0" stop-color="#c6b385"/>
      <stop offset="1.0" stop-color="#968a49"/>
    </linearGradient>
    <g id="sprite16" transform="matrix(1.0, 0.0, 0.0, 1.0, 0.0, 0.0)">
      <use ffdec:characterId="1429" height="4.7" transform="matrix(1.0, 0.0, 0.0, 1.0, 0.0, 0.0)" width="5.05" xlink:href="#shape19"/>
    </g>
    <g id="shape19" transform="matrix(1.0, 0.0, 0.0, 1.0, 0.0, 0.0)">
      <path d="M0.85 4.5 L0.2 4.7 4.35 0.5 0.0 4.7 4.65 0.0 Q5.15 0.3 5.0 1.05 L0.85 4.5" fill="#898644" fill-rule="evenodd" stroke="none"/>
    </g>
    <g id="shape20" transform="matrix(1.0, 0.0, 0.0, 1.0, -64.7, -1.0)">
      <path d="M82.85 21.75 Q83.05 21.5 83.35 21.6 L79.2 25.85 82.85 21.75" fill="#d6c7b6" fill-rule="evenodd" stroke="none"/>
      <path d="M76.55 17.8 L76.95 17.85 71.7 23.2 76.55 17.8" fill="#d6c7b6" fill-rule="evenodd" stroke="none"/>
      <path d="M75.6 1.0 L73.3 13.05 Q72.95 13.15 72.95 12.9 L75.6 1.0" fill="#d6c7b6" fill-rule="evenodd" stroke="none"/>
      <path d="M69.35 8.1 Q69.6 8.65 69.35 8.75 L64.7 2.95 69.35 8.1" fill="#d6c7b6" fill-rule="evenodd" stroke="none"/>
    </g>
    <g id="sprite17" transform="matrix(1.0, 0.0, 0.0, 1.0, 0.0, 0.0)">
      <use ffdec:characterId="1432" height="4.5" transform="matrix(1.0, 0.0, 0.0, 1.0, 0.0, 0.0)" width="3.8" xlink:href="#shape21"/>
    </g>
    <g id="shape21" transform="matrix(1.0, 0.0, 0.0, 1.0, 0.0, 0.0)">
      <path d="M3.55 0.5 Q3.9 1.05 3.75 1.45 L3.6 1.85 2.95 2.25 Q2.45 2.5 2.5 2.75 L2.5 3.25 Q2.35 3.75 1.25 4.25 L0.15 4.5 Q-0.05 4.5 0.05 4.3 L0.3 3.8 0.55 3.4 1.1 2.75 Q1.6 2.0 1.2 1.95 L0.9 1.35 0.85 1.0 1.05 0.6 1.4 0.3 2.2 0.2 2.75 0.0 Q3.25 -0.1 3.55 0.5" fill="#86c54b" fill-rule="evenodd" stroke="none"/>
    </g>
    <g id="sprite18" transform="matrix(1.0, 0.0, 0.0, 1.0, -0.05, -0.05)">
      <use ffdec:characterId="1434" height="5.85" transform="matrix(1.0, 0.0, 0.0, 1.0, 0.05, 0.05)" width="3.25" xlink:href="#shape22"/>
    </g>
    <g id="shape22" transform="matrix(1.0, 0.0, 0.0, 1.0, -0.05, -0.05)">
      <path d="M0.35 0.05 L0.9 0.25 1.85 1.2 2.05 1.55 2.3 2.2 2.7 2.7 3.15 3.7 Q3.45 4.85 3.15 5.55 L2.85 5.9 2.55 5.9 Q2.05 6.0 2.05 4.65 L2.05 3.9 1.75 3.3 1.1 2.4 0.6 1.6 0.4 1.25 0.15 0.55 Q-0.05 0.05 0.1 0.05 L0.35 0.05" fill="#86c54b" fill-rule="evenodd" stroke="none"/>
    </g>
    <g id="shape23" transform="matrix(1.0, 0.0, 0.0, 1.0, -4.0, -25.6)">
      <path d="M54.15 45.85 Q49.8 44.2 47.35 43.75 44.3 43.25 39.35 43.6 34.4 43.9 32.15 47.9 30.05 51.65 32.05 54.75 33.7 57.3 37.3 57.9 39.15 58.25 43.25 58.0 L46.75 58.2 51.65 57.6 Q54.7 56.9 55.8 54.9 57.0 52.75 57.9 52.4 L64.05 52.65 Q67.9 53.55 71.35 55.15 74.3 56.55 75.05 59.6 75.75 62.35 74.4 63.95 74.15 64.25 74.0 67.3 73.85 70.1 70.4 73.5 66.45 77.5 59.45 78.8 53.2 79.95 50.55 78.35 48.35 77.05 43.95 76.5 39.7 75.95 36.9 76.45 L30.45 77.7 Q25.75 78.35 20.3 77.8 14.3 77.15 9.55 72.2 5.25 67.7 4.3 62.55 3.6 58.65 4.5 55.55 5.85 51.75 6.6 48.8 8.4 41.85 19.3 33.35 25.7 28.4 35.2 28.05 L41.05 27.1 Q45.15 26.1 52.05 25.7 60.0 25.2 65.15 27.85 67.95 29.25 70.15 31.95 71.65 33.85 77.7 40.0 L78.55 41.4 Q79.3 43.1 78.65 44.45 77.1 47.6 73.65 47.95 L69.8 47.75 65.5 47.55 Q62.75 47.75 60.8 47.55 57.65 47.25 54.15 45.85" fill="url(#gradient9)" fill-rule="evenodd" stroke="none"/>
    </g>
    <linearGradient gradientTransform="matrix(0.0457, 0.0, 0.0, -0.0457, 41.45, 52.4)" gradientUnits="userSpaceOnUse" id="gradient9" spreadMethod="pad" x1="-819.2" x2="819.2">
      <stop offset="0.0" stop-color="#fef6d2"/>
      <stop offset="1.0" stop-color="#ffe5c5"/>
    </linearGradient>
    <g id="sprite19" transform="matrix(1.0, 0.0, 0.0, 1.0, -0.05, 0.0)">
      <use ffdec:characterId="1437" height="53.7" transform="matrix(1.0, 0.0, 0.0, 1.0, 0.05, 0.0)" width="74.95" xlink:href="#shape24"/>
    </g>
    <g id="shape24" transform="matrix(1.0, 0.0, 0.0, 1.0, -0.05, 0.0)">
      <path d="M61.2 2.25 Q64.0 3.65 66.2 6.35 67.7 8.25 73.75 14.4 L74.6 15.8 Q75.35 17.5 74.7 18.85 73.15 22.0 69.7 22.35 L65.85 22.15 61.55 21.95 Q58.8 22.15 56.85 21.95 53.7 21.65 50.2 20.25 46.55 18.85 45.1 18.55 L56.35 17.75 64.1 17.1 Q67.95 16.4 68.45 14.6 68.95 12.7 64.95 8.5 61.2 4.65 58.45 3.35 54.65 1.6 43.2 2.4 28.45 3.35 17.25 9.35 L14.7 11.7 Q11.1 15.25 9.9 19.0 9.2 21.05 8.65 24.5 7.45 28.45 7.3 30.65 6.95 34.75 8.95 37.45 L13.05 43.05 Q15.85 45.55 21.75 45.15 L34.15 44.2 Q40.3 44.0 43.4 45.6 47.45 47.75 52.9 47.15 59.0 46.5 62.4 42.6 68.4 35.7 64.55 30.4 63.35 28.7 57.8 26.65 62.5 27.3 67.4 29.55 70.35 30.95 71.1 34.0 71.8 36.75 70.45 38.35 70.2 38.65 70.05 41.7 69.9 44.5 66.45 47.9 62.5 51.9 55.5 53.2 49.25 54.35 46.6 52.75 44.4 51.45 40.0 50.9 35.75 50.35 32.95 50.85 L26.5 52.1 Q21.8 52.75 16.35 52.2 10.35 51.55 5.6 46.6 1.3 42.1 0.35 36.95 -0.35 33.05 0.55 29.95 1.9 26.15 2.65 23.2 4.45 16.25 15.35 7.75 21.75 2.8 31.25 2.45 L37.1 1.5 Q41.2 0.5 48.1 0.1 56.05 -0.4 61.2 2.25" fill="#f6e3c1" fill-rule="evenodd" stroke="none"/>
    </g>
    <g id="sprite20" transform="matrix(1.0, 0.0, 0.0, 1.0, -0.05, 0.0)">
      <use ffdec:characterId="1439" height="53.7" transform="matrix(1.0, 0.0, 0.0, 1.0, 0.05, 0.0)" width="74.95" xlink:href="#shape25"/>
    </g>
    <g id="shape25" transform="matrix(1.0, 0.0, 0.0, 1.0, -0.05, 0.0)">
      <path d="M69.2 37.05 Q70.45 35.25 68.6 32.5 66.85 29.85 63.9 28.7 60.3 27.2 57.25 26.6 62.1 27.05 67.4 29.55 70.35 30.95 71.1 34.0 71.8 36.75 70.45 38.35 70.2 38.65 70.05 41.7 69.9 44.5 66.45 47.9 62.5 51.9 55.5 53.2 49.25 54.35 46.6 52.75 44.4 51.45 40.0 50.9 35.75 50.35 32.95 50.85 L26.5 52.1 Q21.8 52.75 16.35 52.2 10.35 51.55 5.6 46.6 1.3 42.1 0.35 36.95 -0.35 33.05 0.55 29.95 1.9 26.15 2.65 23.2 4.45 16.25 15.35 7.75 17.95 5.75 20.85 4.55 18.3 6.3 18.15 6.55 L13.05 10.85 Q7.7 15.65 6.7 18.2 6.0 19.95 5.8 22.9 5.7 25.1 4.45 26.5 2.75 28.4 2.65 30.7 2.55 32.95 3.95 36.1 L5.85 39.8 Q6.45 40.95 6.6 42.7 6.85 45.1 9.65 47.35 12.65 49.75 16.1 49.7 18.5 49.65 20.85 48.6 23.15 47.5 25.55 47.45 L32.7 46.95 Q36.9 46.85 40.4 48.2 L47.25 50.65 53.95 51.05 Q58.0 50.6 61.6 48.8 64.95 47.15 67.4 44.6 69.15 42.85 68.85 40.55 68.5 38.05 69.2 37.05 M61.2 2.25 Q64.0 3.65 66.2 6.35 67.7 8.25 73.75 14.4 L74.6 15.8 Q75.35 17.5 74.7 18.85 73.15 22.0 69.7 22.35 L65.85 22.15 61.55 21.95 57.15 22.0 Q54.25 21.7 51.05 20.55 L57.95 20.35 64.4 19.8 68.05 20.1 71.75 19.7 Q73.7 19.05 73.65 17.05 73.6 15.3 70.75 12.75 66.95 9.35 66.35 8.45 64.5 5.7 61.75 3.65 58.25 1.15 54.25 0.65 50.6 0.25 45.0 0.75 L36.3 1.7 Q40.45 0.6 48.1 0.1 56.05 -0.4 61.2 2.25" fill="#f6e3c1" fill-rule="evenodd" stroke="none"/>
    </g>
    <g id="sprite21" transform="matrix(1.0, 0.0, 0.0, 1.0, -0.05, 0.0)">
      <use ffdec:characterId="1441" height="36.15" transform="matrix(1.0, 0.0, 0.0, 1.0, 0.05, 0.0)" width="74.95" xlink:href="#shape26"/>
    </g>
    <g id="shape26" transform="matrix(1.0, 0.0, 0.0, 1.0, -0.05, 0.0)">
      <path d="M67.3 11.95 L67.4 12.0 Q70.35 13.4 71.1 16.45 71.8 19.2 70.45 20.8 70.2 21.1 70.05 24.15 69.9 26.95 66.45 30.35 62.5 34.35 55.5 35.65 49.25 36.8 46.6 35.2 44.4 33.9 40.0 33.35 35.75 32.8 32.95 33.3 L26.5 34.55 Q21.8 35.2 16.35 34.65 10.35 34.0 5.6 29.05 1.3 24.55 0.35 19.4 -0.35 15.5 0.55 12.4 1.9 8.6 2.65 5.65 3.15 3.55 4.9 0.75 3.2 4.45 3.5 5.75 3.7 6.65 2.6 8.9 1.35 11.5 1.15 13.05 0.85 15.3 1.9 19.05 2.9 22.7 4.05 24.1 L7.3 29.3 Q10.35 33.3 15.25 33.75 19.2 34.15 25.7 32.5 32.3 30.8 36.55 31.1 40.4 31.4 44.85 33.75 48.6 35.75 52.85 35.4 58.6 34.9 63.7 31.9 68.55 29.05 69.2 26.3 69.6 24.65 69.6 22.3 69.6 20.6 70.15 19.85 71.1 18.6 70.6 16.45 70.05 14.0 67.8 12.3 L67.3 11.95 M75.0 0.0 L74.7 1.3 Q73.15 4.45 69.7 4.8 L65.85 4.6 61.55 4.4 55.35 4.2 59.65 4.05 Q63.5 3.15 67.9 3.95 69.9 4.3 72.0 3.4 74.2 2.45 74.8 0.75 L75.0 0.0" fill="#d4c8ae" fill-rule="evenodd" stroke="none"/>
    </g>
    <g id="shape27" transform="matrix(1.0, 0.0, 0.0, 1.0, -10.8, -17.5)">
      <path d="M45.5 34.05 L49.2 35.1 Q51.25 35.65 51.75 36.5 L54.55 39.8 Q56.8 42.4 57.05 43.5 57.4 44.8 59.1 46.05 60.45 47.1 61.95 47.65 58.15 47.45 54.15 45.85 49.8 44.2 47.35 43.75 44.3 43.25 39.35 43.6 34.4 43.9 32.15 47.9 30.05 51.65 32.05 54.75 33.7 57.3 37.3 57.9 39.15 58.25 43.25 58.0 L46.75 58.2 51.65 57.6 Q54.7 56.9 55.8 54.9 57.0 52.75 57.9 52.4 L60.45 52.15 Q59.35 54.15 59.8 55.8 60.1 56.85 61.45 58.6 62.65 60.1 62.65 61.1 L62.5 63.25 61.6 64.6 57.8 65.1 Q54.35 65.3 53.2 66.6 51.85 68.15 49.4 68.6 L46.15 68.4 45.1 67.15 Q44.25 66.4 41.25 66.6 L36.3 67.25 32.05 67.55 Q29.75 67.5 27.75 66.6 L24.95 65.45 Q23.3 65.25 21.55 63.9 19.5 62.4 19.2 60.65 L18.1 55.75 Q17.6 52.5 18.8 51.05 20.25 49.35 21.15 47.15 22.05 44.95 22.05 43.1 22.05 41.2 24.3 38.85 26.65 36.35 30.05 35.05 33.4 33.75 38.7 33.5 L45.5 34.05" fill="#009741" fill-rule="evenodd" stroke="none"/>
      <path d="M21.15 47.15 Q22.05 44.95 22.05 43.1 22.05 41.2 24.3 38.85 26.65 36.35 30.05 35.05 L32.1 34.45 Q24.4 38.15 23.45 41.15 22.9 42.85 22.75 44.6 L22.2 46.8 20.2 49.6 Q18.8 51.55 18.65 52.95 18.5 54.75 19.4 57.5 20.4 60.4 21.8 62.0 22.95 63.25 24.4 63.6 L26.9 64.25 29.15 65.5 Q30.5 66.1 33.1 66.1 L37.6 65.25 42.9 65.05 Q45.4 65.5 47.3 66.45 L49.9 66.65 Q51.15 66.3 52.95 65.1 54.4 64.15 55.7 64.1 L59.65 63.55 Q61.75 62.9 61.65 61.3 61.55 59.8 61.15 58.9 L60.2 57.1 59.25 55.05 Q58.85 54.0 59.15 53.1 59.35 52.65 58.8 52.2 L60.45 52.15 Q59.35 54.15 59.8 55.8 60.1 56.85 61.45 58.6 62.65 60.1 62.65 61.1 L62.5 63.25 61.6 64.6 57.8 65.1 Q54.35 65.3 53.2 66.6 51.85 68.15 49.4 68.6 L46.15 68.4 45.1 67.15 Q44.25 66.4 41.25 66.6 L36.3 67.25 32.05 67.55 Q29.75 67.5 27.75 66.6 L24.95 65.45 Q23.3 65.25 21.55 63.9 19.5 62.4 19.2 60.65 L18.1 55.75 Q17.6 52.5 18.8 51.05 20.25 49.35 21.15 47.15" fill="#007328" fill-rule="evenodd" stroke="none"/>
      <path d="M51.45 43.05 Q54.3 44.4 58.5 45.55 60.0 46.95 61.95 47.65 58.15 47.45 54.15 45.85 49.8 44.2 47.35 43.75 44.3 43.25 39.35 43.6 34.4 43.9 32.15 47.9 30.05 51.65 32.05 54.75 33.7 57.3 37.3 57.9 39.15 58.25 43.25 58.0 L46.75 58.2 51.65 57.6 Q54.7 56.9 55.8 54.9 57.0 52.75 57.9 52.4 L60.45 52.15 60.35 52.4 Q58.1 52.7 57.0 54.0 56.4 54.75 55.75 56.2 55.15 57.2 52.05 58.25 49.0 59.25 47.6 59.05 L38.2 58.75 Q30.2 58.75 28.2 53.75 26.9 50.55 28.5 47.05 30.35 43.1 35.1 41.4 39.55 39.85 44.8 40.8 48.35 41.45 51.45 43.05" fill="#005d1f" fill-rule="evenodd" stroke="none"/>
      <path d="M48.25 42.95 Q50.75 43.55 54.7 45.4 57.1 46.5 60.45 46.95 L61.95 47.65 Q58.15 47.45 54.15 45.85 49.8 44.2 47.35 43.75 44.3 43.25 39.35 43.6 34.4 43.9 32.15 47.9 30.05 51.65 32.05 54.75 L33.05 55.95 Q31.45 54.75 30.75 53.05 29.6 50.35 31.25 47.45 33.25 43.85 38.5 42.85 43.55 41.85 48.25 42.95" fill="#003e16" fill-rule="evenodd" stroke="none"/>
      <path d="M46.3 35.65 Q48.55 36.3 49.6 37.35 L52.8 40.8 Q54.8 43.05 54.05 42.8 L45.55 39.55 Q42.9 38.5 38.75 39.15 34.25 39.8 31.3 42.15 25.6 46.75 27.5 54.35 28.25 57.5 30.15 58.7 31.6 59.65 34.15 59.6 L42.55 59.9 44.65 60.7 Q45.7 61.1 46.3 60.7 47.15 60.1 52.8 59.0 54.4 58.65 55.85 57.45 L57.0 56.3 Q58.0 55.35 58.65 56.75 59.25 58.0 59.0 59.05 58.65 61.0 54.5 60.65 52.5 60.45 51.45 61.75 L49.6 63.8 47.1 63.85 43.6 62.45 39.5 62.6 Q37.15 63.7 35.8 63.95 33.95 64.3 32.15 63.35 30.45 62.45 29.65 61.0 29.1 59.9 27.7 60.25 L25.05 60.85 Q23.65 60.85 22.6 59.0 21.6 57.2 21.5 54.65 21.4 52.55 22.4 51.1 L24.35 48.75 Q25.2 47.5 25.5 45.85 25.7 44.5 25.45 43.25 25.25 42.05 25.8 40.5 26.45 38.7 27.7 38.05 28.95 37.35 31.7 36.95 L35.8 36.55 Q36.7 36.55 38.7 35.8 40.7 35.05 42.1 35.05 L46.3 35.65" fill="#0ab85c" fill-rule="evenodd" stroke="none"/>
      <path d="M60.7 30.35 Q63.3 30.45 66.05 33.9 68.65 37.15 68.55 39.35 68.4 41.3 63.45 41.3 58.55 41.25 58.05 39.35 57.8 38.4 53.55 35.05 49.95 32.2 51.05 31.0 52.3 29.65 56.65 29.85 L60.7 30.35" fill="#fffae6" fill-rule="evenodd" stroke="none"/>
      <path d="M19.05 40.5 Q21.65 40.25 19.45 45.35 17.2 50.5 15.7 48.5 14.45 46.85 16.65 43.5 L19.05 40.5" fill="#fffae6" fill-rule="evenodd" stroke="none"/>
      <path d="M23.35 67.65 Q18.75 67.8 16.35 64.6 14.55 62.2 14.7 59.85 14.8 58.3 16.35 59.2 17.9 60.1 18.55 62.15 19.05 63.95 21.25 65.95 L23.35 67.65" fill="#fffae6" fill-rule="evenodd" stroke="none"/>
      <path d="M66.95 56.3 Q68.3 57.6 67.8 60.15 67.4 62.4 66.3 63.4 65.4 64.15 65.1 63.6 64.85 63.1 64.75 60.85 64.7 59.5 62.85 57.4 61.25 55.6 61.7 54.7 L64.65 54.8 Q65.85 55.45 66.95 56.3" fill="#fffae6" fill-rule="evenodd" stroke="none"/>
      <path d="M59.35 67.2 Q61.7 67.1 61.45 68.3 61.2 69.5 58.8 70.4 56.55 71.3 54.8 70.8 53.15 70.35 53.7 69.25 54.1 68.4 56.75 67.7 L59.35 67.2" fill="#fffae6" fill-rule="evenodd" stroke="none"/>
      <path d="M34.35 71.75 Q34.45 73.15 33.7 72.95 32.95 72.8 32.9 72.15 32.85 71.75 33.6 71.7 L34.35 71.75" fill="#878e94" fill-rule="evenodd" stroke="none"/>
      <path d="M43.05 28.65 Q43.1 30.05 42.4 29.85 41.65 29.7 41.6 29.05 41.55 28.65 42.3 28.6 L43.05 28.65" fill="#878e94" fill-rule="evenodd" stroke="none"/>
      <path d="M66.1 69.15 L66.85 69.15 Q67.6 69.2 67.55 69.55 67.5 70.2 66.75 70.4 66.0 70.55 66.1 69.15" fill="#878e94" fill-rule="evenodd" stroke="none"/>
      <path d="M74.95 44.15 L75.7 44.15 Q76.5 44.2 76.45 44.55 76.35 45.25 75.65 45.4 74.9 45.55 74.95 44.15" fill="#878e94" fill-rule="evenodd" stroke="none"/>
      <path d="M16.55 37.65 L17.3 37.6 Q18.05 37.65 18.0 38.05 17.95 38.7 17.2 38.85 16.45 39.05 16.55 37.65" fill="#878e94" fill-rule="evenodd" stroke="none"/>
      <path d="M13.5 66.25 L13.5 67.7 14.8 67.45 13.9 68.5 15.0 70.05 13.05 69.4 12.15 70.35 11.85 68.9 11.15 68.2 12.25 68.1 13.5 66.25" fill="#f6ab48" fill-rule="evenodd" stroke="none"/>
      <path d="M67.6 58.45 L68.5 60.4 69.6 60.65 68.8 61.3 68.25 62.65 67.55 61.65 65.5 61.95 66.8 60.6 66.1 59.45 67.4 59.85 67.6 58.45" fill="#f6ab48" fill-rule="evenodd" stroke="none"/>
      <path d="M61.0 28.4 L60.25 28.8 59.7 29.7 58.95 29.05 56.9 29.25 Q57.6 28.85 58.25 28.4 L57.55 27.65 58.8 27.9 59.05 26.95 59.95 28.25 61.0 28.4" fill="#f6ab48" fill-rule="evenodd" stroke="none"/>
      <path d="M19.65 73.65 Q21.1 75.4 19.85 75.35 18.4 75.3 18.65 74.35 18.8 73.75 19.25 73.65 L19.65 73.65" fill="#ffffff" fill-rule="evenodd" stroke="none"/>
      <path d="M11.2 43.9 L11.6 44.1 Q12.0 44.4 12.0 44.95 L12.05 46.85 Q12.0 47.95 11.65 46.85 L11.0 45.3 10.8 45.05 11.2 43.9" fill="#a7592b" fill-rule="evenodd" stroke="none"/>
      <path d="M31.1 21.75 Q30.8 20.75 31.0 19.7 31.45 17.65 34.05 17.5 36.65 17.4 40.1 19.45 41.85 20.5 43.05 21.55 39.85 21.7 38.3 22.3 L34.65 23.15 Q32.05 23.35 31.1 21.75" fill="#91fb65" fill-rule="evenodd" stroke="none"/>
      <path d="M31.5 22.25 Q33.3 19.65 35.6 19.5 38.2 19.25 43.05 21.55 39.85 21.7 38.3 22.3 33.35 24.15 31.5 22.25" fill="#64b528" fill-rule="evenodd" stroke="none"/>
      <path d="M31.35 21.55 Q30.55 23.55 27.4 24.2 L23.5 24.3 20.6 24.05 18.6 24.05 21.35 21.4 Q24.5 18.8 26.3 18.75 28.1 18.7 29.9 20.1 L31.35 21.55" fill="#91fb65" fill-rule="evenodd" stroke="none"/>
      <path d="M28.85 20.3 Q30.15 20.85 31.25 21.7 30.4 23.6 27.35 24.2 L23.5 24.3 20.6 24.05 18.6 24.05 18.65 24.0 22.25 21.45 Q24.35 20.05 25.4 19.8 26.85 19.45 28.85 20.3" fill="#64b528" fill-rule="evenodd" stroke="none"/>
    </g>
    <g id="sprite22" transform="matrix(1.0, 0.0, 0.0, 1.0, 0.05, -0.05)">
      <use ffdec:characterId="1444" height="9.15" transform="matrix(1.0, 0.0, 0.0, 1.0, -0.05, 0.05)" width="13.3" xlink:href="#shape28"/>
    </g>
    <g id="shape28" transform="matrix(1.0, 0.0, 0.0, 1.0, 0.05, -0.05)">
      <path d="M12.95 0.05 Q14.15 -0.05 10.85 4.5 L12.35 9.2 6.75 7.6 0.3 7.8 Q-0.7 7.6 1.25 5.75 L3.35 3.9 Q1.65 2.7 1.1 1.45 0.85 0.95 2.9 1.1 L5.9 1.3 6.2 1.25 9.1 0.65 12.95 0.05" fill="url(#gradient10)" fill-rule="evenodd" stroke="none"/>
    </g>
    <radialGradient cx="0" cy="0" gradientTransform="matrix(0.0069, 0.0, 0.0, -0.0069, 6.6, 4.6)" gradientUnits="userSpaceOnUse" id="gradient10" r="819.2" spreadMethod="pad">
      <stop offset="0.0" stop-color="#37911b"/>
      <stop offset="1.0" stop-color="#107914"/>
    </radialGradient>
    <g id="shape29" transform="matrix(1.0, 0.0, 0.0, 1.0, -13.4, -21.4)">
      <path d="M27.7 39.95 L29.1 34.75 Q30.5 28.9 30.45 25.55 30.4 21.9 31.45 22.7 32.45 23.4 33.15 26.2 33.7 28.25 33.5 34.25 33.35 39.5 33.05 40.6 32.9 41.35 30.25 41.1 27.55 40.85 27.7 39.95" fill="#bb9349" fill-rule="evenodd" stroke="none"/>
      <path d="M33.05 40.6 Q32.95 41.15 30.95 41.15 32.35 34.8 32.35 30.2 32.35 27.3 31.2 22.6 31.7 22.65 32.25 23.75 32.8 24.8 33.15 26.2 33.7 28.25 33.5 34.25 33.35 39.5 33.05 40.6" fill="#74511c" fill-rule="evenodd" stroke="none"/>
      <path d="M28.45 37.35 Q30.05 38.05 31.4 38.05 L33.35 37.7 33.25 38.9 31.45 39.15 31.4 39.15 28.15 38.45 28.45 37.35 M33.5 34.6 L31.3 34.8 29.15 34.55 29.4 33.45 31.3 33.7 33.55 33.45 33.5 34.6 M30.0 30.55 L30.15 29.4 32.0 29.55 33.55 29.4 33.55 30.55 32.0 30.7 30.0 30.55 M33.15 26.2 L33.35 27.0 31.0 27.45 30.35 27.4 30.45 26.3 31.0 26.3 33.05 25.85 33.15 26.2" fill="#33270e" fill-rule="evenodd" stroke="none"/>
      <path d="M30.65 21.4 Q31.5 21.35 31.55 22.75 30.55 27.7 29.0 30.1 27.45 32.55 23.3 35.55 L23.0 31.95 Q22.9 27.95 24.1 25.75 25.25 23.55 28.05 22.25 29.5 21.6 30.65 21.4" fill="#91fb65" fill-rule="evenodd" stroke="none"/>
      <path d="M23.3 35.55 L23.3 35.4 Q24.0 30.0 25.6 27.2 27.7 23.4 31.1 21.55 31.5 21.85 31.55 22.75 30.55 27.7 29.0 30.1 27.45 32.55 23.3 35.55" fill="#64b528" fill-rule="evenodd" stroke="none"/>
      <path d="M31.35 21.55 L33.8 22.0 Q36.6 22.9 38.15 25.05 39.7 27.2 40.35 29.85 L40.65 32.1 37.2 31.05 Q33.55 29.65 32.6 27.7 31.65 25.75 31.4 23.45 L31.35 21.55" fill="#91fb65" fill-rule="evenodd" stroke="none"/>
      <path d="M37.4 27.55 L40.55 32.1 36.85 30.95 Q33.5 29.55 32.6 27.7 31.65 25.75 31.4 23.45 L31.35 21.55 31.4 21.55 Q35.45 24.6 37.4 27.55" fill="#64b528" fill-rule="evenodd" stroke="none"/>
      <path d="M23.1 46.7 Q22.6 45.9 22.55 45.05 22.45 43.35 24.55 43.05 26.65 42.7 29.95 44.05 31.6 44.75 32.8 45.5 L31.35 45.8 29.05 46.5 Q24.9 48.65 23.1 46.7" fill="#91fb65" fill-rule="evenodd" stroke="none"/>
      <path d="M23.5 47.05 Q24.4 44.85 26.25 44.5 28.25 44.05 32.8 45.5 L31.35 45.8 Q29.75 46.1 29.05 46.5 25.4 48.4 23.5 47.05" fill="#64b528" fill-rule="evenodd" stroke="none"/>
      <path d="M23.2 46.5 Q23.0 48.15 20.6 49.0 L17.4 49.45 15.0 49.5 13.4 49.65 Q14.1 48.5 15.05 47.3 17.05 44.9 18.5 44.7 19.95 44.5 21.75 45.5 L23.2 46.5" fill="#91fb65" fill-rule="evenodd" stroke="none"/>
      <path d="M18.0 45.65 Q19.8 45.0 23.2 46.6 22.9 48.25 20.55 49.0 L17.4 49.45 15.0 49.5 13.4 49.65 13.4 49.6 Q17.0 46.0 18.0 45.65" fill="#64b528" fill-rule="evenodd" stroke="none"/>
    </g>
    <g id="sprite23" transform="matrix(1.0, 0.0, 0.0, 1.0, 0.1, 0.0)">
      <use ffdec:characterId="1447" height="7.55" transform="matrix(1.0, 0.0, 0.0, 1.0, -0.1, 0.0)" width="10.35" xlink:href="#shape30"/>
    </g>
    <g id="shape30" transform="matrix(1.0, 0.0, 0.0, 1.0, 0.1, 0.0)">
      <path d="M4.3 1.65 L9.9 0.0 Q10.9 -0.2 8.6 3.85 L10.25 7.55 5.55 6.75 0.3 7.45 Q-1.05 7.4 2.45 4.05 0.95 3.2 0.35 2.2 0.1 1.8 1.8 1.75 L4.3 1.65" fill="url(#gradient11)" fill-rule="evenodd" stroke="none"/>
    </g>
    <radialGradient cx="0" cy="0" gradientTransform="matrix(0.0056, -6.0E-4, -6.0E-4, -0.0056, 5.15, 4.3)" gradientUnits="userSpaceOnUse" id="gradient11" r="819.2" spreadMethod="pad">
      <stop offset="0.0" stop-color="#37911b"/>
      <stop offset="1.0" stop-color="#107914"/>
    </radialGradient>
    <g id="shape31" transform="matrix(1.0, 0.0, 0.0, 1.0, -18.05, -46.45)">
      <path d="M24.25 61.6 Q24.6 54.1 23.35 49.8 22.5 46.9 23.55 47.45 24.5 47.95 25.75 50.1 26.65 51.7 27.75 56.5 28.75 60.6 28.8 61.65 28.8 62.25 26.6 62.3 24.35 62.35 24.25 61.6" fill="#bb9349" fill-rule="evenodd" stroke="none"/>
      <path d="M28.8 61.65 Q28.8 62.05 27.2 62.25 26.95 57.2 25.9 53.35 25.3 51.05 23.35 47.35 24.25 47.45 25.75 50.1 26.65 51.7 27.75 56.5 28.75 60.6 28.8 61.65" fill="#74511c" fill-rule="evenodd" stroke="none"/>
      <path d="M24.3 60.35 L24.3 59.45 26.9 59.75 28.4 59.3 28.55 60.3 27.15 60.65 24.3 60.35 M27.6 55.85 L27.85 56.8 26.05 57.15 24.3 57.15 24.25 56.2 25.8 56.25 27.6 55.85 M27.0 53.55 L25.75 53.8 24.05 53.85 23.95 52.95 25.5 52.9 26.7 52.6 27.0 53.55 M26.05 50.7 L24.25 51.3 23.7 51.3 23.5 50.4 24.0 50.35 25.6 49.8 26.05 50.7" fill="#33270e" fill-rule="evenodd" stroke="none"/>
      <path d="M22.65 46.45 Q23.3 46.3 23.7 47.45 L23.75 49.75 Q23.65 52.3 23.2 53.6 22.45 55.7 19.75 58.45 L18.7 55.6 Q17.75 52.4 18.2 50.55 18.7 48.7 20.75 47.4 L22.65 46.45" fill="#91fb65" fill-rule="evenodd" stroke="none"/>
      <path d="M23.0 46.5 Q23.45 46.75 23.7 47.45 L23.75 49.75 Q23.65 52.3 23.2 53.6 22.45 55.7 19.75 58.45 L19.65 58.35 Q19.05 54.1 19.75 51.55 20.65 48.3 23.0 46.5" fill="#64b528" fill-rule="evenodd" stroke="none"/>
      <path d="M23.2 46.5 L25.35 46.65 Q27.8 47.15 29.55 48.7 31.25 50.3 32.35 52.4 L33.1 54.15 30.05 53.65 Q26.8 52.8 25.6 51.35 24.4 49.9 23.7 48.05 L23.2 46.5" fill="#91fb65" fill-rule="evenodd" stroke="none"/>
      <path d="M23.7 48.05 L23.2 46.5 23.3 46.5 Q27.2 48.55 29.5 50.75 L33.05 54.15 Q27.4 53.55 25.6 51.35 24.4 49.9 23.7 48.05" fill="#64b528" fill-rule="evenodd" stroke="none"/>
    </g>
    <g id="sprite24" transform="matrix(1.0, 0.0, 0.0, 1.0, 0.05, 0.0)">
      <use ffdec:characterId="1450" height="6.5" transform="matrix(1.0, 0.0, 0.0, 1.0, -0.05, 0.0)" width="9.9" xlink:href="#shape32"/>
    </g>
    <g id="shape32" transform="matrix(1.0, 0.0, 0.0, 1.0, 0.05, 0.0)">
      <path d="M4.95 0.15 L8.6 0.45 Q9.6 0.35 8.65 2.75 L9.85 6.5 5.4 5.2 0.25 5.35 Q-1.0 5.15 2.7 2.25 1.3 1.3 0.85 0.3 0.65 -0.1 2.3 0.0 L4.7 0.2 4.95 0.15" fill="#d4c8ae" fill-rule="evenodd" stroke="none"/>
    </g>
    <g id="shape33" transform="matrix(1.0, 0.0, 0.0, 1.0, -57.7, -23.75)">
      <path d="M72.45 27.1 Q71.7 28.4 69.65 28.25 68.3 28.2 66.75 27.55 L64.4 27.1 62.95 27.0 65.3 25.3 Q68.05 23.65 70.15 23.75 72.25 23.85 72.55 25.5 72.7 26.3 72.45 27.1" fill="#91fb65" fill-rule="evenodd" stroke="none"/>
      <path d="M72.15 27.5 Q70.65 29.05 66.75 27.55 L64.4 27.1 62.95 27.0 Q66.65 25.15 68.9 25.3 70.75 25.5 72.15 27.5" fill="#64b528" fill-rule="evenodd" stroke="none"/>
      <path d="M72.3 26.95 L73.45 25.8 Q74.85 24.65 76.3 24.7 77.75 24.75 80.2 26.85 L82.4 28.95 78.55 29.15 75.4 29.1 Q72.9 28.55 72.3 26.95" fill="#91fb65" fill-rule="evenodd" stroke="none"/>
      <path d="M78.55 29.15 L75.5 29.1 Q73.05 28.6 72.35 27.05 75.05 25.1 77.0 25.55 78.05 25.8 82.4 28.9 L82.4 28.95 78.55 29.15" fill="#64b528" fill-rule="evenodd" stroke="none"/>
      <path d="M75.15 41.65 Q75.3 42.35 73.15 42.55 71.0 42.75 70.9 42.15 L70.55 37.05 Q70.4 32.25 70.8 30.65 71.4 28.45 72.2 27.85 73.05 27.25 73.0 30.15 72.9 34.45 75.15 41.65" fill="#74511c" fill-rule="evenodd" stroke="none"/>
      <path d="M72.2 32.45 Q72.2 34.35 72.95 37.85 L74.0 42.4 71.85 42.5 70.9 42.15 70.55 37.05 Q70.4 32.25 70.8 30.65 71.1 29.55 71.55 28.75 72.05 27.85 72.4 27.8 72.1 29.1 72.1 30.3 L72.2 32.45" fill="#bb9349" fill-rule="evenodd" stroke="none"/>
      <path d="M72.2 40.1 Q73.35 40.1 74.55 39.55 L74.8 40.4 Q73.6 41.0 72.2 41.0 L70.75 40.8 70.7 39.85 72.2 40.1 M72.3 36.6 L73.8 36.45 74.0 37.3 72.3 37.5 70.55 37.35 70.55 36.4 72.3 36.6 M70.55 33.2 L71.75 33.35 73.2 33.2 73.35 34.1 71.75 34.25 70.5 34.15 70.55 33.2 M72.55 30.75 L73.0 30.75 73.05 31.65 72.55 31.65 70.7 31.3 70.8 30.65 70.9 30.4 72.55 30.75" fill="#33270e" fill-rule="evenodd" stroke="none"/>
      <path d="M78.9 35.25 L78.65 38.1 Q75.35 35.75 74.15 33.8 73.35 32.6 72.65 30.1 L72.1 27.9 72.2 27.35 Q72.4 26.8 72.8 26.85 L74.85 27.55 Q77.1 28.6 78.05 30.3 79.0 32.05 78.9 35.25" fill="#91fb65" fill-rule="evenodd" stroke="none"/>
      <path d="M78.65 38.1 Q75.35 35.75 74.15 33.8 73.35 32.6 72.65 30.1 L72.1 27.9 72.15 27.5 72.5 26.95 Q75.25 28.55 76.85 31.45 78.05 33.6 78.7 38.0 L78.65 38.1" fill="#64b528" fill-rule="evenodd" stroke="none"/>
      <path d="M72.3 26.95 Q72.45 29.4 71.25 31.85 70.55 33.4 67.65 34.55 L64.9 35.4 65.15 33.6 Q65.65 31.45 66.85 29.75 68.1 28.05 70.35 27.3 L72.3 26.95" fill="#91fb65" fill-rule="evenodd" stroke="none"/>
      <path d="M67.45 31.7 Q68.85 29.65 72.2 26.95 L72.3 26.95 Q72.45 29.4 71.25 31.85 70.15 34.2 64.95 35.35 L67.45 31.7" fill="#64b528" fill-rule="evenodd" stroke="none"/>
      <path d="M57.7 56.9 L71.5 56.9 71.15 57.1 57.95 57.1 57.7 56.9" fill="#1f1c02" fill-rule="evenodd" stroke="none"/>
      <path d="M58.45 40.35 L70.4 40.35 71.5 56.9 57.7 56.9 58.45 40.35" fill="url(#gradient12)" fill-rule="evenodd" stroke="none"/>
      <path d="M58.1 47.3 L58.15 47.0 70.85 47.1 70.85 47.35 58.1 47.3" fill="url(#gradient13)" fill-rule="evenodd" stroke="none"/>
      <path d="M58.25 44.65 L58.25 44.4 70.65 44.5 70.7 44.8 58.25 44.65" fill="url(#gradient14)" fill-rule="evenodd" stroke="none"/>
      <path d="M58.35 41.95 L70.5 42.0 70.5 42.2 58.35 42.2 58.35 41.95" fill="url(#gradient15)" fill-rule="evenodd" stroke="none"/>
      <path d="M57.8 54.1 L71.3 54.15 71.35 54.35 57.8 54.25 57.8 54.1" fill="url(#gradient16)" fill-rule="evenodd" stroke="none"/>
      <path d="M57.9 52.1 L57.9 51.95 71.15 51.85 71.15 51.95 57.9 52.1" fill="url(#gradient17)" fill-rule="evenodd" stroke="none"/>
      <path d="M58.0 49.35 L71.0 49.35 71.0 49.65 58.0 49.65 58.0 49.35" fill="url(#gradient18)" fill-rule="evenodd" stroke="none"/>
      <path d="M58.0 49.85 L58.0 49.5 71.0 49.5 71.0 49.8 58.0 49.85" fill="#1f1c02" fill-rule="evenodd" stroke="none"/>
      <path d="M58.15 47.15 L70.85 47.3 70.85 47.5 58.1 47.45 58.15 47.15" fill="#1f1c02" fill-rule="evenodd" stroke="none"/>
      <path d="M58.25 44.55 L70.65 44.65 70.7 44.95 58.25 44.8 58.25 44.55" fill="#1f1c02" fill-rule="evenodd" stroke="none"/>
      <path d="M71.15 52.0 L71.15 52.15 57.9 52.3 57.9 52.1 71.15 52.0" fill="#1f1c02" fill-rule="evenodd" stroke="none"/>
      <path d="M58.35 42.1 L70.5 42.15 70.5 42.4 58.35 42.4 58.35 42.1" fill="#1f1c02" fill-rule="evenodd" stroke="none"/>
      <path d="M57.8 54.25 L71.3 54.3 71.35 54.55 57.8 54.45 57.8 54.25" fill="#1f1c02" fill-rule="evenodd" stroke="none"/>
    </g>
    <linearGradient gradientTransform="matrix(0.0, 0.0192, 0.0192, 0.0, 64.6, 44.8)" gradientUnits="userSpaceOnUse" id="gradient12" spreadMethod="pad" x1="-819.2" x2="819.2">
      <stop offset="0.0" stop-color="#8a623c"/>
      <stop offset="1.0" stop-color="#754c28"/>
    </linearGradient>
    <linearGradient gradientTransform="matrix(0.0078, 0.0, 0.0, -0.0078, 64.5, 47.2)" gradientUnits="userSpaceOnUse" id="gradient13" spreadMethod="pad" x1="-819.2" x2="819.2">
      <stop offset="0.0" stop-color="#ad8f76"/>
      <stop offset="1.0" stop-color="#8a623c"/>
    </linearGradient>
    <linearGradient gradientTransform="matrix(0.0076, 0.0, 0.0, -0.0076, 64.45, 44.6)" gradientUnits="userSpaceOnUse" id="gradient14" spreadMethod="pad" x1="-819.2" x2="819.2">
      <stop offset="0.0" stop-color="#ad8f76"/>
      <stop offset="1.0" stop-color="#8a623c"/>
    </linearGradient>
    <linearGradient gradientTransform="matrix(0.0074, 0.0, 0.0, -0.0074, 64.45, 42.1)" gradientUnits="userSpaceOnUse" id="gradient15" spreadMethod="pad" x1="-819.2" x2="819.2">
      <stop offset="0.0" stop-color="#ad8f76"/>
      <stop offset="1.0" stop-color="#8a623c"/>
    </linearGradient>
    <linearGradient gradientTransform="matrix(0.0082, 0.0, 0.0, -0.0082, 64.55, 54.25)" gradientUnits="userSpaceOnUse" id="gradient16" spreadMethod="pad" x1="-819.2" x2="819.2">
      <stop offset="0.0" stop-color="#ad8f76"/>
      <stop offset="1.0" stop-color="#8a623c"/>
    </linearGradient>
    <linearGradient gradientTransform="matrix(0.0081, 0.0, 0.0, -0.0081, 64.55, 52.0)" gradientUnits="userSpaceOnUse" id="gradient17" spreadMethod="pad" x1="-819.2" x2="819.2">
      <stop offset="0.0" stop-color="#ad8f76"/>
      <stop offset="1.0" stop-color="#8a623c"/>
    </linearGradient>
    <linearGradient gradientTransform="matrix(0.0079, 0.0, 0.0, -0.0079, 64.5, 49.5)" gradientUnits="userSpaceOnUse" id="gradient18" spreadMethod="pad" x1="-819.2" x2="819.2">
      <stop offset="0.0" stop-color="#ad8f76"/>
      <stop offset="1.0" stop-color="#8a623c"/>
    </linearGradient>
    <g id="sprite25" transform="matrix(1.0, 0.0, 0.0, 1.0, 0.0, 0.0)">
      <use ffdec:characterId="1453" height="1.45" transform="matrix(1.0, 0.0, 0.0, 1.0, 0.0, 0.0)" width="2.25" xlink:href="#shape34"/>
    </g>
    <g id="shape34" transform="matrix(1.0, 0.0, 0.0, 1.0, 0.0, 0.0)">
      <path d="M2.25 1.45 L0.0 1.45 0.0 0.0 2.25 0.0 2.25 1.45" fill="url(#gradient19)" fill-rule="evenodd" stroke="none"/>
    </g>
    <linearGradient gradientTransform="matrix(0.0, -7.0E-4, -7.0E-4, 0.0, 1.1, 0.85)" gradientUnits="userSpaceOnUse" id="gradient19" spreadMethod="pad" x1="-819.2" x2="819.2">
      <stop offset="0.0" stop-color="#ffffff"/>
      <stop offset="0.01568627450980392" stop-color="#f7f7f7"/>
      <stop offset="0.13333333333333333" stop-color="#bebebe"/>
      <stop offset="0.25098039215686274" stop-color="#8b8b8b"/>
      <stop offset="0.37254901960784315" stop-color="#606060"/>
      <stop offset="0.49411764705882355" stop-color="#3e3e3e"/>
      <stop offset="0.615686274509804" stop-color="#232323"/>
      <stop offset="0.7411764705882353" stop-color="#0f0f0f"/>
      <stop offset="0.8666666666666667" stop-color="#040404"/>
      <stop offset="1.0" stop-color="#000000"/>
    </linearGradient>
    <g id="shape35" transform="matrix(1.0, 0.0, 0.0, 1.0, -57.9, -54.8)">
      <path d="M60.4 55.9 L60.05 56.35 59.15 56.55 Q57.95 56.55 57.95 55.9 57.95 55.25 59.15 55.25 L60.05 55.45 60.4 55.9" fill="#1f1c02" fill-rule="evenodd" stroke="none"/>
      <path d="M60.5 54.8 L60.4 55.7 60.4 55.75 Q60.4 56.45 59.2 56.45 58.0 56.45 58.0 55.75 L57.9 54.8 60.5 54.8" fill="url(#gradient20)" fill-rule="evenodd" stroke="none"/>
    </g>
    <linearGradient gradientTransform="matrix(0.0016, 0.0, 0.0, -0.0016, 59.2, 55.65)" gradientUnits="userSpaceOnUse" id="gradient20" spreadMethod="pad" x1="-819.2" x2="819.2">
      <stop offset="0.0" stop-color="#563206"/>
      <stop offset="0.5215686274509804" stop-color="#8a623c"/>
      <stop offset="1.0" stop-color="#563206"/>
    </linearGradient>
    <g id="sprite26" transform="matrix(1.0, 0.0, 0.0, 1.0, 0.0, 0.0)">
      <use ffdec:characterId="1456" height="1.65" transform="matrix(1.0, 0.0, 0.0, 1.0, 0.0, 0.0)" width="2.6" xlink:href="#shape36"/>
    </g>
    <g id="shape36" transform="matrix(1.0, 0.0, 0.0, 1.0, 0.0, 0.0)">
      <path d="M0.65 1.0 L0.7 1.5 0.7 1.55 0.35 1.4 0.3 0.0 0.65 0.0 0.65 1.0 M0.0 0.0 L0.15 0.0 0.15 0.85 0.2 1.25 0.1 0.95 0.0 0.0 M1.95 0.0 L1.9 0.75 1.95 1.55 1.7 1.6 1.8 0.6 1.7 0.0 1.95 0.0 M2.15 1.45 L2.25 0.95 2.25 0.0 2.6 0.0 2.5 0.9 2.5 0.95 2.15 1.45 M1.45 0.0 L1.5 0.25 1.5 1.65 1.1 1.65 1.1 0.0 1.45 0.0" fill="url(#gradient21)" fill-rule="evenodd" stroke="none"/>
    </g>
    <linearGradient gradientTransform="matrix(0.0016, 0.0, 0.0, -0.0016, 1.3, 0.85)" gradientUnits="userSpaceOnUse" id="gradient21" spreadMethod="pad" x1="-819.2" x2="819.2">
      <stop offset="0.0" stop-color="#754c28"/>
      <stop offset="1.0" stop-color="#5c3819"/>
    </linearGradient>
    <g id="shape37" transform="matrix(1.0, 0.0, 0.0, 1.0, -57.9, -54.0)">
      <path d="M60.5 54.8 L60.1 55.35 59.2 55.6 Q57.9 55.6 57.9 54.8 57.9 54.0 59.2 54.0 59.75 54.0 60.1 54.25 60.5 54.45 60.5 54.8" fill="#cca98d" fill-rule="evenodd" stroke="none"/>
      <path d="M58.55 54.2 Q59.05 54.0 59.7 54.2 60.25 54.4 60.3 54.65 60.4 55.25 59.65 55.4 58.55 55.6 58.15 54.95 57.95 54.7 58.25 54.45 L58.55 54.2" fill="#dfcbb9" fill-rule="evenodd" stroke="none"/>
    </g>
    <g id="sprite27" transform="matrix(1.0, 0.0, 0.0, 1.0, 0.0, 0.0)">
      <use ffdec:characterId="1459" height="1.45" transform="matrix(1.0, 0.0, 0.0, 1.0, 0.0, 0.0)" width="2.3" xlink:href="#shape38"/>
    </g>
    <g id="shape38" transform="matrix(1.0, 0.0, 0.0, 1.0, 0.0, 0.0)">
      <path d="M2.3 1.45 L0.0 1.45 0.0 0.0 2.3 0.0 2.3 1.45" fill="url(#gradient22)" fill-rule="evenodd" stroke="none"/>
    </g>
    <linearGradient gradientTransform="matrix(0.0, -7.0E-4, -7.0E-4, 0.0, 1.15, 0.85)" gradientUnits="userSpaceOnUse" id="gradient22" spreadMethod="pad" x1="-819.2" x2="819.2">
      <stop offset="0.0" stop-color="#ffffff"/>
      <stop offset="0.01568627450980392" stop-color="#f7f7f7"/>
      <stop offset="0.13333333333333333" stop-color="#bebebe"/>
      <stop offset="0.25098039215686274" stop-color="#8b8b8b"/>
      <stop offset="0.37254901960784315" stop-color="#606060"/>
      <stop offset="0.49411764705882355" stop-color="#3e3e3e"/>
      <stop offset="0.615686274509804" stop-color="#232323"/>
      <stop offset="0.7411764705882353" stop-color="#0f0f0f"/>
      <stop offset="0.8666666666666667" stop-color="#040404"/>
      <stop offset="1.0" stop-color="#000000"/>
    </linearGradient>
    <g id="shape39" transform="matrix(1.0, 0.0, 0.0, 1.0, -68.6, -54.8)">
      <path d="M71.15 55.9 L70.8 56.35 69.9 56.55 69.0 56.35 68.65 55.9 Q68.65 55.25 69.9 55.25 L70.8 55.45 71.15 55.9" fill="#1f1c02" fill-rule="evenodd" stroke="none"/>
      <path d="M71.25 54.8 L71.1 55.7 71.1 55.75 Q71.1 56.45 69.9 56.45 68.7 56.45 68.7 55.75 L68.6 54.8 71.25 54.8" fill="url(#gradient23)" fill-rule="evenodd" stroke="none"/>
    </g>
    <linearGradient gradientTransform="matrix(0.0016, 0.0, 0.0, -0.0016, 69.9, 55.65)" gradientUnits="userSpaceOnUse" id="gradient23" spreadMethod="pad" x1="-819.2" x2="819.2">
      <stop offset="0.0" stop-color="#563206"/>
      <stop offset="0.5215686274509804" stop-color="#8a623c"/>
      <stop offset="1.0" stop-color="#563206"/>
    </linearGradient>
    <g id="sprite28" transform="matrix(1.0, 0.0, 0.0, 1.0, 0.0, 0.0)">
      <use ffdec:characterId="1462" height="1.65" transform="matrix(1.0, 0.0, 0.0, 1.0, 0.0, 0.0)" width="2.65" xlink:href="#shape40"/>
    </g>
    <g id="shape40" transform="matrix(1.0, 0.0, 0.0, 1.0, 0.0, 0.0)">
      <path d="M0.4 1.4 L0.4 0.8 0.3 0.0 0.7 0.0 0.7 1.0 0.75 1.5 0.75 1.55 0.4 1.4 M0.0 0.0 L0.15 0.0 0.25 1.25 0.1 0.95 0.0 0.0 M2.0 0.0 L1.95 0.75 2.0 1.55 1.75 1.6 1.8 0.6 1.75 0.0 2.0 0.0 M1.5 0.0 L1.55 0.25 1.55 1.65 1.15 1.65 1.15 0.1 1.1 0.0 1.5 0.0 M2.5 0.95 L2.2 1.45 2.3 0.0 2.65 0.0 2.5 0.9 2.5 0.95" fill="url(#gradient24)" fill-rule="evenodd" stroke="none"/>
    </g>
    <linearGradient gradientTransform="matrix(0.0016, 0.0, 0.0, -0.0016, 1.3, 0.85)" gradientUnits="userSpaceOnUse" id="gradient24" spreadMethod="pad" x1="-819.2" x2="819.2">
      <stop offset="0.0" stop-color="#754c28"/>
      <stop offset="1.0" stop-color="#5c3819"/>
    </linearGradient>
    <g id="shape41" transform="matrix(1.0, 0.0, 0.0, 1.0, -68.6, -54.0)">
      <path d="M71.25 54.8 Q71.25 55.15 70.85 55.35 L69.9 55.6 69.0 55.35 Q68.6 55.15 68.6 54.8 68.6 54.45 69.0 54.25 L69.9 54.0 70.85 54.25 Q71.25 54.45 71.25 54.8" fill="#cca98d" fill-rule="evenodd" stroke="none"/>
      <path d="M69.3 54.2 Q69.8 54.0 70.45 54.2 L71.05 54.65 Q71.15 55.25 70.35 55.4 69.35 55.65 68.9 54.95 68.7 54.7 69.0 54.45 L69.3 54.2" fill="#dfcbb9" fill-rule="evenodd" stroke="none"/>
    </g>
    <g id="sprite29" transform="matrix(1.0, 0.0, 0.0, 1.0, 0.0, 0.0)">
      <use ffdec:characterId="1465" height="1.4" transform="matrix(1.0, 0.0, 0.0, 1.0, 0.0, 0.0)" width="2.3" xlink:href="#shape42"/>
    </g>
    <g id="shape42" transform="matrix(1.0, 0.0, 0.0, 1.0, 0.0, 0.0)">
      <path d="M2.3 1.4 L0.0 1.4 0.0 0.0 2.3 0.0 2.3 1.4" fill="url(#gradient25)" fill-rule="evenodd" stroke="none"/>
    </g>
    <linearGradient gradientTransform="matrix(0.0, -7.0E-4, -7.0E-4, 0.0, 1.15, 0.8)" gradientUnits="userSpaceOnUse" id="gradient25" spreadMethod="pad" x1="-819.2" x2="819.2">
      <stop offset="0.0" stop-color="#ffffff"/>
      <stop offset="0.01568627450980392" stop-color="#f7f7f7"/>
      <stop offset="0.13333333333333333" stop-color="#bebebe"/>
      <stop offset="0.25098039215686274" stop-color="#8b8b8b"/>
      <stop offset="0.37254901960784315" stop-color="#606060"/>
      <stop offset="0.49411764705882355" stop-color="#3e3e3e"/>
      <stop offset="0.615686274509804" stop-color="#232323"/>
      <stop offset="0.7411764705882353" stop-color="#0f0f0f"/>
      <stop offset="0.8666666666666667" stop-color="#040404"/>
      <stop offset="1.0" stop-color="#000000"/>
    </linearGradient>
    <g id="shape43" transform="matrix(1.0, 0.0, 0.0, 1.0, -58.3, -47.35)">
      <path d="M60.85 48.45 Q60.85 49.05 59.6 49.05 L58.7 48.85 Q58.35 48.7 58.35 48.45 58.35 47.8 59.6 47.8 L60.5 48.0 60.85 48.45" fill="#1f1c02" fill-rule="evenodd" stroke="none"/>
      <path d="M60.95 47.35 L60.85 48.25 60.5 48.8 59.65 49.0 58.75 48.8 58.4 48.25 58.3 47.35 60.95 47.35" fill="url(#gradient26)" fill-rule="evenodd" stroke="none"/>
    </g>
    <linearGradient gradientTransform="matrix(0.0016, 0.0, 0.0, -0.0016, 59.65, 48.15)" gradientUnits="userSpaceOnUse" id="gradient26" spreadMethod="pad" x1="-819.2" x2="819.2">
      <stop offset="0.0" stop-color="#563206"/>
      <stop offset="0.5215686274509804" stop-color="#8a623c"/>
      <stop offset="1.0" stop-color="#563206"/>
    </linearGradient>
    <g id="sprite30" transform="matrix(1.0, 0.0, 0.0, 1.0, 0.0, 0.0)">
      <use ffdec:characterId="1468" height="1.65" transform="matrix(1.0, 0.0, 0.0, 1.0, 0.0, 0.0)" width="2.65" xlink:href="#shape44"/>
    </g>
    <g id="shape44" transform="matrix(1.0, 0.0, 0.0, 1.0, 0.0, 0.0)">
      <path d="M0.0 0.0 L0.15 0.0 0.25 1.25 0.1 0.9 0.0 0.0 M0.9 1.0 L1.0 1.45 1.0 1.6 0.9 1.6 0.9 1.0 M0.4 1.4 L0.35 0.0 0.7 0.0 0.75 1.55 0.4 1.4 M1.8 1.2 L1.75 0.0 2.0 0.0 1.95 0.75 2.0 1.5 1.75 1.6 1.8 1.2 M1.5 0.0 L1.55 0.25 1.55 1.6 1.35 1.65 1.15 1.6 1.15 0.1 1.1 0.0 1.5 0.0 M2.65 0.0 L2.55 0.9 2.2 1.4 2.3 0.0 2.65 0.0" fill="url(#gradient27)" fill-rule="evenodd" stroke="none"/>
    </g>
    <linearGradient gradientTransform="matrix(0.0016, 0.0, 0.0, -0.0016, 1.35, 0.8)" gradientUnits="userSpaceOnUse" id="gradient27" spreadMethod="pad" x1="-819.2" x2="819.2">
      <stop offset="0.0" stop-color="#754c28"/>
      <stop offset="1.0" stop-color="#5c3819"/>
    </linearGradient>
    <g id="shape45" transform="matrix(1.0, 0.0, 0.0, 1.0, -58.3, -46.55)">
      <path d="M60.95 47.35 L60.55 47.9 59.65 48.1 58.7 47.9 58.3 47.35 Q58.3 47.0 58.7 46.8 59.1 46.55 59.65 46.55 60.2 46.55 60.55 46.8 60.95 47.0 60.95 47.35" fill="#cca98d" fill-rule="evenodd" stroke="none"/>
      <path d="M59.0 46.75 Q59.55 46.55 60.15 46.75 60.7 46.9 60.75 47.2 60.85 47.8 60.1 47.95 59.0 48.15 58.6 47.5 58.4 47.25 58.7 47.0 L59.0 46.75" fill="#dfcbb9" fill-rule="evenodd" stroke="none"/>
    </g>
    <g id="sprite31" transform="matrix(1.0, 0.0, 0.0, 1.0, 0.0, 0.0)">
      <use ffdec:characterId="1471" height="1.4" transform="matrix(1.0, 0.0, 0.0, 1.0, 0.0, 0.0)" width="2.25" xlink:href="#shape46"/>
    </g>
    <g id="shape46" transform="matrix(1.0, 0.0, 0.0, 1.0, 0.0, 0.0)">
      <path d="M2.25 1.4 L0.0 1.4 0.0 0.0 2.25 0.0 2.25 1.4" fill="url(#gradient28)" fill-rule="evenodd" stroke="none"/>
    </g>
    <linearGradient gradientTransform="matrix(0.0, -7.0E-4, -7.0E-4, 0.0, 1.1, 0.8)" gradientUnits="userSpaceOnUse" id="gradient28" spreadMethod="pad" x1="-819.2" x2="819.2">
      <stop offset="0.0" stop-color="#ffffff"/>
      <stop offset="0.01568627450980392" stop-color="#f7f7f7"/>
      <stop offset="0.13333333333333333" stop-color="#bebebe"/>
      <stop offset="0.25098039215686274" stop-color="#8b8b8b"/>
      <stop offset="0.37254901960784315" stop-color="#606060"/>
      <stop offset="0.49411764705882355" stop-color="#3e3e3e"/>
      <stop offset="0.615686274509804" stop-color="#232323"/>
      <stop offset="0.7411764705882353" stop-color="#0f0f0f"/>
      <stop offset="0.8666666666666667" stop-color="#040404"/>
      <stop offset="1.0" stop-color="#000000"/>
    </linearGradient>
    <g id="shape47" transform="matrix(1.0, 0.0, 0.0, 1.0, -68.15, -47.35)">
      <path d="M70.65 48.45 L70.3 48.85 69.4 49.05 Q68.9 49.05 68.55 48.85 L68.15 48.45 68.55 48.0 69.4 47.8 70.3 48.0 70.65 48.45" fill="#1f1c02" fill-rule="evenodd" stroke="none"/>
      <path d="M70.75 47.35 L70.65 48.25 70.3 48.8 69.45 49.0 68.6 48.8 68.25 48.25 68.15 47.35 70.75 47.35" fill="url(#gradient29)" fill-rule="evenodd" stroke="none"/>
    </g>
    <linearGradient gradientTransform="matrix(0.0016, 0.0, 0.0, -0.0016, 69.45, 48.15)" gradientUnits="userSpaceOnUse" id="gradient29" spreadMethod="pad" x1="-819.2" x2="819.2">
      <stop offset="0.0" stop-color="#563206"/>
      <stop offset="0.5215686274509804" stop-color="#8a623c"/>
      <stop offset="1.0" stop-color="#563206"/>
    </linearGradient>
    <g id="sprite32" transform="matrix(1.0, 0.0, 0.0, 1.0, 0.0, 0.0)">
      <use ffdec:characterId="1474" height="1.65" transform="matrix(1.0, 0.0, 0.0, 1.0, 0.0, 0.0)" width="2.6" xlink:href="#shape48"/>
    </g>
    <g id="shape48" transform="matrix(1.0, 0.0, 0.0, 1.0, 0.0, 0.0)">
      <path d="M0.0 0.0 L0.15 0.0 0.15 0.8 0.2 1.25 0.1 0.9 0.0 0.0 M0.85 1.0 L0.95 1.45 0.95 1.6 0.85 1.6 0.85 1.0 M0.35 1.4 L0.3 0.0 0.65 0.0 0.7 1.55 0.35 1.4 M1.95 0.0 L1.9 0.75 1.95 1.5 1.7 1.6 1.75 1.2 1.7 0.0 1.95 0.0 M1.45 0.0 L1.5 0.25 1.5 1.6 1.3 1.65 1.1 1.6 1.1 0.0 1.45 0.0 M2.15 1.4 L2.25 0.9 2.25 0.0 2.6 0.0 2.5 0.9 2.15 1.4" fill="url(#gradient30)" fill-rule="evenodd" stroke="none"/>
    </g>
    <linearGradient gradientTransform="matrix(0.0016, 0.0, 0.0, -0.0016, 1.3, 0.8)" gradientUnits="userSpaceOnUse" id="gradient30" spreadMethod="pad" x1="-819.2" x2="819.2">
      <stop offset="0.0" stop-color="#754c28"/>
      <stop offset="1.0" stop-color="#5c3819"/>
    </linearGradient>
    <g id="shape49" transform="matrix(1.0, 0.0, 0.0, 1.0, -68.15, -46.55)">
      <path d="M70.75 47.35 L70.35 47.9 69.45 48.1 68.5 47.9 Q68.15 47.65 68.15 47.35 68.15 46.55 69.45 46.55 70.0 46.55 70.35 46.8 70.75 47.0 70.75 47.35" fill="#cca98d" fill-rule="evenodd" stroke="none"/>
      <path d="M68.8 46.75 Q69.35 46.55 69.95 46.75 70.5 46.9 70.55 47.2 70.65 47.8 69.9 47.95 68.8 48.15 68.4 47.5 68.2 47.25 68.5 47.0 L68.8 46.75" fill="#dfcbb9" fill-rule="evenodd" stroke="none"/>
    </g>
    <g id="sprite33" transform="matrix(1.0, 0.0, 0.0, 1.0, 0.0, 0.0)">
      <use ffdec:characterId="1477" height="1.45" transform="matrix(1.0, 0.0, 0.0, 1.0, 0.0, 0.0)" width="2.25" xlink:href="#shape50"/>
    </g>
    <g id="shape50" transform="matrix(1.0, 0.0, 0.0, 1.0, 0.0, 0.0)">
      <path d="M2.25 1.45 L0.0 1.45 0.0 0.0 2.25 0.0 2.25 1.45" fill="url(#gradient31)" fill-rule="evenodd" stroke="none"/>
    </g>
    <linearGradient gradientTransform="matrix(0.0, -7.0E-4, -7.0E-4, 0.0, 1.15, 0.85)" gradientUnits="userSpaceOnUse" id="gradient31" spreadMethod="pad" x1="-819.2" x2="819.2">
      <stop offset="0.0" stop-color="#ffffff"/>
      <stop offset="0.01568627450980392" stop-color="#f7f7f7"/>
      <stop offset="0.13333333333333333" stop-color="#bebebe"/>
      <stop offset="0.25098039215686274" stop-color="#8b8b8b"/>
      <stop offset="0.37254901960784315" stop-color="#606060"/>
      <stop offset="0.49411764705882355" stop-color="#3e3e3e"/>
      <stop offset="0.615686274509804" stop-color="#232323"/>
      <stop offset="0.7411764705882353" stop-color="#0f0f0f"/>
      <stop offset="0.8666666666666667" stop-color="#040404"/>
      <stop offset="1.0" stop-color="#000000"/>
    </linearGradient>
    <g id="shape51" transform="matrix(1.0, 0.0, 0.0, 1.0, -58.55, -40.05)">
      <path d="M61.05 41.15 Q61.05 41.8 59.85 41.8 L58.95 41.6 58.6 41.15 Q58.6 40.9 58.95 40.7 L59.85 40.5 Q61.05 40.5 61.05 41.15" fill="#1f1c02" fill-rule="evenodd" stroke="none"/>
      <path d="M61.15 40.05 L61.05 40.95 61.05 41.0 Q61.05 41.7 59.85 41.7 58.65 41.7 58.65 41.0 L58.55 40.05 61.15 40.05" fill="url(#gradient32)" fill-rule="evenodd" stroke="none"/>
    </g>
    <linearGradient gradientTransform="matrix(0.0016, 0.0, 0.0, -0.0016, 59.85, 40.9)" gradientUnits="userSpaceOnUse" id="gradient32" spreadMethod="pad" x1="-819.2" x2="819.2">
      <stop offset="0.0" stop-color="#563206"/>
      <stop offset="0.5215686274509804" stop-color="#8a623c"/>
      <stop offset="1.0" stop-color="#563206"/>
    </linearGradient>
    <g id="sprite34" transform="matrix(1.0, 0.0, 0.0, 1.0, 0.0, 0.0)">
      <use ffdec:characterId="1480" height="1.65" transform="matrix(1.0, 0.0, 0.0, 1.0, 0.0, 0.0)" width="2.6" xlink:href="#shape52"/>
    </g>
    <g id="shape52" transform="matrix(1.0, 0.0, 0.0, 1.0, 0.0, 0.0)">
      <path d="M0.0 0.0 L0.15 0.0 0.25 1.25 0.1 0.95 0.0 0.0 M0.7 0.0 L0.7 1.5 0.75 1.55 0.4 1.4 0.3 0.0 0.7 0.0 M1.5 0.0 L1.55 0.25 1.5 1.65 1.1 1.65 1.1 0.0 1.5 0.0 M1.8 0.6 L1.7 0.0 1.95 0.0 1.95 1.55 1.75 1.6 1.8 0.6 M2.5 0.95 L2.2 1.4 2.3 0.0 2.6 0.0 2.5 0.9 2.5 0.95" fill="url(#gradient33)" fill-rule="evenodd" stroke="none"/>
    </g>
    <linearGradient gradientTransform="matrix(0.0016, 0.0, 0.0, -0.0016, 1.3, 0.85)" gradientUnits="userSpaceOnUse" id="gradient33" spreadMethod="pad" x1="-819.2" x2="819.2">
      <stop offset="0.0" stop-color="#754c28"/>
      <stop offset="1.0" stop-color="#5c3819"/>
    </linearGradient>
    <g id="shape53" transform="matrix(1.0, 0.0, 0.0, 1.0, -58.55, -39.25)">
      <path d="M61.15 40.05 L60.75 40.6 59.85 40.85 58.95 40.6 58.55 40.05 Q58.55 39.7 58.95 39.5 L59.85 39.25 Q60.4 39.25 60.75 39.5 61.15 39.7 61.15 40.05" fill="#cca98d" fill-rule="evenodd" stroke="none"/>
      <path d="M59.2 39.45 Q59.75 39.25 60.4 39.45 L61.0 39.9 Q61.1 40.5 60.3 40.65 59.3 40.85 58.8 40.2 58.6 39.95 58.9 39.7 L59.2 39.45" fill="#dfcbb9" fill-rule="evenodd" stroke="none"/>
    </g>
    <g id="sprite35" transform="matrix(1.0, 0.0, 0.0, 1.0, 0.0, 0.0)">
      <use ffdec:characterId="1453" height="1.45" transform="matrix(1.0, 0.0, 0.0, 1.0, 0.0, 0.0)" width="2.25" xlink:href="#shape34"/>
    </g>
    <g id="shape54" transform="matrix(1.0, 0.0, 0.0, 1.0, -67.85, -40.05)">
      <path d="M70.35 41.15 L70.0 41.6 69.1 41.8 68.25 41.6 67.9 41.15 Q67.9 40.9 68.25 40.7 L69.1 40.5 70.0 40.7 70.35 41.15" fill="#1f1c02" fill-rule="evenodd" stroke="none"/>
      <path d="M70.45 40.05 L70.35 40.95 70.35 41.0 Q70.35 41.7 69.15 41.7 67.95 41.7 67.95 41.0 L67.85 40.05 70.45 40.05" fill="url(#gradient34)" fill-rule="evenodd" stroke="none"/>
    </g>
    <linearGradient gradientTransform="matrix(0.0016, 0.0, 0.0, -0.0016, 69.15, 40.9)" gradientUnits="userSpaceOnUse" id="gradient34" spreadMethod="pad" x1="-819.2" x2="819.2">
      <stop offset="0.0" stop-color="#563206"/>
      <stop offset="0.5215686274509804" stop-color="#8a623c"/>
      <stop offset="1.0" stop-color="#563206"/>
    </linearGradient>
    <g id="sprite36" transform="matrix(1.0, 0.0, 0.0, 1.0, 0.0, 0.0)">
      <use ffdec:characterId="1485" height="1.65" transform="matrix(1.0, 0.0, 0.0, 1.0, 0.0, 0.0)" width="2.6" xlink:href="#shape55"/>
    </g>
    <g id="shape55" transform="matrix(1.0, 0.0, 0.0, 1.0, 0.0, 0.0)">
      <path d="M0.0 0.0 L0.15 0.0 0.15 0.85 0.2 1.25 0.1 0.95 0.0 0.0 M0.4 1.4 L0.3 0.0 0.7 0.0 0.7 1.55 0.4 1.4 M1.95 0.0 L1.9 0.75 1.95 1.55 1.75 1.6 1.8 0.6 1.7 0.0 1.95 0.0 M2.15 1.4 L2.25 0.95 2.3 0.0 2.6 0.0 2.5 0.9 2.5 0.95 2.15 1.4 M1.45 0.0 L1.5 0.25 1.5 1.65 1.1 1.65 1.1 0.0 1.45 0.0" fill="url(#gradient35)" fill-rule="evenodd" stroke="none"/>
    </g>
    <linearGradient gradientTransform="matrix(0.0016, 0.0, 0.0, -0.0016, 1.3, 0.85)" gradientUnits="userSpaceOnUse" id="gradient35" spreadMethod="pad" x1="-819.2" x2="819.2">
      <stop offset="0.0" stop-color="#754c28"/>
      <stop offset="1.0" stop-color="#5c3819"/>
    </linearGradient>
    <g id="shape56" transform="matrix(1.0, 0.0, 0.0, 1.0, -67.85, -39.25)">
      <path d="M70.45 40.05 Q70.45 40.4 70.05 40.6 L69.15 40.85 Q67.85 40.85 67.85 40.05 67.85 39.25 69.15 39.25 L70.05 39.5 Q70.45 39.7 70.45 40.05" fill="#cca98d" fill-rule="evenodd" stroke="none"/>
      <path d="M68.5 39.45 Q69.0 39.25 69.65 39.45 70.2 39.65 70.3 39.9 70.4 40.5 69.6 40.65 68.6 40.85 68.1 40.2 67.9 39.95 68.2 39.7 L68.5 39.45" fill="#dfcbb9" fill-rule="evenodd" stroke="none"/>
    </g>
    <g id="sprite37" transform="matrix(1.0, 0.0, 0.0, 1.0, 0.05, -0.05)">
      <use ffdec:characterId="1488" height="6.5" transform="matrix(1.0, 0.0, 0.0, 1.0, -0.05, 0.05)" width="10.45" xlink:href="#shape57"/>
    </g>
    <g id="shape57" transform="matrix(1.0, 0.0, 0.0, 1.0, 0.05, -0.05)">
      <path d="M5.2 0.15 L6.75 0.35 9.1 0.45 Q10.1 0.4 9.15 2.75 L10.4 6.55 5.7 5.25 0.3 5.4 Q-1.05 5.2 2.85 2.3 1.4 1.3 0.9 0.35 0.7 -0.05 2.45 0.05 L5.0 0.2 5.2 0.15" fill="url(#gradient36)" fill-rule="evenodd" stroke="none"/>
    </g>
    <radialGradient cx="0" cy="0" gradientTransform="matrix(0.0054, 0.0, 0.0, -0.0051, 5.2, 3.3)" gradientUnits="userSpaceOnUse" id="gradient36" r="819.2" spreadMethod="pad">
      <stop offset="0.0" stop-color="#37911b"/>
      <stop offset="1.0" stop-color="#107914"/>
    </radialGradient>
    <g id="shape58" transform="matrix(1.0, 0.0, 0.0, 1.0, -40.15, -42.8)">
      <path d="M49.6 46.5 Q48.55 47.65 46.6 47.25 45.3 47.0 43.95 46.2 L41.75 45.45 40.35 45.15 43.05 43.8 Q46.15 42.5 48.2 42.85 50.2 43.25 50.1 44.9 50.05 45.75 49.6 46.5" fill="#91fb65" fill-rule="evenodd" stroke="none"/>
      <path d="M49.2 46.85 Q48.1 47.65 46.35 47.2 45.15 46.9 43.95 46.2 L41.75 45.45 40.35 45.15 Q44.65 43.8 46.6 44.25 48.45 44.65 49.2 46.85" fill="#64b528" fill-rule="evenodd" stroke="none"/>
      <path d="M49.5 46.3 L50.9 45.3 Q52.6 44.4 53.95 44.6 55.35 44.8 57.25 47.2 L58.9 49.55 55.05 49.25 52.0 48.8 Q49.7 47.95 49.5 46.3" fill="#91fb65" fill-rule="evenodd" stroke="none"/>
      <path d="M54.45 45.5 Q55.65 45.95 58.85 49.5 L58.9 49.55 55.05 49.25 52.05 48.8 Q49.8 48.0 49.5 46.4 52.65 44.85 54.45 45.5" fill="#64b528" fill-rule="evenodd" stroke="none"/>
      <path d="M48.65 61.2 Q48.6 61.95 46.45 61.9 44.3 61.8 44.35 61.2 44.35 60.25 45.25 56.1 46.3 51.35 47.15 49.8 48.25 47.7 49.2 47.2 50.2 46.65 49.4 49.55 48.25 53.8 48.65 61.2" fill="#74511c" fill-rule="evenodd" stroke="none"/>
      <path d="M49.35 47.15 Q48.75 48.4 48.45 49.6 L48.0 51.75 Q47.55 53.65 47.4 57.15 L47.3 61.8 45.2 61.65 Q44.35 61.45 44.35 61.2 44.35 60.25 45.25 56.1 46.3 51.35 47.15 49.8 L48.35 48.0 Q49.0 47.2 49.35 47.15" fill="#bb9349" fill-rule="evenodd" stroke="none"/>
      <path d="M44.7 58.9 L46.15 59.35 48.55 59.05 48.6 60.0 45.9 60.25 45.9 60.2 44.55 59.85 44.7 58.9 M48.6 55.9 L48.6 56.8 46.9 56.8 45.2 56.4 45.4 55.5 47.1 55.9 48.6 55.9 M48.85 52.65 L48.75 53.55 47.15 53.45 45.95 53.2 46.2 52.3 47.4 52.55 48.85 52.65 M47.25 49.55 Q48.05 50.05 48.75 50.1 L49.25 50.15 49.05 51.05 48.55 51.0 Q47.55 50.85 46.85 50.4 L47.25 49.55" fill="#33270e" fill-rule="evenodd" stroke="none"/>
      <path d="M50.05 46.25 L51.9 47.2 Q53.8 48.5 54.3 50.35 54.75 52.2 53.9 55.35 L52.95 58.15 Q50.3 55.4 49.6 53.3 49.15 52.0 49.05 49.5 L49.05 47.25 49.3 46.7 Q49.65 46.15 50.05 46.25" fill="#91fb65" fill-rule="evenodd" stroke="none"/>
      <path d="M49.7 46.3 Q51.95 48.15 52.85 51.35 53.5 53.85 53.0 58.05 L52.95 58.15 Q50.3 55.4 49.6 53.3 49.15 52.0 49.05 49.5 L49.05 47.25 49.2 46.85 49.7 46.3" fill="#64b528" fill-rule="evenodd" stroke="none"/>
      <path d="M49.5 46.3 Q49.05 48.75 47.25 51.05 46.15 52.5 43.05 53.25 L40.15 53.75 40.85 52.0 Q41.9 49.95 43.5 48.4 45.15 46.85 47.5 46.45 L49.5 46.3" fill="#91fb65" fill-rule="evenodd" stroke="none"/>
      <path d="M49.5 46.3 Q49.05 48.75 47.25 51.05 46.2 52.4 43.3 53.2 L40.2 53.75 43.55 50.45 Q45.45 48.5 49.4 46.3 L49.5 46.3" fill="#64b528" fill-rule="evenodd" stroke="none"/>
    </g>
    <g id="sprite38" transform="matrix(1.0, 0.0, 0.0, 1.0, 0.05, 0.0)">
      <use ffdec:characterId="1491" height="5.6" transform="matrix(1.0, 0.0, 0.0, 1.0, -0.05, 0.0)" width="8.95" xlink:href="#shape59"/>
    </g>
    <g id="shape59" transform="matrix(1.0, 0.0, 0.0, 1.0, 0.05, 0.0)">
      <path d="M4.45 0.15 L7.75 0.4 Q8.65 0.35 7.8 2.35 L8.9 5.6 4.85 4.5 0.25 4.65 Q-0.95 4.45 2.4 1.95 1.2 1.1 0.75 0.3 0.6 -0.05 2.05 0.0 L4.25 0.15 4.45 0.15" fill="url(#gradient37)" fill-rule="evenodd" stroke="none"/>
    </g>
    <radialGradient cx="0" cy="0" gradientTransform="matrix(0.0046, 0.0, 0.0, -0.0044, 4.45, 2.8)" gradientUnits="userSpaceOnUse" id="gradient37" r="819.2" spreadMethod="pad">
      <stop offset="0.0" stop-color="#37911b"/>
      <stop offset="1.0" stop-color="#107914"/>
    </radialGradient>
    <g id="shape60" transform="matrix(1.0, 0.0, 0.0, 1.0, -42.25, -23.05)">
      <path d="M50.35 26.2 Q48.85 27.9 45.5 25.95 L43.6 25.35 42.45 25.1 44.75 23.9 Q47.45 22.8 49.15 23.1 50.85 23.4 50.8 24.85 L50.35 26.2" fill="#91fb65" fill-rule="evenodd" stroke="none"/>
      <path d="M50.0 26.5 Q48.45 27.7 45.5 25.95 L43.6 25.35 42.45 25.1 Q46.15 23.95 47.75 24.3 49.25 24.65 50.0 26.5" fill="#64b528" fill-rule="evenodd" stroke="none"/>
      <path d="M50.25 26.05 L51.45 25.2 Q52.85 24.4 54.05 24.55 55.25 24.75 56.9 26.8 L58.3 28.8 55.0 28.6 52.4 28.15 Q50.45 27.45 50.25 26.05" fill="#91fb65" fill-rule="evenodd" stroke="none"/>
      <path d="M55.0 28.6 Q53.95 28.7 52.45 28.2 50.5 27.5 50.25 26.15 52.95 24.8 54.5 25.35 55.5 25.75 58.25 28.75 L58.3 28.8 55.0 28.6" fill="#64b528" fill-rule="evenodd" stroke="none"/>
      <path d="M49.5 38.8 Q49.45 39.45 47.65 39.4 45.8 39.3 45.85 38.8 L46.65 34.45 Q47.5 30.4 48.2 29.05 49.15 27.25 49.95 26.85 50.85 26.4 50.15 28.85 49.15 32.45 49.5 38.8" fill="#74511c" fill-rule="evenodd" stroke="none"/>
      <path d="M48.5 35.35 L48.4 39.35 46.55 39.2 Q45.85 39.0 45.85 38.8 L46.65 34.45 Q47.5 30.4 48.2 29.05 49.4 26.85 50.15 26.75 49.6 27.85 49.4 28.85 L49.0 30.7 Q48.6 32.35 48.5 35.35" fill="#bb9349" fill-rule="evenodd" stroke="none"/>
      <path d="M49.45 37.75 L47.2 37.95 47.15 37.95 46.0 37.65 46.15 36.8 47.35 37.2 49.45 36.95 49.45 37.75 M49.45 35.05 L48.0 35.0 46.6 34.7 46.75 33.9 48.2 34.25 49.5 34.25 49.45 35.05 M48.25 32.15 L47.2 31.95 47.45 31.15 48.45 31.4 49.7 31.45 49.6 32.25 48.25 32.15 M50.05 29.35 L49.9 30.1 49.45 30.05 Q48.6 30.0 48.0 29.55 L48.2 29.05 48.35 28.8 Q48.85 29.25 49.65 29.3 L50.05 29.35" fill="#33270e" fill-rule="evenodd" stroke="none"/>
      <path d="M50.7 26.0 L52.3 26.8 Q53.95 27.95 54.35 29.5 55.0 32.0 53.2 36.2 50.95 33.8 50.3 32.05 49.95 30.95 49.85 28.8 L49.85 26.85 50.05 26.4 Q50.35 25.95 50.7 26.0" fill="#91fb65" fill-rule="evenodd" stroke="none"/>
      <path d="M53.2 36.2 Q50.95 33.8 50.3 32.05 49.95 30.95 49.85 28.8 L49.85 26.85 50.0 26.55 50.4 26.05 Q52.35 27.6 53.1 30.35 53.65 32.45 53.25 36.1 L53.2 36.2" fill="#64b528" fill-rule="evenodd" stroke="none"/>
      <path d="M50.25 26.05 Q49.85 28.15 48.35 30.1 47.4 31.3 44.7 32.0 L42.25 32.4 Q42.9 29.95 45.1 27.85 46.5 26.5 48.5 26.15 L50.25 26.05" fill="#91fb65" fill-rule="evenodd" stroke="none"/>
      <path d="M48.35 30.1 Q46.9 31.95 42.3 32.4 L45.15 29.6 Q47.2 27.55 50.2 26.05 L50.25 26.05 Q49.85 28.15 48.35 30.1" fill="#64b528" fill-rule="evenodd" stroke="none"/>
      <path d="M67.5 57.45 L63.65 57.55 60.3 57.2 60.2 56.85 Q60.1 56.5 60.4 56.35 L61.55 56.3 63.4 56.4 Q64.6 56.4 65.95 55.8 67.3 55.15 65.9 54.9 L62.45 54.4 67.75 54.35 Q68.4 54.3 68.45 54.5 L67.8 54.9 Q67.2 55.1 67.65 55.9 68.1 56.65 68.7 56.9 69.8 57.45 67.5 57.45" fill="url(#gradient38)" fill-rule="evenodd" stroke="none"/>
      <path d="M67.3 58.1 L66.25 58.55 Q63.8 58.55 63.35 58.0 L62.3 57.4 Q61.6 57.05 62.05 56.9 L63.3 56.8 64.5 56.85 66.95 56.6 67.7 57.4 Q67.9 57.65 67.3 58.1" fill="#fffae6" fill-rule="evenodd" stroke="none"/>
      <path d="M63.05 40.85 L63.25 40.7 61.3 40.3 Q62.95 40.05 67.6 40.35 L65.7 40.7 Q65.4 40.75 66.25 41.05 67.05 41.35 66.55 41.35 L64.45 41.3 62.7 41.1 Q62.5 41.0 63.05 40.85" fill="url(#gradient39)" fill-rule="evenodd" stroke="none"/>
    </g>
    <linearGradient gradientTransform="matrix(0.0054, 0.0, 0.0, -0.0054, 64.6, 55.95)" gradientUnits="userSpaceOnUse" id="gradient38" spreadMethod="pad" x1="-819.2" x2="819.2">
      <stop offset="0.0" stop-color="#fef6d2"/>
      <stop offset="1.0" stop-color="#ffe5c5"/>
    </linearGradient>
    <linearGradient gradientTransform="matrix(0.0038, 0.0, 0.0, -0.0038, 64.45, 40.8)" gradientUnits="userSpaceOnUse" id="gradient39" spreadMethod="pad" x1="-819.2" x2="819.2">
      <stop offset="0.0" stop-color="#fef6d2"/>
      <stop offset="1.0" stop-color="#ffe5c5"/>
    </linearGradient>
    <g id="sprite39" transform="matrix(1.0, 0.0, 0.0, 1.0, 13.7, 3.15)">
      <use ffdec:characterId="1495" height="21.2" transform="matrix(1.0, 0.0, 0.0, 1.0, -13.7, -3.15)" width="49.1" xlink:href="#shape61"/>
    </g>
    <g id="shape61" transform="matrix(1.0, 0.0, 0.0, 1.0, 13.7, 3.15)">
      <path d="M35.4 4.65 Q35.4 6.4 35.0 7.8 L33.65 11.55 32.85 15.2 Q31.95 18.05 30.15 18.05 L28.25 16.15 Q26.25 14.0 24.6 13.1 L20.45 11.45 17.75 10.6 Q14.9 11.0 12.35 12.35 L9.7 14.3 Q7.8 15.65 6.15 15.9 L4.8 15.9 1.2 16.45 -4.05 16.95 Q-10.4 16.95 -12.55 14.1 -13.7 12.55 -13.7 9.55 -13.7 6.6 -12.6 4.4 -10.5 0.15 -4.95 0.15 L-2.05 0.35 Q0.35 0.1 6.5 1.5 8.8 2.6 11.55 2.9 L16.65 3.8 20.7 3.9 25.35 4.45 27.4 4.35 Q28.7 4.35 30.5 3.2 L31.7 2.45 Q31.2 0.85 31.2 -0.2 31.2 -2.55 32.8 -3.05 34.4 -3.6 34.85 -0.6 35.4 2.9 35.4 4.65" fill="#000000" fill-rule="evenodd" stroke="none"/>
    </g>
  </defs>
</svg>
