<?xml version="1.0" encoding="UTF-8" standalone="no"?>
<svg xmlns:ffdec="https://www.free-decompiler.com/flash" xmlns:xlink="http://www.w3.org/1999/xlink" ffdec:objectType="frame" height="611.35px" width="810.2px" xmlns="http://www.w3.org/2000/svg">
  <g transform="matrix(1.0, 0.0, 0.0, 1.0, 0.0, 0.0)">
    <use ffdec:characterId="1522" height="611.35" transform="matrix(1.0, 0.0, 0.0, 1.0, 0.0, 0.0)" width="810.2" xlink:href="#shape0"/>
  </g>
  <defs>
    <g id="shape0" transform="matrix(1.0, 0.0, 0.0, 1.0, 0.0, 0.0)">
      <path d="M0.55 600.45 L0.0 600.25 0.0 580.9 0.55 580.5 0.55 600.45" fill="#71310a" fill-rule="evenodd" stroke="none"/>
      <path d="M800.05 580.5 L800.05 600.25 0.55 600.25 0.55 580.5 800.05 580.5" fill="#812c00" fill-rule="evenodd" stroke="none"/>
      <path d="M800.05 584.85 L800.05 600.25 0.55 600.25 0.55 584.85 800.05 584.85" fill="#c77b1e" fill-rule="evenodd" stroke="none"/>
      <path d="M800.05 586.5 L800.05 600.25 0.55 600.25 0.55 586.5 800.05 586.5" fill="#ae5000" fill-rule="evenodd" stroke="none"/>
      <path d="M800.05 592.35 L800.05 600.25 0.55 600.25 0.55 592.35 800.05 592.35" fill="#bb5f00" fill-rule="evenodd" stroke="none"/>
      <path d="M800.05 597.65 L800.05 600.25 0.55 600.25 0.55 597.65 800.05 597.65" fill="#ebb05b" fill-rule="evenodd" stroke="none"/>
      <path d="M800.05 598.75 L800.05 600.25 0.55 600.25 0.55 598.75 800.05 598.75" fill="#e3a853" fill-rule="evenodd" stroke="none"/>
      <path d="M800.05 599.5 L800.05 600.45 0.55 600.45 0.55 599.5 800.05 599.5" fill="#71310a" fill-rule="evenodd" stroke="none"/>
      <path d="M800.0 600.45 L800.0 580.5 800.65 580.85 800.65 600.2 800.0 600.45" fill="#71310a" fill-rule="evenodd" stroke="none"/>
      <path d="M800.65 0.2 L800.65 19.6 800.05 19.95 800.05 0.0 800.65 0.2" fill="#71310a" fill-rule="evenodd" stroke="none"/>
      <path d="M800.05 0.2 L800.05 19.95 0.55 19.95 0.55 0.2 800.05 0.2" fill="#812c00" fill-rule="evenodd" stroke="none"/>
      <path d="M800.05 0.2 L800.05 15.65 0.55 15.65 0.55 0.2 800.05 0.2" fill="#c77b1e" fill-rule="evenodd" stroke="none"/>
      <path d="M800.05 0.2 L800.05 14.0 0.55 14.0 0.55 0.2 800.05 0.2" fill="#ae5000" fill-rule="evenodd" stroke="none"/>
      <path d="M800.05 0.2 L800.05 8.15 0.55 8.15 0.55 0.2 800.05 0.2" fill="#bb5f00" fill-rule="evenodd" stroke="none"/>
      <path d="M800.05 0.2 L800.05 2.85 0.55 2.85 0.55 0.2 800.05 0.2" fill="#ebb05b" fill-rule="evenodd" stroke="none"/>
      <path d="M800.05 0.2 L800.05 1.75 0.55 1.75 0.55 0.2 800.05 0.2" fill="#e3a853" fill-rule="evenodd" stroke="none"/>
      <path d="M800.05 0.0 L800.05 1.0 0.55 1.0 0.55 0.0 800.05 0.0" fill="#71310a" fill-rule="evenodd" stroke="none"/>
      <path d="M0.0 0.25 L0.6 0.0 0.6 20.0 0.0 19.65 0.0 0.25" fill="#71310a" fill-rule="evenodd" stroke="none"/>
      <path d="M13.9 18.5 L0.0 18.5 0.1 17.9 13.65 17.9 13.9 18.5" fill="#71310a" fill-rule="evenodd" stroke="none"/>
      <path d="M0.1 18.5 L13.9 18.5 13.9 583.15 0.1 583.15 0.1 18.5" fill="#812c00" fill-rule="evenodd" stroke="none"/>
      <path d="M0.1 18.5 L10.85 18.5 10.85 583.15 0.1 583.15 0.1 18.5" fill="#c77b1e" fill-rule="evenodd" stroke="none"/>
      <path d="M0.1 18.5 L9.7 18.5 9.7 583.15 0.1 583.15 0.1 18.5" fill="#ae5000" fill-rule="evenodd" stroke="none"/>
      <path d="M0.1 18.5 L5.65 18.5 5.65 583.15 0.1 583.15 0.1 18.5" fill="#bb5f00" fill-rule="evenodd" stroke="none"/>
      <path d="M0.1 18.5 L1.9 18.5 1.9 583.15 0.1 583.15 0.1 18.5" fill="#ebb05b" fill-rule="evenodd" stroke="none"/>
      <path d="M0.1 18.5 L1.15 18.5 1.15 583.15 0.1 583.15 0.1 18.5" fill="#e3a853" fill-rule="evenodd" stroke="none"/>
      <path d="M0.0 18.5 L0.65 18.5 0.65 583.15 0.0 583.15 0.0 18.5" fill="#71310a" fill-rule="evenodd" stroke="none"/>
      <path d="M0.15 583.7 L0.0 583.1 13.9 583.1 13.65 583.7 0.15 583.7" fill="#71310a" fill-rule="evenodd" stroke="none"/>
      <path d="M800.7 18.5 L786.7 18.5 786.95 17.9 800.55 17.9 800.7 18.5" fill="#71310a" fill-rule="evenodd" stroke="none"/>
      <path d="M800.55 18.5 L800.55 583.15 786.7 583.15 786.7 18.5 800.55 18.5" fill="#812c00" fill-rule="evenodd" stroke="none"/>
      <path d="M800.55 18.5 L800.55 583.15 789.75 583.15 789.75 18.5 800.55 18.5" fill="#c77b1e" fill-rule="evenodd" stroke="none"/>
      <path d="M800.55 18.5 L800.55 583.15 790.9 583.15 790.9 18.5 800.55 18.5" fill="#ae5000" fill-rule="evenodd" stroke="none"/>
      <path d="M800.55 18.5 L800.55 583.15 795.0 583.15 795.0 18.5 800.55 18.5" fill="#bb5f00" fill-rule="evenodd" stroke="none"/>
      <path d="M800.55 18.5 L800.55 583.15 798.7 583.15 798.7 18.5 800.55 18.5" fill="#ebb05b" fill-rule="evenodd" stroke="none"/>
      <path d="M800.55 18.5 L800.55 583.15 799.45 583.15 799.45 18.5 800.55 18.5" fill="#e3a853" fill-rule="evenodd" stroke="none"/>
      <path d="M800.7 18.5 L800.7 583.15 800.0 583.15 800.0 18.5 800.7 18.5" fill="#71310a" fill-rule="evenodd" stroke="none"/>
      <path d="M800.7 583.1 L800.55 583.7 786.95 583.7 786.7 583.1 800.7 583.1" fill="#71310a" fill-rule="evenodd" stroke="none"/>
      <path d="M758.35 604.05 L809.6 555.4 809.6 604.05 758.35 604.05" fill="#ae5000" fill-rule="evenodd" stroke="none"/>
      <path d="M794.95 591.3 Q796.8 590.65 796.1 592.75 795.35 595.0 794.5 593.95 793.8 593.1 794.3 592.1 L794.95 591.3" fill="#c77b1e" fill-rule="evenodd" stroke="none"/>
      <path d="M789.35 594.8 Q791.0 593.45 790.55 594.7 L789.75 596.25 792.5 598.35 Q793.2 598.85 791.8 599.0 L788.4 598.9 783.8 599.15 Q781.65 599.35 783.1 598.6 785.7 597.3 789.35 594.8" fill="#c77b1e" fill-rule="evenodd" stroke="none"/>
      <path d="M805.85 565.8 Q805.1 569.7 800.6 577.6 L796.2 584.75 798.05 584.75 Q800.25 585.35 801.95 588.65 803.85 592.3 801.0 595.35 798.25 598.25 795.65 597.1 793.5 596.15 792.9 595.05 792.2 593.85 794.05 595.2 795.8 596.5 797.55 595.25 799.35 593.95 797.95 591.6 796.55 589.3 793.75 590.4 791.55 591.2 788.15 594.25 785.7 596.45 776.4 600.4 L767.6 603.9 774.85 588.2 Q782.3 572.3 783.55 571.45 787.3 569.0 795.9 565.8 806.6 561.9 805.85 565.8" fill="#812c00" fill-rule="evenodd" stroke="none"/>
      <path d="M794.65 374.6 Q794.25 375.6 792.95 376.55 790.35 378.4 785.9 378.0 783.3 377.75 781.4 375.55 779.6 373.5 779.1 370.5 777.85 363.4 783.6 360.0 789.45 356.55 794.95 358.7 800.25 360.8 802.75 367.15 L802.75 447.25 Q798.1 448.05 792.5 447.0 781.25 444.95 776.5 435.9 775.25 432.85 774.7 428.65 773.6 420.25 777.15 414.35 779.3 410.75 787.85 402.45 794.75 395.7 796.1 390.15 797.65 383.95 796.3 378.65 L794.65 374.6" fill="#c77b1e" fill-rule="evenodd" stroke="none"/>
      <path d="M798.7 427.15 Q801.1 419.85 802.75 411.7 L802.75 447.25 Q798.1 448.05 792.5 447.0 781.25 444.95 776.5 435.9 L776.3 435.4 Q777.35 425.7 784.6 423.25 791.4 420.95 795.7 423.85 797.9 425.25 798.7 427.15 M793.35 364.7 L794.55 365.35 Q796.05 366.3 797.35 367.9 801.45 373.05 802.1 382.85 802.55 389.75 797.45 395.15 795.9 396.8 785.9 404.3 790.4 400.0 792.15 397.8 795.15 394.0 796.1 390.15 797.65 383.95 796.3 378.65 L794.65 374.6 Q794.25 375.6 792.95 376.55 790.35 378.4 785.9 378.0 781.85 377.65 779.9 373.1 777.95 368.65 779.75 364.35 779.2 367.0 779.8 369.05 780.75 372.25 784.2 373.45 789.2 375.15 792.15 372.05 795.0 369.05 793.35 364.7" fill="#ae5000" fill-rule="evenodd" stroke="none"/>
      <path d="M785.9 378.0 Q783.85 377.8 782.15 376.35 780.6 374.95 779.75 372.75 782.8 377.15 788.25 376.95 793.55 376.8 794.75 372.7 795.15 371.4 795.05 369.85 L794.9 368.6 795.75 369.95 Q796.45 371.8 795.8 374.25 L797.0 378.3 Q797.95 383.2 796.6 387.55 797.4 382.4 796.1 378.0 L794.65 374.6 Q794.25 375.6 792.95 376.55 790.35 378.4 785.9 378.0" fill="#812c00" fill-rule="evenodd" stroke="none"/>
      <path d="M784.6 362.9 L786.25 362.3 Q788.1 362.1 788.9 363.8 789.95 366.05 788.25 368.1 786.5 370.25 784.1 368.6 782.0 367.15 783.1 364.9 L784.6 362.9" fill="#e3a853" fill-rule="evenodd" stroke="none"/>
      <path d="M800.9 368.1 Q800.2 366.9 798.7 365.5 795.7 362.75 791.8 361.85 789.5 361.35 790.05 360.75 L792.55 360.55 Q798.5 361.6 800.9 368.1" fill="#e3a853" fill-rule="evenodd" stroke="none"/>
      <path d="M802.75 390.9 L802.35 392.75 800.25 400.55 Q799.2 404.35 796.4 409.55 794.4 413.3 794.8 414.9 L796.2 421.7 Q795.85 421.35 794.95 420.85 793.1 419.8 790.2 419.1 787.35 418.35 784.7 420.0 L782.65 421.8 785.35 417.8 Q788.85 413.1 792.7 409.7 796.5 406.25 800.0 398.25 L802.75 390.9" fill="#e3a853" fill-rule="evenodd" stroke="none"/>
      <path d="M794.0 395.25 Q799.05 398.45 799.3 405.45 799.45 411.65 796.3 416.0 793.65 419.7 789.65 419.3 785.8 418.9 784.25 415.25 782.75 416.05 781.2 417.85 778.1 421.55 777.75 426.75 777.35 432.55 780.3 436.6 782.85 440.0 787.15 441.35 790.35 442.3 796.8 439.9 800.05 438.65 802.65 437.25 L802.65 494.1 760.8 462.05 Q761.8 458.05 762.2 453.45 762.95 444.2 759.85 441.05 759.9 442.45 759.15 444.0 757.65 447.15 753.75 447.85 748.45 448.8 744.65 445.75 740.35 442.25 741.35 435.55 741.9 431.95 744.8 429.25 747.65 426.55 751.65 425.75 761.35 423.9 768.15 433.5 767.25 429.9 767.0 424.8 766.45 414.5 769.55 406.75 773.15 397.85 780.9 394.65 788.15 391.6 794.0 395.25" fill="#c77b1e" fill-rule="evenodd" stroke="none"/>
      <path d="M791.0 405.85 Q789.85 405.8 788.65 406.5 786.25 407.85 786.15 411.5 786.1 413.65 787.65 414.9 789.15 416.15 791.2 415.95 796.45 415.4 797.4 408.0 798.2 401.75 795.8 396.7 799.45 400.35 799.25 406.6 799.1 412.15 796.3 416.0 793.65 419.7 789.65 419.3 785.8 418.9 784.25 415.25 782.75 416.05 781.2 417.85 778.1 421.55 777.75 426.75 777.55 429.3 778.1 431.7 779.0 439.15 783.75 443.15 786.75 445.7 792.3 445.4 797.35 445.1 802.65 442.7 L802.65 494.1 760.8 462.05 Q761.8 458.05 762.2 453.45 762.95 444.2 759.85 441.05 759.9 442.45 759.15 444.0 757.65 447.15 753.75 447.85 749.15 448.7 745.5 446.35 741.45 443.7 741.2 438.45 742.9 444.1 748.05 444.9 753.75 445.8 756.5 441.8 759.2 437.9 755.75 435.6 753.05 433.75 751.1 436.05 L749.75 438.75 Q749.35 437.1 749.75 435.25 750.6 431.6 754.8 430.75 759.0 429.9 766.05 438.9 769.6 443.45 772.25 448.1 770.95 444.8 770.1 439.75 768.4 429.65 770.65 421.0 773.15 411.35 780.75 406.6 783.85 404.65 786.7 404.45 789.55 404.2 791.0 405.85" fill="#ae5000" fill-rule="evenodd" stroke="none"/>
      <path d="M754.55 434.4 Q752.45 434.25 751.25 435.45 L752.5 434.1 Q754.4 432.75 757.0 433.5 759.65 434.3 760.55 437.5 761.0 439.15 760.95 440.6 L761.55 441.5 Q762.25 442.8 762.65 444.55 763.9 450.2 761.5 458.75 763.85 445.1 759.85 441.05 759.9 442.45 759.15 444.0 757.65 447.15 753.75 447.85 751.3 448.3 748.85 447.75 746.35 447.2 744.5 445.65 747.95 447.9 752.3 447.45 757.3 446.95 758.9 443.35 760.3 440.2 758.55 437.05 757.15 434.55 754.55 434.4" fill="#812c00" fill-rule="evenodd" stroke="none"/>
      <path d="M783.45 413.7 Q782.9 408.4 786.15 406.45 787.8 405.5 789.5 405.6 784.0 406.95 784.35 412.1 784.7 417.2 789.6 418.05 794.2 418.85 797.6 413.8 L796.3 416.0 Q793.65 419.7 789.65 419.3 785.8 418.9 784.25 415.25 782.75 416.05 781.2 417.85 778.1 421.55 777.75 426.75 L777.7 428.5 Q776.95 423.4 780.15 418.05 781.7 415.35 783.45 413.7" fill="#812c00" fill-rule="evenodd" stroke="none"/>
      <path d="M782.6 397.05 Q786.2 395.75 790.4 397.15 794.8 398.55 794.25 401.3 794.0 402.6 793.05 402.45 L790.55 401.55 Q785.6 399.55 780.7 401.4 775.1 403.5 771.75 410.35 L769.5 416.8 Q769.7 408.45 774.45 402.8 777.9 398.7 782.6 397.05" fill="#e3a853" fill-rule="evenodd" stroke="none"/>
      <path d="M792.2 407.95 L793.7 407.9 Q795.15 408.25 795.0 410.05 794.9 412.3 792.85 413.15 790.75 414.0 789.9 411.75 789.15 409.8 790.6 408.7 791.35 408.15 792.2 407.95" fill="#e3a853" fill-rule="evenodd" stroke="none"/>
      <path d="M767.5 436.85 Q766.2 434.75 763.95 432.65 759.45 428.45 754.8 428.4 750.2 428.35 747.05 432.6 L744.85 436.85 Q744.95 435.2 745.65 433.25 747.1 429.3 750.3 427.85 754.5 425.95 759.05 428.0 764.2 430.3 767.5 436.85" fill="#e3a853" fill-rule="evenodd" stroke="none"/>
      <path d="M753.15 437.9 Q754.95 436.75 754.95 439.35 754.95 441.9 752.95 441.3 751.25 440.8 752.0 439.3 L753.15 437.9" fill="#e3a853" fill-rule="evenodd" stroke="none"/>
      <path d="M776.25 420.2 Q772.3 430.35 777.0 445.75 774.25 439.65 773.4 432.55 771.7 418.3 781.15 413.1 L779.45 414.75 Q777.5 417.0 776.25 420.2" fill="#c77b1e" fill-rule="evenodd" stroke="none"/>
      <path d="M761.7 452.3 Q764.25 453.85 765.45 456.7 766.65 459.6 766.8 465.15 L766.7 470.1 759.45 451.3 761.7 452.3" fill="#812c00" fill-rule="evenodd" stroke="none"/>
      <path d="M760.9 452.0 Q764.9 454.35 765.3 459.0 765.8 465.1 766.7 470.1 755.5 463.25 752.85 460.35 751.9 459.4 751.5 457.95 750.7 455.0 753.5 452.5 756.8 449.6 760.9 452.0" fill="#c77b1e" fill-rule="evenodd" stroke="none"/>
      <path d="M756.1 454.4 Q754.75 453.9 755.3 453.85 L757.2 454.2 Q761.2 455.4 761.7 457.4 762.3 459.75 765.65 462.4 766.1 466.85 766.7 470.1 755.5 463.25 752.85 460.35 752.25 459.75 751.8 458.8 750.9 456.85 751.65 454.95 752.3 457.75 754.75 458.75 757.45 459.9 758.2 457.65 758.9 455.4 756.1 454.4" fill="#ae5000" fill-rule="evenodd" stroke="none"/>
      <path d="M759.6 457.35 Q759.1 455.6 758.2 455.05 L758.85 455.3 Q760.25 456.15 760.55 457.95 760.95 460.2 759.0 461.9 756.85 463.75 752.1 464.65 748.0 465.45 749.45 463.0 750.2 461.8 751.75 460.45 751.75 460.9 753.9 461.4 756.35 462.05 758.25 460.95 760.3 459.85 759.6 457.35" fill="#812c00" fill-rule="evenodd" stroke="none"/>
      <path d="M760.0 452.5 Q761.7 453.4 762.75 455.4 763.3 456.4 763.45 457.25 L762.45 455.65 Q761.05 453.9 759.3 453.05 757.55 452.25 756.1 452.55 L755.0 453.0 756.5 452.25 Q758.3 451.65 760.0 452.5" fill="#e3a853" fill-rule="evenodd" stroke="none"/>
      <path d="M798.95 449.6 Q793.95 458.45 794.3 465.85 794.95 480.45 795.75 489.5 L786.05 482.5 Q775.6 474.55 771.55 470.1 770.55 469.05 770.05 466.75 769.05 462.1 771.55 455.9 774.05 449.65 780.45 446.0 783.6 444.2 786.3 443.6 784.55 442.2 783.25 440.0 780.75 435.5 783.35 431.3 784.85 428.8 787.75 427.55 790.55 426.35 793.6 426.75 800.9 427.8 802.45 435.85 803.2 439.65 802.0 443.25 801.3 445.45 798.95 449.6" fill="#c77b1e" fill-rule="evenodd" stroke="none"/>
      <path d="M802.7 440.2 Q802.35 443.3 797.95 451.45 794.0 458.75 794.3 465.85 794.95 480.45 795.75 489.5 L784.4 481.2 Q783.95 465.9 789.9 459.5 795.2 453.9 798.05 449.85 801.75 444.55 802.7 440.2 M782.05 435.15 Q784.1 440.8 789.3 440.75 793.85 440.7 794.45 437.7 795.0 434.9 792.55 434.1 796.4 434.95 796.9 439.45 797.1 441.25 795.65 442.7 L791.75 445.65 Q784.95 450.7 781.65 458.85 778.45 466.75 779.0 476.9 774.05 472.85 771.55 470.1 770.55 469.05 770.05 466.75 769.05 462.1 771.55 455.9 774.05 449.65 780.45 446.0 783.6 444.2 786.3 443.6 785.15 442.7 784.05 441.2 781.85 438.2 782.05 435.15" fill="#ae5000" fill-rule="evenodd" stroke="none"/>
      <path d="M793.05 440.75 Q794.45 439.2 794.35 437.0 L793.95 435.05 794.8 437.05 Q795.4 439.4 793.95 441.25 792.5 443.15 790.15 443.7 L788.1 443.85 Q784.4 444.55 780.3 447.55 772.0 453.55 769.8 465.05 769.55 461.0 771.55 455.9 774.05 449.65 780.45 446.0 783.6 444.2 786.3 443.6 784.55 442.2 783.25 440.0 780.75 435.5 783.35 431.3 L784.65 429.65 Q782.85 432.3 783.05 436.1 783.4 441.4 787.45 442.3 790.95 443.1 793.05 440.75" fill="#812c00" fill-rule="evenodd" stroke="none"/>
      <path d="M788.65 431.7 Q789.8 428.7 794.2 428.85 798.95 429.0 800.15 434.3 801.45 439.95 799.75 444.1 798.1 447.9 793.3 451.6 789.45 454.6 785.85 461.5 L783.05 467.8 Q783.75 464.9 785.05 461.4 787.65 454.45 790.55 451.6 L797.5 444.85 Q800.55 440.7 798.2 435.7 795.95 430.85 792.1 430.8 L788.65 431.7" fill="#e3a853" fill-rule="evenodd" stroke="none"/>
      <path d="M789.0 435.2 Q791.05 434.75 791.25 436.75 791.45 438.75 789.55 438.15 788.0 437.7 788.35 436.4 L789.0 435.2" fill="#e3a853" fill-rule="evenodd" stroke="none"/>
      <path d="M781.3 452.25 Q776.55 458.2 775.8 463.5 775.25 461.1 776.25 457.85 778.2 451.4 785.9 447.35 783.7 449.25 781.3 452.25" fill="#c77b1e" fill-rule="evenodd" stroke="none"/>
      <path d="M805.75 470.15 Q804.85 475.1 801.15 475.65 L797.65 475.15 799.95 478.15 Q802.7 481.5 805.25 483.1 808.15 484.95 809.15 497.9 810.1 510.15 808.65 521.55 807.55 530.55 797.0 506.2 L786.65 480.0 Q785.25 476.5 785.05 472.3 784.65 463.95 790.7 460.6 797.65 456.8 802.4 460.45 806.9 463.85 805.75 470.15" fill="#c77b1e" fill-rule="evenodd" stroke="none"/>
      <path d="M801.55 471.3 Q804.6 470.55 804.8 467.05 805.0 463.6 802.5 460.5 804.5 462.05 805.4 464.65 806.25 467.25 805.75 470.15 804.85 475.1 801.15 475.65 L797.65 475.15 797.9 475.5 796.55 474.5 799.2 481.8 Q803.1 490.95 809.3 500.25 809.9 511.65 808.65 521.55 807.55 530.55 797.0 506.2 L786.65 480.0 Q785.8 477.9 785.35 475.0 784.4 469.2 786.25 465.3 786.25 472.45 789.25 475.35 791.9 477.85 793.85 472.8 L795.25 467.25 795.95 469.9 Q797.5 472.3 801.55 471.3" fill="#ae5000" fill-rule="evenodd" stroke="none"/>
      <path d="M798.65 460.95 Q800.4 461.4 801.75 463.05 803.5 465.3 800.9 467.35 798.8 469.05 797.3 467.05 795.4 464.5 793.45 464.75 790.75 465.15 790.55 468.65 790.45 470.45 790.85 472.1 790.15 471.3 789.65 469.95 788.65 467.3 789.75 464.6 790.9 461.95 794.9 461.2 L798.65 460.95" fill="#e3a853" fill-rule="evenodd" stroke="none"/>
      <path d="M797.65 475.15 L799.0 476.95 802.3 480.7 Q796.9 477.85 795.7 474.85 794.2 471.0 794.8 467.95 L795.2 467.0 Q794.7 469.0 796.05 471.1 797.9 473.95 801.2 473.7 804.55 473.45 805.95 468.25 L805.75 470.15 Q804.85 475.1 801.15 475.65 L797.65 475.15" fill="#812c00" fill-rule="evenodd" stroke="none"/>
      <path d="M795.65 458.9 Q793.5 459.4 791.15 460.8 786.5 463.65 785.8 468.1 785.15 472.0 786.4 479.2 784.4 474.8 784.5 470.3 784.7 463.65 790.1 460.65 792.55 459.35 795.75 458.85 L795.65 458.9" fill="#812c00" fill-rule="evenodd" stroke="none"/>
      <path d="M612.05 601.35 L553.75 601.35 Q551.5 600.4 549.4 597.9 545.2 592.95 546.1 585.3 547.05 577.1 554.25 575.1 L559.8 574.8 Q562.4 575.3 563.65 576.6 566.45 579.55 566.2 583.3 565.9 587.6 560.95 588.2 L562.0 590.85 Q564.05 593.7 569.05 594.55 573.05 595.25 580.45 589.9 589.1 583.65 595.65 582.5 605.55 580.75 610.4 586.2 615.35 591.75 612.05 601.35" fill="#c77b1e" fill-rule="evenodd" stroke="none"/>
      <path d="M578.25 596.95 L585.4 592.35 Q595.65 585.4 604.15 585.6 607.75 585.75 610.7 586.6 612.85 589.2 613.25 592.95 613.65 596.8 612.05 601.35 L553.75 601.35 Q551.5 600.4 549.4 597.9 545.2 592.95 546.1 585.3 L546.15 584.75 Q546.65 591.25 550.15 595.3 553.8 599.5 558.45 599.6 560.2 599.65 561.1 598.95 562.0 598.25 561.35 597.25 L557.5 594.0 Q554.75 591.75 554.1 587.9 553.4 583.85 556.15 581.6 L559.05 580.1 558.3 581.55 Q557.85 583.3 559.4 584.9 561.25 586.85 563.6 584.85 566.05 582.7 565.05 578.6 566.75 581.75 566.0 584.5 565.1 587.7 560.95 588.2 L561.05 588.9 Q561.6 591.85 563.35 594.2 566.2 598.05 571.3 598.6 574.45 598.95 578.25 596.95" fill="#ae5000" fill-rule="evenodd" stroke="none"/>
      <path d="M566.2 582.45 Q566.35 584.7 565.15 586.15 563.8 587.85 560.95 588.2 L562.0 590.85 Q564.05 593.7 569.05 594.55 L570.25 594.65 569.45 594.65 Q563.85 594.4 561.15 591.25 L559.6 588.1 Q558.75 588.05 557.85 587.5 556.05 586.4 555.75 584.05 555.4 581.7 557.2 580.65 L559.05 580.1 Q555.65 581.85 557.25 584.95 558.85 588.05 562.3 586.95 565.05 586.05 566.2 582.45" fill="#812c00" fill-rule="evenodd" stroke="none"/>
      <path d="M547.2 591.25 Q548.7 597.35 555.1 601.35 L553.75 601.35 Q551.5 600.4 549.4 597.9 545.2 592.95 546.1 585.3 546.8 579.4 551.0 576.55 548.7 578.95 547.6 582.05 546.05 586.3 547.2 591.25" fill="#812c00" fill-rule="evenodd" stroke="none"/>
      <path d="M559.05 576.7 Q559.6 576.75 555.65 577.85 551.3 579.95 550.65 584.6 550.0 589.3 551.35 592.55 552.0 594.1 552.75 594.75 551.6 593.75 550.6 591.85 548.6 587.9 549.7 583.0 550.85 578.1 554.7 576.9 L559.05 576.7" fill="#e3a853" fill-rule="evenodd" stroke="none"/>
      <path d="M561.85 580.4 Q563.3 580.65 562.75 582.45 562.2 584.25 561.15 583.15 560.3 582.2 561.0 581.2 L561.85 580.4" fill="#e3a853" fill-rule="evenodd" stroke="none"/>
      <path d="M577.75 595.0 Q574.75 596.75 571.85 596.3 L574.65 595.6 Q578.15 594.3 581.6 591.1 585.85 587.2 591.15 585.2 596.7 583.1 601.05 583.95 L596.7 584.55 Q591.3 585.8 586.3 589.15 L577.75 595.0" fill="#e3a853" fill-rule="evenodd" stroke="none"/>
      <path d="M603.35 601.25 Q597.6 595.2 600.3 587.65 602.75 580.7 610.0 577.6 615.6 575.25 621.85 576.8 624.95 577.6 626.95 578.85 636.1 583.55 644.5 592.85 648.7 597.55 651.05 601.25 L603.35 601.25" fill="#c77b1e" fill-rule="evenodd" stroke="none"/>
      <path d="M631.2 588.8 Q626.3 586.85 624.65 583.0 623.4 580.25 622.7 577.05 625.3 577.85 626.95 578.85 636.1 583.55 644.5 592.85 648.7 597.55 651.05 601.25 L636.9 601.25 Q633.55 595.25 634.5 592.15 634.9 590.85 633.9 590.05 633.45 589.7 631.2 588.8 M603.35 601.25 Q600.55 598.3 599.75 594.75 599.05 591.45 600.15 588.1 600.05 594.65 605.55 596.4 611.05 598.2 614.95 594.7 618.7 591.25 616.25 587.9 614.1 585.0 611.35 585.8 608.85 586.6 608.85 588.85 608.55 587.9 609.0 586.75 609.85 584.4 613.45 583.25 617.3 582.0 620.6 585.75 623.25 588.75 624.45 593.1 625.2 595.85 627.85 601.25 L603.35 601.25" fill="#ae5000" fill-rule="evenodd" stroke="none"/>
      <path d="M603.35 601.25 Q600.45 598.2 599.75 594.5 599.05 591.15 600.3 587.7 599.65 592.5 600.95 596.1 602.7 600.85 608.75 601.2 614.7 601.6 617.05 597.45 619.2 593.65 618.3 590.35 617.55 587.6 615.1 586.15 612.9 584.85 610.8 586.1 608.55 587.45 608.85 590.5 608.55 589.55 608.75 588.3 609.2 585.9 611.65 584.6 614.8 582.9 617.65 586.3 620.55 589.8 619.25 595.05 618.35 598.75 615.65 601.25 L603.35 601.25" fill="#812c00" fill-rule="evenodd" stroke="none"/>
      <path d="M613.55 579.5 Q618.85 578.45 622.5 582.3 626.3 586.25 626.85 593.95 626.4 591.3 625.05 588.35 622.35 582.5 618.0 581.25 613.6 580.05 609.4 582.4 607.3 583.6 605.85 585.2 605.9 584.25 607.0 582.95 609.25 580.35 613.55 579.5" fill="#e3a853" fill-rule="evenodd" stroke="none"/>
      <path d="M611.75 592.45 Q610.45 590.9 611.45 589.4 L612.7 588.2 Q615.0 587.7 614.2 591.0 613.35 594.35 611.75 592.45" fill="#e3a853" fill-rule="evenodd" stroke="none"/>
      <path d="M640.8 538.1 Q648.5 535.45 655.85 542.25 663.3 549.15 668.5 563.9 672.9 576.3 681.2 590.0 685.35 596.85 688.65 601.2 L647.0 601.2 Q644.95 601.35 642.8 600.65 638.5 599.3 638.0 595.25 637.7 593.1 637.95 588.7 638.0 586.7 636.5 585.75 634.2 586.65 631.5 586.55 626.05 586.45 624.0 581.75 621.45 576.1 623.8 570.6 626.15 565.05 631.5 564.4 636.8 563.8 640.65 565.55 644.4 567.25 646.3 570.9 646.25 570.05 646.55 568.45 647.1 565.35 648.65 561.9 650.3 558.25 649.55 555.65 649.0 553.9 647.15 552.4 646.4 553.9 644.9 555.05 641.9 557.3 638.15 555.4 633.2 552.9 633.4 546.95 633.7 540.55 640.8 538.1" fill="#c77b1e" fill-rule="evenodd" stroke="none"/>
      <path d="M637.6 576.0 Q636.65 574.25 634.5 573.95 630.8 573.4 629.75 575.6 629.25 576.65 629.45 577.85 628.7 576.35 628.95 574.55 629.4 571.0 634.2 569.65 639.5 568.15 642.3 573.3 644.85 577.95 643.5 582.95 642.25 587.4 643.8 591.85 645.8 597.65 652.1 601.2 L647.0 601.2 Q644.95 601.35 642.8 600.65 638.5 599.3 638.0 595.25 637.7 593.1 637.95 588.7 638.0 586.7 636.5 585.75 634.2 586.65 631.5 586.55 626.05 586.45 624.0 581.75 L623.4 580.2 Q625.85 584.15 631.15 584.35 636.8 584.5 638.0 579.55 638.45 577.55 637.6 576.0 M642.5 553.2 Q646.6 551.55 646.35 547.85 646.15 544.55 643.8 543.4 L645.65 543.7 Q647.9 544.25 649.8 545.4 656.0 549.15 656.8 557.85 657.15 561.85 656.35 568.0 655.4 575.5 655.35 577.4 655.1 587.8 664.55 593.65 659.55 593.05 654.75 589.85 645.2 583.5 646.25 570.8 L646.3 570.9 Q646.25 570.05 646.55 568.45 647.1 565.35 648.65 561.9 650.3 558.25 649.55 555.65 649.0 553.9 647.15 552.4 646.4 553.9 644.9 555.05 641.9 557.3 638.15 555.4 635.0 553.85 633.85 550.15 637.7 555.2 642.5 553.2" fill="#ae5000" fill-rule="evenodd" stroke="none"/>
      <path d="M637.75 544.25 Q639.5 543.65 640.35 544.8 641.1 545.8 640.95 547.5 640.8 549.2 639.95 550.1 L637.85 550.2 Q635.75 548.65 636.55 546.3 L637.75 544.25" fill="#e3a853" fill-rule="evenodd" stroke="none"/>
      <path d="M642.5 541.55 Q644.35 539.8 648.45 540.8 653.35 542.05 656.9 547.05 660.8 552.55 662.5 559.5 664.15 566.15 664.35 576.45 664.5 584.85 669.3 591.25 671.7 594.45 674.05 596.0 671.7 594.85 669.0 592.75 663.65 588.65 661.95 584.1 661.0 581.6 661.2 570.45 661.4 559.7 657.95 551.9 654.15 543.35 647.95 541.6 L644.05 541.25 642.5 541.55" fill="#e3a853" fill-rule="evenodd" stroke="none"/>
      <path d="M642.75 569.85 Q641.7 568.85 639.85 568.15 L632.45 568.35 Q628.65 569.9 627.55 573.15 626.95 574.8 627.15 576.1 626.4 575.0 626.25 573.3 625.95 569.95 628.9 567.25 632.1 564.35 637.35 566.0 642.15 567.5 642.75 569.85" fill="#e3a853" fill-rule="evenodd" stroke="none"/>
      <path d="M632.25 577.55 Q634.25 576.5 634.6 579.2 634.95 581.95 632.9 581.4 631.2 580.95 631.55 579.2 L632.25 577.55" fill="#e3a853" fill-rule="evenodd" stroke="none"/>
      <path d="M647.15 550.15 Q647.9 546.0 644.65 543.4 L646.85 544.8 Q648.9 547.05 648.0 551.6 L649.85 553.5 Q651.6 556.1 650.95 559.9 650.4 562.95 647.9 570.0 646.3 577.05 649.45 584.45 648.35 583.15 647.4 580.8 645.45 576.0 646.05 570.5 L646.3 570.9 Q646.25 570.05 646.55 568.45 647.1 565.35 648.65 561.9 650.3 558.25 649.55 555.65 649.0 553.9 647.15 552.4 646.4 553.9 644.9 555.05 641.9 557.3 638.15 555.4 636.85 554.8 635.85 553.65 639.35 556.1 642.6 555.25 646.45 554.25 647.15 550.15" fill="#812c00" fill-rule="evenodd" stroke="none"/>
      <path d="M638.4 576.5 Q637.55 574.7 635.9 574.2 634.25 573.65 632.4 574.2 630.1 574.9 629.65 577.3 629.55 576.55 629.95 575.6 630.75 573.7 633.35 572.9 636.2 572.0 638.2 574.65 640.0 577.0 639.8 579.8 L639.1 588.35 Q638.8 594.9 640.45 597.2 641.4 598.55 644.15 600.95 638.6 599.95 638.0 595.25 637.7 593.1 637.95 588.7 638.0 586.7 636.5 585.75 634.2 586.65 631.5 586.55 626.05 586.45 624.0 581.75 622.95 579.35 622.8 576.9 624.15 582.1 626.65 583.8 629.65 585.85 633.2 585.4 636.95 584.9 638.3 581.75 639.55 578.8 638.4 576.5" fill="#812c00" fill-rule="evenodd" stroke="none"/>
      <path d="M651.75 592.8 Q653.8 594.25 660.75 597.95 665.6 600.5 664.85 600.95 L659.05 600.65 Q655.55 599.2 652.1 596.2 645.3 590.2 645.75 582.5 L646.8 586.3 Q648.5 590.5 651.75 592.8" fill="#e3a853" fill-rule="evenodd" stroke="none"/>
      <path d="M718.95 545.65 Q720.9 553.95 719.75 562.65 718.6 571.35 714.8 578.65 L711.2 584.15 706.45 584.7 Q701.7 584.7 701.8 582.0 701.95 579.3 709.4 558.9 L716.8 539.05 718.95 545.65" fill="#812c00" fill-rule="evenodd" stroke="none"/>
      <path d="M719.6 551.15 Q720.55 569.45 710.2 584.35 705.05 586.8 698.05 586.7 684.0 586.5 674.7 573.65 L681.85 572.85 Q690.2 570.95 696.0 565.25 701.8 559.55 703.3 553.65 L703.75 550.15 703.65 548.85 Q702.4 548.55 701.2 547.65 698.7 545.8 698.7 542.85 698.7 538.6 701.55 535.7 705.05 532.15 711.1 533.05 714.45 533.5 716.8 538.6 719.2 543.65 719.6 551.15" fill="#c77b1e" fill-rule="evenodd" stroke="none"/>
      <path d="M707.45 538.1 Q710.7 539.5 712.0 545.05 713.2 550.4 712.05 557.05 710.85 564.05 707.5 569.25 703.7 575.1 698.15 576.9 690.1 579.55 683.85 577.6 679.8 576.35 677.25 573.55 681.55 573.25 685.65 571.75 691.6 569.55 696.0 565.25 701.8 559.55 703.3 553.65 L703.75 550.15 703.65 548.85 702.45 548.4 Q706.6 549.4 708.75 546.15 710.7 543.2 709.25 540.35 L707.45 538.1" fill="#ae5000" fill-rule="evenodd" stroke="none"/>
      <path d="M707.45 538.1 L709.25 540.05 Q710.85 542.6 709.95 545.4 709.0 548.2 706.95 549.1 L705.1 549.5 705.1 551.05 Q704.95 553.0 704.25 555.1 702.1 561.7 695.45 566.95 691.35 570.2 686.05 571.95 681.35 573.5 676.55 573.6 680.85 573.35 685.0 571.95 691.35 569.8 696.0 565.25 701.8 559.55 703.3 553.65 L703.75 550.15 703.65 548.85 Q702.4 548.55 701.2 547.65 698.7 545.8 698.7 542.85 698.7 541.6 699.1 540.1 699.5 543.75 701.65 545.95 702.85 547.2 704.65 547.0 706.3 546.8 707.6 545.5 710.8 542.25 707.45 538.1" fill="#812c00" fill-rule="evenodd" stroke="none"/>
      <path d="M702.8 538.85 Q705.3 538.15 705.55 540.95 705.75 543.85 703.6 543.2 701.9 542.7 702.15 540.75 L702.8 538.85" fill="#e3a853" fill-rule="evenodd" stroke="none"/>
      <path d="M708.65 535.85 Q713.95 534.95 716.15 546.5 718.3 557.9 715.0 567.2 712.25 574.8 707.45 578.45 705.9 579.6 704.4 580.2 L703.15 580.6 Q706.15 578.2 709.15 573.6 715.1 564.4 715.1 553.5 715.1 542.65 711.9 538.15 710.85 536.75 709.65 536.15 L708.65 535.85" fill="#e3a853" fill-rule="evenodd" stroke="none"/>
      <path d="M667.4 529.15 L668.2 538.5 Q669.05 549.6 669.15 558.3 669.2 568.2 678.05 577.6 685.9 585.95 698.15 591.55 747.75 614.1 711.75 610.35 687.35 607.85 674.05 595.25 662.4 584.15 659.5 565.55 657.3 551.2 662.1 538.75 663.65 534.85 665.65 531.6 L667.4 529.15" fill="#812c00" fill-rule="evenodd" stroke="none"/>
      <path d="M753.6 459.2 Q772.45 463.2 783.4 473.3 798.25 487.0 804.5 503.15 812.15 522.8 808.3 548.4 803.9 577.65 784.75 593.75 763.55 611.55 726.3 611.35 692.45 611.2 675.1 595.25 663.65 584.7 661.8 570.9 660.85 568.25 660.2 563.7 658.9 554.65 660.55 545.4 662.3 535.55 668.5 527.7 670.8 524.7 672.95 523.15 674.95 521.7 675.5 522.4 676.85 524.0 678.25 531.25 679.8 539.5 679.45 546.55 L683.35 544.1 Q687.8 540.9 690.45 537.0 693.7 532.3 694.8 532.55 695.9 532.8 696.4 538.35 697.05 545.85 693.5 553.6 688.55 564.25 676.5 572.05 L677.5 573.85 Q678.9 576.0 681.0 577.8 687.6 583.55 698.2 583.55 704.4 583.55 711.1 579.7 717.5 576.0 722.6 569.75 734.15 555.45 730.6 541.15 L726.15 537.6 Q723.55 535.7 720.25 531.6 713.65 523.4 710.1 512.45 706.55 501.5 707.4 490.4 L708.95 481.5 Q708.9 480.6 709.15 479.3 709.75 476.7 711.6 474.8 713.5 472.95 715.2 473.0 716.05 473.05 716.55 473.45 716.4 471.75 717.0 469.3 718.15 464.35 721.75 460.65 725.65 456.65 730.8 456.1 735.05 455.65 736.95 457.25 L741.75 457.5 Q747.7 457.95 753.6 459.2" fill="url(#gradient0)" fill-rule="evenodd" stroke="none"/>
      <path d="M742.9 523.7 Q747.95 531.7 749.55 539.3 751.55 548.75 749.2 560.75 746.8 573.1 735.8 580.95 725.8 588.1 712.0 589.5 698.35 590.85 687.2 586.0 675.2 580.75 671.0 570.05 665.25 555.5 667.45 541.2 669.2 529.5 675.1 522.2 L675.5 522.4 Q676.85 524.0 678.25 531.25 679.8 539.5 679.45 546.55 L683.35 544.1 Q687.8 540.9 690.45 537.0 693.7 532.3 694.8 532.55 695.9 532.8 696.4 538.35 697.05 545.85 693.5 553.6 688.55 564.25 676.5 572.05 L677.5 573.85 Q678.9 576.0 681.0 577.8 687.6 583.55 698.2 583.55 704.4 583.55 711.1 579.7 717.5 576.0 722.6 569.75 734.15 555.45 730.6 541.15 L726.15 537.6 Q723.55 535.7 720.25 531.6 713.65 523.4 710.1 512.45 706.55 501.5 707.4 490.4 L708.95 481.5 Q708.9 480.6 709.15 479.3 709.75 476.7 711.6 474.8 713.5 472.95 715.2 473.0 716.05 473.05 716.55 473.45 716.4 471.75 717.0 469.3 718.15 464.35 721.75 460.65 725.15 457.2 729.6 456.3 L735.8 456.6 Q731.0 457.65 727.3 459.35 726.35 459.7 725.15 460.65 722.7 462.6 721.25 465.6 716.55 475.3 723.4 492.25 726.7 500.45 733.0 509.55 L742.9 523.7" fill="#ae5000" fill-rule="evenodd" stroke="none"/>
      <path d="M731.3 547.55 Q732.3 550.3 732.15 553.7 732.0 557.3 730.6 560.4 727.1 568.25 720.7 574.5 712.5 582.5 703.3 583.4 700.2 583.75 697.05 583.5 L698.2 583.55 Q709.75 583.55 720.35 572.25 731.2 560.75 731.3 547.55" fill="#812c00" fill-rule="evenodd" stroke="none"/>
      <path d="M736.95 457.25 L737.25 457.25 Q730.85 458.35 727.1 461.15 721.0 465.65 718.6 475.7 717.0 482.3 716.35 493.5 716.2 496.4 715.75 496.7 715.25 497.1 713.65 494.95 710.05 490.0 708.75 482.1 L708.95 481.5 Q708.9 480.6 709.15 479.3 709.75 476.7 711.6 474.8 713.5 472.95 715.2 473.0 716.05 473.05 716.55 473.45 716.4 471.75 717.0 469.3 718.15 464.35 721.75 460.65 725.65 456.65 730.8 456.1 735.05 455.65 736.95 457.25" fill="#c77b1e" fill-rule="evenodd" stroke="none"/>
      <path d="M716.55 473.45 Q716.95 477.6 714.65 485.9 714.0 485.65 713.35 484.8 712.15 483.05 712.35 480.0 712.55 476.9 714.55 474.85 715.6 473.85 716.55 473.45" fill="#ae5000" fill-rule="evenodd" stroke="none"/>
      <path d="M768.75 500.05 L763.95 502.2 Q763.2 502.4 765.8 499.4 768.3 496.55 773.2 494.55 775.95 493.45 781.0 491.8 784.8 490.2 785.5 487.85 786.35 484.95 783.05 479.65 777.45 470.7 761.0 463.65 751.85 459.75 742.55 457.55 752.55 458.4 761.65 461.3 774.95 465.5 783.4 473.3 798.25 487.0 804.5 503.15 812.15 522.8 808.3 548.4 803.9 577.65 784.75 593.75 763.55 611.55 726.3 611.35 692.45 611.2 675.1 595.25 663.65 584.7 661.8 570.9 665.6 584.15 676.4 592.65 686.4 600.45 701.0 603.35 714.95 606.05 730.45 603.9 745.9 601.7 759.55 595.15 772.3 589.0 781.15 574.3 788.85 561.55 792.35 544.8 795.5 529.6 794.2 516.85 792.85 504.1 787.8 500.65 780.05 495.35 768.75 500.05" fill="#c77b1e" fill-rule="evenodd" stroke="none"/>
      <path d="M745.2 522.85 Q742.5 530.85 735.1 532.7 727.65 534.6 722.35 530.95 720.7 529.8 719.45 528.25 L718.55 526.95 719.75 528.15 Q721.35 529.5 723.2 530.4 729.15 533.3 735.65 530.5 742.15 527.7 744.95 521.2 L746.2 517.0 746.4 515.25 746.3 517.55 Q746.05 520.4 745.2 522.85" fill="#812c00" fill-rule="evenodd" stroke="none"/>
      <path d="M740.55 540.55 Q733.85 544.95 726.0 538.2 723.55 536.1 721.3 533.15 L719.5 530.6 724.6 535.1 Q731.0 539.3 737.2 537.8 743.45 536.3 747.5 528.5 749.55 524.6 750.3 521.0 L750.3 523.05 Q750.15 525.65 749.45 528.15 747.25 536.2 740.55 540.55" fill="#812c00" fill-rule="evenodd" stroke="none"/>
      <path d="M778.9 497.05 Q787.0 497.05 793.25 501.65 796.35 503.95 799.9 504.6 L802.85 504.8 801.0 505.45 Q798.6 505.85 795.85 504.7 791.75 502.35 789.05 501.25 784.3 499.2 777.6 499.4 770.95 499.6 763.25 504.25 L756.9 508.9 Q766.7 497.0 778.9 497.05" fill="#812c00" fill-rule="evenodd" stroke="none"/>
      <path d="M676.4 572.55 Q671.55 569.65 666.25 569.4 L661.9 569.75 Q668.45 567.25 673.1 569.65 675.4 570.85 676.4 572.55" fill="#812c00" fill-rule="evenodd" stroke="none"/>
      <path d="M667.25 539.8 Q661.8 556.55 664.6 569.05 662.65 565.05 662.75 557.6 662.95 542.75 673.25 525.55 L671.25 529.55 Q668.95 534.55 667.25 539.8" fill="#812c00" fill-rule="evenodd" stroke="none"/>
      <path d="M672.05 544.9 Q667.8 557.7 666.75 569.25 666.15 565.7 667.05 559.55 668.8 547.3 676.1 534.4 L672.05 544.9" fill="#812c00" fill-rule="evenodd" stroke="none"/>
      <path d="M669.75 569.25 Q675.6 555.25 677.9 547.75 L676.4 554.95 Q674.05 563.3 669.75 569.25" fill="#812c00" fill-rule="evenodd" stroke="none"/>
      <path d="M686.45 550.8 Q681.5 563.75 671.6 569.9 674.45 568.05 678.05 563.3 685.35 553.75 689.4 539.05 L688.85 542.5 Q687.95 546.75 686.45 550.8" fill="#812c00" fill-rule="evenodd" stroke="none"/>
      <path d="M694.05 540.6 Q694.4 548.2 689.75 556.25 685.9 562.9 679.6 567.55 L674.1 570.9 680.45 566.15 Q687.4 559.95 690.4 552.55 693.45 545.2 693.4 539.15 L692.75 534.55 693.3 536.15 Q693.9 538.2 694.05 540.6" fill="#812c00" fill-rule="evenodd" stroke="none"/>
      <path d="M733.5 497.35 Q733.5 501.15 731.5 503.9 729.55 506.6 726.75 506.6 723.95 506.6 721.95 503.9 720.0 501.2 720.0 497.35 720.0 493.5 721.95 490.8 723.95 488.1 726.75 488.1 729.55 488.1 731.5 490.8 733.5 493.5 733.5 497.35" fill="#e3a853" fill-rule="evenodd" stroke="none"/>
      <path d="M727.15 497.15 Q727.15 499.4 726.2 501.0 725.25 502.6 723.9 502.6 722.55 502.6 721.6 501.0 720.65 499.4 720.65 497.15 720.65 494.9 721.6 493.35 722.55 491.75 723.9 491.75 725.25 491.75 726.2 493.35 727.15 494.9 727.15 497.15" fill="#812c00" fill-rule="evenodd" stroke="none"/>
      <path d="M725.5 495.25 Q725.5 496.35 724.95 497.1 724.35 497.9 723.55 497.9 722.75 497.9 722.2 497.1 721.65 496.35 721.65 495.25 721.65 494.15 722.2 493.35 722.75 492.6 723.55 492.6 724.4 492.6 724.95 493.35 725.5 494.15 725.5 495.25" fill="url(#gradient1)" fill-rule="evenodd" stroke="none"/>
      <path d="M721.0 504.25 L722.95 507.45 Q725.8 510.45 730.5 509.75 728.65 510.7 726.5 510.5 722.25 510.1 721.0 504.25" fill="#812c00" fill-rule="evenodd" stroke="none"/>
      <path d="M730.6 541.15 Q734.75 541.75 734.45 550.65 734.1 559.3 730.3 564.25 727.2 568.35 720.45 568.0 717.4 567.85 710.0 565.9 705.6 564.75 706.1 562.9 706.6 560.9 712.8 556.75 718.1 553.2 724.9 546.85 L730.6 541.15" fill="url(#gradient2)" fill-rule="evenodd" stroke="none"/>
      <path d="M730.6 541.15 Q734.75 541.75 734.45 550.65 734.1 559.3 730.3 564.25 L730.15 564.45 Q734.0 555.75 733.55 549.2 733.4 547.2 732.85 545.6 L732.3 544.4 Q730.45 554.1 726.7 561.65 724.8 565.4 723.3 567.25 727.8 559.75 729.95 550.95 L731.15 543.6 Q727.7 554.25 721.6 561.4 L717.7 565.25 716.15 566.4 Q723.25 559.1 727.4 550.4 L730.15 543.1 Q724.45 553.5 716.05 560.0 L710.85 563.4 708.8 564.4 Q715.35 560.45 722.6 552.05 L728.5 544.4 Q721.9 552.05 709.2 559.35 710.85 558.0 712.8 556.75 718.1 553.2 724.9 546.85 L730.6 541.15" fill="#812c00" fill-rule="evenodd" stroke="none"/>
      <path d="M810.1 552.9 Q810.75 559.85 806.75 568.3 802.85 576.55 795.4 584.3 778.55 601.75 756.55 605.75 740.45 608.7 723.35 606.95 L713.2 605.45 709.45 604.6 716.3 604.15 Q724.75 603.35 732.95 601.45 759.15 595.3 772.85 580.55 795.45 556.1 793.8 513.35 L801.3 526.1 Q809.0 541.2 810.1 552.9" fill="#ae5000" fill-rule="evenodd" stroke="none"/>
      <path d="M719.25 603.85 L720.95 603.65 Q724.5 606.4 727.65 607.3 L725.25 607.15 Q722.2 606.3 719.25 603.85 M728.9 602.3 L730.3 602.0 Q736.05 606.45 738.9 607.5 735.35 606.35 728.9 602.3 M779.75 596.2 L778.55 590.0 Q776.95 582.85 775.05 578.0 L776.15 576.7 Q779.6 586.4 779.75 596.2 M788.3 554.6 Q790.7 560.55 792.5 567.0 794.95 575.95 795.6 583.7 795.15 580.55 793.85 575.65 791.35 565.85 787.4 557.0 L788.3 554.6 M782.0 568.2 L782.85 566.7 Q787.25 577.8 788.45 590.4 785.75 578.55 782.0 568.2 M758.15 591.95 L759.4 591.25 Q763.4 600.55 763.7 603.7 L758.15 591.95 M748.95 596.45 L749.85 596.05 756.55 605.75 748.95 596.45 M739.15 599.85 L740.9 599.3 Q746.2 604.75 748.5 606.65 743.65 603.6 739.15 599.85 M766.9 586.05 L768.55 584.7 Q771.95 594.4 771.95 600.6 769.45 592.3 766.9 586.05 M803.25 549.95 Q798.55 536.65 793.65 528.05 L793.9 523.2 Q805.5 547.25 808.15 565.0 L808.05 565.25 Q806.05 557.85 803.25 549.95 M790.95 545.8 L791.65 542.7 Q794.8 548.2 797.2 555.15 800.55 564.95 801.85 576.3 801.0 571.95 799.2 565.95 795.6 553.95 790.95 545.8" fill="#812c00" fill-rule="evenodd" stroke="none"/>
      <path d="M793.8 513.35 L794.3 518.95 Q794.7 526.0 794.05 533.25 791.9 556.35 780.2 572.5 769.5 587.3 755.8 594.4 744.3 600.35 726.15 602.8 739.15 600.5 749.9 596.0 764.1 590.0 772.85 580.55 795.45 556.1 793.8 513.35" fill="#812c00" fill-rule="evenodd" stroke="none"/>
      <path d="M712.35 481.6 Q713.15 477.05 716.55 476.0 716.2 480.3 714.65 485.9 L713.6 485.1 Q712.5 483.8 712.35 481.6" fill="#812c00" fill-rule="evenodd" stroke="none"/>
      <path d="M759.75 484.5 Q764.05 492.45 758.35 498.85 754.2 503.45 754.45 507.3 754.7 511.1 758.75 509.55 763.8 507.7 768.45 512.95 774.15 519.45 774.6 533.45 775.2 551.45 769.85 564.05 763.1 579.9 746.5 588.8 731.45 596.85 710.25 596.1 L697.15 594.8 692.05 593.75 704.25 595.1 Q718.25 596.05 727.3 593.95 742.3 590.5 752.35 579.75 766.15 564.95 763.45 541.25 761.05 519.9 748.85 502.55 L739.8 490.75 Q735.15 484.75 733.75 480.8 730.85 472.55 730.55 468.25 L730.85 465.6 Q754.0 473.75 759.75 484.5" fill="#c77b1e" fill-rule="evenodd" stroke="none"/>
      <path d="M728.55 458.4 Q727.1 459.0 725.3 460.45 721.75 463.45 720.1 467.9 719.1 470.5 718.75 469.55 718.35 468.65 719.2 466.2 721.65 459.05 728.55 458.4" fill="#e3a853" fill-rule="evenodd" stroke="none"/>
      <path d="M710.9 479.05 L711.4 482.65 Q712.1 486.5 712.95 487.8 714.25 489.8 714.75 492.15 715.35 494.75 713.25 492.85 711.05 490.85 710.4 486.0 709.8 481.45 710.9 479.05" fill="#e3a853" fill-rule="evenodd" stroke="none"/>
      <path d="M752.45 486.95 Q757.0 494.7 754.25 498.05 752.35 500.3 749.05 494.5 745.35 486.95 743.55 484.5 741.35 481.45 738.15 475.9 L735.4 471.0 Q747.15 478.0 752.45 486.95" fill="#e3a853" fill-rule="evenodd" stroke="none"/>
      <path d="M763.15 514.05 Q766.5 513.6 769.05 526.6 771.8 540.7 769.25 554.45 766.9 566.9 761.3 574.1 759.55 576.35 757.65 577.8 L756.15 578.8 757.45 577.55 760.45 573.55 Q765.05 566.2 766.4 555.65 767.8 545.15 765.45 533.15 762.55 522.0 762.1 519.25 761.55 515.8 762.3 514.6 762.65 514.0 763.15 514.05" fill="#e3a853" fill-rule="evenodd" stroke="none"/>
      <path d="M741.9 534.1 Q737.55 536.7 733.15 535.95 L729.6 534.7 734.85 534.8 Q740.7 533.95 743.85 529.2 747.0 524.5 747.95 519.7 L748.3 515.85 747.75 523.4 Q746.3 531.5 741.9 534.1" fill="#c77b1e" fill-rule="evenodd" stroke="none"/>
      <path d="M796.85 521.05 Q804.65 535.1 807.65 550.5 808.6 555.3 808.65 557.9 808.7 560.7 808.15 557.0 807.4 552.05 803.45 541.25 L798.35 527.9 Q797.25 524.95 796.95 522.7 L796.85 521.05" fill="#c77b1e" fill-rule="evenodd" stroke="none"/>
      <path d="M796.25 544.5 Q795.8 541.8 795.9 539.7 L796.1 538.1 Q801.95 551.95 803.1 563.05 803.7 568.6 803.1 571.4 802.9 566.25 799.85 556.3 L796.25 544.5" fill="#c77b1e" fill-rule="evenodd" stroke="none"/>
      <path d="M797.55 573.35 Q797.95 578.85 797.45 579.55 797.35 576.85 795.4 570.15 793.1 562.15 792.7 560.1 792.05 556.55 792.15 554.25 L792.4 552.65 Q796.6 561.65 797.55 573.35" fill="#c77b1e" fill-rule="evenodd" stroke="none"/>
      <path d="M787.8 563.95 Q790.7 570.9 791.25 579.2 791.5 583.35 791.2 586.1 788.55 577.05 787.95 571.1 787.6 567.4 787.65 565.3 L787.8 563.95" fill="#c77b1e" fill-rule="evenodd" stroke="none"/>
      <path d="M781.25 574.65 Q782.85 578.45 783.2 585.75 L783.2 592.3 781.9 589.05 Q780.55 585.2 780.35 582.5 780.15 579.8 780.7 576.95 L781.25 574.65" fill="#c77b1e" fill-rule="evenodd" stroke="none"/>
      <path d="M773.55 582.65 Q774.85 585.35 775.55 591.7 L776.05 597.5 Q773.25 592.75 772.8 589.8 772.5 587.95 773.0 585.1 L773.55 582.65" fill="#c77b1e" fill-rule="evenodd" stroke="none"/>
      <path d="M765.2 590.7 Q766.3 590.4 767.35 595.25 768.35 600.05 767.9 600.45 767.6 600.75 766.65 599.05 L765.05 595.45 Q764.5 593.85 764.8 592.1 L765.2 590.7" fill="#c77b1e" fill-rule="evenodd" stroke="none"/>
      <path d="M755.25 595.6 Q756.75 596.4 758.25 600.2 L759.45 603.85 Q756.75 601.2 755.85 599.45 755.3 598.35 755.2 596.85 L755.25 595.6" fill="#c77b1e" fill-rule="evenodd" stroke="none"/>
      <path d="M747.1 598.85 Q748.5 599.65 750.65 602.4 752.6 604.9 752.6 605.35 752.6 605.7 750.6 604.4 748.6 603.0 747.85 602.05 747.2 601.25 747.1 599.95 L747.1 598.85" fill="#c77b1e" fill-rule="evenodd" stroke="none"/>
      <path d="M743.1 606.65 L740.2 605.7 Q737.3 604.45 737.3 603.25 737.3 601.95 740.1 603.75 742.85 605.55 743.1 606.65" fill="#c77b1e" fill-rule="evenodd" stroke="none"/>
      <path d="M732.1 606.95 L728.1 605.4 Q724.5 603.85 726.45 603.55 728.4 603.25 730.45 605.1 L732.1 606.95" fill="#c77b1e" fill-rule="evenodd" stroke="none"/>
      <path d="M728.75 561.85 Q727.6 564.1 726.6 565.0 727.0 563.25 729.5 556.9 L731.95 550.9 Q731.1 557.4 728.75 561.85" fill="#c77b1e" fill-rule="evenodd" stroke="none"/>
      <path d="M728.25 553.55 Q725.45 564.4 719.5 565.15 721.4 563.05 728.25 553.55" fill="#c77b1e" fill-rule="evenodd" stroke="none"/>
      <path d="M715.65 563.2 Q713.4 564.5 712.05 564.2 710.75 563.95 713.7 562.35 717.85 560.1 725.45 552.1 718.45 561.6 715.65 563.2" fill="#c77b1e" fill-rule="evenodd" stroke="none"/>
      <path d="M719.2 553.85 Q716.7 557.05 713.6 559.35 710.8 561.35 709.1 561.6 707.8 561.8 713.35 557.85 L719.2 553.85" fill="#c77b1e" fill-rule="evenodd" stroke="none"/>
      <path d="M707.25 492.6 Q707.45 486.65 708.75 482.1 L708.45 491.3 Q708.6 502.3 711.05 511.1 712.9 518.05 715.85 525.25 712.3 519.2 710.1 512.45 706.95 502.6 707.25 492.6" fill="#812c00" fill-rule="evenodd" stroke="none"/>
      <path d="M671.55 531.3 L671.85 534.1 Q671.8 537.7 670.35 541.7 668.85 545.65 667.1 555.5 L665.6 564.55 665.25 562.85 Q664.9 560.15 665.0 555.05 665.1 549.95 668.35 540.1 L671.55 531.3" fill="#c77b1e" fill-rule="evenodd" stroke="none"/>
      <path d="M665.05 539.7 Q660.85 552.8 662.3 565.6 660.8 561.25 660.95 554.55 661.25 541.1 669.6 529.2 L668.15 532.0 Q666.4 535.6 665.05 539.7" fill="#c77b1e" fill-rule="evenodd" stroke="none"/>
      <path d="M673.4 554.85 Q671.15 565.7 669.6 565.6 668.2 565.5 671.45 553.9 L674.95 542.3 Q675.6 544.2 673.4 554.85" fill="#c77b1e" fill-rule="evenodd" stroke="none"/>
      <path d="M681.05 549.1 Q682.6 546.45 683.2 548.0 683.85 549.6 682.05 554.0 680.4 558.15 676.7 562.75 672.8 567.6 674.2 564.85 L681.05 549.1" fill="#c77b1e" fill-rule="evenodd" stroke="none"/>
      <path d="M690.55 543.0 L690.4 547.45 Q689.85 552.6 687.7 555.95 685.6 559.3 681.15 563.45 L677.15 566.95 Q678.65 564.7 682.5 560.25 684.95 557.45 688.0 549.95 L690.55 543.0" fill="#c77b1e" fill-rule="evenodd" stroke="none"/>
      <path d="M693.1 549.65 Q694.2 546.35 694.7 543.1 L695.0 540.5 Q695.75 551.0 688.5 560.25 684.85 564.85 681.05 567.35 689.5 560.25 693.1 549.65" fill="#c77b1e" fill-rule="evenodd" stroke="none"/>
      <path d="M686.4 592.05 Q682.85 590.85 678.65 588.15 670.25 582.8 666.9 575.5 L666.7 574.5 Q666.55 573.45 667.1 573.25 667.95 572.95 669.0 575.7 L672.65 581.1 Q678.0 587.45 686.4 592.05" fill="#c77b1e" fill-rule="evenodd" stroke="none"/>
      <path d="M754.55 455.6 Q755.55 454.75 756.25 456.3 756.95 457.8 755.45 457.55 754.25 457.35 754.25 456.45 L754.55 455.6" fill="#e3a853" fill-rule="evenodd" stroke="none"/>
    </g>
    <linearGradient gradientTransform="matrix(0.0915, 0.0, 0.0, -0.0915, 734.6, 533.7)" gradientUnits="userSpaceOnUse" id="gradient0" spreadMethod="pad" x1="-819.2" x2="819.2">
      <stop offset="0.0" stop-color="#bb5f00"/>
      <stop offset="1.0" stop-color="#bb5f00"/>
    </linearGradient>
    <linearGradient gradientTransform="matrix(0.0023, 0.0, 0.0, -0.0023, 723.55, 495.25)" gradientUnits="userSpaceOnUse" id="gradient1" spreadMethod="pad" x1="-819.2" x2="819.2">
      <stop offset="0.0" stop-color="#bb5f00"/>
      <stop offset="1.0" stop-color="#bb5f00"/>
    </linearGradient>
    <linearGradient gradientTransform="matrix(0.0173, 0.0, 0.0, -0.0173, 720.25, 554.6)" gradientUnits="userSpaceOnUse" id="gradient2" spreadMethod="pad" x1="-819.2" x2="819.2">
      <stop offset="0.0" stop-color="#bb5f00"/>
      <stop offset="1.0" stop-color="#bb5f00"/>
    </linearGradient>
  </defs>
</svg>
