<?xml version="1.0" encoding="UTF-8" standalone="no"?>
<svg xmlns:ffdec="https://www.free-decompiler.com/flash" xmlns:xlink="http://www.w3.org/1999/xlink" ffdec:objectType="shape" height="124.55px" width="127.85px" xmlns="http://www.w3.org/2000/svg">
  <g transform="matrix(1.0, 0.0, 0.0, 1.0, -198.45, -359.4)">
    <path d="M206.35 385.45 Q215.65 368.0 223.55 364.15 232.5 359.75 254.95 359.45 277.0 359.1 286.9 362.95 295.4 366.25 301.0 387.55 305.45 404.55 305.25 416.5 305.15 422.9 315.85 438.8 L323.15 449.35 Q326.4 454.15 326.3 454.9 326.1 456.55 320.8 454.15 L312.8 450.1 305.3 446.2 Q300.8 443.55 302.15 442.55 303.45 441.65 302.15 437.45 L300.05 430.6 Q299.75 428.5 296.25 423.4 292.4 417.75 291.75 415.9 290.85 413.35 291.35 405.55 L292.15 393.9 Q292.15 389.85 283.95 384.15 276.9 379.3 271.05 377.45 265.8 375.8 251.05 376.2 235.1 376.6 228.4 379.4 217.5 384.0 215.25 403.55 214.65 408.75 217.45 413.0 219.0 415.35 222.2 419.0 225.65 424.05 226.55 426.15 228.55 431.1 226.05 434.45 224.15 437.05 217.75 443.8 212.25 450.05 211.75 453.2 211.35 456.0 215.85 458.45 218.05 459.7 218.5 460.1 219.5 460.95 218.75 461.85 217.05 463.85 218.35 467.45 219.6 470.9 222.6 473.45 225.2 475.7 229.95 474.7 233.9 473.85 236.9 471.55 239.15 469.8 238.25 464.15 237.4 458.8 235.7 457.8 233.95 456.75 233.65 455.8 233.1 454.15 234.0 449.7 234.9 445.25 241.7 439.4 248.0 434.05 250.6 434.05 253.25 434.05 256.3 436.0 259.8 438.2 259.3 440.8 258.8 443.3 262.1 445.55 L269.55 449.5 275.4 451.75 Q277.2 452.4 277.45 454.7 277.85 458.6 275.65 466.35 L274.75 477.15 Q274.6 478.2 249.65 481.25 224.55 484.3 218.35 483.9 212.6 483.5 206.15 473.85 200.5 465.35 199.8 459.75 199.3 456.15 198.9 430.95 L198.45 404.5 Q198.35 403.3 200.6 397.8 203.0 391.75 206.35 385.45" fill="url(#gradient0)" fill-rule="evenodd" stroke="none"/>
  </g>
  <defs>
    <radialGradient cx="0" cy="0" gradientTransform="matrix(0.077, 0.0, 0.0, -0.077, 262.4, 421.65)" gradientUnits="userSpaceOnUse" id="gradient0" r="819.2" spreadMethod="pad">
      <stop offset="0.3137254901960784" stop-color="#a6ffe8"/>
      <stop offset="0.7215686274509804" stop-color="#69c2ff"/>
      <stop offset="1.0" stop-color="#3870ff"/>
    </radialGradient>
  </defs>
</svg>
