<?xml version="1.0" encoding="UTF-8" standalone="no"?>
<svg xmlns:ffdec="https://www.free-decompiler.com/flash" xmlns:xlink="http://www.w3.org/1999/xlink" ffdec:objectType="shape" height="36.55px" width="34.55px" xmlns="http://www.w3.org/2000/svg">
  <g transform="matrix(1.0, 0.0, 0.0, 1.0, 0.0, 0.05)">
    <path d="M21.25 0.1 Q22.2 0.7 21.05 3.7 20.05 6.3 21.1 7.2 21.85 7.85 25.05 9.65 27.9 11.9 27.8 14.25 27.75 16.85 24.05 18.4 20.4 19.95 23.05 21.75 25.5 23.4 30.4 23.75 34.9 24.05 34.5 25.9 34.15 27.75 29.4 27.9 25.45 28.05 22.65 30.35 L17.1 35.45 Q14.05 37.9 11.85 34.7 10.1 32.05 10.35 29.9 10.55 28.45 8.55 26.45 6.25 24.1 3.0 23.55 -0.45 22.95 0.1 21.75 0.65 20.55 4.0 20.4 15.05 19.9 15.7 16.6 17.15 9.5 16.1 6.7 15.6 5.35 17.2 3.4 18.0 2.4 18.9 1.7 20.3 -0.5 21.25 0.1" fill="url(#gradient0)" fill-rule="evenodd" stroke="none"/>
  </g>
  <defs>
    <linearGradient gradientTransform="matrix(0.0211, 0.0, 0.0, -0.0211, 17.3, 18.25)" gradientUnits="userSpaceOnUse" id="gradient0" spreadMethod="pad" x1="-819.2" x2="819.2">
      <stop offset="0.0" stop-color="#24a0ce"/>
      <stop offset="0.3764705882352941" stop-color="#239bcb"/>
      <stop offset="0.8156862745098039" stop-color="#228dc3"/>
      <stop offset="1.0" stop-color="#2185be"/>
    </linearGradient>
  </defs>
</svg>
