<?xml version="1.0" encoding="UTF-8" standalone="no"?>
<svg xmlns:ffdec="https://www.free-decompiler.com/flash" xmlns:xlink="http://www.w3.org/1999/xlink" ffdec:objectType="shape" height="85.7px" width="44.4px" xmlns="http://www.w3.org/2000/svg">
  <g transform="matrix(1.0, 0.0, 0.0, 1.0, 0.1, 0.1)">
    <path d="M34.5 5.8 Q27.2 6.35 29.35 7.3 33.15 9.0 33.75 11.2 34.4 13.55 30.55 14.25 25.95 15.05 22.7 17.35 19.1 19.85 22.4 21.15 26.2 22.7 28.25 25.85 30.35 29.15 27.8 30.4 25.25 31.6 27.3 33.95 29.1 36.0 33.35 37.9 36.9 39.5 38.95 42.4 40.7 44.9 40.5 46.75 40.4 48.0 38.75 47.65 L32.95 46.35 Q29.85 45.95 27.35 48.9 23.15 53.8 20.05 55.8 14.1 59.65 12.85 63.85 11.6 68.25 15.7 72.35 19.85 76.5 19.5 80.55 19.1 84.55 14.5 85.4 9.95 86.25 6.45 83.0 5.0 81.65 4.9 80.35 4.85 79.0 6.55 78.3 9.85 76.95 7.3 73.65 4.9 70.5 1.4 70.0 -1.6 69.6 1.4 63.9 4.3 58.35 8.75 55.0 13.4 51.45 15.55 46.9 17.9 41.85 13.9 41.15 9.55 40.45 8.3 37.9 7.1 35.35 10.9 34.6 14.2 34.0 11.2 29.95 L5.55 23.85 Q3.25 21.45 3.9 19.1 4.7 16.35 9.3 14.05 13.15 12.1 11.6 10.45 L9.75 8.7 Q8.5 7.45 8.15 6.15 7.4 3.5 14.35 1.6 17.85 0.65 21.45 0.2 24.05 -0.4 34.05 0.3 45.15 1.05 44.25 3.25 43.5 5.1 34.5 5.8" fill="url(#gradient0)" fill-rule="evenodd" stroke="none"/>
  </g>
  <defs>
    <linearGradient gradientTransform="matrix(0.027, 0.0, 0.0, -0.027, 22.15, 42.8)" gradientUnits="userSpaceOnUse" id="gradient0" spreadMethod="pad" x1="-819.2" x2="819.2">
      <stop offset="0.0" stop-color="#24a0ce"/>
      <stop offset="0.3764705882352941" stop-color="#239bcb"/>
      <stop offset="0.8156862745098039" stop-color="#228dc3"/>
      <stop offset="1.0" stop-color="#2185be"/>
    </linearGradient>
  </defs>
</svg>
