<?xml version="1.0" encoding="UTF-8" standalone="no"?>
<svg xmlns:ffdec="https://www.free-decompiler.com/flash" xmlns:xlink="http://www.w3.org/1999/xlink" ffdec:objectType="shape" height="58.45px" width="87.55px" xmlns="http://www.w3.org/2000/svg">
  <g transform="matrix(1.0, 0.0, 0.0, 1.0, 0.0, -2.6)">
    <path d="M83.3 33.45 Q76.35 34.95 74.65 36.5 72.75 38.25 73.8 39.75 L75.7 42.35 Q74.55 42.65 73.2 43.3 70.6 44.55 69.95 46.1 69.3 47.65 70.6 50.55 71.25 52.0 72.05 53.15 L77.8 55.25 Q65.25 57.3 60.0 57.3 L38.5 56.9 Q37.55 56.9 40.3 59.0 L43.25 61.05 23.85 57.3 Q17.05 56.1 0.0 49.95 L5.05 2.6 14.65 4.75 Q25.25 7.45 30.15 10.3 35.95 13.65 43.25 15.5 50.35 17.25 56.35 16.95 L71.05 17.8 79.9 19.0 71.5 21.5 71.35 23.5 Q71.5 25.8 73.1 27.35 74.7 28.9 79.95 30.25 L87.25 31.95 Q88.65 32.3 83.3 33.45" fill="#000000" fill-rule="evenodd" stroke="none"/>
    <path d="M37.2 35.1 L37.0 36.15 Q36.9 37.3 37.2 37.75 37.55 38.3 38.45 38.4 39.35 38.45 39.55 37.95 39.85 37.2 37.2 35.1 M35.6 34.4 L34.65 35.4 Q33.75 36.55 34.05 37.15 34.6 38.35 35.55 37.95 36.55 37.5 35.6 34.4 M32.65 32.4 Q36.0 30.55 34.45 27.4 32.9 24.2 29.2 24.9 L27.95 25.65 Q26.75 26.6 26.85 27.7 27.05 30.1 28.1 31.65 29.7 34.05 32.65 32.4 M40.6 33.65 Q43.15 34.0 44.85 32.1 46.6 30.15 44.55 27.7 42.55 25.3 40.65 26.8 39.75 27.35 38.95 28.2 37.3 29.85 37.65 31.4 38.15 33.3 40.6 33.65 M41.6 19.1 Q50.05 22.65 49.35 28.75 49.05 31.05 47.5 33.0 46.0 34.8 44.25 35.3 L44.25 36.7 Q44.35 38.4 44.7 39.6 45.35 41.6 32.65 39.8 30.35 39.5 29.8 38.9 28.85 37.95 29.5 34.95 27.5 34.0 25.6 32.45 21.75 29.35 22.15 26.25 22.75 21.45 27.35 18.8 33.1 15.5 41.6 19.1" fill="url(#gradient0)" fill-rule="evenodd" stroke="none"/>
    <path d="M23.85 41.8 L21.6 41.9 Q20.45 41.55 20.1 40.35 19.8 39.25 21.0 38.7 L22.25 38.4 22.05 37.15 Q22.05 35.9 23.1 35.6 24.15 35.35 25.15 37.0 L25.95 38.7 49.35 50.05 50.8 49.85 Q52.3 49.9 52.55 51.0 52.75 52.1 51.95 52.8 L51.1 53.3 Q51.75 54.4 51.15 55.0 50.6 55.55 49.65 55.35 48.95 55.2 48.5 54.2 L48.15 53.2 23.85 41.8" fill="url(#gradient1)" fill-rule="evenodd" stroke="none"/>
    <path d="M48.75 45.3 L24.5 49.9 Q24.1 51.7 22.95 51.6 22.0 51.55 21.45 50.85 20.85 50.05 21.5 49.2 L20.65 48.45 Q19.85 47.55 20.1 46.5 20.3 45.45 21.8 45.85 22.55 46.0 23.25 46.4 L46.65 41.6 47.45 40.1 Q48.5 38.75 49.55 39.3 50.6 39.85 50.55 41.15 L50.35 42.3 51.65 43.0 Q52.85 43.85 52.5 44.9 51.85 47.0 48.75 45.3" fill="url(#gradient2)" fill-rule="evenodd" stroke="none"/>
  </g>
  <defs>
    <linearGradient gradientTransform="matrix(0.0166, 0.0023, 0.0, -0.0166, 35.75, 28.8)" gradientUnits="userSpaceOnUse" id="gradient0" spreadMethod="pad" x1="-819.2" x2="819.2">
      <stop offset="0.0" stop-color="#ffffff"/>
      <stop offset="1.0" stop-color="#c7cacd"/>
    </linearGradient>
    <linearGradient gradientTransform="matrix(0.0198, 0.0028, 0.0, -0.0198, 36.3, 45.45)" gradientUnits="userSpaceOnUse" id="gradient1" spreadMethod="pad" x1="-819.2" x2="819.2">
      <stop offset="0.0" stop-color="#ffffff"/>
      <stop offset="1.0" stop-color="#c7cacd"/>
    </linearGradient>
    <linearGradient gradientTransform="matrix(0.0198, 0.0028, 0.0, -0.0198, 36.3, 45.45)" gradientUnits="userSpaceOnUse" id="gradient2" spreadMethod="pad" x1="-819.2" x2="819.2">
      <stop offset="0.0" stop-color="#ffffff"/>
      <stop offset="1.0" stop-color="#c7cacd"/>
    </linearGradient>
  </defs>
</svg>
