<?xml version="1.0" encoding="UTF-8" standalone="no"?>
<svg xmlns:ffdec="https://www.free-decompiler.com/flash" xmlns:xlink="http://www.w3.org/1999/xlink" ffdec:objectType="shape" height="59.35px" width="86.7px" xmlns="http://www.w3.org/2000/svg">
  <g transform="matrix(1.0, 0.0, 0.0, 1.0, 0.0, -2.55)">
    <path d="M83.5 30.7 Q79.75 34.45 76.85 36.05 73.55 37.9 71.3 40.85 69.2 43.6 69.6 45.0 L72.4 44.9 74.8 43.45 73.65 46.05 Q72.15 48.75 70.65 49.5 67.55 51.05 69.95 53.8 70.85 54.75 73.6 54.3 L76.15 53.6 73.6 55.6 Q70.05 57.7 65.3 58.25 60.6 58.8 50.05 58.5 L40.5 58.1 45.65 61.9 Q38.6 60.85 33.1 59.3 L21.2 55.5 Q12.6 52.7 10.7 52.25 L0.0 49.95 5.05 2.6 16.85 3.15 Q29.7 4.6 35.0 9.0 40.85 13.9 48.45 16.7 54.95 19.15 59.8 19.15 65.5 19.15 80.15 17.1 L76.0 19.6 Q71.7 22.3 71.15 23.15 70.5 24.2 70.9 26.25 71.3 28.35 72.55 29.35 73.6 30.2 80.25 28.8 L86.7 27.25 83.5 30.7" fill="#000000" fill-rule="evenodd" stroke="none"/>
    <path d="M34.55 35.95 Q35.15 37.25 36.05 37.1 37.05 36.9 36.15 33.55 L35.2 34.3 Q34.25 35.25 34.55 35.95 M37.7 34.65 L37.55 35.65 Q37.4 36.8 37.7 37.3 38.1 37.95 38.95 38.2 39.85 38.5 40.05 38.0 40.35 37.35 37.7 34.65 M29.7 22.8 Q29.1 23.0 28.45 23.45 27.25 24.35 27.35 25.45 27.55 27.85 28.6 29.45 30.2 31.95 33.15 30.9 36.55 29.85 34.95 26.25 33.35 22.6 29.7 22.8 M42.1 19.55 Q50.55 23.3 49.85 29.35 49.25 34.4 44.75 36.1 L44.75 37.5 Q44.85 39.15 45.25 40.4 45.65 42.0 40.35 40.65 36.5 39.65 33.15 38.25 30.75 37.4 30.3 36.85 29.4 35.8 30.05 32.9 28.05 31.75 26.15 30.35 22.3 27.55 22.65 24.75 23.3 19.15 27.85 16.65 33.65 13.5 42.1 19.55 M41.15 33.95 Q43.7 34.8 45.4 32.95 47.1 31.05 45.1 28.55 43.1 26.0 41.15 27.1 40.25 27.45 39.45 28.1 37.8 29.45 38.2 31.05 38.7 33.15 41.15 33.95" fill="url(#gradient0)" fill-rule="evenodd" stroke="none"/>
    <path d="M22.75 36.8 L22.55 35.65 Q22.55 34.35 23.6 33.8 24.65 33.3 25.65 34.85 L26.45 36.5 Q29.8 37.95 38.2 44.0 45.65 49.4 49.9 50.5 L51.35 49.9 Q52.8 49.45 53.05 50.35 53.45 51.95 51.65 53.25 52.3 54.05 51.7 54.9 51.15 55.7 50.2 55.75 49.5 55.75 49.0 54.85 L48.65 53.9 Q44.7 52.6 36.5 46.75 28.5 41.05 24.4 39.85 21.2 41.3 20.6 39.65 20.3 38.65 21.5 37.6 22.6 36.7 22.75 36.8" fill="url(#gradient1)" fill-rule="evenodd" stroke="none"/>
    <path d="M49.3 45.85 Q45.15 47.4 37.15 47.0 28.95 46.55 25.0 47.85 24.6 49.65 23.45 49.85 22.45 50.05 21.95 49.55 21.4 49.0 22.05 47.85 L21.2 47.5 Q20.35 46.9 20.6 45.75 20.85 44.55 22.35 44.4 L23.75 44.55 Q28.05 42.75 35.5 43.0 L47.2 42.4 48.0 40.85 Q49.0 39.4 50.05 39.7 51.1 40.0 51.1 41.25 L50.9 42.5 52.15 42.75 Q53.35 43.15 53.05 44.25 52.65 45.6 51.55 46.0 L49.3 45.85" fill="url(#gradient2)" fill-rule="evenodd" stroke="none"/>
  </g>
  <defs>
    <linearGradient gradientTransform="matrix(0.0166, 0.0023, 0.0, -0.0166, 36.25, 28.2)" gradientUnits="userSpaceOnUse" id="gradient0" spreadMethod="pad" x1="-819.2" x2="819.2">
      <stop offset="0.0" stop-color="#ffffff"/>
      <stop offset="1.0" stop-color="#c7cacd"/>
    </linearGradient>
    <linearGradient gradientTransform="matrix(0.0198, 0.0028, 0.0, -0.0198, 36.85, 44.65)" gradientUnits="userSpaceOnUse" id="gradient1" spreadMethod="pad" x1="-819.2" x2="819.2">
      <stop offset="0.0" stop-color="#ffffff"/>
      <stop offset="1.0" stop-color="#c7cacd"/>
    </linearGradient>
    <linearGradient gradientTransform="matrix(0.0198, 0.0028, 0.0, -0.0198, 36.85, 44.85)" gradientUnits="userSpaceOnUse" id="gradient2" spreadMethod="pad" x1="-819.2" x2="819.2">
      <stop offset="0.0" stop-color="#ffffff"/>
      <stop offset="1.0" stop-color="#c7cacd"/>
    </linearGradient>
  </defs>
</svg>
