<?xml version="1.0" encoding="UTF-8" standalone="no"?>
<svg xmlns:ffdec="https://www.free-decompiler.com/flash" xmlns:xlink="http://www.w3.org/1999/xlink" ffdec:objectType="shape" height="59.7px" width="82.35px" xmlns="http://www.w3.org/2000/svg">
  <g transform="matrix(1.0, 0.0, 0.0, 1.0, 0.0, -1.85)">
    <path d="M81.0 29.4 Q78.95 36.4 75.3 38.45 71.35 40.65 70.85 43.3 70.4 45.55 72.2 45.85 L74.95 45.7 74.25 47.25 Q73.25 49.0 71.85 49.85 69.95 51.0 68.6 52.25 67.0 53.7 67.4 54.3 67.9 55.15 73.6 53.1 73.15 54.35 71.7 55.8 68.8 58.75 63.75 59.8 58.7 60.9 50.3 60.15 L42.9 59.15 46.55 60.7 42.95 61.5 Q38.6 61.9 34.8 60.15 7.2 47.5 0.0 49.95 L5.05 2.6 20.1 1.95 Q36.2 2.6 41.55 9.2 47.15 16.05 53.15 18.65 56.25 19.95 61.85 20.55 64.9 20.85 71.7 18.6 L77.9 16.25 Q76.0 20.4 74.1 21.95 72.35 23.35 71.1 25.95 69.65 28.9 70.85 30.2 72.1 31.6 77.05 28.45 81.95 25.25 82.35 22.8 82.05 25.9 81.0 29.4" fill="#000000" fill-rule="evenodd" stroke="none"/>
    <path d="M39.1 34.35 L38.9 35.35 Q38.8 36.45 39.1 37.0 39.45 37.75 40.3 38.25 L41.45 38.35 Q41.75 37.8 39.1 34.35 M37.5 32.85 Q37.0 33.05 36.55 33.35 35.65 34.0 35.95 34.8 36.5 36.25 37.45 36.3 38.45 36.4 37.5 32.85 M31.1 20.65 Q31.1 20.35 29.85 21.2 28.65 22.05 28.75 23.2 28.95 25.5 30.0 27.2 31.6 29.75 34.55 29.4 37.95 29.35 36.35 25.2 34.75 21.05 31.1 20.65 M46.15 37.3 L46.15 38.7 Q46.25 40.35 46.6 41.65 47.05 43.65 41.75 41.05 37.4 38.9 34.55 36.75 32.0 35.2 31.7 34.8 30.75 33.65 31.4 30.8 L27.5 28.15 Q23.65 25.7 24.05 23.25 24.65 16.7 29.25 14.45 35.05 11.55 43.45 20.35 48.35 23.7 49.85 25.55 51.5 27.55 51.2 30.05 50.9 32.5 49.35 34.9 47.7 37.5 46.15 37.3 M42.5 34.55 Q45.1 36.0 46.75 34.15 48.45 32.35 46.45 29.75 44.55 27.15 42.55 27.7 41.65 27.85 40.85 28.3 39.2 29.2 39.55 30.9 40.1 33.2 42.5 34.55" fill="url(#gradient0)" fill-rule="evenodd" stroke="none"/>
    <path d="M22.85 36.6 Q23.95 35.15 24.15 35.25 L23.95 34.2 Q23.95 32.95 25.0 32.05 26.05 31.25 27.05 32.65 L27.85 34.25 Q31.15 35.5 39.55 43.9 47.0 51.35 51.25 51.3 L52.7 50.25 Q54.2 49.2 54.45 49.85 54.8 51.3 53.0 53.45 53.7 54.0 53.05 55.1 52.5 56.15 51.55 56.45 50.4 56.8 50.05 54.95 46.1 54.3 37.9 46.15 29.9 38.2 25.75 37.9 L23.5 39.3 Q22.3 39.85 22.0 39.1 21.65 38.25 22.85 36.6" fill="url(#gradient1)" fill-rule="evenodd" stroke="none"/>
    <path d="M48.55 43.65 L49.35 42.0 Q50.4 40.4 51.45 40.45 52.5 40.4 52.45 41.7 L52.25 43.0 53.55 42.7 Q54.75 42.55 54.4 43.75 54.05 45.35 52.9 46.25 51.85 47.05 50.65 46.8 46.5 49.25 38.5 46.55 30.3 43.8 26.4 45.75 26.0 47.6 24.85 48.1 L23.35 48.35 Q22.75 48.0 23.4 46.65 L22.55 46.65 Q21.75 46.45 22.0 45.25 22.2 43.8 23.7 43.05 25.15 42.35 25.15 42.75 29.4 39.75 36.85 42.1 L42.7 43.8 48.55 43.65" fill="url(#gradient2)" fill-rule="evenodd" stroke="none"/>
  </g>
  <defs>
    <linearGradient gradientTransform="matrix(0.0166, 0.0, 0.0, -0.0166, 37.65, 28.15)" gradientUnits="userSpaceOnUse" id="gradient0" spreadMethod="pad" x1="-819.2" x2="819.2">
      <stop offset="0.0" stop-color="#ffffff"/>
      <stop offset="1.0" stop-color="#c7cacd"/>
    </linearGradient>
    <linearGradient gradientTransform="matrix(0.0198, 0.0, 0.0, -0.0198, 38.2, 44.1)" gradientUnits="userSpaceOnUse" id="gradient1" spreadMethod="pad" x1="-819.2" x2="819.2">
      <stop offset="0.0" stop-color="#ffffff"/>
      <stop offset="1.0" stop-color="#c7cacd"/>
    </linearGradient>
    <linearGradient gradientTransform="matrix(0.0198, 0.0, 0.0, -0.0198, 38.2, 44.45)" gradientUnits="userSpaceOnUse" id="gradient2" spreadMethod="pad" x1="-819.2" x2="819.2">
      <stop offset="0.0" stop-color="#ffffff"/>
      <stop offset="1.0" stop-color="#c7cacd"/>
    </linearGradient>
  </defs>
</svg>
