<?xml version="1.0" encoding="UTF-8" standalone="no"?>
<svg xmlns:ffdec="https://www.free-decompiler.com/flash" xmlns:xlink="http://www.w3.org/1999/xlink" ffdec:objectType="shape" height="59.8px" width="84.4px" xmlns="http://www.w3.org/2000/svg">
  <g transform="matrix(1.0, 0.0, 0.0, 1.0, 0.0, -0.8)">
    <path d="M81.9 30.95 Q79.0 35.95 77.0 37.05 L71.65 39.5 Q68.75 40.95 68.95 42.7 69.2 44.75 71.5 46.35 73.75 47.9 76.15 47.8 72.1 50.75 68.75 51.65 66.35 52.3 65.9 53.75 65.45 55.2 67.2 55.85 L71.35 56.1 73.85 55.7 Q72.8 56.75 71.15 57.85 67.85 60.1 64.9 60.45 61.65 60.8 56.2 60.4 L48.2 59.4 40.7 58.4 35.05 58.15 Q34.15 58.35 36.0 59.0 L38.0 59.55 Q36.8 59.75 34.7 59.55 30.55 59.2 26.25 57.45 23.5 56.3 17.25 52.8 12.6 50.2 10.25 49.9 L3.55 49.7 0.0 49.95 4.8 3.35 Q8.25 2.25 12.55 1.5 21.15 0.0 25.55 1.75 27.8 2.65 37.5 10.35 45.8 16.9 51.0 17.2 L63.7 16.25 Q71.55 15.55 79.3 18.25 77.55 18.7 75.55 19.7 71.5 21.8 70.15 24.75 68.7 28.0 70.7 29.4 72.35 30.5 75.6 30.2 77.9 30.0 81.4 28.05 83.15 27.1 84.4 26.15 L81.9 30.95" fill="#000000" fill-rule="evenodd" stroke="none"/>
    <path d="M33.8 32.45 Q37.15 30.1 35.6 27.2 34.1 24.3 30.35 25.15 29.75 25.45 29.1 25.9 27.9 26.8 28.0 27.85 28.3 30.4 29.3 31.9 30.9 34.4 33.8 32.45 M36.8 34.05 L35.85 35.2 Q34.95 36.45 35.25 37.0 35.8 38.1 36.7 37.55 37.7 37.0 36.8 34.05 M38.35 34.5 L38.2 35.6 Q38.05 36.8 38.35 37.15 38.75 37.6 39.6 37.6 40.5 37.55 40.7 37.0 41.05 36.2 38.35 34.5 M50.5 28.2 Q50.2 30.5 48.65 32.25 47.15 33.9 45.4 34.1 L45.4 35.5 Q45.5 37.15 45.9 38.4 46.3 39.35 41.05 39.65 L33.8 39.85 Q31.55 39.75 30.95 39.15 30.05 38.25 30.7 35.25 22.7 30.55 23.3 25.3 23.9 21.35 28.5 18.95 34.15 16.0 42.75 17.95 51.2 22.15 50.5 28.2 M46.05 30.9 Q47.8 29.0 45.75 26.5 43.7 23.95 41.8 25.75 L40.1 27.35 Q38.45 29.25 38.85 30.7 39.3 32.5 41.8 32.6 44.3 32.7 46.05 30.9" fill="url(#gradient0)" fill-rule="evenodd" stroke="none"/>
    <path d="M23.25 36.15 Q23.2 34.9 24.25 35.0 25.3 35.05 26.35 36.9 L27.15 38.75 Q30.5 40.85 38.85 43.7 46.3 46.2 50.55 49.65 50.55 49.35 52.0 50.05 53.5 50.75 53.7 52.05 53.95 53.25 53.15 53.55 L52.3 53.6 Q52.95 54.95 52.35 55.3 51.85 55.6 50.85 55.05 50.15 54.7 49.65 53.55 L49.3 52.5 Q45.35 49.7 37.2 47.1 29.2 44.55 25.05 41.45 23.8 41.5 22.8 40.7 21.65 39.85 21.3 38.4 20.95 37.15 22.15 37.2 L23.45 37.45 23.25 36.15" fill="url(#gradient1)" fill-rule="evenodd" stroke="none"/>
    <path d="M49.95 44.7 Q45.8 44.35 37.8 47.1 29.6 49.9 25.65 49.7 25.3 51.4 24.15 50.95 23.2 50.6 22.65 49.6 22.05 48.5 22.7 47.95 20.9 45.95 21.25 44.5 21.5 43.7 23.0 44.75 L24.45 45.85 Q28.75 46.35 36.15 43.75 44.55 40.75 47.85 40.55 L48.65 39.25 Q49.65 38.05 50.7 38.95 51.75 39.9 51.75 41.2 L51.55 42.3 Q54.25 44.55 53.7 45.9 53.1 47.45 49.95 44.7" fill="url(#gradient2)" fill-rule="evenodd" stroke="none"/>
  </g>
  <defs>
    <linearGradient gradientTransform="matrix(0.0166, 0.0, 0.0, -0.0166, 36.9, 28.5)" gradientUnits="userSpaceOnUse" id="gradient0" spreadMethod="pad" x1="-819.2" x2="819.2">
      <stop offset="0.0" stop-color="#ffffff"/>
      <stop offset="1.0" stop-color="#c7cacd"/>
    </linearGradient>
    <linearGradient gradientTransform="matrix(0.0198, 0.0, 0.0, -0.0198, 37.5, 45.2)" gradientUnits="userSpaceOnUse" id="gradient1" spreadMethod="pad" x1="-819.2" x2="819.2">
      <stop offset="0.0" stop-color="#ffffff"/>
      <stop offset="1.0" stop-color="#c7cacd"/>
    </linearGradient>
    <linearGradient gradientTransform="matrix(0.0198, 0.0, 0.0, -0.0198, 37.5, 44.8)" gradientUnits="userSpaceOnUse" id="gradient2" spreadMethod="pad" x1="-819.2" x2="819.2">
      <stop offset="0.0" stop-color="#ffffff"/>
      <stop offset="1.0" stop-color="#c7cacd"/>
    </linearGradient>
  </defs>
</svg>
