<?xml version="1.0" encoding="UTF-8" standalone="no"?>
<svg xmlns:ffdec="https://www.free-decompiler.com/flash" xmlns:xlink="http://www.w3.org/1999/xlink" ffdec:objectType="shape" height="61.75px" width="84.05px" xmlns="http://www.w3.org/2000/svg">
  <g transform="matrix(1.0, 0.0, 0.0, 1.0, 0.0, 0.0)">
    <path d="M67.05 43.4 Q69.1 48.25 74.75 49.55 73.5 50.35 71.8 50.95 L65.95 51.1 Q64.55 50.55 64.2 51.65 63.8 52.7 64.6 54.3 66.8 58.7 72.1 58.7 L68.85 60.55 Q64.85 62.25 61.2 61.5 L53.5 59.0 Q48.9 57.4 44.85 57.1 L27.85 58.0 Q24.9 58.35 21.55 56.6 18.4 55.0 15.5 51.85 12.95 49.0 7.85 48.6 3.25 48.25 0.0 49.95 L5.05 2.6 Q7.25 1.55 10.05 0.8 15.65 -0.75 18.85 0.7 20.3 1.35 26.1 7.65 31.25 13.25 37.15 14.55 42.5 15.75 50.75 13.75 59.6 11.65 64.35 12.3 70.75 13.2 75.65 16.8 78.1 18.6 79.3 20.2 L73.4 20.4 Q67.55 21.3 67.9 24.6 68.25 28.3 73.95 29.8 79.2 31.15 84.05 29.7 83.05 31.8 80.95 33.95 76.7 38.2 71.25 38.3 64.95 38.4 67.05 43.4" fill="#000000" fill-rule="evenodd" stroke="none"/>
    <path d="M33.45 34.25 Q36.75 30.7 35.25 28.4 33.8 26.1 30.0 27.9 29.4 28.3 28.75 28.85 27.55 30.0 27.65 31.0 28.0 33.6 28.9 34.9 30.55 37.1 33.45 34.25 M36.45 34.75 L35.5 36.25 Q34.6 37.85 34.9 38.35 35.45 39.25 36.35 38.35 37.35 37.35 36.45 34.75 M40.35 36.3 Q40.7 35.4 38.0 34.65 L37.85 35.8 Q37.7 37.0 38.0 37.3 38.4 37.65 39.25 37.3 40.15 36.95 40.35 36.3 M42.4 16.6 Q46.7 17.35 48.8 20.7 50.5 23.4 50.15 26.25 49.95 28.45 48.3 29.85 L45.05 32.1 45.05 33.5 Q45.15 35.15 45.55 36.35 45.9 36.9 40.7 38.9 L33.45 41.65 30.6 41.8 Q29.7 41.1 30.35 38.05 30.2 38.3 29.1 37.65 27.8 36.9 26.45 35.55 22.55 31.75 22.95 28.05 23.5 25.05 28.15 21.95 33.65 18.35 42.4 16.6 M45.4 24.5 Q43.35 22.3 41.45 24.7 41.45 24.25 39.75 26.85 38.1 29.35 38.5 30.7 38.95 32.2 41.45 31.55 43.9 30.9 45.7 28.85 47.5 26.7 45.4 24.5" fill="url(#gradient0)" fill-rule="evenodd" stroke="none"/>
    <path d="M50.2 47.6 Q50.2 47.2 51.65 48.3 53.15 49.45 53.35 50.95 53.6 52.25 52.8 52.2 L51.95 51.95 Q52.6 53.5 52.0 53.7 51.55 53.8 50.5 53.05 49.8 52.5 49.3 51.35 L48.95 50.3 Q45.0 47.25 36.85 47.7 28.85 48.15 24.7 44.55 23.5 44.45 22.45 43.35 21.3 42.15 20.95 40.45 20.6 39.1 21.8 39.6 L23.1 40.3 22.9 38.95 Q22.85 37.65 23.9 38.0 25.6 38.4 26.75 41.95 29.3 43.45 32.65 43.75 L38.5 43.65 Q45.95 43.45 50.2 47.6" fill="url(#gradient1)" fill-rule="evenodd" stroke="none"/>
    <path d="M49.6 42.55 Q45.45 41.7 37.45 47.45 29.25 53.3 25.3 52.85 24.9 54.6 23.8 53.9 22.9 53.4 22.3 52.15 21.65 50.85 22.35 50.55 20.55 47.85 20.9 46.55 21.15 45.95 22.65 47.4 L24.1 48.85 Q28.35 50.1 35.8 44.7 44.2 38.65 47.5 38.35 L48.3 37.0 50.35 36.95 Q51.4 38.1 51.4 39.4 L51.2 40.45 Q53.9 43.6 53.35 44.8 53.05 45.45 51.85 44.6 L49.6 42.55" fill="url(#gradient2)" fill-rule="evenodd" stroke="none"/>
  </g>
  <defs>
    <linearGradient gradientTransform="matrix(0.0166, 0.0, 0.0, -0.0166, 36.55, 29.35)" gradientUnits="userSpaceOnUse" id="gradient0" spreadMethod="pad" x1="-819.2" x2="819.2">
      <stop offset="0.0" stop-color="#ffffff"/>
      <stop offset="1.0" stop-color="#c7cacd"/>
    </linearGradient>
    <linearGradient gradientTransform="matrix(0.0198, 0.0, 0.0, -0.0198, 37.15, 45.8)" gradientUnits="userSpaceOnUse" id="gradient1" spreadMethod="pad" x1="-819.2" x2="819.2">
      <stop offset="0.0" stop-color="#ffffff"/>
      <stop offset="1.0" stop-color="#c7cacd"/>
    </linearGradient>
    <linearGradient gradientTransform="matrix(0.0198, 0.0, 0.0, -0.0198, 37.15, 45.25)" gradientUnits="userSpaceOnUse" id="gradient2" spreadMethod="pad" x1="-819.2" x2="819.2">
      <stop offset="0.0" stop-color="#ffffff"/>
      <stop offset="1.0" stop-color="#c7cacd"/>
    </linearGradient>
  </defs>
</svg>
