<?xml version="1.0" encoding="UTF-8" standalone="no"?>
<svg xmlns:ffdec="https://www.free-decompiler.com/flash" xmlns:xlink="http://www.w3.org/1999/xlink" ffdec:objectType="shape" height="58.3px" width="86.8px" xmlns="http://www.w3.org/2000/svg">
  <g transform="matrix(1.0, 0.0, 0.0, 1.0, 0.0, -1.6)">
    <path d="M80.65 20.15 L75.35 20.45 Q70.0 21.1 70.0 23.1 70.0 25.4 72.8 27.5 75.35 29.45 78.65 30.15 L86.8 30.6 Q81.35 34.45 77.7 36.05 L71.4 38.2 Q68.0 39.5 68.85 41.05 69.75 42.6 72.0 44.0 L74.1 45.1 Q70.25 49.2 68.4 49.45 67.1 49.6 67.75 51.3 68.3 52.9 69.8 54.2 71.6 55.8 76.6 56.5 L70.4 58.3 Q63.6 60.05 60.45 59.9 L50.75 58.35 42.1 56.95 37.9 56.9 Q36.4 56.95 36.4 57.4 36.4 58.05 37.3 59.2 L27.85 58.0 Q24.6 57.45 20.15 55.65 15.35 53.75 13.25 51.95 11.25 50.25 6.95 49.75 L0.0 49.95 5.05 2.6 10.6 1.7 Q16.75 1.25 19.6 3.35 23.9 6.55 30.2 10.2 37.8 14.55 41.15 15.15 43.1 15.5 53.95 14.9 L67.95 15.4 Q74.55 17.2 80.65 20.15" fill="#000000" fill-rule="evenodd" stroke="none"/>
    <path d="M32.65 32.7 Q36.0 30.45 34.45 27.45 32.9 24.45 29.2 25.55 L27.95 26.45 Q26.75 27.55 26.85 28.65 27.05 31.05 28.1 32.45 29.7 34.65 32.65 32.7 M35.6 34.3 L34.65 35.4 Q33.75 36.65 34.05 37.25 34.6 38.4 35.55 37.85 36.55 37.3 35.6 34.3 M37.2 34.8 L37.0 35.9 Q36.9 37.1 37.2 37.5 37.55 38.0 38.4 38.0 39.3 37.95 39.55 37.4 39.85 36.6 37.2 34.8 M41.55 18.3 Q50.0 20.9 49.3 27.05 49.05 29.4 47.45 31.5 46.0 33.5 44.25 34.2 L44.25 35.6 Q44.35 37.25 44.7 38.45 45.35 40.3 32.65 40.05 30.35 40.0 29.8 39.5 28.85 38.7 29.5 35.6 27.5 34.9 25.6 33.55 21.75 30.9 22.15 27.75 22.75 22.9 27.35 19.7 33.05 15.7 41.55 18.3 M40.6 33.0 Q43.15 33.05 44.85 30.9 46.6 28.75 44.55 26.55 42.55 24.35 40.65 26.1 39.75 26.75 38.95 27.7 37.3 29.6 37.65 31.05 38.15 32.95 40.6 33.0" fill="url(#gradient0)" fill-rule="evenodd" stroke="none"/>
    <path d="M49.35 48.35 L50.8 48.0 Q52.3 47.9 52.55 48.95 52.75 50.0 51.95 50.8 L51.1 51.4 Q51.75 52.4 51.15 53.05 50.6 53.7 49.65 53.6 48.95 53.55 48.45 52.6 L48.15 51.65 23.85 43.1 21.6 43.5 Q20.45 43.3 20.1 42.1 19.75 41.05 20.95 40.35 L22.25 39.9 22.05 38.7 Q22.05 37.4 23.1 37.0 24.15 36.6 25.15 38.15 L25.95 39.75 49.35 48.35" fill="url(#gradient1)" fill-rule="evenodd" stroke="none"/>
    <path d="M48.75 43.65 L24.5 51.15 Q24.1 52.95 22.95 53.0 22.0 53.1 21.45 52.4 20.85 51.7 21.5 50.75 L20.65 50.1 Q19.85 49.3 20.1 48.25 20.3 47.2 21.8 47.35 L23.25 47.75 46.65 40.2 47.45 38.6 Q48.5 37.1 49.55 37.55 50.6 38.0 50.55 39.3 L50.35 40.5 51.65 41.05 Q52.85 41.75 52.5 42.8 52.15 43.95 51.0 44.1 50.05 44.25 48.75 43.65" fill="url(#gradient2)" fill-rule="evenodd" stroke="none"/>
  </g>
  <defs>
    <linearGradient gradientTransform="matrix(0.0166, 0.0, 0.0, -0.0166, 35.75, 28.7)" gradientUnits="userSpaceOnUse" id="gradient0" spreadMethod="pad" x1="-819.2" x2="819.2">
      <stop offset="0.0" stop-color="#ffffff"/>
      <stop offset="1.0" stop-color="#c7cacd"/>
    </linearGradient>
    <linearGradient gradientTransform="matrix(0.0198, 0.0, 0.0, -0.0198, 36.3, 45.25)" gradientUnits="userSpaceOnUse" id="gradient1" spreadMethod="pad" x1="-819.2" x2="819.2">
      <stop offset="0.0" stop-color="#ffffff"/>
      <stop offset="1.0" stop-color="#c7cacd"/>
    </linearGradient>
    <linearGradient gradientTransform="matrix(0.0198, 0.0, 0.0, -0.0198, 36.3, 45.25)" gradientUnits="userSpaceOnUse" id="gradient2" spreadMethod="pad" x1="-819.2" x2="819.2">
      <stop offset="0.0" stop-color="#ffffff"/>
      <stop offset="1.0" stop-color="#c7cacd"/>
    </linearGradient>
  </defs>
</svg>
