<?xml version="1.0" encoding="UTF-8" standalone="no"?>
<svg xmlns:ffdec="https://www.free-decompiler.com/flash" xmlns:xlink="http://www.w3.org/1999/xlink" ffdec:objectType="shape" height="119.65px" width="27.8px" xmlns="http://www.w3.org/2000/svg">
  <g transform="matrix(1.0, 0.0, 0.0, 1.0, 0.0, -0.05)">
    <path d="M10.75 73.1 Q11.55 70.35 12.55 73.65 13.25 75.95 15.15 80.35 16.65 84.65 16.65 89.55 16.65 94.15 12.9 95.4 L9.3 96.5 Q7.05 97.35 5.55 98.85 3.9 100.45 5.05 102.25 5.85 103.5 8.8 105.7 16.3 111.35 17.35 114.95 18.15 117.7 17.2 118.9 16.35 119.95 14.7 119.65 13.1 119.3 12.0 118.1 10.8 116.8 11.2 115.45 12.0 112.75 8.3 107.2 5.05 102.3 1.45 99.3 -1.2 97.1 1.05 94.4 2.0 93.35 6.65 90.0 9.05 88.3 9.9 84.1 L10.3 80.25 Q9.95 75.8 10.75 73.1 M27.25 8.3 Q28.1 12.4 27.65 17.3 27.15 22.2 26.15 18.0 25.25 14.2 21.6 11.3 19.4 9.6 15.35 7.75 13.1 6.7 12.45 4.85 L12.25 3.2 Q14.05 0.65 16.95 0.15 18.05 -0.05 21.35 0.15 23.25 0.25 24.8 2.3 26.45 4.45 27.25 8.3" fill="url(#gradient0)" fill-rule="evenodd" stroke="none"/>
  </g>
  <defs>
    <linearGradient gradientTransform="matrix(0.0169, 0.0, 0.0, -0.0169, 13.9, 59.85)" gradientUnits="userSpaceOnUse" id="gradient0" spreadMethod="pad" x1="-819.2" x2="819.2">
      <stop offset="0.0" stop-color="#24a0ce"/>
      <stop offset="0.3764705882352941" stop-color="#239bcb"/>
      <stop offset="0.8156862745098039" stop-color="#228dc3"/>
      <stop offset="1.0" stop-color="#2185be"/>
    </linearGradient>
  </defs>
</svg>
