<?xml version="1.0" encoding="UTF-8" standalone="no"?>
<svg xmlns:ffdec="https://www.free-decompiler.com/flash" xmlns:xlink="http://www.w3.org/1999/xlink" ffdec:objectType="shape" height="145.0px" width="41.9px" xmlns="http://www.w3.org/2000/svg">
  <g transform="matrix(1.0, 0.0, 0.0, 1.0, 0.0, 0.05)">
    <path d="M10.1 5.3 Q9.5 3.45 11.75 2.0 13.85 0.65 17.6 0.2 26.55 -1.0 32.4 3.05 43.2 10.45 40.15 21.75 39.25 25.25 40.4 30.6 41.9 37.65 41.9 42.05 41.9 48.05 36.3 54.25 L31.8 58.85 Q29.2 61.4 28.3 62.8 26.85 65.1 26.85 70.0 26.85 73.85 24.6 74.9 22.15 76.05 23.95 82.0 26.9 91.45 27.05 93.0 27.4 96.4 22.75 100.1 20.85 101.55 20.6 102.45 20.2 103.75 22.1 105.35 26.65 109.1 29.2 115.35 31.85 121.9 29.05 124.4 26.3 126.8 28.35 129.55 30.05 131.9 34.5 133.8 37.9 135.25 33.25 136.4 L22.35 138.25 Q19.85 138.65 19.4 139.85 19.25 140.25 19.4 142.2 19.65 145.2 12.7 144.9 4.25 144.55 6.05 142.25 7.7 140.15 12.95 139.45 17.05 138.9 13.5 137.2 9.9 135.5 3.05 134.75 -0.1 134.4 0.05 133.45 0.15 132.75 2.5 131.1 9.55 126.1 10.5 123.65 11.9 119.8 8.75 114.65 L1.6 105.1 Q-1.55 100.8 1.6 97.0 L8.25 91.5 Q11.05 89.2 11.95 85.75 12.7 82.7 11.75 79.85 10.6 76.75 11.1 74.45 11.75 71.55 14.95 70.7 18.45 69.8 19.2 68.95 20.0 68.1 18.65 66.75 17.4 65.55 20.15 61.25 22.65 57.2 25.35 55.15 27.7 53.3 29.8 46.65 31.85 40.15 32.25 33.85 32.6 28.2 27.4 20.95 22.65 14.3 18.65 12.85 15.7 11.75 12.6 8.4 L10.1 5.3" fill="url(#gradient0)" fill-rule="evenodd" stroke="none"/>
  </g>
  <defs>
    <linearGradient gradientTransform="matrix(0.0256, 0.0, 0.0, -0.0256, 20.95, 72.45)" gradientUnits="userSpaceOnUse" id="gradient0" spreadMethod="pad" x1="-819.2" x2="819.2">
      <stop offset="0.0" stop-color="#24a0ce"/>
      <stop offset="0.3764705882352941" stop-color="#239bcb"/>
      <stop offset="0.8156862745098039" stop-color="#228dc3"/>
      <stop offset="1.0" stop-color="#2185be"/>
    </linearGradient>
  </defs>
</svg>
