<?xml version="1.0" encoding="UTF-8" standalone="no"?>
<svg xmlns:ffdec="https://www.free-decompiler.com/flash" xmlns:xlink="http://www.w3.org/1999/xlink" ffdec:objectType="shape" height="102.6px" width="52.9px" xmlns="http://www.w3.org/2000/svg">
  <g transform="matrix(1.0, 0.0, 0.0, 1.0, 27.55, 51.95)">
    <path d="M15.65 -36.25 Q18.1 -24.0 19.1 -8.6 20.45 12.6 22.85 36.9 10.8 38.7 -2.1 39.3 -10.2 39.7 -17.0 39.1 L-22.2 38.4 Q-21.1 14.5 -20.95 8.55 -20.4 -14.35 -18.35 -28.65 -17.2 -36.6 -14.45 -43.7 -13.05 -47.25 -11.9 -49.25 -10.25 -50.9 -8.3 -50.6 L-6.1 -50.15 Q-5.8 -50.25 -4.45 -51.1 -3.25 -51.85 -2.4 -51.95 -0.9 -52.1 3.4 -50.3 L6.25 -50.95 Q9.5 -51.35 11.2 -49.85 13.35 -48.0 15.65 -36.25" fill="url(#gradient0)" fill-rule="evenodd" stroke="none"/>
    <path d="M15.5 9.15 Q16.35 -1.6 16.5 1.35 L16.4 11.3 15.25 37.85 11.95 38.25 Q14.3 24.25 15.5 9.15 M6.1 10.35 Q6.45 6.55 6.8 18.0 L7.5 38.65 5.15 38.85 5.65 23.1 Q5.9 12.75 6.1 10.35 M-18.35 -28.65 L-17.75 -32.1 Q-19.55 -5.25 -19.7 16.0 -19.75 28.4 -19.4 38.8 L-22.2 38.4 Q-21.1 14.5 -20.95 8.55 -20.4 -14.35 -18.35 -28.65 M-7.35 -50.35 L-6.1 -50.15 -5.1 -50.65 -5.05 -50.6 Q-6.25 -48.0 -7.6 -41.6 -10.3 -28.85 -10.85 -9.85 -11.45 10.1 -9.75 18.0 -9.1 20.95 -8.4 21.1 -7.7 21.3 -7.4 19.15 -4.7 -1.25 -4.35 1.5 -4.0 4.25 -5.2 15.25 -6.5 27.1 -7.95 28.55 -9.25 29.85 -10.2 24.85 L-11.0 19.95 Q-11.15 20.45 -10.9 26.7 -10.55 33.85 -9.9 39.4 L-12.85 39.35 Q-14.2 -8.15 -13.7 -17.7 -13.35 -25.05 -12.45 -30.75 L-9.95 -43.35 Q-8.85 -48.65 -7.35 -50.35 M6.5 -50.2 L6.65 -51.0 7.8 -51.0 Q7.55 -50.6 7.55 -49.85 7.55 -45.7 6.1 -31.0 5.75 -44.55 6.5 -50.2 M12.8 -27.95 Q14.2 -17.9 14.05 -9.45 13.95 0.4 12.6 7.9 11.3 15.25 10.45 11.9 10.05 10.35 8.9 -1.55 8.0 -11.0 7.4 -8.7 L5.6 -0.2 Q4.25 5.1 2.7 4.85 1.1 4.6 0.2 2.65 L-0.35 0.75 0.15 15.15 Q0.85 31.15 1.9 39.05 L0.2 39.2 Q-1.05 26.9 -1.75 12.45 -2.85 -10.9 -1.65 -26.1 -0.3 -42.6 1.75 -50.9 L3.4 -50.3 Q2.4 -44.75 1.5 -36.6 -0.35 -20.35 0.0 -7.5 0.35 6.15 3.35 -1.25 6.1 -8.2 6.65 -16.5 7.05 -22.6 8.1 -19.25 9.2 -15.85 10.1 -4.95 10.95 5.25 12.0 2.3 12.9 -0.25 13.35 -10.25 13.7 -17.6 12.55 -27.7 L11.85 -33.4 12.8 -27.95 M15.85 -27.7 Q14.55 -37.7 12.6 -44.0 11.0 -49.1 9.35 -50.8 10.4 -50.5 11.2 -49.85 13.35 -48.0 15.65 -36.25 18.1 -24.0 19.1 -8.6 20.45 12.6 22.85 36.9 L20.1 37.3 18.85 8.7 Q17.55 -14.7 15.85 -27.7" fill="url(#gradient1)" fill-rule="evenodd" stroke="none"/>
    <path d="M12.65 -32.0 Q13.9 -29.05 15.1 -27.6 16.3 -26.15 16.15 -31.0 L15.75 -36.15 17.35 -30.1 Q18.5 -23.95 16.1 -23.35 14.8 -23.0 13.8 -26.1 L12.55 -30.95 Q12.2 -31.95 11.75 -29.35 11.05 -25.45 9.9 -23.75 8.55 -21.75 7.15 -24.7 6.7 -25.55 5.55 -29.4 5.3 -30.35 3.75 -27.6 1.5 -23.65 0.1 -22.25 -1.65 -20.4 -2.1 -24.45 -2.25 -29.25 -2.55 -29.95 -2.85 -30.6 -3.55 -28.15 -4.45 -24.95 -5.35 -24.15 -6.5 -23.2 -6.95 -25.35 L-7.4 -29.0 Q-7.5 -29.65 -8.8 -25.5 -10.45 -20.5 -11.6 -20.05 -12.85 -19.5 -13.4 -22.15 L-13.85 -26.5 Q-13.95 -27.55 -15.2 -26.25 -16.9 -24.5 -17.95 -24.85 -19.2 -25.3 -18.45 -29.65 L-17.45 -33.95 -17.55 -30.9 Q-17.4 -27.8 -16.3 -27.6 -15.15 -27.45 -14.15 -30.65 L-13.35 -33.85 -12.75 -30.5 Q-12.0 -27.0 -10.95 -26.4 -9.9 -25.75 -8.45 -30.0 L-7.15 -34.4 Q-6.35 -29.0 -5.25 -29.15 -4.1 -29.25 -2.05 -35.5 L-1.7 -32.0 Q-1.2 -28.3 -0.15 -27.2 0.9 -26.05 3.3 -30.6 L5.55 -35.35 5.9 -31.65 Q6.6 -27.7 8.35 -26.5 10.1 -25.3 11.05 -29.85 L11.65 -34.65 12.65 -32.0" fill="#ffffff" fill-rule="evenodd" stroke="none"/>
    <path d="M12.9 -5.55 Q13.75 -11.6 13.95 -11.1 L15.6 -4.2 Q17.0 1.3 17.85 1.1 18.75 0.95 18.9 -4.95 L18.9 -10.8 19.7 -3.9 Q20.15 3.2 18.35 4.15 16.55 5.1 15.15 0.05 L14.1 -5.2 13.7 -2.05 Q12.95 1.25 11.45 1.95 9.95 2.65 9.1 -2.05 L8.55 -6.85 8.35 -4.0 Q7.8 -0.45 5.9 3.15 3.95 6.85 1.65 3.4 0.1 1.1 -0.8 -2.45 -1.0 -3.15 -1.8 0.3 -2.9 4.85 -4.7 4.95 -6.65 5.05 -7.9 0.9 L-8.75 -3.25 -9.65 -0.8 Q-10.9 2.0 -12.4 3.7 -13.95 5.5 -15.35 2.3 -16.4 -0.05 -16.7 -2.85 -16.8 -3.75 -18.25 -1.25 -19.9 1.6 -20.85 0.15 -21.9 -1.45 -21.1 -6.5 L-20.1 -11.2 -20.35 -7.6 Q-20.4 -3.85 -19.35 -3.0 -18.3 -2.15 -17.35 -6.0 L-16.55 -10.0 -15.8 -6.15 Q-14.8 -2.15 -13.55 -1.2 -12.3 -0.25 -10.45 -5.05 L-8.9 -10.0 -8.0 -5.55 Q-6.75 -0.9 -5.1 0.15 -3.45 1.2 -2.3 -4.65 L-1.45 -10.65 -0.4 -6.25 Q1.05 -1.75 2.85 -1.2 4.65 -0.7 6.35 -7.35 L7.65 -14.1 8.75 -10.15 11.05 -2.45 Q12.0 0.4 12.9 -5.55" fill="#ffffff" fill-rule="evenodd" stroke="none"/>
    <path d="M-2.65 19.85 L-1.65 14.45 -0.35 20.3 Q1.2 26.05 2.65 25.5 4.1 25.0 5.4 19.0 L6.45 13.1 7.7 17.9 Q9.2 22.9 10.15 24.0 11.1 25.15 12.75 20.35 L14.2 15.3 15.7 19.95 Q17.45 24.5 18.8 24.0 20.15 23.45 20.5 17.4 L20.55 11.45 21.25 19.15 Q21.45 26.95 19.05 27.3 16.65 27.65 15.4 23.85 L14.6 20.0 14.1 22.1 Q13.35 24.6 12.05 26.75 10.75 28.9 8.8 24.5 L7.1 19.7 6.25 23.5 Q5.1 27.5 3.55 28.55 1.95 29.6 0.4 25.9 L-0.8 22.05 Q-2.8 27.15 -4.85 28.55 -6.15 29.45 -7.45 24.95 L-8.55 20.25 -10.0 24.3 Q-11.7 28.5 -13.25 29.1 -14.75 29.7 -15.9 25.85 L-16.8 21.9 -18.2 26.15 Q-19.8 30.15 -20.85 28.95 -21.9 27.75 -21.7 22.15 L-21.35 16.8 -21.25 21.4 Q-20.9 25.85 -19.7 24.95 -18.5 24.1 -17.9 19.55 L-17.55 15.15 -16.15 20.0 Q-14.5 24.85 -13.25 24.95 -11.95 25.05 -10.2 20.0 L-8.65 14.9 -7.5 19.95 Q-6.1 25.0 -5.0 25.1 -3.85 25.2 -2.65 19.85" fill="#ffffff" fill-rule="evenodd" stroke="none"/>
    <path d="M-12.55 -45.9 Q-11.7 -46.5 -12.1 -44.25 -12.45 -42.0 -13.35 -40.75 -14.55 -39.05 -12.55 -45.9" fill="#ffffff" fill-rule="evenodd" stroke="none"/>
    <path d="M-10.2 -46.6 Q-9.7 -46.95 -10.05 -45.1 -10.45 -43.3 -11.15 -42.0 -12.05 -40.25 -10.2 -46.6" fill="#ffffff" fill-rule="evenodd" stroke="none"/>
    <path d="M-5.75 -45.45 Q-4.95 -47.1 -5.55 -43.2 -6.1 -39.35 -6.75 -39.05 -7.3 -38.8 -6.55 -42.1 L-5.75 -45.45" fill="#ffffff" fill-rule="evenodd" stroke="none"/>
    <path d="M-3.95 -43.55 Q-3.15 -46.5 -3.2 -42.85 -3.2 -39.25 -4.1 -38.25 -5.25 -36.85 -3.95 -43.55" fill="#ffffff" fill-rule="evenodd" stroke="none"/>
    <path d="M-1.1 -46.3 Q0.0 -48.0 -0.75 -43.55 -1.6 -38.75 -1.8 -40.65 -1.95 -42.1 -1.55 -44.35 L-1.1 -46.3" fill="#ffffff" fill-rule="evenodd" stroke="none"/>
    <path d="M3.15 -46.85 Q3.6 -48.75 3.6 -45.2 3.6 -41.8 2.85 -40.05 1.75 -37.5 3.15 -46.85" fill="#ffffff" fill-rule="evenodd" stroke="none"/>
    <path d="M4.8 -46.25 Q5.25 -48.0 5.5 -45.25 5.7 -42.6 4.95 -41.4 3.9 -39.75 4.8 -46.25" fill="#ffffff" fill-rule="evenodd" stroke="none"/>
    <path d="M8.35 -45.8 Q8.45 -47.15 8.9 -44.75 9.3 -42.55 8.8 -41.4 8.05 -39.65 8.35 -45.8" fill="#ffffff" fill-rule="evenodd" stroke="none"/>
    <path d="M10.3 -45.85 Q10.15 -48.7 11.0 -45.1 11.7 -41.85 11.1 -41.2 10.5 -40.6 10.35 -43.15 L10.3 -45.85" fill="#ffffff" fill-rule="evenodd" stroke="none"/>
    <path d="M-12.05 32.65 Q-11.15 33.15 -11.35 35.05 L-10.7 35.25 Q-9.95 35.65 -9.65 36.75 -9.35 37.9 -9.8 38.55 L-10.3 38.95 -9.6 39.35 Q-8.95 39.85 -8.95 40.45 -8.95 41.45 -9.45 41.5 -9.5 43.1 -10.9 43.2 -11.75 43.25 -12.35 42.65 L-12.75 42.0 Q-13.4 43.35 -14.05 42.85 L-14.6 42.1 -14.65 41.65 Q-14.7 43.05 -15.55 43.3 -16.1 43.45 -16.7 42.8 L-17.2 42.1 Q-18.15 43.65 -19.1 42.85 -19.7 42.4 -19.9 41.45 L-20.0 40.65 Q-20.65 41.5 -21.05 41.0 L-21.35 40.25 -21.3 39.85 Q-21.9 40.7 -22.6 40.2 -23.35 39.75 -23.2 38.25 -24.1 36.9 -23.25 35.8 -22.9 35.3 -23.5 34.7 -24.25 33.95 -24.0 32.75 -23.7 31.2 -22.3 31.6 -20.95 32.0 -20.7 33.4 L-20.55 32.5 Q-20.3 31.6 -19.65 31.45 -18.65 31.25 -18.15 32.3 L-17.9 31.35 Q-17.4 30.35 -16.2 30.3 -15.0 30.25 -14.15 31.8 -13.7 32.55 -13.55 33.35 L-13.15 32.8 Q-12.65 32.35 -12.05 32.65" fill="url(#gradient2)" fill-rule="evenodd" stroke="none"/>
    <path d="M-19.3 31.45 Q-18.5 31.5 -18.15 32.3 L-18.1 32.0 -17.95 33.2 Q-18.45 32.0 -19.3 31.45 M-21.75 31.9 Q-20.85 32.45 -20.7 33.4 L-20.7 33.85 Q-21.15 32.85 -21.75 31.9 M-24.0 32.75 L-23.95 32.65 Q-23.85 33.55 -23.35 33.95 -22.45 34.65 -22.3 34.85 L-22.7 35.4 Q-23.1 36.1 -22.95 36.9 -22.7 38.15 -22.05 37.45 L-22.05 37.8 -22.45 38.4 Q-22.85 38.75 -22.6 39.3 -22.3 39.8 -21.8 39.55 -21.3 39.3 -21.15 38.35 -21.15 39.6 -20.45 39.55 -19.7 39.5 -19.6 38.7 L-19.4 39.45 Q-19.1 40.25 -18.5 40.2 -17.5 40.1 -17.3 38.75 L-17.1 39.35 Q-16.95 40.05 -17.1 40.55 -17.25 41.2 -16.55 41.55 L-15.55 41.5 Q-15.3 41.15 -15.3 40.45 L-15.35 39.8 -15.05 40.15 -14.75 40.8 -14.5 40.25 Q-14.2 39.25 -13.8 39.05 L-13.9 40.0 Q-13.95 41.0 -13.5 41.15 -12.85 41.4 -12.55 39.85 L-12.05 40.6 Q-11.45 41.3 -10.8 41.15 -9.8 40.85 -10.8 39.65 -10.1 39.75 -10.2 39.35 L-11.0 38.85 -11.7 38.6 Q-10.1 38.45 -10.2 37.1 -10.25 36.25 -11.05 35.65 L-11.85 35.25 Q-11.4 34.15 -11.6 33.15 -11.2 33.9 -11.35 35.05 L-10.7 35.25 Q-9.95 35.65 -9.65 36.75 -9.35 37.9 -9.8 38.55 L-10.3 38.95 -9.6 39.35 Q-8.95 39.85 -8.95 40.45 -8.95 41.45 -9.45 41.5 -9.5 43.1 -10.9 43.2 -11.75 43.25 -12.35 42.65 L-12.75 42.0 Q-13.4 43.35 -14.05 42.85 L-14.6 42.1 -14.65 41.65 Q-14.7 43.05 -15.55 43.3 -16.1 43.45 -16.7 42.8 L-17.2 42.1 Q-18.15 43.65 -19.1 42.85 -19.7 42.4 -19.9 41.45 L-20.0 40.65 Q-20.65 41.5 -21.05 41.0 L-21.35 40.25 -21.3 39.85 Q-21.9 40.7 -22.6 40.2 -23.35 39.75 -23.2 38.25 -24.1 36.9 -23.25 35.8 -22.9 35.3 -23.5 34.7 -24.25 33.95 -24.0 32.75 M-13.4 33.15 L-13.75 34.3 Q-14.05 31.75 -15.35 30.5 -14.05 31.15 -13.55 33.35 L-13.4 33.15" fill="url(#gradient3)" fill-rule="evenodd" stroke="none"/>
    <path d="M-8.25 37.5 Q-9.45 36.1 -9.2 35.65 -9.0 35.35 -8.6 35.3 L-8.2 35.35 -8.65 34.75 Q-9.05 34.15 -8.55 33.85 -8.05 33.6 -7.5 33.85 L-7.1 34.15 -6.8 32.9 Q-6.35 31.65 -5.4 31.5 -4.45 31.4 -3.5 32.55 L-2.75 33.7 -2.25 32.9 Q-1.55 32.2 -0.7 32.55 0.65 33.1 0.4 34.15 L1.0 33.85 Q1.65 33.7 1.95 34.5 2.4 35.85 1.5 36.9 L2.05 37.35 Q2.6 38.0 2.65 38.85 2.65 40.3 1.7 40.5 L2.2 40.8 Q2.6 41.2 2.2 41.8 L1.2 41.75 Q1.3 43.6 0.2 43.9 -0.5 44.1 -1.2 43.35 L-1.7 42.55 Q-1.6 43.65 -2.25 43.8 L-3.15 43.25 -3.5 42.6 Q-3.45 43.85 -4.9 44.45 -5.8 44.85 -7.0 43.95 L-8.0 42.95 Q-8.7 44.1 -9.6 43.2 -10.15 42.65 -10.15 41.65 L-10.05 40.75 Q-11.1 39.35 -10.5 37.85 -10.15 36.95 -9.15 37.15 -8.65 37.25 -8.25 37.5" fill="url(#gradient4)" fill-rule="evenodd" stroke="none"/>
    <path d="M-0.9 32.55 L-1.0 32.45 -0.7 32.55 Q0.05 32.85 0.3 33.45 L0.4 34.15 -0.15 35.45 Q-0.3 33.2 -0.9 32.55 M-7.1 34.15 L-7.1 33.9 -6.85 34.8 -7.65 33.8 Q-7.35 33.9 -7.1 34.15 M-3.3 34.5 Q-3.9 34.2 -4.35 32.95 -4.75 31.95 -5.25 31.5 -3.8 31.4 -2.75 33.7 L-2.7 33.65 -2.8 34.3 Q-2.75 34.75 -3.3 34.5 M-9.5 39.2 L-8.3 39.05 Q-8.3 39.95 -8.9 40.0 -9.4 40.05 -9.55 40.85 -9.75 41.7 -9.25 42.05 -8.5 42.5 -8.05 40.95 L-7.4 42.2 Q-6.5 43.45 -5.45 43.25 -4.35 43.05 -4.3 41.65 L-4.5 40.3 -4.2 40.65 -3.75 41.45 Q-3.6 42.05 -3.05 42.45 -2.4 42.9 -2.25 42.2 L-1.65 40.45 Q-1.15 42.55 -0.2 42.2 0.8 41.85 0.1 40.2 0.7 41.1 1.3 40.85 1.9 40.6 0.25 39.5 1.6 39.35 1.65 38.2 1.7 37.5 0.8 37.3 L-0.1 37.25 Q1.55 36.6 1.75 35.45 L1.8 34.2 1.95 34.5 Q2.4 35.85 1.5 36.9 L2.05 37.35 Q2.6 38.0 2.65 38.85 2.65 40.3 1.7 40.5 L2.2 40.8 Q2.6 41.2 2.2 41.8 L1.2 41.75 Q1.3 43.6 0.2 43.9 -0.5 44.1 -1.2 43.35 L-1.7 42.55 Q-1.6 43.65 -2.25 43.8 L-3.15 43.25 -3.5 42.6 Q-3.45 43.85 -4.9 44.45 -5.8 44.85 -7.0 43.95 L-8.0 42.95 Q-8.7 44.1 -9.6 43.2 -10.15 42.65 -10.15 41.65 L-10.05 40.75 Q-11.1 39.35 -10.5 37.85 L-10.05 37.25 Q-9.95 39.1 -9.5 39.2 M-9.2 35.7 Q-9.0 36.35 -8.2 36.8 L-7.7 37.6 -8.25 37.45 Q-9.35 36.15 -9.2 35.7 M-8.3 35.35 L-8.2 35.35 Q-9.2 34.4 -8.65 33.95 L-7.85 34.75 Q-7.5 35.05 -7.65 35.25 L-8.3 35.35" fill="url(#gradient5)" fill-rule="evenodd" stroke="none"/>
    <path d="M-20.3 34.85 L-19.6 36.05 -19.05 35.25 Q-18.35 34.55 -17.5 34.9 -16.15 35.45 -16.4 36.5 L-15.8 36.2 Q-15.15 36.05 -14.9 36.85 -14.45 38.2 -15.3 39.2 L-14.75 39.7 Q-14.2 40.35 -14.2 41.2 -14.2 42.6 -15.1 42.85 L-14.6 43.15 Q-14.2 43.55 -14.6 44.15 L-15.65 44.1 Q-15.5 45.95 -16.65 46.25 -17.35 46.45 -18.0 45.65 L-18.5 44.85 Q-18.4 46.0 -19.1 46.15 -19.75 46.3 -20.35 44.95 -20.25 46.2 -21.7 46.8 -22.6 47.2 -23.8 46.3 L-24.8 45.3 Q-25.55 46.45 -26.45 45.55 -27.0 45.0 -26.95 44.0 L-26.85 43.1 Q-27.9 41.7 -27.35 40.2 -26.95 39.3 -25.95 39.5 -25.45 39.6 -25.05 39.85 -26.25 38.45 -26.0 37.95 -25.85 37.65 -25.4 37.65 L-25.0 37.7 Q-26.15 36.65 -25.35 36.2 -24.85 35.95 -24.35 36.2 L-23.95 36.5 -23.65 35.25 Q-23.15 34.0 -22.2 33.85 -21.25 33.7 -20.3 34.85" fill="url(#gradient6)" fill-rule="evenodd" stroke="none"/>
    <path d="M-17.7 34.9 L-17.8 34.8 -17.5 34.9 Q-16.4 35.35 -16.4 36.45 L-16.95 37.8 Q-17.15 35.55 -17.7 34.9 M-24.55 39.95 L-25.1 39.8 Q-26.15 38.5 -26.0 38.0 -25.8 38.65 -25.05 39.15 L-24.55 39.95 M-27.35 40.2 L-26.85 39.6 Q-26.75 41.4 -26.35 41.55 L-25.1 41.4 Q-25.15 42.3 -25.75 42.35 -26.2 42.4 -26.4 43.2 -26.55 44.05 -26.05 44.4 -25.35 44.85 -24.85 43.3 L-24.2 44.55 Q-23.3 45.8 -22.25 45.6 -21.2 45.4 -21.15 44.0 L-21.35 42.65 -21.05 43.0 -20.6 43.8 Q-20.4 44.4 -19.85 44.8 -19.2 45.2 -19.05 44.55 L-18.45 42.8 Q-17.95 44.9 -17.0 44.55 -16.05 44.2 -16.7 42.55 -16.1 43.45 -15.5 43.2 -14.9 42.95 -16.55 41.85 -15.2 41.7 -15.15 40.55 -15.1 39.85 -16.05 39.65 L-16.95 39.6 Q-15.25 38.95 -15.1 37.75 L-15.0 36.55 -14.9 36.85 Q-14.45 38.2 -15.3 39.2 L-14.75 39.7 Q-14.2 40.35 -14.2 41.2 -14.2 42.6 -15.1 42.85 L-14.6 43.15 Q-14.2 43.55 -14.6 44.15 L-15.65 44.1 Q-15.5 45.95 -16.65 46.25 -17.35 46.45 -18.0 45.65 L-18.5 44.85 Q-18.4 46.0 -19.1 46.15 -19.75 46.3 -20.35 44.95 -20.25 46.2 -21.7 46.8 -22.6 47.2 -23.8 46.3 L-24.8 45.3 Q-25.55 46.45 -26.45 45.55 -27.0 45.0 -26.95 44.0 L-26.85 43.1 Q-27.9 41.7 -27.35 40.2 M-24.7 37.1 Q-24.3 37.4 -24.45 37.6 L-25.0 37.7 Q-26.05 36.75 -25.5 36.3 L-24.7 37.1 M-23.65 37.15 L-24.5 36.15 Q-24.15 36.25 -23.95 36.5 L-23.9 36.2 -23.65 37.15 M-19.6 36.05 L-19.55 35.95 -19.65 36.65 Q-19.6 37.1 -20.1 36.85 -20.7 36.55 -21.15 35.3 -21.5 34.4 -22.05 33.85 -20.6 33.75 -19.6 36.05" fill="url(#gradient7)" fill-rule="evenodd" stroke="none"/>
    <path d="M-10.3 27.35 Q-9.75 26.05 -8.95 27.25 -8.5 28.0 -8.9 28.75 -8.45 29.65 -9.3 29.95 -9.85 30.1 -9.95 29.4 L-10.0 28.7 Q-10.95 29.4 -11.05 28.4 -11.15 27.8 -10.75 27.5 L-10.3 27.35" fill="url(#gradient8)" fill-rule="evenodd" stroke="none"/>
    <path d="M-8.9 28.75 L-9.1 28.25 -9.3 28.05 -8.85 27.5 Q-8.6 28.15 -8.9 28.75 -8.5 29.7 -9.3 29.95 -9.85 30.1 -9.95 29.4 L-10.0 28.7 Q-10.95 29.4 -11.05 28.4 L-10.95 27.75 Q-10.95 28.4 -10.55 28.35 -9.95 28.3 -9.85 27.9 -9.4 29.75 -9.0 29.15 L-8.9 28.75" fill="url(#gradient9)" fill-rule="evenodd" stroke="none"/>
    <path d="M-15.0 24.5 Q-13.9 26.75 -14.1 26.95 L-15.05 25.9 Q-15.6 25.1 -15.35 24.7 L-15.0 24.5" fill="url(#gradient10)" fill-rule="evenodd" stroke="none"/>
    <path d="M-15.0 25.5 L-14.25 26.2 Q-13.9 27.1 -14.2 26.9 L-15.05 25.9 Q-15.7 25.0 -15.3 24.6 L-15.0 25.5" fill="url(#gradient11)" fill-rule="evenodd" stroke="none"/>
    <path d="M4.0 34.35 L4.5 35.25 4.25 33.8 Q4.1 32.35 4.6 32.2 L5.4 32.0 5.55 31.5 6.4 30.7 Q7.0 30.5 7.85 31.4 L8.55 32.4 8.65 31.85 Q8.9 31.3 9.65 31.4 10.85 31.55 11.25 33.0 L11.6 32.65 Q12.0 32.35 12.5 32.3 13.25 32.2 13.65 33.15 L13.45 32.15 Q13.35 31.0 14.1 30.6 14.85 30.25 15.65 30.85 L16.3 31.5 16.2 30.45 Q16.2 29.35 16.55 29.2 17.15 29.0 17.5 29.65 17.45 29.05 17.65 28.5 18.0 27.35 19.2 27.4 20.4 27.5 21.4 29.55 L22.15 31.55 22.4 31.15 Q22.75 30.75 23.3 31.0 24.2 31.45 23.9 32.5 L24.55 32.85 Q25.25 33.35 25.35 34.2 25.5 35.55 24.55 36.15 25.2 37.9 24.1 38.45 24.55 40.75 23.3 41.2 22.1 41.7 21.05 40.1 21.25 42.05 20.4 41.9 19.85 41.8 19.55 41.45 L19.35 41.15 Q18.55 42.65 17.2 42.3 16.4 42.1 16.05 41.1 L15.85 40.2 Q14.7 41.5 14.35 40.6 14.1 40.05 14.15 39.55 L14.25 39.15 13.1 39.1 Q13.7 40.8 12.6 41.3 11.45 41.8 10.65 40.1 10.6 41.75 9.45 41.3 L8.25 40.5 7.95 40.0 7.95 41.05 Q7.75 42.15 6.65 42.35 5.55 42.55 4.9 41.55 L4.45 40.5 Q3.8 41.65 3.15 40.95 2.75 40.5 2.9 39.95 L3.1 39.5 Q2.75 40.0 2.3 39.4 2.0 39.0 2.2 38.55 L2.45 38.15 2.3 37.45 Q2.25 36.75 2.75 36.75 L3.55 36.75 Q2.25 34.9 2.95 34.1 3.4 33.55 4.0 34.35" fill="url(#gradient12)" fill-rule="evenodd" stroke="none"/>
    <path d="M18.25 30.25 L18.5 31.35 17.5 29.55 Q17.5 28.2 18.2 27.65 17.95 29.0 18.25 30.25 M14.7 33.7 Q14.0 33.8 13.6 33.1 13.15 31.6 13.8 30.85 13.65 32.4 14.25 32.95 14.95 33.55 15.3 33.5 L14.7 33.7 M16.25 31.25 Q16.1 29.65 16.45 29.3 16.35 30.7 16.85 31.85 17.25 32.8 16.95 32.6 16.65 32.4 16.25 31.25 M2.3 39.4 Q2.0 39.0 2.2 38.55 L2.45 38.15 2.3 37.55 Q2.25 36.9 2.55 36.75 2.45 37.6 2.9 37.75 3.55 38.0 3.95 37.55 4.05 38.35 3.65 38.5 3.35 38.65 3.6 39.05 3.85 39.5 4.2 39.3 L4.7 38.55 Q5.0 38.0 5.6 37.95 L5.4 38.7 Q5.3 39.55 5.8 39.9 L7.1 40.15 Q7.75 39.95 7.7 39.3 L7.4 38.15 7.1 37.7 7.75 37.95 Q8.45 38.3 8.55 38.8 8.65 39.45 9.25 39.6 9.9 39.7 9.95 39.15 L9.75 38.0 9.5 37.4 10.25 37.7 Q11.05 38.1 11.25 38.55 L11.95 39.2 Q12.4 39.3 12.4 38.75 L12.25 37.65 12.1 37.15 13.6 37.1 Q14.05 36.65 13.85 36.0 L13.55 35.4 14.1 35.8 Q14.65 36.4 14.5 37.25 L14.15 38.65 Q15.05 38.25 15.2 37.75 L15.4 36.4 15.7 37.2 15.85 38.45 Q15.7 39.05 15.85 39.4 16.05 39.8 16.55 39.55 17.3 39.25 17.3 38.35 L17.9 39.85 Q18.1 40.3 18.55 40.15 L19.15 39.6 19.3 38.8 19.25 38.35 Q19.55 40.05 20.0 40.0 20.45 40.0 20.75 38.2 L22.6 38.25 Q23.0 37.9 22.9 37.2 L22.7 36.6 Q23.75 36.4 23.8 36.0 L23.4 35.05 22.95 34.45 Q24.1 34.95 24.4 34.15 24.55 33.65 23.9 33.0 L23.25 32.4 Q23.45 31.65 22.95 31.25 22.65 31.0 22.35 31.7 L22.1 32.4 21.2 29.1 22.15 31.55 22.4 31.15 Q22.75 30.75 23.3 31.0 24.2 31.45 23.9 32.5 L24.55 32.85 Q25.25 33.35 25.35 34.2 25.5 35.55 24.55 36.15 25.2 37.9 24.1 38.45 24.55 40.75 23.3 41.2 22.1 41.7 21.05 40.1 21.25 42.05 20.4 41.9 19.85 41.8 19.55 41.45 L19.35 41.15 Q18.55 42.65 17.2 42.3 16.4 42.1 16.05 41.1 L15.85 40.2 Q14.7 41.5 14.35 40.6 14.1 40.05 14.15 39.55 L14.25 39.15 13.1 39.05 Q13.7 40.8 12.6 41.3 11.45 41.8 10.65 40.1 10.6 41.75 9.45 41.3 L8.25 40.5 7.95 40.0 7.95 41.05 Q7.75 42.15 6.65 42.35 5.55 42.55 4.9 41.55 L4.45 40.5 Q3.8 41.65 3.15 40.95 2.65 40.4 3.1 39.5 2.7 39.9 2.3 39.4 M8.7 32.9 Q8.85 33.7 8.2 34.5 8.3 32.75 7.45 31.5 L6.75 30.65 Q7.6 30.8 8.55 32.4 L8.65 31.8 8.7 32.9 M10.3 31.65 Q11.0 32.1 11.25 33.0 L11.35 33.6 Q11.3 34.3 10.7 34.75 11.05 33.4 10.4 31.9 L10.3 31.65 M5.4 32.0 L6.15 32.25 5.3 32.35 Q4.4 32.6 4.2 33.15 4.2 32.35 4.6 32.2 L5.4 32.0 M2.95 34.1 L3.05 34.0 Q3.05 35.25 3.3 35.85 3.65 36.75 4.15 37.05 L3.5 36.75 Q2.35 34.8 2.95 34.1" fill="url(#gradient13)" fill-rule="evenodd" stroke="none"/>
    <path d="M-18.15 39.35 L-17.2 39.3 -16.95 38.8 Q-16.6 38.3 -15.9 38.15 -15.2 38.0 -14.3 39.0 L-13.55 40.05 -13.35 39.5 Q-13.0 39.0 -12.15 39.2 -10.75 39.55 -10.45 40.95 L-10.0 40.65 Q-9.45 40.35 -8.9 40.4 -8.0 40.45 -7.65 41.4 L-7.8 40.4 Q-7.75 39.3 -6.85 39.0 -5.95 38.7 -5.1 39.4 L-4.4 40.1 -4.4 39.05 Q-4.3 38.0 -3.85 37.95 -3.15 37.85 -2.8 38.5 L-2.5 37.4 Q-1.95 36.35 -0.6 36.55 0.8 36.75 1.8 38.85 L2.5 40.85 2.8 40.5 Q3.25 40.2 3.85 40.5 4.9 41.0 4.5 42.0 L5.25 42.4 Q5.95 42.95 6.0 43.75 6.05 45.1 4.9 45.55 L5.05 46.5 Q5.0 47.45 4.2 47.7 L4.15 48.85 Q3.95 50.05 3.0 50.25 2.1 50.45 1.2 49.7 L0.45 48.9 Q0.5 50.8 -0.5 50.55 L-1.45 50.0 -1.65 49.7 Q-2.75 51.0 -4.25 50.55 -5.2 50.25 -5.5 49.3 L-5.65 48.4 Q-7.1 49.45 -7.45 48.6 L-7.6 47.55 -7.45 47.15 Q-8.65 47.55 -8.85 46.8 L-8.65 47.75 Q-8.6 48.8 -9.5 49.0 -10.4 49.25 -11.15 48.5 L-11.75 47.65 -12.0 48.35 Q-12.45 49.0 -13.25 48.65 L-14.55 47.75 -14.85 47.25 -14.95 48.25 Q-15.3 49.25 -16.65 49.3 -17.95 49.4 -18.65 48.35 L-19.05 47.3 Q-19.9 48.3 -20.6 47.55 -21.05 47.1 -20.8 46.6 L-20.5 46.15 Q-21.0 46.65 -21.45 46.0 -21.75 45.6 -21.5 45.15 L-21.2 44.8 -21.3 44.1 Q-21.3 43.45 -20.7 43.5 L-19.8 43.6 Q-21.15 41.7 -20.25 41.0 -19.7 40.55 -19.1 41.35 L-18.55 42.25 -18.7 40.85 Q-18.75 39.45 -18.15 39.35" fill="url(#gradient14)" fill-rule="evenodd" stroke="none"/>
    <path d="M-5.7 41.9 Q-7.0 42.45 -7.65 41.3 -8.1 39.8 -7.25 39.2 -7.55 40.65 -6.9 41.25 L-5.7 41.9 M-4.4 39.85 Q-4.4 38.3 -4.0 38.0 -4.2 39.3 -3.75 40.5 -3.4 41.45 -3.7 41.25 -4.05 41.0 -4.4 39.85 M-2.0 39.15 L-1.75 40.25 -2.8 38.4 Q-2.6 37.05 -1.8 36.7 -2.25 37.9 -2.0 39.15 M-13.35 39.45 L-13.4 40.55 Q-13.3 41.35 -14.15 42.0 -13.85 40.35 -14.7 39.05 L-15.5 38.15 Q-14.5 38.4 -13.55 40.05 L-13.35 39.45 M-11.3 39.8 L-11.4 39.55 Q-10.65 40.05 -10.45 40.95 -10.0 41.95 -11.2 42.55 -10.65 41.3 -11.3 39.8 M-20.5 46.2 Q-21.0 46.65 -21.45 46.0 -21.75 45.6 -21.5 45.15 L-21.2 44.8 -21.3 44.2 Q-21.3 43.6 -20.95 43.5 -21.15 44.25 -20.65 44.5 L-19.35 44.45 Q-19.3 45.2 -19.8 45.3 -20.2 45.4 -19.9 45.85 -19.6 46.25 -19.2 46.15 L-18.6 45.5 Q-18.15 44.95 -17.45 45.0 L-17.75 45.7 Q-17.95 46.5 -17.4 46.9 -16.7 47.4 -15.9 47.3 -15.15 47.2 -15.15 46.55 L-15.4 45.45 -15.65 44.95 -14.9 45.3 Q-14.15 45.7 -14.1 46.2 -14.0 46.8 -13.3 47.0 -12.65 47.2 -12.45 46.65 -12.3 46.2 -12.55 45.5 L-12.85 44.95 -11.95 45.3 Q-11.05 45.8 -10.9 46.25 -10.7 46.8 -10.15 46.95 -9.6 47.05 -9.55 46.55 L-9.65 45.5 -9.75 45.0 Q-8.9 45.7 -8.05 45.15 -7.15 44.55 -7.9 43.5 L-7.25 44.0 Q-6.7 44.6 -6.95 45.4 L-7.55 46.7 Q-6.45 46.4 -6.2 45.95 L-5.85 44.65 -5.6 45.45 Q-5.35 46.3 -5.5 46.7 L-5.6 47.6 Q-5.4 48.0 -4.8 47.85 -3.9 47.65 -3.75 46.8 L-3.2 48.3 Q-3.0 48.7 -2.45 48.65 L-1.7 48.2 -1.5 47.4 -1.5 47.0 -1.35 47.85 Q-1.1 48.7 -0.75 48.7 -0.25 48.75 0.3 47.05 1.7 47.8 2.45 47.35 3.2 46.85 2.65 45.75 3.9 45.7 4.0 45.3 L3.65 44.4 3.2 43.75 4.9 43.65 Q5.1 43.2 4.45 42.45 L3.75 41.8 Q4.0 41.15 3.5 40.7 3.15 40.4 2.7 41.05 L2.35 41.7 Q2.15 40.0 1.55 38.4 2.2 39.55 2.5 40.85 L2.8 40.5 Q3.25 40.2 3.85 40.5 4.9 41.0 4.5 42.0 L5.25 42.4 Q5.95 42.95 6.0 43.75 6.05 45.1 4.9 45.55 L5.05 46.5 Q5.0 47.45 4.2 47.7 L4.15 48.85 Q3.95 50.05 3.0 50.25 2.1 50.45 1.2 49.7 L0.45 48.9 Q0.5 50.8 -0.5 50.55 L-1.45 50.0 -1.65 49.7 Q-2.75 51.0 -4.25 50.55 -5.2 50.25 -5.5 49.3 L-5.65 48.4 Q-7.1 49.45 -7.45 48.6 L-7.6 47.55 -7.45 47.15 Q-8.5 47.5 -8.8 46.9 -8.25 48.7 -9.5 49.0 -10.4 49.25 -11.15 48.5 L-11.75 47.65 -12.0 48.35 Q-12.45 49.0 -13.25 48.65 L-14.55 47.75 -14.85 47.25 -14.95 48.25 Q-15.3 49.25 -16.65 49.3 -17.95 49.4 -18.65 48.35 L-19.05 47.3 Q-19.9 48.3 -20.6 47.55 -21.25 46.9 -20.5 46.2 M-19.1 43.95 L-19.8 43.55 -20.4 42.45 Q-20.8 41.4 -20.25 41.0 L-20.15 40.9 -20.0 42.7 Q-19.65 43.6 -19.1 43.95 M-18.7 40.25 Q-18.6 39.4 -18.15 39.35 L-17.2 39.3 -16.3 39.6 -17.35 39.6 Q-18.4 39.7 -18.7 40.25" fill="url(#gradient15)" fill-rule="evenodd" stroke="none"/>
    <path d="M2.05 38.9 Q2.4 38.45 3.0 38.3 4.0 38.1 5.05 39.9 5.05 39.65 5.2 39.45 5.5 39.05 6.3 39.2 7.5 39.45 7.8 40.65 L8.15 40.4 9.1 40.2 Q9.9 40.2 10.2 41.05 L10.1 40.2 Q10.1 39.3 10.9 39.0 12.15 38.6 13.05 39.95 L13.05 39.05 Q13.15 38.15 13.5 38.1 14.1 38.0 14.45 38.6 L14.7 37.65 Q15.2 36.75 16.4 36.95 17.6 37.1 18.45 38.85 L19.05 40.55 19.35 40.25 Q19.75 39.95 20.3 40.25 21.15 40.65 20.8 41.5 L21.45 41.85 Q22.1 42.3 22.15 43.0 22.2 44.1 21.2 44.45 21.7 45.95 20.55 46.3 20.85 48.15 19.55 48.4 18.75 48.55 17.95 47.95 L17.3 47.3 Q17.35 48.9 16.5 48.65 15.95 48.55 15.65 48.25 L15.45 47.95 Q14.5 49.1 13.2 48.65 12.4 48.4 12.1 47.65 L12.0 46.9 Q10.7 47.8 10.4 47.05 10.2 46.6 10.3 46.2 L10.4 45.85 9.3 45.8 Q9.7 47.1 8.6 47.4 7.8 47.6 7.15 46.95 L6.65 46.25 Q6.45 47.6 5.35 47.1 4.65 46.8 4.2 46.35 L3.9 45.95 3.85 46.75 Q3.55 47.6 2.4 47.7 1.25 47.75 0.65 46.9 L0.3 46.0 Q-0.45 46.85 -1.05 46.25 -1.4 45.85 -1.25 45.4 L-1.0 45.05 Q-1.4 45.45 -1.85 44.9 -2.1 44.55 -1.85 44.2 L-1.6 43.9 -1.7 43.35 Q-1.7 42.75 -1.2 42.8 L-0.35 42.9 -0.85 42.05 Q-1.25 41.1 -0.8 40.7 -0.35 40.35 0.25 41.05 L0.7 41.8 0.55 40.6 Q0.5 39.4 1.05 39.35 L1.85 39.3 2.05 38.9" fill="url(#gradient16)" fill-rule="evenodd" stroke="none"/>
    <path d="M13.4 38.15 Q13.25 39.15 13.6 40.25 13.9 41.1 13.65 40.9 L13.05 39.75 Q13.05 38.4 13.4 38.15 M15.15 39.15 L15.35 40.05 14.45 38.5 Q14.65 37.4 15.3 37.05 14.95 38.15 15.15 39.15 M11.9 41.45 Q10.75 41.9 10.2 40.95 9.8 39.75 10.55 39.2 10.4 40.55 10.85 40.9 11.55 41.45 11.9 41.45 M5.25 39.45 Q5.1 39.9 5.2 40.35 5.3 41.0 4.55 41.55 4.8 40.15 4.05 39.05 L3.35 38.3 Q4.2 38.5 5.05 39.9 L5.25 39.45 M7.05 39.7 L6.95 39.45 Q7.6 39.9 7.8 40.65 8.15 41.5 7.1 42.0 7.55 40.95 7.05 39.7 M-1.6 43.9 L-1.7 43.4 Q-1.7 42.9 -1.4 42.8 -1.5 43.5 -1.1 43.65 L0.0 43.6 Q0.05 44.25 -0.4 44.35 -0.7 44.45 -0.45 44.75 -0.25 45.1 0.1 45.0 L0.7 44.5 Q1.05 44.05 1.65 44.1 L1.4 44.7 Q1.2 45.35 1.7 45.65 2.35 46.05 3.0 45.95 3.65 45.85 3.65 45.35 L3.45 44.4 3.2 44.0 3.85 44.3 4.6 45.05 Q4.7 45.55 5.3 45.7 5.9 45.9 6.0 45.45 L5.95 44.5 5.7 44.0 6.45 44.3 Q7.25 44.7 7.35 45.1 7.55 45.6 8.05 45.7 8.5 45.8 8.55 45.35 L8.45 44.5 8.35 44.05 9.9 44.15 Q10.65 43.7 10.0 42.8 L10.55 43.2 Q11.05 43.75 10.8 44.4 L10.35 45.45 Q11.3 45.25 11.45 44.85 L11.8 43.75 12.05 44.4 12.1 45.5 Q11.9 45.95 12.05 46.2 12.2 46.55 12.75 46.4 13.5 46.25 13.6 45.55 L14.1 46.8 Q14.3 47.15 14.75 47.1 L15.4 46.75 15.6 46.05 15.6 45.7 15.75 46.4 Q15.95 47.1 16.25 47.15 16.7 47.15 17.15 45.75 18.4 46.35 19.05 45.95 19.7 45.6 19.25 44.65 20.3 44.6 20.4 44.25 L20.1 43.5 19.7 42.95 21.15 42.85 Q21.35 42.5 20.8 41.9 L20.15 41.35 Q20.35 40.8 19.95 40.4 19.65 40.2 19.3 40.7 L18.95 41.25 18.25 38.5 19.05 40.55 19.35 40.25 Q19.75 39.95 20.3 40.25 21.15 40.65 20.8 41.5 L21.45 41.85 Q22.1 42.3 22.15 43.0 22.2 44.1 21.2 44.45 21.7 45.95 20.55 46.3 20.85 48.15 19.55 48.4 18.75 48.55 17.95 47.95 L17.3 47.3 Q17.35 48.9 16.5 48.65 15.95 48.55 15.65 48.25 L15.45 47.95 Q14.5 49.1 13.2 48.65 12.4 48.4 12.1 47.65 L12.0 46.9 Q10.7 47.8 10.4 47.05 10.2 46.6 10.3 46.2 L10.4 45.85 Q9.45 46.15 9.2 45.65 9.75 47.1 8.6 47.4 7.8 47.6 7.15 46.95 L6.65 46.25 Q6.45 47.6 5.35 47.1 4.65 46.8 4.2 46.35 L3.9 45.95 3.85 46.75 Q3.55 47.6 2.4 47.7 1.25 47.75 0.65 46.9 L0.3 46.0 Q-0.45 46.85 -1.05 46.25 -1.6 45.7 -1.0 45.05 -1.4 45.45 -1.85 44.9 -2.1 44.55 -1.85 44.2 L-1.6 43.9 M-0.8 40.7 L-0.7 40.65 -0.55 42.15 Q-0.25 42.9 0.25 43.2 L-0.4 42.9 -0.9 41.95 Q-1.25 41.05 -0.8 40.7 M1.05 39.35 L1.85 39.3 2.65 39.55 1.75 39.55 Q0.8 39.65 0.6 40.1 0.6 39.45 1.05 39.35" fill="url(#gradient17)" fill-rule="evenodd" stroke="none"/>
    <path d="M2.25 26.75 L2.35 27.05 2.35 28.0 1.95 31.75 1.75 32.85 Q1.6 33.0 1.5 32.1 L0.95 28.75 Q0.75 27.8 1.45 29.4 L1.6 29.0 1.7 27.4 Q1.85 26.7 2.05 26.65 L2.25 26.75" fill="url(#gradient18)" fill-rule="evenodd" stroke="none"/>
    <path d="M2.2 26.7 L2.25 26.75 2.35 27.05 2.35 28.0 1.95 31.75 1.75 32.85 Q1.6 33.0 1.5 32.1 L0.95 28.75 Q0.9 28.35 1.05 28.6 L1.55 30.55 1.7 32.0 1.75 32.25 2.0 28.65 2.2 26.7" fill="url(#gradient19)" fill-rule="evenodd" stroke="none"/>
    <path d="M-21.3 26.25 Q-21.2 26.8 -21.75 26.9 -22.25 26.9 -22.25 26.35 -22.35 25.8 -21.85 25.7 -21.4 25.7 -21.3 26.25" fill="url(#gradient20)" fill-rule="evenodd" stroke="none"/>
    <path d="M-21.55 26.15 Q-21.55 26.55 -21.85 26.6 -22.2 26.6 -22.2 26.2 -22.3 25.85 -21.95 25.75 -21.65 25.75 -21.55 26.15" fill="url(#gradient21)" fill-rule="evenodd" stroke="none"/>
    <path d="M12.05 29.75 Q11.45 28.05 10.75 27.3 10.25 26.75 10.25 26.35 L10.75 26.4 Q11.2 26.8 11.55 27.8 L12.05 29.75" fill="url(#gradient22)" fill-rule="evenodd" stroke="none"/>
    <path d="M12.05 29.75 Q11.45 28.05 10.75 27.3 L10.25 26.45 Q10.15 26.05 10.4 26.15 10.4 26.6 10.65 26.85 L11.5 28.15 11.4 27.4 12.05 29.75" fill="url(#gradient23)" fill-rule="evenodd" stroke="none"/>
    <path d="M12.1 24.55 L12.05 23.45 12.2 23.2 Q12.6 23.1 12.8 24.15 12.95 25.15 12.75 25.6 12.45 26.25 12.1 24.55" fill="url(#gradient24)" fill-rule="evenodd" stroke="none"/>
    <path d="M12.1 24.55 Q11.85 23.4 12.2 23.25 L12.3 24.4 Q12.45 25.1 12.65 24.95 12.85 24.85 12.7 23.8 13.0 25.1 12.75 25.6 12.45 26.25 12.1 24.55" fill="url(#gradient25)" fill-rule="evenodd" stroke="none"/>
    <path d="M22.8 24.95 Q23.15 25.4 22.85 24.45 L22.4 23.2 22.85 24.0 23.65 26.45 24.0 27.75 23.4 26.9 22.25 25.6 21.55 24.65 Q21.45 24.3 21.6 24.2 L21.8 24.15 Q22.15 24.05 22.8 24.95" fill="url(#gradient26)" fill-rule="evenodd" stroke="none"/>
    <path d="M23.35 25.45 L24.0 27.75 23.4 26.9 22.25 25.6 21.55 24.65 Q21.4 24.25 21.65 24.15 21.65 24.55 22.0 24.9 L23.45 26.55 23.35 25.45" fill="url(#gradient27)" fill-rule="evenodd" stroke="none"/>
  </g>
  <defs>
    <linearGradient gradientTransform="matrix(0.0275, 0.0, 0.0, -0.0275, 0.35, -6.25)" gradientUnits="userSpaceOnUse" id="gradient0" spreadMethod="pad" x1="-819.2" x2="819.2">
      <stop offset="0.0" stop-color="#8aecc9"/>
      <stop offset="0.5294117647058824" stop-color="#5ce5ba"/>
      <stop offset="1.0" stop-color="#8aecc9"/>
    </linearGradient>
    <linearGradient gradientTransform="matrix(0.0275, 0.0, 0.0, -0.0275, 0.35, -5.8)" gradientUnits="userSpaceOnUse" id="gradient1" spreadMethod="pad" x1="-819.2" x2="819.2">
      <stop offset="0.0" stop-color="#5ce5ba"/>
      <stop offset="0.5294117647058824" stop-color="#10989a"/>
      <stop offset="1.0" stop-color="#5ce5ba"/>
    </linearGradient>
    <radialGradient cx="0" cy="0" gradientTransform="matrix(0.0173, 1.0E-4, -0.0013, -0.0175, -17.5, 30.75)" gradientUnits="userSpaceOnUse" id="gradient2" r="819.2" spreadMethod="pad">
      <stop offset="0.0" stop-color="#ffffff"/>
      <stop offset="1.0" stop-color="#cbd5d5"/>
    </radialGradient>
    <linearGradient gradientTransform="matrix(0.0098, 0.0022, 0.0022, -0.0098, -16.5, 36.9)" gradientUnits="userSpaceOnUse" id="gradient3" spreadMethod="pad" x1="-819.2" x2="819.2">
      <stop offset="0.0" stop-color="#b0bfbf"/>
      <stop offset="1.0" stop-color="#90a5a5"/>
    </linearGradient>
    <radialGradient cx="0" cy="0" gradientTransform="matrix(0.0111, 0.0, -8.0E-4, -0.0112, -5.4, 34.4)" gradientUnits="userSpaceOnUse" id="gradient4" r="819.2" spreadMethod="pad">
      <stop offset="0.0" stop-color="#ffffff"/>
      <stop offset="1.0" stop-color="#cbd5d5"/>
    </radialGradient>
    <linearGradient gradientTransform="matrix(0.0079, 0.0018, 0.0018, -0.0079, -3.8, 38.35)" gradientUnits="userSpaceOnUse" id="gradient5" spreadMethod="pad" x1="-819.2" x2="819.2">
      <stop offset="0.0" stop-color="#b0bfbf"/>
      <stop offset="1.0" stop-color="#90a5a5"/>
    </linearGradient>
    <radialGradient cx="0" cy="0" gradientTransform="matrix(0.0111, 0.0, -8.0E-4, -0.0112, -22.25, 36.75)" gradientUnits="userSpaceOnUse" id="gradient6" r="819.2" spreadMethod="pad">
      <stop offset="0.0" stop-color="#ffffff"/>
      <stop offset="1.0" stop-color="#cbd5d5"/>
    </radialGradient>
    <linearGradient gradientTransform="matrix(0.0079, 0.0018, 0.0018, -0.0079, -20.6, 40.7)" gradientUnits="userSpaceOnUse" id="gradient7" spreadMethod="pad" x1="-819.2" x2="819.2">
      <stop offset="0.0" stop-color="#b0bfbf"/>
      <stop offset="1.0" stop-color="#90a5a5"/>
    </linearGradient>
    <radialGradient cx="0" cy="0" gradientTransform="matrix(0.0017, 0.0, -1.0E-4, -0.0017, -9.9, 28.35)" gradientUnits="userSpaceOnUse" id="gradient8" r="819.2" spreadMethod="pad">
      <stop offset="0.0" stop-color="#ffffff"/>
      <stop offset="1.0" stop-color="#cbd5d5"/>
    </radialGradient>
    <linearGradient gradientTransform="matrix(0.0015, 3.0E-4, 3.0E-4, -0.0015, -9.9, 28.55)" gradientUnits="userSpaceOnUse" id="gradient9" spreadMethod="pad" x1="-819.2" x2="819.2">
      <stop offset="0.0" stop-color="#b0bfbf"/>
      <stop offset="1.0" stop-color="#90a5a5"/>
    </linearGradient>
    <radialGradient cx="0" cy="0" gradientTransform="matrix(0.0076, 0.0, -6.0E-4, -0.0077, -14.1, 24.25)" gradientUnits="userSpaceOnUse" id="gradient10" r="819.2" spreadMethod="pad">
      <stop offset="0.0" stop-color="#ffffff"/>
      <stop offset="1.0" stop-color="#cbd5d5"/>
    </radialGradient>
    <linearGradient gradientTransform="matrix(8.0E-4, 0.0, 0.0, -7.0E-4, -14.75, 25.8)" gradientUnits="userSpaceOnUse" id="gradient11" spreadMethod="pad" x1="-819.2" x2="819.2">
      <stop offset="0.0" stop-color="#b0bfbf"/>
      <stop offset="1.0" stop-color="#90a5a5"/>
    </linearGradient>
    <radialGradient cx="0" cy="0" gradientTransform="matrix(0.0262, 1.0E-4, -0.002, -0.0265, 12.5, 28.2)" gradientUnits="userSpaceOnUse" id="gradient12" r="819.2" spreadMethod="pad">
      <stop offset="0.0" stop-color="#ffffff"/>
      <stop offset="1.0" stop-color="#cbd5d5"/>
    </radialGradient>
    <linearGradient gradientTransform="matrix(0.0132, 0.003, 0.003, -0.0132, 13.9, 35.4)" gradientUnits="userSpaceOnUse" id="gradient13" spreadMethod="pad" x1="-819.2" x2="819.2">
      <stop offset="0.0" stop-color="#b0bfbf"/>
      <stop offset="1.0" stop-color="#90a5a5"/>
    </linearGradient>
    <radialGradient cx="0" cy="0" gradientTransform="matrix(0.0312, 0.0031, -2.0E-4, -0.0251, -8.6, 36.5)" gradientUnits="userSpaceOnUse" id="gradient14" r="819.2" spreadMethod="pad">
      <stop offset="0.0" stop-color="#ffffff"/>
      <stop offset="1.0" stop-color="#cbd5d5"/>
    </radialGradient>
    <linearGradient gradientTransform="matrix(0.0158, 0.0036, 0.0036, -0.0158, -7.5, 43.45)" gradientUnits="userSpaceOnUse" id="gradient15" spreadMethod="pad" x1="-819.2" x2="819.2">
      <stop offset="0.0" stop-color="#b0bfbf"/>
      <stop offset="1.0" stop-color="#90a5a5"/>
    </linearGradient>
    <radialGradient cx="0" cy="0" gradientTransform="matrix(0.0267, 0.0027, -2.0E-4, -0.0215, 9.4, 36.9)" gradientUnits="userSpaceOnUse" id="gradient16" r="819.2" spreadMethod="pad">
      <stop offset="0.0" stop-color="#ffffff"/>
      <stop offset="1.0" stop-color="#cbd5d5"/>
    </radialGradient>
    <linearGradient gradientTransform="matrix(0.0138, 0.0031, 0.0031, -0.0138, 10.35, 42.75)" gradientUnits="userSpaceOnUse" id="gradient17" spreadMethod="pad" x1="-819.2" x2="819.2">
      <stop offset="0.0" stop-color="#b0bfbf"/>
      <stop offset="1.0" stop-color="#90a5a5"/>
    </linearGradient>
    <radialGradient cx="0" cy="0" gradientTransform="matrix(0.0198, 1.0E-4, -0.0015, -0.02, 2.5, 26.0)" gradientUnits="userSpaceOnUse" id="gradient18" r="819.2" spreadMethod="pad">
      <stop offset="0.0" stop-color="#ffffff"/>
      <stop offset="1.0" stop-color="#cbd5d5"/>
    </radialGradient>
    <linearGradient gradientTransform="matrix(9.0E-4, 0.0, 0.0, -8.0E-4, 1.65, 29.8)" gradientUnits="userSpaceOnUse" id="gradient19" spreadMethod="pad" x1="-819.2" x2="819.2">
      <stop offset="0.0" stop-color="#b0bfbf"/>
      <stop offset="1.0" stop-color="#90a5a5"/>
    </linearGradient>
    <linearGradient gradientTransform="matrix(6.0E-4, 0.0, 0.0, -5.0E-4, -21.8, 26.3)" gradientUnits="userSpaceOnUse" id="gradient20" spreadMethod="pad" x1="-819.2" x2="819.2">
      <stop offset="0.0" stop-color="#b0bfbf"/>
      <stop offset="1.0" stop-color="#90a5a5"/>
    </linearGradient>
    <radialGradient cx="0" cy="0" gradientTransform="matrix(0.008, 0.0, -6.0E-4, -0.0081, -22.05, 25.9)" gradientUnits="userSpaceOnUse" id="gradient21" r="819.2" spreadMethod="pad">
      <stop offset="0.0" stop-color="#ffffff"/>
      <stop offset="1.0" stop-color="#cbd5d5"/>
    </radialGradient>
    <radialGradient cx="0" cy="0" gradientTransform="matrix(0.0072, 0.0, -5.0E-4, -0.0073, 11.65, 23.45)" gradientUnits="userSpaceOnUse" id="gradient22" r="819.2" spreadMethod="pad">
      <stop offset="0.0" stop-color="#ffffff"/>
      <stop offset="1.0" stop-color="#cbd5d5"/>
    </radialGradient>
    <linearGradient gradientTransform="matrix(0.0011, -1.0E-4, 0.0, -0.001, 11.15, 27.95)" gradientUnits="userSpaceOnUse" id="gradient23" spreadMethod="pad" x1="-819.2" x2="819.2">
      <stop offset="0.0" stop-color="#b0bfbf"/>
      <stop offset="1.0" stop-color="#90a5a5"/>
    </linearGradient>
    <radialGradient cx="0" cy="0" gradientTransform="matrix(0.0067, 0.0, -5.0E-4, -0.0068, 12.7, 21.8)" gradientUnits="userSpaceOnUse" id="gradient24" r="819.2" spreadMethod="pad">
      <stop offset="0.0" stop-color="#ffffff"/>
      <stop offset="1.0" stop-color="#cbd5d5"/>
    </radialGradient>
    <linearGradient gradientTransform="matrix(5.0E-4, 0.0, 0.0, -4.0E-4, 12.45, 24.5)" gradientUnits="userSpaceOnUse" id="gradient25" spreadMethod="pad" x1="-819.2" x2="819.2">
      <stop offset="0.0" stop-color="#b0bfbf"/>
      <stop offset="1.0" stop-color="#90a5a5"/>
    </linearGradient>
    <radialGradient cx="0" cy="0" gradientTransform="matrix(0.009, 0.0, -7.0E-4, -0.0091, 22.7, 22.9)" gradientUnits="userSpaceOnUse" id="gradient26" r="819.2" spreadMethod="pad">
      <stop offset="0.0" stop-color="#ffffff"/>
      <stop offset="1.0" stop-color="#cbd5d5"/>
    </radialGradient>
    <linearGradient gradientTransform="matrix(0.0014, -1.0E-4, 0.0, -0.0013, 22.75, 25.95)" gradientUnits="userSpaceOnUse" id="gradient27" spreadMethod="pad" x1="-819.2" x2="819.2">
      <stop offset="0.0" stop-color="#b0bfbf"/>
      <stop offset="1.0" stop-color="#90a5a5"/>
    </linearGradient>
  </defs>
</svg>
