<?xml version="1.0" encoding="UTF-8" standalone="no"?>
<svg xmlns:ffdec="https://www.free-decompiler.com/flash" xmlns:xlink="http://www.w3.org/1999/xlink" ffdec:objectType="shape" height="104.05px" width="54.9px" xmlns="http://www.w3.org/2000/svg">
  <g transform="matrix(1.0, 0.0, 0.0, 1.0, 26.35, 51.8)">
    <path d="M17.45 -18.15 Q19.05 5.15 19.8 12.95 21.1 27.4 21.25 37.5 L13.0 39.75 Q3.95 41.95 0.1 41.95 -3.75 41.95 -12.3 38.7 L-20.05 35.45 Q-20.35 -1.45 -20.05 -10.85 -19.85 -17.1 -18.5 -28.05 L-16.4 -42.45 Q-15.7 -46.35 -13.55 -49.05 -11.7 -51.4 -10.65 -51.0 -9.95 -50.75 -7.4 -51.05 L-3.9 -51.45 -0.35 -51.75 3.05 -51.45 6.5 -51.35 10.1 -51.0 Q15.05 -46.8 15.7 -41.9 L17.45 -18.15" fill="url(#gradient0)" fill-rule="evenodd" stroke="none"/>
    <path d="M20.95 37.6 L20.8 25.9 21.25 37.5 20.95 37.6 M-14.75 3.25 L-14.6 9.85 -14.6 24.3 Q-14.75 31.25 -14.25 37.95 L-15.2 37.55 -15.95 16.2 Q-15.95 12.25 -15.35 7.35 L-14.75 3.25 M-3.3 0.25 Q-3.25 14.45 -3.9 21.05 -4.5 27.7 -6.55 30.25 -7.55 31.55 -8.45 31.5 L-8.0 40.2 -9.2 39.8 -10.2 28.85 -10.85 19.45 -10.95 14.6 -10.45 21.4 Q-9.7 28.35 -8.6 29.3 -7.3 30.35 -6.05 24.9 -4.9 19.7 -4.3 11.05 -3.6 -0.1 -3.45 -12.6 L-3.3 0.25 M5.85 -6.75 L5.85 -17.3 Q7.45 27.8 7.75 32.25 L8.3 40.8 7.05 41.05 6.1 9.9 Q5.85 4.85 5.85 -6.75 M-18.5 -28.05 L-16.4 -42.45 Q-15.8 -45.85 -14.0 -48.45 -17.0 -28.85 -18.9 -10.6 -20.25 2.05 -18.4 3.45 -16.6 4.85 -15.05 -3.8 -13.15 -14.25 -12.25 -31.0 L-12.25 -13.55 Q-12.05 4.25 -10.95 6.2 -9.7 8.35 -8.3 0.0 -7.05 -7.3 -6.65 -15.55 -6.25 -24.95 -3.75 -46.0 -5.65 -14.95 -6.4 -9.1 -7.3 -1.3 -8.0 2.45 -9.25 9.45 -10.5 8.85 -11.7 8.3 -12.95 2.4 L-14.0 -3.35 Q-16.35 5.45 -17.7 5.9 -18.5 6.2 -19.15 5.1 L-19.6 4.0 -19.7 35.65 -20.05 35.45 Q-20.35 -1.45 -20.05 -10.85 -19.85 -17.1 -18.5 -28.05 M-9.15 -50.9 L-8.15 -50.95 -10.8 -41.0 -9.15 -50.9 M0.7 -51.0 L0.5 -51.8 1.7 -51.8 1.85 -27.45 1.6 -0.45 1.25 29.75 Q1.2 34.05 1.95 41.85 L0.1 41.95 -0.05 41.95 0.4 12.5 Q0.7 -27.75 0.85 -29.25 L0.7 -51.0 M15.4 -3.95 Q15.65 -12.95 14.5 -26.8 16.65 -6.75 16.25 -0.4 15.95 4.8 14.85 7.4 13.75 10.0 12.45 8.7 L13.45 28.4 Q13.75 33.7 14.65 39.3 L13.9 39.5 Q10.65 7.4 9.65 -5.4 8.9 -15.1 8.9 -28.5 8.15 -26.65 7.3 -25.6 5.65 -23.4 5.1 -27.2 4.6 -30.55 4.7 -37.1 4.85 -44.15 4.65 -46.0 L3.75 -51.2 4.2 -51.2 Q5.4 -47.25 5.55 -44.8 L5.6 -33.85 Q5.85 -26.35 7.3 -27.2 8.85 -28.05 9.0 -33.2 L8.75 -42.3 Q8.55 -46.1 7.2 -51.45 L7.6 -51.5 Q9.1 -45.9 9.8 -36.6 10.45 -27.7 10.75 -15.3 L11.25 2.4 Q11.6 9.8 13.4 6.85 15.15 3.9 15.4 -3.95 M17.1 -16.75 Q16.3 -28.8 15.7 -34.1 14.5 -43.95 10.9 -50.3 L13.35 -47.55 Q15.3 -43.7 15.9 -39.4 L18.75 -0.05 Q18.85 8.05 18.2 9.9 17.2 12.55 17.3 17.4 L17.6 25.45 Q17.6 31.65 17.9 38.45 L17.4 38.6 Q16.25 22.0 16.25 16.95 16.25 13.35 17.0 8.05 17.85 2.4 17.9 0.05 18.0 -3.7 17.1 -16.75" fill="url(#gradient1)" fill-rule="evenodd" stroke="none"/>
    <path d="M13.3 -21.05 L11.35 -25.0 10.6 -21.5 Q9.6 -18.05 8.3 -18.3 6.95 -18.55 5.9 -21.8 L5.15 -25.0 4.0 -21.45 Q2.55 -17.85 0.9 -17.5 -0.75 -17.1 -1.95 -19.85 L-2.85 -22.65 Q-4.6 -15.65 -5.6 -16.35 -6.2 -16.8 -6.9 -19.45 L-7.45 -22.05 Q-9.95 -16.75 -11.6 -16.55 -12.6 -16.4 -13.95 -20.15 L-15.15 -23.95 -15.85 -21.75 Q-16.8 -19.6 -17.9 -19.6 -19.35 -19.6 -19.6 -23.15 -19.9 -27.05 -18.0 -31.2 L-18.2 -27.45 Q-18.25 -23.65 -17.3 -23.45 -16.35 -23.25 -15.45 -25.95 L-14.75 -28.65 -13.75 -23.55 Q-12.35 -18.75 -10.4 -20.0 -8.45 -21.3 -7.7 -25.6 L-7.35 -29.65 -6.9 -25.0 Q-6.2 -20.4 -5.1 -20.75 -4.05 -21.05 -3.6 -25.1 L-3.4 -29.05 -1.9 -24.4 Q-0.1 -20.0 1.7 -21.15 3.5 -22.25 4.3 -27.0 L4.75 -31.5 5.85 -26.3 Q7.2 -21.1 8.6 -21.25 10.0 -21.35 10.55 -26.3 L10.85 -31.2 11.95 -26.7 Q13.3 -22.15 14.4 -21.85 15.45 -21.55 16.05 -26.2 L16.4 -30.95 17.0 -25.65 Q17.35 -20.05 16.4 -18.7 15.45 -17.35 13.3 -21.05" fill="#ffffff" fill-rule="evenodd" stroke="none"/>
    <path d="M3.0 6.75 Q4.15 6.95 5.15 0.7 L5.95 -5.6 7.6 -0.5 Q9.4 4.6 10.4 4.65 11.45 4.7 12.5 -0.95 L13.35 -6.6 Q15.9 1.7 16.9 1.7 17.95 1.7 18.35 -5.5 18.95 8.2 17.55 6.7 16.65 5.8 15.35 2.0 L14.2 -1.65 13.4 3.45 Q12.4 8.6 11.25 8.9 10.1 9.2 8.3 4.15 L6.75 -0.95 6.1 4.05 Q5.15 9.1 3.65 9.6 2.1 10.1 0.7 4.5 L-0.45 -1.25 -1.0 3.4 Q-1.85 8.2 -3.5 9.0 -5.1 9.8 -6.95 5.0 L-8.45 0.05 -9.5 4.7 Q-10.9 9.65 -12.5 10.85 -14.1 12.05 -15.4 7.3 L-16.35 2.3 -18.2 9.4 Q-18.65 11.25 -19.7 9.75 -20.75 8.15 -20.95 4.75 -21.05 1.75 -20.7 -1.15 L-20.3 -3.5 -20.2 1.35 Q-19.9 6.15 -18.8 5.85 -17.65 5.55 -16.85 1.4 L-16.25 -2.65 -15.85 2.5 Q-15.05 7.7 -13.2 7.8 -11.35 7.95 -9.55 1.55 L-8.15 -4.9 -7.0 0.5 Q-5.6 5.9 -4.3 5.75 -2.95 5.65 -1.7 0.05 L-0.75 -5.5 0.45 0.5 Q1.9 6.55 3.0 6.75" fill="#ffffff" fill-rule="evenodd" stroke="none"/>
    <path d="M-12.9 30.1 Q-11.5 29.4 -10.35 24.25 L-9.45 19.25 -8.0 25.3 Q-6.3 31.25 -5.0 30.95 -3.7 30.6 -1.75 24.15 L-0.05 17.75 1.05 24.35 Q2.4 30.9 3.95 30.5 5.45 30.15 6.5 25.25 L7.2 20.4 8.3 25.15 Q9.6 29.9 10.65 30.1 11.65 30.3 12.9 24.4 L13.95 18.45 15.45 23.75 Q17.15 29.1 18.05 29.45 18.95 29.85 19.75 24.1 L20.35 18.25 20.15 24.85 Q19.65 31.45 18.25 31.25 16.85 31.05 15.5 26.75 L14.4 22.5 13.65 26.8 Q12.55 31.35 11.1 32.6 9.6 33.85 8.35 29.15 L7.4 24.15 6.55 28.4 Q5.35 32.75 3.85 33.05 2.3 33.35 1.05 27.65 L0.1 21.9 -1.0 27.75 Q-2.55 33.6 -4.9 33.85 -7.25 34.1 -8.55 28.7 L-9.35 23.2 -10.4 27.7 Q-11.75 32.25 -13.0 32.75 -14.3 33.25 -15.45 28.8 L-16.35 24.25 Q-17.05 28.1 -18.7 29.1 -19.7 29.75 -20.0 25.3 L-20.1 20.7 Q-19.4 25.95 -18.5 26.05 -17.6 26.15 -16.35 21.5 L-15.45 26.25 Q-14.3 30.8 -12.9 30.1" fill="#ffffff" fill-rule="evenodd" stroke="none"/>
    <path d="M-13.5 -43.35 Q-13.15 -44.2 -13.3 -41.35 -13.5 -38.55 -13.85 -38.75 -14.15 -38.95 -13.85 -41.15 L-13.5 -43.35" fill="#ffffff" fill-rule="evenodd" stroke="none"/>
    <path d="M-11.6 -44.15 Q-10.8 -45.05 -11.2 -42.85 -11.65 -40.4 -11.9 -40.8 L-11.85 -42.6 -11.6 -44.15" fill="#ffffff" fill-rule="evenodd" stroke="none"/>
    <path d="M-6.4 -44.0 Q-5.6 -44.95 -6.05 -42.15 -6.6 -39.0 -6.75 -39.6 L-6.65 -42.0 -6.4 -44.0" fill="#ffffff" fill-rule="evenodd" stroke="none"/>
    <path d="M-8.15 -44.5 Q-7.45 -43.95 -8.55 -41.65 L-8.15 -44.5" fill="#ffffff" fill-rule="evenodd" stroke="none"/>
    <path d="M-1.75 -44.8 Q-1.4 -47.25 -1.2 -43.95 -1.05 -40.65 -1.55 -40.55 -2.0 -40.4 -1.9 -42.6 L-1.75 -44.8" fill="#ffffff" fill-rule="evenodd" stroke="none"/>
    <path d="M2.65 -45.1 Q2.85 -46.15 3.15 -43.05 3.35 -40.15 2.85 -40.45 2.4 -40.75 2.45 -42.95 L2.65 -45.1" fill="#ffffff" fill-rule="evenodd" stroke="none"/>
    <path d="M3.95 -46.35 Q4.4 -46.3 4.4 -43.85 4.4 -41.2 4.15 -42.2 4.0 -42.85 3.95 -44.65 L3.95 -46.35" fill="#ffffff" fill-rule="evenodd" stroke="none"/>
    <path d="M7.5 -44.05 Q7.65 -45.1 7.95 -42.6 8.25 -40.05 8.0 -40.0 7.7 -39.9 7.5 -44.05" fill="#ffffff" fill-rule="evenodd" stroke="none"/>
    <path d="M10.45 -44.75 Q10.55 -46.45 11.1 -43.4 11.65 -40.4 11.15 -40.8 10.7 -41.15 10.55 -42.9 L10.45 -44.75" fill="#ffffff" fill-rule="evenodd" stroke="none"/>
    <path d="M11.7 -46.1 Q11.9 -47.15 12.35 -45.1 12.8 -42.95 12.45 -42.9 12.25 -42.85 11.95 -44.5 L11.7 -46.1" fill="#ffffff" fill-rule="evenodd" stroke="none"/>
    <path d="M-15.3 30.6 L-15.2 30.15 Q-14.95 29.65 -14.25 29.7 -13.2 29.75 -12.8 31.15 L-12.25 30.85 -10.95 31.0 Q-10.0 31.7 -10.35 33.15 L-9.95 33.3 -8.85 34.35 Q-7.95 35.55 -8.85 36.75 L-8.3 37.3 Q-7.75 37.95 -7.85 38.55 -7.95 39.55 -10.0 40.1 L-9.5 40.5 Q-9.05 41.05 -9.2 41.65 -9.45 42.65 -11.3 42.75 L-10.8 43.55 Q-10.5 44.5 -11.45 45.2 -12.4 45.9 -13.7 45.5 L-14.8 44.9 Q-15.15 46.25 -16.8 46.65 -18.4 47.1 -20.4 45.1 -21.2 46.0 -22.8 45.6 -23.8 45.4 -24.0 44.35 L-24.0 43.4 -25.1 43.5 Q-26.2 43.4 -26.25 42.35 -26.35 41.3 -25.35 40.95 L-24.3 40.75 Q-25.85 40.65 -26.25 39.35 -26.55 38.5 -25.9 37.75 L-25.2 37.15 Q-26.1 36.4 -25.9 35.05 -25.75 34.2 -24.55 33.85 L-23.35 33.7 Q-23.85 33.3 -23.3 32.35 -22.9 31.75 -22.2 31.6 L-21.55 31.6 Q-22.25 30.9 -21.45 30.1 -20.9 29.65 -19.95 29.55 L-19.1 29.6 -18.4 29.15 Q-17.6 28.7 -17.0 28.75 -16.05 28.8 -15.3 30.6" fill="url(#gradient2)" fill-rule="evenodd" stroke="none"/>
    <path d="M-20.9 31.15 L-20.4 32.15 -21.6 31.5 Q-22.15 30.8 -21.45 30.1 L-20.85 29.75 -20.9 31.15 M-23.4 33.7 L-23.35 33.7 Q-23.85 33.3 -23.3 32.35 L-23.1 32.15 -22.5 33.2 Q-22.05 33.8 -21.95 34.25 -22.7 33.85 -23.4 33.7 M-8.95 34.65 Q-8.9 33.85 -10.15 33.25 L-11.4 32.8 Q-10.65 32.4 -10.45 31.6 -10.15 32.3 -10.35 33.15 L-9.95 33.3 -8.85 34.35 Q-7.95 35.55 -8.85 36.75 L-8.3 37.3 Q-7.75 37.95 -7.85 38.55 -7.95 39.55 -10.0 40.1 L-9.5 40.5 Q-9.05 41.05 -9.2 41.65 -9.45 42.65 -11.3 42.75 L-10.8 43.55 Q-10.5 44.5 -11.45 45.2 -12.4 45.9 -13.7 45.5 L-14.8 44.9 Q-15.15 46.25 -16.8 46.65 -18.4 47.1 -20.4 45.1 -21.2 46.0 -22.8 45.6 -23.8 45.4 -24.0 44.35 L-24.0 43.4 -25.1 43.5 Q-26.2 43.4 -26.25 42.35 -26.35 41.3 -25.35 40.95 L-24.3 40.75 Q-25.85 40.65 -26.25 39.35 -26.55 38.5 -25.9 37.75 L-25.2 37.15 Q-26.1 36.4 -25.9 35.05 L-25.35 34.2 Q-25.6 35.7 -24.85 36.1 L-22.9 36.3 Q-23.3 37.3 -24.25 37.4 -24.95 37.5 -25.2 38.2 -25.45 38.9 -24.95 39.4 -24.3 40.0 -22.25 39.15 -22.25 40.4 -23.3 40.5 -24.1 40.6 -24.25 41.3 -24.45 42.0 -23.65 42.25 -22.7 42.55 -22.2 41.9 L-22.5 42.95 Q-22.5 43.75 -21.5 43.85 -20.35 43.95 -19.9 43.25 L-19.7 42.5 -18.8 44.1 Q-17.7 45.5 -16.85 44.6 -15.95 43.75 -15.85 42.9 L-15.9 42.2 -14.95 43.15 Q-13.85 44.05 -12.9 43.5 -11.95 43.0 -12.65 42.1 L-13.5 41.3 Q-11.05 41.95 -10.8 40.85 -10.65 40.15 -11.15 39.75 L-11.7 39.45 Q-10.3 39.05 -9.3 38.2 -8.7 37.65 -9.7 36.95 L-10.8 36.35 Q-9.05 36.0 -8.95 34.65" fill="url(#gradient3)" fill-rule="evenodd" stroke="none"/>
    <path d="M-13.5 32.9 Q-14.35 32.15 -13.9 31.25 -13.5 30.45 -12.65 30.2 -12.1 30.0 -11.5 30.7 L-11.05 31.4 -10.8 30.45 Q-10.35 29.5 -9.3 29.6 -8.25 29.75 -7.95 30.85 L-7.85 31.9 -7.3 31.2 Q-6.5 30.5 -5.3 30.65 -4.15 30.85 -3.95 32.2 L-4.0 33.5 -2.95 33.1 Q-1.75 32.75 -0.9 33.3 0.0 33.85 -0.2 34.95 L-0.6 35.95 0.5 35.65 Q1.75 35.55 2.2 36.8 2.7 38.0 2.1 38.6 L1.35 38.95 2.25 40.15 Q3.05 41.55 2.4 42.65 1.35 44.4 0.15 44.25 L0.4 45.3 Q0.45 46.4 -0.6 46.5 -1.65 46.65 -2.4 45.9 L-2.95 45.1 -2.9 46.05 Q-3.15 47.05 -4.4 47.55 -5.6 48.0 -6.4 47.05 L-6.9 45.95 Q-7.65 47.25 -8.7 46.7 -9.35 46.35 -9.75 45.45 L-10.05 44.6 Q-10.2 45.25 -12.75 45.1 -14.35 45.0 -14.45 43.7 L-14.2 42.45 -15.2 43.15 Q-16.3 43.6 -16.55 42.25 -16.75 40.9 -16.15 40.15 L-15.5 39.7 -16.15 39.5 Q-16.85 39.05 -16.9 37.8 -16.95 36.6 -15.95 36.25 L-14.95 36.2 -15.4 33.85 Q-15.4 33.25 -14.45 33.0 L-13.5 32.9" fill="url(#gradient4)" fill-rule="evenodd" stroke="none"/>
    <path d="M-4.8 34.5 Q-4.3 32.3 -5.2 30.7 -4.1 30.9 -3.95 32.25 L-4.0 33.5 -2.95 33.1 Q-1.75 32.75 -0.9 33.3 -0.05 33.8 -0.2 34.85 L-0.6 35.9 -1.7 36.55 Q-0.7 35.75 -1.1 33.9 -1.45 32.6 -3.15 33.4 L-4.8 34.5 M-15.4 33.85 Q-15.4 33.45 -14.95 33.2 -15.2 34.05 -14.85 35.15 -14.5 36.25 -13.5 36.5 L-12.55 36.5 Q-13.55 37.1 -14.65 36.7 -15.45 36.4 -15.75 37.2 -16.1 37.95 -15.5 38.55 -14.75 39.35 -13.85 38.7 L-14.6 39.85 Q-15.25 41.1 -14.7 41.45 -13.75 41.95 -12.75 40.6 L-12.9 41.8 Q-12.8 43.05 -11.65 43.0 -10.5 42.95 -9.95 42.3 L-9.6 41.65 -9.2 43.0 Q-8.65 44.25 -7.65 43.9 -6.05 43.4 -6.05 42.35 L-5.25 43.55 Q-4.35 44.65 -3.7 44.15 -3.05 43.65 -3.25 42.45 L-3.55 41.35 -2.65 42.05 -1.05 41.95 Q-0.25 41.0 -1.6 39.8 L0.4 39.75 Q0.65 38.8 -0.1 37.95 L-0.9 37.25 0.6 37.6 Q2.1 37.75 2.2 36.8 2.7 38.0 2.1 38.6 L1.35 38.95 2.25 40.15 Q3.05 41.55 2.4 42.65 1.35 44.4 0.15 44.25 L0.4 45.3 Q0.45 46.4 -0.6 46.5 -1.65 46.65 -2.4 45.9 L-2.95 45.1 -2.9 46.05 Q-3.15 47.05 -4.4 47.55 -5.6 48.0 -6.4 47.05 L-6.9 45.95 Q-7.65 47.25 -8.7 46.7 -9.35 46.35 -9.75 45.45 L-10.05 44.6 Q-10.2 45.25 -12.75 45.1 -14.35 45.0 -14.45 43.7 L-14.2 42.45 -15.2 43.15 Q-16.3 43.6 -16.55 42.25 -16.75 40.9 -16.15 40.15 L-15.5 39.7 -16.15 39.5 Q-16.85 39.05 -16.9 37.8 -16.95 36.6 -15.95 36.25 L-14.95 36.2 -15.4 33.85" fill="url(#gradient5)" fill-rule="evenodd" stroke="none"/>
    <path d="M4.85 33.15 Q4.8 31.9 5.9 31.75 7.0 31.6 7.6 32.05 L7.95 32.55 8.6 31.8 Q9.4 31.05 10.0 31.35 10.9 31.8 11.25 33.5 L12.05 33.2 Q13.0 32.95 13.6 33.5 14.6 34.3 14.6 35.4 L15.65 35.45 Q16.85 35.65 17.5 36.35 18.55 37.5 17.9 38.55 L18.35 39.25 Q18.75 40.05 18.75 40.85 18.75 42.15 17.7 42.55 L18.15 43.35 Q18.55 44.35 18.35 45.4 18.15 46.4 17.1 46.9 L16.1 47.15 15.9 48.1 Q15.6 49.1 14.95 49.65 13.95 50.5 11.35 48.9 10.25 50.35 8.7 50.05 7.75 49.85 7.1 49.0 L6.65 48.15 Q5.55 49.7 4.5 49.55 3.85 49.45 3.65 48.45 L3.55 47.5 2.6 47.6 Q1.6 47.45 1.25 46.3 0.95 45.15 1.6 44.25 L2.35 43.55 1.25 43.35 Q0.1 42.95 0.15 41.85 0.2 40.75 1.5 40.35 L2.8 40.2 2.2 39.85 Q1.6 39.25 1.45 38.05 1.3 36.85 2.05 36.35 L2.8 36.1 Q1.9 35.75 2.6 34.7 3.05 34.05 4.15 34.15 L5.15 34.35 4.85 33.15" fill="url(#gradient6)" fill-rule="evenodd" stroke="none"/>
    <path d="M1.25 46.3 Q0.95 45.15 1.6 44.25 L2.35 43.55 1.25 43.35 Q0.1 42.95 0.15 41.85 0.2 40.75 1.5 40.35 L2.8 40.2 2.2 39.85 Q1.6 39.25 1.45 38.05 1.3 37.25 1.65 36.75 1.65 38.75 2.8 39.15 L5.55 39.3 Q3.8 40.35 3.45 40.35 2.95 40.35 2.35 40.7 1.55 41.15 1.7 41.9 1.95 43.05 4.45 42.85 L3.2 43.7 Q2.05 44.7 2.6 45.65 3.15 46.6 4.3 46.05 L5.4 45.3 5.45 46.15 Q5.65 46.95 6.55 46.8 8.0 46.6 7.95 44.95 8.95 47.45 10.15 46.95 11.35 46.4 11.65 44.75 L12.2 45.8 Q12.9 46.8 13.95 46.5 15.0 46.15 15.1 44.7 L15.0 43.35 15.85 43.7 Q16.75 43.85 17.05 42.9 17.4 41.55 14.75 41.15 L16.45 41.2 Q17.85 41.05 17.95 40.3 18.05 39.55 16.5 38.85 L14.95 38.25 16.3 37.85 Q17.55 37.35 17.1 36.55 16.6 35.65 14.95 35.7 13.4 35.75 12.85 36.45 12.25 37.25 12.5 38.25 L12.25 36.95 Q12.1 35.6 12.85 35.15 14.0 34.5 13.75 33.6 14.6 34.4 14.6 35.4 L15.65 35.45 Q16.85 35.65 17.5 36.35 18.55 37.5 17.9 38.55 L18.35 39.25 Q18.75 40.05 18.75 40.85 18.75 42.15 17.7 42.55 L18.15 43.35 Q18.55 44.35 18.35 45.4 18.15 46.4 17.1 46.9 L16.1 47.15 15.9 48.1 Q15.6 49.1 14.95 49.65 13.95 50.5 11.35 48.9 10.25 50.35 8.7 50.05 7.75 49.85 7.1 49.0 L6.65 48.15 Q5.55 49.7 4.5 49.55 3.85 49.45 3.65 48.45 L3.55 47.5 2.6 47.6 Q1.6 47.45 1.25 46.3 M11.25 33.5 L12.1 33.15 Q10.35 34.0 10.2 35.55 L10.5 35.75 Q10.8 36.05 10.75 36.5 10.7 36.75 10.1 36.3 9.2 35.7 8.05 36.0 6.85 36.4 7.7 35.75 L8.8 35.0 Q10.45 33.55 10.2 32.0 10.15 31.5 9.9 31.35 L10.0 31.35 Q10.9 31.8 11.25 33.5 M3.6 34.15 L5.15 34.35 5.1 34.35 5.9 34.8 3.6 34.15 M5.25 31.95 L5.9 31.75 Q7.0 31.6 7.6 32.05 L7.95 32.55 8.0 32.5 7.7 33.65 Q6.45 32.2 5.25 31.95" fill="url(#gradient7)" fill-rule="evenodd" stroke="none"/>
    <path d="M-17.25 31.8 Q-16.35 31.1 -15.6 31.5 -14.65 32.0 -15.2 33.4 L-14.5 33.7 Q-13.9 34.15 -14.15 35.1 -14.4 36.05 -15.1 35.75 L-15.8 35.25 Q-17.3 36.85 -17.9 36.1 -18.3 35.65 -18.2 34.9 L-18.05 34.25 Q-19.55 34.5 -19.1 33.65 -18.8 33.1 -18.35 33.2 -18.15 33.25 -18.0 33.4 -18.15 32.45 -17.25 31.8" fill="url(#gradient8)" fill-rule="evenodd" stroke="none"/>
    <path d="M-15.2 33.4 L-14.5 33.7 Q-13.9 34.15 -14.15 35.1 -14.4 36.05 -15.1 35.75 L-15.8 35.25 Q-17.3 36.85 -17.9 36.1 -18.3 35.65 -18.2 34.9 L-18.05 34.25 Q-19.55 34.5 -19.1 33.65 L-18.75 33.3 Q-19.1 34.2 -18.35 34.05 -17.6 33.9 -17.1 33.4 -17.6 34.25 -17.4 34.75 -17.15 35.25 -16.2 34.1 -15.25 35.15 -14.55 34.4 -14.15 33.95 -14.95 33.65 L-15.85 33.5 Q-15.35 32.7 -15.25 31.8 -14.8 32.45 -15.2 33.4" fill="url(#gradient9)" fill-rule="evenodd" stroke="none"/>
    <path d="M11.65 29.15 Q11.5 28.2 12.4 27.55 13.3 26.85 14.05 27.25 15.0 27.8 14.45 29.15 L15.1 29.45 Q15.75 29.9 15.45 30.85 15.2 31.8 14.5 31.5 L13.85 31.0 Q12.35 32.65 11.7 31.9 11.35 31.45 11.45 30.7 L11.6 30.05 Q10.1 30.25 10.55 29.4 10.85 28.85 11.3 28.95 L11.65 29.15" fill="url(#gradient10)" fill-rule="evenodd" stroke="none"/>
    <path d="M11.7 31.9 Q11.35 31.45 11.45 30.7 L11.6 30.05 Q10.1 30.25 10.55 29.4 L10.85 29.05 Q10.65 29.95 11.3 29.8 12.15 29.7 12.55 29.15 12.0 30.05 12.25 30.5 12.45 31.0 13.45 29.85 14.4 30.9 15.05 30.15 15.5 29.7 14.7 29.45 L13.8 29.3 Q14.3 28.45 14.4 27.6 14.85 28.2 14.45 29.15 L15.1 29.45 Q15.75 29.9 15.45 30.85 15.2 31.8 14.5 31.5 L13.85 31.0 Q12.35 32.65 11.7 31.9" fill="url(#gradient11)" fill-rule="evenodd" stroke="none"/>
    <path d="M-22.5 47.7 L-21.85 47.7 Q-21.2 47.8 -21.25 48.45 -21.4 49.55 -22.75 49.1 -22.85 50.05 -23.7 50.2 -24.5 50.3 -24.35 48.85 -25.0 48.65 -25.0 47.7 -25.05 47.1 -24.55 47.0 L-24.05 47.05 Q-23.8 46.5 -22.9 46.25 -21.95 45.95 -22.5 47.7" fill="url(#gradient12)" fill-rule="evenodd" stroke="none"/>
    <path d="M-21.25 48.45 Q-21.4 49.55 -22.75 49.1 -22.85 50.05 -23.7 50.2 -24.5 50.3 -24.35 48.85 -25.0 48.65 -25.0 47.7 L-24.85 47.15 Q-24.85 48.3 -24.25 48.35 -23.45 48.4 -23.35 47.65 -23.2 48.8 -23.65 49.15 -24.05 49.45 -23.5 49.4 -23.05 49.35 -22.95 48.9 -22.85 48.6 -22.2 48.6 -21.55 48.6 -21.55 48.25 -21.5 47.9 -22.25 47.95 L-22.95 48.05 Q-22.7 47.05 -22.85 46.25 -22.0 46.0 -22.5 47.7 L-21.85 47.7 Q-21.2 47.8 -21.25 48.45" fill="url(#gradient13)" fill-rule="evenodd" stroke="none"/>
    <path d="M10.65 47.4 Q11.2 47.2 11.15 48.05 L11.0 48.9 11.7 48.85 Q12.35 48.95 12.25 49.6 12.1 50.7 10.75 50.25 10.65 51.2 9.85 51.35 9.3 51.4 9.2 50.7 L9.2 50.0 Q8.55 49.8 8.5 48.85 8.45 48.25 8.95 48.15 L9.45 48.2 9.7 47.9 Q10.05 47.6 10.65 47.4" fill="url(#gradient14)" fill-rule="evenodd" stroke="none"/>
    <path d="M10.6 50.05 Q10.7 49.75 11.3 49.75 11.95 49.75 11.95 49.45 12.0 49.05 11.3 49.1 L10.6 49.2 10.65 47.4 Q11.55 47.15 11.0 48.9 L11.7 48.85 Q12.35 48.95 12.25 49.6 12.1 50.7 10.75 50.25 10.65 51.2 9.85 51.35 9.3 51.4 9.2 50.7 L9.2 50.0 Q8.55 49.8 8.5 48.85 8.5 48.45 8.65 48.3 8.75 49.45 9.25 49.5 10.05 49.55 10.15 48.8 10.35 49.95 9.9 50.3 9.45 50.6 10.0 50.55 L10.6 50.05" fill="url(#gradient15)" fill-rule="evenodd" stroke="none"/>
    <path d="M-13.65 26.7 L-13.2 26.7 Q-12.75 26.8 -12.8 27.35 -12.85 27.95 -13.25 27.9 L-13.9 27.4 Q-14.1 27.1 -13.9 26.85 L-13.65 26.7" fill="url(#gradient16)" fill-rule="evenodd" stroke="none"/>
    <path d="M-9.45 43.55 Q-9.05 42.6 -8.05 42.8 -7.55 42.9 -7.15 43.15 -8.35 41.75 -8.1 41.3 -7.95 41.0 -7.5 41.0 L-7.1 41.0 -7.55 40.45 Q-7.95 39.8 -7.45 39.55 -6.95 39.3 -6.45 39.55 L-6.05 39.85 -5.75 38.6 Q-5.25 37.35 -4.3 37.2 -3.35 37.05 -2.4 38.2 L-1.65 39.4 -1.15 38.6 Q-0.45 37.9 0.4 38.25 1.75 38.75 1.5 39.85 L2.1 39.5 Q2.75 39.35 3.0 40.2 3.45 41.5 2.6 42.55 L3.15 43.05 Q3.7 43.7 3.7 44.55 3.7 45.95 2.8 46.2 L3.3 46.5 Q3.7 46.9 3.3 47.5 L2.25 47.45 Q2.4 49.25 1.25 49.55 0.55 49.75 -0.1 49.0 L-0.6 48.2 Q-0.5 49.3 -1.2 49.5 -1.85 49.65 -2.45 48.3 -2.35 49.5 -3.8 50.1 -4.7 50.5 -5.9 49.6 L-6.9 48.65 Q-7.65 49.75 -8.5 48.85 -9.05 48.3 -9.05 47.3 L-8.95 46.4 Q-10.0 45.05 -9.45 43.55" fill="url(#gradient17)" fill-rule="evenodd" stroke="none"/>
    <path d="M-6.65 43.25 L-7.2 43.15 Q-8.25 41.85 -8.1 41.35 -7.9 42.0 -7.15 42.5 L-6.65 43.25 M-7.6 39.65 L-6.8 40.45 Q-6.4 40.75 -6.55 40.95 L-7.2 41.0 -7.1 41.0 Q-8.15 40.1 -7.6 39.65 M-6.05 39.85 L-6.0 39.55 -5.75 40.45 -6.6 39.5 Q-6.25 39.6 -6.05 39.85 M0.2 38.25 L0.1 38.15 0.4 38.25 Q1.15 38.55 1.4 39.1 L1.5 39.8 0.95 41.15 Q0.8 38.9 0.2 38.25 M-1.75 40.0 Q-1.7 40.45 -2.2 40.15 -2.8 39.85 -3.25 38.6 -3.55 37.9 -4.15 37.15 -2.7 37.1 -1.65 39.4 L-1.75 40.0 M-8.95 46.4 Q-10.0 45.05 -9.45 43.55 L-8.95 42.9 Q-8.85 44.75 -8.4 44.85 L-7.2 44.7 Q-7.25 45.65 -7.85 45.7 -8.3 45.75 -8.5 46.55 -8.65 47.4 -8.15 47.7 -7.45 48.2 -6.95 46.6 L-6.3 47.85 Q-5.4 49.1 -4.35 48.9 -3.3 48.75 -3.25 47.35 L-3.45 46.0 -3.15 46.3 -2.7 47.15 -1.95 48.1 Q-1.3 48.55 -1.15 47.85 L-0.55 46.15 Q-0.05 48.2 0.9 47.9 1.85 47.55 1.2 45.9 1.8 46.8 2.4 46.55 3.0 46.25 1.35 45.2 2.7 45.05 2.75 43.9 2.8 43.2 1.9 43.0 L1.0 42.95 Q2.65 42.3 2.85 41.1 L2.9 39.85 3.0 40.2 Q3.45 41.5 2.6 42.55 L3.15 43.05 Q3.7 43.7 3.7 44.55 3.7 45.95 2.8 46.2 L3.3 46.5 Q3.7 46.9 3.3 47.5 L2.25 47.45 Q2.4 49.25 1.25 49.55 0.55 49.75 -0.1 49.0 L-0.6 48.2 Q-0.5 49.3 -1.2 49.5 -1.85 49.65 -2.45 48.3 -2.35 49.5 -3.8 50.1 -4.7 50.5 -5.9 49.6 L-6.9 48.65 Q-7.65 49.75 -8.5 48.85 -9.05 48.3 -9.05 47.3 L-8.95 46.4" fill="url(#gradient18)" fill-rule="evenodd" stroke="none"/>
    <path d="M23.7 27.9 Q25.05 28.4 24.8 29.5 L25.4 29.15 Q26.05 29.0 26.3 29.85 26.75 31.15 25.9 32.2 L26.45 32.7 Q27.0 33.35 27.0 34.2 27.0 35.6 26.1 35.85 L26.6 36.15 Q27.0 36.55 26.6 37.15 L25.55 37.1 Q25.7 38.9 24.55 39.2 23.85 39.4 23.2 38.65 L22.7 37.85 Q22.8 38.95 22.1 39.15 21.45 39.3 20.85 37.95 20.9 39.15 19.5 39.75 18.6 40.15 17.4 39.25 L16.35 38.3 Q15.65 39.4 14.75 38.5 14.2 37.95 14.25 36.95 L14.35 36.05 Q13.3 34.7 13.85 33.2 14.25 32.25 15.2 32.45 15.7 32.55 16.1 32.8 14.95 31.4 15.2 30.95 15.35 30.65 15.8 30.6 L16.2 30.65 15.7 30.1 Q15.3 29.45 15.85 29.2 16.35 28.95 16.85 29.2 L17.25 29.5 17.55 28.25 Q18.05 26.95 19.0 26.8 19.95 26.7 20.85 27.85 L21.6 29.05 22.15 28.25 Q22.85 27.55 23.7 27.9" fill="url(#gradient19)" fill-rule="evenodd" stroke="none"/>
    <path d="M16.65 32.9 L16.1 32.8 Q15.05 31.5 15.2 31.0 15.4 31.65 16.15 32.15 L16.65 32.9 M16.1 30.65 L16.2 30.65 Q15.15 29.75 15.7 29.3 L16.5 30.1 Q16.9 30.4 16.75 30.6 L16.1 30.65 M17.25 29.5 L17.3 29.2 17.55 30.1 16.7 29.15 17.25 29.5 M20.05 28.25 Q19.75 27.45 19.1 26.8 20.05 26.75 20.9 27.9 L21.6 29.05 21.65 28.95 21.55 29.65 Q21.6 30.1 21.1 29.8 20.5 29.5 20.05 28.25 M26.2 29.5 L26.3 29.85 Q26.75 31.15 25.9 32.2 L26.45 32.7 Q27.0 33.35 27.0 34.2 27.0 35.6 26.1 35.85 L26.6 36.15 Q27.0 36.55 26.6 37.15 L25.55 37.1 Q25.7 38.9 24.55 39.2 23.85 39.4 23.2 38.65 L22.7 37.85 Q22.8 38.95 22.1 39.15 21.45 39.3 20.85 37.95 20.9 39.15 19.5 39.75 18.6 40.15 17.4 39.25 L16.35 38.3 Q15.65 39.4 14.75 38.5 14.2 37.95 14.25 36.95 L14.35 36.05 Q13.3 34.7 13.85 33.2 L14.35 32.55 Q14.45 34.4 14.85 34.5 L16.1 34.35 Q16.05 35.3 15.45 35.35 15.0 35.4 14.8 36.2 14.65 37.05 15.15 37.35 15.85 37.85 16.35 36.25 L17.0 37.5 Q17.9 38.75 18.95 38.55 20.0 38.4 20.05 37.0 L19.85 35.65 20.15 35.95 20.6 36.8 Q20.8 37.4 21.35 37.75 22.0 38.2 22.15 37.5 L22.75 35.8 Q23.2 37.85 24.2 37.55 25.15 37.2 24.5 35.55 25.1 36.45 25.7 36.2 26.3 35.9 24.65 34.85 26.0 34.7 26.05 33.55 26.1 32.85 25.15 32.65 L24.25 32.6 Q25.95 31.95 26.1 30.75 L26.2 29.5 M23.4 27.8 L23.7 27.9 Q24.8 28.3 24.8 29.45 24.35 30.35 24.25 30.8 24.05 28.55 23.5 27.9 L23.4 27.8" fill="url(#gradient20)" fill-rule="evenodd" stroke="none"/>
    <path d="M-18.3 45.2 Q-19.5 43.8 -19.25 43.35 L-18.65 43.0 -18.25 43.05 -18.7 42.5 Q-19.1 41.85 -18.6 41.6 L-17.55 41.55 -17.15 41.85 -16.85 40.6 Q-16.4 39.35 -15.45 39.2 -14.5 39.1 -13.55 40.25 L-12.8 41.45 -12.3 40.65 Q-11.6 39.95 -10.75 40.3 -9.4 40.8 -9.65 41.9 L-9.05 41.55 Q-8.4 41.4 -8.1 42.2 -7.65 43.55 -8.55 44.6 L-7.95 45.05 Q-7.4 45.7 -7.4 46.55 -7.4 48.0 -8.35 48.2 L-7.85 48.5 Q-7.45 48.9 -7.85 49.5 -8.45 50.45 -8.85 49.5 -8.75 51.3 -9.85 51.6 -10.55 51.8 -11.25 51.05 L-11.75 50.25 Q-11.65 51.35 -12.3 51.55 -12.75 51.65 -13.2 51.0 L-13.55 50.35 Q-13.5 51.55 -14.95 52.15 -15.85 52.55 -17.05 51.65 L-18.05 50.7 Q-18.75 51.8 -19.65 50.9 -20.2 50.35 -20.2 49.35 L-20.1 48.45 Q-21.15 47.1 -20.55 45.6 -20.2 44.65 -19.2 44.85 -18.7 44.95 -18.3 45.2" fill="url(#gradient21)" fill-rule="evenodd" stroke="none"/>
    <path d="M-17.15 41.85 L-17.15 41.6 -16.9 42.5 -17.7 41.5 -17.15 41.85 M-15.3 39.2 Q-14.4 39.15 -13.5 40.3 L-12.8 41.45 -12.75 41.35 -12.85 42.05 Q-12.8 42.5 -13.35 42.2 -13.95 41.9 -14.4 40.65 -14.75 39.75 -15.3 39.2 M-10.95 40.3 L-11.05 40.2 -10.75 40.3 Q-10.0 40.6 -9.75 41.15 -9.55 41.55 -9.65 41.85 L-10.15 43.2 Q-10.35 40.95 -10.95 40.3 M-20.55 45.6 L-20.1 44.95 Q-20.0 46.8 -19.55 46.9 L-18.35 46.75 Q-18.35 47.7 -18.95 47.75 -19.45 47.8 -19.6 48.6 -19.8 49.45 -19.25 49.75 -18.55 50.25 -18.1 48.65 L-17.45 49.9 Q-16.55 51.15 -15.5 50.95 -14.4 50.75 -14.35 49.35 L-14.55 48.0 -14.25 48.35 -13.8 49.2 -13.1 50.15 Q-12.45 50.6 -12.3 49.9 L-11.7 48.15 Q-11.2 50.25 -10.25 49.9 -9.25 49.55 -9.95 47.95 -9.35 48.85 -8.75 48.55 -8.15 48.3 -9.8 47.25 -8.4 47.05 -8.4 45.9 -8.35 45.2 -9.25 45.0 L-10.15 44.95 Q-8.5 44.35 -8.3 43.15 L-8.25 41.9 -8.1 42.2 Q-7.65 43.55 -8.55 44.6 L-7.95 45.05 Q-7.4 45.7 -7.4 46.55 -7.4 48.0 -8.35 48.2 L-7.85 48.5 Q-7.45 48.9 -7.85 49.5 -8.45 50.45 -8.85 49.5 -8.75 51.3 -9.85 51.6 -10.55 51.8 -11.25 51.05 L-11.75 50.25 Q-11.65 51.35 -12.3 51.55 -12.75 51.65 -13.2 51.0 L-13.55 50.35 Q-13.5 51.55 -14.95 52.15 -15.85 52.55 -17.05 51.65 L-18.05 50.7 Q-18.75 51.8 -19.65 50.9 -20.2 50.35 -20.2 49.35 L-20.1 48.45 Q-21.15 47.1 -20.55 45.6 M-18.3 45.2 Q-19.4 43.9 -19.25 43.4 -19.05 44.1 -18.25 44.55 L-17.75 45.3 -18.3 45.2 M-18.25 43.05 Q-19.25 42.1 -18.7 41.65 L-17.9 42.5 Q-17.55 42.75 -17.7 42.95 L-18.35 43.05 -18.25 43.05" fill="url(#gradient22)" fill-rule="evenodd" stroke="none"/>
    <path d="M20.55 37.2 Q21.5 37.05 22.4 38.2 L23.15 39.4 23.65 38.6 Q24.35 37.9 25.2 38.25 26.6 38.75 26.35 39.85 L26.95 39.5 Q27.55 39.35 27.85 40.2 28.3 41.5 27.45 42.55 L28.0 43.05 Q28.55 43.7 28.55 44.55 28.55 45.95 27.6 46.2 L28.1 46.5 Q28.55 46.9 28.15 47.5 L27.1 47.45 Q27.25 49.25 26.1 49.55 25.4 49.75 24.75 49.0 L24.25 48.2 Q24.35 49.3 23.65 49.5 23.0 49.65 22.4 48.3 22.45 49.5 21.05 50.1 20.15 50.5 18.95 49.6 L17.9 48.65 Q17.2 49.75 16.3 48.85 15.75 48.3 15.8 47.3 L15.9 46.4 Q14.8 45.05 15.4 43.55 15.75 42.6 16.75 42.8 L17.65 43.15 Q16.5 41.75 16.75 41.3 16.9 41.0 17.35 41.0 L17.75 41.0 17.25 40.45 Q16.85 39.8 17.4 39.55 17.9 39.3 18.4 39.55 L18.8 39.85 19.1 38.6 Q19.6 37.35 20.55 37.2" fill="url(#gradient23)" fill-rule="evenodd" stroke="none"/>
    <path d="M25.05 38.25 L24.95 38.15 25.2 38.25 Q26.35 38.65 26.35 39.8 25.9 40.7 25.8 41.15 25.6 38.9 25.05 38.25 M18.2 43.25 L17.65 43.15 Q16.55 41.85 16.75 41.35 16.95 42.0 17.7 42.5 L18.2 43.25 M17.65 41.0 L17.75 41.0 Q16.7 40.1 17.25 39.65 L18.05 40.45 Q18.4 40.75 18.25 40.95 L17.65 41.0 M15.9 46.4 Q14.8 45.05 15.4 43.55 L15.9 42.9 Q16.0 44.75 16.4 44.85 L17.65 44.7 Q17.6 45.65 17.0 45.7 16.55 45.75 16.35 46.55 16.2 47.4 16.7 47.7 17.4 48.2 17.9 46.6 L18.55 47.85 Q19.4 49.1 20.5 48.9 21.55 48.75 21.6 47.35 L21.4 46.0 21.7 46.3 22.15 47.15 Q22.35 47.75 22.9 48.1 23.55 48.55 23.7 47.85 L24.25 46.15 Q24.75 48.2 25.75 47.9 26.7 47.55 26.0 45.9 26.6 46.8 27.25 46.55 27.85 46.25 26.2 45.2 27.55 45.05 27.6 43.9 27.65 43.2 26.7 43.0 L25.8 42.95 Q27.45 42.3 27.65 41.1 L27.7 39.85 27.85 40.2 Q28.3 41.5 27.45 42.55 L28.0 43.05 Q28.55 43.7 28.55 44.55 28.55 45.95 27.6 46.2 L28.1 46.5 Q28.55 46.9 28.15 47.5 L27.1 47.45 Q27.25 49.25 26.1 49.55 25.4 49.75 24.75 49.0 L24.25 48.2 Q24.35 49.3 23.65 49.5 23.0 49.65 22.4 48.3 22.45 49.5 21.05 50.1 20.15 50.5 18.95 49.6 L17.9 48.65 Q17.2 49.75 16.3 48.85 15.75 48.3 15.8 47.3 L15.9 46.4 M18.85 39.55 L19.1 40.45 18.25 39.5 Q18.6 39.6 18.8 39.85 L18.85 39.55 M20.65 37.15 Q21.6 37.1 22.45 38.25 L23.15 39.4 23.2 39.3 23.1 40.0 Q23.15 40.45 22.6 40.15 22.0 39.85 21.55 38.6 21.3 37.8 20.65 37.15" fill="url(#gradient24)" fill-rule="evenodd" stroke="none"/>
    <path d="M-3.8 49.1 L-3.15 49.1 Q-2.5 49.2 -2.55 49.85 -2.7 50.9 -4.05 50.5 -4.15 51.45 -5.0 51.55 -5.5 51.65 -5.6 50.95 L-5.65 50.25 Q-6.3 50.05 -6.3 49.05 -6.35 48.45 -5.85 48.35 L-5.35 48.4 -5.1 48.1 Q-4.75 47.8 -4.2 47.65 -3.25 47.35 -3.8 49.1" fill="url(#gradient25)" fill-rule="evenodd" stroke="none"/>
    <path d="M-3.5 50.0 Q-2.85 50.0 -2.85 49.65 -2.8 49.3 -3.55 49.35 L-4.25 49.45 Q-4.0 48.45 -4.15 47.65 -3.3 47.4 -3.8 49.1 L-3.15 49.1 Q-2.5 49.2 -2.55 49.85 -2.7 50.9 -4.05 50.5 -4.15 51.45 -5.0 51.55 -5.5 51.65 -5.6 50.95 L-5.65 50.25 Q-6.3 50.05 -6.3 49.05 L-6.15 48.55 Q-6.15 49.7 -5.55 49.7 -4.75 49.8 -4.65 49.05 -4.45 50.2 -4.95 50.55 -5.35 50.85 -4.8 50.8 -4.35 50.75 -4.25 50.3 -4.15 50.0 -3.5 50.0" fill="url(#gradient26)" fill-rule="evenodd" stroke="none"/>
  </g>
  <defs>
    <linearGradient gradientTransform="matrix(0.0253, 0.0, 0.0, -0.0253, 0.55, -4.95)" gradientUnits="userSpaceOnUse" id="gradient0" spreadMethod="pad" x1="-819.2" x2="819.2">
      <stop offset="0.0" stop-color="#8aecc9"/>
      <stop offset="0.5294117647058824" stop-color="#5ce5ba"/>
      <stop offset="1.0" stop-color="#8aecc9"/>
    </linearGradient>
    <linearGradient gradientTransform="matrix(0.0253, 0.0, 0.0, -0.0253, 0.55, -4.95)" gradientUnits="userSpaceOnUse" id="gradient1" spreadMethod="pad" x1="-819.2" x2="819.2">
      <stop offset="0.0" stop-color="#5ce5ba"/>
      <stop offset="0.5294117647058824" stop-color="#10989a"/>
      <stop offset="1.0" stop-color="#5ce5ba"/>
    </linearGradient>
    <radialGradient cx="0" cy="0" gradientTransform="matrix(0.0119, 0.0, 0.0, -0.0105, -17.1, 37.75)" gradientUnits="userSpaceOnUse" id="gradient2" r="819.2" spreadMethod="pad">
      <stop offset="0.0" stop-color="#ffffff"/>
      <stop offset="1.0" stop-color="#cbd5d5"/>
    </radialGradient>
    <linearGradient gradientTransform="matrix(0.0113, 0.0, 0.0, -0.0113, -17.1, 38.25)" gradientUnits="userSpaceOnUse" id="gradient3" spreadMethod="pad" x1="-819.2" x2="819.2">
      <stop offset="0.0" stop-color="#b0bfbf"/>
      <stop offset="1.0" stop-color="#90a5a5"/>
    </linearGradient>
    <radialGradient cx="0" cy="0" gradientTransform="matrix(0.0115, 0.0, 0.0, -0.0115, -7.1, 38.65)" gradientUnits="userSpaceOnUse" id="gradient4" r="819.2" spreadMethod="pad">
      <stop offset="0.0" stop-color="#ffffff"/>
      <stop offset="1.0" stop-color="#cbd5d5"/>
    </radialGradient>
    <linearGradient gradientTransform="matrix(0.012, 0.0, 0.0, -0.012, -7.1, 39.2)" gradientUnits="userSpaceOnUse" id="gradient5" spreadMethod="pad" x1="-819.2" x2="819.2">
      <stop offset="0.0" stop-color="#b0bfbf"/>
      <stop offset="1.0" stop-color="#90a5a5"/>
    </linearGradient>
    <radialGradient cx="0" cy="0" gradientTransform="matrix(0.0114, 0.0, 0.0, -0.0114, 9.45, 40.7)" gradientUnits="userSpaceOnUse" id="gradient6" r="819.2" spreadMethod="pad">
      <stop offset="0.0" stop-color="#ffffff"/>
      <stop offset="1.0" stop-color="#cbd5d5"/>
    </radialGradient>
    <linearGradient gradientTransform="matrix(0.0114, 0.0, 0.0, -0.0114, 9.45, 40.7)" gradientUnits="userSpaceOnUse" id="gradient7" spreadMethod="pad" x1="-819.2" x2="819.2">
      <stop offset="0.0" stop-color="#b0bfbf"/>
      <stop offset="1.0" stop-color="#90a5a5"/>
    </linearGradient>
    <radialGradient cx="0" cy="0" gradientTransform="matrix(0.0031, 0.0, 0.0, -0.0031, -16.65, 33.85)" gradientUnits="userSpaceOnUse" id="gradient8" r="819.2" spreadMethod="pad">
      <stop offset="0.0" stop-color="#ffffff"/>
      <stop offset="1.0" stop-color="#cbd5d5"/>
    </radialGradient>
    <linearGradient gradientTransform="matrix(0.0031, 0.0, 0.0, -0.0031, -16.65, 34.05)" gradientUnits="userSpaceOnUse" id="gradient9" spreadMethod="pad" x1="-819.2" x2="819.2">
      <stop offset="0.0" stop-color="#b0bfbf"/>
      <stop offset="1.0" stop-color="#90a5a5"/>
    </linearGradient>
    <radialGradient cx="0" cy="0" gradientTransform="matrix(0.0031, 0.0, 0.0, -0.0031, 13.0, 29.6)" gradientUnits="userSpaceOnUse" id="gradient10" r="819.2" spreadMethod="pad">
      <stop offset="0.0" stop-color="#ffffff"/>
      <stop offset="1.0" stop-color="#cbd5d5"/>
    </radialGradient>
    <linearGradient gradientTransform="matrix(0.0031, 0.0, 0.0, -0.0031, 13.0, 29.85)" gradientUnits="userSpaceOnUse" id="gradient11" spreadMethod="pad" x1="-819.2" x2="819.2">
      <stop offset="0.0" stop-color="#b0bfbf"/>
      <stop offset="1.0" stop-color="#90a5a5"/>
    </linearGradient>
    <radialGradient cx="0" cy="0" gradientTransform="matrix(0.0023, 0.0, 0.0, -0.0023, -23.15, 48.2)" gradientUnits="userSpaceOnUse" id="gradient12" r="819.2" spreadMethod="pad">
      <stop offset="0.0" stop-color="#ffffff"/>
      <stop offset="1.0" stop-color="#cbd5d5"/>
    </radialGradient>
    <linearGradient gradientTransform="matrix(0.0023, 0.0, 0.0, -0.0023, -23.15, 48.2)" gradientUnits="userSpaceOnUse" id="gradient13" spreadMethod="pad" x1="-819.2" x2="819.2">
      <stop offset="0.0" stop-color="#b0bfbf"/>
      <stop offset="1.0" stop-color="#90a5a5"/>
    </linearGradient>
    <radialGradient cx="0" cy="0" gradientTransform="matrix(0.0023, 0.0, 0.0, -0.0023, 10.4, 49.35)" gradientUnits="userSpaceOnUse" id="gradient14" r="819.2" spreadMethod="pad">
      <stop offset="0.0" stop-color="#ffffff"/>
      <stop offset="1.0" stop-color="#cbd5d5"/>
    </radialGradient>
    <linearGradient gradientTransform="matrix(0.0023, 0.0, 0.0, -0.0023, 10.4, 49.35)" gradientUnits="userSpaceOnUse" id="gradient15" spreadMethod="pad" x1="-819.2" x2="819.2">
      <stop offset="0.0" stop-color="#b0bfbf"/>
      <stop offset="1.0" stop-color="#90a5a5"/>
    </linearGradient>
    <radialGradient cx="0" cy="0" gradientTransform="matrix(7.0E-4, 0.0, 0.0, -7.0E-4, -13.4, 27.3)" gradientUnits="userSpaceOnUse" id="gradient16" r="819.2" spreadMethod="pad">
      <stop offset="0.0" stop-color="#ffffff"/>
      <stop offset="1.0" stop-color="#cbd5d5"/>
    </radialGradient>
    <radialGradient cx="0" cy="0" gradientTransform="matrix(0.0111, 0.0, -8.0E-4, -0.0112, -4.35, 40.1)" gradientUnits="userSpaceOnUse" id="gradient17" r="819.2" spreadMethod="pad">
      <stop offset="0.0" stop-color="#ffffff"/>
      <stop offset="1.0" stop-color="#cbd5d5"/>
    </radialGradient>
    <linearGradient gradientTransform="matrix(0.0079, 0.0018, 0.0018, -0.0079, -2.7, 44.05)" gradientUnits="userSpaceOnUse" id="gradient18" spreadMethod="pad" x1="-819.2" x2="819.2">
      <stop offset="0.0" stop-color="#b0bfbf"/>
      <stop offset="1.0" stop-color="#90a5a5"/>
    </linearGradient>
    <radialGradient cx="0" cy="0" gradientTransform="matrix(0.0111, 0.0, -8.0E-4, -0.0112, 18.95, 29.75)" gradientUnits="userSpaceOnUse" id="gradient19" r="819.2" spreadMethod="pad">
      <stop offset="0.0" stop-color="#ffffff"/>
      <stop offset="1.0" stop-color="#cbd5d5"/>
    </radialGradient>
    <linearGradient gradientTransform="matrix(0.0079, 0.0018, 0.0018, -0.0079, 20.6, 33.7)" gradientUnits="userSpaceOnUse" id="gradient20" spreadMethod="pad" x1="-819.2" x2="819.2">
      <stop offset="0.0" stop-color="#b0bfbf"/>
      <stop offset="1.0" stop-color="#90a5a5"/>
    </linearGradient>
    <radialGradient cx="0" cy="0" gradientTransform="matrix(0.0111, 0.0, -8.0E-4, -0.0112, -15.45, 42.15)" gradientUnits="userSpaceOnUse" id="gradient21" r="819.2" spreadMethod="pad">
      <stop offset="0.0" stop-color="#ffffff"/>
      <stop offset="1.0" stop-color="#cbd5d5"/>
    </radialGradient>
    <linearGradient gradientTransform="matrix(0.0079, 0.0018, 0.0018, -0.0079, -13.85, 46.1)" gradientUnits="userSpaceOnUse" id="gradient22" spreadMethod="pad" x1="-819.2" x2="819.2">
      <stop offset="0.0" stop-color="#b0bfbf"/>
      <stop offset="1.0" stop-color="#90a5a5"/>
    </linearGradient>
    <radialGradient cx="0" cy="0" gradientTransform="matrix(0.0111, 0.0, -8.0E-4, -0.0112, 20.5, 40.1)" gradientUnits="userSpaceOnUse" id="gradient23" r="819.2" spreadMethod="pad">
      <stop offset="0.0" stop-color="#ffffff"/>
      <stop offset="1.0" stop-color="#cbd5d5"/>
    </radialGradient>
    <linearGradient gradientTransform="matrix(0.0079, 0.0018, 0.0018, -0.0079, 22.1, 44.05)" gradientUnits="userSpaceOnUse" id="gradient24" spreadMethod="pad" x1="-819.2" x2="819.2">
      <stop offset="0.0" stop-color="#b0bfbf"/>
      <stop offset="1.0" stop-color="#90a5a5"/>
    </linearGradient>
    <radialGradient cx="0" cy="0" gradientTransform="matrix(0.0023, 0.0, 0.0, -0.0023, -4.45, 49.6)" gradientUnits="userSpaceOnUse" id="gradient25" r="819.2" spreadMethod="pad">
      <stop offset="0.0" stop-color="#ffffff"/>
      <stop offset="1.0" stop-color="#cbd5d5"/>
    </radialGradient>
    <linearGradient gradientTransform="matrix(0.0023, 0.0, 0.0, -0.0023, -4.45, 49.6)" gradientUnits="userSpaceOnUse" id="gradient26" spreadMethod="pad" x1="-819.2" x2="819.2">
      <stop offset="0.0" stop-color="#b0bfbf"/>
      <stop offset="1.0" stop-color="#90a5a5"/>
    </linearGradient>
  </defs>
</svg>
