<?xml version="1.0" encoding="UTF-8" standalone="no"?>
<svg xmlns:ffdec="https://www.free-decompiler.com/flash" xmlns:xlink="http://www.w3.org/1999/xlink" ffdec:objectType="shape" height="102.0px" width="53.9px" xmlns="http://www.w3.org/2000/svg">
  <g transform="matrix(1.0, 0.0, 0.0, 1.0, 27.55, 51.8)">
    <path d="M14.35 -45.6 Q15.8 -41.4 18.0 -24.55 L20.5 -3.75 Q21.3 2.55 22.35 37.3 20.05 38.65 16.05 40.0 8.15 42.7 -0.15 42.7 -8.45 42.7 -16.2 40.75 -20.05 39.8 -22.25 38.8 -20.85 29.85 -21.3 25.1 -21.55 22.25 -21.2 8.35 L-20.7 -14.25 Q-20.55 -27.5 -14.05 -47.0 -13.15 -49.75 -10.7 -49.85 L-7.55 -50.2 Q-6.35 -51.45 -3.7 -50.7 L-2.7 -50.55 1.05 -51.0 5.4 -50.75 Q7.1 -50.3 7.4 -51.0 8.0 -52.45 10.25 -51.3 12.8 -50.0 14.35 -45.6" fill="url(#gradient0)" fill-rule="evenodd" stroke="none"/>
    <path d="M16.2 19.2 Q17.15 22.85 19.0 19.2 L20.05 17.1 Q20.5 16.5 20.5 18.15 L20.5 38.2 20.05 38.4 Q19.65 21.55 19.45 20.15 19.3 19.15 18.65 21.05 17.75 23.75 16.95 24.15 16.0 24.65 14.95 17.9 L14.05 11.05 16.2 19.2 M-2.3 42.65 L-3.3 42.6 -4.8 18.3 -4.15 22.9 Q-3.55 28.1 -3.55 30.8 -3.55 33.8 -2.3 42.65 M-2.45 -50.55 L-1.25 -50.6 Q-6.05 -20.7 -6.2 -7.0 L-6.5 19.45 Q-7.05 34.2 -8.95 34.2 -10.8 34.2 -12.25 19.25 L-13.3 4.25 -14.1 18.05 -15.2 41.0 -17.2 40.5 Q-15.15 22.3 -15.15 20.75 -15.15 19.95 -15.35 20.05 -15.7 20.4 -16.0 20.5 -17.3 20.85 -18.85 16.15 -20.15 12.05 -20.25 5.1 L-21.35 24.6 Q-21.55 21.35 -21.2 7.65 L-20.7 -14.25 Q-20.55 -27.5 -14.05 -47.0 -13.45 -48.75 -12.3 -49.4 -14.15 -42.9 -16.1 -32.1 -18.55 -18.55 -18.55 -10.6 -18.55 23.5 -16.35 14.9 -15.2 10.35 -14.6 2.4 L-13.9 -9.8 -12.95 -21.95 Q-12.3 -28.7 -12.2 -26.3 L-12.1 -11.55 -11.9 7.8 Q-11.6 17.2 -10.9 22.5 -9.95 29.5 -8.5 26.3 -7.25 23.5 -7.15 5.55 L-6.95 -18.6 Q-6.4 -26.75 -2.45 -50.55 M-7.55 -50.2 Q-7.1 -50.7 -6.05 -50.9 -10.5 -41.0 -11.75 -33.4 -16.9 -1.4 -11.8 -35.1 -10.55 -43.6 -8.2 -49.9 -7.85 -49.95 -7.55 -50.2 M7.6 -51.25 L8.0 -51.55 Q9.65 -46.0 10.3 -36.1 L10.95 -20.3 Q12.0 5.2 13.8 40.7 L11.55 41.3 10.95 19.7 Q10.3 -11.55 10.2 -22.75 10.05 -38.2 7.6 -51.25 M5.2 -50.8 L6.2 -50.55 Q6.85 -44.95 7.15 -38.5 7.5 -31.15 7.1 -27.95 6.7 -24.55 7.25 -15.5 7.85 -5.95 7.6 -2.6 L6.9 19.95 6.45 42.2 4.55 42.45 Q4.45 33.8 4.6 29.1 4.9 22.95 5.0 0.55 5.1 -22.1 4.8 -20.15 4.5 -18.4 3.5 -4.35 L2.6 9.35 1.35 14.3 Q-0.15 18.5 -1.7 15.05 -3.25 11.6 -3.4 3.55 L-3.25 -3.75 -3.0 2.3 Q-2.5 9.05 -1.55 12.6 -0.5 16.55 0.6 13.0 1.55 9.8 1.55 4.85 1.55 1.7 3.3 -18.25 L5.4 -43.45 Q5.7 -49.05 5.2 -50.8 M14.15 -36.2 Q15.25 -27.65 15.1 -19.35 14.95 -11.0 15.7 -2.35 16.55 7.75 17.9 6.7 19.35 5.55 18.95 -7.95 L19.45 2.25 Q19.6 6.55 18.0 8.65 16.25 10.9 15.25 2.25 14.55 -3.75 13.65 -23.15 12.85 -40.2 12.05 -43.9 11.4 -46.75 8.9 -51.7 L10.0 -51.4 Q12.75 -46.7 14.15 -36.2" fill="url(#gradient1)" fill-rule="evenodd" stroke="none"/>
    <path d="M13.6 -19.85 Q15.55 -15.9 16.3 -16.85 17.4 -18.3 17.7 -26.9 L18.05 -21.3 Q18.2 -15.35 17.4 -13.8 16.55 -12.2 14.4 -16.55 L12.45 -21.25 11.85 -18.5 Q11.0 -15.6 9.7 -15.0 8.4 -14.35 6.85 -17.35 L5.6 -20.5 4.75 -17.45 Q3.55 -14.1 1.95 -12.55 0.4 -11.05 -1.35 -14.65 L-2.75 -18.6 -3.1 -16.4 Q-3.6 -13.85 -4.4 -12.1 -5.25 -10.4 -6.2 -14.5 L-6.95 -18.95 -7.9 -15.3 Q-9.25 -11.4 -11.15 -10.45 -13.0 -9.5 -14.5 -14.1 L-15.65 -18.85 -17.4 -16.0 Q-19.35 -13.45 -20.3 -14.65 -21.25 -15.9 -20.6 -20.3 L-19.75 -24.45 -19.9 -21.15 Q-19.85 -17.9 -18.75 -18.2 -17.6 -18.45 -16.3 -21.65 L-15.2 -24.8 -14.25 -19.7 Q-13.0 -14.65 -11.45 -14.65 -9.95 -14.65 -8.4 -19.15 L-7.15 -23.7 -6.45 -19.6 Q-5.6 -15.55 -4.85 -16.0 -3.65 -16.65 -2.9 -24.35 -2.75 -21.95 -1.55 -19.1 -0.15 -15.85 1.2 -16.0 2.45 -16.1 4.1 -20.55 L5.5 -25.0 6.65 -21.2 Q8.05 -17.4 9.15 -17.2 10.25 -17.0 11.1 -21.2 L11.75 -25.45 Q11.75 -23.75 13.6 -19.85" fill="#ffffff" fill-rule="evenodd" stroke="none"/>
    <path d="M6.05 7.05 L7.6 2.3 8.85 6.3 Q10.35 10.25 11.45 10.25 12.55 10.25 13.7 5.5 L14.65 0.75 16.45 5.3 Q18.45 9.95 19.25 10.35 20.1 10.75 20.65 6.3 L21.0 1.75 21.15 6.35 Q21.1 11.15 19.9 12.0 18.75 12.8 16.8 8.35 L15.05 3.75 14.5 7.2 Q13.65 10.95 12.45 12.3 11.2 13.7 9.35 9.35 L7.7 4.7 7.05 7.85 Q6.05 11.3 4.4 12.85 2.75 14.45 1.3 9.45 L0.2 4.15 -0.4 7.7 Q-1.3 11.55 -2.9 12.75 -4.45 14.0 -6.4 9.65 L-8.05 5.05 -8.85 9.6 Q-10.05 14.25 -11.9 14.75 -13.75 15.2 -15.2 11.7 L-16.3 8.05 -17.85 11.7 Q-19.7 15.0 -21.25 13.3 -22.85 11.6 -22.1 5.65 L-21.05 0.1 Q-21.3 5.9 -20.6 9.05 -19.95 12.0 -18.75 11.55 -17.8 11.2 -17.05 7.45 L-16.55 3.75 -15.5 7.95 Q-14.2 12.25 -12.7 12.45 -11.15 12.65 -9.65 6.7 L-8.4 0.75 -7.0 5.25 Q-5.3 9.85 -4.1 10.45 -2.85 11.1 -1.4 5.95 L-0.25 0.65 0.9 5.2 Q2.25 9.95 3.3 10.8 4.35 11.6 6.05 7.05" fill="#ffffff" fill-rule="evenodd" stroke="none"/>
    <path d="M-16.0 25.75 L-16.2 30.9 Q-16.05 36.05 -14.1 35.9 -12.2 35.75 -10.5 30.85 L-9.15 26.0 -8.4 31.35 Q-7.2 36.7 -5.1 36.55 -2.95 36.45 -1.25 31.15 L0.0 25.85 1.4 30.8 Q3.1 35.65 4.4 35.45 5.7 35.25 6.85 31.05 L7.7 26.95 8.8 30.65 Q10.15 34.35 11.45 34.15 12.75 33.95 13.85 30.05 L14.65 26.2 16.25 30.55 Q18.05 34.8 18.95 34.35 20.35 33.6 21.8 22.8 L21.6 28.6 Q21.1 34.65 19.6 35.9 18.05 37.1 16.2 33.15 L14.65 28.95 14.0 32.4 Q13.1 36.0 12.0 36.75 10.9 37.55 9.4 33.95 L8.15 30.25 7.5 33.65 Q6.55 37.2 5.05 38.1 3.55 39.0 1.7 34.35 L0.1 29.5 -0.7 32.85 Q-2.0 36.6 -4.2 38.3 -6.4 40.0 -8.0 35.05 L-9.15 29.7 -10.65 33.35 Q-12.5 37.15 -14.0 38.2 -15.5 39.25 -16.45 35.4 L-17.1 31.4 -18.35 34.4 Q-19.75 37.15 -20.7 36.0 -21.65 34.85 -21.55 30.5 L-21.25 26.4 Q-21.25 28.1 -20.75 30.3 -20.05 33.2 -19.05 32.8 -17.5 32.15 -16.0 25.75" fill="#ffffff" fill-rule="evenodd" stroke="none"/>
    <path d="M-13.55 -40.2 Q-13.2 -42.0 -13.1 -39.2 -13.0 -36.7 -13.7 -36.15 -14.8 -35.35 -13.55 -40.2" fill="#ffffff" fill-rule="evenodd" stroke="none"/>
    <path d="M-6.6 -39.8 Q-5.9 -42.1 -6.0 -39.3 -6.1 -36.75 -7.05 -35.7 -8.45 -34.2 -6.6 -39.8" fill="#ffffff" fill-rule="evenodd" stroke="none"/>
    <path d="M-11.7 -40.55 Q-11.15 -41.6 -11.3 -39.7 -11.45 -37.8 -11.95 -37.15 -12.65 -36.3 -11.7 -40.55" fill="#ffffff" fill-rule="evenodd" stroke="none"/>
    <path d="M-1.5 -39.55 Q-0.95 -42.95 -0.85 -39.4 -0.8 -35.9 -1.4 -35.4 -1.9 -35.0 -1.75 -37.25 L-1.5 -39.55" fill="#ffffff" fill-rule="evenodd" stroke="none"/>
    <path d="M3.2 -40.85 Q3.85 -33.75 2.8 -34.4 2.1 -34.8 2.6 -37.85 L3.2 -40.85" fill="#ffffff" fill-rule="evenodd" stroke="none"/>
    <path d="M4.8 -40.9 Q5.1 -37.35 4.6 -36.55 4.1 -35.75 4.8 -40.9" fill="#ffffff" fill-rule="evenodd" stroke="none"/>
    <path d="M8.5 -40.75 Q9.2 -37.05 8.55 -36.15 7.9 -35.2 8.5 -40.75" fill="#ffffff" fill-rule="evenodd" stroke="none"/>
    <path d="M11.25 -41.4 Q11.3 -42.85 11.95 -39.65 12.55 -36.85 11.85 -36.55 11.15 -36.3 11.15 -38.8 L11.25 -41.4" fill="#ffffff" fill-rule="evenodd" stroke="none"/>
    <path d="M-15.95 30.65 Q-14.75 30.85 -14.55 32.2 L-14.6 33.5 -13.6 33.1 -11.5 33.3 Q-10.6 33.85 -10.85 34.95 L-11.25 35.95 -10.1 35.65 Q-8.85 35.55 -8.4 36.8 -7.95 38.0 -8.55 38.6 -8.85 38.9 -9.25 38.95 L-8.35 40.15 Q-7.55 41.55 -8.2 42.65 -9.25 44.4 -10.5 44.25 L-10.25 45.3 Q-10.2 46.4 -11.25 46.5 -12.3 46.65 -13.05 45.9 L-13.6 45.1 -13.55 46.05 Q-13.75 47.05 -15.0 47.55 -16.25 48.0 -17.0 47.05 L-17.55 45.95 Q-18.3 47.25 -19.35 46.7 -19.95 46.35 -20.35 45.45 L-20.65 44.6 Q-20.85 45.25 -23.4 45.1 -25.0 45.0 -25.05 43.7 L-24.8 42.45 -25.85 43.15 Q-26.95 43.6 -27.15 42.25 -27.4 40.9 -26.75 40.15 L-26.1 39.7 -26.8 39.5 Q-27.5 39.05 -27.55 37.8 -27.6 36.6 -26.6 36.25 L-25.55 36.2 Q-26.05 34.9 -26.05 33.85 -26.05 33.25 -25.1 33.0 L-24.15 32.9 Q-24.95 32.15 -24.55 31.25 -24.15 30.4 -23.3 30.2 -22.7 30.0 -22.15 30.7 L-21.7 31.4 -21.45 30.45 Q-20.95 29.5 -19.9 29.6 -18.85 29.75 -18.55 30.85 -18.4 31.4 -18.5 31.9 L-17.95 31.2 Q-17.15 30.5 -15.95 30.65" fill="url(#gradient2)" fill-rule="evenodd" stroke="none"/>
    <path d="M-26.05 33.85 L-25.6 33.2 Q-25.8 34.1 -25.5 35.15 -25.1 36.25 -24.1 36.5 L-23.2 36.5 -25.25 36.7 Q-26.05 36.4 -26.4 37.2 -26.75 37.95 -26.15 38.55 -25.4 39.35 -24.45 38.7 L-25.25 39.85 Q-25.9 41.1 -25.3 41.45 -24.4 41.95 -23.35 40.6 L-23.5 41.8 Q-23.4 43.05 -22.25 43.0 -21.1 42.95 -20.55 42.3 L-20.25 41.65 -19.85 43.0 Q-19.3 44.25 -18.25 43.9 -16.65 43.4 -16.65 42.35 L-15.9 43.55 Q-15.0 44.65 -14.35 44.15 -13.7 43.65 -13.85 42.45 L-14.15 41.35 -13.25 42.05 -11.7 41.95 Q-10.85 41.0 -12.2 39.8 L-10.25 39.75 Q-10.0 38.8 -10.7 37.95 L-11.5 37.25 -10.0 37.6 Q-8.5 37.75 -8.4 36.8 -7.95 38.0 -8.55 38.6 -8.85 38.9 -9.25 38.95 L-8.35 40.15 Q-7.55 41.55 -8.2 42.65 -9.25 44.4 -10.5 44.25 L-10.25 45.3 Q-10.2 46.4 -11.25 46.5 -12.3 46.65 -13.05 45.9 L-13.6 45.1 -13.55 46.05 Q-13.75 47.05 -15.0 47.55 -16.25 48.0 -17.0 47.05 L-17.55 45.95 Q-18.3 47.25 -19.35 46.7 -19.95 46.35 -20.35 45.45 L-20.65 44.6 Q-20.85 45.25 -23.4 45.1 -25.0 45.0 -25.05 43.7 L-24.8 42.45 -25.85 43.15 Q-26.95 43.6 -27.15 42.25 -27.4 40.9 -26.75 40.15 L-26.1 39.7 -26.8 39.5 Q-27.5 39.05 -27.55 37.8 -27.6 36.6 -26.6 36.25 L-25.55 36.2 Q-26.05 34.9 -26.05 33.85 M-15.45 34.5 Q-14.9 32.3 -15.85 30.7 -14.75 30.9 -14.55 32.25 L-14.6 33.5 -13.6 33.1 -11.5 33.3 Q-10.25 34.05 -11.2 35.9 L-12.35 36.55 Q-11.25 35.8 -11.75 33.9 -12.05 32.6 -13.8 33.4 L-15.45 34.5" fill="url(#gradient3)" fill-rule="evenodd" stroke="none"/>
    <path d="M-7.8 36.1 Q-8.75 35.75 -8.05 34.7 -7.6 34.05 -6.5 34.15 L-5.5 34.35 -5.8 33.15 Q-5.85 31.9 -4.75 31.75 -3.6 31.6 -3.0 32.05 L-2.65 32.55 -2.0 31.8 Q-1.2 31.05 -0.65 31.35 0.3 31.8 0.6 33.5 L1.45 33.2 Q2.4 32.95 3.0 33.5 3.95 34.3 4.0 35.4 L5.05 35.45 Q6.2 35.65 6.85 36.35 7.9 37.5 7.25 38.55 L7.7 39.25 8.15 40.85 Q8.15 42.15 7.1 42.55 L7.5 43.35 Q7.9 44.35 7.75 45.4 7.55 46.4 6.5 46.9 L5.5 47.15 5.3 48.1 4.3 49.65 Q3.35 50.5 0.75 48.9 -0.35 50.35 -1.9 50.05 -2.9 49.85 -3.55 49.0 L-4.0 48.15 Q-5.1 49.7 -6.15 49.55 -6.75 49.45 -6.95 48.45 L-7.05 47.5 -8.0 47.6 Q-9.05 47.45 -9.35 46.3 -9.7 45.15 -9.0 44.25 L-8.25 43.55 -9.35 43.35 Q-10.5 42.95 -10.45 41.85 -10.4 40.75 -9.1 40.35 L-7.8 40.2 -8.4 39.85 Q-9.05 39.25 -9.2 38.05 -9.35 36.85 -8.6 36.35 L-7.8 36.1" fill="url(#gradient4)" fill-rule="evenodd" stroke="none"/>
    <path d="M1.5 33.15 L0.25 34.1 Q-0.35 34.8 -0.4 35.55 L-0.1 35.75 0.1 36.5 Q0.05 36.7 -0.55 36.3 -1.45 35.7 -2.55 36.0 -3.75 36.4 -2.9 35.75 L-1.8 35.0 Q-0.2 33.55 -0.4 32.0 -0.45 31.5 -0.7 31.35 L-0.65 31.35 Q0.3 31.8 0.6 33.5 L1.5 33.15 M-7.0 34.15 L-5.5 34.35 -4.75 34.8 -7.0 34.15 M-4.75 31.75 Q-3.6 31.6 -3.0 32.05 L-2.65 32.55 -2.6 32.5 -2.9 33.65 Q-4.2 32.2 -5.35 31.95 L-4.75 31.75 M-9.1 40.35 L-7.8 40.2 -8.4 39.85 Q-9.05 39.25 -9.2 38.05 L-9.0 36.75 Q-8.85 38.75 -7.8 39.15 L-5.1 39.3 -7.15 40.35 Q-7.65 40.35 -8.25 40.7 -9.05 41.15 -8.9 41.9 -8.7 43.05 -6.2 42.85 L-7.45 43.7 Q-8.6 44.7 -8.05 45.65 -7.5 46.6 -6.3 46.05 L-5.2 45.3 -5.15 46.15 Q-4.95 46.95 -4.05 46.8 -3.15 46.7 -2.8 45.8 L-2.65 44.95 -2.0 46.15 Q-1.25 47.25 -0.45 46.95 0.75 46.4 1.05 44.75 L1.55 45.8 Q2.3 46.8 3.35 46.5 4.4 46.15 4.5 44.7 L4.4 43.35 5.25 43.7 Q6.15 43.85 6.4 42.9 6.8 41.6 4.15 41.15 L5.8 41.2 Q7.2 41.05 7.35 40.3 7.45 39.55 5.9 38.85 L4.3 38.25 5.65 37.85 Q6.9 37.35 6.45 36.55 5.95 35.65 4.35 35.7 2.8 35.75 2.25 36.45 1.6 37.25 1.9 38.25 1.7 37.65 1.65 36.95 1.5 35.6 2.25 35.15 3.45 34.45 3.1 33.6 3.95 34.4 4.0 35.4 L5.05 35.45 Q6.2 35.65 6.85 36.35 7.9 37.5 7.25 38.55 L7.7 39.25 8.15 40.85 Q8.15 42.15 7.1 42.55 L7.5 43.35 Q7.9 44.35 7.75 45.4 7.55 46.4 6.5 46.9 L5.5 47.15 5.3 48.1 4.3 49.65 Q3.35 50.5 0.75 48.9 -0.35 50.35 -1.9 50.05 -2.9 49.85 -3.55 49.0 L-4.0 48.15 Q-5.1 49.7 -6.15 49.55 -6.75 49.45 -6.95 48.45 L-7.05 47.5 -8.0 47.6 Q-9.05 47.45 -9.35 46.3 -9.7 45.15 -9.0 44.25 L-8.25 43.55 -9.35 43.35 Q-10.5 42.95 -10.45 41.85 -10.4 40.75 -9.1 40.35" fill="url(#gradient5)" fill-rule="evenodd" stroke="none"/>
    <path d="M9.15 34.25 L10.35 34.05 Q9.8 33.7 10.4 32.75 10.8 32.15 11.5 32.0 L12.15 31.95 Q11.4 31.3 12.25 30.5 12.8 30.0 13.75 29.95 L14.6 30.0 15.25 29.55 Q16.05 29.1 16.65 29.15 17.6 29.2 18.4 31.0 L18.5 30.55 Q18.75 30.05 19.4 30.1 20.5 30.15 20.9 31.55 L21.45 31.2 Q22.15 30.95 22.75 31.4 23.7 32.1 23.35 33.55 L23.75 33.7 Q24.3 34.0 24.85 34.75 25.75 35.95 24.85 37.15 L25.4 37.7 Q25.9 38.35 25.85 38.95 25.75 39.95 23.7 40.5 L24.2 40.9 Q24.65 41.4 24.5 42.0 24.25 43.0 22.4 43.1 L22.9 43.9 Q23.15 44.9 22.2 45.6 21.25 46.3 19.95 45.85 L18.85 45.25 Q18.5 46.65 16.9 47.05 15.9 47.3 14.5 46.45 L13.25 45.5 Q12.5 46.35 10.9 46.0 9.85 45.8 9.7 44.75 L9.7 43.8 8.6 43.9 Q7.5 43.8 7.4 42.75 7.35 41.7 8.35 41.35 L9.4 41.15 Q7.85 41.05 7.4 39.7 7.15 38.9 7.8 38.1 L8.5 37.5 Q7.6 36.8 7.8 35.45 7.9 34.6 9.15 34.25" fill="url(#gradient6)" fill-rule="evenodd" stroke="none"/>
    <path d="M7.8 38.1 L8.5 37.5 Q7.6 36.8 7.8 35.45 7.85 34.9 8.35 34.6 8.0 36.1 8.85 36.45 L10.75 36.7 Q10.4 37.7 9.45 37.8 8.75 37.9 8.5 38.6 8.25 39.3 8.75 39.75 9.4 40.4 11.4 39.55 11.4 40.75 10.4 40.85 9.6 40.95 9.4 41.7 9.2 42.4 10.05 42.65 11.0 42.95 11.5 42.3 11.15 42.8 11.15 43.35 11.15 44.15 12.2 44.2 13.35 44.35 13.8 43.65 L14.0 42.9 14.9 44.45 Q15.95 45.85 16.85 45.0 17.75 44.15 17.85 43.3 L17.8 42.6 18.75 43.55 Q19.85 44.45 20.8 43.9 21.7 43.35 21.05 42.5 L20.2 41.7 Q22.65 42.35 22.85 41.25 23.0 40.55 22.5 40.15 L21.95 39.85 24.35 38.55 Q24.95 38.0 23.95 37.35 L22.85 36.75 Q24.65 36.35 24.7 35.05 24.75 34.25 23.5 33.65 L22.25 33.2 Q23.05 32.8 23.2 31.95 23.55 32.7 23.35 33.55 L23.75 33.7 Q24.3 34.0 24.85 34.75 25.75 35.95 24.85 37.15 L25.4 37.7 Q25.9 38.35 25.85 38.95 25.75 39.95 23.7 40.5 L24.2 40.9 Q24.65 41.4 24.5 42.0 24.25 43.0 22.4 43.1 L22.9 43.9 Q23.15 44.9 22.2 45.6 21.25 46.3 19.95 45.85 L18.85 45.25 Q18.5 46.65 16.9 47.05 15.9 47.3 14.5 46.45 L13.25 45.5 Q12.5 46.35 10.9 46.0 9.85 45.8 9.7 44.75 L9.7 43.8 8.6 43.9 Q7.5 43.8 7.4 42.75 7.35 41.7 8.35 41.35 L9.4 41.15 Q7.85 41.05 7.4 39.7 7.15 38.9 7.8 38.1 M10.35 34.05 Q9.8 33.7 10.4 32.75 L10.6 32.5 Q10.65 32.95 11.2 33.6 11.65 34.15 11.7 34.65 11.0 34.2 10.3 34.05 L10.35 34.05 M12.05 31.9 Q11.55 31.2 12.25 30.5 L12.8 30.15 Q12.55 30.9 12.8 31.55 L13.25 32.55 12.05 31.9" fill="url(#gradient7)" fill-rule="evenodd" stroke="none"/>
    <path d="M-17.85 27.1 L-17.7 26.45 Q-19.2 26.65 -18.7 25.8 -18.4 25.25 -18.0 25.35 -17.8 25.4 -17.65 25.55 -17.8 24.6 -16.9 23.95 -16.0 23.25 -15.25 23.65 -14.3 24.2 -14.85 25.55 L-14.15 25.85 Q-13.55 26.3 -13.8 27.25 -14.05 28.2 -14.75 27.9 L-15.45 27.4 Q-16.95 29.05 -17.55 28.3 -17.95 27.85 -17.85 27.1" fill="url(#gradient8)" fill-rule="evenodd" stroke="none"/>
    <path d="M-17.55 28.3 Q-17.95 27.85 -17.85 27.1 L-17.7 26.45 Q-19.2 26.65 -18.7 25.8 L-18.4 25.45 Q-18.6 26.3 -17.95 26.2 -17.25 26.05 -16.75 25.55 -17.25 26.4 -17.05 26.9 -16.8 27.4 -15.85 26.25 -14.9 27.3 -14.2 26.55 -13.75 26.1 -14.6 25.85 L-15.5 25.7 Q-15.0 24.85 -14.9 23.95 -14.45 24.6 -14.85 25.55 L-14.15 25.85 Q-13.55 26.3 -13.8 27.25 -14.05 28.2 -14.75 27.9 L-15.45 27.4 Q-16.95 29.05 -17.55 28.3" fill="url(#gradient9)" fill-rule="evenodd" stroke="none"/>
    <path d="M23.55 26.45 L23.8 26.15 Q24.15 25.85 24.7 25.7 25.65 25.4 25.1 27.15 L25.75 27.15 Q26.4 27.25 26.35 27.9 26.2 28.95 24.85 28.55 24.75 29.45 23.9 29.6 23.4 29.7 23.3 29.0 L23.25 28.25 Q22.6 28.1 22.55 27.1 22.55 26.5 23.05 26.4 L23.55 26.45" fill="url(#gradient10)" fill-rule="evenodd" stroke="none"/>
    <path d="M22.75 26.6 Q22.75 27.75 23.35 27.75 24.15 27.8 24.25 27.05 24.4 28.2 23.95 28.55 23.55 28.85 24.1 28.85 24.55 28.8 24.65 28.35 24.75 28.05 25.4 28.05 26.05 28.05 26.05 27.7 26.1 27.3 25.35 27.35 L24.65 27.45 Q24.9 26.45 24.75 25.65 25.6 25.45 25.1 27.15 L25.75 27.15 Q26.4 27.25 26.35 27.9 26.2 28.95 24.85 28.55 24.75 29.45 23.9 29.6 23.4 29.7 23.3 29.0 L23.25 28.25 Q22.6 28.1 22.55 27.1 L22.75 26.6" fill="url(#gradient11)" fill-rule="evenodd" stroke="none"/>
    <path d="M-24.3 26.7 L-23.85 26.7 Q-23.35 26.8 -23.4 27.35 -23.45 27.95 -23.85 27.9 L-24.5 27.4 -24.55 26.85 -24.3 26.7" fill="url(#gradient12)" fill-rule="evenodd" stroke="none"/>
    <path d="M-18.7 41.3 Q-18.55 41.0 -18.1 41.0 L-17.7 41.0 -18.2 40.45 Q-18.6 39.8 -18.1 39.55 -17.55 39.3 -17.05 39.55 L-16.65 39.85 -16.35 38.6 Q-15.85 37.35 -14.9 37.2 -13.95 37.05 -13.05 38.2 L-12.3 39.4 -11.8 38.6 Q-11.1 37.9 -10.25 38.25 -8.9 38.75 -9.15 39.85 L-8.55 39.5 Q-7.9 39.35 -7.6 40.2 -7.15 41.5 -8.0 42.55 L-7.45 43.05 Q-6.9 43.7 -6.9 44.55 -6.9 45.95 -7.85 46.2 L-7.35 46.5 Q-6.95 46.9 -7.35 47.5 L-8.35 47.45 Q-8.2 49.25 -9.35 49.55 -10.05 49.75 -10.7 49.0 L-11.2 48.2 Q-11.15 49.3 -11.8 49.5 -12.25 49.6 -12.7 48.95 L-13.05 48.3 Q-13.0 49.5 -14.4 50.1 -15.3 50.5 -16.5 49.6 L-17.55 48.65 Q-18.25 49.75 -19.15 48.85 -19.7 48.3 -19.7 47.3 L-19.6 46.4 Q-20.65 45.05 -20.05 43.55 -19.7 42.6 -18.7 42.8 L-17.8 43.15 Q-18.95 41.75 -18.7 41.3" fill="url(#gradient13)" fill-rule="evenodd" stroke="none"/>
    <path d="M-17.8 41.0 L-17.7 41.0 Q-18.75 40.1 -18.2 39.65 L-17.4 40.45 Q-17.05 40.75 -17.2 40.95 L-17.8 41.0 M-17.75 42.5 L-17.25 43.25 -17.8 43.15 Q-18.9 41.85 -18.75 41.35 -18.55 42.05 -17.75 42.5 M-16.65 39.85 L-16.65 39.55 -16.35 40.45 -17.2 39.5 -16.65 39.85 M-10.45 38.25 L-10.5 38.15 -10.25 38.25 Q-8.9 38.75 -9.15 39.8 L-9.65 41.15 Q-9.85 38.9 -10.45 38.25 M-12.3 39.4 L-12.25 39.3 -12.35 40.0 Q-12.3 40.45 -12.85 40.15 -13.45 39.85 -13.9 38.6 -14.15 37.8 -14.8 37.15 -13.35 37.1 -12.3 39.4 M-19.6 46.4 Q-20.65 45.05 -20.05 43.55 L-19.55 42.9 Q-19.55 44.7 -19.05 44.85 L-17.8 44.7 Q-17.85 45.65 -18.45 45.7 -18.9 45.75 -19.1 46.55 -19.25 47.4 -18.75 47.7 -18.05 48.2 -17.55 46.6 L-16.9 47.85 Q-16.05 49.1 -14.95 48.9 -13.9 48.75 -13.85 47.35 L-14.05 46.0 -13.75 46.3 -13.3 47.15 Q-13.15 47.75 -12.6 48.1 -11.95 48.55 -11.75 47.85 L-11.2 46.15 Q-10.7 48.2 -9.7 47.9 -8.75 47.55 -9.45 45.9 -8.85 46.8 -8.25 46.55 -7.6 46.25 -9.25 45.2 -7.9 45.05 -7.85 43.9 -7.85 43.2 -8.75 43.0 L-9.65 42.95 Q-8.0 42.3 -7.8 41.1 L-7.75 39.85 -7.6 40.2 Q-7.15 41.5 -8.0 42.55 L-7.45 43.05 Q-6.9 43.7 -6.9 44.55 -6.9 45.95 -7.85 46.2 L-7.35 46.5 Q-6.95 46.9 -7.35 47.5 L-8.35 47.45 Q-8.2 49.25 -9.35 49.55 -10.05 49.75 -10.7 49.0 L-11.2 48.2 Q-11.15 49.3 -11.8 49.5 -12.25 49.6 -12.7 48.95 L-13.05 48.3 Q-13.0 49.5 -14.4 50.1 -15.3 50.5 -16.5 49.6 L-17.55 48.65 Q-18.25 49.75 -19.15 48.85 -19.7 48.3 -19.7 47.3 L-19.6 46.4" fill="url(#gradient14)" fill-rule="evenodd" stroke="none"/>
    <path d="M9.9 37.2 Q10.85 37.05 11.8 38.2 L12.55 39.4 13.05 38.6 Q13.75 37.9 14.6 38.25 15.95 38.75 15.7 39.85 L16.3 39.5 Q16.95 39.35 17.25 40.2 17.65 41.5 16.8 42.55 L17.35 43.05 Q17.9 43.7 17.95 44.55 17.95 45.95 17.0 46.2 L17.5 46.5 Q17.9 46.9 17.5 47.5 L16.45 47.45 Q16.6 49.25 15.45 49.55 14.75 49.75 14.1 49.0 L13.6 48.2 Q13.7 49.3 13.05 49.5 12.6 49.6 12.15 48.95 L11.8 48.3 Q11.85 49.5 10.4 50.1 9.5 50.5 8.3 49.6 L7.3 48.65 Q6.6 49.75 5.7 48.85 5.15 48.3 5.15 47.3 L5.25 46.4 Q4.2 45.05 4.75 43.55 5.15 42.6 6.15 42.8 6.65 42.9 7.05 43.15 5.85 41.75 6.1 41.3 6.25 41.0 6.7 41.0 L7.1 41.0 6.65 40.45 Q6.25 39.8 6.75 39.55 7.25 39.3 7.75 39.55 L8.15 39.85 8.45 38.6 Q8.95 37.35 9.9 37.2" fill="url(#gradient15)" fill-rule="evenodd" stroke="none"/>
    <path d="M14.4 38.25 L14.3 38.15 14.6 38.25 Q15.35 38.55 15.6 39.1 L15.7 39.8 15.15 41.15 Q15.0 38.9 14.4 38.25 M7.0 44.7 Q6.95 45.65 6.35 45.7 5.9 45.75 5.75 46.55 5.55 47.4 6.05 47.7 6.8 48.2 7.25 46.6 L7.9 47.85 Q8.8 49.1 9.85 48.9 10.95 48.75 11.0 47.35 L10.8 46.0 11.1 46.3 11.5 47.15 Q11.7 47.75 12.25 48.1 12.9 48.55 13.05 47.85 L13.65 46.15 Q14.15 48.2 15.1 47.9 16.1 47.55 15.4 45.9 16.0 46.8 16.6 46.55 17.2 46.25 15.55 45.2 16.9 45.05 16.95 43.9 17.0 43.2 16.1 43.0 L15.2 42.95 Q16.85 42.3 17.05 41.1 L17.1 39.85 17.25 40.2 Q17.65 41.5 16.8 42.55 L17.35 43.05 Q17.9 43.7 17.95 44.55 17.95 45.95 17.0 46.2 L17.5 46.5 Q17.9 46.9 17.5 47.5 L16.45 47.45 Q16.6 49.25 15.45 49.55 14.75 49.75 14.1 49.0 L13.6 48.2 Q13.7 49.3 13.05 49.5 12.6 49.6 12.15 48.95 L11.8 48.3 Q11.85 49.5 10.4 50.1 9.5 50.5 8.3 49.6 L7.3 48.65 Q6.6 49.75 5.7 48.85 5.15 48.3 5.15 47.3 L5.25 46.4 Q4.2 45.05 4.75 43.55 4.95 43.15 5.25 42.9 5.35 44.75 5.8 44.85 L7.0 44.7 M7.05 43.15 Q5.95 41.85 6.1 41.35 6.3 42.0 7.05 42.5 L7.6 43.25 7.05 43.15 M6.6 39.65 L7.4 40.45 Q7.8 40.75 7.65 40.95 L7.0 41.0 7.1 41.0 Q6.1 40.1 6.6 39.65 M8.2 39.55 L8.45 40.45 7.65 39.5 Q7.95 39.6 8.15 39.85 L8.2 39.55 M10.95 38.6 Q10.6 37.7 10.05 37.15 11.5 37.1 12.55 39.4 L12.6 39.3 12.45 40.0 Q12.5 40.45 12.0 40.15 11.4 39.85 10.95 38.6" fill="url(#gradient16)" fill-rule="evenodd" stroke="none"/>
  </g>
  <defs>
    <linearGradient gradientTransform="matrix(0.0272, 0.0, 0.0, -0.0272, 0.05, -4.5)" gradientUnits="userSpaceOnUse" id="gradient0" spreadMethod="pad" x1="-819.2" x2="819.2">
      <stop offset="0.0" stop-color="#8aecc9"/>
      <stop offset="0.5294117647058824" stop-color="#5ce5ba"/>
      <stop offset="1.0" stop-color="#8aecc9"/>
    </linearGradient>
    <linearGradient gradientTransform="matrix(0.0256, 0.0, 0.0, -0.0256, -0.45, -4.5)" gradientUnits="userSpaceOnUse" id="gradient1" spreadMethod="pad" x1="-819.2" x2="819.2">
      <stop offset="0.0" stop-color="#5ce5ba"/>
      <stop offset="0.5294117647058824" stop-color="#10989a"/>
      <stop offset="1.0" stop-color="#5ce5ba"/>
    </linearGradient>
    <radialGradient cx="0" cy="0" gradientTransform="matrix(0.0115, 0.0, 0.0, -0.0115, -17.75, 38.65)" gradientUnits="userSpaceOnUse" id="gradient2" r="819.2" spreadMethod="pad">
      <stop offset="0.0" stop-color="#ffffff"/>
      <stop offset="1.0" stop-color="#cbd5d5"/>
    </radialGradient>
    <linearGradient gradientTransform="matrix(0.012, 0.0, 0.0, -0.012, -17.75, 39.2)" gradientUnits="userSpaceOnUse" id="gradient3" spreadMethod="pad" x1="-819.2" x2="819.2">
      <stop offset="0.0" stop-color="#b0bfbf"/>
      <stop offset="1.0" stop-color="#90a5a5"/>
    </linearGradient>
    <radialGradient cx="0" cy="0" gradientTransform="matrix(0.0114, 0.0, 0.0, -0.0114, -1.15, 40.7)" gradientUnits="userSpaceOnUse" id="gradient4" r="819.2" spreadMethod="pad">
      <stop offset="0.0" stop-color="#ffffff"/>
      <stop offset="1.0" stop-color="#cbd5d5"/>
    </radialGradient>
    <linearGradient gradientTransform="matrix(0.0114, 0.0, 0.0, -0.0114, -1.15, 40.7)" gradientUnits="userSpaceOnUse" id="gradient5" spreadMethod="pad" x1="-819.2" x2="819.2">
      <stop offset="0.0" stop-color="#b0bfbf"/>
      <stop offset="1.0" stop-color="#90a5a5"/>
    </linearGradient>
    <radialGradient cx="0" cy="0" gradientTransform="matrix(0.0119, 0.0, 0.0, -0.0105, 16.6, 38.1)" gradientUnits="userSpaceOnUse" id="gradient6" r="819.2" spreadMethod="pad">
      <stop offset="0.0" stop-color="#ffffff"/>
      <stop offset="1.0" stop-color="#cbd5d5"/>
    </radialGradient>
    <linearGradient gradientTransform="matrix(0.0113, 0.0, 0.0, -0.0113, 16.6, 38.65)" gradientUnits="userSpaceOnUse" id="gradient7" spreadMethod="pad" x1="-819.2" x2="819.2">
      <stop offset="0.0" stop-color="#b0bfbf"/>
      <stop offset="1.0" stop-color="#90a5a5"/>
    </linearGradient>
    <radialGradient cx="0" cy="0" gradientTransform="matrix(0.0031, 0.0, 0.0, -0.0031, -16.3, 26.0)" gradientUnits="userSpaceOnUse" id="gradient8" r="819.2" spreadMethod="pad">
      <stop offset="0.0" stop-color="#ffffff"/>
      <stop offset="1.0" stop-color="#cbd5d5"/>
    </radialGradient>
    <linearGradient gradientTransform="matrix(0.0031, 0.0, 0.0, -0.0031, -16.3, 26.25)" gradientUnits="userSpaceOnUse" id="gradient9" spreadMethod="pad" x1="-819.2" x2="819.2">
      <stop offset="0.0" stop-color="#b0bfbf"/>
      <stop offset="1.0" stop-color="#90a5a5"/>
    </linearGradient>
    <radialGradient cx="0" cy="0" gradientTransform="matrix(0.0023, 0.0, 0.0, -0.0023, 24.45, 27.65)" gradientUnits="userSpaceOnUse" id="gradient10" r="819.2" spreadMethod="pad">
      <stop offset="0.0" stop-color="#ffffff"/>
      <stop offset="1.0" stop-color="#cbd5d5"/>
    </radialGradient>
    <linearGradient gradientTransform="matrix(0.0023, 0.0, 0.0, -0.0023, 24.45, 27.65)" gradientUnits="userSpaceOnUse" id="gradient11" spreadMethod="pad" x1="-819.2" x2="819.2">
      <stop offset="0.0" stop-color="#b0bfbf"/>
      <stop offset="1.0" stop-color="#90a5a5"/>
    </linearGradient>
    <radialGradient cx="0" cy="0" gradientTransform="matrix(7.0E-4, 0.0, 0.0, -7.0E-4, -24.0, 27.3)" gradientUnits="userSpaceOnUse" id="gradient12" r="819.2" spreadMethod="pad">
      <stop offset="0.0" stop-color="#ffffff"/>
      <stop offset="1.0" stop-color="#cbd5d5"/>
    </radialGradient>
    <radialGradient cx="0" cy="0" gradientTransform="matrix(0.0111, 0.0, -8.0E-4, -0.0112, -14.95, 40.1)" gradientUnits="userSpaceOnUse" id="gradient13" r="819.2" spreadMethod="pad">
      <stop offset="0.0" stop-color="#ffffff"/>
      <stop offset="1.0" stop-color="#cbd5d5"/>
    </radialGradient>
    <linearGradient gradientTransform="matrix(0.0079, 0.0018, 0.0018, -0.0079, -13.35, 44.05)" gradientUnits="userSpaceOnUse" id="gradient14" spreadMethod="pad" x1="-819.2" x2="819.2">
      <stop offset="0.0" stop-color="#b0bfbf"/>
      <stop offset="1.0" stop-color="#90a5a5"/>
    </linearGradient>
    <radialGradient cx="0" cy="0" gradientTransform="matrix(0.0111, 0.0, -8.0E-4, -0.0112, 9.9, 40.1)" gradientUnits="userSpaceOnUse" id="gradient15" r="819.2" spreadMethod="pad">
      <stop offset="0.0" stop-color="#ffffff"/>
      <stop offset="1.0" stop-color="#cbd5d5"/>
    </radialGradient>
    <linearGradient gradientTransform="matrix(0.0079, 0.0018, 0.0018, -0.0079, 11.5, 44.05)" gradientUnits="userSpaceOnUse" id="gradient16" spreadMethod="pad" x1="-819.2" x2="819.2">
      <stop offset="0.0" stop-color="#b0bfbf"/>
      <stop offset="1.0" stop-color="#90a5a5"/>
    </linearGradient>
  </defs>
</svg>
