<?xml version="1.0" encoding="UTF-8" standalone="no"?>
<svg xmlns:ffdec="https://www.free-decompiler.com/flash" xmlns:xlink="http://www.w3.org/1999/xlink" ffdec:objectType="shape" height="103.95px" width="55.45px" xmlns="http://www.w3.org/2000/svg">
  <g transform="matrix(1.0, 0.0, 0.0, 1.0, 26.4, 51.05)">
    <path d="M16.45 -34.35 Q17.45 -25.5 17.45 -18.05 17.45 -15.4 19.0 12.5 L20.5 39.85 -19.95 39.9 Q-19.7 1.0 -19.85 -5.3 -19.95 -10.45 -18.75 -24.25 -17.5 -38.85 -16.25 -44.1 -15.2 -48.8 -10.7 -50.15 -8.45 -50.85 -6.4 -50.6 L3.75 -50.95 Q9.15 -51.45 11.85 -49.75 14.9 -47.8 16.45 -34.35" fill="url(#gradient0)" fill-rule="evenodd" stroke="none"/>
    <path d="M1.45 -6.8 Q1.6 -22.15 2.45 -44.45 2.65 -5.95 2.45 1.85 2.35 7.1 2.65 17.8 3.0 31.15 3.75 39.9 L2.75 39.9 Q1.3 8.3 1.45 -6.8 M-1.3 -40.75 Q0.1 -46.1 -0.2 -50.55 L1.05 -50.65 Q-1.15 -30.5 -1.45 -20.1 -1.75 -10.55 -2.8 -2.4 -4.1 7.2 -5.7 8.15 L-4.75 39.9 -5.4 39.9 -6.2 27.25 Q-6.75 17.45 -6.55 14.45 -6.35 11.35 -7.4 6.6 L-9.3 -2.4 Q-9.9 -6.65 -9.9 -10.65 L-9.8 -13.8 -8.8 -4.75 Q-7.6 4.6 -6.55 5.95 -5.45 7.35 -4.45 -1.75 L-3.0 -17.7 Q-2.15 -26.6 -1.8 -36.65 -2.65 -35.15 -3.65 -34.25 -5.65 -32.45 -6.4 -35.45 -7.15 -38.4 -6.75 -41.55 L-6.2 -44.1 Q-6.6 -41.95 -6.6 -39.8 -6.6 -35.45 -4.7 -35.25 -2.75 -35.05 -1.3 -40.75 M-6.9 -50.65 L-6.55 -50.6 -8.8 -39.85 Q-9.95 -33.45 -11.05 -13.6 -12.2 6.55 -11.85 15.0 L-10.6 39.9 -11.7 39.9 -12.55 24.0 Q-12.55 23.4 -14.1 27.0 -15.9 30.2 -17.15 27.05 -18.5 23.55 -19.05 10.35 L-18.95 39.9 -19.95 39.9 Q-19.7 1.0 -19.85 -5.3 -19.95 -10.45 -18.75 -24.25 -17.5 -38.85 -16.25 -44.1 -15.55 -47.3 -13.1 -49.05 -17.05 -43.5 -17.65 -24.7 -18.5 2.65 -18.4 10.5 -18.2 24.9 -15.95 25.35 -13.85 25.8 -12.8 5.85 L-11.65 -20.1 -10.45 -34.25 Q-9.5 -43.15 -8.1 -47.2 L-6.9 -50.65 M5.65 -39.9 L5.35 -50.6 6.1 -39.3 Q6.95 -27.65 7.4 -26.05 8.0 -23.85 9.25 -26.0 10.6 -28.35 11.0 -33.9 11.25 -38.6 10.85 -44.25 12.45 -29.5 12.85 -22.85 L14.15 -2.1 Q14.65 12.8 12.15 15.85 9.7 18.8 7.9 15.15 L6.55 10.9 7.25 21.2 Q8.15 32.85 9.1 39.85 L8.15 39.85 7.15 30.2 6.4 22.8 5.5 -5.75 Q6.8 15.15 10.15 14.15 12.9 13.3 12.9 2.15 12.45 -9.85 12.5 -12.1 12.65 -14.9 12.0 -23.4 L11.3 -31.35 9.75 -25.45 Q8.0 -20.3 7.05 -24.35 6.1 -28.4 5.65 -39.9 M15.8 -3.95 L15.25 -24.7 Q15.1 -34.35 11.65 -49.85 L11.85 -49.75 11.85 -49.7 Q14.5 -40.95 15.6 -30.85 16.35 -23.45 16.6 2.45 16.85 26.4 16.45 39.85 L15.4 39.85 Q14.85 28.7 15.6 18.05 16.1 10.3 15.8 -3.95" fill="url(#gradient1)" fill-rule="evenodd" stroke="none"/>
    <path d="M4.6 8.7 L5.8 2.25 7.1 7.45 Q8.65 12.55 10.2 12.15 11.75 11.75 12.6 6.3 L13.1 0.95 Q13.45 6.25 14.9 10.1 16.25 13.7 17.5 13.6 18.45 13.5 18.55 7.5 L18.4 1.5 19.35 9.1 Q19.85 16.8 17.7 17.15 15.6 17.55 14.2 12.5 L13.2 7.35 13.25 10.75 Q12.9 14.55 11.1 16.35 9.3 18.15 7.5 12.8 L6.05 7.1 5.65 11.2 Q4.85 15.7 2.8 17.65 0.75 19.6 -1.2 14.85 L-2.8 9.7 -2.75 13.05 Q-2.95 16.65 -4.0 18.0 -5.05 19.4 -6.3 14.5 L-7.35 9.3 -7.65 13.8 Q-8.4 18.55 -10.6 19.6 -12.8 20.65 -14.65 15.05 L-16.0 9.25 -17.1 13.45 Q-18.55 17.4 -20.0 16.45 -21.45 15.5 -20.75 9.4 L-19.75 3.55 Q-20.05 6.1 -19.75 9.5 -19.4 13.75 -18.3 13.2 -17.25 12.7 -16.35 8.3 L-15.7 3.95 Q-15.7 6.45 -14.25 10.7 -12.65 15.55 -10.9 16.05 -9.25 16.55 -8.2 10.6 L-7.5 4.5 -6.45 8.7 Q-5.25 13.05 -4.35 13.6 -3.45 14.15 -3.1 9.75 L-2.95 5.25 -1.4 10.3 Q0.4 15.35 1.75 15.3 3.15 15.2 4.6 8.7" fill="#ffffff" fill-rule="evenodd" stroke="none"/>
    <path d="M12.75 -15.55 Q14.45 -10.0 15.55 -9.85 16.7 -9.7 17.2 -13.85 L17.45 -18.05 17.8 -13.15 Q17.9 -8.1 16.35 -7.65 14.8 -7.15 13.15 -12.15 L11.8 -17.25 11.9 -14.1 Q11.7 -10.55 10.45 -8.3 9.25 -6.0 6.8 -11.35 L4.6 -17.15 4.7 -13.6 Q4.45 -9.55 2.9 -7.1 1.35 -4.65 -0.2 -10.5 L-1.5 -16.85 -1.95 -13.35 Q-2.7 -9.5 -4.0 -7.65 -5.3 -5.75 -6.95 -11.0 L-8.4 -16.6 -9.05 -11.9 Q-10.1 -6.95 -12.05 -5.8 -14.0 -4.65 -15.1 -9.5 L-15.85 -14.55 -16.05 -11.6 Q-16.5 -8.3 -17.8 -6.7 -19.15 -4.95 -19.9 -6.8 -20.5 -8.3 -20.4 -10.6 L-19.75 -14.8 -19.2 -17.25 Q-19.55 -14.2 -19.3 -11.95 -18.95 -9.35 -17.9 -9.95 -16.95 -10.55 -16.35 -15.05 L-15.95 -19.45 -15.0 -14.35 Q-13.8 -9.35 -12.45 -9.85 -11.05 -10.3 -9.7 -15.65 L-8.65 -20.9 -7.95 -16.6 Q-6.85 -12.15 -5.15 -11.25 -3.45 -10.35 -2.2 -15.95 L-1.35 -21.7 -0.55 -15.65 Q0.5 -9.6 1.9 -9.6 3.3 -9.6 3.9 -15.5 L4.2 -21.45 5.95 -16.05 Q7.95 -10.65 8.9 -10.75 9.85 -10.85 10.65 -15.95 L11.25 -21.05 12.75 -15.55" fill="#ffffff" fill-rule="evenodd" stroke="none"/>
    <path d="M-17.05 -37.05 L-17.25 -35.05 Q-17.2 -33.05 -16.05 -32.95 -14.9 -32.85 -14.0 -34.95 L-13.3 -37.05 -13.95 -34.3 Q-14.8 -31.6 -16.1 -31.55 -17.5 -31.5 -17.7 -33.75 -17.9 -35.9 -17.05 -37.05" fill="#ffffff" fill-rule="evenodd" stroke="none"/>
    <path d="M-12.4 -38.0 L-12.2 -35.35 Q-11.75 -32.75 -10.65 -33.0 -9.6 -33.2 -8.8 -34.9 L-8.25 -36.5 -8.95 -34.1 Q-9.9 -31.7 -11.1 -31.4 -12.25 -31.1 -12.45 -34.35 L-12.4 -38.0" fill="#ffffff" fill-rule="evenodd" stroke="none"/>
    <path d="M-6.95 -37.0 L-6.7 -34.95 Q-6.25 -32.85 -4.95 -32.8 -3.65 -32.7 -2.5 -35.1 L-1.55 -37.55 -2.3 -34.5 Q-3.25 -31.45 -4.4 -31.45 -5.85 -31.45 -6.55 -32.85 -7.4 -34.4 -6.95 -37.0" fill="#ffffff" fill-rule="evenodd" stroke="none"/>
    <path d="M-0.1 -37.8 L0.2 -35.9 Q0.7 -33.95 1.8 -33.85 2.9 -33.75 4.0 -36.25 L4.85 -38.75 4.3 -35.5 Q3.5 -32.25 2.45 -32.1 1.2 -31.9 0.5 -33.5 -0.15 -35.0 -0.1 -37.8" fill="#ffffff" fill-rule="evenodd" stroke="none"/>
    <path d="M6.95 -37.65 L7.55 -35.5 Q8.4 -33.5 9.45 -33.95 10.5 -34.4 10.95 -35.85 L11.2 -37.2 11.05 -34.9 Q10.7 -32.6 9.75 -32.45 8.8 -32.3 7.9 -34.25 7.25 -35.75 6.95 -37.65" fill="#ffffff" fill-rule="evenodd" stroke="none"/>
    <path d="M12.85 -34.2 Q12.25 -35.85 12.35 -36.55 L13.05 -35.05 Q13.9 -33.65 14.6 -33.85 15.8 -34.2 15.5 -38.2 L15.9 -35.3 Q16.05 -32.35 14.85 -32.25 13.65 -32.1 12.85 -34.2" fill="#ffffff" fill-rule="evenodd" stroke="none"/>
    <path d="M-13.4 -46.85 Q-12.45 -47.45 -12.8 -46.4 -13.1 -45.4 -13.85 -44.7 -14.7 -43.85 -13.4 -46.85" fill="#ffffff" fill-rule="evenodd" stroke="none"/>
    <path d="M-11.35 -46.45 Q-10.8 -47.05 -10.95 -46.0 -11.15 -44.95 -11.8 -44.15 -12.65 -43.15 -11.35 -46.45" fill="#ffffff" fill-rule="evenodd" stroke="none"/>
    <path d="M-9.35 -47.55 Q-8.7 -48.45 -8.95 -47.1 -9.15 -45.75 -9.7 -45.55 -10.15 -45.35 -9.8 -46.45 L-9.35 -47.55" fill="#ffffff" fill-rule="evenodd" stroke="none"/>
    <path d="M-5.9 -48.65 Q-5.4 -49.45 -5.4 -48.0 -5.4 -46.5 -5.9 -46.1 -6.25 -45.75 -6.1 -47.15 L-5.9 -48.65" fill="#ffffff" fill-rule="evenodd" stroke="none"/>
    <path d="M-4.7 -47.65 Q-4.3 -48.4 -4.2 -47.1 -4.1 -45.85 -4.55 -45.25 -4.9 -44.7 -4.85 -46.15 L-4.7 -47.65" fill="#ffffff" fill-rule="evenodd" stroke="none"/>
    <path d="M-2.5 -48.25 Q-2.1 -49.15 -2.0 -47.55 -1.95 -46.05 -2.6 -45.75 -3.2 -45.45 -2.9 -46.85 L-2.5 -48.25" fill="#ffffff" fill-rule="evenodd" stroke="none"/>
    <path d="M-0.95 -48.65 Q-0.55 -48.95 -0.55 -47.9 -0.6 -46.9 -0.9 -46.25 -1.35 -45.5 -0.95 -48.65" fill="#ffffff" fill-rule="evenodd" stroke="none"/>
    <path d="M1.5 -47.6 Q1.7 -48.8 1.9 -46.8 2.1 -44.85 1.75 -44.65 1.4 -44.45 1.4 -46.0 L1.5 -47.6" fill="#ffffff" fill-rule="evenodd" stroke="none"/>
    <path d="M3.6 -48.2 Q4.15 -49.15 4.25 -47.0 4.35 -44.85 3.85 -44.95 3.45 -45.05 3.5 -46.65 L3.6 -48.2" fill="#ffffff" fill-rule="evenodd" stroke="none"/>
    <path d="M6.35 -46.7 Q6.45 -48.0 6.95 -46.3 7.4 -44.65 7.05 -43.95 6.55 -43.0 6.35 -46.7" fill="#ffffff" fill-rule="evenodd" stroke="none"/>
    <path d="M8.6 -46.95 Q8.85 -48.1 9.2 -46.3 9.5 -44.6 8.9 -44.45 8.35 -44.3 8.4 -45.6 L8.6 -46.95" fill="#ffffff" fill-rule="evenodd" stroke="none"/>
    <path d="M11.25 -47.95 Q12.15 -47.85 11.65 -44.8 11.55 -44.85 11.4 -46.4 L11.25 -47.95" fill="#ffffff" fill-rule="evenodd" stroke="none"/>
    <path d="M2.9 26.95 Q3.8 27.4 4.15 29.1 L4.95 28.8 Q5.9 28.55 6.5 29.1 7.5 29.9 7.5 31.0 L8.55 31.05 Q9.75 31.25 10.4 31.95 11.45 33.1 10.8 34.15 L11.25 34.85 Q11.65 35.65 11.65 36.45 11.65 37.75 10.6 38.15 L11.05 38.95 Q11.45 39.95 11.25 41.0 11.05 42.0 10.0 42.5 L9.0 42.75 8.8 43.7 Q8.5 44.7 7.85 45.25 6.85 46.1 4.25 44.5 3.15 45.95 1.6 45.65 0.65 45.45 0.0 44.6 L-0.45 43.75 Q-1.55 45.3 -2.6 45.15 -3.25 45.05 -3.45 44.05 L-3.55 43.1 -4.5 43.2 Q-5.5 43.05 -5.85 41.9 -6.15 40.75 -5.5 39.85 L-4.75 39.15 -5.85 38.95 Q-7.0 38.55 -6.95 37.45 -6.9 36.35 -5.6 35.95 L-4.3 35.8 -4.9 35.45 Q-5.5 34.85 -5.65 33.65 -5.8 32.4 -5.05 31.95 L-4.3 31.7 Q-5.2 31.35 -4.5 30.3 -4.05 29.65 -2.95 29.75 L-1.95 29.95 -2.25 28.75 Q-2.3 27.5 -1.2 27.35 -0.1 27.2 0.5 27.65 L0.85 28.15 1.5 27.4 Q2.3 26.65 2.9 26.95" fill="url(#gradient2)" fill-rule="evenodd" stroke="none"/>
    <path d="M-1.95 29.95 L-2.0 29.95 -1.2 30.4 -3.5 29.75 -1.95 29.95 M-1.2 27.35 Q-0.1 27.2 0.5 27.65 L0.85 28.15 0.9 28.1 0.65 29.25 Q-0.65 27.8 -1.85 27.55 L-1.2 27.35 M5.75 30.75 Q7.0 30.05 6.65 29.2 7.5 30.0 7.5 31.0 L8.55 31.05 Q9.75 31.25 10.4 31.95 11.45 33.1 10.8 34.15 L11.25 34.85 Q11.65 35.65 11.65 36.45 11.65 37.75 10.6 38.15 L11.05 38.95 Q11.45 39.95 11.25 41.0 11.05 42.0 10.0 42.5 L9.0 42.75 8.8 43.7 Q8.5 44.7 7.85 45.25 6.85 46.1 4.25 44.5 3.15 45.95 1.6 45.65 0.65 45.45 0.0 44.6 L-0.45 43.75 Q-1.55 45.3 -2.6 45.15 -3.25 45.05 -3.45 44.05 L-3.55 43.1 -4.5 43.2 Q-5.5 43.05 -5.85 41.9 -6.15 40.75 -5.5 39.85 L-4.75 39.15 -5.85 38.95 Q-7.0 38.55 -6.95 37.45 -6.9 36.35 -5.6 35.95 L-4.3 35.8 -4.9 35.45 Q-5.5 34.85 -5.65 33.65 -5.8 32.85 -5.45 32.35 -5.45 34.35 -4.3 34.75 L-1.55 34.9 Q-3.3 35.95 -3.65 35.95 -4.15 35.95 -4.75 36.3 -5.55 36.75 -5.4 37.5 -5.15 38.65 -2.65 38.45 L-3.9 39.3 Q-5.05 40.3 -4.5 41.25 -3.95 42.2 -2.8 41.65 L-1.7 40.9 -1.65 41.75 Q-1.4 42.55 -0.55 42.4 0.9 42.2 0.85 40.55 1.85 43.05 3.05 42.55 4.25 42.0 4.55 40.35 L5.1 41.4 Q5.8 42.4 6.85 42.05 7.9 41.75 8.0 40.3 L7.9 38.95 8.8 39.3 Q9.7 39.45 9.95 38.5 10.3 37.15 7.65 36.75 10.7 37.15 10.85 35.9 11.0 35.15 9.45 34.45 L7.85 33.85 9.2 33.45 Q10.45 32.95 10.0 32.15 9.5 31.25 7.85 31.3 6.3 31.35 5.75 32.0 5.15 32.85 5.4 33.85 5.2 33.25 5.15 32.55 5.0 31.2 5.75 30.75 M3.1 27.55 L2.8 26.9 2.9 26.95 Q3.8 27.4 4.15 29.1 L5.0 28.75 Q3.25 29.6 3.1 31.15 L3.4 31.35 Q3.7 31.65 3.65 32.1 L3.0 31.9 Q2.1 31.3 1.0 31.6 -0.25 32.0 0.65 31.35 L1.75 30.6 Q3.35 29.15 3.1 27.55" fill="url(#gradient3)" fill-rule="evenodd" stroke="none"/>
    <path d="M-17.45 32.0 Q-16.6 32.4 -16.3 33.95 L-15.55 33.65 Q-14.7 33.5 -14.15 33.95 -13.25 34.65 -13.25 35.65 L-12.3 35.7 Q-11.25 35.9 -10.65 36.55 -9.7 37.6 -10.25 38.55 L-9.85 39.15 Q-9.5 39.95 -9.5 40.65 -9.5 41.8 -10.4 42.2 L-10.05 42.95 Q-9.7 43.85 -9.85 44.75 -10.1 46.2 -11.9 46.4 L-12.1 47.25 Q-12.4 48.15 -12.95 48.65 -13.85 49.4 -16.2 47.95 -17.2 49.25 -18.6 49.0 -19.5 48.85 -20.1 48.05 L-20.5 47.25 Q-21.5 48.7 -22.45 48.55 -23.05 48.45 -23.25 47.55 L-23.3 46.7 -24.15 46.75 Q-25.1 46.65 -25.4 45.6 -25.7 44.55 -25.05 43.7 L-24.4 43.05 -25.4 42.9 Q-26.45 42.5 -26.4 41.55 -26.35 40.55 -25.15 40.2 L-23.95 40.0 Q-25.0 39.85 -25.25 38.1 -25.35 37.0 -24.65 36.55 L-23.95 36.3 Q-24.8 36.0 -24.2 35.05 -23.8 34.45 -22.8 34.5 L-21.85 34.7 -22.1 33.6 Q-22.2 32.5 -21.2 32.35 -20.15 32.25 -19.65 32.65 L-19.3 33.1 -18.7 32.4 Q-18.0 31.7 -17.45 32.0" fill="url(#gradient4)" fill-rule="evenodd" stroke="none"/>
    <path d="M-25.15 40.2 L-23.95 40.0 Q-25.0 39.85 -25.25 38.1 L-25.05 36.9 Q-24.95 38.7 -23.95 39.1 L-21.5 39.25 Q-23.1 40.2 -23.4 40.2 -23.85 40.2 -24.4 40.5 -25.1 40.95 -24.95 41.6 -24.75 42.65 -22.5 42.45 L-23.65 43.2 Q-24.65 44.15 -24.2 45.0 -23.7 45.9 -22.6 45.4 L-21.6 44.7 -21.55 45.45 Q-21.35 46.2 -20.55 46.05 -19.25 45.85 -19.3 44.4 -18.4 46.65 -17.3 46.15 -16.2 45.7 -15.95 44.15 L-15.45 45.1 Q-14.8 46.05 -13.85 45.75 -12.9 45.45 -12.8 44.15 L-12.9 42.9 -12.1 43.2 Q-11.25 43.35 -11.05 42.5 -10.7 41.3 -13.05 40.9 L-11.6 40.9 Q-10.3 40.8 -10.2 40.15 -10.1 39.45 -11.5 38.8 L-12.95 38.3 Q-10.35 37.85 -11.0 36.7 -11.45 35.9 -12.95 35.95 -14.35 36.0 -14.85 36.6 -15.4 37.35 -15.15 38.3 L-15.4 37.1 Q-15.55 35.85 -14.85 35.45 -13.7 34.8 -14.05 34.05 -13.25 34.75 -13.25 35.65 L-12.3 35.7 Q-11.25 35.9 -10.65 36.55 -9.7 37.6 -10.25 38.55 L-9.85 39.15 Q-9.5 39.95 -9.5 40.65 -9.5 41.8 -10.4 42.2 L-10.05 42.95 Q-9.7 43.85 -9.85 44.75 -10.1 46.2 -11.9 46.4 L-12.1 47.25 Q-12.4 48.15 -12.95 48.65 -13.85 49.4 -16.2 47.95 -17.2 49.25 -18.6 49.0 -19.5 48.85 -20.1 48.05 L-20.5 47.25 Q-21.5 48.7 -22.45 48.55 -23.05 48.45 -23.25 47.55 L-23.3 46.7 -24.15 46.75 Q-25.1 46.65 -25.4 45.6 -25.7 44.55 -25.05 43.7 L-24.4 43.05 -25.4 42.9 Q-26.45 42.5 -26.4 41.55 -26.35 40.55 -25.15 40.2 M-21.9 34.7 L-21.2 35.15 -23.25 34.55 -21.85 34.7 -21.9 34.7 M-19.5 34.1 Q-20.7 32.75 -21.75 32.55 L-21.2 32.35 Q-20.15 32.25 -19.65 32.65 L-19.3 33.1 -19.25 33.05 -19.5 34.1 M-17.25 32.55 Q-17.3 32.2 -17.5 32.0 L-17.45 32.0 Q-16.6 32.4 -16.3 33.95 L-15.5 33.65 Q-17.1 34.35 -17.25 35.8 L-16.95 36.0 Q-16.7 36.3 -16.8 36.65 L-17.35 36.5 Q-18.15 35.95 -19.2 36.25 -21.0 36.75 -18.5 35.3 -17.05 34.0 -17.25 32.55" fill="url(#gradient5)" fill-rule="evenodd" stroke="none"/>
    <path d="M8.05 33.85 L9.25 33.7 Q8.75 33.35 9.35 32.4 9.7 31.8 10.4 31.65 L11.05 31.6 Q10.35 30.95 11.15 30.15 11.7 29.65 12.65 29.6 L13.5 29.6 14.2 29.2 Q15.0 28.75 15.6 28.8 16.55 28.85 17.3 30.6 L17.4 30.15 Q17.65 29.7 18.35 29.75 19.4 29.8 19.8 31.2 L20.35 30.85 Q21.05 30.6 21.65 31.05 22.6 31.7 22.25 33.2 L22.65 33.35 Q23.2 33.65 23.75 34.4 24.65 35.6 23.75 36.8 L24.3 37.3 Q24.85 37.95 24.75 38.55 24.65 39.55 22.6 40.15 L23.1 40.55 Q23.55 41.05 23.4 41.65 23.15 42.65 21.3 42.75 L21.8 43.55 Q22.1 44.5 21.15 45.2 20.2 45.9 18.9 45.5 L17.8 44.9 Q17.45 46.25 15.85 46.7 14.8 46.95 13.4 46.05 L12.2 45.1 Q11.4 46.0 9.8 45.65 8.8 45.45 8.6 44.4 L8.6 43.45 7.5 43.55 Q6.4 43.45 6.35 42.4 6.25 41.35 7.25 40.95 L8.3 40.75 Q6.75 40.65 6.35 39.35 6.1 38.55 6.75 37.75 L7.4 37.15 Q6.5 36.45 6.7 35.05 6.85 34.2 8.05 33.85" fill="url(#gradient6)" fill-rule="evenodd" stroke="none"/>
    <path d="M22.25 33.2 L21.2 32.8 Q21.95 32.45 22.15 31.6 22.45 32.3 22.25 33.2 M7.8 36.1 L9.7 36.3 Q9.35 37.3 8.35 37.4 7.65 37.5 7.4 38.25 7.15 38.95 7.65 39.4 8.3 40.05 10.35 39.2 10.35 40.4 9.35 40.5 8.55 40.6 8.35 41.3 8.15 42.05 8.95 42.3 9.85 42.6 10.4 41.9 9.5 43.7 11.1 43.85 12.25 43.95 12.7 43.25 L12.9 42.55 13.8 44.1 Q14.9 45.5 15.75 44.65 16.65 43.8 16.75 42.95 L16.7 42.25 17.65 43.2 Q18.75 44.1 19.7 43.55 20.65 43.0 19.95 42.15 L19.1 41.35 Q21.55 42.0 21.8 40.9 21.95 40.2 21.45 39.75 L20.9 39.45 Q22.35 39.1 23.3 38.2 23.9 37.65 22.9 36.95 L21.8 36.4 Q23.6 36.0 23.65 34.7 L23.4 34.0 23.75 34.4 Q24.65 35.6 23.75 36.8 L24.3 37.3 Q24.85 37.95 24.75 38.55 24.65 39.55 22.6 40.15 L23.1 40.55 Q23.55 41.05 23.4 41.65 23.15 42.65 21.3 42.75 L21.8 43.55 Q22.1 44.5 21.15 45.2 20.2 45.9 18.9 45.5 L17.8 44.9 Q17.45 46.25 15.85 46.7 14.8 46.95 13.4 46.05 L12.2 45.1 Q11.4 46.0 9.8 45.65 8.8 45.45 8.6 44.4 L8.6 43.45 7.5 43.55 Q6.4 43.45 6.35 42.4 6.25 41.35 7.25 40.95 L8.3 40.75 Q6.75 40.65 6.35 39.35 6.1 38.55 6.75 37.75 L7.4 37.15 Q6.5 36.45 6.7 35.05 6.75 34.55 7.25 34.25 7.0 35.75 7.8 36.1 M9.25 33.7 Q8.75 33.35 9.35 32.4 L9.5 32.15 10.1 33.25 10.65 34.3 Q9.95 33.85 9.2 33.7 L9.25 33.7 M11.0 31.55 Q10.45 30.85 11.15 30.15 L11.75 29.8 Q11.5 30.6 11.7 31.2 L12.2 32.2 Q11.6 31.75 11.0 31.55" fill="url(#gradient7)" fill-rule="evenodd" stroke="none"/>
    <path d="M8.95 27.5 Q8.75 26.5 9.7 25.85 10.55 25.15 11.3 25.6 12.3 26.1 11.7 27.5 L12.4 27.75 Q13.0 28.2 12.75 29.15 12.5 30.1 11.8 29.8 L11.15 29.35 Q9.65 30.95 9.0 30.2 8.6 29.75 8.7 29.0 L8.9 28.35 Q7.4 28.6 7.85 27.7 8.15 27.15 8.55 27.3 L8.95 27.5" fill="url(#gradient8)" fill-rule="evenodd" stroke="none"/>
    <path d="M7.85 27.7 L8.15 27.35 Q7.95 28.2 8.6 28.15 9.5 27.95 9.8 27.5 9.35 28.4 9.55 28.8 9.75 29.35 10.75 28.2 11.65 29.25 12.35 28.5 12.8 28.0 12.0 27.75 L11.1 27.6 11.65 25.9 Q12.1 26.5 11.7 27.5 L12.4 27.75 Q13.0 28.2 12.75 29.15 12.5 30.1 11.8 29.8 L11.15 29.35 Q9.65 30.95 9.0 30.2 8.6 29.75 8.7 29.0 L8.9 28.35 Q7.4 28.6 7.85 27.7" fill="url(#gradient9)" fill-rule="evenodd" stroke="none"/>
    <path d="M-15.9 28.15 L-15.65 27.85 Q-15.3 27.55 -14.75 27.35 -13.8 27.1 -14.35 28.85 L-13.7 28.8 Q-13.05 28.9 -13.1 29.6 -13.25 30.65 -14.6 30.25 -14.7 31.15 -15.55 31.3 -16.05 31.4 -16.15 30.7 L-16.2 29.95 Q-16.85 29.75 -16.85 28.8 -16.9 28.2 -16.4 28.1 L-15.9 28.15" fill="url(#gradient10)" fill-rule="evenodd" stroke="none"/>
    <path d="M-14.8 30.05 Q-14.7 29.75 -14.05 29.75 -13.4 29.75 -13.4 29.4 -13.35 29.0 -14.1 29.05 L-14.8 29.15 Q-14.55 28.15 -14.7 27.35 -13.85 27.15 -14.35 28.85 L-13.7 28.8 Q-13.05 28.9 -13.1 29.6 -13.25 30.65 -14.6 30.25 -14.7 31.15 -15.55 31.3 -16.05 31.4 -16.15 30.7 L-16.2 29.95 Q-16.85 29.75 -16.85 28.8 L-16.7 28.25 Q-16.7 29.4 -16.1 29.45 -15.3 29.5 -15.2 28.75 -15.05 29.9 -15.5 30.25 -15.9 30.55 -15.35 30.5 -14.9 30.45 -14.8 30.05" fill="url(#gradient11)" fill-rule="evenodd" stroke="none"/>
    <path d="M17.9 26.95 L18.35 26.95 Q18.8 27.0 18.75 27.55 18.7 28.2 18.3 28.1 17.95 28.05 17.65 27.6 17.45 27.3 17.65 27.1 L17.9 26.95" fill="url(#gradient12)" fill-rule="evenodd" stroke="none"/>
    <path d="M-8.4 31.3 L-7.6 32.3 -7.35 31.85 Q-6.95 31.4 -6.4 31.45 -5.5 31.5 -6.1 32.95 L-5.75 32.75 Q-5.4 32.55 -5.1 32.75 -4.65 33.1 -5.15 34.85 L-4.45 34.15 -2.9 34.2 Q-1.75 35.3 -2.15 37.0 L-1.65 37.75 Q-1.2 38.7 -1.45 39.4 -1.9 40.6 -3.0 39.9 L-3.5 41.2 Q-4.25 42.5 -5.2 42.55 -6.15 42.6 -6.8 42.05 L-7.2 41.5 Q-7.15 42.95 -7.85 43.1 L-8.6 42.7 -8.9 42.2 Q-8.85 44.0 -10.0 44.25 -10.75 44.4 -11.35 43.6 L-11.85 42.75 Q-11.8 43.8 -12.75 43.2 -13.35 42.85 -13.15 42.3 L-12.85 41.85 Q-13.8 42.0 -14.4 40.75 -14.75 39.95 -14.5 39.1 L-14.2 38.45 Q-15.45 37.9 -15.6 36.5 -15.7 35.65 -15.05 35.5 L-14.4 35.55 Q-15.05 34.7 -14.05 33.6 -13.45 32.95 -12.5 33.3 L-11.7 33.8 -11.55 32.4 Q-11.2 30.95 -10.3 30.65 -9.35 30.35 -8.4 31.3" fill="url(#gradient13)" fill-rule="evenodd" stroke="none"/>
    <path d="M-5.45 34.25 Q-4.95 33.45 -5.05 32.8 -4.7 33.2 -5.15 34.85 L-5.55 35.15 -5.45 34.25 M-7.55 33.0 L-7.75 32.1 -7.6 32.3 -7.25 31.75 -7.55 33.0 M-6.1 32.95 L-6.65 33.1 Q-6.85 32.95 -6.65 32.55 L-6.25 31.45 Q-5.6 31.65 -6.1 32.95 M-14.4 40.75 Q-14.75 39.95 -14.5 39.1 L-14.2 38.45 Q-15.45 37.9 -15.6 36.5 L-15.65 36.15 -15.05 37.25 Q-14.35 38.25 -12.6 38.1 L-13.4 38.55 Q-14.1 39.1 -13.8 39.75 -13.25 40.75 -11.95 40.3 L-12.4 41.15 Q-12.75 42.0 -12.35 42.0 -11.7 41.95 -11.5 40.9 L-11.35 41.75 Q-11.05 42.6 -10.4 42.55 -9.4 42.45 -9.85 40.35 L-8.55 41.65 Q-8.1 42.2 -7.7 41.55 -7.35 40.95 -7.5 40.35 L-7.45 39.4 -7.3 39.0 -6.9 40.3 Q-6.25 41.55 -5.2 41.25 -4.15 40.95 -3.9 39.5 L-3.85 38.05 Q-2.75 39.3 -2.3 38.55 -2.0 38.0 -2.5 37.35 -3.0 36.7 -3.45 36.85 -4.0 37.05 -4.45 36.25 -3.75 36.25 -3.25 35.85 -2.95 35.55 -3.65 33.85 -3.25 33.95 -2.9 34.2 -1.75 35.3 -2.15 37.0 L-1.65 37.75 Q-1.2 38.7 -1.45 39.4 -1.9 40.6 -3.0 39.9 L-3.5 41.2 Q-4.25 42.5 -5.2 42.55 -6.15 42.6 -6.8 42.05 L-7.2 41.5 Q-7.15 42.95 -7.85 43.1 L-8.6 42.7 -8.9 42.2 Q-8.85 44.0 -10.0 44.25 -10.75 44.4 -11.35 43.6 L-11.85 42.75 Q-11.8 43.8 -12.75 43.2 -13.35 42.85 -13.15 42.3 L-12.85 41.85 Q-13.8 42.0 -14.4 40.75 M-10.6 32.4 Q-10.45 33.75 -10.9 34.25 L-11.4 34.3 -11.8 33.7 -11.7 33.8 -11.55 32.45 Q-11.25 31.05 -10.4 30.7 -10.7 31.65 -10.6 32.4 M-14.05 33.6 L-13.85 33.4 -13.9 33.55 Q-14.15 34.4 -13.35 36.5 L-14.4 35.5 Q-15.0 34.6 -14.05 33.6" fill="url(#gradient14)" fill-rule="evenodd" stroke="none"/>
    <path d="M17.85 39.6 L18.25 39.65 17.75 39.05 Q17.35 38.45 17.85 38.15 18.4 37.9 18.9 38.15 L19.3 38.45 19.6 37.2 Q20.1 35.95 21.05 35.8 22.0 35.7 22.9 36.85 L23.65 38.0 24.15 37.2 Q24.85 36.5 25.7 36.85 27.05 37.4 26.8 38.45 L27.4 38.15 Q28.05 38.0 28.35 38.8 28.8 40.15 27.95 41.2 L28.5 41.65 Q29.05 42.3 29.05 43.15 29.05 44.6 28.1 44.8 L28.6 45.1 Q29.05 45.5 28.65 46.1 L27.6 46.05 Q27.75 47.9 26.6 48.2 25.9 48.4 25.25 47.65 L24.75 46.85 Q24.85 47.95 24.15 48.1 23.5 48.25 22.9 46.9 22.95 48.15 21.55 48.75 20.65 49.15 19.45 48.25 L18.4 47.25 Q17.7 48.4 16.8 47.5 16.25 46.95 16.25 45.95 L16.4 45.05 Q15.3 43.65 15.9 42.15 16.25 41.25 17.25 41.45 17.75 41.55 18.15 41.8 17.0 40.4 17.25 39.95 17.4 39.65 17.85 39.6" fill="url(#gradient15)" fill-rule="evenodd" stroke="none"/>
    <path d="M26.3 39.8 Q26.1 37.5 25.55 36.9 L25.45 36.8 25.7 36.85 Q26.85 37.3 26.85 38.45 26.4 39.35 26.3 39.8 M18.7 41.9 L18.15 41.8 Q17.05 40.45 17.2 40.0 17.35 40.55 18.2 41.1 L18.7 41.9 M16.25 45.95 L16.4 45.05 Q15.3 43.65 15.9 42.15 L16.4 41.55 Q16.5 43.4 16.9 43.5 L18.15 43.35 Q18.1 44.3 17.5 44.3 17.05 44.35 16.85 45.15 16.7 46.0 17.2 46.35 17.9 46.8 18.4 45.25 L19.05 46.5 Q19.9 47.75 21.0 47.55 22.05 47.35 22.1 45.95 L21.9 44.6 22.2 44.95 22.65 45.75 Q22.85 46.35 23.4 46.75 24.05 47.2 24.2 46.5 L24.75 44.75 Q25.25 46.85 26.25 46.5 27.2 46.15 26.5 44.5 27.1 45.4 27.75 45.15 28.35 44.9 26.7 43.8 28.05 43.65 28.1 42.5 28.15 41.8 27.2 41.6 L26.3 41.55 Q27.95 40.9 28.15 39.75 L28.2 38.5 28.35 38.8 Q28.8 40.15 27.95 41.2 L28.5 41.65 Q29.05 42.3 29.05 43.15 29.05 44.6 28.1 44.8 L28.6 45.1 Q29.05 45.5 28.65 46.1 L27.6 46.05 Q27.75 47.9 26.6 48.2 25.9 48.4 25.25 47.65 L24.75 46.85 Q24.85 47.95 24.15 48.1 23.5 48.25 22.9 46.9 22.95 48.15 21.55 48.75 20.65 49.15 19.45 48.25 L18.4 47.25 Q17.7 48.4 16.8 47.5 16.25 46.95 16.25 45.95 M19.3 38.45 L19.35 38.2 19.6 39.1 18.75 38.1 Q19.1 38.2 19.3 38.45 M17.75 38.25 L18.55 39.05 Q18.9 39.35 18.75 39.55 L18.15 39.65 18.25 39.65 Q17.2 38.7 17.75 38.25 M22.05 37.25 Q21.75 36.35 21.15 35.8 22.1 35.75 22.95 36.85 L23.65 38.0 23.7 37.95 23.6 38.65 Q22.75 39.2 22.05 37.25" fill="url(#gradient16)" fill-rule="evenodd" stroke="none"/>
    <path d="M-9.4 40.85 Q-8.9 39.6 -7.95 39.45 -7.0 39.35 -6.05 40.5 L-5.35 41.65 -4.8 40.85 Q-4.1 40.15 -3.25 40.5 -1.9 41.05 -2.15 42.1 L-1.55 41.8 Q-0.9 41.65 -0.65 42.45 -0.2 43.8 -1.05 44.8 L-0.5 45.3 Q0.05 45.95 0.05 46.8 0.05 48.2 -0.85 48.45 L-0.35 48.75 Q0.05 49.15 -0.35 49.75 L-1.4 49.7 Q-1.25 51.55 -2.4 51.85 -3.1 52.05 -3.75 51.25 L-4.25 50.45 Q-4.15 51.6 -4.85 51.75 -5.5 51.9 -6.1 50.55 -6.05 51.8 -7.45 52.4 -8.35 52.8 -9.55 51.9 L-10.55 50.9 Q-11.3 52.05 -12.2 51.15 -12.75 50.6 -12.7 49.6 L-12.6 48.7 Q-13.65 47.3 -13.1 45.8 -12.7 44.9 -11.7 45.1 -11.2 45.2 -10.8 45.45 -12.0 44.05 -11.75 43.55 -11.6 43.25 -11.15 43.25 L-10.75 43.3 -11.25 42.7 Q-11.65 42.1 -11.1 41.8 -10.6 41.55 -10.1 41.8 L-9.7 42.1 -9.4 40.85" fill="url(#gradient17)" fill-rule="evenodd" stroke="none"/>
    <path d="M-9.65 41.85 L-9.4 42.75 -10.25 41.75 Q-9.9 41.85 -9.7 42.1 L-9.65 41.85 M-10.75 43.3 Q-11.8 42.35 -11.25 41.9 L-10.45 42.7 Q-10.05 43.0 -10.2 43.2 L-10.75 43.3 -10.85 43.25 -10.75 43.3 M-5.4 42.25 Q-5.35 42.7 -5.85 42.45 -6.45 42.15 -6.9 40.9 -7.25 40.0 -7.8 39.45 -6.35 39.35 -5.35 41.65 L-5.3 41.55 -5.4 42.25 M-3.45 40.5 L-3.55 40.4 -3.25 40.5 Q-2.15 40.95 -2.15 42.1 L-2.7 43.4 Q-2.9 41.15 -3.45 40.5 M-13.1 45.8 L-12.6 45.2 Q-12.5 47.05 -12.1 47.15 L-10.85 47.0 Q-10.9 47.9 -11.5 47.95 -11.95 48.0 -12.15 48.8 -12.3 49.65 -11.8 50.0 -11.1 50.45 -10.6 48.9 L-9.95 50.15 Q-9.05 51.4 -8.0 51.2 -6.95 51.0 -6.9 49.6 L-7.1 48.25 -6.8 48.6 -6.35 49.4 -5.6 50.4 Q-4.95 50.8 -4.8 50.15 L-4.2 48.4 Q-3.7 50.5 -2.75 50.15 -1.8 49.8 -2.45 48.15 -1.85 49.05 -1.25 48.8 -0.65 48.55 -2.3 47.45 -0.95 47.3 -0.9 46.15 -0.85 45.45 -1.8 45.25 L-2.7 45.2 Q-1.0 44.55 -0.85 43.4 L-0.75 42.15 -0.65 42.45 Q-0.2 43.8 -1.05 44.8 L-0.5 45.3 Q0.05 45.95 0.05 46.8 0.05 48.2 -0.85 48.45 L-0.35 48.75 Q0.05 49.15 -0.35 49.75 L-1.4 49.7 Q-1.25 51.55 -2.4 51.85 -3.1 52.05 -3.75 51.25 L-4.25 50.45 Q-4.15 51.6 -4.85 51.75 -5.5 51.9 -6.1 50.55 -6.05 51.8 -7.45 52.4 -8.35 52.8 -9.55 51.9 L-10.55 50.9 Q-11.3 52.05 -12.2 51.15 -12.75 50.6 -12.7 49.6 L-12.6 48.7 Q-13.65 47.3 -13.1 45.8 M-10.3 45.55 L-10.85 45.4 Q-11.9 44.1 -11.75 43.65 -11.55 44.3 -10.8 44.75 L-10.3 45.55" fill="url(#gradient18)" fill-rule="evenodd" stroke="none"/>
    <path d="M11.85 45.85 Q10.65 44.45 10.9 44.0 11.05 43.7 11.5 43.7 L11.9 43.7 11.45 43.15 Q11.05 42.5 11.55 42.25 12.05 42.0 12.55 42.25 L12.95 42.55 13.25 41.3 Q13.75 40.05 14.7 39.9 15.65 39.75 16.6 40.9 L17.35 42.1 17.85 41.3 Q18.55 40.6 19.4 40.95 20.75 41.45 20.5 42.55 L21.1 42.2 Q21.75 42.05 22.05 42.9 22.45 44.2 21.6 45.25 L22.15 45.75 Q22.7 46.4 22.7 47.25 22.75 48.65 21.8 48.9 L22.3 49.2 Q22.7 49.6 22.3 50.2 L21.25 50.15 Q21.4 51.95 20.25 52.25 19.55 52.45 18.9 51.7 L18.4 50.9 Q18.5 52.0 17.8 52.2 17.15 52.35 16.55 51.0 16.65 52.2 15.2 52.8 14.3 53.2 13.1 52.3 L12.1 51.35 Q11.35 52.45 10.5 51.55 9.95 51.0 9.95 50.0 L10.05 49.1 Q9.0 47.75 9.55 46.25 9.95 45.3 10.95 45.5 11.45 45.6 11.85 45.85" fill="url(#gradient19)" fill-rule="evenodd" stroke="none"/>
    <path d="M20.4 41.8 L20.5 42.5 19.95 43.85 Q19.8 41.6 19.2 40.95 L19.1 40.85 19.4 40.95 Q20.15 41.25 20.4 41.8 M17.25 42.7 Q17.3 43.15 16.8 42.85 16.2 42.55 15.75 41.3 L14.85 39.85 Q15.75 39.8 16.65 40.95 L17.35 42.1 17.25 42.7 M13.0 42.25 L13.25 43.15 12.4 42.2 12.95 42.55 13.0 42.25 M9.55 46.25 L10.05 45.6 Q10.15 47.45 10.6 47.55 L11.8 47.4 Q11.75 48.35 11.15 48.4 10.7 48.45 10.5 49.25 10.35 50.1 10.85 50.4 11.6 50.9 12.05 49.3 L12.7 50.55 Q13.6 51.8 14.65 51.6 15.7 51.45 15.75 50.05 L15.55 48.7 15.85 49.0 16.3 49.85 Q16.5 50.45 17.05 50.8 17.7 51.25 17.85 50.55 L18.45 48.85 Q18.95 50.9 19.9 50.6 20.85 50.25 20.2 48.6 20.8 49.5 21.4 49.25 22.0 48.95 20.35 47.9 21.7 47.75 21.75 46.6 21.8 45.9 20.9 45.7 L20.0 45.65 Q21.65 45.0 21.85 43.8 L21.9 42.55 22.05 42.9 Q22.45 44.2 21.6 45.25 L22.15 45.75 Q22.7 46.4 22.7 47.25 22.75 48.65 21.8 48.9 L22.3 49.2 Q22.7 49.6 22.3 50.2 L21.25 50.15 Q21.4 51.95 20.25 52.25 19.55 52.45 18.9 51.7 L18.4 50.9 Q18.5 52.0 17.8 52.2 17.15 52.35 16.55 51.0 16.65 52.2 15.2 52.8 14.3 53.2 13.1 52.3 L12.1 51.35 Q11.35 52.45 10.5 51.55 9.95 51.0 9.95 50.0 L10.05 49.1 Q9.0 47.75 9.55 46.25 M12.35 45.95 L11.85 45.85 Q10.75 44.55 10.9 44.05 11.1 44.7 11.85 45.2 L12.35 45.95 M11.9 43.7 Q10.85 42.8 11.4 42.35 L12.2 43.15 Q12.6 43.45 12.45 43.65 L11.8 43.7 11.9 43.7" fill="url(#gradient20)" fill-rule="evenodd" stroke="none"/>
    <path d="M2.8 34.55 Q2.85 34.05 3.05 33.6 3.55 32.65 4.6 32.75 5.65 32.9 5.95 33.95 L6.0 35.0 6.55 34.3 Q7.35 33.6 8.55 33.8 9.75 33.95 9.9 35.3 L9.85 36.6 10.9 36.2 13.0 36.4 Q13.9 36.95 13.65 38.05 L13.25 39.05 14.4 38.75 Q15.65 38.65 16.1 39.9 16.55 41.15 15.95 41.75 L15.25 42.05 16.15 43.25 Q16.95 44.65 16.3 45.75 15.65 46.9 14.75 47.25 L14.0 47.35 14.25 48.4 Q14.3 49.5 13.25 49.6 12.2 49.75 11.45 49.0 L10.9 48.2 10.95 49.15 Q10.7 50.2 9.5 50.65 8.25 51.1 7.5 50.15 L6.95 49.05 Q6.2 50.35 5.15 49.8 4.5 49.45 4.1 48.55 L3.85 47.7 Q3.65 48.4 1.1 48.2 -0.5 48.1 -0.55 46.8 L-0.3 45.55 -1.35 46.3 Q-2.45 46.75 -2.65 45.35 -2.9 44.0 -2.3 43.25 L-1.65 42.8 -2.3 42.6 Q-3.0 42.15 -3.05 40.95 -3.1 39.7 -2.1 39.4 L-1.05 39.35 -1.55 37.0 Q-1.55 36.35 -0.6 36.15 L0.35 36.05 Q-0.5 35.25 -0.05 34.35 0.35 33.55 1.2 33.3 1.8 33.1 2.35 33.8 L2.8 34.55" fill="url(#gradient21)" fill-rule="evenodd" stroke="none"/>
    <path d="M10.7 36.5 L9.05 37.6 Q9.6 35.45 8.65 33.8 9.75 34.0 9.9 35.35 L9.85 36.6 10.9 36.2 13.0 36.4 Q13.8 36.9 13.7 37.95 L13.3 39.05 12.3 39.65 Q13.15 38.9 12.75 37.05 12.45 35.7 10.7 36.5 M-2.1 39.4 L-1.05 39.35 -1.55 37.0 Q-1.55 36.55 -1.1 36.3 -1.35 37.3 -1.0 38.25 -0.6 39.4 0.4 39.65 L1.3 39.65 -0.75 39.8 Q-1.55 39.5 -1.9 40.3 -2.25 41.05 -1.65 41.65 -0.9 42.45 0.05 41.85 L-0.75 43.0 Q-1.4 44.2 -0.85 44.55 0.1 45.05 1.15 43.75 L1.0 44.95 Q1.1 46.15 2.25 46.1 3.4 46.05 3.95 45.45 L4.25 44.8 4.65 46.1 Q5.2 47.35 6.2 47.05 7.85 46.5 7.85 45.45 L8.6 46.65 Q9.5 47.75 10.15 47.25 10.8 46.75 10.6 45.6 L10.3 44.5 11.2 45.2 Q12.25 45.75 12.8 45.05 13.65 44.1 12.3 42.9 L14.25 42.85 Q14.5 41.9 13.8 41.05 L13.0 40.4 14.5 40.75 Q16.0 40.85 16.1 39.9 16.55 41.15 15.95 41.75 L15.25 42.05 16.15 43.25 Q16.95 44.65 16.3 45.75 15.65 46.9 14.75 47.25 L14.0 47.35 14.25 48.4 Q14.3 49.5 13.25 49.6 12.2 49.75 11.45 49.0 L10.9 48.2 10.95 49.15 Q10.7 50.2 9.5 50.65 8.25 51.1 7.5 50.15 L6.95 49.05 Q6.2 50.35 5.15 49.8 4.5 49.45 4.1 48.55 L3.85 47.7 Q3.65 48.4 1.1 48.2 -0.5 48.1 -0.55 46.8 L-0.3 45.55 -1.35 46.3 Q-2.45 46.75 -2.65 45.35 -2.9 44.0 -2.3 43.25 L-1.65 42.8 -2.3 42.6 Q-3.0 42.15 -3.05 40.95 -3.1 39.7 -2.1 39.4" fill="url(#gradient22)" fill-rule="evenodd" stroke="none"/>
  </g>
  <defs>
    <linearGradient gradientTransform="matrix(0.0247, 0.0, 0.0, -0.0247, 0.3, -5.6)" gradientUnits="userSpaceOnUse" id="gradient0" spreadMethod="pad" x1="-819.2" x2="819.2">
      <stop offset="0.0" stop-color="#8aecc9"/>
      <stop offset="0.5294117647058824" stop-color="#5ce5ba"/>
      <stop offset="1.0" stop-color="#8aecc9"/>
    </linearGradient>
    <linearGradient gradientTransform="matrix(0.0223, 0.0, 0.0, -0.0223, -1.65, -5.35)" gradientUnits="userSpaceOnUse" id="gradient1" spreadMethod="pad" x1="-819.2" x2="819.2">
      <stop offset="0.0" stop-color="#5ce5ba"/>
      <stop offset="0.5294117647058824" stop-color="#10989a"/>
      <stop offset="1.0" stop-color="#5ce5ba"/>
    </linearGradient>
    <radialGradient cx="0" cy="0" gradientTransform="matrix(0.0114, 0.0, 0.0, -0.0114, 2.35, 36.3)" gradientUnits="userSpaceOnUse" id="gradient2" r="819.2" spreadMethod="pad">
      <stop offset="0.0" stop-color="#ffffff"/>
      <stop offset="1.0" stop-color="#cbd5d5"/>
    </radialGradient>
    <linearGradient gradientTransform="matrix(0.0114, 0.0, 0.0, -0.0114, 2.35, 36.3)" gradientUnits="userSpaceOnUse" id="gradient3" spreadMethod="pad" x1="-819.2" x2="819.2">
      <stop offset="0.0" stop-color="#b0bfbf"/>
      <stop offset="1.0" stop-color="#90a5a5"/>
    </linearGradient>
    <radialGradient cx="0" cy="0" gradientTransform="matrix(0.0104, 0.0, 0.0, -0.0104, -17.95, 40.5)" gradientUnits="userSpaceOnUse" id="gradient4" r="819.2" spreadMethod="pad">
      <stop offset="0.0" stop-color="#ffffff"/>
      <stop offset="1.0" stop-color="#cbd5d5"/>
    </radialGradient>
    <linearGradient gradientTransform="matrix(0.0103, 0.0, 0.0, -0.0103, -17.95, 40.5)" gradientUnits="userSpaceOnUse" id="gradient5" spreadMethod="pad" x1="-819.2" x2="819.2">
      <stop offset="0.0" stop-color="#b0bfbf"/>
      <stop offset="1.0" stop-color="#90a5a5"/>
    </linearGradient>
    <radialGradient cx="0" cy="0" gradientTransform="matrix(0.0119, 0.0, 0.0, -0.0105, 15.5, 37.75)" gradientUnits="userSpaceOnUse" id="gradient6" r="819.2" spreadMethod="pad">
      <stop offset="0.0" stop-color="#ffffff"/>
      <stop offset="1.0" stop-color="#cbd5d5"/>
    </radialGradient>
    <linearGradient gradientTransform="matrix(0.0113, 0.0, 0.0, -0.0113, 15.5, 38.25)" gradientUnits="userSpaceOnUse" id="gradient7" spreadMethod="pad" x1="-819.2" x2="819.2">
      <stop offset="0.0" stop-color="#b0bfbf"/>
      <stop offset="1.0" stop-color="#90a5a5"/>
    </linearGradient>
    <radialGradient cx="0" cy="0" gradientTransform="matrix(0.0031, 0.0, 0.0, -0.0031, 10.3, 27.95)" gradientUnits="userSpaceOnUse" id="gradient8" r="819.2" spreadMethod="pad">
      <stop offset="0.0" stop-color="#ffffff"/>
      <stop offset="1.0" stop-color="#cbd5d5"/>
    </radialGradient>
    <linearGradient gradientTransform="matrix(0.0031, 0.0, 0.0, -0.0031, 10.3, 28.15)" gradientUnits="userSpaceOnUse" id="gradient9" spreadMethod="pad" x1="-819.2" x2="819.2">
      <stop offset="0.0" stop-color="#b0bfbf"/>
      <stop offset="1.0" stop-color="#90a5a5"/>
    </linearGradient>
    <radialGradient cx="0" cy="0" gradientTransform="matrix(0.0023, 0.0, 0.0, -0.0023, -15.0, 29.3)" gradientUnits="userSpaceOnUse" id="gradient10" r="819.2" spreadMethod="pad">
      <stop offset="0.0" stop-color="#ffffff"/>
      <stop offset="1.0" stop-color="#cbd5d5"/>
    </radialGradient>
    <linearGradient gradientTransform="matrix(0.0023, 0.0, 0.0, -0.0023, -15.0, 29.35)" gradientUnits="userSpaceOnUse" id="gradient11" spreadMethod="pad" x1="-819.2" x2="819.2">
      <stop offset="0.0" stop-color="#b0bfbf"/>
      <stop offset="1.0" stop-color="#90a5a5"/>
    </linearGradient>
    <radialGradient cx="0" cy="0" gradientTransform="matrix(7.0E-4, 0.0, 0.0, -7.0E-4, 18.15, 27.5)" gradientUnits="userSpaceOnUse" id="gradient12" r="819.2" spreadMethod="pad">
      <stop offset="0.0" stop-color="#ffffff"/>
      <stop offset="1.0" stop-color="#cbd5d5"/>
    </radialGradient>
    <radialGradient cx="0" cy="0" gradientTransform="matrix(-0.01, 0.0048, -0.004, -0.0105, -9.0, 33.3)" gradientUnits="userSpaceOnUse" id="gradient13" r="819.2" spreadMethod="pad">
      <stop offset="0.0" stop-color="#ffffff"/>
      <stop offset="1.0" stop-color="#cbd5d5"/>
    </radialGradient>
    <linearGradient gradientTransform="matrix(-0.0064, 0.005, -0.005, -0.0064, -8.8, 37.55)" gradientUnits="userSpaceOnUse" id="gradient14" spreadMethod="pad" x1="-819.2" x2="819.2">
      <stop offset="0.0" stop-color="#b0bfbf"/>
      <stop offset="1.0" stop-color="#90a5a5"/>
    </linearGradient>
    <radialGradient cx="0" cy="0" gradientTransform="matrix(0.0111, 0.0, -8.0E-4, -0.0112, 21.0, 38.75)" gradientUnits="userSpaceOnUse" id="gradient15" r="819.2" spreadMethod="pad">
      <stop offset="0.0" stop-color="#ffffff"/>
      <stop offset="1.0" stop-color="#cbd5d5"/>
    </radialGradient>
    <linearGradient gradientTransform="matrix(0.0079, 0.0018, 0.0018, -0.0079, 22.6, 42.65)" gradientUnits="userSpaceOnUse" id="gradient16" spreadMethod="pad" x1="-819.2" x2="819.2">
      <stop offset="0.0" stop-color="#b0bfbf"/>
      <stop offset="1.0" stop-color="#90a5a5"/>
    </linearGradient>
    <radialGradient cx="0" cy="0" gradientTransform="matrix(0.0111, 0.0, -8.0E-4, -0.0112, -8.0, 42.35)" gradientUnits="userSpaceOnUse" id="gradient17" r="819.2" spreadMethod="pad">
      <stop offset="0.0" stop-color="#ffffff"/>
      <stop offset="1.0" stop-color="#cbd5d5"/>
    </radialGradient>
    <linearGradient gradientTransform="matrix(0.0079, 0.0018, 0.0018, -0.0079, -6.35, 46.3)" gradientUnits="userSpaceOnUse" id="gradient18" spreadMethod="pad" x1="-819.2" x2="819.2">
      <stop offset="0.0" stop-color="#b0bfbf"/>
      <stop offset="1.0" stop-color="#90a5a5"/>
    </linearGradient>
    <radialGradient cx="0" cy="0" gradientTransform="matrix(0.0111, 0.0, -8.0E-4, -0.0112, 14.65, 42.8)" gradientUnits="userSpaceOnUse" id="gradient19" r="819.2" spreadMethod="pad">
      <stop offset="0.0" stop-color="#ffffff"/>
      <stop offset="1.0" stop-color="#cbd5d5"/>
    </radialGradient>
    <linearGradient gradientTransform="matrix(0.0079, 0.0018, 0.0018, -0.0079, 16.3, 46.75)" gradientUnits="userSpaceOnUse" id="gradient20" spreadMethod="pad" x1="-819.2" x2="819.2">
      <stop offset="0.0" stop-color="#b0bfbf"/>
      <stop offset="1.0" stop-color="#90a5a5"/>
    </linearGradient>
    <radialGradient cx="0" cy="0" gradientTransform="matrix(0.0115, 0.0, 0.0, -0.0115, 6.75, 41.75)" gradientUnits="userSpaceOnUse" id="gradient21" r="819.2" spreadMethod="pad">
      <stop offset="0.0" stop-color="#ffffff"/>
      <stop offset="1.0" stop-color="#cbd5d5"/>
    </radialGradient>
    <linearGradient gradientTransform="matrix(0.012, 0.0, 0.0, -0.012, 6.75, 42.3)" gradientUnits="userSpaceOnUse" id="gradient22" spreadMethod="pad" x1="-819.2" x2="819.2">
      <stop offset="0.0" stop-color="#b0bfbf"/>
      <stop offset="1.0" stop-color="#90a5a5"/>
    </linearGradient>
  </defs>
</svg>
