<?xml version="1.0" encoding="UTF-8" standalone="no"?>
<svg xmlns:ffdec="https://www.free-decompiler.com/flash" xmlns:xlink="http://www.w3.org/1999/xlink" ffdec:objectType="shape" height="104.55px" width="55.15px" xmlns="http://www.w3.org/2000/svg">
  <g transform="matrix(1.0, 0.0, 0.0, 1.0, 28.0, 51.75)">
    <path d="M15.1 -44.15 Q16.2 -40.9 17.1 -29.95 L18.55 -12.45 20.75 14.4 22.3 34.75 Q22.6 36.3 19.75 38.35 18.55 39.2 9.65 40.3 L-9.0 41.5 Q-17.3 41.55 -19.65 39.5 -20.55 38.7 -20.75 36.05 L-20.4 27.05 Q-19.95 18.45 -20.05 15.75 L-19.85 0.25 -19.05 -23.7 Q-18.55 -34.9 -15.4 -42.45 -12.7 -49.05 -9.65 -49.45 -6.05 -49.9 -5.5 -50.6 -4.2 -51.9 -0.55 -51.7 L3.85 -50.9 Q4.4 -50.65 6.35 -50.9 8.2 -51.15 9.05 -50.6 9.85 -50.1 11.95 -49.05 13.9 -47.6 15.1 -44.15" fill="url(#gradient0)" fill-rule="evenodd" stroke="none"/>
    <path d="M-11.5 41.45 L-12.7 41.4 -12.75 29.1 -11.5 41.45 M-3.05 11.45 Q-2.85 7.1 -2.4 20.75 L-1.8 41.3 -3.95 41.4 Q-3.25 38.5 -3.2 27.25 L-3.05 11.45 M-8.25 -46.6 Q-7.9 -48.0 -9.15 -39.75 -10.9 -27.65 -11.1 -21.8 L-11.9 28.25 Q-12.0 33.45 -12.2 32.55 L-12.55 26.75 -13.55 7.4 -13.8 -0.85 -14.4 1.95 Q-16.0 9.95 -17.75 7.7 -18.35 6.9 -18.9 0.15 L-19.3 -6.4 -19.45 13.25 Q-19.55 34.05 -19.05 39.9 -20.3 39.15 -20.6 37.9 L-20.75 36.05 -20.4 27.05 Q-19.95 18.45 -20.05 15.75 L-19.85 0.25 -19.05 -23.7 Q-18.55 -34.05 -15.85 -41.35 -13.5 -47.75 -10.6 -49.15 -13.75 -44.0 -15.75 -36.25 -18.9 -24.2 -18.45 -8.6 -17.9 10.95 -15.95 0.2 -15.45 -2.65 -13.25 -21.4 -12.2 -30.2 -8.25 -46.6 M-5.95 -50.3 L-5.05 -50.95 Q-7.7 -34.15 -7.5 -28.0 -7.3 -22.4 -6.5 -21.25 -6.05 -20.55 -4.9 -21.55 -4.3 -22.05 -3.35 -26.9 -2.0 -34.05 -0.75 -38.5 L1.05 -46.1 2.05 -51.4 2.95 -51.2 Q1.15 -35.05 2.7 -31.3 3.9 -28.4 5.35 -35.45 L6.6 -43.1 Q7.05 -39.25 7.75 -35.35 9.2 -27.6 10.75 -27.45 12.3 -27.25 12.1 -35.95 L11.65 -44.7 Q12.4 -39.6 12.75 -34.6 13.4 -24.55 11.35 -24.85 9.3 -25.15 7.75 -30.75 L6.6 -36.35 6.05 -32.15 Q5.15 -28.0 3.45 -28.0 1.75 -28.0 1.25 -32.65 L1.1 -37.35 0.3 -32.25 Q-0.5 -25.7 -0.3 -18.5 0.0 -5.05 0.65 4.9 1.65 19.8 3.15 20.35 4.6 20.9 6.0 12.4 L7.15 3.8 8.6 15.25 Q10.4 26.65 12.2 26.1 14.0 25.55 14.45 14.95 L14.5 4.4 14.8 13.55 Q14.9 23.35 14.2 26.4 13.45 29.7 12.2 28.6 11.3 27.85 10.05 24.65 9.25 22.6 8.25 16.95 L7.45 11.7 6.75 15.75 Q5.85 20.05 4.85 21.2 3.75 22.55 2.8 21.7 1.9 20.9 1.55 18.9 L2.0 26.75 Q2.65 35.55 3.7 40.2 L3.9 40.9 1.35 41.1 -0.9 1.2 -1.75 -14.55 -2.35 -25.15 Q-2.35 -25.85 -3.8 -21.45 -5.65 -15.8 -7.1 -18.95 -8.7 -22.4 -8.4 -31.3 -8.25 -37.35 -7.35 -43.7 -7.0 -46.5 -5.95 -50.3 M16.1 -19.1 L17.85 -3.6 Q19.6 13.3 19.4 20.2 19.2 28.7 19.5 38.5 18.0 39.15 13.25 39.8 12.15 39.35 11.15 38.4 9.6 37.0 9.05 35.05 8.45 32.8 7.95 28.95 L7.6 25.55 8.6 30.0 Q9.8 34.6 10.75 35.6 12.8 37.65 14.35 37.85 16.85 38.2 17.65 33.6 18.45 29.2 18.35 17.45 L18.1 6.55 16.1 -19.1 M17.5 -24.55 Q15.2 -41.45 14.35 -43.7 13.65 -45.5 11.15 -49.55 13.7 -48.05 15.1 -44.15 15.9 -41.8 16.55 -36.0 L17.5 -24.55 M14.2 -18.1 L14.45 -7.85 Q14.45 2.3 13.5 1.65 12.55 1.05 10.85 -7.45 L9.35 -15.8 8.2 -7.65 Q6.7 0.45 5.15 0.35 3.6 0.25 2.7 -9.0 L2.15 -18.2 3.1 -9.35 Q4.35 -0.9 5.8 -2.95 7.25 -5.05 8.05 -12.35 L8.5 -19.25 10.6 -11.45 Q12.75 -3.45 13.2 -2.4 13.85 -0.65 14.2 -18.1" fill="url(#gradient1)" fill-rule="evenodd" stroke="none"/>
    <path d="M-6.5 10.35 L-5.75 14.45 Q-4.8 18.45 -4.0 18.05 -2.7 17.4 -1.9 9.7 -1.75 12.0 -0.45 14.95 1.0 18.2 2.45 18.05 3.8 17.95 5.55 13.45 L7.05 9.0 8.3 12.8 Q9.75 16.65 10.95 16.85 12.15 17.05 13.1 12.85 L13.8 8.6 Q13.8 10.3 15.75 14.15 17.8 18.15 18.6 17.15 19.8 15.75 20.15 7.15 L20.5 12.75 Q20.7 18.65 19.8 20.25 18.95 21.85 16.65 17.45 L14.5 12.75 13.85 15.55 Q12.95 18.45 11.55 19.05 10.15 19.7 8.55 16.7 L7.2 13.55 6.25 16.6 Q5.0 19.95 3.3 21.45 1.6 23.0 -0.25 19.35 L-1.75 15.4 -2.1 17.6 Q-2.65 20.2 -3.55 21.9 -4.4 23.6 -5.4 19.55 L-6.25 15.1 -7.3 18.75 Q-8.75 22.6 -10.75 23.55 -12.7 24.5 -14.35 19.95 L-15.55 15.2 -17.4 18.05 Q-19.45 20.6 -20.5 19.35 -21.55 18.15 -20.8 13.7 L-19.9 9.55 -20.1 12.85 Q-20.05 16.15 -18.85 15.85 -17.7 15.55 -16.3 12.4 L-15.1 9.25 -14.05 14.3 Q-12.7 19.35 -11.1 19.35 -9.45 19.35 -7.8 14.85 L-6.5 10.35" fill="#ffffff" fill-rule="evenodd" stroke="none"/>
    <path d="M12.5 -16.1 L14.1 -11.55 Q15.85 -6.95 16.6 -6.55 17.8 -5.85 18.15 -15.1 L18.3 -10.5 Q18.25 -5.7 17.2 -4.9 16.15 -4.05 14.4 -8.5 L12.85 -13.15 12.35 -9.65 Q11.65 -5.9 10.5 -4.55 9.4 -3.15 7.75 -7.5 L6.3 -12.15 5.7 -9.05 Q4.8 -5.6 3.35 -4.0 1.9 -2.4 0.6 -7.4 L-0.35 -12.7 -0.9 -9.15 Q-1.7 -5.35 -3.1 -4.1 -4.5 -2.85 -6.25 -7.2 L-7.75 -11.8 -8.45 -7.25 Q-9.5 -2.6 -11.15 -2.1 -12.8 -1.65 -14.1 -5.2 L-15.1 -8.85 -16.45 -5.15 Q-18.1 -1.85 -19.5 -3.55 -20.9 -5.25 -20.25 -11.2 L-19.3 -16.75 Q-19.5 -10.95 -18.9 -7.8 -18.3 -4.85 -17.25 -5.3 -15.85 -5.85 -15.3 -13.15 L-14.4 -8.9 Q-13.2 -4.65 -11.85 -4.45 -10.5 -4.25 -9.1 -10.15 L-8.0 -16.1 -6.75 -11.6 Q-5.3 -7.0 -4.2 -6.4 -3.1 -5.8 -1.8 -10.95 L-0.75 -16.2 0.25 -11.65 Q1.45 -6.9 2.35 -6.1 3.3 -5.25 4.85 -9.8 L6.2 -14.55 7.35 -10.6 Q8.65 -6.65 9.65 -6.65 10.6 -6.65 11.65 -11.35 L12.5 -16.1" fill="#ffffff" fill-rule="evenodd" stroke="none"/>
    <path d="M12.6 -31.5 Q12.05 -29.6 10.9 -29.55 9.8 -29.5 8.1 -32.9 L6.6 -36.35 5.4 -31.95 Q3.9 -27.65 2.65 -28.05 1.35 -28.4 0.35 -31.05 L-0.45 -33.65 -1.6 -31.0 Q-3.0 -28.4 -4.2 -28.4 -5.4 -28.4 -6.45 -31.0 L-7.2 -33.65 Q-9.45 -28.95 -10.9 -28.85 -11.75 -28.8 -12.25 -31.05 L-12.6 -33.3 -13.6 -30.95 Q-14.85 -28.7 -16.3 -28.95 -18.2 -29.25 -18.4 -32.6 -18.65 -36.2 -16.4 -39.85 L-17.0 -37.95 Q-17.55 -35.7 -17.45 -33.9 -17.35 -31.65 -16.35 -31.05 -15.35 -30.4 -14.35 -31.95 -13.0 -34.05 -12.1 -36.95 L-11.85 -34.1 Q-11.5 -31.15 -10.75 -30.6 -10.0 -30.05 -8.3 -33.4 -7.45 -35.1 -6.75 -36.9 L-6.15 -33.75 Q-5.3 -30.65 -3.9 -30.9 -2.5 -31.1 -1.05 -34.1 L0.1 -37.05 0.55 -34.4 Q1.25 -31.8 2.55 -31.8 3.85 -31.8 5.5 -36.05 L6.9 -40.3 7.9 -36.15 Q9.2 -32.0 10.7 -31.8 12.2 -31.6 12.35 -35.05 L12.2 -38.5 13.1 -35.0 Q14.2 -31.7 15.5 -32.55 16.75 -33.4 16.5 -36.8 L16.0 -40.05 17.05 -36.35 Q18.0 -32.35 17.3 -30.75 16.65 -29.3 15.3 -30.4 14.2 -31.3 12.95 -33.45 L12.6 -31.5" fill="#ffffff" fill-rule="evenodd" stroke="none"/>
    <path d="M-11.1 -47.55 Q-10.0 -49.2 -10.85 -46.6 -11.65 -44.1 -12.1 -44.65 -12.45 -45.1 -11.8 -46.4 L-11.1 -47.55" fill="#ffffff" fill-rule="evenodd" stroke="none"/>
    <path d="M-9.25 -47.65 Q-8.6 -48.15 -9.05 -46.35 -9.45 -44.45 -9.75 -44.65 -10.0 -44.75 -9.65 -46.2 L-9.25 -47.65" fill="#ffffff" fill-rule="evenodd" stroke="none"/>
    <path d="M-4.75 -48.4 Q-3.75 -50.1 -4.25 -46.95 -4.8 -43.65 -5.25 -43.45 -5.55 -43.3 -5.15 -45.85 L-4.75 -48.4" fill="#ffffff" fill-rule="evenodd" stroke="none"/>
    <path d="M-3.0 -48.5 Q-2.5 -49.75 -2.35 -46.85 -2.25 -44.05 -2.95 -43.35 -3.55 -42.75 -3.35 -45.55 L-3.0 -48.5" fill="#ffffff" fill-rule="evenodd" stroke="none"/>
    <path d="M-0.6 -48.35 Q-0.15 -48.9 -0.15 -46.8 -0.1 -44.7 -0.5 -44.2 -1.05 -43.5 -0.6 -48.35" fill="#ffffff" fill-rule="evenodd" stroke="none"/>
    <path d="M3.75 -48.2 Q4.0 -49.2 4.25 -46.45 4.55 -43.85 4.0 -43.45 3.45 -43.05 3.55 -45.6 L3.75 -48.2" fill="#ffffff" fill-rule="evenodd" stroke="none"/>
    <path d="M5.4 -48.5 Q6.35 -49.1 6.2 -47.15 6.05 -45.15 5.65 -45.15 5.4 -45.15 5.4 -46.8 L5.4 -48.5" fill="#ffffff" fill-rule="evenodd" stroke="none"/>
    <path d="M8.8 -47.5 L9.05 -44.65 Q8.9 -44.65 8.85 -46.05 L8.8 -47.5" fill="#ffffff" fill-rule="evenodd" stroke="none"/>
    <path d="M10.7 -47.8 Q11.0 -48.2 11.15 -46.7 11.3 -45.2 10.9 -44.7 10.55 -44.3 10.6 -46.0 L10.7 -47.8" fill="#ffffff" fill-rule="evenodd" stroke="none"/>
    <path d="M-14.3 31.95 L-14.6 30.75 Q-14.65 29.5 -13.55 29.35 -12.4 29.25 -11.85 29.7 L-11.5 30.15 -10.85 29.4 Q-10.05 28.65 -9.45 28.95 -8.55 29.4 -8.2 31.1 L-7.35 30.8 Q-6.4 30.6 -5.8 31.1 -4.85 31.9 -4.85 33.0 L-3.8 33.05 Q-2.6 33.3 -1.95 34.0 -0.9 35.15 -1.55 36.2 L-1.1 36.85 Q-0.7 37.7 -0.7 38.5 -0.7 39.75 -1.7 40.15 L-1.3 41.0 Q-0.9 42.0 -1.1 43.0 -1.4 44.6 -3.35 44.8 L-3.55 45.7 Q-3.85 46.7 -4.5 47.25 -5.5 48.15 -8.1 46.5 -9.15 47.95 -10.75 47.7 -11.7 47.5 -12.35 46.6 L-12.8 45.75 Q-13.9 47.35 -14.95 47.15 -15.6 47.05 -15.8 46.1 L-15.9 45.15 -16.85 45.2 Q-17.85 45.05 -18.2 43.9 -18.5 42.75 -17.85 41.85 L-17.1 41.15 -18.2 40.95 Q-19.35 40.55 -19.3 39.45 -19.25 38.4 -17.95 38.0 L-16.65 37.8 -17.25 37.45 Q-17.85 36.85 -18.0 35.65 -18.15 34.45 -17.4 33.95 L-16.65 33.7 Q-17.55 33.35 -16.85 32.3 -16.4 31.65 -15.3 31.75 L-14.3 31.95" fill="url(#gradient2)" fill-rule="evenodd" stroke="none"/>
    <path d="M-18.2 40.95 Q-19.35 40.55 -19.3 39.45 -19.25 38.4 -17.95 38.0 L-16.65 37.8 -17.25 37.45 Q-17.85 36.85 -18.0 35.65 -18.1 34.95 -17.8 34.4 -17.8 36.35 -16.65 36.75 L-13.9 36.95 Q-15.65 37.95 -16.0 37.95 -16.5 37.95 -17.05 38.3 -17.85 38.8 -17.7 39.55 -17.5 40.7 -15.0 40.45 L-16.25 41.3 Q-17.4 42.35 -16.85 43.3 -16.3 44.25 -15.15 43.7 L-14.05 42.95 -14.0 43.8 Q-13.75 44.6 -12.85 44.45 -11.45 44.2 -11.5 42.6 -10.5 45.1 -9.3 44.55 -8.1 44.05 -7.8 42.35 L-7.25 43.4 Q-6.55 44.4 -5.5 44.1 -4.45 43.75 -4.35 42.3 L-4.45 40.95 -3.55 41.3 Q-2.65 41.45 -2.4 40.5 -2.2 39.6 -3.3 39.15 -4.05 38.8 -4.65 38.8 L-3.0 38.8 Q-1.6 38.65 -1.5 37.9 -1.35 37.15 -2.9 36.45 L-4.5 35.9 -3.15 35.5 Q-1.9 34.95 -2.35 34.15 -2.85 33.3 -4.5 33.35 -6.05 33.4 -6.6 34.05 -7.2 34.85 -6.9 35.9 L-7.2 34.6 Q-7.35 33.2 -6.6 32.75 -5.35 32.05 -5.7 31.2 -4.85 32.0 -4.85 33.0 L-3.8 33.05 Q-2.6 33.3 -1.95 34.0 -0.9 35.15 -1.55 36.2 L-1.1 36.85 Q-0.7 37.7 -0.7 38.5 -0.7 39.75 -1.7 40.15 L-1.3 41.0 Q-0.9 42.0 -1.1 43.0 -1.4 44.6 -3.35 44.8 L-3.55 45.7 Q-3.85 46.7 -4.5 47.25 -5.5 48.15 -8.1 46.5 -9.15 47.95 -10.75 47.7 -11.7 47.5 -12.35 46.6 L-12.8 45.75 Q-13.9 47.35 -14.95 47.15 -15.6 47.05 -15.8 46.1 L-15.9 45.15 -16.85 45.2 Q-17.85 45.05 -18.2 43.9 -18.5 42.75 -17.85 41.85 L-17.1 41.15 -18.2 40.95 M-9.25 29.6 L-9.55 28.95 -9.45 28.95 Q-8.55 29.4 -8.2 31.1 L-7.35 30.8 Q-9.1 31.65 -9.25 33.2 L-8.95 33.4 Q-8.65 33.65 -8.7 34.1 L-9.35 33.9 Q-10.25 33.3 -11.35 33.65 -12.6 34.0 -11.7 33.35 L-10.6 32.6 Q-9.0 31.15 -9.25 29.6 M-15.85 31.75 L-14.3 31.95 -13.55 32.45 -15.85 31.75 M-14.2 29.6 L-13.55 29.35 Q-12.4 29.25 -11.85 29.7 L-11.5 30.15 -11.45 30.1 -11.7 31.25 Q-13.0 29.8 -14.2 29.6" fill="url(#gradient3)" fill-rule="evenodd" stroke="none"/>
    <path d="M12.45 46.0 Q11.55 45.85 11.25 44.8 10.95 43.75 11.55 42.95 L12.25 42.3 11.25 42.15 Q10.2 41.75 10.25 40.75 10.3 39.8 11.45 39.4 L12.65 39.25 Q11.6 39.1 11.4 37.3 11.3 36.2 11.95 35.75 L12.65 35.5 Q11.8 35.2 12.45 34.25 12.85 33.65 13.85 33.75 L14.75 33.95 14.5 32.85 Q14.4 31.75 15.45 31.6 17.05 31.4 17.3 32.3 L17.9 31.6 Q18.6 30.95 19.15 31.2 20.0 31.65 20.3 33.15 L21.05 32.9 Q21.9 32.7 22.45 33.15 23.35 33.9 23.35 34.9 L24.3 34.95 Q25.4 35.15 26.0 35.8 26.95 36.85 26.35 37.8 L26.75 38.4 Q27.15 39.2 27.15 39.9 27.15 41.05 26.2 41.4 L26.6 42.15 Q26.95 43.05 26.8 44.0 26.6 44.9 25.65 45.35 L24.75 45.6 24.55 46.45 23.7 47.85 Q22.8 48.65 20.4 47.2 19.4 48.5 18.0 48.25 17.15 48.05 16.55 47.25 L16.1 46.5 Q15.1 47.9 14.15 47.75 13.6 47.65 13.4 46.75 L13.35 45.9 12.45 46.0" fill="url(#gradient4)" fill-rule="evenodd" stroke="none"/>
    <path d="M20.3 33.15 L21.1 32.9 Q19.5 33.65 19.35 35.05 L19.65 35.25 19.85 35.9 Q19.8 36.1 19.25 35.7 18.45 35.15 17.45 35.45 16.35 35.8 17.1 35.2 L18.1 34.55 Q19.6 33.2 19.35 31.8 L19.1 31.2 19.15 31.2 Q20.0 31.65 20.3 33.15 M15.45 34.35 L13.4 33.75 14.75 33.95 15.45 34.35 M17.3 32.3 L17.35 32.25 17.1 33.3 Q15.95 32.0 14.9 31.8 L15.45 31.6 Q17.05 31.4 17.3 32.3 M12.45 46.0 Q11.55 45.85 11.25 44.8 10.95 43.75 11.55 42.95 L12.25 42.3 11.25 42.15 Q10.2 41.75 10.25 40.75 10.3 39.8 11.45 39.4 L12.65 39.25 Q11.6 39.1 11.4 37.3 11.35 36.5 11.6 36.15 11.6 37.95 12.65 38.3 L15.1 38.45 Q13.55 39.4 13.25 39.4 12.8 39.4 12.25 39.75 11.5 40.15 11.65 40.85 11.85 41.9 14.1 41.65 L13.0 42.45 Q11.95 43.4 12.45 44.25 12.95 45.1 14.05 44.6 L15.0 43.95 15.05 44.7 Q15.25 45.45 16.05 45.3 17.35 45.1 17.3 43.6 18.2 45.85 19.3 45.4 20.4 44.9 20.7 43.4 L21.15 44.35 Q21.85 45.3 22.8 45.0 23.75 44.7 23.85 43.4 L23.75 42.15 24.5 42.45 Q25.35 42.6 25.55 41.7 25.85 40.55 23.5 40.15 L25.05 40.15 Q26.3 40.0 26.4 39.35 26.5 38.65 25.1 38.0 L23.7 37.5 24.9 37.15 Q26.0 36.65 25.6 35.95 25.2 35.15 23.7 35.2 22.25 35.25 21.8 35.85 21.2 36.55 21.45 37.5 L21.2 36.35 Q21.1 35.1 21.8 34.7 22.9 34.0 22.55 33.25 23.35 34.0 23.35 34.9 L24.3 34.95 Q25.4 35.15 26.0 35.8 26.95 36.85 26.35 37.8 L26.75 38.4 Q27.15 39.2 27.15 39.9 27.15 41.05 26.2 41.4 L26.6 42.15 Q26.95 43.05 26.8 44.0 26.6 44.9 25.65 45.35 L24.75 45.6 24.55 46.45 23.7 47.85 Q22.8 48.65 20.4 47.2 19.4 48.5 18.0 48.25 17.15 48.05 16.55 47.25 L16.1 46.5 Q15.1 47.9 14.15 47.75 13.6 47.65 13.4 46.75 L13.35 45.9 12.45 46.0" fill="url(#gradient5)" fill-rule="evenodd" stroke="none"/>
    <path d="M3.25 30.8 Q4.2 30.85 4.95 32.65 L5.05 32.2 Q5.3 31.7 6.0 31.75 7.05 31.8 7.45 33.2 L8.0 32.9 9.3 33.05 Q10.3 33.75 9.9 35.2 L10.3 35.35 11.4 36.4 Q12.3 37.6 11.4 38.8 L11.95 39.35 Q12.5 40.0 12.4 40.6 12.3 41.6 10.3 42.15 L10.75 42.55 Q11.2 43.1 11.05 43.7 10.8 44.7 8.95 44.8 L9.45 45.6 Q9.75 46.55 8.8 47.25 7.85 47.95 6.55 47.55 L5.45 46.95 Q5.1 48.3 3.5 48.7 2.45 49.0 1.05 48.1 L-0.15 47.15 Q-0.95 48.05 -2.55 47.65 -3.55 47.45 -3.75 46.4 L-3.75 45.45 -4.85 45.55 Q-5.95 45.45 -6.0 44.4 -6.05 43.35 -5.05 43.0 L-4.05 42.8 Q-5.6 42.7 -6.0 41.4 -6.25 40.55 -5.6 39.8 L-4.95 39.2 Q-5.8 38.45 -5.65 37.1 -5.5 36.25 -4.3 35.9 L-3.1 35.75 Q-3.6 35.35 -3.0 34.4 -2.6 33.85 -1.9 33.7 L-1.3 33.65 Q-2.0 32.95 -1.15 32.15 -0.65 31.7 0.3 31.6 L1.15 31.65 Q1.45 31.45 1.85 31.2 2.65 30.75 3.25 30.8" fill="url(#gradient6)" fill-rule="evenodd" stroke="none"/>
    <path d="M-5.6 39.8 L-4.95 39.2 Q-5.8 38.45 -5.65 37.1 L-5.1 36.25 Q-5.35 37.75 -4.55 38.15 L-2.65 38.35 Q-3.0 39.35 -3.95 39.45 -4.7 39.55 -4.95 40.25 -5.2 40.95 -4.7 41.45 -4.05 42.05 -2.0 41.2 -2.0 42.45 -3.0 42.55 -3.8 42.65 -4.0 43.35 -4.2 44.05 -3.4 44.3 -2.45 44.6 -1.95 43.95 L-2.25 45.0 Q-2.25 45.8 -1.25 45.9 -0.1 46.0 0.35 45.3 L0.55 44.55 1.45 46.15 Q2.55 47.55 3.4 46.65 4.3 45.8 4.4 44.95 L4.35 44.25 5.3 45.2 Q6.4 46.1 7.35 45.55 8.3 45.05 7.6 44.15 L6.75 43.35 Q9.2 44.0 9.45 42.9 9.6 42.2 9.1 41.8 L8.55 41.5 Q10.0 41.1 10.95 40.25 11.55 39.7 10.55 39.0 L9.45 38.4 Q11.25 38.05 11.3 36.7 11.35 35.9 10.1 35.3 L8.85 34.85 Q9.6 34.45 9.8 33.65 10.1 34.35 9.9 35.2 L10.3 35.35 11.4 36.4 Q12.3 37.6 11.4 38.8 L11.95 39.35 Q12.5 40.0 12.4 40.6 12.3 41.6 10.3 42.15 L10.75 42.55 Q11.2 43.1 11.05 43.7 10.8 44.7 8.95 44.8 L9.45 45.6 Q9.75 46.55 8.8 47.25 7.85 47.95 6.55 47.55 L5.45 46.95 Q5.1 48.3 3.5 48.7 2.45 49.0 1.05 48.1 L-0.15 47.15 Q-0.95 48.05 -2.55 47.65 -3.55 47.45 -3.75 46.4 L-3.75 45.45 -4.85 45.55 Q-5.95 45.45 -6.0 44.4 -6.05 43.35 -5.05 43.0 L-4.05 42.8 Q-5.6 42.7 -6.0 41.4 -6.25 40.55 -5.6 39.8 M-3.0 34.4 L-2.85 34.2 -2.25 35.25 Q-1.75 35.85 -1.7 36.3 -2.4 35.9 -3.15 35.75 L-3.1 35.75 Q-3.6 35.35 -3.0 34.4 M-0.15 34.2 Q-0.75 33.8 -1.35 33.55 -1.9 32.85 -1.15 32.15 L-0.6 31.8 Q-0.9 32.65 -0.65 33.2 L-0.15 34.2" fill="url(#gradient7)" fill-rule="evenodd" stroke="none"/>
    <path d="M-18.65 46.3 Q-17.75 45.6 -17.0 46.0 -16.05 46.5 -16.6 47.9 L-15.95 48.2 Q-15.35 48.65 -15.6 49.6 -15.85 50.55 -16.55 50.25 L-17.2 49.75 Q-18.7 51.35 -19.35 50.6 -19.7 50.15 -19.6 49.4 L-19.45 48.75 Q-20.95 49.0 -20.5 48.15 -20.2 47.6 -19.8 47.7 -19.55 47.75 -19.4 47.9 -19.55 46.95 -18.65 46.3" fill="url(#gradient8)" fill-rule="evenodd" stroke="none"/>
    <path d="M-16.6 47.9 L-15.95 48.2 Q-15.35 48.65 -15.6 49.6 -15.85 50.55 -16.55 50.25 L-17.2 49.75 Q-18.7 51.35 -19.35 50.6 -19.7 50.15 -19.6 49.4 L-19.45 48.75 Q-20.95 49.0 -20.5 48.15 L-20.2 47.8 Q-20.4 48.7 -19.75 48.55 -18.85 48.4 -18.55 47.9 -18.95 48.9 -18.8 49.25 -18.6 49.75 -17.6 48.6 -16.7 49.65 -16.0 48.9 -15.55 48.45 -16.35 48.15 L-17.25 48.0 Q-16.75 47.2 -16.65 46.3 -16.25 46.95 -16.6 47.9" fill="url(#gradient9)" fill-rule="evenodd" stroke="none"/>
    <path d="M20.95 46.9 L21.15 46.6 Q21.5 46.3 22.1 46.15 22.65 45.95 22.6 46.75 L22.45 47.6 23.15 47.6 Q23.8 47.7 23.7 48.35 23.55 49.45 22.25 49.0 22.15 49.95 21.3 50.05 20.75 50.15 20.65 49.45 L20.65 48.75 Q20.0 48.55 19.95 47.55 19.9 46.95 20.45 46.85 L20.95 46.9" fill="url(#gradient10)" fill-rule="evenodd" stroke="none"/>
    <path d="M22.75 48.5 Q23.4 48.5 23.45 48.15 23.5 47.8 22.75 47.85 L22.05 47.95 22.1 46.15 Q23.0 45.9 22.45 47.6 L23.15 47.6 Q23.8 47.7 23.7 48.35 23.55 49.45 22.25 49.0 22.15 49.95 21.3 50.05 20.75 50.15 20.65 49.45 L20.65 48.75 Q20.0 48.55 19.95 47.55 19.95 47.2 20.1 47.05 20.2 48.2 20.7 48.2 21.5 48.3 21.65 47.55 21.8 48.7 21.35 49.05 20.95 49.35 21.45 49.3 21.9 49.25 22.05 48.8 22.15 48.5 22.75 48.5" fill="url(#gradient11)" fill-rule="evenodd" stroke="none"/>
    <path d="M5.55 28.95 L6.0 28.95 Q6.45 29.05 6.4 29.6 6.35 30.2 5.95 30.15 5.6 30.1 5.3 29.65 5.1 29.3 5.3 29.1 5.45 29.05 5.55 28.95" fill="url(#gradient12)" fill-rule="evenodd" stroke="none"/>
    <path d="M-18.75 33.45 Q-17.85 33.5 -18.45 34.95 L-18.1 34.75 -17.45 34.8 Q-17.0 35.1 -17.5 36.85 L-16.8 36.15 -15.25 36.25 Q-14.1 37.35 -14.5 39.05 L-14.0 39.8 Q-13.55 40.7 -13.8 41.45 -14.25 42.65 -15.35 41.9 L-15.85 43.2 Q-16.6 44.55 -17.55 44.6 -18.5 44.65 -19.15 44.1 L-19.55 43.55 Q-19.5 45.0 -20.2 45.15 -20.6 45.25 -20.95 44.75 L-21.25 44.25 Q-21.2 46.05 -22.35 46.25 -23.55 46.45 -24.15 44.75 -24.15 45.85 -25.1 45.25 -25.7 44.9 -25.5 44.35 L-25.2 43.85 Q-26.15 44.05 -26.75 42.75 -27.1 41.95 -26.85 41.15 L-26.55 40.5 Q-27.8 39.9 -27.95 38.5 -28.05 37.65 -27.4 37.5 L-26.75 37.55 Q-27.4 36.7 -26.4 35.65 -25.8 35.0 -24.85 35.35 L-24.05 35.8 -23.9 34.4 Q-23.55 33.0 -22.65 32.7 -21.7 32.4 -20.75 33.35 L-19.95 34.35 -19.7 33.9 Q-19.3 33.45 -18.75 33.45" fill="url(#gradient13)" fill-rule="evenodd" stroke="none"/>
    <path d="M-17.8 36.25 Q-17.3 35.5 -17.4 34.85 -17.05 35.2 -17.5 36.85 L-17.9 37.2 -17.8 36.25 M-28.0 38.2 L-27.4 39.3 Q-26.7 40.25 -24.95 40.15 L-25.75 40.6 Q-26.45 41.15 -26.15 41.75 -25.6 42.8 -24.3 42.35 -25.35 44.05 -24.7 44.0 -24.0 44.0 -23.85 42.9 -23.8 44.7 -22.75 44.6 -21.75 44.45 -22.2 42.35 L-20.9 43.7 Q-20.45 44.2 -20.05 43.6 -19.7 42.95 -19.85 42.4 L-19.8 41.45 -19.65 41.0 -19.25 42.3 Q-18.6 43.55 -17.55 43.25 -16.5 42.95 -16.25 41.5 L-16.2 40.1 Q-15.1 41.3 -14.65 40.55 -14.35 40.05 -14.85 39.35 -15.35 38.7 -15.8 38.85 -16.35 39.1 -16.8 38.25 -16.1 38.25 -15.6 37.85 -15.3 37.55 -16.0 35.9 -15.6 35.9 -15.25 36.25 -14.1 37.35 -14.5 39.05 L-14.0 39.8 Q-13.55 40.7 -13.8 41.45 -14.25 42.65 -15.35 41.9 L-15.85 43.2 Q-16.6 44.55 -17.55 44.6 -18.5 44.65 -19.15 44.1 L-19.55 43.55 Q-19.5 45.0 -20.2 45.15 -20.6 45.25 -20.95 44.75 L-21.25 44.25 Q-21.2 46.05 -22.35 46.25 -23.55 46.45 -24.15 44.75 -24.15 45.85 -25.1 45.25 -25.7 44.9 -25.5 44.35 L-25.2 43.85 Q-26.15 44.05 -26.75 42.75 -27.1 41.95 -26.85 41.15 L-26.55 40.5 Q-27.8 39.9 -27.95 38.5 L-28.0 38.2 M-26.75 37.55 Q-27.35 36.65 -26.4 35.65 L-26.2 35.45 -26.25 35.55 Q-26.5 36.4 -25.7 38.5 L-26.75 37.55 M-22.75 32.7 L-22.95 34.45 Q-22.75 36.5 -23.75 36.35 L-24.15 35.75 -24.05 35.8 Q-24.1 33.3 -22.75 32.7 M-20.1 34.1 L-19.95 34.35 -19.6 33.8 -19.9 35.05 -20.1 34.1 M-19.0 34.55 L-18.6 33.5 Q-17.95 33.65 -18.45 34.95 L-19.0 35.1 Q-19.2 35.0 -19.0 34.55" fill="url(#gradient14)" fill-rule="evenodd" stroke="none"/>
    <path d="M9.7 39.7 Q10.2 38.4 11.15 38.25 12.1 38.15 13.05 39.3 L13.75 40.5 14.3 39.7 Q15.0 39.0 15.85 39.35 17.2 39.85 16.95 40.95 L17.55 40.6 Q18.2 40.45 18.45 41.25 18.9 42.6 18.05 43.65 L18.6 44.15 Q19.15 44.8 19.15 45.65 19.15 47.05 18.25 47.3 L18.75 47.55 Q19.15 47.95 18.75 48.55 18.15 49.5 17.7 48.55 17.85 50.35 16.7 50.65 16.0 50.85 15.35 50.1 L14.85 49.3 Q14.95 50.4 14.25 50.6 13.6 50.75 13.0 49.4 13.1 50.6 11.65 51.2 10.75 51.6 9.55 50.7 L8.55 49.75 Q7.8 50.85 6.95 49.95 6.4 49.4 6.4 48.4 L6.5 47.5 Q5.45 46.15 6.0 44.65 6.4 43.7 7.4 43.9 L8.3 44.25 Q7.1 42.85 7.35 42.4 7.5 42.1 7.95 42.05 L8.35 42.1 7.9 41.55 Q7.5 40.9 8.0 40.65 8.5 40.4 9.0 40.65 L9.4 40.95 9.7 39.7" fill="url(#gradient15)" fill-rule="evenodd" stroke="none"/>
    <path d="M15.65 39.35 L15.55 39.25 15.85 39.35 Q16.6 39.65 16.85 40.2 L16.95 40.9 Q16.5 41.8 16.4 42.25 16.25 40.0 15.65 39.35 M9.4 40.95 L9.45 40.65 9.7 41.55 8.85 40.6 9.4 40.95 M8.8 44.35 L8.25 44.25 Q7.2 42.95 7.35 42.45 7.55 43.1 8.3 43.6 L8.8 44.35 M8.25 42.1 L8.35 42.1 Q7.3 41.2 7.85 40.75 L8.65 41.55 Q9.05 41.8 8.9 42.0 L8.25 42.1 M6.5 44.0 Q6.6 45.85 7.0 45.95 L8.25 45.8 Q8.2 46.75 7.6 46.8 7.15 46.85 6.95 47.65 6.8 48.5 7.3 48.8 8.0 49.3 8.5 47.7 L9.15 48.95 Q10.05 50.2 11.1 50.0 12.15 49.8 12.2 48.45 L12.0 47.1 12.3 47.4 12.75 48.25 Q12.95 48.85 13.5 49.2 14.15 49.65 14.3 48.95 L14.9 47.25 Q15.4 49.3 16.35 48.95 17.3 48.65 16.65 47.0 17.25 47.9 17.85 47.65 18.45 47.35 16.8 46.3 18.15 46.15 18.2 45.0 18.25 44.3 17.35 44.1 L16.45 44.05 Q18.1 43.4 18.3 42.2 L18.35 40.95 18.45 41.25 Q18.9 42.6 18.05 43.65 L18.6 44.15 Q19.15 44.8 19.15 45.65 19.15 47.05 18.25 47.3 L18.75 47.55 Q19.15 47.95 18.75 48.55 18.15 49.5 17.7 48.55 17.85 50.35 16.7 50.65 16.0 50.85 15.35 50.1 L14.85 49.3 Q14.95 50.4 14.25 50.6 13.6 50.75 13.0 49.4 13.1 50.6 11.65 51.2 10.75 51.6 9.55 50.7 L8.55 49.75 Q7.8 50.85 6.95 49.95 6.4 49.4 6.4 48.4 L6.5 47.5 Q5.45 46.15 6.0 44.65 6.2 44.15 6.5 44.0 M12.2 39.7 L11.3 38.25 Q12.75 38.2 13.75 40.5 L13.8 40.4 13.7 41.1 Q13.75 41.55 13.25 41.25 12.65 40.95 12.2 39.7" fill="url(#gradient16)" fill-rule="evenodd" stroke="none"/>
    <path d="M-12.0 38.05 Q-12.8 37.3 -12.4 36.4 -12.0 35.55 -11.15 35.3 -10.2 35.05 -9.55 36.55 L-9.3 35.6 Q-8.8 34.65 -7.75 34.75 -6.7 34.9 -6.4 35.95 -6.25 36.5 -6.35 37.0 L-5.8 36.3 Q-5.0 35.6 -3.8 35.8 -2.6 36.0 -2.45 37.3 -2.35 38.0 -2.5 38.6 L-1.45 38.2 0.65 38.45 Q1.55 39.0 1.3 40.05 L0.9 41.05 2.05 40.75 Q3.3 40.7 3.75 41.9 4.2 43.15 3.6 43.75 L2.9 44.1 3.8 45.25 Q4.6 46.65 3.95 47.75 3.3 48.9 2.4 49.25 L1.65 49.35 1.9 50.45 Q1.95 51.55 0.9 51.65 -0.15 51.75 -0.9 51.0 L-1.45 50.2 -1.4 51.15 Q-1.65 52.2 -2.85 52.65 -4.1 53.1 -4.85 52.15 L-5.4 51.05 Q-6.15 52.4 -7.2 51.8 -7.85 51.45 -8.25 50.55 L-8.5 49.75 Q-8.7 50.4 -11.25 50.2 -12.85 50.1 -12.9 48.85 L-12.65 47.6 -13.7 48.3 Q-14.8 48.75 -15.0 47.4 -15.25 46.05 -14.65 45.3 L-14.0 44.85 -14.65 44.65 Q-15.35 44.2 -15.4 42.95 -15.45 41.75 -14.45 41.4 L-13.4 41.35 -13.9 39.0 Q-13.9 38.35 -12.95 38.15 L-12.0 38.05" fill="url(#gradient17)" fill-rule="evenodd" stroke="none"/>
    <path d="M0.4 39.05 Q0.1 37.7 -1.65 38.55 L-3.3 39.65 Q-2.75 37.45 -3.7 35.8 -2.6 36.05 -2.45 37.35 L-2.5 38.6 -1.45 38.2 0.65 38.45 Q1.9 39.15 0.95 41.05 0.45 41.25 -0.1 41.65 0.9 40.85 0.4 39.05 M-13.9 39.0 Q-13.9 38.55 -13.45 38.35 -13.7 39.3 -13.35 40.25 -12.95 41.4 -11.95 41.65 L-11.05 41.65 Q-12.0 42.25 -13.1 41.85 -13.9 41.5 -14.25 42.3 -14.6 43.05 -14.0 43.7 -13.25 44.5 -12.3 43.85 L-13.1 45.0 Q-13.75 46.25 -13.15 46.55 -12.25 47.1 -11.2 45.75 L-11.35 46.95 Q-11.25 48.15 -10.1 48.1 -8.95 48.05 -8.4 47.45 L-8.1 46.8 -7.7 48.1 Q-7.15 49.35 -6.15 49.05 -4.5 48.55 -4.5 47.5 L-3.75 48.7 Q-2.85 49.8 -2.2 49.3 -1.55 48.75 -1.75 47.6 L-2.05 46.5 -1.15 47.2 0.45 47.1 Q1.3 46.1 -0.05 44.95 L1.9 44.9 Q2.15 43.95 1.45 43.1 L0.65 42.4 2.15 42.75 Q3.65 42.85 3.75 41.9 4.2 43.15 3.6 43.75 L2.9 44.1 3.8 45.25 Q4.6 46.65 3.95 47.75 3.3 48.9 2.4 49.25 L1.65 49.35 1.9 50.45 Q1.95 51.55 0.9 51.65 -0.15 51.75 -0.9 51.0 L-1.45 50.2 -1.4 51.15 Q-1.65 52.2 -2.85 52.65 -4.1 53.1 -4.85 52.15 L-5.4 51.05 Q-6.15 52.4 -7.2 51.8 -7.85 51.45 -8.25 50.55 L-8.5 49.75 Q-8.7 50.4 -11.25 50.2 -12.85 50.1 -12.9 48.85 L-12.65 47.6 -13.7 48.3 Q-14.8 48.75 -15.0 47.4 -15.25 46.05 -14.65 45.3 L-14.0 44.85 -14.65 44.65 Q-15.35 44.2 -15.4 42.95 -15.45 41.75 -14.45 41.4 L-13.4 41.35 -13.9 39.0" fill="url(#gradient18)" fill-rule="evenodd" stroke="none"/>
  </g>
  <defs>
    <linearGradient gradientTransform="matrix(0.0262, 0.0, 0.0, -0.0262, 0.75, -5.1)" gradientUnits="userSpaceOnUse" id="gradient0" spreadMethod="pad" x1="-819.2" x2="819.2">
      <stop offset="0.0" stop-color="#8aecc9"/>
      <stop offset="0.5294117647058824" stop-color="#5ce5ba"/>
      <stop offset="1.0" stop-color="#8aecc9"/>
    </linearGradient>
    <linearGradient gradientTransform="matrix(0.0245, 0.0, 0.0, -0.0245, -0.65, -4.95)" gradientUnits="userSpaceOnUse" id="gradient1" spreadMethod="pad" x1="-819.2" x2="819.2">
      <stop offset="0.0" stop-color="#5ce5ba"/>
      <stop offset="0.5294117647058824" stop-color="#10989a"/>
      <stop offset="1.0" stop-color="#5ce5ba"/>
    </linearGradient>
    <radialGradient cx="0" cy="0" gradientTransform="matrix(0.0114, 0.0, 0.0, -0.0114, -10.0, 38.3)" gradientUnits="userSpaceOnUse" id="gradient2" r="819.2" spreadMethod="pad">
      <stop offset="0.0" stop-color="#ffffff"/>
      <stop offset="1.0" stop-color="#cbd5d5"/>
    </radialGradient>
    <linearGradient gradientTransform="matrix(0.0114, 0.0, 0.0, -0.0114, -10.0, 38.35)" gradientUnits="userSpaceOnUse" id="gradient3" spreadMethod="pad" x1="-819.2" x2="819.2">
      <stop offset="0.0" stop-color="#b0bfbf"/>
      <stop offset="1.0" stop-color="#90a5a5"/>
    </linearGradient>
    <radialGradient cx="0" cy="0" gradientTransform="matrix(0.0104, 0.0, 0.0, -0.0104, 18.7, 39.7)" gradientUnits="userSpaceOnUse" id="gradient4" r="819.2" spreadMethod="pad">
      <stop offset="0.0" stop-color="#ffffff"/>
      <stop offset="1.0" stop-color="#cbd5d5"/>
    </radialGradient>
    <linearGradient gradientTransform="matrix(0.0103, 0.0, 0.0, -0.0103, 18.7, 39.75)" gradientUnits="userSpaceOnUse" id="gradient5" spreadMethod="pad" x1="-819.2" x2="819.2">
      <stop offset="0.0" stop-color="#b0bfbf"/>
      <stop offset="1.0" stop-color="#90a5a5"/>
    </linearGradient>
    <radialGradient cx="0" cy="0" gradientTransform="matrix(0.0119, 0.0, 0.0, -0.0105, 3.2, 39.8)" gradientUnits="userSpaceOnUse" id="gradient6" r="819.2" spreadMethod="pad">
      <stop offset="0.0" stop-color="#ffffff"/>
      <stop offset="1.0" stop-color="#cbd5d5"/>
    </radialGradient>
    <linearGradient gradientTransform="matrix(0.0113, 0.0, 0.0, -0.0113, 3.2, 40.3)" gradientUnits="userSpaceOnUse" id="gradient7" spreadMethod="pad" x1="-819.2" x2="819.2">
      <stop offset="0.0" stop-color="#b0bfbf"/>
      <stop offset="1.0" stop-color="#90a5a5"/>
    </linearGradient>
    <radialGradient cx="0" cy="0" gradientTransform="matrix(0.0031, 0.0, 0.0, -0.0031, -18.05, 48.35)" gradientUnits="userSpaceOnUse" id="gradient8" r="819.2" spreadMethod="pad">
      <stop offset="0.0" stop-color="#ffffff"/>
      <stop offset="1.0" stop-color="#cbd5d5"/>
    </radialGradient>
    <linearGradient gradientTransform="matrix(0.0031, 0.0, 0.0, -0.0031, -18.05, 48.55)" gradientUnits="userSpaceOnUse" id="gradient9" spreadMethod="pad" x1="-819.2" x2="819.2">
      <stop offset="0.0" stop-color="#b0bfbf"/>
      <stop offset="1.0" stop-color="#90a5a5"/>
    </linearGradient>
    <radialGradient cx="0" cy="0" gradientTransform="matrix(0.0023, 0.0, 0.0, -0.0023, 21.85, 48.1)" gradientUnits="userSpaceOnUse" id="gradient10" r="819.2" spreadMethod="pad">
      <stop offset="0.0" stop-color="#ffffff"/>
      <stop offset="1.0" stop-color="#cbd5d5"/>
    </radialGradient>
    <linearGradient gradientTransform="matrix(0.0023, 0.0, 0.0, -0.0023, 21.85, 48.1)" gradientUnits="userSpaceOnUse" id="gradient11" spreadMethod="pad" x1="-819.2" x2="819.2">
      <stop offset="0.0" stop-color="#b0bfbf"/>
      <stop offset="1.0" stop-color="#90a5a5"/>
    </linearGradient>
    <radialGradient cx="0" cy="0" gradientTransform="matrix(7.0E-4, 0.0, 0.0, -7.0E-4, 5.8, 29.55)" gradientUnits="userSpaceOnUse" id="gradient12" r="819.2" spreadMethod="pad">
      <stop offset="0.0" stop-color="#ffffff"/>
      <stop offset="1.0" stop-color="#cbd5d5"/>
    </radialGradient>
    <radialGradient cx="0" cy="0" gradientTransform="matrix(-0.01, 0.0048, -0.004, -0.0105, -21.35, 35.3)" gradientUnits="userSpaceOnUse" id="gradient13" r="819.2" spreadMethod="pad">
      <stop offset="0.0" stop-color="#ffffff"/>
      <stop offset="1.0" stop-color="#cbd5d5"/>
    </radialGradient>
    <linearGradient gradientTransform="matrix(-0.0064, 0.005, -0.005, -0.0064, -21.15, 39.55)" gradientUnits="userSpaceOnUse" id="gradient14" spreadMethod="pad" x1="-819.2" x2="819.2">
      <stop offset="0.0" stop-color="#b0bfbf"/>
      <stop offset="1.0" stop-color="#90a5a5"/>
    </linearGradient>
    <radialGradient cx="0" cy="0" gradientTransform="matrix(0.0111, 0.0, -8.0E-4, -0.0112, 11.1, 41.2)" gradientUnits="userSpaceOnUse" id="gradient15" r="819.2" spreadMethod="pad">
      <stop offset="0.0" stop-color="#ffffff"/>
      <stop offset="1.0" stop-color="#cbd5d5"/>
    </radialGradient>
    <linearGradient gradientTransform="matrix(0.0079, 0.0018, 0.0018, -0.0079, 12.75, 45.15)" gradientUnits="userSpaceOnUse" id="gradient16" spreadMethod="pad" x1="-819.2" x2="819.2">
      <stop offset="0.0" stop-color="#b0bfbf"/>
      <stop offset="1.0" stop-color="#90a5a5"/>
    </linearGradient>
    <radialGradient cx="0" cy="0" gradientTransform="matrix(0.0115, 0.0, 0.0, -0.0115, -5.6, 43.8)" gradientUnits="userSpaceOnUse" id="gradient17" r="819.2" spreadMethod="pad">
      <stop offset="0.0" stop-color="#ffffff"/>
      <stop offset="1.0" stop-color="#cbd5d5"/>
    </radialGradient>
    <linearGradient gradientTransform="matrix(0.012, 0.0, 0.0, -0.012, -5.6, 44.3)" gradientUnits="userSpaceOnUse" id="gradient18" spreadMethod="pad" x1="-819.2" x2="819.2">
      <stop offset="0.0" stop-color="#b0bfbf"/>
      <stop offset="1.0" stop-color="#90a5a5"/>
    </linearGradient>
  </defs>
</svg>
