<?xml version="1.0" encoding="UTF-8" standalone="no"?>
<svg xmlns:ffdec="https://www.free-decompiler.com/flash" xmlns:xlink="http://www.w3.org/1999/xlink" ffdec:objectType="frame" height="282.1px" width="168.8px" xmlns="http://www.w3.org/2000/svg">
  <g transform="matrix(1.0, 0.0, 0.0, 1.0, -36.65, -36.4)">
    <use ffdec:characterId="23" height="282.1" transform="matrix(1.0, 0.0, 0.0, 1.0, 36.65, 36.4)" width="168.8" xlink:href="#shape0"/>
  </g>
  <defs>
    <g id="shape0" transform="matrix(1.0, 0.0, 0.0, 1.0, -36.65, -36.4)">
      <path d="M137.85 40.65 Q149.95 43.3 158.35 46.25 162.45 49.15 162.5 53.85 162.5 57.65 159.8 63.75 L154.05 75.4 Q150.45 82.85 149.1 88.15 145.0 104.35 148.6 124.0 153.1 148.6 168.6 165.4 184.0 182.05 194.8 206.15 203.35 225.05 205.25 238.3 208.1 257.95 173.5 267.55 166.05 269.6 163.55 275.8 161.85 280.1 162.05 288.9 162.35 299.95 161.95 303.0 160.95 310.5 156.15 314.2 150.65 318.45 137.4 318.5 124.15 318.6 108.1 314.4 90.75 309.85 75.45 301.65 58.25 292.45 46.8 280.2 26.05 257.95 47.65 234.3 55.25 225.95 67.15 218.65 76.4 212.95 83.6 210.4 88.8 208.55 87.75 204.75 86.9 201.5 80.95 195.55 61.85 178.55 50.85 166.3 36.65 150.45 40.75 131.3 42.2 124.4 46.35 115.9 L53.3 102.55 Q55.45 98.35 59.95 92.15 64.15 86.35 65.2 83.95 67.05 79.9 65.6 76.35 63.95 72.3 57.7 67.65 53.6 64.55 54.7 59.55 55.8 54.75 61.3 49.85 74.2 38.25 95.35 36.65 113.65 35.3 137.85 40.65" fill="#83eeee" fill-rule="evenodd" stroke="none"/>
    </g>
  </defs>
</svg>
