<?xml version="1.0" encoding="UTF-8" standalone="no"?>
<svg xmlns:ffdec="https://www.free-decompiler.com/flash" xmlns:xlink="http://www.w3.org/1999/xlink" ffdec:objectType="frame" height="476.6px" width="759.5px" xmlns="http://www.w3.org/2000/svg">
  <g transform="matrix(1.0, 0.0, 0.0, 1.0, 379.75, 238.3)">
    <use ffdec:characterId="27" height="476.6" transform="matrix(1.0, 0.0, 0.0, 1.0, -379.75, -238.3)" width="759.5" xlink:href="#shape0"/>
  </g>
  <defs>
    <g id="shape0" transform="matrix(1.0, 0.0, 0.0, 1.0, 379.75, 238.3)">
      <path d="M325.25 -118.35 L322.9 -118.75 Q320.55 -119.35 320.55 -120.4 320.55 -121.45 323.3 -123.0 L326.0 -124.3 Q324.4 -123.55 323.55 -122.25 322.8 -121.15 323.05 -120.55 323.35 -119.95 325.25 -118.35 M309.75 -118.15 Q306.75 -115.85 305.85 -114.3 305.0 -112.75 303.45 -111.8 L302.1 -111.2 305.55 -115.4 Q307.4 -117.6 312.55 -120.1 L309.75 -118.15 M304.3 -117.45 Q304.25 -118.25 304.65 -119.25 305.5 -121.15 307.7 -121.95 310.05 -122.75 311.15 -124.15 L312.9 -127.45 Q313.8 -129.15 315.7 -129.8 L319.9 -130.7 324.55 -132.0 Q326.75 -132.9 326.95 -134.3 327.15 -135.65 331.35 -135.9 L335.55 -135.9 Q330.25 -135.35 329.05 -134.7 328.35 -134.35 327.45 -132.45 326.65 -130.85 324.1 -130.1 L317.55 -129.3 Q314.8 -129.2 314.5 -126.9 314.15 -123.95 311.8 -122.75 308.75 -121.2 306.25 -119.15 L304.3 -117.45 M298.6 -113.25 Q299.45 -113.95 299.75 -114.6 L300.95 -114.55 Q301.25 -114.2 300.95 -113.45 300.15 -111.55 297.25 -111.0 L292.0 -110.25 Q290.2 -109.9 292.1 -109.0 293.85 -108.15 296.75 -108.25 L297.45 -108.25 296.95 -108.2 Q294.8 -107.85 291.8 -108.2 289.05 -108.55 286.95 -109.3 282.8 -110.75 275.65 -107.75 272.85 -106.5 270.2 -106.85 266.0 -107.4 270.35 -107.4 272.05 -107.4 276.05 -108.8 281.0 -110.5 283.5 -111.0 L289.35 -111.75 294.3 -111.8 Q296.95 -111.9 298.6 -113.25 M251.2 -114.15 Q249.35 -115.25 249.25 -115.55 248.95 -116.25 245.0 -117.2 L241.1 -118.05 243.5 -118.05 248.6 -117.6 Q251.05 -117.15 251.85 -116.05 L253.3 -112.25 Q254.1 -110.0 258.75 -108.85 L263.3 -108.2 Q264.55 -107.2 259.45 -107.75 254.65 -108.3 250.35 -109.45 247.2 -110.3 248.55 -110.85 251.55 -112.2 251.75 -112.45 252.55 -113.35 251.2 -114.15 M322.6 -113.1 Q324.15 -111.45 322.4 -110.7 L320.25 -108.65 Q318.55 -106.35 321.0 -105.4 323.75 -104.3 325.7 -103.0 327.45 -101.8 327.6 -101.15 327.8 -100.2 329.4 -99.2 331.65 -97.8 335.4 -97.55 L345.1 -96.95 331.8 -96.5 Q330.1 -96.75 328.45 -98.6 L326.0 -101.5 Q322.55 -104.65 318.05 -105.25 315.55 -105.55 317.05 -107.65 318.4 -109.6 320.85 -110.55 322.15 -111.05 319.9 -111.8 317.5 -112.6 319.0 -113.5 321.0 -114.75 322.6 -113.1 M367.45 -193.55 Q371.5 -192.85 373.2 -191.0 375.1 -189.0 376.05 -188.75 378.25 -188.1 378.1 -187.85 L376.2 -187.65 Q374.65 -187.65 373.4 -188.6 372.1 -189.55 372.0 -190.9 371.9 -192.1 369.65 -192.95 L367.45 -193.55 M376.75 -177.7 Q375.85 -178.25 375.3 -179.05 374.0 -180.7 376.05 -181.85 378.25 -183.05 378.15 -183.3 L376.05 -183.9 370.75 -184.95 Q379.2 -184.95 379.65 -184.05 379.8 -183.8 377.2 -181.55 374.85 -179.45 376.2 -178.55 L376.75 -177.7 378.25 -177.0 Q379.75 -176.45 379.75 -175.4 379.75 -174.25 377.75 -174.05 376.0 -173.85 374.0 -172.75 L372.3 -171.7 373.4 -172.7 Q374.8 -173.8 376.35 -174.5 377.9 -175.2 377.2 -176.95 L376.75 -177.7 M372.75 -114.15 Q375.8 -116.35 372.75 -119.0 371.3 -120.25 371.7 -121.7 L372.45 -122.9 Q371.85 -121.05 374.55 -119.05 377.3 -117.05 377.15 -116.5 376.85 -115.45 374.15 -114.25 371.1 -112.95 372.75 -114.15 M366.2 -147.6 Q364.95 -146.05 362.0 -144.65 360.15 -143.75 359.15 -141.35 358.65 -140.15 358.55 -139.15 L358.6 -141.15 Q358.9 -143.4 360.25 -144.8 361.65 -146.15 364.05 -147.0 L366.2 -147.6 M352.0 -140.35 Q353.7 -141.1 353.7 -141.8 353.7 -142.4 355.65 -144.2 L357.6 -145.9 357.05 -144.95 Q356.35 -143.7 355.9 -142.15 355.1 -139.65 354.75 -139.25 353.8 -138.2 350.9 -138.2 L345.4 -137.95 343.2 -137.75 344.2 -138.4 Q345.6 -139.1 347.75 -139.3 350.25 -139.55 352.0 -140.35 M369.15 -163.55 Q374.55 -164.55 371.65 -165.9 370.4 -166.5 370.85 -167.9 L371.5 -169.2 Q371.35 -167.75 373.45 -167.25 L376.85 -166.2 Q377.75 -165.5 375.4 -164.75 L370.6 -163.1 Q368.95 -162.25 371.15 -161.9 374.35 -161.4 374.95 -160.75 375.75 -159.85 374.45 -159.45 L368.7 -157.6 Q365.4 -156.25 365.8 -153.6 L366.2 -151.7 Q366.35 -150.8 365.75 -150.4 364.4 -149.55 360.9 -148.65 357.05 -147.7 360.75 -149.0 363.3 -149.95 363.25 -150.85 363.2 -152.75 363.55 -153.4 364.85 -155.7 365.65 -156.5 366.9 -157.85 369.35 -158.7 371.7 -159.55 370.05 -160.7 368.55 -161.7 366.5 -161.85 364.95 -161.95 365.8 -162.55 366.65 -163.1 369.15 -163.55 M369.5 -103.0 L361.65 -103.05 Q360.2 -102.9 359.25 -101.75 L357.7 -99.6 Q355.55 -97.15 349.3 -99.15 L351.75 -98.85 Q354.5 -98.85 356.05 -100.25 L358.75 -102.65 Q359.95 -103.5 362.6 -104.0 L368.7 -104.8 Q371.9 -105.3 372.6 -106.65 373.15 -107.75 372.05 -108.55 371.2 -109.15 372.3 -109.75 373.9 -110.65 377.15 -109.1 380.35 -107.55 378.55 -106.95 L373.65 -105.7 Q370.8 -104.8 372.15 -103.85 373.45 -102.9 369.5 -103.0 M347.4 -94.2 L343.05 -94.75 345.3 -94.95 351.35 -94.75 Q353.25 -94.2 356.05 -95.35 358.65 -96.4 360.25 -98.05 361.05 -98.8 360.8 -98.15 L359.6 -96.35 Q356.9 -93.2 354.0 -93.2 L347.4 -94.2 M325.1 -93.35 L324.15 -94.9 326.15 -93.35 Q327.75 -91.55 325.7 -90.4 323.65 -89.2 320.0 -88.9 L316.8 -88.8 318.6 -88.9 Q320.85 -89.2 323.2 -90.4 325.55 -91.55 325.1 -93.35 M307.55 -89.6 L308.95 -89.15 Q310.7 -88.2 316.8 -87.9 L311.65 -87.55 Q309.7 -87.55 307.5 -88.8 305.2 -90.05 306.0 -90.85 306.65 -91.5 305.6 -92.1 303.85 -93.1 303.65 -93.35 303.05 -94.05 305.15 -94.95 L307.4 -95.7 Q305.3 -94.3 306.4 -93.8 308.15 -93.0 307.9 -91.65 L307.55 -89.6 M301.3 -89.25 Q300.9 -88.15 299.05 -87.5 297.5 -86.95 297.7 -86.25 297.95 -85.5 299.4 -83.85 300.35 -82.3 298.8 -81.3 297.25 -80.3 293.35 -79.7 L289.75 -79.3 293.45 -80.2 Q297.3 -81.35 297.85 -82.6 298.25 -83.5 296.15 -84.8 294.15 -86.05 295.05 -87.55 296.0 -89.0 297.6 -89.3 298.65 -89.5 298.35 -90.3 297.95 -91.35 296.55 -92.3 L295.2 -93.05 298.55 -91.95 Q301.8 -90.6 301.3 -89.25 M290.05 -82.55 Q291.8 -82.95 291.5 -84.05 L290.85 -85.05 292.45 -84.2 Q293.8 -83.15 292.7 -82.1 291.75 -81.15 289.35 -81.05 L284.6 -80.55 Q281.35 -79.55 278.75 -79.55 274.75 -79.6 266.3 -81.3 L268.05 -81.3 272.4 -80.7 277.4 -80.25 Q279.7 -80.35 281.45 -81.0 L285.55 -81.85 290.05 -82.55 M249.25 -89.6 Q248.05 -90.55 252.6 -91.85 L257.35 -92.9 Q253.25 -91.55 252.75 -90.5 252.2 -89.35 255.65 -88.35 258.8 -87.4 258.55 -86.65 L256.3 -84.75 Q254.6 -83.45 255.2 -82.6 255.8 -81.7 259.25 -81.0 L270.5 -78.95 265.45 -79.0 Q259.45 -79.3 254.85 -80.35 250.2 -81.45 251.05 -82.7 251.55 -83.45 254.25 -85.4 255.45 -86.7 253.2 -87.7 L249.25 -89.6 M284.1 -76.15 Q278.35 -74.75 274.9 -74.6 272.75 -74.5 267.1 -75.65 L261.9 -76.8 266.4 -76.3 276.3 -76.0 284.1 -76.15 M257.05 -34.9 Q259.3 -32.7 257.45 -30.95 255.6 -29.3 251.45 -29.3 248.15 -29.3 246.6 -27.1 245.75 -25.1 245.7 -25.55 245.3 -29.35 248.35 -30.6 L254.1 -31.75 Q256.3 -32.15 255.1 -33.25 L251.95 -35.35 Q251.2 -35.9 251.4 -36.35 251.6 -36.75 252.5 -36.8 254.9 -36.95 257.05 -34.9 M257.85 -42.05 Q258.55 -42.65 259.35 -42.9 257.2 -40.95 258.45 -37.95 259.1 -36.45 260.15 -35.35 259.6 -35.6 258.95 -36.2 257.65 -37.4 257.05 -39.15 256.45 -40.9 257.85 -42.05 M254.3 -14.7 Q256.95 -14.9 259.8 -13.2 263.7 -10.95 264.3 -5.7 265.05 0.4 259.35 5.0 260.85 3.4 262.05 1.05 264.35 -3.6 262.6 -7.3 260.8 -11.1 258.35 -12.4 L254.1 -13.7 Q253.1 -14.0 253.2 -14.35 L254.3 -14.7 M262.95 -24.75 Q263.05 -25.05 264.55 -25.25 269.05 -25.9 276.05 -24.05 L264.25 -24.55 Q262.85 -24.4 262.95 -24.75 M259.0 -21.7 Q255.95 -21.5 255.55 -20.45 255.2 -19.6 256.4 -17.65 257.2 -16.4 256.05 -16.95 253.95 -17.95 253.5 -19.35 253.0 -20.95 255.9 -21.65 L260.5 -22.05 261.95 -21.75 259.0 -21.7 M283.75 -17.5 Q284.4 -19.1 281.3 -20.85 L278.05 -22.25 281.75 -21.3 Q285.5 -20.1 285.9 -18.65 286.2 -17.5 285.45 -16.5 284.9 -15.8 285.75 -15.2 286.25 -14.85 288.4 -14.55 290.25 -14.35 291.65 -12.75 288.2 -14.05 286.55 -13.4 285.25 -12.9 284.2 -14.2 283.05 -15.6 283.75 -17.5 M294.0 -14.75 L292.45 -15.85 Q293.95 -16.1 295.15 -14.95 L297.4 -12.25 Q298.45 -10.9 299.75 -10.35 L300.85 -10.1 298.55 -9.95 Q296.2 -10.1 295.9 -11.75 295.6 -13.35 294.0 -14.75 M306.3 3.4 Q302.95 1.5 301.8 0.25 300.95 -0.7 301.35 -1.9 301.7 -3.15 300.5 -4.55 298.8 -6.5 301.55 -5.15 304.25 -3.85 305.25 -2.25 305.75 -1.45 304.35 -2.35 302.55 -3.55 302.65 -2.05 302.75 -0.35 305.45 1.2 307.2 2.15 310.5 3.2 312.25 3.75 311.0 2.2 309.9 0.9 310.5 1.2 312.05 2.05 314.25 3.8 316.6 5.65 315.9 5.65 L313.75 5.6 Q313.4 6.1 319.55 9.1 314.6 7.95 311.65 6.3 L306.3 3.4 M303.6 32.55 Q305.35 31.3 308.45 30.9 L311.15 30.75 Q306.55 31.9 305.25 33.05 304.25 33.95 301.2 34.75 298.1 35.6 296.05 35.5 L298.8 34.75 Q301.9 33.75 303.6 32.55 M299.2 31.05 Q294.25 33.7 291.8 33.85 L288.15 34.1 Q286.0 34.5 284.1 36.0 L280.15 40.25 Q277.45 42.9 273.25 43.7 L276.8 41.7 Q280.6 39.3 281.8 37.15 283.25 34.65 285.0 33.8 286.55 33.1 291.0 32.7 296.75 32.2 299.2 31.05 M322.65 14.85 Q320.45 15.65 319.7 17.2 319.1 18.5 319.7 19.4 321.45 22.1 318.4 23.35 L315.2 25.75 Q312.6 27.55 306.25 28.75 L310.0 27.4 Q314.2 25.7 316.25 23.85 317.8 22.45 318.15 19.45 318.45 16.7 320.5 15.5 323.0 14.05 321.7 13.2 L318.55 12.05 Q317.4 11.5 319.6 11.65 L323.95 12.05 Q325.95 12.15 325.55 13.1 325.1 14.0 322.65 14.85 M251.3 9.6 Q249.35 10.85 246.35 11.55 240.35 12.85 235.2 9.9 229.85 6.8 228.55 2.65 227.7 -0.25 228.8 -2.4 L229.65 2.2 Q231.55 7.2 236.85 9.25 242.2 11.3 247.3 10.65 249.85 10.35 251.3 9.6 M274.4 38.95 Q273.55 40.25 270.8 41.9 267.6 43.75 264.6 44.2 261.5 44.65 262.75 45.05 L267.2 45.5 Q270.1 45.6 267.6 46.65 265.1 47.7 261.95 47.8 L256.45 48.3 Q254.7 48.5 256.05 48.15 L260.05 46.75 Q262.0 45.9 260.65 46.0 L254.8 46.35 Q250.2 46.35 248.5 45.15 L254.15 44.8 264.6 43.35 Q268.3 42.5 272.25 40.05 274.65 38.55 274.4 38.95 M258.5 63.7 L256.6 63.85 Q254.3 63.75 252.45 62.4 250.6 61.05 247.7 60.45 L245.2 60.1 248.45 60.3 Q251.9 60.65 252.95 61.25 254.1 61.95 256.15 62.85 L258.5 63.7 M263.05 67.4 Q261.8 67.4 262.45 69.35 263.05 71.05 264.25 72.4 265.5 73.85 265.2 75.3 264.8 77.15 261.75 77.9 257.8 78.95 256.5 81.4 254.85 84.45 257.75 89.25 L256.15 87.1 Q254.4 84.05 255.25 82.1 255.95 80.35 258.9 78.25 262.0 76.05 262.55 75.1 263.45 73.5 261.85 70.55 260.45 68.0 258.9 66.9 257.8 66.15 259.05 66.0 L262.55 66.1 Q264.55 66.2 264.55 66.8 264.55 67.4 263.05 67.4 M261.7 81.25 Q263.25 79.95 265.25 80.25 267.4 80.6 268.55 78.6 269.6 76.75 268.75 75.6 268.25 74.95 269.5 76.35 270.65 78.45 269.25 80.1 268.15 81.35 265.65 81.15 262.85 80.9 260.55 82.6 L261.7 81.25 M261.3 89.5 Q261.95 91.35 260.8 90.45 259.75 89.65 259.6 87.9 L259.65 86.35 Q260.65 87.8 261.3 89.5 M268.5 107.05 Q267.7 104.55 268.05 102.6 268.25 101.55 266.5 100.25 264.4 98.7 263.9 97.4 263.3 95.75 263.35 94.5 L263.55 93.6 263.8 95.1 Q264.25 96.8 265.4 97.75 L268.3 100.35 Q269.7 102.1 269.05 103.9 268.45 105.7 270.2 109.2 271.05 111.0 272.05 112.4 269.5 110.3 268.5 107.05 M287.05 131.4 Q287.55 130.2 287.5 128.8 287.35 125.95 284.55 124.9 281.75 123.85 280.85 122.45 L280.55 121.25 Q281.25 123.1 284.15 123.8 287.15 124.55 287.9 126.25 288.85 128.45 288.05 130.15 L287.05 131.4 M251.45 134.35 L249.6 135.05 Q247.45 135.55 246.0 134.5 L243.75 132.8 Q241.85 133.55 239.85 133.55 235.8 133.65 235.15 130.25 L235.5 131.3 Q236.25 132.45 238.3 132.8 240.4 133.2 242.35 132.35 243.35 131.95 243.9 131.45 L244.6 132.4 Q245.55 133.35 247.1 133.55 L251.45 134.35 M280.0 145.9 L278.8 145.35 273.95 148.55 276.1 146.45 Q278.5 144.4 279.7 144.75 L282.8 145.8 286.95 145.5 Q289.15 144.75 288.85 142.5 L288.15 140.35 289.2 141.45 Q290.1 142.9 289.55 144.6 288.95 146.35 286.25 146.8 L282.45 146.7 Q281.4 146.5 280.0 145.9 M270.45 156.9 L272.6 155.95 Q274.4 155.05 275.65 151.1 275.95 153.45 274.4 155.6 273.45 156.95 271.45 157.2 L269.6 157.15 270.45 156.9 M270.25 155.05 L272.15 154.1 270.2 155.95 Q267.75 157.7 265.35 157.15 262.3 156.4 260.85 155.0 259.2 153.4 260.35 151.7 261.4 150.2 261.05 148.4 L260.5 146.85 261.35 148.0 Q262.1 149.55 261.45 151.4 260.05 155.2 266.1 155.8 268.0 156.0 270.25 155.05 M257.8 144.75 L255.25 145.15 Q252.45 145.15 251.15 143.1 249.85 141.0 250.5 138.6 L251.45 136.6 251.75 139.05 Q252.15 141.7 252.8 142.8 253.5 143.95 255.7 144.45 L257.8 144.75 M249.55 178.35 Q249.25 178.1 250.25 178.0 252.95 177.7 255.4 175.85 253.85 178.45 250.9 178.6 L249.55 178.35 M257.35 170.45 Q259.75 168.0 260.55 165.3 261.25 163.7 261.1 165.8 260.95 167.85 259.9 169.4 258.9 170.9 259.85 170.6 260.65 170.35 261.45 169.55 262.3 168.65 262.85 168.45 263.6 168.2 263.1 169.7 262.55 171.3 260.7 172.65 258.75 174.05 260.4 171.95 261.65 170.3 259.9 171.0 259.1 171.3 256.45 172.7 253.55 174.3 257.35 170.45 M254.75 155.55 L252.05 151.85 Q251.2 150.9 249.5 148.05 L248.0 145.35 253.9 152.75 Q254.95 153.95 258.4 159.7 256.8 158.45 254.75 155.55 M284.7 167.5 Q287.25 167.35 288.45 166.8 289.2 166.45 289.0 166.9 L287.9 167.85 Q285.3 169.3 282.45 167.55 L284.7 167.5 M279.5 162.9 Q281.95 164.65 285.0 164.85 288.15 165.05 291.5 162.0 293.15 160.5 294.2 158.95 293.5 160.5 292.0 162.1 289.1 165.3 285.3 165.6 281.5 165.9 279.1 163.55 L277.45 161.2 279.5 162.9 M199.5 -213.65 L199.05 -214.85 Q201.1 -214.95 202.0 -213.3 202.9 -211.65 200.95 -211.1 L197.75 -210.6 196.55 -210.75 197.2 -211.35 Q198.05 -212.0 198.9 -212.2 199.8 -212.4 199.5 -213.65 M190.6 -214.05 L190.1 -213.55 Q189.75 -212.95 190.6 -212.5 191.55 -211.95 191.3 -211.3 191.05 -210.75 190.3 -210.45 189.8 -210.25 191.5 -209.8 L193.25 -209.35 Q189.85 -209.35 189.35 -210.3 189.2 -210.65 189.65 -211.15 189.9 -211.5 188.75 -212.0 187.45 -212.6 188.9 -213.4 L190.6 -214.05 M188.2 -215.35 Q189.45 -214.1 186.25 -212.35 183.2 -210.7 183.0 -210.25 182.9 -210.0 184.2 -209.05 185.15 -208.35 181.45 -207.55 L177.5 -206.85 Q181.85 -209.2 180.75 -209.7 180.2 -209.9 181.85 -210.9 184.25 -212.3 185.3 -213.6 186.6 -215.15 185.05 -215.6 L183.25 -215.75 Q186.95 -216.6 188.2 -215.35 M184.1 -220.8 L181.7 -221.4 Q184.7 -221.6 186.15 -220.9 187.55 -220.2 186.7 -218.9 186.0 -217.85 187.7 -217.85 L189.5 -218.1 Q187.5 -217.35 185.75 -217.65 184.55 -217.85 184.55 -218.35 184.6 -218.8 185.6 -219.55 186.4 -220.1 184.1 -220.8 M293.05 150.45 L291.35 148.7 Q294.55 149.25 295.1 152.35 295.35 153.9 294.95 155.35 294.75 152.7 293.05 150.45 M290.8 137.2 L292.25 139.2 Q293.65 141.5 293.1 143.1 292.6 144.75 293.9 145.3 L295.25 145.55 293.2 145.4 Q291.3 144.85 292.15 143.1 292.95 141.35 291.95 139.1 L290.8 137.2 M154.65 -213.35 L154.75 -213.45 Q155.15 -213.8 155.75 -213.75 L154.65 -213.35 Q154.0 -212.65 154.8 -210.95 155.6 -209.2 158.8 -208.85 L163.7 -208.1 Q164.95 -207.5 164.35 -206.85 163.8 -206.2 165.6 -205.3 167.75 -204.25 171.4 -204.95 L174.65 -205.9 Q173.95 -205.25 172.5 -204.75 169.6 -203.7 165.9 -204.2 L160.55 -205.15 Q159.75 -205.55 161.2 -206.55 162.15 -207.2 157.75 -207.85 152.6 -208.65 152.15 -210.0 151.65 -211.55 153.65 -212.8 L154.65 -213.35 M158.0 -191.45 Q157.35 -190.8 158.1 -189.8 158.55 -189.2 157.65 -187.95 156.7 -186.6 154.7 -185.45 149.3 -182.35 141.35 -183.55 L144.4 -183.6 Q148.0 -183.9 151.05 -185.3 154.45 -186.8 155.9 -188.5 157.15 -189.9 157.15 -191.7 157.15 -192.9 156.4 -194.45 155.8 -195.6 156.05 -195.75 156.7 -196.05 159.15 -194.6 161.65 -193.15 160.3 -192.65 158.5 -191.95 158.0 -191.45 M133.6 -193.0 Q131.0 -194.15 131.35 -195.15 131.85 -196.5 133.55 -196.95 L135.1 -197.15 Q133.5 -196.2 134.15 -195.85 134.6 -195.6 136.35 -194.8 136.95 -194.3 135.45 -192.55 133.75 -190.55 134.8 -188.55 135.95 -186.3 139.55 -185.65 L140.65 -185.45 134.95 -186.05 Q133.65 -186.35 133.0 -187.7 132.4 -188.95 130.55 -189.2 127.9 -189.55 128.25 -190.05 128.6 -190.65 132.45 -191.55 135.3 -192.2 133.6 -193.0 M136.3 -182.7 Q140.05 -181.4 141.95 -181.2 143.25 -181.05 142.2 -181.0 L139.6 -181.1 Q134.6 -181.65 132.9 -183.9 L136.3 -182.7 M149.75 -166.5 Q150.0 -164.5 151.35 -164.0 152.75 -163.55 153.2 -161.95 L153.4 -160.45 149.95 -163.85 Q148.0 -165.0 147.9 -165.45 147.8 -165.85 149.8 -168.4 L149.75 -166.5 M154.8 -160.1 L155.3 -157.9 Q155.55 -155.4 154.5 -153.85 153.45 -152.3 156.7 -149.65 158.3 -148.3 160.15 -147.3 L158.15 -147.85 Q155.9 -148.7 154.5 -150.1 153.25 -151.35 152.9 -153.15 152.7 -154.3 152.45 -154.0 152.1 -153.55 151.95 -151.85 L151.85 -150.25 Q151.4 -150.8 151.15 -151.8 150.55 -153.8 151.35 -156.05 152.0 -157.85 152.3 -156.95 152.8 -155.6 153.7 -156.35 154.9 -157.3 154.95 -158.8 L154.8 -160.1 M145.45 -150.4 Q146.35 -149.45 146.5 -148.4 145.9 -149.35 143.7 -150.55 142.85 -151.05 143.2 -152.1 143.7 -153.4 141.7 -155.3 139.45 -157.4 137.4 -158.55 L135.75 -159.25 139.45 -157.95 Q143.2 -156.4 143.55 -155.05 L144.4 -152.25 Q144.85 -151.0 145.45 -150.4 M163.9 -133.85 Q163.45 -133.15 162.5 -132.4 160.6 -130.95 157.95 -130.85 L154.5 -131.05 Q154.1 -131.4 156.35 -131.5 159.2 -131.65 163.9 -133.85 M141.1 -133.0 L142.15 -134.3 Q141.45 -130.8 146.3 -128.35 148.8 -127.1 152.3 -126.2 154.4 -125.25 148.65 -126.45 143.7 -127.55 142.0 -129.45 140.35 -131.3 141.1 -133.0 M163.65 -138.55 L162.65 -139.45 Q165.6 -139.0 164.95 -137.05 164.25 -135.15 161.2 -134.3 158.45 -133.5 158.65 -133.8 L161.85 -135.9 Q164.2 -137.35 163.65 -138.55 M163.25 -144.95 Q162.2 -146.35 163.1 -145.75 L165.4 -144.85 169.35 -144.15 Q172.0 -144.0 176.7 -142.0 L179.05 -140.4 Q175.6 -141.5 173.9 -141.65 172.8 -141.75 175.2 -139.7 L177.8 -137.6 172.5 -138.4 Q171.2 -138.7 169.05 -139.55 L167.15 -140.4 168.0 -140.7 171.7 -140.25 Q174.5 -139.55 171.35 -141.35 168.15 -143.15 165.9 -143.55 164.05 -143.85 163.25 -144.95 M144.2 -139.1 Q145.9 -140.2 144.95 -140.75 144.1 -141.2 144.1 -142.9 L144.2 -144.8 Q143.8 -146.35 142.25 -147.35 L140.75 -148.05 142.0 -148.0 Q143.55 -147.8 145.1 -146.8 L147.25 -144.9 Q147.45 -144.15 146.05 -143.25 144.95 -142.5 146.25 -141.95 L149.35 -140.55 Q150.75 -139.55 148.15 -138.6 145.8 -137.7 142.3 -137.45 139.7 -137.25 139.1 -135.7 138.8 -134.9 139.0 -134.15 138.8 -134.75 138.9 -135.5 139.15 -136.95 140.6 -137.45 142.7 -138.1 144.2 -139.1 M148.4 -135.1 Q147.6 -136.65 149.35 -137.7 L151.2 -138.4 150.05 -137.55 Q149.05 -136.55 149.65 -135.55 150.6 -134.0 156.35 -132.9 L152.85 -133.05 Q149.2 -133.55 148.4 -135.1 M175.2 -202.65 Q172.9 -202.2 170.3 -202.65 L172.45 -202.85 Q174.85 -203.15 175.9 -203.75 L178.1 -204.85 180.6 -205.15 Q181.65 -205.1 180.45 -204.8 178.45 -204.4 177.95 -203.9 177.15 -203.1 175.2 -202.65 M183.7 -138.0 L181.7 -139.3 184.75 -138.35 Q188.15 -137.45 189.7 -137.45 L195.7 -137.45 202.05 -137.75 Q203.9 -138.05 205.4 -135.9 L206.55 -133.7 207.95 -129.6 Q205.0 -133.55 202.8 -135.4 201.5 -136.5 197.55 -136.4 L189.85 -136.35 Q186.4 -136.65 183.7 -138.0 M183.0 -127.2 Q182.0 -128.3 183.25 -128.85 L186.85 -129.05 Q188.6 -128.45 186.85 -127.6 L185.35 -126.2 Q184.0 -124.55 185.0 -123.35 186.05 -122.1 188.95 -120.95 191.35 -119.95 192.8 -119.75 L197.8 -119.15 194.75 -118.9 Q191.2 -118.9 188.75 -120.1 184.7 -121.8 182.15 -123.2 180.25 -124.25 180.3 -124.8 180.4 -125.4 182.5 -125.85 183.9 -126.15 183.0 -127.2 M-10.95 42.3 L-12.6 53.0 -13.4 51.0 Q-14.0 48.9 -13.2 48.25 -11.85 47.2 -10.95 42.3 M48.8 -16.6 L46.6 -18.45 48.1 -17.85 Q49.7 -17.0 50.2 -15.8 50.7 -14.6 54.05 -13.3 55.95 -12.55 60.2 -11.1 63.35 -9.85 66.85 -6.55 70.6 -3.0 71.6 0.15 73.05 4.55 75.2 7.05 73.65 6.5 70.3 1.95 67.1 -2.45 66.45 -4.55 66.0 -6.2 62.15 -8.15 L56.95 -10.5 52.15 -11.35 Q49.05 -11.85 49.9 -13.15 50.8 -14.5 48.8 -16.6 M38.25 -21.8 Q39.55 -21.2 40.65 -20.95 37.85 -20.5 36.15 -20.95 35.05 -21.25 33.6 -23.55 L32.4 -25.8 32.85 -26.0 Q33.5 -25.85 34.55 -24.4 35.65 -22.95 38.25 -21.8 M214.7 -117.45 L217.0 -117.35 Q218.2 -117.0 217.8 -115.7 217.35 -114.25 216.0 -114.55 214.6 -114.85 215.5 -115.85 216.15 -116.6 215.2 -117.1 L214.7 -117.45 M208.45 -115.85 Q207.85 -116.55 209.4 -117.35 L211.1 -118.05 209.8 -116.65 208.75 -114.75 Q208.25 -113.95 211.25 -113.65 L214.7 -113.5 Q207.95 -113.05 206.4 -114.0 205.65 -114.45 207.2 -114.85 208.95 -115.3 208.45 -115.85 M209.55 -129.8 L210.4 -127.8 Q211.4 -125.55 212.45 -124.25 213.65 -122.75 214.7 -122.6 216.0 -122.45 219.9 -121.1 224.05 -119.65 225.95 -119.3 229.7 -118.7 235.0 -119.95 L234.0 -119.15 Q232.4 -118.25 229.55 -117.9 226.55 -117.45 224.0 -117.95 222.15 -118.25 221.25 -118.85 220.9 -119.05 222.3 -117.8 L225.35 -114.95 Q226.85 -113.3 223.95 -114.6 221.15 -115.9 220.5 -117.45 220.05 -118.5 217.0 -119.55 213.65 -120.75 212.35 -122.3 210.8 -124.15 210.0 -127.15 L209.55 -129.8 M201.3 -116.55 Q198.9 -115.65 195.95 -116.2 193.05 -116.7 194.25 -117.05 L198.1 -117.45 Q201.1 -117.6 204.35 -118.7 203.25 -117.25 201.3 -116.55 M203.15 -125.45 L203.1 -126.65 Q205.3 -126.3 206.7 -125.15 208.15 -124.0 206.1 -124.0 204.1 -124.0 203.35 -123.4 202.65 -122.8 203.75 -122.45 L205.05 -121.9 Q205.05 -121.7 202.5 -121.2 L199.35 -120.65 Q199.1 -120.75 201.1 -122.45 202.85 -123.9 203.15 -125.45 M-30.4 48.85 Q-29.25 50.8 -29.15 51.35 L-28.85 55.65 Q-30.35 53.3 -30.65 51.35 L-31.55 47.05 -30.4 48.85 M-33.6 78.6 Q-33.1 80.55 -35.2 83.3 -37.2 85.85 -38.65 86.0 -39.65 86.1 -40.85 87.85 L-41.9 89.55 -41.15 87.4 Q-40.05 85.1 -38.2 84.35 -36.35 83.65 -34.8 81.05 L-33.6 78.6 M82.15 13.4 Q84.5 15.75 84.3 17.8 84.1 19.9 84.95 21.5 L86.3 23.3 Q86.7 23.75 90.85 26.4 L92.9 27.7 88.2 24.85 Q85.85 23.8 84.65 22.95 82.5 21.4 82.9 19.05 83.3 16.7 81.55 13.8 L79.75 11.4 82.15 13.4 M132.3 45.0 Q131.25 44.55 132.7 44.65 L135.4 45.2 140.25 45.35 Q144.85 45.0 140.85 46.65 136.65 48.4 135.9 47.5 134.6 46.05 132.3 45.0 M158.1 43.0 L150.6 44.05 146.35 45.0 148.1 44.15 Q150.75 43.2 155.1 42.5 159.5 41.85 165.35 38.75 L170.3 35.8 165.85 39.35 Q160.8 42.9 158.1 43.0 M86.8 25.8 Q88.35 26.4 91.5 29.85 L86.55 26.45 83.05 24.25 86.8 25.8 M243.15 -22.65 L242.9 -24.4 244.25 -22.0 Q244.6 -19.2 239.8 -17.15 235.25 -15.2 230.65 -9.95 L228.15 -7.3 Q229.0 -9.4 233.45 -13.7 237.9 -17.95 240.65 -19.45 242.9 -20.7 243.15 -22.65 M238.3 44.05 L241.95 44.5 Q234.9 44.85 232.25 43.55 230.3 42.55 227.5 41.7 224.7 40.85 222.75 40.75 L217.65 39.8 214.55 38.95 221.4 39.55 Q228.8 40.45 231.45 41.9 234.1 43.35 238.3 44.05 M-210.9 -237.5 L-214.2 -237.05 -216.55 -236.45 Q-216.4 -236.25 -213.65 -235.75 -204.4 -234.05 -202.25 -232.85 L-213.85 -233.8 -220.85 -233.6 -227.0 -233.05 Q-229.35 -232.5 -227.65 -233.8 -226.0 -235.0 -223.75 -235.0 -221.4 -235.0 -220.6 -235.85 -219.8 -236.75 -221.6 -237.15 -223.55 -237.6 -220.9 -238.05 -218.15 -238.55 -214.3 -238.1 L-210.9 -237.5 M-233.95 -233.8 L-245.35 -232.4 Q-248.65 -231.75 -252.2 -230.15 -257.85 -227.55 -258.05 -227.5 -261.05 -226.3 -260.1 -227.15 L-255.35 -230.05 -249.0 -233.6 -246.95 -233.95 -242.35 -234.25 -233.15 -234.05 Q-227.8 -233.9 -233.95 -233.8 M-181.85 -225.4 Q-178.75 -223.15 -183.65 -225.55 -190.85 -228.55 -194.2 -229.3 -196.6 -229.85 -195.3 -230.05 L-192.35 -229.75 Q-190.55 -229.2 -189.4 -229.2 -188.2 -229.25 -190.2 -230.15 -192.3 -231.1 -190.4 -231.05 -188.5 -231.0 -186.75 -230.15 -185.05 -229.35 -185.0 -228.85 -184.95 -228.35 -186.65 -229.2 -188.25 -229.95 -188.3 -229.65 -188.35 -229.3 -187.0 -228.65 -184.95 -227.65 -181.85 -225.4 M-177.0 -221.0 L-174.6 -219.8 -171.7 -218.25 Q-171.1 -217.75 -170.0 -217.75 -168.9 -217.75 -169.55 -218.65 L-171.0 -220.5 Q-171.6 -221.3 -170.75 -221.0 L-166.15 -218.75 Q-165.5 -218.5 -166.05 -218.4 -166.6 -218.25 -167.2 -218.65 -167.9 -219.1 -168.1 -218.2 -168.3 -217.25 -167.4 -216.7 -166.75 -216.3 -160.95 -213.7 -157.1 -211.85 -164.3 -214.55 -168.9 -215.85 -171.3 -217.35 L-177.0 -221.0 M-162.35 -183.95 L-154.85 -185.55 -147.55 -186.85 Q-144.95 -187.05 -146.9 -186.5 L-152.85 -184.8 Q-157.05 -183.5 -155.5 -183.4 -153.65 -183.25 -152.75 -182.75 -151.9 -182.25 -153.35 -182.2 -158.35 -181.95 -157.2 -180.9 -156.15 -179.95 -154.2 -179.3 L-156.75 -179.95 Q-159.3 -180.75 -159.05 -181.55 L-157.65 -183.45 -156.55 -184.35 -159.3 -183.7 Q-162.05 -182.85 -161.95 -182.0 -161.75 -180.95 -160.75 -180.2 -159.85 -179.5 -157.75 -178.75 -159.4 -179.0 -161.05 -179.55 -164.35 -180.6 -164.5 -182.0 -164.65 -183.4 -162.35 -183.95 M-211.3 -145.2 L-204.4 -147.25 Q-200.7 -148.15 -203.85 -147.15 -206.95 -146.2 -209.15 -144.85 -211.45 -143.45 -209.8 -143.3 -207.4 -143.05 -204.1 -145.2 L-207.3 -142.55 Q-208.4 -141.65 -207.65 -140.55 L-206.65 -139.65 Q-209.25 -140.7 -209.45 -141.55 -209.65 -142.4 -211.15 -142.6 -212.6 -142.8 -212.05 -141.15 -211.5 -139.6 -210.3 -138.7 -209.65 -138.25 -209.15 -138.1 L-210.65 -138.5 Q-212.3 -139.1 -213.35 -140.4 -214.0 -141.2 -214.1 -142.2 -214.25 -144.2 -211.3 -145.2 M-230.4 -116.0 Q-227.0 -116.15 -221.5 -117.7 L-216.65 -118.55 Q-212.05 -119.15 -216.85 -117.65 -221.7 -116.1 -225.15 -115.75 -228.3 -115.45 -230.9 -115.65 -233.5 -115.8 -230.4 -116.0 M-222.35 -119.35 Q-227.15 -117.95 -232.35 -117.5 L-238.65 -116.8 -243.0 -115.85 Q-246.65 -114.85 -248.15 -114.6 -251.2 -114.1 -252.7 -114.9 -246.65 -115.45 -243.75 -116.85 -241.95 -117.75 -239.95 -117.9 L-231.2 -118.45 -222.35 -119.35 M-203.0 -136.3 L-203.75 -136.95 Q-201.4 -136.0 -199.05 -136.0 -196.95 -135.95 -195.25 -135.1 -193.05 -134.05 -193.45 -132.7 -193.6 -132.25 -193.9 -132.15 -194.15 -132.05 -194.1 -132.55 -193.9 -133.5 -195.7 -134.45 -197.55 -135.4 -199.9 -135.55 -201.85 -135.65 -203.0 -136.3 M-201.7 -129.85 Q-201.35 -130.65 -202.15 -132.0 -202.6 -132.75 -200.95 -133.05 -198.75 -133.45 -196.8 -132.3 -194.9 -131.15 -197.1 -130.9 -199.3 -130.65 -199.95 -130.1 -200.6 -129.55 -199.45 -128.75 -198.1 -127.85 -199.6 -127.0 -201.3 -125.95 -206.15 -125.45 -209.65 -125.05 -210.0 -123.55 -210.35 -122.05 -213.45 -121.8 L-225.8 -120.9 -212.45 -124.35 Q-207.35 -125.8 -204.8 -127.1 -202.4 -128.35 -201.7 -129.85 M-166.55 -153.0 Q-167.75 -153.4 -166.75 -154.05 -165.1 -155.05 -167.6 -154.4 -170.1 -153.75 -172.8 -152.2 -175.2 -150.8 -174.05 -151.6 L-172.45 -152.65 -169.85 -154.35 Q-166.9 -156.1 -165.05 -156.3 L-160.5 -156.5 Q-157.7 -156.7 -155.5 -157.9 -152.95 -159.3 -153.05 -158.35 -153.15 -157.45 -155.15 -156.4 -156.45 -155.75 -161.6 -154.85 -165.4 -154.2 -164.0 -154.05 -161.65 -153.75 -161.25 -153.2 -160.85 -152.6 -163.35 -152.55 -165.45 -152.45 -169.0 -151.35 L-172.15 -150.25 -170.4 -151.1 -166.75 -152.4 Q-165.6 -152.7 -166.55 -153.0 M-175.6 -153.05 Q-176.75 -152.3 -178.6 -151.45 -180.95 -150.4 -182.45 -150.15 L-186.25 -150.05 -189.55 -149.65 Q-190.5 -149.2 -191.5 -149.15 L-194.2 -148.9 -198.7 -148.0 Q-200.45 -147.65 -197.0 -148.75 L-194.0 -149.7 Q-190.3 -150.65 -186.9 -150.8 -183.7 -150.95 -178.75 -152.3 L-175.6 -153.05 M-132.9 -200.1 L-135.05 -200.8 Q-131.05 -200.45 -129.05 -199.2 L-127.0 -197.6 Q-125.7 -197.05 -127.4 -199.4 L-126.4 -198.7 Q-125.45 -197.65 -125.5 -196.2 -125.55 -194.65 -126.9 -193.75 -128.8 -192.55 -127.3 -194.15 -126.4 -195.1 -127.2 -196.6 -128.05 -198.2 -128.15 -196.85 -128.3 -195.35 -131.1 -193.4 L-129.7 -194.7 Q-128.55 -196.3 -129.55 -197.7 -130.6 -199.1 -132.9 -200.1 M-194.2 -114.7 Q-198.15 -115.35 -194.15 -116.1 -190.15 -116.8 -190.3 -117.15 L-193.8 -119.15 Q-196.35 -120.5 -194.2 -122.05 -193.15 -122.85 -191.6 -123.35 L-187.85 -123.2 -186.35 -122.5 -188.4 -122.6 Q-190.8 -122.5 -192.3 -121.65 -194.05 -120.65 -193.5 -120.0 -192.95 -119.35 -189.75 -118.45 -186.15 -117.45 -184.7 -116.1 -183.05 -114.65 -186.35 -114.4 L-194.2 -114.7 M-192.25 -145.75 Q-192.7 -145.9 -192.3 -146.3 -191.8 -146.85 -189.8 -147.35 L-183.0 -147.8 -189.25 -146.5 -192.25 -145.75 M-138.05 -204.15 L-136.1 -203.55 Q-134.4 -203.0 -134.2 -202.3 -137.95 -203.6 -138.8 -204.05 -139.45 -204.35 -138.9 -204.35 L-138.05 -204.15 M-132.5 -191.35 Q-130.45 -192.65 -132.1 -191.0 -133.45 -189.65 -135.35 -189.25 L-140.15 -187.25 Q-143.8 -185.6 -147.5 -185.35 L-145.0 -186.05 Q-142.3 -187.0 -141.0 -188.0 -139.9 -188.85 -136.75 -189.8 -133.35 -190.8 -132.5 -191.35 M-149.85 -205.75 L-151.4 -206.5 -149.25 -206.35 Q-147.0 -206.1 -146.45 -205.55 -145.6 -204.7 -139.45 -202.75 L-146.15 -204.45 -149.85 -205.75 M-154.1 -177.35 L-147.4 -175.95 Q-145.65 -175.6 -143.25 -174.2 -140.75 -172.65 -140.2 -171.35 -144.1 -174.15 -147.55 -174.9 -149.65 -175.35 -152.1 -176.4 L-154.1 -177.35 M-142.05 -165.45 Q-140.25 -166.55 -140.25 -168.0 L-140.65 -169.2 -141.7 -170.9 -140.0 -170.25 Q-138.35 -169.25 -138.4 -167.8 -138.45 -166.5 -140.85 -164.85 -142.65 -163.65 -142.05 -163.6 L-139.05 -163.35 Q-137.8 -162.8 -141.2 -160.8 -144.75 -158.7 -148.5 -157.75 -152.75 -156.65 -148.3 -158.45 -145.0 -159.8 -143.65 -161.2 -142.5 -162.45 -143.55 -162.65 -144.2 -162.75 -147.75 -161.4 -150.5 -160.3 -149.9 -160.7 L-142.05 -165.45 M-284.95 -220.6 Q-276.95 -224.75 -273.85 -224.55 -272.5 -224.5 -275.5 -223.4 -277.95 -222.55 -276.0 -222.85 L-270.25 -223.65 -266.65 -224.35 -263.95 -224.8 Q-262.35 -224.8 -265.05 -224.15 L-276.25 -221.05 Q-278.85 -220.4 -280.75 -218.75 -282.6 -217.15 -284.95 -216.6 L-287.25 -216.2 -284.1 -217.35 Q-282.1 -218.1 -280.05 -219.95 -278.05 -221.75 -280.0 -221.15 L-285.15 -219.65 Q-287.9 -219.05 -284.95 -220.6 M-294.4 -214.7 Q-299.9 -213.6 -303.1 -212.3 -307.85 -210.45 -303.75 -208.55 L-300.8 -207.0 Q-300.15 -206.45 -301.95 -206.4 L-305.25 -206.85 -308.7 -207.35 Q-310.2 -207.35 -308.4 -208.1 -306.6 -208.9 -307.4 -208.9 -309.35 -208.9 -309.65 -210.05 -310.0 -211.35 -306.0 -212.55 -300.0 -214.35 -294.4 -214.7 M-265.8 -228.3 L-261.9 -229.45 Q-257.2 -231.5 -260.9 -229.25 -264.1 -227.3 -265.95 -227.45 L-267.85 -227.7 -265.8 -228.3 M-326.2 -192.75 L-328.4 -190.75 Q-330.3 -188.5 -328.7 -187.35 -327.05 -186.2 -323.05 -185.55 L-319.35 -185.1 Q-325.25 -184.7 -328.5 -185.85 -331.05 -186.8 -330.5 -189.15 -329.9 -191.6 -326.2 -192.75 M-351.8 -163.3 L-348.8 -163.95 Q-347.35 -164.15 -348.9 -163.25 -350.5 -162.3 -352.25 -161.9 L-358.7 -160.4 -359.3 -160.25 -357.2 -161.45 Q-355.25 -162.45 -351.8 -163.3 M-329.25 -184.15 Q-327.4 -183.3 -324.4 -183.3 L-318.7 -183.45 Q-316.25 -183.45 -314.2 -182.65 -311.75 -181.7 -314.15 -181.8 -316.55 -181.9 -317.6 -182.75 -318.45 -183.4 -320.6 -182.75 L-323.95 -181.65 Q-325.25 -181.35 -327.5 -182.55 -329.7 -183.65 -330.2 -184.7 L-329.25 -184.15 M-368.9 -153.5 L-368.8 -152.65 -367.7 -153.8 Q-366.15 -155.05 -363.85 -155.5 -360.2 -156.2 -356.65 -157.65 -352.2 -158.25 -354.6 -157.3 -356.8 -156.4 -360.95 -155.5 -363.7 -154.9 -366.15 -153.25 L-370.0 -150.85 Q-371.65 -150.15 -371.4 -151.75 -371.1 -153.6 -371.4 -153.65 L-373.15 -152.2 Q-374.4 -150.65 -374.8 -150.6 -375.65 -150.5 -373.15 -153.3 -370.65 -156.1 -368.9 -156.4 L-366.15 -156.7 Q-365.5 -156.55 -367.2 -155.5 -368.75 -154.55 -368.9 -153.5 M-326.2 -169.85 L-323.75 -170.5 Q-321.65 -170.95 -323.55 -169.8 -325.35 -168.7 -326.85 -169.0 -328.2 -169.25 -326.2 -169.85 M-335.05 -166.75 Q-338.2 -165.95 -340.2 -164.15 L-341.6 -162.55 -340.1 -165.0 Q-337.95 -167.65 -334.5 -168.55 -331.35 -169.35 -331.0 -170.35 -330.55 -171.75 -329.75 -172.2 -328.15 -173.1 -324.8 -174.1 L-321.5 -175.0 -321.75 -174.3 Q-322.6 -173.4 -325.7 -172.55 L-329.6 -171.35 Q-329.8 -171.2 -329.15 -170.4 -327.65 -168.6 -335.05 -166.75 M-376.7 -144.4 Q-377.2 -141.75 -374.7 -139.4 -372.25 -137.05 -367.85 -136.3 L-364.4 -135.95 -367.85 -136.05 Q-372.15 -136.45 -374.2 -137.9 L-377.55 -140.85 Q-378.45 -141.6 -378.05 -139.95 -377.55 -137.8 -378.7 -139.1 -379.85 -140.35 -379.75 -142.1 -379.7 -143.85 -379.0 -144.3 -378.3 -144.7 -378.15 -143.5 -378.1 -143.15 -377.75 -144.2 -377.15 -146.15 -375.7 -146.6 L-376.7 -144.4 M-368.2 -133.25 Q-369.9 -134.5 -367.6 -133.7 -365.15 -132.85 -357.5 -132.3 -354.85 -132.05 -358.15 -131.65 -361.4 -131.25 -364.05 -131.7 -366.65 -132.1 -368.2 -133.25 M-331.45 -128.6 Q-331.15 -129.75 -333.0 -131.15 -335.4 -132.9 -338.8 -132.7 L-340.35 -132.3 Q-340.7 -131.95 -339.55 -131.55 -337.05 -130.7 -337.05 -130.3 L-340.3 -130.05 -348.45 -130.55 Q-352.8 -130.85 -351.15 -131.15 L-345.45 -131.9 Q-342.25 -132.45 -344.85 -133.05 L-353.3 -134.15 Q-358.1 -134.55 -356.85 -134.8 L-339.55 -133.4 Q-330.5 -132.45 -330.75 -130.3 -330.85 -129.4 -331.45 -128.6 L-331.65 -128.2 Q-332.1 -127.55 -333.0 -127.25 -332.0 -127.85 -331.45 -128.6 M-346.55 -126.95 L-339.1 -127.2 Q-335.15 -127.3 -336.75 -126.75 -341.3 -125.2 -344.7 -124.25 L-350.6 -122.6 Q-353.7 -121.8 -352.45 -122.65 -351.55 -123.25 -348.0 -124.45 -345.4 -125.25 -346.55 -125.35 -348.45 -125.45 -348.95 -126.15 -349.45 -126.9 -346.55 -126.95 M-352.5 -120.05 Q-347.35 -120.35 -352.05 -119.75 L-355.1 -118.0 Q-358.0 -115.65 -357.4 -112.8 -356.8 -109.8 -351.95 -107.9 -349.9 -107.05 -343.75 -105.6 -340.05 -104.7 -344.25 -104.8 -348.35 -104.95 -350.95 -106.0 L-355.1 -107.55 -359.55 -108.0 -360.85 -108.05 -359.8 -108.25 Q-357.2 -108.8 -357.75 -109.6 -358.15 -110.75 -358.6 -111.1 -359.25 -111.6 -362.45 -112.0 -365.45 -112.35 -363.25 -113.2 -359.9 -114.25 -359.0 -114.85 -358.25 -115.35 -358.55 -116.45 -358.8 -117.55 -357.1 -118.65 -355.1 -119.9 -352.5 -120.05 M-306.75 -203.5 L-298.15 -203.95 -307.95 -201.55 Q-309.05 -201.3 -309.85 -200.25 -310.65 -199.15 -309.35 -199.3 -307.4 -199.5 -315.8 -197.5 -317.7 -197.0 -319.7 -195.65 -321.65 -194.3 -322.8 -194.05 -324.6 -193.65 -321.95 -195.6 -319.35 -197.5 -317.0 -198.45 -313.95 -199.65 -311.6 -201.35 L-310.5 -202.4 Q-308.95 -203.5 -306.75 -203.5 M-266.5 -113.9 L-263.1 -113.4 Q-260.75 -113.25 -263.5 -113.0 L-267.75 -112.85 Q-268.75 -112.9 -268.75 -111.6 L-268.6 -110.4 -269.35 -112.65 Q-269.8 -114.1 -266.5 -113.9 M-309.5 -179.8 Q-309.2 -179.05 -309.75 -177.5 -310.35 -175.85 -313.65 -174.2 -316.2 -172.95 -318.6 -172.45 L-319.45 -172.3 -318.6 -172.75 Q-315.55 -174.15 -313.3 -175.45 -310.35 -177.1 -309.85 -178.85 L-309.9 -180.3 -309.5 -179.8 M-281.05 -117.9 L-279.95 -118.6 -272.9 -118.9 Q-261.75 -118.15 -252.25 -118.45 -247.75 -118.6 -250.2 -117.75 -252.6 -116.95 -257.0 -116.95 L-267.3 -117.4 -270.85 -117.25 -265.15 -116.1 Q-268.5 -115.85 -271.5 -116.75 L-276.05 -118.1 -281.05 -117.9 M-274.2 -112.75 Q-272.25 -112.45 -271.45 -111.8 -270.1 -110.75 -270.55 -108.45 -270.9 -106.3 -273.4 -104.35 -274.65 -103.4 -275.8 -102.85 -274.3 -103.85 -272.05 -107.05 -270.65 -109.1 -272.3 -111.1 L-274.2 -112.75 M-243.0 -92.25 Q-245.2 -91.6 -247.15 -89.75 L-248.6 -88.0 -248.1 -89.25 Q-247.25 -90.8 -245.55 -92.05 -244.3 -93.0 -241.7 -93.65 -239.6 -94.2 -238.95 -95.3 -238.2 -96.55 -234.85 -97.8 L-231.7 -98.85 Q-235.7 -96.8 -236.35 -95.85 -236.7 -95.35 -236.25 -95.3 -239.45 -93.25 -243.0 -92.25 M-275.3 -106.45 Q-274.85 -106.4 -275.25 -105.2 -275.95 -103.25 -281.35 -101.3 -285.45 -99.85 -284.6 -99.75 -282.45 -99.45 -282.2 -99.1 -281.9 -98.65 -284.5 -98.45 L-291.55 -98.1 Q-296.6 -98.15 -301.9 -99.4 L-297.1 -99.45 Q-291.3 -99.85 -286.1 -101.45 -282.3 -102.65 -277.15 -105.6 L-275.3 -106.45 M-263.8 -66.55 L-264.65 -66.65 Q-270.55 -67.15 -274.8 -64.85 -279.9 -62.15 -282.1 -60.1 L-279.55 -62.45 Q-276.55 -65.0 -274.15 -66.05 -271.7 -67.1 -267.5 -66.9 L-263.8 -66.55 M-245.55 -84.65 Q-246.4 -83.6 -249.45 -82.75 L-252.8 -81.7 Q-253.9 -81.15 -253.65 -79.9 -253.55 -79.2 -253.9 -79.45 L-254.45 -80.4 Q-255.15 -82.45 -253.35 -83.45 -251.95 -84.2 -250.7 -83.85 -249.45 -83.6 -247.9 -84.45 -245.65 -85.75 -242.65 -86.0 -239.75 -86.3 -245.55 -84.65 M-248.25 -77.2 Q-251.9 -77.95 -250.8 -78.8 -249.9 -79.55 -248.6 -79.55 -247.9 -79.55 -243.5 -81.75 L-243.55 -80.5 Q-243.75 -79.15 -244.7 -78.7 -245.95 -78.2 -244.75 -77.6 -243.55 -77.0 -240.65 -77.0 -238.1 -77.0 -235.15 -75.2 L-232.7 -73.45 Q-236.4 -74.3 -237.1 -75.35 -237.45 -75.9 -240.75 -76.2 L-248.25 -77.2 M-318.8 -98.65 L-327.9 -99.2 Q-332.35 -99.4 -329.55 -98.65 -325.7 -97.65 -324.85 -96.85 -323.95 -96.0 -328.8 -96.6 -333.75 -97.25 -336.95 -98.25 -340.1 -99.25 -337.3 -99.1 -334.75 -98.95 -333.45 -99.55 -332.1 -100.15 -334.7 -100.15 L-340.5 -100.55 Q-343.9 -101.05 -345.35 -102.0 L-342.1 -101.6 -336.55 -101.45 -329.3 -101.65 -321.6 -101.05 -314.0 -99.9 -307.3 -99.2 Q-305.2 -99.05 -310.0 -98.75 -314.9 -98.5 -318.8 -98.65 M-303.9 -27.65 Q-303.1 -27.0 -305.05 -26.3 -306.75 -25.75 -306.7 -25.25 -306.7 -24.8 -304.45 -25.6 -302.15 -26.4 -297.95 -26.75 -293.75 -27.1 -295.2 -26.35 -299.35 -25.7 -304.0 -24.15 -311.05 -21.85 -315.35 -18.7 -318.2 -16.6 -316.95 -18.1 -315.8 -19.5 -312.25 -21.8 -308.45 -24.2 -308.2 -24.8 -307.95 -25.35 -311.1 -24.15 -314.05 -23.0 -312.55 -24.1 -311.1 -25.15 -307.65 -26.85 -304.65 -28.3 -303.9 -27.65 M-320.15 -28.15 Q-321.15 -28.8 -321.3 -29.7 -321.4 -30.65 -320.65 -31.55 -320.0 -32.25 -321.95 -33.0 L-324.0 -33.55 -322.75 -33.5 -318.25 -32.55 -314.9 -31.6 Q-314.9 -31.5 -317.45 -30.5 -319.7 -29.6 -317.9 -28.85 -316.5 -28.3 -313.2 -28.0 -310.8 -27.75 -313.25 -26.0 -315.55 -24.35 -318.25 -23.6 -319.75 -23.2 -319.45 -22.3 -318.95 -20.8 -320.15 -19.2 -321.6 -17.15 -325.75 -15.85 L-329.6 -14.95 Q-324.7 -16.65 -321.8 -19.35 -320.0 -21.05 -320.5 -22.65 L-321.3 -23.9 Q-317.0 -25.3 -317.7 -26.55 L-320.15 -28.15 M-289.5 -34.75 L-291.0 -33.4 Q-292.55 -31.75 -292.55 -30.2 -292.55 -28.65 -291.4 -27.75 L-294.95 -29.15 -298.45 -30.35 Q-299.65 -30.9 -297.15 -31.0 -294.4 -31.15 -293.7 -31.7 -293.1 -32.2 -294.1 -32.9 -294.95 -33.5 -297.9 -33.55 L-302.7 -33.05 Q-305.65 -32.25 -301.15 -34.3 -297.45 -36.0 -295.45 -35.6 L-291.7 -35.75 Q-290.75 -36.05 -290.2 -36.45 L-287.95 -36.65 Q-286.35 -36.55 -289.5 -34.75 M-350.55 -27.45 Q-350.55 -26.9 -351.85 -27.25 L-354.8 -27.65 Q-355.65 -27.55 -355.75 -28.05 -355.85 -28.6 -355.05 -29.2 -352.85 -30.95 -347.2 -31.2 L-348.85 -29.7 Q-350.55 -28.1 -350.55 -27.45 M-359.2 -18.35 Q-357.35 -18.45 -357.2 -19.25 -357.0 -20.05 -358.85 -21.55 -360.7 -23.05 -359.75 -23.55 L-353.3 -24.75 -355.4 -22.7 Q-357.0 -20.25 -354.8 -18.15 -352.35 -15.85 -345.1 -14.7 L-334.15 -14.1 Q-340.6 -12.25 -348.05 -14.1 -353.75 -15.5 -357.3 -16.85 -360.9 -18.2 -359.2 -18.35 M-323.55 -12.15 L-322.5 -12.25 -325.3 -8.8 Q-328.15 -5.1 -328.25 -3.75 -328.35 -2.6 -328.75 -3.3 -329.65 -4.6 -330.45 -4.85 -331.3 -5.05 -330.3 -5.8 -328.2 -7.35 -326.75 -9.25 -324.95 -11.6 -323.55 -12.15 M-329.75 -10.75 Q-332.1 -9.35 -334.4 -8.7 L-336.2 -8.35 -335.1 -9.2 Q-334.25 -10.05 -335.5 -10.05 L-340.45 -10.2 Q-344.3 -10.6 -347.0 -11.9 L-343.65 -11.4 Q-339.45 -10.95 -335.35 -11.25 L-328.7 -12.0 Q-327.45 -12.1 -329.75 -10.75 M-375.5 44.0 Q-375.5 44.95 -375.65 45.65 -375.8 46.25 -375.3 46.8 -374.7 47.5 -374.65 48.1 -374.5 49.4 -374.9 50.65 -374.65 48.1 -375.8 47.45 -376.5 47.05 -376.1 45.1 L-375.55 43.2 -375.5 44.0 M-328.9 1.95 L-328.8 3.95 -328.4 7.35 Q-328.25 8.25 -325.85 9.55 -322.6 11.35 -320.45 13.6 -317.9 16.35 -317.35 20.75 -317.05 22.95 -317.25 24.6 -317.7 21.0 -318.55 18.95 -319.0 17.8 -320.3 15.8 -321.3 14.3 -321.45 14.8 -321.6 15.3 -321.0 18.0 -320.4 20.55 -320.95 20.7 -321.55 20.8 -321.8 18.55 -322.0 16.75 -324.2 15.05 L-327.75 12.6 Q-328.7 11.85 -327.55 12.2 -325.35 12.9 -324.2 12.8 -323.05 12.7 -325.05 11.45 -328.05 9.6 -328.75 8.2 -329.6 6.5 -329.35 4.05 L-328.9 1.95 M-375.4 56.5 Q-375.8 58.8 -375.6 59.9 -375.45 60.75 -373.75 61.2 -372.1 61.6 -372.0 62.5 -371.7 65.25 -368.5 63.85 L-365.8 62.95 -363.45 63.1 -360.15 63.3 Q-362.75 64.25 -363.75 64.05 -367.1 63.4 -368.4 64.75 -369.25 65.7 -370.8 65.0 -372.3 64.3 -372.4 63.0 -372.45 61.85 -373.7 61.4 L-376.25 60.95 Q-378.25 60.7 -376.55 57.45 L-375.0 54.45 -375.4 56.5 M-364.6 56.6 Q-363.95 56.85 -363.55 57.75 -363.05 58.8 -362.4 59.3 L-361.6 59.8 Q-363.6 59.95 -365.1 61.15 L-365.45 61.45 -365.05 61.0 -363.65 59.1 Q-363.35 58.3 -363.95 57.4 L-364.6 56.6 M-334.8 58.6 Q-334.35 58.2 -332.95 58.15 L-331.0 57.9 -332.75 58.6 -334.05 58.9 Q-334.75 59.3 -334.2 60.3 -333.25 61.85 -333.2 62.55 -333.05 63.6 -334.5 63.65 L-336.45 63.3 Q-337.15 63.05 -338.1 63.55 -341.15 65.2 -343.05 64.75 -343.65 64.05 -344.45 63.6 -345.95 62.7 -350.65 63.05 L-348.05 62.6 -344.5 62.7 -342.1 63.95 Q-340.45 64.55 -339.15 63.65 -337.85 62.75 -336.55 62.6 L-334.7 62.6 Q-334.0 62.55 -334.3 61.6 L-335.0 59.85 Q-335.25 58.95 -334.8 58.6 M-327.6 53.75 Q-326.1 53.7 -326.15 54.55 L-326.3 56.4 Q-326.15 57.2 -324.9 57.35 -322.9 57.55 -321.6 58.15 -321.0 58.5 -320.05 57.55 -320.5 59.1 -321.6 59.1 L-323.0 58.4 Q-324.0 57.7 -325.55 57.75 -327.25 57.8 -327.35 57.2 L-326.95 55.7 Q-326.7 54.75 -327.05 54.45 -327.45 54.0 -329.15 53.95 L-327.6 53.75 M-349.65 67.35 Q-351.65 68.05 -353.4 68.1 -355.35 68.15 -355.65 67.35 -356.05 66.5 -356.95 66.5 L-363.0 67.35 -359.85 66.45 -354.6 66.2 -350.4 66.55 -347.3 66.45 Q-345.9 66.55 -344.6 67.75 L-346.2 67.25 -349.65 67.35 M-325.55 70.45 Q-325.0 68.75 -324.1 68.6 -321.7 68.2 -320.4 64.85 -319.9 63.7 -318.3 62.75 -316.5 61.7 -315.75 60.45 -314.8 58.85 -314.9 55.75 L-315.2 53.0 -314.75 54.2 Q-314.3 55.75 -314.1 57.75 -313.9 59.9 -315.2 61.4 L-318.6 64.05 Q-320.0 64.95 -320.95 67.5 -321.7 69.5 -322.75 69.4 -324.05 69.3 -325.1 70.7 L-325.95 72.1 -325.55 70.45 M-332.45 80.85 Q-331.15 79.9 -329.6 78.15 L-331.6 80.55 Q-334.45 83.75 -334.1 86.3 -333.85 87.95 -334.2 89.65 -334.6 91.4 -335.5 92.4 -336.25 93.2 -335.4 95.1 L-334.1 97.95 Q-333.75 99.15 -333.85 100.85 -334.0 102.6 -334.4 101.95 L-334.4 100.45 Q-334.4 99.1 -335.95 97.1 -337.65 94.9 -337.3 93.75 -337.15 93.3 -335.65 91.75 -334.65 90.75 -334.45 89.1 -334.3 87.65 -334.8 86.3 -335.25 85.05 -334.6 83.55 -333.95 82.0 -332.45 80.85 M-151.35 -65.0 Q-149.35 -65.5 -146.95 -65.0 -144.7 -64.5 -144.45 -63.85 -144.1 -63.0 -139.7 -58.25 L-143.0 -60.8 Q-146.8 -63.3 -149.35 -63.0 -152.1 -62.65 -156.4 -64.45 -160.15 -66.0 -161.7 -67.55 -162.5 -68.35 -166.3 -66.0 -170.85 -63.2 -173.5 -63.3 L-179.75 -63.5 -176.4 -63.55 Q-172.7 -63.8 -171.0 -64.85 L-166.2 -67.85 Q-163.2 -69.5 -161.7 -69.05 L-156.7 -66.55 Q-153.05 -64.6 -151.35 -65.0 M-138.85 -53.65 Q-141.4 -55.55 -143.4 -56.6 L-144.95 -57.25 -142.05 -56.5 Q-138.7 -55.4 -136.5 -53.65 -134.3 -51.95 -133.3 -49.85 -132.85 -48.95 -132.75 -48.25 -133.15 -49.35 -138.85 -53.65 M-129.4 -42.0 Q-128.1 -43.6 -129.9 -48.45 L-131.9 -53.0 Q-129.85 -50.95 -128.35 -47.8 -126.3 -43.55 -127.85 -41.0 -129.4 -38.45 -128.5 -36.7 -128.0 -35.7 -126.15 -34.55 -124.95 -33.85 -126.2 -30.4 -127.3 -27.35 -129.2 -24.75 -131.4 -21.7 -139.7 -15.3 L-138.8 -16.75 Q-137.4 -18.7 -134.8 -21.05 -131.95 -23.55 -130.6 -28.25 -129.45 -32.4 -130.2 -33.75 -130.95 -34.95 -130.85 -37.45 -130.75 -40.3 -129.4 -42.0 M-141.4 -15.45 L-142.55 -13.1 Q-144.6 -10.65 -148.8 -10.2 -156.85 -9.45 -160.65 -7.7 -163.1 -6.5 -169.4 -7.9 -177.05 -9.55 -181.3 -14.45 L-175.3 -11.2 Q-168.1 -8.05 -162.2 -8.35 -156.95 -8.6 -154.15 -10.15 -151.0 -11.9 -148.3 -12.25 -144.15 -12.8 -142.35 -14.15 L-141.4 -15.45 M-206.0 -112.35 Q-204.55 -112.15 -207.65 -110.7 -210.6 -109.4 -213.25 -108.8 -215.25 -108.4 -210.8 -110.35 L-206.0 -112.35 M-205.45 -109.85 L-210.2 -107.3 -212.6 -105.6 Q-214.3 -104.5 -216.15 -104.4 -218.0 -104.3 -218.2 -103.6 -218.3 -103.25 -218.0 -102.9 -219.75 -100.45 -223.0 -100.2 -224.15 -100.1 -223.85 -100.45 -223.55 -100.8 -221.55 -101.2 -218.25 -101.85 -220.9 -103.45 L-222.5 -104.45 Q-222.9 -104.85 -221.55 -104.9 L-216.95 -105.05 Q-215.25 -105.3 -213.25 -106.6 -210.2 -108.65 -205.45 -109.85 M-196.85 -65.2 Q-194.7 -65.4 -190.0 -64.2 L-185.7 -63.0 -198.55 -63.5 -205.95 -63.35 Q-209.1 -63.3 -210.05 -64.35 -210.85 -65.3 -217.35 -67.6 -222.45 -69.45 -221.05 -69.25 L-214.2 -67.5 -208.5 -65.5 -203.25 -64.9 -196.85 -65.2 M-193.8 -31.55 Q-194.05 -28.9 -191.25 -27.4 -188.9 -26.15 -189.75 -24.95 -190.9 -23.25 -189.25 -20.7 L-187.4 -18.5 Q-188.95 -19.25 -190.35 -20.4 -193.2 -22.65 -192.45 -24.45 -191.75 -26.15 -192.8 -27.2 -194.4 -28.4 -195.15 -29.5 -195.7 -30.25 -195.15 -32.75 -194.45 -36.0 -196.0 -41.0 L-194.7 -38.1 Q-193.5 -34.6 -193.8 -31.55 M-180.95 75.3 L-176.35 74.95 -180.3 75.75 Q-184.5 76.75 -185.75 78.0 -186.55 78.8 -186.5 80.6 -186.45 82.1 -188.3 83.1 -190.35 84.25 -192.25 87.7 -193.2 89.45 -193.75 90.95 L-193.0 88.15 Q-191.9 84.95 -190.1 83.25 -188.5 81.75 -188.15 80.35 -187.65 78.55 -186.95 77.55 -185.8 75.95 -180.95 75.3 M-116.25 120.7 Q-118.3 118.7 -119.1 116.35 -120.05 113.6 -119.6 110.95 L-118.95 108.8 -119.0 112.35 Q-118.65 116.35 -116.7 118.6 -113.5 122.25 -111.7 126.15 -113.4 123.5 -116.25 120.7 M-157.65 117.7 L-155.3 119.2 Q-152.95 121.0 -152.65 122.4 -152.35 123.8 -151.2 124.8 L-150.1 125.55 -151.35 125.25 Q-152.7 124.65 -153.25 123.15 -153.8 121.65 -155.8 119.55 L-157.65 117.7 M-142.35 131.6 Q-142.0 133.6 -140.35 135.2 -138.65 136.9 -135.9 137.65 -133.5 138.3 -131.2 137.3 -130.05 136.8 -129.4 136.15 L-130.75 137.95 Q-132.6 139.65 -134.95 139.0 L-139.05 137.3 Q-140.25 136.75 -140.1 137.65 -139.8 139.3 -138.3 139.3 L-139.55 139.2 Q-141.15 138.75 -142.65 137.05 -144.2 135.35 -144.85 133.7 L-145.25 132.35 Q-141.45 138.1 -141.75 135.85 -142.0 133.95 -142.9 132.15 -144.05 129.95 -146.45 127.1 L-144.6 128.4 Q-142.65 130.0 -142.35 131.6 M-126.05 122.7 Q-126.05 120.05 -124.6 116.0 L-123.2 112.45 -124.15 117.15 -125.45 123.9 Q-126.35 128.0 -127.7 130.85 -126.05 126.95 -126.05 122.7 M-137.9 147.95 L-135.0 149.1 Q-133.7 149.4 -133.1 151.3 -132.55 152.95 -132.95 154.35 -132.75 152.7 -134.4 150.95 -135.3 150.05 -136.55 149.3 L-138.4 148.05 Q-139.1 147.4 -137.9 147.95 M-120.75 160.95 L-119.8 161.7 Q-118.5 162.5 -117.95 167.45 -117.8 168.95 -116.25 169.9 L-113.9 170.9 -110.9 172.35 -113.0 171.65 Q-115.2 170.9 -115.55 170.9 L-117.25 170.55 Q-118.55 169.95 -118.75 168.8 -119.25 165.65 -121.25 164.15 L-123.35 162.6 Q-123.95 162.0 -122.45 162.05 -121.3 162.1 -122.0 161.7 -123.1 161.0 -122.75 160.4 -122.45 159.9 -120.65 159.35 -118.4 158.6 -116.5 157.1 -117.8 159.0 -119.55 160.0 L-120.75 160.95 M-121.75 181.0 L-123.15 179.3 Q-121.6 181.1 -118.7 182.2 L-113.95 183.75 Q-111.05 184.85 -107.05 188.2 -113.65 184.85 -117.5 183.6 -119.85 182.8 -121.75 181.0 M-86.1 155.7 Q-88.75 154.95 -91.4 152.35 L-89.0 153.8 Q-86.15 155.25 -83.8 155.4 -81.2 155.55 -79.85 156.15 -78.85 156.6 -78.05 157.7 -76.85 159.2 -72.35 158.65 -70.1 158.45 -72.7 158.85 L-76.25 159.1 -79.0 158.35 Q-80.6 157.7 -81.6 157.8 -83.0 157.9 -83.0 157.5 -82.95 157.1 -81.7 157.1 -80.45 157.1 -80.9 156.55 -81.35 156.0 -82.6 156.0 L-86.1 155.7 M-105.55 144.2 Q-104.15 145.6 -102.35 146.25 -100.7 146.85 -97.5 148.4 -103.25 147.15 -105.5 145.5 -107.2 144.3 -107.9 142.55 -108.6 140.9 -108.25 139.15 -107.95 137.75 -108.75 135.05 L-109.6 132.65 -108.05 135.4 Q-106.6 138.5 -107.0 140.35 -107.45 142.35 -105.55 144.2 M-108.15 175.85 L-105.4 176.5 -105.85 175.85 Q-106.65 174.85 -107.05 173.65 L-105.85 174.8 Q-104.4 175.95 -102.9 176.2 -101.5 176.4 -98.0 175.45 L-93.25 174.3 Q-92.0 174.2 -94.4 174.9 -97.85 175.95 -98.75 176.35 L-101.75 177.5 Q-103.5 177.9 -105.5 177.45 -107.45 177.0 -108.35 176.3 -109.25 175.55 -108.15 175.85 M-189.35 112.9 L-187.3 115.0 Q-185.3 117.4 -185.3 118.9 -185.3 120.15 -184.4 121.45 -183.45 122.85 -183.3 124.05 -183.1 125.65 -185.25 127.95 -186.3 129.1 -187.4 129.95 L-184.65 125.7 Q-183.95 124.7 -184.75 123.65 -185.9 122.0 -186.05 120.0 -186.25 117.45 -187.8 114.9 L-189.35 112.9 M-192.15 106.45 L-191.45 104.55 -191.4 106.05 Q-191.2 107.7 -190.55 108.35 L-187.25 112.1 -191.45 109.1 Q-192.6 108.45 -192.15 106.45 M-193.85 96.35 L-193.0 93.85 -193.3 100.7 Q-193.6 102.85 -194.65 105.0 -195.7 107.2 -195.05 108.3 L-194.5 108.85 Q-196.45 108.1 -196.75 106.7 -196.9 106.0 -195.6 104.15 -194.35 102.2 -194.5 100.8 -194.7 99.2 -193.85 96.35 M-162.45 97.3 Q-160.05 95.25 -161.05 96.75 -162.1 98.3 -163.5 99.15 L-165.3 100.45 Q-165.6 101.05 -164.45 102.0 -163.5 102.75 -163.5 104.25 L-163.2 107.9 Q-162.45 111.05 -160.5 114.4 L-162.0 112.25 -163.4 109.55 Q-164.4 107.35 -164.6 105.95 -164.95 103.4 -168.5 102.0 -169.6 101.55 -169.05 100.9 -168.5 100.2 -166.7 99.75 -164.3 99.15 -162.45 97.3 M-93.75 176.55 L-91.1 175.95 -86.3 174.3 -88.65 175.75 -90.3 176.8 Q-91.5 177.7 -93.6 177.35 L-95.45 176.8 -93.75 176.55 M-83.95 160.05 L-81.6 160.8 Q-79.15 161.7 -78.7 162.45 -78.15 163.35 -78.25 164.3 -78.35 165.35 -79.25 166.85 -79.95 167.95 -79.55 168.3 -79.0 168.7 -79.1 169.25 -79.25 170.2 -80.85 170.85 L-83.8 171.7 -89.4 173.25 -84.65 171.7 Q-82.85 171.2 -81.6 170.3 -80.35 169.4 -80.75 168.8 -81.0 168.4 -80.35 166.95 -79.45 165.15 -79.4 164.0 -79.3 162.6 -81.6 161.2 L-83.95 160.05 M-240.05 175.75 L-238.35 178.3 Q-236.4 180.85 -234.85 181.15 L-229.85 180.8 Q-226.2 180.35 -224.4 181.45 -221.95 182.9 -221.2 184.3 -220.3 185.8 -221.3 187.45 -222.2 188.95 -221.25 191.45 L-219.45 194.8 Q-218.65 196.2 -220.4 194.0 -222.1 191.9 -222.85 190.35 -223.3 189.4 -222.55 187.5 -221.9 185.9 -223.15 184.55 -224.95 182.6 -227.5 181.9 -230.25 181.1 -232.7 182.2 -235.0 183.25 -237.3 180.85 -239.25 178.75 -240.05 175.75 M-195.3 156.25 L-195.4 154.7 -194.65 155.8 Q-193.7 156.95 -192.85 157.3 -191.5 157.9 -190.9 158.75 -190.05 160.1 -190.25 162.75 -190.45 165.2 -189.1 166.45 L-187.85 167.2 Q-189.3 166.85 -190.55 165.0 -191.0 164.35 -191.3 161.7 -191.6 159.55 -193.15 158.8 -194.85 157.95 -195.3 156.25 M-173.5 155.8 Q-177.4 156.3 -178.75 154.15 -179.9 152.3 -178.65 150.5 -177.75 149.3 -177.4 146.35 L-177.25 143.7 -177.05 145.55 Q-176.95 147.95 -177.4 150.5 -177.85 153.05 -175.75 154.65 -174.65 155.5 -173.5 155.8 M-236.75 175.9 Q-238.85 174.35 -239.75 172.7 -240.7 170.95 -242.45 170.9 L-247.1 171.65 -252.65 171.25 -255.25 170.25 -249.3 170.85 -246.65 169.95 -243.35 169.05 Q-241.45 168.85 -240.35 170.55 -238.65 173.15 -234.85 177.15 L-236.75 175.9 M-179.4 169.1 L-180.2 169.3 -181.8 169.25 -179.4 169.1 Q-177.95 168.5 -176.65 166.65 -175.05 164.4 -174.55 161.7 L-174.4 159.4 -174.1 161.2 Q-173.95 163.45 -175.0 165.9 -176.05 168.35 -179.0 169.05 L-179.4 169.1 M-192.15 224.95 L-189.65 224.95 Q-186.8 225.1 -185.05 225.7 -181.9 226.75 -177.7 227.45 L-168.95 227.7 -163.0 226.85 -160.05 226.9 -163.35 227.5 Q-167.2 228.1 -167.55 228.6 -167.85 229.1 -172.35 229.45 -176.1 229.7 -175.1 230.0 -173.05 230.55 -172.5 231.3 -171.85 232.15 -174.75 232.15 L-181.35 232.25 -188.0 231.55 -189.45 231.05 -188.15 231.0 -182.45 230.75 -178.8 230.05 Q-178.1 229.65 -180.15 228.6 -182.65 227.35 -184.7 226.7 -187.25 225.9 -192.15 224.95 M-216.85 204.8 Q-218.2 203.65 -218.05 202.75 L-217.65 202.05 -216.0 204.6 Q-214.4 207.55 -214.4 209.25 -214.4 211.65 -214.1 212.7 -213.65 214.25 -211.95 216.15 -210.55 217.75 -206.25 218.9 -201.65 220.1 -201.2 220.45 -199.65 221.7 -194.45 222.15 L-201.95 221.7 -206.35 219.8 Q-210.0 218.2 -212.4 218.3 -215.0 218.4 -215.1 217.4 -214.85 215.25 -214.85 212.95 -214.85 208.9 -215.05 207.85 -215.4 206.05 -216.85 204.8 M-224.05 196.2 Q-223.3 197.4 -223.3 198.6 -223.3 200.0 -222.65 201.1 L-220.85 203.1 Q-219.3 204.45 -218.55 207.6 -220.7 204.7 -223.45 201.9 -224.9 200.5 -224.5 199.15 -223.95 197.35 -224.85 195.3 L-224.05 196.2 M-203.9 225.45 L-206.7 224.15 -205.3 224.7 -201.8 225.4 -194.75 226.45 Q-200.05 226.75 -203.9 225.45 M-92.35 195.0 Q-88.95 196.1 -88.45 196.8 -87.6 198.05 -87.0 197.0 -86.5 196.1 -88.9 193.75 -92.2 190.55 -87.95 193.45 -84.15 195.95 -83.85 197.75 -83.6 199.3 -84.15 198.75 L-85.55 197.45 -86.15 200.65 Q-86.8 204.55 -89.35 206.05 -88.55 205.15 -88.0 203.9 -86.9 201.4 -88.15 199.75 -89.45 198.05 -92.45 196.7 -93.15 196.35 -97.5 194.8 L-102.35 192.6 -104.9 191.15 -102.25 192.2 Q-99.3 193.3 -97.65 193.6 -95.35 194.0 -92.35 195.0 M-102.6 187.15 L-100.3 187.75 -98.3 187.9 Q-103.5 189.9 -105.35 186.85 -106.35 185.15 -107.25 184.5 -106.45 184.85 -105.35 185.5 L-102.6 187.15 M-113.75 221.25 Q-110.55 219.8 -107.95 219.8 -103.8 219.8 -98.3 218.65 -101.65 220.8 -103.8 220.8 L-108.05 220.65 Q-111.55 220.85 -116.4 222.65 L-113.75 221.25 M-108.9 217.1 L-105.35 216.15 -98.45 214.5 Q-95.75 213.95 -94.5 212.6 -93.35 211.05 -92.3 210.2 L-91.65 209.8 -92.15 210.7 Q-93.25 212.5 -92.3 212.65 L-88.15 212.9 Q-85.6 213.0 -86.6 213.55 L-90.7 214.3 Q-94.45 214.6 -96.45 215.25 -98.85 216.05 -104.1 216.65 L-108.9 217.1 M-153.1 225.1 L-148.25 223.5 Q-142.95 221.95 -140.65 222.15 L-127.3 222.6 Q-123.15 222.6 -117.95 220.15 -122.55 223.1 -127.3 224.15 L-134.25 224.75 -140.05 225.1 Q-142.15 225.6 -138.6 226.3 L-133.15 227.1 Q-131.0 227.25 -125.45 225.4 -130.05 227.7 -134.4 228.15 -136.75 228.4 -139.75 227.05 -142.9 225.65 -144.2 225.7 -146.15 225.8 -143.75 224.85 L-141.0 223.85 -143.15 223.65 Q-146.55 223.75 -153.1 225.1 M-321.0 128.95 Q-321.9 127.95 -321.75 126.35 -321.6 124.8 -322.75 124.0 -323.7 123.35 -326.4 122.7 L-324.05 123.15 Q-321.55 123.8 -321.1 124.85 -320.7 125.7 -320.45 127.45 -320.05 128.85 -318.45 129.1 -316.55 129.4 -315.1 130.15 -313.7 130.85 -313.4 131.55 -317.05 129.5 -318.8 129.75 -320.15 130.0 -321.0 128.95 M-312.1 126.15 Q-308.7 127.15 -307.9 128.6 -306.7 130.9 -305.5 131.65 -303.5 132.95 -299.0 133.0 -290.75 133.1 -288.3 135.55 -287.15 136.7 -286.45 137.05 L-284.25 137.35 Q-282.85 137.2 -281.9 137.7 -281.0 138.15 -282.4 138.3 L-284.55 138.25 -286.4 138.4 Q-286.95 138.6 -288.15 136.85 -289.65 134.75 -292.2 134.1 L-299.45 133.85 Q-304.0 134.2 -305.0 133.8 -306.45 133.2 -307.4 131.65 L-308.6 128.9 Q-309.05 127.7 -310.45 127.0 -311.65 126.4 -315.3 125.45 L-312.1 126.15 M-282.1 142.45 Q-280.55 142.15 -279.95 140.55 L-279.65 139.0 -278.95 140.4 Q-278.65 141.95 -280.6 142.75 L-285.15 143.15 -287.3 142.65 -285.6 142.75 -282.1 142.45 M-281.8 157.0 Q-280.75 158.95 -280.7 160.5 -280.7 161.85 -283.55 163.35 -286.15 164.75 -285.85 165.25 -285.3 166.1 -289.0 166.65 L-301.6 167.65 -290.05 165.75 Q-288.05 165.4 -287.05 164.25 -285.9 162.85 -283.75 162.1 -281.05 161.15 -281.65 158.15 L-282.85 155.35 -281.8 157.0 M-313.45 167.8 Q-312.85 168.2 -313.05 169.75 -313.2 170.85 -310.55 170.5 L-304.6 169.5 -298.55 169.8 -296.05 170.4 -301.95 170.05 Q-307.05 170.1 -310.3 170.9 L-314.05 170.8 Q-314.4 170.4 -314.2 169.1 -314.15 168.55 -317.95 168.65 L-326.05 168.8 Q-329.95 168.75 -330.9 167.15 -331.65 165.8 -330.25 164.4 -329.3 163.45 -331.2 162.3 L-333.35 161.4 Q-326.75 163.2 -328.55 164.8 L-330.05 166.25 Q-330.2 166.8 -328.3 167.65 -326.55 168.45 -323.7 168.1 L-317.6 167.4 -313.45 167.8 M-279.55 151.0 Q-277.75 150.7 -275.55 152.3 L-270.25 156.55 -266.45 159.6 Q-270.35 158.0 -272.8 155.55 -275.15 153.2 -276.65 152.3 -278.9 151.0 -280.9 151.65 L-279.55 151.0 M-268.7 164.05 Q-271.5 162.6 -272.95 161.45 -274.65 160.1 -275.55 159.75 -276.85 159.2 -275.55 161.15 -273.8 163.8 -274.7 165.3 -275.95 167.35 -282.05 167.85 L-278.7 166.7 Q-275.35 165.3 -275.4 164.15 L-276.7 160.45 Q-277.55 158.15 -276.05 158.65 -275.15 158.95 -270.6 161.75 -266.35 164.35 -264.35 164.7 -262.15 165.15 -260.65 166.85 -259.85 167.7 -259.55 168.45 -262.4 165.5 -264.2 165.6 -265.45 165.7 -268.7 164.05 M-263.4 173.8 Q-261.3 173.45 -261.65 172.8 -262.45 171.25 -262.3 170.4 L-261.0 171.85 Q-259.25 173.4 -256.95 173.8 -253.25 174.4 -250.35 175.95 -254.5 174.7 -257.25 174.85 L-262.75 174.6 Q-265.95 174.2 -263.4 173.8 M-338.6 90.2 Q-340.2 91.0 -340.95 92.75 -341.65 94.3 -341.4 95.7 -341.25 96.5 -339.6 98.9 -338.05 101.2 -338.0 102.05 L-337.8 105.55 Q-337.5 108.1 -336.65 109.6 -335.15 112.2 -337.0 109.8 -338.4 108.0 -338.4 106.5 -338.4 104.5 -339.0 102.45 -339.7 100.0 -340.9 99.2 -342.4 98.1 -343.05 96.5 -343.8 94.55 -342.65 93.0 -341.8 91.85 -340.1 90.7 -338.65 89.7 -338.4 89.1 -338.1 88.25 -338.2 87.5 L-338.4 86.9 -337.65 88.15 Q-337.2 89.5 -338.6 90.2 M-329.25 111.85 Q-328.1 112.6 -328.1 113.6 -328.1 116.95 -325.95 118.25 L-322.0 120.7 -326.55 119.15 Q-327.75 118.75 -328.35 116.55 L-328.8 113.7 Q-328.8 113.3 -330.2 112.35 -331.85 111.25 -332.35 110.2 L-333.15 107.6 Q-332.8 108.75 -331.8 109.9 L-329.25 111.85 M-332.05 143.75 Q-335.1 145.9 -335.55 147.7 -335.9 149.1 -334.75 150.7 -333.85 151.95 -334.7 152.8 -335.85 153.9 -335.15 155.2 -334.5 156.3 -332.75 157.15 -331.35 157.8 -329.95 159.1 L-328.55 160.75 -330.0 159.55 Q-332.1 157.75 -334.2 157.2 -336.6 156.55 -336.8 154.75 -337.0 153.15 -335.65 152.55 -334.65 152.15 -335.1 151.05 L-336.4 149.15 Q-337.3 147.95 -335.8 146.0 -333.95 143.65 -329.1 141.95 L-332.05 143.75 M170.35 150.65 L165.65 151.25 167.45 150.1 Q169.55 149.1 170.95 149.75 L174.05 151.65 Q175.9 152.8 177.45 152.9 180.0 153.05 181.35 152.15 179.1 154.1 176.55 153.95 175.1 153.85 172.95 152.2 170.85 150.6 170.35 150.65 M179.7 172.1 Q179.35 169.35 178.45 167.35 L177.6 165.9 178.45 166.45 Q179.45 167.45 180.3 169.55 181.15 171.6 181.2 175.7 L181.05 179.35 Q180.3 176.5 179.7 172.1 M182.75 158.65 Q182.15 158.45 181.9 157.25 L181.8 156.1 182.3 156.7 183.95 158.35 186.05 160.05 Q186.85 161.1 186.2 163.35 185.55 165.5 186.1 167.9 L186.8 169.85 185.55 168.05 Q184.45 165.9 185.0 164.1 185.6 162.2 184.55 160.4 183.7 158.95 182.75 158.65 M189.45 176.6 Q190.45 178.9 190.0 181.45 189.5 184.15 190.55 185.65 191.2 186.5 192.85 187.35 194.35 188.1 201.15 186.3 195.7 188.55 192.85 188.4 190.75 188.3 189.75 186.25 188.75 184.2 189.2 181.0 189.6 178.4 189.0 176.35 L188.3 174.8 189.45 176.6 M203.75 181.15 L202.45 183.15 Q201.55 184.35 202.05 183.3 202.8 181.75 203.1 179.95 203.4 179.3 205.4 178.75 L207.35 178.3 208.75 179.25 Q210.7 180.35 213.25 181.0 215.8 181.65 217.55 180.65 L218.85 179.5 217.9 180.6 Q216.6 181.7 214.9 181.6 210.4 181.35 209.15 180.1 L206.3 179.95 Q204.1 180.45 203.75 181.15 M226.85 140.35 Q224.75 139.7 222.9 138.25 L225.5 139.35 230.15 139.15 Q231.85 138.1 232.4 136.35 L232.6 134.8 233.05 137.2 Q233.15 139.7 231.35 140.35 229.4 141.1 226.85 140.35 M219.0 138.65 Q216.9 139.65 217.0 141.0 217.15 143.1 216.4 143.95 215.3 145.3 211.9 144.9 214.75 145.05 215.65 143.55 216.0 142.95 216.2 140.85 216.3 139.1 217.15 138.7 218.7 137.95 221.1 137.95 L219.0 138.65 M228.6 170.85 L225.35 168.0 Q224.15 167.05 223.35 165.05 222.6 163.25 222.6 161.65 L222.15 158.15 221.7 156.1 222.55 159.65 Q223.6 163.6 224.55 165.45 225.6 167.5 228.6 170.85 L230.2 172.35 232.75 174.95 Q231.55 174.2 228.7 171.0 L228.6 170.85 M233.35 178.45 Q230.9 177.7 230.0 177.1 229.45 176.75 227.6 174.0 L226.7 172.7 Q228.25 174.55 233.35 178.45 M220.5 175.55 L221.5 177.4 Q222.25 179.6 220.95 181.3 219.65 183.0 218.05 183.4 L216.7 183.45 217.75 183.1 Q219.0 182.55 220.05 181.6 221.1 180.65 220.9 178.0 L220.5 175.55 M236.45 177.7 L241.2 178.3 247.1 177.7 Q244.95 179.35 241.5 179.65 239.05 179.85 239.45 180.4 239.75 180.9 241.8 181.3 244.25 181.75 240.9 181.95 237.95 182.1 236.05 181.0 234.25 179.95 235.5 180.2 L237.55 180.7 Q238.2 180.85 238.35 180.4 238.5 179.85 237.1 179.05 233.25 176.85 235.6 177.4 L236.45 177.7 M104.85 158.4 L101.45 157.45 Q100.05 157.25 99.8 156.85 99.6 156.55 99.95 155.35 L100.85 151.85 100.9 152.9 101.3 155.15 Q101.65 156.4 102.8 157.1 103.9 157.75 105.55 157.75 L108.25 157.45 109.1 159.15 Q109.7 161.1 108.55 162.45 107.45 163.75 107.45 165.95 L107.65 167.85 Q106.6 165.6 107.2 163.05 L107.8 160.1 Q107.85 159.1 107.35 159.1 L104.85 158.4 M86.65 158.35 Q85.1 158.6 83.1 157.65 80.95 156.7 80.3 155.15 79.05 152.2 77.75 151.7 77.05 151.4 78.15 150.55 79.3 149.6 81.2 149.6 80.55 149.7 80.15 150.15 79.35 151.1 80.45 153.05 81.75 155.4 83.2 156.05 L87.25 156.4 Q89.25 156.25 90.1 155.35 90.95 154.45 91.95 154.4 94.2 154.25 95.25 152.75 L94.25 154.15 Q92.95 155.6 91.65 155.8 90.55 155.95 89.1 157.1 87.6 158.2 86.65 158.35 M107.5 182.9 Q107.3 180.75 107.95 179.05 108.85 176.65 107.65 172.1 108.95 174.0 109.0 176.35 109.0 177.7 108.4 180.7 108.05 182.55 108.55 184.15 L109.6 187.05 Q109.95 188.35 109.25 190.25 L109.0 191.05 109.0 189.9 Q109.0 187.25 108.4 186.15 107.65 184.8 107.5 182.9 M150.15 150.25 Q147.65 150.9 147.55 152.6 L147.55 155.95 Q147.35 157.25 145.4 157.45 L141.05 157.4 138.9 157.15 Q144.65 157.0 145.25 155.8 L146.0 153.25 Q146.65 151.4 148.15 150.5 149.65 149.55 151.3 149.65 L152.65 149.9 150.15 150.25 M144.3 158.95 L146.95 158.35 Q149.05 157.75 150.4 155.8 149.1 158.8 146.05 159.25 L143.3 159.1 144.3 158.95 M157.2 155.2 Q160.05 155.5 163.25 153.95 160.35 156.1 157.8 156.25 156.2 156.35 154.55 154.55 L153.25 152.75 154.15 153.85 Q155.4 155.0 157.2 155.2 M139.2 161.65 L139.2 165.95 Q139.3 170.55 140.0 171.95 141.05 174.2 140.6 177.85 140.6 174.8 139.2 172.7 138.3 171.3 138.45 166.9 138.65 163.0 139.2 161.65 M149.35 170.9 Q149.2 172.05 149.05 171.75 148.9 171.5 149.2 170.3 150.0 166.7 152.95 163.2 L151.3 165.9 Q149.65 169.0 149.35 170.9 M153.9 195.2 Q155.95 197.2 159.0 197.8 L161.35 198.0 Q156.25 198.35 155.1 197.3 154.15 196.5 154.25 197.6 154.3 198.7 155.4 199.45 157.4 200.85 154.5 199.5 152.25 198.5 151.3 196.7 150.65 195.55 151.85 196.6 153.3 197.85 152.65 196.1 L150.45 191.45 Q149.2 188.4 149.5 184.8 L150.45 188.8 Q151.8 193.25 153.9 195.2 M141.8 187.35 Q141.35 186.7 141.3 184.3 L141.35 182.05 Q141.6 184.1 142.4 185.55 143.15 186.85 143.15 187.35 L142.7 190.85 Q142.55 188.4 141.8 187.35 M135.15 195.65 L131.15 195.5 Q127.45 194.25 126.85 191.0 L128.95 193.7 131.75 194.45 Q135.1 194.9 137.7 193.7 140.35 192.5 140.45 191.05 L140.0 189.9 141.1 190.85 Q141.95 192.0 140.75 193.1 139.65 194.1 137.35 194.7 135.35 195.25 135.15 195.65 M135.6 200.95 L136.2 203.3 Q136.5 205.9 135.3 207.3 133.85 209.0 132.15 210.15 130.45 211.25 132.6 209.1 134.4 207.3 135.15 203.95 L135.6 200.95 M125.0 212.85 Q121.2 213.1 118.4 210.9 115.45 208.65 115.95 209.85 116.5 211.05 117.6 211.8 119.85 213.35 117.25 212.1 115.9 211.45 114.3 208.95 113.05 207.0 113.6 207.55 114.85 208.65 114.9 207.9 114.4 206.45 114.25 205.35 114.0 203.35 116.1 200.65 L115.4 202.8 Q115.1 205.55 117.15 208.65 119.25 211.8 123.95 212.3 L128.2 212.15 125.0 212.85 M117.9 195.35 L113.0 196.0 Q110.6 195.7 110.2 193.4 L110.5 194.3 Q111.2 195.25 113.4 195.35 116.0 195.45 118.3 194.55 120.55 193.6 119.45 192.8 118.35 192.05 119.25 190.7 120.1 189.4 121.55 189.15 122.25 189.05 121.4 189.55 120.0 190.45 120.35 191.15 121.95 194.3 117.9 195.35 M102.95 188.25 Q103.25 191.3 101.85 194.15 L100.4 196.4 Q102.2 191.3 102.05 189.15 L101.9 179.05 102.95 188.25 M98.9 195.45 L97.05 200.95 Q96.45 202.35 94.2 203.3 92.9 203.85 93.75 203.95 95.5 204.2 93.75 204.95 L90.6 204.9 Q89.2 204.2 88.25 204.5 L86.65 205.5 83.7 205.45 Q81.7 204.75 81.8 203.65 L83.05 204.35 Q84.5 204.9 85.6 204.1 L87.8 202.75 91.2 202.3 Q93.7 202.3 95.5 201.0 97.35 199.65 98.15 197.15 L99.95 191.9 98.9 195.45 M220.95 188.25 L222.8 190.15 Q224.35 192.65 222.9 195.35 221.5 198.1 219.5 199.5 L217.8 200.35 219.45 199.15 Q221.3 197.4 222.15 194.75 223.0 192.15 222.05 189.95 L220.95 188.25 M220.35 186.0 Q223.5 186.2 224.35 189.3 224.75 190.85 224.55 192.35 224.45 189.3 222.4 187.35 L220.35 186.0 M205.55 200.65 Q203.85 199.75 202.75 197.75 L202.35 197.05 202.35 197.8 202.5 201.1 Q201.95 199.9 201.75 197.95 201.4 194.1 203.25 190.55 L202.75 193.3 Q202.65 196.45 204.35 198.25 206.1 200.1 209.3 200.95 L213.25 201.55 211.05 201.7 Q207.4 201.7 205.55 200.65 M180.8 186.35 L180.75 185.55 181.2 188.45 Q181.4 191.95 179.85 195.05 178.4 198.05 175.1 198.8 L172.15 199.6 Q172.15 200.4 169.9 200.75 L164.9 200.5 Q169.45 200.65 169.9 199.45 170.2 198.7 172.2 198.1 L176.25 197.0 Q178.2 196.45 179.45 194.3 180.65 192.25 180.75 189.6 L180.8 186.35 M22.6 136.9 L22.8 139.25 Q22.65 141.75 20.95 142.8 18.2 144.45 15.35 144.45 17.0 144.15 19.55 142.5 21.2 141.45 22.05 139.05 L22.6 136.9 M10.7 148.0 L11.7 147.3 10.45 148.85 Q9.2 150.55 9.0 151.4 8.7 152.85 7.8 153.65 6.5 154.85 4.3 154.4 L-0.35 153.45 -5.05 153.2 -3.0 152.95 1.15 153.05 5.0 153.15 Q6.95 152.75 8.25 150.8 9.45 149.0 10.7 148.0 M11.65 154.65 Q13.15 153.0 13.25 151.4 13.35 149.5 15.0 147.85 16.6 146.2 18.5 146.1 21.1 145.95 22.45 144.6 L21.6 145.7 Q20.4 146.85 18.5 147.15 16.35 147.45 15.3 148.55 14.3 149.45 14.3 150.8 14.3 152.0 13.05 153.55 L10.2 155.95 11.65 154.65 M20.65 167.05 Q22.25 166.55 21.85 165.6 20.4 162.05 20.8 160.15 L21.55 155.65 Q22.1 152.4 22.3 153.2 L21.8 155.9 Q21.4 159.1 21.85 161.65 L23.15 165.6 Q23.5 166.65 22.15 167.25 20.75 167.9 20.8 169.6 L21.25 173.0 Q21.35 174.8 20.05 172.3 18.7 169.85 18.8 168.45 18.85 167.6 20.65 167.05 M19.75 178.85 Q20.15 180.0 19.75 182.05 19.1 185.4 18.5 186.15 18.05 184.5 18.8 182.35 L19.35 179.45 19.25 178.15 19.75 178.85 M62.35 178.75 Q61.85 176.75 61.75 174.65 61.65 172.4 62.5 169.9 L63.4 167.85 62.85 170.05 Q62.3 172.55 62.2 174.05 62.15 175.2 63.05 177.0 64.05 179.1 64.3 181.3 64.75 185.55 63.4 191.15 63.4 184.35 63.1 181.9 L62.35 178.75 M65.35 153.2 Q67.45 153.05 70.8 150.8 L69.15 152.45 Q67.1 154.1 65.2 153.8 63.1 153.5 62.95 154.05 62.9 154.4 64.0 156.55 64.85 158.15 64.2 161.2 L63.4 163.95 63.4 159.4 61.4 155.8 Q60.05 153.6 65.35 153.2 M70.35 145.35 L71.5 145.7 73.8 145.95 Q75.3 145.8 78.65 147.3 L73.05 147.15 Q72.2 147.4 71.4 148.3 71.1 148.7 71.25 148.25 71.7 147.0 70.35 145.35 M22.35 180.85 L21.7 178.3 Q22.8 180.2 22.95 182.45 23.05 184.65 22.15 186.0 21.4 187.15 21.0 189.25 L20.5 192.95 Q20.2 195.35 21.7 200.35 19.6 197.0 19.1 194.45 18.75 192.4 19.3 190.1 19.85 187.6 21.4 185.55 22.7 183.75 22.35 180.85 M66.9 161.3 L67.1 163.05 Q67.1 165.4 66.4 168.35 65.7 171.35 65.7 174.35 L65.9 176.75 Q65.45 176.0 65.1 174.75 64.4 172.2 64.95 169.5 65.45 166.85 66.25 163.8 L66.9 161.3 M68.95 177.6 Q70.1 171.75 73.05 169.85 L71.25 173.35 Q69.45 177.15 69.45 178.6 69.45 180.85 68.35 183.1 68.35 180.55 68.95 177.6 M-27.25 96.8 L-26.7 99.8 Q-26.35 103.1 -27.1 104.65 -28.3 107.2 -28.0 111.6 L-28.85 108.95 Q-29.5 106.0 -28.6 104.8 -27.55 103.5 -27.3 101.65 -27.1 100.3 -27.25 96.8 M-27.65 124.45 Q-28.95 126.6 -28.0 128.6 L-25.8 133.05 Q-24.7 135.4 -24.7 136.9 -24.7 139.0 -25.1 139.6 -25.55 140.15 -25.75 137.05 -25.95 134.35 -27.35 131.6 L-29.2 128.0 Q-29.55 126.65 -27.9 124.55 L-26.2 122.7 -27.65 124.45 M-46.05 96.55 Q-46.6 100.0 -47.25 100.8 -48.0 101.8 -48.55 103.8 -49.1 105.75 -49.0 106.9 -48.85 108.1 -49.9 109.5 -51.0 111.05 -52.55 111.15 -54.25 111.25 -55.0 111.85 -55.75 112.4 -55.95 113.85 -56.1 112.95 -55.85 112.0 -55.4 110.15 -53.45 109.85 -51.4 109.55 -50.6 107.95 -50.25 107.25 -49.75 104.65 -49.15 101.75 -47.4 97.4 L-45.6 93.25 -46.05 96.55 M-60.65 124.35 L-58.85 118.75 -59.3 124.65 Q-59.55 127.4 -58.05 129.05 L-53.55 135.25 -58.4 130.25 Q-59.9 128.85 -60.4 126.45 L-60.65 124.35 M-50.05 141.55 Q-49.35 141.95 -49.3 144.05 -49.25 147.2 -51.35 148.1 L-50.8 147.0 Q-50.35 145.9 -50.6 145.25 -50.85 144.5 -51.35 144.75 -51.85 145.05 -51.95 145.9 -52.1 147.05 -53.65 148.85 L-53.35 147.05 Q-52.95 145.2 -52.6 144.8 -52.2 144.35 -52.35 143.1 -52.45 141.8 -53.0 140.9 -53.55 140.0 -52.8 140.75 -52.05 141.45 -51.85 142.1 L-51.2 143.0 Q-50.75 143.2 -50.75 142.35 -50.75 141.2 -50.05 141.55 M-55.25 152.75 Q-56.45 155.0 -57.7 155.25 L-59.8 155.6 Q-60.55 155.75 -60.65 156.15 L-59.25 156.4 Q-57.8 156.35 -57.95 156.75 -58.1 157.15 -59.45 157.2 L-62.5 157.65 Q-66.7 158.95 -67.9 158.25 -65.45 158.0 -63.4 156.75 -62.25 156.0 -60.65 155.5 L-57.9 154.55 Q-56.7 154.05 -55.85 152.85 L-54.75 151.15 Q-53.8 150.2 -55.25 152.75 M-69.75 161.6 L-64.4 161.2 Q-61.1 161.0 -65.0 162.1 -69.1 163.2 -69.55 162.8 -69.85 162.45 -72.1 162.25 L-74.25 162.1 -72.85 161.75 -69.75 161.6 M-15.3 155.5 L-19.6 154.75 Q-20.95 154.35 -20.3 155.35 -19.1 157.15 -16.7 157.6 L-18.95 157.05 Q-21.45 156.15 -22.9 154.25 -24.3 152.4 -24.8 150.2 L-25.0 148.4 -23.3 151.05 Q-21.5 153.55 -21.05 152.6 -20.75 151.95 -23.0 147.65 -25.15 143.6 -24.1 143.1 L-23.5 144.5 -21.05 148.25 Q-19.8 149.9 -19.5 151.5 -19.25 152.75 -18.5 153.35 -17.4 154.25 -14.65 154.4 L-10.5 154.25 Q-8.4 153.95 -10.75 154.75 L-15.3 155.5 M69.35 192.85 Q69.7 196.0 71.25 197.6 72.75 199.25 77.15 200.2 L80.95 200.8 74.55 200.2 72.2 200.3 Q71.3 200.7 72.45 201.55 73.95 202.65 72.6 202.85 71.4 203.0 70.05 200.95 68.9 199.2 69.45 199.0 L70.2 198.55 Q69.4 197.05 68.95 195.65 68.05 192.95 69.3 190.05 L69.35 192.85 M64.6 199.45 L64.15 202.55 Q63.85 205.9 64.9 207.0 66.25 208.5 66.55 209.7 66.85 211.2 65.8 212.9 64.85 214.4 64.8 216.65 L64.9 218.6 Q64.35 216.6 64.75 213.9 L65.5 210.3 Q65.65 209.4 64.6 207.8 63.4 206.0 63.25 205.2 63.05 204.05 63.8 201.65 L64.6 199.45 M48.0 227.85 L50.4 228.1 Q52.85 228.55 52.95 229.65 53.05 230.55 51.1 231.95 49.55 233.05 50.4 233.45 L53.65 234.05 56.6 234.35 61.25 234.05 Q57.65 235.1 55.55 235.1 L51.45 234.35 48.3 233.75 Q47.45 233.9 47.9 233.35 48.4 232.75 50.25 232.05 52.4 231.2 51.85 229.85 51.25 228.4 48.0 227.85 M69.6 212.3 Q69.95 213.8 69.05 215.95 68.1 218.1 68.4 221.5 68.55 223.2 68.85 224.45 67.95 224.0 67.25 223.15 65.85 221.45 66.9 219.4 68.3 216.6 68.7 215.25 69.25 213.35 69.05 211.2 L69.6 212.3 M67.0 226.95 Q67.75 227.1 66.4 228.5 64.85 230.1 65.05 230.7 L67.4 232.55 Q68.95 233.55 67.75 233.9 L64.95 234.5 64.0 234.65 Q67.0 234.2 66.55 233.3 66.45 233.1 64.15 231.6 62.4 230.4 63.4 229.8 64.6 229.05 65.2 228.15 65.8 227.35 65.35 227.1 64.75 226.8 65.35 223.75 L65.6 225.25 Q66.05 226.75 67.0 226.95 M63.85 236.3 Q66.6 235.65 63.1 237.1 59.9 238.45 58.55 238.25 53.75 237.5 55.7 237.2 L63.85 236.3 M36.35 226.65 L40.1 226.8 Q42.1 227.4 45.4 226.8 L40.9 227.7 38.2 227.55 35.0 227.7 Q33.6 228.0 33.8 229.45 L34.7 231.75 Q35.1 232.5 33.85 233.15 L32.55 233.6 33.4 232.55 Q34.0 231.4 32.85 230.85 31.75 230.3 32.4 229.1 L33.3 228.0 Q34.0 227.05 36.35 226.65 M20.55 230.65 L20.5 229.05 Q21.7 230.5 21.0 231.8 L19.6 234.2 Q19.2 235.4 21.35 235.15 L25.3 234.65 Q26.45 234.65 25.5 235.7 24.45 236.85 25.45 237.05 27.45 237.5 30.15 235.7 27.45 238.25 25.6 238.1 24.75 238.05 23.95 237.0 23.15 236.0 22.15 236.0 20.45 236.0 19.15 235.15 17.75 234.25 19.1 233.3 20.35 232.45 20.55 230.65 M18.5 204.4 Q19.95 205.6 20.5 208.0 21.05 210.5 20.2 212.9 19.25 215.4 19.25 216.75 19.25 218.15 20.2 220.3 20.95 222.1 20.5 223.6 20.3 224.4 19.9 224.8 19.75 221.4 18.65 219.5 18.0 218.3 18.5 216.15 L19.6 211.4 Q20.0 209.0 19.3 206.45 L18.5 204.4" fill="#ffffff" fill-rule="evenodd" stroke="none"/>
    </g>
  </defs>
</svg>
